<?xml version="1.0" encoding="UTF-8"?>
<svg xmlns="http://www.w3.org/2000/svg" xmlns:xlink="http://www.w3.org/1999/xlink" version="1.2" >
<font id="Masbul Bold">
<font-face  font-family="Masbul" units-per-em="1000" ascent="1009" descent="-293" font-style="normal" font-weight="700" font-stretch="normal" cap-height="710" x-height="528" underline-position="-100" underline-thickness="63" />
<missing-glyph  horiz-adv-x="500" d="M450 0 L50 0 L50 750 L450 750 L450 0 Z M100 50 L400 50 L400 700 L100 700 L100 50 Z " />
<glyph glyph-name="uni0000" d="" />
<glyph glyph-name="uni0020" unicode="&#x20;" horiz-adv-x="209" d="" />
<glyph glyph-name="uni000D002" unicode="&#xd;" horiz-adv-x="209" d="" />
<glyph glyph-name="uni002E" unicode="&#x2e;" horiz-adv-x="270" d="M135 -4 Q110 -4 90.5 8 Q71 20 59 40 Q47 60 47 84 Q47 108 59 128 Q71 148 90.5 160 Q110 172 135 172 Q160 172 179.5 160 Q199 148 211 128 Q223 108 223 84 Q223 60 211 40 Q199 20 179.5 8 Q160 -4 135 -4 Z " />
<glyph glyph-name="uni003A" unicode="&#x3a;" horiz-adv-x="270" d="M135 -4 Q110 -4 90.5 8 Q71 20 59 40 Q47 60 47 84 Q47 108 59 128 Q71 148 90.5 160 Q110 172 135 172 Q160 172 179.5 160 Q199 148 211 128 Q223 108 223 84 Q223 60 211 40 Q199 20 179.5 8 Q160 -4 135 -4 Z M135 356 Q110 356 90.5 368 Q71 380 59 400 Q47 420 47 444 Q47 468 59 488 Q71 508 90.5 520 Q110 532 135 532 Q160 532 179.5 520 Q199 508 211 488 Q223 468 223 444 Q223 420 211 400 Q199 380 179.5 368 Q160 356 135 356 Z " />
<glyph glyph-name="uni002C" unicode="&#x2c;" horiz-adv-x="270" d="M78 -166 L52 -87 Q82 -79 104.5 -63 Q127 -47 139.5 -26.5 Q152 -6 152 17 Q152 24 151 30 Q138 21 121 21 Q101 21 84.5 31 Q68 41 58 58.5 Q48 76 48 96 Q48 117 59.5 134.5 Q71 152 90 162.5 Q109 173 132 173 Q164 173 189 154.5 Q214 136 229 104 Q244 72 244 33 Q244 -14 223.5 -54.5 Q203 -95 165.5 -124 Q128 -153 78 -166 Z " />
<glyph glyph-name="uni003B" unicode="&#x3b;" horiz-adv-x="270" d="M78 -166 L52 -87 Q82 -79 104.5 -63 Q127 -47 139.5 -26.5 Q152 -6 152 17 Q152 24 151 30 Q138 21 121 21 Q101 21 84.5 31 Q68 41 58 58.5 Q48 76 48 96 Q48 117 59.5 134.5 Q71 152 90 162.5 Q109 173 132 173 Q164 173 189 154.5 Q214 136 229 104 Q244 72 244 33 Q244 -14 223.5 -54.5 Q203 -95 165.5 -124 Q128 -153 78 -166 Z M135 356 Q110 356 90.5 368 Q71 380 59 400 Q47 420 47 444 Q47 468 59 488 Q71 508 90.5 520 Q110 532 135 532 Q160 532 179.5 520 Q199 508 211 488 Q223 468 223 444 Q223 420 211 400 Q199 380 179.5 368 Q160 356 135 356 Z " />
<glyph glyph-name="uni003F" unicode="&#x3f;" horiz-adv-x="540" d="M191 221 L191 376 Q360 417 360 511 Q360 536 348 556 Q336 576 314 587 Q292 598 264 598 Q225 598 194.5 576.5 Q164 555 152 518 L20 547 Q29 586 51 618.5 Q73 651 105 675 Q137 699 177.5 712 Q218 725 265 725 Q317 725 361 709.5 Q405 694 437.5 666 Q470 638 488 599.5 Q506 561 506 516 Q506 466 484 424.5 Q462 383 421.5 351.5 Q381 320 325 303 L325 221 L191 221 Z M258 -4 Q234 -4 215 7 Q196 18 184.5 37.5 Q173 57 173 81 Q173 105 184.5 124.5 Q196 144 215 155 Q234 166 258 166 Q282 166 301 155 Q320 144 331.5 124.5 Q343 105 343 81 Q343 57 331.5 37.5 Q320 18 301 7 Q282 -4 258 -4 Z " />
<glyph glyph-name="uni0021" unicode="&#x21;" horiz-adv-x="264" d="M65 221 L56 710 L208 710 L199 221 L65 221 Z M132 -4 Q108 -4 89 7 Q70 18 58.5 37.5 Q47 57 47 81 Q47 105 58.5 124.5 Q70 144 89 155 Q108 166 132 166 Q156 166 175 155 Q194 144 205.5 124.5 Q217 105 217 81 Q217 57 205.5 37.5 Q194 18 175 7 Q156 -4 132 -4 Z " />
<glyph glyph-name="uni00BF" unicode="&#xbf;" horiz-adv-x="513" d="M275 362 Q251 362 232 373 Q213 384 201.5 403.5 Q190 423 190 447 Q190 471 201.5 490.5 Q213 510 232 521 Q251 532 275 532 Q298 532 317.5 521 Q337 510 348.5 490.5 Q360 471 360 447 Q360 423 348.5 403.5 Q337 384 317.5 373 Q298 362 275 362 Z M268 -197 Q216 -197 172 -181.5 Q128 -166 95.5 -138 Q63 -110 45 -71.5 Q27 -33 27 12 Q27 62 49 103.5 Q71 145 111.5 176.5 Q152 208 208 225 L208 307 L342 307 L342 152 Q173 111 173 17 Q173 -8 185 -28 Q197 -48 218.5 -59 Q240 -70 269 -70 Q308 -70 338.5 -48.5 Q369 -27 381 10 L513 -19 Q504 -58 482 -90.5 Q460 -123 428 -147 Q396 -171 355 -184 Q314 -197 268 -197 Z " />
<glyph glyph-name="uni00A1" unicode="&#xa1;" horiz-adv-x="264" d="M132 362 Q108 362 89 373 Q70 384 58.5 403.5 Q47 423 47 447 Q47 471 58.5 490.5 Q70 510 89 521 Q108 532 132 532 Q156 532 175 521 Q194 510 205.5 490.5 Q217 471 217 447 Q217 423 205.5 403.5 Q194 384 175 373 Q156 362 132 362 Z M56 -182 L65 307 L199 307 L208 -182 L56 -182 Z " />
<glyph glyph-name="uni0027" unicode="&#x27;" horiz-adv-x="234" d="M60 432 L54 710 L180 710 L174 432 L60 432 Z " />
<glyph glyph-name="uni0022" unicode="&#x22;" horiz-adv-x="435" d="M60 432 L54 710 L180 710 L174 432 L60 432 Z M261 432 L255 710 L381 710 L375 432 L261 432 Z " />
<glyph glyph-name="uni2026" unicode="&#x2026;" horiz-adv-x="810" d="M135 -4 Q110 -4 90.5 8 Q71 20 59 40 Q47 60 47 84 Q47 108 59 128 Q71 148 90.5 160 Q110 172 135 172 Q160 172 179.5 160 Q199 148 211 128 Q223 108 223 84 Q223 60 211 40 Q199 20 179.5 8 Q160 -4 135 -4 Z M405 -4 Q380 -4 360.5 8 Q341 20 329 40 Q317 60 317 84 Q317 108 329 128 Q341 148 360.5 160 Q380 172 405 172 Q430 172 449.5 160 Q469 148 481 128 Q493 108 493 84 Q493 60 481 40 Q469 20 449.5 8 Q430 -4 405 -4 Z M675 -4 Q650 -4 630.5 8 Q611 20 599 40 Q587 60 587 84 Q587 108 599 128 Q611 148 630.5 160 Q650 172 675 172 Q700 172 719.5 160 Q739 148 751 128 Q763 108 763 84 Q763 60 751 40 Q739 20 719.5 8 Q700 -4 675 -4 Z " />
<glyph glyph-name="uni00A0" unicode="&#xa0;" horiz-adv-x="209" d="" />
<glyph glyph-name="uni2000" unicode="&#x2000;" horiz-adv-x="500" d="" />
<glyph glyph-name="uni2001" unicode="&#x2001;" horiz-adv-x="1000" d="" />
<glyph glyph-name="uni2002" unicode="&#x2002;" horiz-adv-x="500" d="" />
<glyph glyph-name="uni2003" unicode="&#x2003;" horiz-adv-x="1000" d="" />
<glyph glyph-name="uni2004" unicode="&#x2004;" horiz-adv-x="333" d="" />
<glyph glyph-name="uni2005" unicode="&#x2005;" horiz-adv-x="250" d="" />
<glyph glyph-name="uni2006" unicode="&#x2006;" horiz-adv-x="166" d="" />
<glyph glyph-name="uni2007" unicode="&#x2007;" horiz-adv-x="594" d="" />
<glyph glyph-name="uni2008" unicode="&#x2008;" horiz-adv-x="270" d="" />
<glyph glyph-name="uni2009" unicode="&#x2009;" horiz-adv-x="200" d="" />
<glyph glyph-name="uni200A" unicode="&#x200a;" horiz-adv-x="63" d="" />
<glyph glyph-name="uni200B" unicode="&#x200b;" d="" />
<glyph glyph-name="uni0030" unicode="0" horiz-adv-x="618" d="M307 -15 Q246 -15 197.5 10 Q149 35 114.5 82 Q80 129 62 195 Q44 261 44 344 Q44 427 62.5 494 Q81 561 115.5 608 Q150 655 199.5 680 Q249 705 311 705 Q372 705 420.5 680 Q469 655 503.5 608 Q538 561 556 495 Q574 429 574 346 Q574 263 555.5 196 Q537 129 502.5 82 Q468 35 418.5 10 Q369 -15 307 -15 Z M309 116 Q367 116 398.5 175.5 Q430 235 430 345 Q430 455 398.5 514.5 Q367 574 309 574 Q251 574 219.5 514.5 Q188 455 188 345 Q188 235 219.5 175.5 Q251 116 309 116 Z " />
<glyph glyph-name="uni0031" unicode="1" horiz-adv-x="442" d="M204 0 L204 538 L64 460 L17 578 L224 690 L345 690 L345 0 L204 0 Z " />
<glyph glyph-name="uni0032" unicode="2" horiz-adv-x="570" d="M43 0 L43 104 Q83 138 113 163.5 Q143 189 166 209.5 Q189 230 207 247 Q225 264 243 282 Q285 324 312 357 Q339 390 352.5 419 Q366 448 366 479 Q366 525 340.5 551.5 Q315 578 275 578 Q236 578 208.5 553 Q181 528 171 485 L36 508 Q48 568 82.5 612 Q117 656 168 680.5 Q219 705 280 705 Q331 705 373.5 688 Q416 671 447 641 Q478 611 495.5 570 Q513 529 513 481 Q513 436 497 396 Q481 356 446.5 313 Q412 270 358 217 Q334 194 308.5 171.5 Q283 149 256 126 L525 126 L525 0 L43 0 Z " />
<glyph glyph-name="uni0033" unicode="3" horiz-adv-x="567" d="M278 -15 Q219 -15 166.5 6 Q114 27 76.5 69 Q39 111 24 173 L156 196 Q169 155 200 132 Q231 109 275 109 Q307 109 331.5 121 Q356 133 370 153.5 Q384 174 384 202 Q384 229 370 249.5 Q356 270 330.5 281.5 Q305 293 272 293 L199 293 L199 415 L265 415 Q297 415 320.5 426 Q344 437 357 456.5 Q370 476 370 501 Q370 536 344.5 558.5 Q319 581 278 581 Q240 581 210.5 559.5 Q181 538 169 496 L37 519 Q48 574 82.5 616 Q117 658 169 681.5 Q221 705 284 705 Q332 705 373.5 691 Q415 677 446 651.5 Q477 626 494 591 Q511 556 511 514 Q511 463 486 423.5 Q461 384 414 361 Q467 341 497.5 298 Q528 255 528 197 Q528 152 509 113 Q490 74 456 45.5 Q422 17 376.5 1 Q331 -15 278 -15 Z " />
<glyph glyph-name="uni0034" unicode="4" horiz-adv-x="601" d="M347 0 L347 142 L34 142 L34 256 L328 690 L484 690 L484 262 L561 262 L561 142 L484 142 L484 0 L347 0 Z M169 262 L347 262 L347 522 L169 262 Z " />
<glyph glyph-name="uni0035" unicode="5" horiz-adv-x="561" d="M279 -15 Q218 -15 167.5 7.5 Q117 30 82 71 Q47 112 34 168 L168 189 Q181 151 211.5 130 Q242 109 280 109 Q312 109 337 123 Q362 137 376 161 Q390 185 390 216 Q390 246 375.5 270 Q361 294 336.5 307.5 Q312 321 281 321 Q253 321 226.5 310 Q200 299 183 282 L70 294 L70 690 L483 690 L483 560 L204 560 L204 414 Q247 444 309 444 Q357 444 398 427 Q439 410 469.5 379.5 Q500 349 517 308.5 Q534 268 534 220 Q534 169 514.5 126 Q495 83 460 51.5 Q425 20 378.5 2.5 Q332 -15 279 -15 Z " />
<glyph glyph-name="uni0036" unicode="6" horiz-adv-x="600" d="M323 -15 Q260 -15 209 9 Q158 33 121 77.5 Q84 122 64 183 Q44 244 44 319 Q44 405 67 476 Q90 547 133 598 Q176 649 234.5 677 Q293 705 365 705 Q410 705 452 693.5 Q494 682 531 660 L493 542 Q471 557 438 566 Q405 575 373 575 Q322 575 283 550.5 Q244 526 219.5 481 Q195 436 188 374 Q212 407 251.5 426 Q291 445 342 445 Q391 445 433 428 Q475 411 506 380.5 Q537 350 554.5 309.5 Q572 269 572 221 Q572 172 553 129 Q534 86 500 53.5 Q466 21 420.5 3 Q375 -15 323 -15 Z M318 108 Q349 108 374 122.5 Q399 137 413.5 162.5 Q428 188 428 219 Q428 250 413.5 275 Q399 300 374.5 314 Q350 328 319 328 Q287 328 262.5 314 Q238 300 223.5 275.5 Q209 251 209 220 Q209 188 223.5 163 Q238 138 262.5 123 Q287 108 318 108 Z " />
<glyph glyph-name="uni0037" unicode="7" horiz-adv-x="559" d="M117 0 L357 559 L33 559 L33 690 L517 690 L517 582 L276 0 L117 0 Z " />
<glyph glyph-name="uni0038" unicode="8" horiz-adv-x="596" d="M297 -15 Q240 -15 192 -0.5 Q144 14 109.5 41.5 Q75 69 56 106 Q37 143 37 188 Q37 249 67 294 Q97 339 149 361 Q106 383 82.5 422 Q59 461 59 512 Q59 554 77 589.5 Q95 625 127.5 650.5 Q160 676 203.5 690.5 Q247 705 299 705 Q351 705 394 691 Q437 677 469 651.5 Q501 626 518.5 591 Q536 556 536 515 Q536 464 513 424.5 Q490 385 447 362 Q500 342 529 297.5 Q558 253 558 192 Q558 147 539 109 Q520 71 485 43 Q450 15 402 0 Q354 -15 297 -15 Z M298 413 Q327 413 349 424.5 Q371 436 384 455 Q397 474 397 499 Q397 523 384 542 Q371 561 349 572 Q327 583 298 583 Q269 583 246.5 572 Q224 561 211 542 Q198 523 198 499 Q198 474 211 455 Q224 436 246.5 424.5 Q269 413 298 413 Z M298 107 Q333 107 359.5 119 Q386 131 400.5 151.5 Q415 172 415 200 Q415 228 400.5 249.5 Q386 271 359.5 283 Q333 295 298 295 Q263 295 236 283 Q209 271 194.5 249.5 Q180 228 180 200 Q180 172 195 151.5 Q210 131 236.5 119 Q263 107 298 107 Z " />
<glyph glyph-name="uni0039" unicode="9" horiz-adv-x="598" d="M231 -15 Q137 -15 62 30 L100 148 Q122 133 155.5 124 Q189 115 225 115 Q308 115 355.5 165.5 Q403 216 411 317 Q387 284 347.5 264.5 Q308 245 255 245 Q206 245 164.5 262 Q123 279 92 309.5 Q61 340 43.5 380.5 Q26 421 26 469 Q26 519 45 562 Q64 605 98.5 637 Q133 669 179 687 Q225 705 279 705 Q339 705 389.5 681.5 Q440 658 477 613.5 Q514 569 534 505 Q554 441 554 360 Q554 277 532 208 Q510 139 468 89 Q426 39 366.5 12 Q307 -15 231 -15 Z M279 362 Q310 362 335 376 Q360 390 374.5 414.5 Q389 439 389 470 Q389 502 374.5 527 Q360 552 335 567 Q310 582 280 582 Q249 582 224 567.5 Q199 553 184.5 527.5 Q170 502 170 471 Q170 440 184.5 415 Q199 390 223.5 376 Q248 362 279 362 Z " />
<glyph glyph-name="uni2080" unicode="&#x2080;" horiz-adv-x="359" d="M177 -9 Q130 -9 96.5 15 Q63 39 44.5 83.5 Q26 128 26 189 Q26 251 45 296 Q64 341 99 365 Q134 389 181 389 Q228 389 261.5 365 Q295 341 313.5 296.5 Q332 252 332 191 Q332 129 313 84 Q294 39 259 15 Q224 -9 177 -9 Z M179 79 Q205 79 219 107 Q233 135 233 190 Q233 245 219 273 Q205 301 179 301 Q153 301 139 273 Q125 245 125 190 Q125 135 139 107 Q153 79 179 79 Z " />
<glyph glyph-name="uni2081" unicode="&#x2081;" horiz-adv-x="359" d="M157 0 L157 279 L80 238 L51 317 L169 380 L255 380 L255 0 L157 0 Z " />
<glyph glyph-name="uni2082" unicode="&#x2082;" horiz-adv-x="359" d="M42 0 L42 69 Q58 81 78 97.5 Q98 114 117 130 Q136 146 147 157 Q182 190 199 214.5 Q216 239 216 261 Q216 279 205 291 Q194 303 175 303 Q158 303 145 292.5 Q132 282 127 260 L37 274 Q43 308 63.5 334 Q84 360 114 374.5 Q144 389 181 389 Q220 389 250 373 Q280 357 297.5 329 Q315 301 315 266 Q315 232 295 196.5 Q275 161 226 120 Q216 111 204 102 Q192 93 181 85 L322 85 L322 0 L42 0 Z " />
<glyph glyph-name="uni2083" unicode="&#x2083;" horiz-adv-x="359" d="M174 -9 Q115 -9 77 21 Q39 51 28 98 L116 112 Q121 96 135.5 85.5 Q150 75 171 75 Q192 75 206.5 86 Q221 97 221 116 Q221 132 207.5 143 Q194 154 173 154 L134 154 L134 234 L166 234 Q187 234 200.5 244 Q214 254 214 271 Q214 286 201.5 295.5 Q189 305 171 305 Q135 305 124 271 L35 286 Q46 333 84 361 Q122 389 177 389 Q216 389 246 375.5 Q276 362 293 338 Q310 314 310 282 Q310 254 296 232.5 Q282 211 256 198 Q286 186 303 163 Q320 140 320 108 Q320 74 301 47.5 Q282 21 249 6 Q216 -9 174 -9 Z " />
<glyph glyph-name="uni2084" unicode="&#x2084;" horiz-adv-x="359" d="M190 0 L190 72 L19 72 L19 148 L174 380 L286 380 L286 150 L325 150 L325 72 L286 72 L286 0 L190 0 Z M109 150 L190 150 L190 271 L109 150 Z " />
<glyph glyph-name="uni2044" unicode="&#x2044;" horiz-adv-x="92" d="M-226 0 L212 690 L318 690 L-120 0 L-226 0 Z " />
<glyph glyph-name="uni0025" unicode="&#x25;" horiz-adv-x="757" d="M192 385 Q146 385 110.5 405.5 Q75 426 54 461 Q33 496 33 541 Q33 575 45 603.5 Q57 632 79 653.5 Q101 675 130.5 687 Q160 699 195 699 Q229 699 258 687 Q287 675 309 654 Q331 633 343 604.5 Q355 576 355 542 Q355 508 342.5 479.5 Q330 451 308 430 Q286 409 256.5 397 Q227 385 192 385 Z M218 0 L106 0 L538 690 L650 690 L218 0 Z M137 542 Q137 514 153.5 495 Q170 476 194 476 Q218 476 234.5 495 Q251 514 251 542 Q251 570 234.5 589 Q218 608 194 608 Q170 608 153.5 589 Q137 570 137 542 Z M561 -9 Q516 -9 480 11.5 Q444 32 423 67 Q402 102 402 147 Q402 181 414 209.5 Q426 238 448 259.5 Q470 281 499.5 293 Q529 305 564 305 Q598 305 627 293 Q656 281 678 260 Q700 239 712 210.5 Q724 182 724 148 Q724 114 711.5 85.5 Q699 57 677 36 Q655 15 625.5 3 Q596 -9 561 -9 Z M563 82 Q587 82 603.5 101 Q620 120 620 148 Q620 176 603.5 195 Q587 214 563 214 Q539 214 522.5 195 Q506 176 506 148 Q506 120 522.5 101 Q539 82 563 82 Z " />
<glyph glyph-name="uni2030" unicode="&#x2030;" horiz-adv-x="1123" d="M192 385 Q146 385 110.5 405.5 Q75 426 54 461 Q33 496 33 541 Q33 575 45 603.5 Q57 632 79 653.5 Q101 675 130.5 687 Q160 699 195 699 Q229 699 258 687 Q287 675 309 654 Q331 633 343 604.5 Q355 576 355 542 Q355 508 342.5 479.5 Q330 451 308 430 Q286 409 256.5 397 Q227 385 192 385 Z M218 0 L106 0 L538 690 L650 690 L218 0 Z M137 542 Q137 514 153.5 495 Q170 476 194 476 Q218 476 234.5 495 Q251 514 251 542 Q251 570 234.5 589 Q218 608 194 608 Q170 608 153.5 589 Q137 570 137 542 Z M561 -9 Q516 -9 480 11.5 Q444 32 423 67 Q402 102 402 147 Q402 181 414 209.5 Q426 238 448 259.5 Q470 281 499.5 293 Q529 305 564 305 Q598 305 627 293 Q656 281 678 260 Q700 239 712 210.5 Q724 182 724 148 Q724 114 711.5 85.5 Q699 57 677 36 Q655 15 625.5 3 Q596 -9 561 -9 Z M927 -9 Q882 -9 846 11.5 Q810 32 789 67 Q768 102 768 147 Q768 181 780 209.5 Q792 238 814 259.5 Q836 281 865.5 293 Q895 305 930 305 Q964 305 993 293 Q1022 281 1044 260 Q1066 239 1078 210.5 Q1090 182 1090 148 Q1090 114 1077.5 85.5 Q1065 57 1043 36 Q1021 15 991.5 3 Q962 -9 927 -9 Z M563 82 Q587 82 603.5 101 Q620 120 620 148 Q620 176 603.5 195 Q587 214 563 214 Q539 214 522.5 195 Q506 176 506 148 Q506 120 522.5 101 Q539 82 563 82 Z M929 82 Q953 82 969.5 101 Q986 120 986 148 Q986 176 969.5 195 Q953 214 929 214 Q905 214 888.5 195 Q872 176 872 148 Q872 120 888.5 101 Q905 82 929 82 Z " />
<glyph glyph-name="uni00BD" unicode="&#xbd;" horiz-adv-x="810" d="M124 0 L562 690 L668 690 L230 0 L124 0 Z M493 0 L493 69 Q509 81 529 97.5 Q549 114 568 130 Q587 146 598 157 Q633 190 650 214.5 Q667 239 667 261 Q667 279 656 291 Q645 303 626 303 Q609 303 596 292.5 Q583 282 578 260 L488 274 Q494 308 514.5 334 Q535 360 565 374.5 Q595 389 632 389 Q671 389 701 373 Q731 357 748.5 329 Q766 301 766 266 Q766 232 746 196.5 Q726 161 677 120 Q667 111 655 102 Q643 93 632 85 L773 85 L773 0 L493 0 Z M157 310 L157 589 L80 548 L51 627 L169 690 L255 690 L255 310 L157 310 Z " />
<glyph glyph-name="uni00BC" unicode="&#xbc;" horiz-adv-x="810" d="M141 0 L579 690 L685 690 L247 0 L141 0 Z M641 0 L641 72 L470 72 L470 148 L625 380 L737 380 L737 150 L776 150 L776 72 L737 72 L737 0 L641 0 Z M560 150 L641 150 L641 271 L560 150 Z M157 310 L157 589 L80 548 L51 627 L169 690 L255 690 L255 310 L157 310 Z " />
<glyph glyph-name="uni00BE" unicode="&#xbe;" horiz-adv-x="810" d="M146 0 L584 690 L690 690 L252 0 L146 0 Z M641 0 L641 72 L470 72 L470 148 L625 380 L737 380 L737 150 L776 150 L776 72 L737 72 L737 0 L641 0 Z M560 150 L641 150 L641 271 L560 150 Z M174 301 Q115 301 77 331 Q39 361 28 408 L116 422 Q121 406 135.5 395.5 Q150 385 171 385 Q192 385 206.5 396 Q221 407 221 426 Q221 442 207.5 453 Q194 464 173 464 L134 464 L134 544 L166 544 Q187 544 200.5 554 Q214 564 214 581 Q214 596 201.5 605.5 Q189 615 171 615 Q135 615 124 581 L35 596 Q46 643 84 671 Q122 699 177 699 Q216 699 246 685.5 Q276 672 293 648 Q310 624 310 592 Q310 564 296 542.5 Q282 521 256 508 Q286 496 303 473 Q320 450 320 418 Q320 384 301 357.5 Q282 331 249 316 Q216 301 174 301 Z " />
<glyph glyph-name="uni0024" unicode="&#x24;" horiz-adv-x="594" d="M550 206 Q550 149 524.5 103.5 Q499 58 453.5 29.5 Q408 1 349 -7 L349 -140 L248 -140 L248 -5 Q198 5 156 29.5 Q114 54 85.5 91.5 Q57 129 44 177 L180 205 Q196 162 229 138 Q262 114 306 114 Q336 114 359 124.5 Q382 135 395.5 153.5 Q409 172 409 196 Q409 259 312 279 L263 289 Q164 309 111.5 361 Q59 413 59 490 Q59 543 83 586.5 Q107 630 149.5 658.5 Q192 687 248 696 L248 820 L349 820 L349 695 Q398 687 437 662.5 Q476 638 502.5 601 Q529 564 539 517 L407 488 Q391 532 364 554 Q337 576 296 576 Q252 576 226 555 Q200 534 200 499 Q200 469 224 449.5 Q248 430 303 419 L352 409 Q447 390 498.5 338 Q550 286 550 206 Z " />
<glyph glyph-name="uni00A2" unicode="&#xa2;" horiz-adv-x="594" d="M553 158 Q542 113 514.5 78 Q487 43 448 20.5 Q409 -2 363 -10 L363 -137 L262 -137 L262 -11 Q215 -2 175 21 Q135 44 106.5 80 Q78 116 62 161.5 Q46 207 46 260 Q46 313 62 359.5 Q78 406 107 442.5 Q136 479 175.5 504 Q215 529 262 538 L262 649 L363 649 L363 539 Q409 531 446.5 508 Q484 485 510.5 450 Q537 415 548 370 L415 344 Q400 378 373 397.5 Q346 417 312 417 Q276 417 248.5 397 Q221 377 205 341.5 Q189 306 189 262 Q189 218 204.5 184 Q220 150 248 130.5 Q276 111 312 111 Q348 111 377 130 Q406 149 420 184 L553 158 Z " />
<glyph glyph-name="uni00A3" unicode="&#xa3;" horiz-adv-x="594" d="M27 0 L27 122 L84 122 L97 280 L26 280 L26 386 L106 386 L114 482 Q120 550 149 600.5 Q178 651 227 678 Q276 705 340 705 Q399 705 445.5 682.5 Q492 660 523 618 Q554 576 565 518 L430 495 Q413 580 342 580 Q304 580 281.5 554 Q259 528 255 480 L247 386 L415 386 L415 280 L239 280 L226 122 L563 122 L563 0 L27 0 Z " />
<glyph glyph-name="uni00A5" unicode="&#xa5;" horiz-adv-x="594" d="M81 120 L81 199 L226 199 L226 274 L81 274 L81 353 L191 353 L12 690 L169 690 L300 403 L429 690 L581 690 L402 353 L512 353 L512 274 L367 274 L367 199 L512 199 L512 120 L367 120 L367 0 L226 0 L226 120 L81 120 Z " />
<glyph glyph-name="uni20AC" unicode="&#x20ac;" horiz-adv-x="594" d="M-6 231 L13 310 L68 310 Q68 322 68 335 Q68 355 69 374 L-6 374 L13 453 L79 453 Q94 532 129.5 588.5 Q165 645 218 675 Q271 705 339 705 Q397 705 445 682.5 Q493 660 525.5 619 Q558 578 571 520 L438 496 Q426 536 399 557.5 Q372 579 336 579 Q291 579 261.5 547 Q232 515 218 453 L414 453 L395 374 L209 374 Q208 358 208 340 Q208 324 209 310 L382 310 L363 231 L218 231 Q244 111 335 111 Q373 111 401.5 133 Q430 155 442 194 L575 170 Q562 113 528 71.5 Q494 30 444 7.5 Q394 -15 334 -15 Q229 -15 162.5 49 Q96 113 76 231 L-6 231 Z " />
<glyph glyph-name="uni20BA" unicode="&#x20ba;" horiz-adv-x="594" d="M116 0 L116 203 L46 170 L46 258 L116 291 L116 368 L47 335 L47 423 L116 456 L116 690 L257 690 L257 524 L381 583 L381 495 L257 436 L257 359 L381 418 L381 330 L257 271 L257 135 Q327 138 369 179 Q411 220 424 299 L560 287 Q538 144 455 72 Q372 0 230 0 L116 0 Z " />
<glyph glyph-name="uni20B9" unicode="&#x20b9;" horiz-adv-x="594" d="M74 244 L74 339 Q96 334 125 331 Q154 328 182 328 Q240 328 276.5 349 Q313 370 326 410 L74 410 L74 512 L324 512 Q310 549 276 568.5 Q242 588 191 588 L74 588 L74 690 L547 690 L521 588 L419 588 Q450 556 464 512 L547 512 L521 410 L470 410 Q463 364 437.5 328 Q412 292 372.5 268 Q333 244 281 235 L546 0 L346 0 L74 244 Z " />
<glyph glyph-name="uni20A1" unicode="&#x20a1;" horiz-adv-x="594" d="M251 -140 L273 -8 Q248 -5 226 2 L202 -140 L134 -140 L163 33 Q105 74 73 151 Q41 228 41 336 Q41 439 69.5 516 Q98 593 150.5 639.5 Q203 686 274 697 L294 815 L362 815 L343 699 Q367 696 390 689 L411 815 L479 815 L453 658 Q490 632 515.5 591 Q541 550 554 497 L422 474 Q409 523 379.5 546 Q350 569 311 569 Q250 569 217.5 510.5 Q185 452 185 343 Q185 234 216.5 177.5 Q248 121 307 121 Q350 121 379 146.5 Q408 172 420 216 L558 193 Q544 135 514 92 Q484 49 440 23.5 Q396 -2 341 -8 L319 -140 L251 -140 Z " />
<glyph glyph-name="uni20AA" unicode="&#x20aa;" horiz-adv-x="926" d="M75 0 L75 690 L384 690 Q462 690 518 658.5 Q574 627 604 568.5 Q634 510 634 429 L634 218 L512 218 L512 424 Q512 487 477 521 Q442 555 378 555 L197 555 L197 0 L75 0 Z M292 0 L292 468 L414 468 L414 136 L595 136 Q660 136 694.5 170 Q729 204 729 267 L729 690 L851 690 L851 261 Q851 180 821 121.5 Q791 63 734.5 31.5 Q678 0 601 0 L292 0 Z " />
<glyph glyph-name="uni20A9" unicode="&#x20a9;" horiz-adv-x="952" d="M232 0 L178 205 L28 205 L28 289 L155 289 L137 358 L28 358 L28 442 L115 442 L49 690 L198 690 L305 185 L416 690 L542 690 L653 187 L760 690 L903 690 L837 442 L924 442 L924 358 L815 358 L797 289 L924 289 L924 205 L774 205 L720 0 L579 0 L477 460 L375 0 L232 0 Z " />
<glyph glyph-name="uni20AD" unicode="&#x20ad;" horiz-adv-x="594" d="M74 0 L74 309 L2 309 L2 414 L74 414 L74 690 L215 690 L215 391 L411 690 L569 690 L368 414 L530 414 L530 309 L376 309 L605 0 L429 0 L215 329 L215 0 L74 0 Z " />
<glyph glyph-name="uni20A8" unicode="&#x20a8;" horiz-adv-x="1078" d="M63 0 L63 690 L276 690 Q358 690 418 663 Q478 636 510 586.5 Q542 537 542 468 Q542 428 528 391.5 Q514 355 488.5 325.5 Q463 296 428 277 L581 0 L424 0 L304 238 Q284 236 266 236 Q239 236 203 241 L203 0 L63 0 Z M203 566 L203 365 Q220 362 237.5 360.5 Q255 359 274 359 Q334 359 367 386.5 Q400 414 400 464 Q400 512 367.5 539 Q335 566 276 566 L203 566 Z M825 -15 Q772 -15 726 3 Q680 21 648 54 Q616 87 603 132 L727 159 Q737 128 764.5 110 Q792 92 826 92 Q861 92 883 107 Q905 122 905 148 Q905 174 883.5 187 Q862 200 821 208 L793 213 Q708 228 663 268.5 Q618 309 618 372 Q618 422 644 460.5 Q670 499 716 521 Q762 543 822 543 Q873 543 916.5 525.5 Q960 508 990 476 Q1020 444 1031 399 L908 373 Q898 403 875 420 Q852 437 822 437 Q791 437 770.5 422 Q750 407 750 384 Q750 370 757.5 360 Q765 350 783.5 342 Q802 334 836 328 L864 323 Q950 308 994.5 266 Q1039 224 1039 162 Q1039 124 1023.5 91.5 Q1008 59 979.5 35 Q951 11 911.5 -2 Q872 -15 825 -15 Z " />
<glyph glyph-name="uni20B1" unicode="&#x20b1;" horiz-adv-x="594" d="M92 0 L92 335 L12 335 L12 419 L92 419 L92 488 L12 488 L12 572 L92 572 L92 690 L275 690 Q353 690 410 659 Q467 628 496 572 L586 572 L586 488 L521 488 Q523 471 523 453 Q523 436 521 419 L586 419 L586 335 L495 335 Q465 280 408.5 248 Q352 216 277 216 Q256 216 231 219 L231 0 L92 0 Z M231 567 L231 342 Q248 339 263 339 Q300 339 327 353 Q354 367 369 392.5 Q384 418 384 453 Q384 506 354 536.5 Q324 567 272 567 L231 567 Z " />
<glyph glyph-name="uni0E3F" unicode="&#xe3f;" horiz-adv-x="594" d="M62 0 L62 690 L238 690 L238 815 L339 815 L339 688 Q399 682 442 659 Q485 636 508 598.5 Q531 561 531 512 Q531 466 510.5 427.5 Q490 389 452 368 Q504 348 532.5 303.5 Q561 259 561 197 Q561 142 534 99.5 Q507 57 457 32 Q407 7 339 1 L339 -140 L238 -140 L238 0 L62 0 Z M197 572 L197 413 L294 413 Q341 413 366.5 433.5 Q392 454 392 491 Q392 530 366 551 Q340 572 294 572 L197 572 Z M197 118 L308 118 Q362 118 391.5 141.5 Q421 165 421 208 Q421 253 391.5 276.5 Q362 300 308 300 L197 300 L197 118 Z " />
<glyph glyph-name="uni20AB" unicode="&#x20ab;" horiz-adv-x="594" d="M236 -15 Q189 -15 148.5 4.5 Q108 24 78 58.5 Q48 93 31 139 Q14 185 14 239 Q14 294 31.5 341.5 Q49 389 80 424.5 Q111 460 153 479.5 Q195 499 244 499 Q287 499 323 481.5 Q359 464 383 432 L383 541 L256 541 L256 628 L383 628 L383 690 L523 690 L523 628 L586 628 L586 541 L523 541 L523 0 L394 0 L390 68 Q365 29 325 7 Q285 -15 236 -15 Z M270 107 Q303 107 328.5 124.5 Q354 142 369 172.5 Q384 203 384 242 Q384 281 369 311.5 Q354 342 328.5 359.5 Q303 377 270 377 Q237 377 211.5 359.5 Q186 342 171 311.5 Q156 281 156 242 Q156 203 171 172.5 Q186 142 211.5 124.5 Q237 107 270 107 Z M21 -158 L21 -71 L553 -71 L553 -158 L21 -158 Z " />
<glyph glyph-name="uni00A4" unicode="&#xa4;" horiz-adv-x="594" d="M42 180 L120 259 Q106 282 98.5 308.5 Q91 335 91 363 Q91 391 98.5 417.5 Q106 444 120 467 L42 546 L115 619 L192 540 Q216 554 242.5 561.5 Q269 569 297 569 Q325 569 351.5 561.5 Q378 554 402 540 L479 619 L552 546 L474 467 Q488 444 495.5 417.5 Q503 391 503 363 Q503 335 495.5 308.5 Q488 282 474 259 L552 180 L479 107 L402 186 Q378 172 351.5 164.5 Q325 157 297 157 Q269 157 242.5 164.5 Q216 172 192 186 L115 107 L42 180 Z M297 271 Q322 271 340.5 283 Q359 295 370 315.5 Q381 336 381 363 Q381 390 370 410.5 Q359 431 340.5 443 Q322 455 297 455 Q272 455 253.5 443 Q235 431 224 410.5 Q213 390 213 363 Q213 336 224 315.5 Q235 295 253.5 283 Q272 271 297 271 Z " />
<glyph glyph-name="uni005E" unicode="&#x5e;" horiz-adv-x="594" d="M66 340 L237 690 L358 690 L529 340 L397 340 L295 556 L192 340 L66 340 Z " />
<glyph glyph-name="uni002B" unicode="&#x2b;" horiz-adv-x="594" d="M78 217 L78 334 L237 334 L237 495 L357 495 L357 334 L516 334 L516 217 L357 217 L357 50 L237 50 L237 217 L78 217 Z " />
<glyph glyph-name="uni2212" unicode="&#x2212;" horiz-adv-x="594" d="M87 215 L87 336 L507 336 L507 215 L87 215 Z " />
<glyph glyph-name="uni00B1" unicode="&#xb1;" horiz-adv-x="594" d="M240 167 L240 324 L85 324 L85 434 L240 434 L240 586 L354 586 L354 434 L509 434 L509 324 L354 324 L354 167 L240 167 Z M95 0 L95 115 L499 115 L499 0 L95 0 Z " />
<glyph glyph-name="uni003D" unicode="&#x3d;" horiz-adv-x="594" d="M80 331 L80 448 L514 448 L514 331 L80 331 Z M80 101 L80 219 L514 219 L514 101 L80 101 Z " />
<glyph glyph-name="uni00F7" unicode="&#xf7;" horiz-adv-x="594" d="M297 380 Q278 380 262.5 389.5 Q247 399 238 414.5 Q229 430 229 449 Q229 468 238 483.5 Q247 499 262.5 508.5 Q278 518 297 518 Q316 518 331.5 508.5 Q347 499 356 483.5 Q365 468 365 449 Q365 430 356 414.5 Q347 399 331.5 389.5 Q316 380 297 380 Z M81 217 L81 334 L513 334 L513 217 L81 217 Z M297 33 Q278 33 262.5 42.5 Q247 52 238 67.5 Q229 83 229 102 Q229 121 238 136.5 Q247 152 262.5 161.5 Q278 171 297 171 Q316 171 331.5 161.5 Q347 152 356 136.5 Q365 121 365 102 Q365 83 356 67.5 Q347 52 331.5 42.5 Q316 33 297 33 Z " />
<glyph glyph-name="uni003C" unicode="&#x3c;" horiz-adv-x="594" d="M480 493 L480 372 L220 277 L480 182 L480 57 L89 219 L89 331 L480 493 Z " />
<glyph glyph-name="uni003E" unicode="&#x3e;" horiz-adv-x="594" d="M114 57 L114 178 L374 273 L114 368 L114 493 L505 331 L505 219 L114 57 Z " />
<glyph glyph-name="uni007E" unicode="&#x7e;" horiz-adv-x="594" d="M385 175 Q360 175 339.5 182.5 Q319 190 303 200.5 Q287 211 273.5 221.5 Q260 232 247 239.5 Q234 247 221 247 Q185 247 175 182 L59 182 Q67 272 107 322 Q147 372 209 372 Q234 372 254.5 364.5 Q275 357 291 346.5 Q307 336 320.5 325.5 Q334 315 347 307.5 Q360 300 373 300 Q409 300 419 365 L535 365 Q527 275 487 225 Q447 175 385 175 Z " />
<glyph glyph-name="uni00AC" unicode="&#xac;" horiz-adv-x="594" d="M76 263 L76 380 L498 380 L498 97 L378 97 L378 263 L76 263 Z " />
<glyph glyph-name="uni00D7" unicode="&#xd7;" horiz-adv-x="594" d="M163 66 L86 143 L220 278 L93 405 L170 482 L297 355 L424 482 L501 405 L374 278 L508 143 L431 66 L297 200 L163 66 Z " />
<glyph glyph-name="uni005F" unicode="&#x5f;" horiz-adv-x="593" d="M30 -163 L30 -59 L563 -59 L563 -163 L30 -163 Z " />
<glyph glyph-name="uni00A7" unicode="&#xa7;" horiz-adv-x="514" d="M253 -95 Q200 -95 154.5 -79 Q109 -63 76 -31.5 Q43 0 27 47 L158 73 Q172 44 197 30.5 Q222 17 256 17 Q291 17 313 31.5 Q335 46 335 69 Q335 92 316.5 105.5 Q298 119 251 127 L206 135 Q124 149 79.5 190.5 Q35 232 35 296 Q35 341 57 376 Q79 411 119 432 Q48 475 48 554 Q48 604 74.5 642.5 Q101 681 148.5 703 Q196 725 259 725 Q310 725 353 709.5 Q396 694 426.5 663 Q457 632 471 585 L341 559 Q329 587 306.5 599.5 Q284 612 255 612 Q225 612 205 598 Q185 584 185 564 Q185 542 205.5 528.5 Q226 515 269 508 L320 500 Q402 487 444.5 447 Q487 407 487 344 Q487 294 463 259 Q439 224 400 204 Q474 160 474 79 Q474 41 458 9 Q442 -23 412 -46.5 Q382 -70 341.5 -82.5 Q301 -95 253 -95 Z M356 315 Q356 341 337 356.5 Q318 372 283 380 L265 384 Q258 386 251 386.5 Q244 387 240 387 Q206 387 185.5 369.5 Q165 352 165 321 Q165 295 184 279.5 Q203 264 238 256 L256 252 Q263 250 269.5 249.5 Q276 249 281 249 Q315 249 335.5 266.5 Q356 284 356 315 Z " />
<glyph glyph-name="uni00B6" unicode="&#xb6;" horiz-adv-x="590" d="M264 -92 L264 235 Q193 244 142.5 275.5 Q92 307 64.5 357 Q37 407 37 472 Q37 546 70.5 599.5 Q104 653 167 681.5 Q230 710 317 710 L354 710 L354 -92 L264 -92 Z M429 -92 L429 710 L519 710 L519 -92 L429 -92 Z " />
<glyph glyph-name="uni0023" unicode="&#x23;" horiz-adv-x="664" d="M130 0 L144 177 L50 177 L58 272 L152 272 L164 418 L71 418 L79 513 L172 513 L186 690 L293 690 L279 513 L413 513 L427 690 L534 690 L520 513 L614 513 L606 418 L512 418 L500 272 L594 272 L586 177 L492 177 L478 0 L371 0 L385 177 L251 177 L237 0 L130 0 Z M259 272 L393 272 L405 418 L271 418 L259 272 Z " />
<glyph glyph-name="uni007C" unicode="&#x7c;" horiz-adv-x="273" d="M75 -115 L75 763 L198 763 L198 -115 L75 -115 Z " />
<glyph glyph-name="uni2020" unicode="&#x2020;" horiz-adv-x="480" d="M176 -82 L176 428 L30 428 L30 540 L176 540 L176 710 L304 710 L304 540 L450 540 L450 428 L304 428 L304 -82 L176 -82 Z " />
<glyph glyph-name="uni2021" unicode="&#x2021;" horiz-adv-x="520" d="M50 93 L50 205 L196 205 L196 428 L50 428 L50 540 L196 540 L196 710 L324 710 L324 540 L470 540 L470 428 L324 428 L324 205 L470 205 L470 93 L324 93 L324 -82 L196 -82 L196 93 L50 93 Z " />
<glyph glyph-name="uni0026" unicode="&#x26;" horiz-adv-x="705" d="M281 -20 Q226 -20 180.5 -5 Q135 10 101.5 37.5 Q68 65 50 102.5 Q32 140 32 185 Q32 246 65 296.5 Q98 347 157 379 Q118 423 101.5 460 Q85 497 85 536 Q85 577 100 611.5 Q115 646 142 671.5 Q169 697 206 711 Q243 725 287 725 Q330 725 366 711.5 Q402 698 428.5 674 Q455 650 469.5 618 Q484 586 484 548 Q484 435 352 359 L482 226 Q500 260 511 301 Q522 342 525 390 L649 380 Q641 308 621 247 Q601 186 569 138 L705 0 L527 0 L483 45 Q441 13 390 -3.5 Q339 -20 281 -20 Z M216 539 Q216 517 229 494 Q242 471 274 439 Q312 458 334 485.5 Q356 513 356 543 Q356 572 337 590.5 Q318 609 289 609 Q268 609 251.5 600 Q235 591 225.5 575 Q216 559 216 539 Z M173 198 Q173 168 188.5 146 Q204 124 232 111.5 Q260 99 296 99 Q351 99 399 131 L234 300 Q205 284 189 257 Q173 230 173 198 Z " />
<glyph glyph-name="uni002A" unicode="&#x2a;" horiz-adv-x="427" d="M138 316 L52 379 L145 488 L8 522 L40 622 L170 568 L159 710 L268 710 L257 568 L387 622 L419 522 L282 488 L375 379 L289 316 L214 439 L138 316 Z " />
<glyph glyph-name="uni002D" unicode="&#x2d;" horiz-adv-x="371" d="M44 214 L44 336 L327 336 L327 214 L44 214 Z " />
<glyph glyph-name="uni2013" unicode="&#x2013;" horiz-adv-x="500" d="M0 223 L0 327 L500 327 L500 223 L0 223 Z " />
<glyph glyph-name="uni2014" unicode="&#x2014;" horiz-adv-x="1000" d="M0 223 L0 327 L1000 327 L1000 223 L0 223 Z " />
<glyph glyph-name="uni0028" unicode="&#x28;" horiz-adv-x="356" d="M342 -145 L208 -145 Q127 -40 85.5 79 Q44 198 44 324 Q44 450 85.5 569 Q127 688 208 793 L342 793 Q259 684 216 565 Q173 446 173 324 Q173 202 216 83 Q259 -36 342 -145 Z " />
<glyph glyph-name="uni0029" unicode="&#x29;" horiz-adv-x="356" d="M14 793 L148 793 Q229 688 270.5 569 Q312 450 312 324 Q312 198 270.5 79 Q229 -40 148 -145 L14 -145 Q97 -36 140 83 Q183 202 183 324 Q183 446 140 565 Q97 684 14 793 Z " />
<glyph glyph-name="uni002F" unicode="&#x2f;" horiz-adv-x="475" d="M8 -115 L339 763 L467 763 L136 -115 L8 -115 Z " />
<glyph glyph-name="uni005C" unicode="&#x5c;" horiz-adv-x="475" d="M339 -115 L8 763 L136 763 L467 -115 L339 -115 Z " />
<glyph glyph-name="uni005B" unicode="&#x5b;" horiz-adv-x="370" d="M75 -145 L75 793 L330 793 L330 685 L199 685 L199 -37 L330 -37 L330 -145 L75 -145 Z " />
<glyph glyph-name="uni005D" unicode="&#x5d;" horiz-adv-x="370" d="M40 -145 L40 -37 L171 -37 L171 685 L40 685 L40 793 L295 793 L295 -145 L40 -145 Z " />
<glyph glyph-name="uni007B" unicode="&#x7b;" horiz-adv-x="383" d="M343 793 L343 685 L311 685 Q268 685 246 662.5 Q224 640 224 594 Q224 570 228 543.5 Q232 517 235.5 491 Q239 465 239 444 Q239 416 229.5 391 Q220 366 204.5 348.5 Q189 331 170 324 Q189 317 204.5 299.5 Q220 282 229.5 257 Q239 232 239 204 Q239 183 235.5 157 Q232 131 228 104.5 Q224 78 224 54 Q224 8 246 -14.5 Q268 -37 311 -37 L343 -37 L343 -145 L301 -145 Q200 -145 148.5 -96.5 Q97 -48 97 37 Q97 68 100.5 100 Q104 132 108 159.5 Q112 187 112 206 Q112 238 95 255.5 Q78 273 45 273 L30 273 L30 375 L45 375 Q78 375 95 392.5 Q112 410 112 442 Q112 461 108 488.5 Q104 516 100.5 548 Q97 580 97 611 Q97 696 148.5 744.5 Q200 793 301 793 L343 793 Z " />
<glyph glyph-name="uni007D" unicode="&#x7d;" horiz-adv-x="383" d="M40 -145 L40 -37 L72 -37 Q116 -37 137.5 -14.5 Q159 8 159 54 Q159 78 155.5 104.5 Q152 131 148 157 Q144 183 144 204 Q144 232 153.5 257 Q163 282 178.5 299.5 Q194 317 213 324 Q194 331 178.5 348.5 Q163 366 153.5 391 Q144 416 144 444 Q144 465 148 491 Q152 517 155.5 543.5 Q159 570 159 594 Q159 640 137.5 662.5 Q116 685 72 685 L40 685 L40 793 L82 793 Q182 793 234 744.5 Q286 696 286 611 Q286 580 282 548 Q278 516 274.5 488.5 Q271 461 271 442 Q271 410 288 392.5 Q305 375 338 375 L353 375 L353 273 L338 273 Q305 273 288 255.5 Q271 238 271 206 Q271 187 274.5 159.5 Q278 132 282 100 Q286 68 286 37 Q286 -48 234 -96.5 Q182 -145 82 -145 L40 -145 Z " />
<glyph glyph-name="uni2022" unicode="&#x2022;" horiz-adv-x="314" d="M157 161 Q125 161 99 176.5 Q73 192 57.5 218 Q42 244 42 276 Q42 308 57.5 334 Q73 360 99 375.5 Q125 391 157 391 Q189 391 215 375.5 Q241 360 256.5 334 Q272 308 272 276 Q272 244 256.5 218 Q241 192 215 176.5 Q189 161 157 161 Z " />
<glyph glyph-name="uni2039" unicode="&#x2039;" horiz-adv-x="311" d="M154 93 L20 285 L154 477 L276 477 L146 285 L276 93 L154 93 Z " />
<glyph glyph-name="uni203A" unicode="&#x203a;" horiz-adv-x="311" d="M35 93 L165 285 L35 477 L157 477 L291 285 L157 93 L35 93 Z " />
<glyph glyph-name="uni00AB" unicode="&#xab;" horiz-adv-x="534" d="M154 93 L20 285 L154 477 L276 477 L146 285 L276 93 L154 93 Z M377 93 L243 285 L377 477 L499 477 L369 285 L499 93 L377 93 Z " />
<glyph glyph-name="uni00BB" unicode="&#xbb;" horiz-adv-x="534" d="M35 93 L165 285 L35 477 L157 477 L291 285 L157 93 L35 93 Z M258 93 L388 285 L258 477 L380 477 L514 285 L380 93 L258 93 Z " />
<glyph glyph-name="uni0040" unicode="&#x40;" horiz-adv-x="1015" d="M482 30 Q438 30 400.5 47.5 Q363 65 334.5 96 Q306 127 290.5 168.5 Q275 210 275 259 Q275 307 290.5 349 Q306 391 334 422.5 Q362 454 399.5 472 Q437 490 480 490 Q522 490 556 472 Q590 454 612 421 L615 479 L732 479 L732 192 Q732 165 744.5 149 Q757 133 778 133 Q801 133 819 153 Q837 173 847 208.5 Q857 244 857 289 Q857 359 832.5 417 Q808 475 763 518 Q718 561 657 584.5 Q596 608 523 608 Q461 608 406.5 591 Q352 574 307 542 Q262 510 229.5 466.5 Q197 423 179.5 369.5 Q162 316 162 256 Q162 197 179 144 Q196 91 228 48 Q260 5 303.5 -26.5 Q347 -58 400 -75 Q453 -92 513 -92 Q566 -92 619.5 -78.5 Q673 -65 719 -40 L764 -135 Q710 -166 646.5 -182.5 Q583 -199 512 -199 Q432 -199 361 -177 Q290 -155 231.5 -114 Q173 -73 130.5 -17 Q88 39 65 108 Q42 177 42 254 Q42 333 65.5 402.5 Q89 472 132 529.5 Q175 587 234.5 628.5 Q294 670 366.5 692.5 Q439 715 520 715 Q598 715 667 694.5 Q736 674 792 635.5 Q848 597 888.5 544 Q929 491 951 426.5 Q973 362 973 289 Q973 210 948 152.5 Q923 95 877 63 Q831 31 769 31 Q717 31 681 53 Q645 75 628 116 Q606 75 568 52.5 Q530 30 482 30 Z M504 146 Q534 146 557 161 Q580 176 593.5 202 Q607 228 607 261 Q607 294 593.5 320.5 Q580 347 557 362 Q534 377 504 377 Q475 377 452 361.5 Q429 346 415.5 320 Q402 294 402 261 Q402 228 415.5 202 Q429 176 452 161 Q475 146 504 146 Z " />
<glyph glyph-name="uni00B7" unicode="&#xb7;" horiz-adv-x="270" d="M135 187 Q110 187 90.5 199 Q71 211 59 231 Q47 251 47 275 Q47 299 59 319 Q71 339 90.5 351 Q110 363 135 363 Q160 363 179.5 351 Q199 339 211 319 Q223 299 223 275 Q223 251 211 231 Q199 211 179.5 199 Q160 187 135 187 Z " />
<glyph glyph-name="uni0041" unicode="A" horiz-adv-x="755" d="M16 0 L298 710 L456 710 L739 0 L586 0 L528 156 L221 156 L163 0 L16 0 Z M268 282 L481 282 L374 565 L268 282 Z " />
<glyph glyph-name="uni0042" unicode="B" horiz-adv-x="620" d="M65 0 L65 710 L323 710 Q395 710 447.5 687.5 Q500 665 528.5 623.5 Q557 582 557 526 Q557 475 535 436.5 Q513 398 473 376 Q527 355 557 309.5 Q587 264 587 202 Q587 140 555 95 Q523 50 465 25 Q407 0 328 0 L65 0 Z M209 587 L209 424 L307 424 Q356 424 382.5 444.5 Q409 465 409 505 Q409 545 382.5 566 Q356 587 307 587 L209 587 Z M209 123 L321 123 Q377 123 407.5 147 Q438 171 438 216 Q438 261 407.5 285 Q377 309 321 309 L209 309 L209 123 Z " />
<glyph glyph-name="uni0043" unicode="C" horiz-adv-x="741" d="M396 -20 Q335 -20 281 -2 Q227 16 183 49 Q139 82 107.5 127.5 Q76 173 59 229.5 Q42 286 42 350 Q42 414 59.5 471.5 Q77 529 109 576.5 Q141 624 185 658.5 Q229 693 282.5 711.5 Q336 730 396 730 Q451 730 500 715 Q549 700 589 672 Q629 644 658.5 605 Q688 566 703 517 L559 481 Q535 534 492 563.5 Q449 593 394 593 Q352 593 315.5 575 Q279 557 252.5 524.5 Q226 492 211 448 Q196 404 196 352 Q196 300 210.5 257 Q225 214 252 182.5 Q279 151 315.5 134 Q352 117 396 117 Q453 117 496.5 145.5 Q540 174 566 229 L710 193 Q689 128 643.5 80 Q598 32 535 6 Q472 -20 396 -20 Z " />
<glyph glyph-name="uni0044" unicode="D" horiz-adv-x="759" d="M65 0 L65 710 L341 710 Q425 710 494 684.5 Q563 659 613 612 Q663 565 690 500 Q717 435 717 356 Q717 277 689.5 211.5 Q662 146 612 98.5 Q562 51 492.5 25.5 Q423 0 339 0 L65 0 Z M214 132 L332 132 Q403 132 455 159 Q507 186 535 236 Q563 286 563 355 Q563 424 535 474 Q507 524 455 551 Q403 578 332 578 L214 578 L214 132 Z " />
<glyph glyph-name="uni0045" unicode="E" horiz-adv-x="574" d="M65 0 L65 710 L510 710 L510 583 L209 583 L209 428 L478 428 L478 301 L209 301 L209 127 L520 127 L520 0 L65 0 Z " />
<glyph glyph-name="uni0046" unicode="F" horiz-adv-x="543" d="M65 0 L65 710 L500 710 L500 580 L210 580 L210 405 L468 405 L468 276 L210 276 L210 0 L65 0 Z " />
<glyph glyph-name="uni0047" unicode="G" horiz-adv-x="794" d="M408 -20 Q345 -20 289.5 -2 Q234 16 188.5 49.5 Q143 83 110.5 129 Q78 175 60 231.5 Q42 288 42 353 Q42 418 60 475 Q78 532 111 579 Q144 626 190 659.5 Q236 693 291.5 711.5 Q347 730 410 730 Q481 730 542 707 Q603 684 649.5 641 Q696 598 722 537 L578 493 Q551 541 508.5 567 Q466 593 410 593 Q364 593 325 575.5 Q286 558 257 525.5 Q228 493 212 450 Q196 407 196 356 Q196 304 212 260 Q228 216 257.5 184 Q287 152 327 134.5 Q367 117 415 117 Q466 117 506 136 Q546 155 571 189 Q596 223 602 269 L425 269 L425 392 L755 392 L755 317 Q755 243 729.5 181 Q704 119 658 74 Q612 29 548 4.5 Q484 -20 408 -20 Z " />
<glyph glyph-name="uni0048" unicode="H" horiz-adv-x="742" d="M65 0 L65 710 L214 710 L214 433 L528 433 L528 710 L677 710 L677 0 L528 0 L528 301 L214 301 L214 0 L65 0 Z " />
<glyph glyph-name="uni0049" unicode="I" horiz-adv-x="279" d="M65 0 L65 710 L214 710 L214 0 L65 0 Z " />
<glyph glyph-name="uni004A" unicode="J" horiz-adv-x="554" d="M256 -15 Q195 -15 146 8 Q97 31 62.5 74.5 Q28 118 12 179 L160 205 Q174 164 197.5 141.5 Q221 119 255 119 Q297 119 322 149.5 Q347 180 347 232 L347 710 L496 710 L496 237 Q496 181 478.5 134.5 Q461 88 429.5 54.5 Q398 21 354 3 Q310 -15 256 -15 Z " />
<glyph glyph-name="uni004B" unicode="K" horiz-adv-x="696" d="M65 0 L65 710 L214 710 L214 395 L477 710 L651 710 L367 379 L687 0 L494 0 L214 344 L214 0 L65 0 Z " />
<glyph glyph-name="uni004C" unicode="L" horiz-adv-x="544" d="M65 0 L65 710 L214 710 L214 132 L504 132 L504 0 L65 0 Z " />
<glyph glyph-name="uni004D" unicode="M" horiz-adv-x="854" d="M65 0 L65 710 L205 710 L429 300 L654 710 L789 710 L789 0 L645 0 L645 449 L480 148 L374 148 L209 449 L209 0 L65 0 Z " />
<glyph glyph-name="uni004E" unicode="N" horiz-adv-x="732" d="M65 0 L65 710 L194 710 L523 240 L523 710 L667 710 L667 0 L538 0 L209 470 L209 0 L65 0 Z " />
<glyph glyph-name="uni004F" unicode="O" horiz-adv-x="820" d="M409 -20 Q346 -20 290 -2 Q234 16 188.5 49.5 Q143 83 110.5 129.5 Q78 176 60 233 Q42 290 42 354 Q42 418 60 475.5 Q78 533 111 579.5 Q144 626 189.5 659.5 Q235 693 291 711.5 Q347 730 411 730 Q474 730 530 712 Q586 694 631.5 660.5 Q677 627 709.5 580.5 Q742 534 760 477 Q778 420 778 356 Q778 292 760 234.5 Q742 177 709 130.5 Q676 84 630.5 50.5 Q585 17 529 -1.5 Q473 -20 409 -20 Z M410 117 Q456 117 495.5 134.5 Q535 152 563.5 184 Q592 216 608 259.5 Q624 303 624 355 Q624 407 608 450.5 Q592 494 563.5 526 Q535 558 495.5 575.5 Q456 593 410 593 Q364 593 324.5 575.5 Q285 558 256.5 526 Q228 494 212 450.5 Q196 407 196 355 Q196 303 212 259.5 Q228 216 256.5 184 Q285 152 324.5 134.5 Q364 117 410 117 Z " />
<glyph glyph-name="uni0050" unicode="P" horiz-adv-x="599" d="M65 0 L65 710 L293 710 Q380 710 442.5 681.5 Q505 653 538.5 599.5 Q572 546 572 470 Q572 416 552 372.5 Q532 329 495 297.5 Q458 266 406.5 249 Q355 232 292 232 Q255 232 212 239 L212 0 L65 0 Z M212 584 L212 364 Q252 358 286 358 Q350 358 385.5 387 Q421 416 421 471 Q421 525 387 554.5 Q353 584 290 584 L212 584 Z " />
<glyph glyph-name="uni0051" unicode="Q" horiz-adv-x="820" d="M406 -20 Q344 -20 289 -2 Q234 16 188.5 49.5 Q143 83 110.5 129.5 Q78 176 60 233 Q42 290 42 354 Q42 418 60 475.5 Q78 533 111 579.5 Q144 626 189.5 659.5 Q235 693 291 711.5 Q347 730 411 730 Q474 730 530 712 Q586 694 631.5 660.5 Q677 627 709.5 580.5 Q742 534 760 477 Q778 420 778 356 Q778 279 751.5 211.5 Q725 144 677 94 L758 -6 L658 -86 L574 18 Q536 0 494 -10 Q452 -20 406 -20 Z M413 117 Q451 117 485 129 L371 271 L469 350 L584 208 Q603 237 613.5 274.5 Q624 312 624 355 Q624 407 608 450.5 Q592 494 563.5 526 Q535 558 495.5 575.5 Q456 593 410 593 Q364 593 324.5 575.5 Q285 558 256.5 526 Q228 494 212 450.5 Q196 407 196 355 Q196 303 212 259.5 Q228 216 256.5 184 Q285 152 325 134.5 Q365 117 413 117 Z " />
<glyph glyph-name="uni0052" unicode="R" horiz-adv-x="631" d="M65 0 L65 710 L293 710 Q380 710 443.5 682.5 Q507 655 541 603.5 Q575 552 575 482 Q575 441 560 403.5 Q545 366 518 335.5 Q491 305 453 285 L614 0 L450 0 L323 246 Q304 245 282 245 Q250 245 212 251 L212 0 L65 0 Z M212 584 L212 375 Q231 372 250 370.5 Q269 369 290 369 Q354 369 389 397.5 Q424 426 424 477 Q424 528 389 556 Q354 584 290 584 L212 584 Z " />
<glyph glyph-name="uni0053" unicode="S" horiz-adv-x="573" d="M284 -15 Q220 -15 166.5 7.5 Q113 30 75.5 71.5 Q38 113 24 171 L163 201 Q176 160 208.5 137 Q241 114 286 114 Q318 114 342.5 125.5 Q367 137 380.5 157 Q394 177 394 203 Q394 236 369 256.5 Q344 277 288 290 L256 297 Q146 321 94 374.5 Q42 428 42 505 Q42 553 61 593 Q80 633 113.5 662.5 Q147 692 192 708.5 Q237 725 289 725 Q348 725 399 703 Q450 681 485 640 Q520 599 532 543 L395 513 Q383 553 353.5 574.5 Q324 596 285 596 Q258 596 236.5 585.5 Q215 575 202.5 556.5 Q190 538 190 515 Q190 480 217 461.5 Q244 443 297 431 L329 424 Q438 400 490.5 348 Q543 296 543 215 Q543 164 523.5 122 Q504 80 469 49 Q434 18 387 1.5 Q340 -15 284 -15 Z " />
<glyph glyph-name="uni0054" unicode="T" horiz-adv-x="631" d="M241 0 L241 578 L41 578 L41 710 L590 710 L590 578 L390 578 L390 0 L241 0 Z " />
<glyph glyph-name="uni0055" unicode="U" horiz-adv-x="722" d="M360 -20 Q290 -20 234 1.5 Q178 23 138 63.5 Q98 104 76.5 160.5 Q55 217 55 287 L55 710 L204 710 L204 294 Q204 240 223 200 Q242 160 277.5 138.5 Q313 117 361 117 Q409 117 444 138.5 Q479 160 498.5 200 Q518 240 518 294 L518 710 L667 710 L667 287 Q667 217 645.5 160.5 Q624 104 583.5 63.5 Q543 23 486.5 1.5 Q430 -20 360 -20 Z " />
<glyph glyph-name="uni0056" unicode="V" horiz-adv-x="733" d="M286 0 L16 710 L179 710 L370 165 L560 710 L717 710 L447 0 L286 0 Z " />
<glyph glyph-name="uni0057" unicode="W" horiz-adv-x="1044" d="M1015 710 L806 0 L662 0 L523 509 L384 0 L238 0 L29 710 L185 710 L315 197 L456 710 L593 710 L734 197 L863 710 L1015 710 Z " />
<glyph glyph-name="uni0058" unicode="X" horiz-adv-x="689" d="M9 0 L261 374 L38 710 L207 710 L346 480 L485 710 L650 710 L428 374 L680 0 L504 0 L342 260 L180 0 L9 0 Z " />
<glyph glyph-name="uni0059" unicode="Y" horiz-adv-x="667" d="M259 0 L259 276 L11 710 L177 710 L336 411 L494 710 L656 710 L408 276 L408 0 L259 0 Z " />
<glyph glyph-name="uni005A" unicode="Z" horiz-adv-x="640" d="M37 0 L37 106 L398 584 L52 584 L52 710 L584 710 L584 604 L223 126 L606 126 L606 0 L37 0 Z " />
<glyph glyph-name="uni0061" unicode="a" horiz-adv-x="560" d="M219 -15 Q178 -15 144 -3 Q110 9 84.5 31.5 Q59 54 45 84 Q31 114 31 150 Q31 200 58 238 Q85 276 134 297.5 Q183 319 248 319 Q281 319 310.5 313 Q340 307 368 296 L368 327 Q368 372 342.5 400 Q317 428 273 428 Q240 428 213 411.5 Q186 395 175 365 L50 390 Q61 436 93.5 470.5 Q126 505 173 524 Q220 543 275 543 Q326 543 368 527 Q410 511 440.5 481 Q471 451 487.5 410.5 Q504 370 504 320 L504 0 L379 0 L375 62 Q354 28 314 6.5 Q274 -15 219 -15 Z M169 157 Q169 129 192 111 Q215 93 253 93 Q286 93 312 107 Q338 121 353 145.5 Q368 170 368 200 L368 205 Q346 214 321 219.5 Q296 225 271 225 Q224 225 196.5 206.5 Q169 188 169 157 Z " />
<glyph glyph-name="uni0062" unicode="b" horiz-adv-x="639" d="M56 0 L56 746 L196 746 L196 461 Q224 499 266.5 521 Q309 543 360 543 Q412 543 456 522 Q500 501 533 463.5 Q566 426 584.5 376 Q603 326 603 267 Q603 207 584 156 Q565 105 531 66.5 Q497 28 451 6.5 Q405 -15 352 -15 Q300 -15 258 7 Q216 29 189 69 L185 0 L56 0 Z M327 111 Q365 111 395 131 Q425 151 442.5 185.5 Q460 220 460 264 Q460 308 442.5 342.5 Q425 377 395 397 Q365 417 327 417 Q289 417 259 397 Q229 377 211.5 342.5 Q194 308 194 264 Q194 220 211.5 185.5 Q229 151 259 131 Q289 111 327 111 Z " />
<glyph glyph-name="uni0063" unicode="c" horiz-adv-x="571" d="M301 -15 Q244 -15 195.5 5.5 Q147 26 111.5 63 Q76 100 56 150.5 Q36 201 36 260 Q36 320 56.5 371.5 Q77 423 113.5 461.5 Q150 500 199 521.5 Q248 543 305 543 Q362 543 410 521.5 Q458 500 491.5 461 Q525 422 538 370 L405 344 Q390 378 363 397.5 Q336 417 302 417 Q266 417 238.5 397 Q211 377 195 341.5 Q179 306 179 262 Q179 218 194.5 184 Q210 150 238 130.5 Q266 111 302 111 Q338 111 367 130 Q396 149 410 184 L543 158 Q530 105 494.5 66 Q459 27 409 6 Q359 -15 301 -15 Z " />
<glyph glyph-name="uni0064" unicode="d" horiz-adv-x="639" d="M278 -15 Q227 -15 183 6 Q139 27 106 64.5 Q73 102 54.5 152 Q36 202 36 261 Q36 321 55 372 Q74 423 108 461.5 Q142 500 187.5 521.5 Q233 543 286 543 Q335 543 375.5 523.5 Q416 504 443 469 L443 746 L583 746 L583 0 L454 0 L450 77 Q422 34 377.5 9.5 Q333 -15 278 -15 Z M312 111 Q350 111 380 131 Q410 151 427.5 185.5 Q445 220 445 264 Q445 308 427.5 342.5 Q410 377 380 397 Q350 417 312 417 Q274 417 244 397 Q214 377 196.5 342.5 Q179 308 179 264 Q179 220 196.5 185.5 Q214 151 244 131 Q274 111 312 111 Z " />
<glyph glyph-name="uni0065" unicode="e" horiz-adv-x="588" d="M306 -15 Q247 -15 197.5 5.5 Q148 26 112 63.5 Q76 101 56 152.5 Q36 204 36 265 Q36 324 56 375 Q76 426 111.5 463.5 Q147 501 195 522 Q243 543 299 543 Q357 543 404.5 523 Q452 503 486 466 Q520 429 538.5 378 Q557 327 557 264 L557 229 L178 229 Q187 170 221 136.5 Q255 103 307 103 Q343 103 372.5 120 Q402 137 421 169 L546 129 Q528 84 492 52 Q456 20 408 2.5 Q360 -15 306 -15 Z M299 435 Q253 435 221.5 405 Q190 375 180 323 L413 323 Q405 375 374.5 405 Q344 435 299 435 Z " />
<glyph glyph-name="uni0066" unicode="f" horiz-adv-x="410" d="M108 0 L108 415 L18 415 L18 528 L108 528 L108 558 Q108 601 122.5 637.5 Q137 674 163.5 700.5 Q190 727 226.5 741.5 Q263 756 306 756 Q339 756 365.5 748 Q392 740 411 730 L383 623 Q371 629 355.5 633.5 Q340 638 326 638 Q286 638 267 614.5 Q248 591 248 549 L248 528 L388 528 L388 415 L248 415 L248 0 L108 0 Z " />
<glyph glyph-name="uni0067" unicode="g" horiz-adv-x="629" d="M273 15 Q223 15 179.5 35 Q136 55 104 90.5 Q72 126 54 173.5 Q36 221 36 276 Q36 333 54.5 381.5 Q73 430 106.5 466 Q140 502 184.5 522.5 Q229 543 281 543 Q332 543 373 522.5 Q414 502 441 463 L444 528 L573 528 L573 63 Q573 2 553.5 -48 Q534 -98 498 -134 Q462 -170 412.5 -189.5 Q363 -209 303 -209 Q244 -209 197 -190.5 Q150 -172 115 -139 Q80 -106 60 -62 L194 -29 Q212 -58 240.5 -74.5 Q269 -91 305 -91 Q344 -91 372.5 -73.5 Q401 -56 417 -24.5 Q433 7 433 49 L433 92 Q406 56 364.5 35.5 Q323 15 273 15 Z M307 139 Q344 139 372.5 157.5 Q401 176 418 207.5 Q435 239 435 279 Q435 319 418 350.5 Q401 382 372.5 400.5 Q344 419 307 419 Q270 419 241.5 400.5 Q213 382 196 350.5 Q179 319 179 279 Q179 239 196 207.5 Q213 176 241.5 157.5 Q270 139 307 139 Z " />
<glyph glyph-name="uni0068" unicode="h" horiz-adv-x="594" d="M56 0 L56 746 L196 746 L196 470 Q220 504 258 523.5 Q296 543 345 543 Q403 543 446.5 515.5 Q490 488 514 437 Q538 386 538 317 L538 0 L398 0 L398 299 Q398 354 373 385.5 Q348 417 304 417 Q272 417 248 402.5 Q224 388 210 362 Q196 336 196 303 L196 0 L56 0 Z " />
<glyph glyph-name="uni0069" unicode="i" horiz-adv-x="252" d="M206 671 Q206 648 195.5 630 Q185 612 166.5 601.5 Q148 591 126 591 Q104 591 85.5 601.5 Q67 612 56.5 630 Q46 648 46 671 Q46 694 56.5 712 Q67 730 85.5 740.5 Q104 751 126 751 Q148 751 166.5 740.5 Q185 730 195.5 712 Q206 694 206 671 Z M56 0 L56 528 L196 528 L196 0 L56 0 Z " />
<glyph glyph-name="uni006A" unicode="j" horiz-adv-x="257" d="M211 671 Q211 648 200.5 630 Q190 612 172 601.5 Q154 591 131 591 Q108 591 90 601.5 Q72 612 61.5 630 Q51 648 51 671 Q51 694 61.5 712 Q72 730 90 740.5 Q108 751 131 751 Q154 751 172 740.5 Q190 730 200.5 712 Q211 694 211 671 Z M25 -204 Q-2 -204 -27 -197.5 Q-52 -191 -73 -179 L-45 -71 Q-35 -76 -22.5 -79.5 Q-10 -83 1 -83 Q30 -83 45.5 -64 Q61 -45 61 -10 L61 528 L201 528 L201 -19 Q201 -74 179 -116 Q157 -158 117.5 -181 Q78 -204 25 -204 Z " />
<glyph glyph-name="uni006B" unicode="k" horiz-adv-x="581" d="M56 0 L56 746 L193 746 L193 313 L389 528 L553 528 L333 294 L577 0 L400 0 L193 263 L193 0 L56 0 Z " />
<glyph glyph-name="uni006C" unicode="l" horiz-adv-x="252" d="M56 0 L56 746 L196 746 L196 0 L56 0 Z " />
<glyph glyph-name="uni006D" unicode="m" horiz-adv-x="920" d="M56 0 L56 528 L185 528 L189 461 Q212 499 251 521 Q290 543 339 543 Q392 543 433.5 517 Q475 491 498 445 Q522 489 567.5 516 Q613 543 672 543 Q731 543 774 515.5 Q817 488 840.5 437 Q864 386 864 317 L864 0 L724 0 L724 299 Q724 354 700 385.5 Q676 417 633 417 Q603 417 579.5 402.5 Q556 388 543 362 Q530 336 530 303 L530 0 L390 0 L390 299 Q390 354 366 385.5 Q342 417 299 417 Q269 417 245.5 402.5 Q222 388 209 362 Q196 336 196 303 L196 0 L56 0 Z " />
<glyph glyph-name="uni006E" unicode="n" horiz-adv-x="594" d="M56 0 L56 528 L185 528 L189 460 Q212 498 252.5 520.5 Q293 543 345 543 Q403 543 446.5 515.5 Q490 488 514 437 Q538 386 538 317 L538 0 L398 0 L398 299 Q398 354 373 385.5 Q348 417 304 417 Q272 417 248 402.5 Q224 388 210 362 Q196 336 196 303 L196 0 L56 0 Z " />
<glyph glyph-name="uni006F" unicode="o" horiz-adv-x="624" d="M310 -15 Q251 -15 201 6 Q151 27 114 64.5 Q77 102 56.5 153 Q36 204 36 264 Q36 324 57 374.5 Q78 425 115.5 463 Q153 501 203.5 522 Q254 543 314 543 Q373 543 423 522 Q473 501 510 463.5 Q547 426 567.5 375.5 Q588 325 588 265 Q588 205 567 154 Q546 103 508.5 65 Q471 27 420.5 6 Q370 -15 310 -15 Z M312 111 Q350 111 380 131 Q410 151 427.5 185.5 Q445 220 445 264 Q445 308 427.5 342.5 Q410 377 380 397 Q350 417 312 417 Q274 417 244 397 Q214 377 196.5 342.5 Q179 308 179 264 Q179 220 196.5 185.5 Q214 151 244 131 Q274 111 312 111 Z " />
<glyph glyph-name="uni0070" unicode="p" horiz-adv-x="639" d="M56 -194 L56 528 L185 528 L189 451 Q216 494 261 518.5 Q306 543 360 543 Q412 543 456 522 Q500 501 533 463.5 Q566 426 584.5 376 Q603 326 603 267 Q603 207 584 156 Q565 105 531 66.5 Q497 28 451 6.5 Q405 -15 352 -15 Q303 -15 263 4.5 Q223 24 196 59 L196 -194 L56 -194 Z M327 111 Q365 111 395 131 Q425 151 442.5 185.5 Q460 220 460 264 Q460 308 442.5 342.5 Q425 377 395 397 Q365 417 327 417 Q289 417 259 397 Q229 377 211.5 342.5 Q194 308 194 264 Q194 220 211.5 185.5 Q229 151 259 131 Q289 111 327 111 Z " />
<glyph glyph-name="uni0071" unicode="q" horiz-adv-x="639" d="M279 -15 Q227 -15 183 6 Q139 27 106 64.5 Q73 102 54.5 152 Q36 202 36 261 Q36 321 55 372 Q74 423 108 461.5 Q142 500 188 521.5 Q234 543 287 543 Q339 543 381 521 Q423 499 450 459 L454 528 L583 528 L583 -194 L443 -194 L443 67 Q415 29 372.5 7 Q330 -15 279 -15 Z M312 111 Q350 111 380 131 Q410 151 427.5 185.5 Q445 220 445 264 Q445 308 427.5 342.5 Q410 377 380 397 Q350 417 312 417 Q274 417 244 397 Q214 377 196.5 342.5 Q179 308 179 264 Q179 220 196.5 185.5 Q214 151 244 131 Q274 111 312 111 Z " />
<glyph glyph-name="uni0072" unicode="r" horiz-adv-x="397" d="M56 0 L56 528 L185 528 L190 448 Q210 490 244 512.5 Q278 535 324 535 Q338 535 352 532.5 Q366 530 377 526 L362 388 Q351 392 339.5 393.5 Q328 395 316 395 Q258 395 227 359.5 Q196 324 196 259 L196 0 L56 0 Z " />
<glyph glyph-name="uni0073" unicode="s" horiz-adv-x="491" d="M246 -15 Q190 -15 144.5 3 Q99 21 67.5 54 Q36 87 24 132 L150 159 Q160 128 186 110 Q212 92 248 92 Q282 92 304 107 Q326 122 326 148 Q326 170 306.5 184.5 Q287 199 242 207 L214 212 Q128 227 83.5 268 Q39 309 39 372 Q39 422 65 460.5 Q91 499 137 521 Q183 543 243 543 Q296 543 339.5 525.5 Q383 508 412 476 Q441 444 452 399 L327 373 Q317 403 294.5 420 Q272 437 242 437 Q211 437 191 422 Q171 407 171 384 Q171 364 190.5 350.5 Q210 337 257 329 L285 324 Q370 309 415 267.5 Q460 226 460 162 Q460 123 444.5 91 Q429 59 400 35 Q371 11 332 -2 Q293 -15 246 -15 Z " />
<glyph glyph-name="uni0074" unicode="t" horiz-adv-x="438" d="M285 -15 Q230 -15 190.5 6.5 Q151 28 129.5 69 Q108 110 108 169 L108 415 L18 415 L18 528 L108 528 L108 708 L248 708 L248 528 L392 528 L392 415 L248 415 L248 186 Q248 148 264 127.5 Q280 107 313 107 Q330 107 349.5 112 Q369 117 387 125 L412 20 Q386 4 354 -5.5 Q322 -15 285 -15 Z " />
<glyph glyph-name="uni0075" unicode="u" horiz-adv-x="592" d="M294 -15 Q222 -15 168.5 15.5 Q115 46 85.5 102.5 Q56 159 56 236 L56 528 L196 528 L196 233 Q196 176 223 143.5 Q250 111 296 111 Q342 111 369 143.5 Q396 176 396 233 L396 528 L536 528 L536 236 Q536 179 519 133 Q502 87 470 54 Q438 21 393.5 3 Q349 -15 294 -15 Z " />
<glyph glyph-name="uni0076" unicode="v" horiz-adv-x="561" d="M209 0 L11 528 L164 528 L282 148 L402 528 L550 528 L352 0 L209 0 Z " />
<glyph glyph-name="uni0077" unicode="w" horiz-adv-x="840" d="M186 0 L11 528 L155 528 L254 171 L361 528 L482 528 L589 170 L690 528 L829 528 L654 0 L525 0 L419 357 L313 0 L186 0 Z " />
<glyph glyph-name="uni0078" unicode="x" horiz-adv-x="575" d="M12 0 L210 279 L34 528 L192 528 L289 369 L388 528 L541 528 L366 278 L563 0 L398 0 L287 182 L173 0 L12 0 Z " />
<glyph glyph-name="uni0079" unicode="y" horiz-adv-x="561" d="M144 -204 Q117 -204 93 -198.5 Q69 -193 48 -181 L75 -71 Q86 -76 101 -79.5 Q116 -83 129 -83 Q158 -83 179.5 -67.5 Q201 -52 215 -18 L224 5 L11 528 L164 528 L289 154 L402 528 L550 528 L333 -50 Q303 -130 256.5 -167 Q210 -204 144 -204 Z " />
<glyph glyph-name="uni007A" unicode="z" horiz-adv-x="525" d="M39 0 L39 93 L295 415 L46 415 L46 528 L469 528 L469 435 L212 113 L486 113 L486 0 L39 0 Z " />
<glyph glyph-name="uni2122" unicode="&#x2122;" horiz-adv-x="797" d="M121 359 L121 625 L25 625 L25 710 L314 710 L314 625 L218 625 L218 359 L121 359 Z M368 359 L368 710 L466 710 L555 527 L644 710 L739 710 L739 359 L647 359 L647 564 L584 432 L523 432 L461 563 L461 359 L368 359 Z " />
<glyph glyph-name="uni00AA" unicode="&#xaa;" horiz-adv-x="416" d="M162 308 Q124 308 94.5 323 Q65 338 48 364 Q31 390 31 425 Q31 460 50 487 Q69 514 103.5 528.5 Q138 543 184 543 Q206 543 224 539.5 Q242 536 261 529 L261 548 Q261 576 245 594 Q229 612 203 612 Q184 612 168 602 Q152 592 146 575 L44 593 Q52 624 75.5 648.5 Q99 673 132.5 686.5 Q166 700 206 700 Q255 700 292 680 Q329 660 350 624.5 Q371 589 371 542 L371 318 L270 318 L267 358 Q252 335 225 321.5 Q198 308 162 308 Z M142 429 Q142 410 155.5 399.5 Q169 389 191 389 Q222 389 241.5 409 Q261 429 261 459 L261 461 Q249 466 233.5 469.5 Q218 473 203 473 Q176 473 159 462 Q142 451 142 429 Z " />
<glyph glyph-name="uni00BA" unicode="&#xba;" horiz-adv-x="453" d="M226 308 Q184 308 147.5 322.5 Q111 337 84.5 364 Q58 391 43 426.5 Q28 462 28 504 Q28 546 43 581.5 Q58 617 84.5 643.5 Q111 670 147.5 685 Q184 700 226 700 Q269 700 305 685 Q341 670 368 643.5 Q395 617 410 581.5 Q425 546 425 504 Q425 462 410 426.5 Q395 391 368 364 Q341 337 305 322.5 Q269 308 226 308 Z M226 411 Q250 411 269 423 Q288 435 299 455.5 Q310 476 310 504 Q310 531 299 552 Q288 573 269 585 Q250 597 226 597 Q202 597 183 585 Q164 573 153.5 552 Q143 531 143 504 Q143 476 153.5 455.5 Q164 435 183 423 Q202 411 226 411 Z " />
<glyph glyph-name="uni00B0" unicode="&#xb0;" horiz-adv-x="377" d="M356 589 Q356 555 343 525.5 Q330 496 307 473.5 Q284 451 253.5 438 Q223 425 188 425 Q153 425 123 437.5 Q93 450 70 472.5 Q47 495 34 524.5 Q21 554 21 588 Q21 622 34 651.5 Q47 681 70 703.5 Q93 726 123.5 739 Q154 752 189 752 Q224 752 254 739.5 Q284 727 307 704.5 Q330 682 343 652.5 Q356 623 356 589 Z M257 589 Q257 610 247.5 626.5 Q238 643 222.5 653 Q207 663 188 663 Q169 663 153.5 653 Q138 643 129 626.5 Q120 610 120 589 Q120 568 129 551 Q138 534 153.5 524 Q169 514 188 514 Q207 514 222.5 524 Q238 534 247.5 551 Q257 568 257 589 Z " />
<glyph glyph-name="uni00A9" unicode="&#xa9;" horiz-adv-x="846" d="M423 -21 Q359 -21 302 -2.5 Q245 16 198.5 50 Q152 84 118 130.5 Q84 177 65.5 234 Q47 291 47 355 Q47 419 65.5 475.5 Q84 532 118 579 Q152 626 198.5 659.5 Q245 693 302 711.5 Q359 730 423 730 Q487 730 544 711.5 Q601 693 647.5 659.5 Q694 626 728 579 Q762 532 780.5 475.5 Q799 419 799 355 Q799 291 780.5 234 Q762 177 728 130.5 Q694 84 647.5 50 Q601 16 544 -2.5 Q487 -21 423 -21 Z M423 64 Q470 64 513 78.5 Q556 93 591.5 120 Q627 147 653 183 Q679 219 693.5 263 Q708 307 708 355 Q708 403 693.5 446.5 Q679 490 653 526.5 Q627 563 591.5 589.5 Q556 616 513 630.5 Q470 645 423 645 Q376 645 333 630.5 Q290 616 254.5 589.5 Q219 563 193 526.5 Q167 490 152.5 446.5 Q138 403 138 355 Q138 307 152.5 263 Q167 219 193 183 Q219 147 254.5 120 Q290 93 333 78.5 Q376 64 423 64 Z M427 155 Q385 155 349.5 170 Q314 185 287.5 212.5 Q261 240 246.5 276.5 Q232 313 232 356 Q232 400 247 437.5 Q262 475 289 503.5 Q316 532 352 547.5 Q388 563 430 563 Q472 563 507.5 546.5 Q543 530 567.5 499 Q592 468 602 427 L496 407 Q486 431 469 445 Q452 459 430 459 Q406 459 388 446 Q370 433 359.5 410 Q349 387 349 358 Q349 329 359.5 306.5 Q370 284 388 271.5 Q406 259 430 259 Q452 259 471.5 272.5 Q491 286 500 311 L606 291 Q596 251 570 220.5 Q544 190 507 172.5 Q470 155 427 155 Z " />
<glyph glyph-name="uni00AE" unicode="&#xae;" horiz-adv-x="536" d="M268 270 Q219 270 177.5 287 Q136 304 105 334.5 Q74 365 57 406 Q40 447 40 495 Q40 543 57 584 Q74 625 105 655.5 Q136 686 177.5 703 Q219 720 268 720 Q317 720 358.5 703 Q400 686 431 655.5 Q462 625 479 584 Q496 543 496 495 Q496 447 479 406 Q462 365 431 334.5 Q400 304 358.5 287 Q317 270 268 270 Z M268 326 Q304 326 334.5 339 Q365 352 388 375 Q411 398 424 428.5 Q437 459 437 495 Q437 531 424 561.5 Q411 592 388 615 Q365 638 334.5 651 Q304 664 268 664 Q232 664 201.5 651 Q171 638 148 615 Q125 592 112 561.5 Q99 531 99 495 Q99 459 112 428.5 Q125 398 148 375 Q171 352 201.5 339 Q232 326 268 326 Z M180 380 L180 614 L267 614 Q312 614 338 593 Q364 572 364 535 Q364 515 354 497.5 Q344 480 327 469 L376 380 L307 380 L273 452 Q271 452 269 452 Q267 452 264 452 Q254 452 243 453 L243 380 L180 380 Z M243 560 L243 505 Q248 505 253.5 504.5 Q259 504 266 504 Q282 504 291 512 Q300 520 300 533 Q300 546 291 553 Q282 560 265 560 L243 560 Z " />
<glyph glyph-name="uni2018" unicode="&#x2018;" horiz-adv-x="249" d="M134 416 Q106 416 83 432.5 Q60 449 46.5 477.5 Q33 506 33 541 Q33 584 51.5 620.5 Q70 657 104 683 Q138 709 183 721 L207 649 Q180 642 160 627.5 Q140 613 129 594.5 Q118 576 118 556 Q118 550 119 545 Q130 552 144 552 Q162 552 177 543 Q192 534 200.5 519 Q209 504 209 485 Q209 466 199 450.5 Q189 435 171.5 425.5 Q154 416 134 416 Z " />
<glyph glyph-name="uni2019" unicode="&#x2019;" horiz-adv-x="249" d="M115 714 Q143 714 166 697.5 Q189 681 202.5 652.5 Q216 624 216 589 Q216 546 197.5 509.5 Q179 473 145.5 447 Q112 421 66 409 L42 481 Q68 488 88.5 502.5 Q109 517 120 535.5 Q131 554 131 574 Q131 580 130 585 Q119 578 105 578 Q87 578 72 587 Q57 596 48.5 611 Q40 626 40 645 Q40 664 50 679.5 Q60 695 77 704.5 Q94 714 115 714 Z " />
<glyph glyph-name="uni201A" unicode="&#x201a;" horiz-adv-x="250" d="M123 158 Q151 158 174 141.5 Q197 125 210.5 96.5 Q224 68 224 33 Q224 -10 205.5 -46.5 Q187 -83 153.5 -109 Q120 -135 74 -147 L50 -75 Q76 -68 96.5 -53.5 Q117 -39 128 -20.5 Q139 -2 139 18 Q139 24 138 29 Q127 22 113 22 Q95 22 80 31 Q65 40 56.5 55 Q48 70 48 89 Q48 108 58 123.5 Q68 139 85 148.5 Q102 158 123 158 Z " />
<glyph glyph-name="uni201C" unicode="&#x201c;" horiz-adv-x="466" d="M134 416 Q106 416 83 432.5 Q60 449 46.5 477.5 Q33 506 33 541 Q33 584 51.5 620.5 Q70 657 104 683 Q138 709 183 721 L207 649 Q180 642 160 627.5 Q140 613 129 594.5 Q118 576 118 556 Q118 550 119 545 Q130 552 144 552 Q162 552 177 543 Q192 534 200.5 519 Q209 504 209 485 Q209 466 199 450.5 Q189 435 171.5 425.5 Q154 416 134 416 Z M351 416 Q323 416 300 432.5 Q277 449 263.5 477.5 Q250 506 250 541 Q250 584 268.5 620.5 Q287 657 321 683 Q355 709 400 721 L424 649 Q397 642 377 627.5 Q357 613 346 594.5 Q335 576 335 556 Q335 550 336 545 Q347 552 361 552 Q379 552 394 543 Q409 534 417.5 519 Q426 504 426 485 Q426 466 416 450.5 Q406 435 388.5 425.5 Q371 416 351 416 Z " />
<glyph glyph-name="uni201D" unicode="&#x201d;" horiz-adv-x="466" d="M115 714 Q143 714 166 697.5 Q189 681 202.5 652.5 Q216 624 216 589 Q216 546 197.5 509.5 Q179 473 145.5 447 Q112 421 66 409 L42 481 Q68 488 88.5 502.5 Q109 517 120 535.5 Q131 554 131 574 Q131 580 130 585 Q119 578 105 578 Q87 578 72 587 Q57 596 48.5 611 Q40 626 40 645 Q40 664 50 679.5 Q60 695 77 704.5 Q94 714 115 714 Z M332 714 Q360 714 383 697.5 Q406 681 419.5 652.5 Q433 624 433 589 Q433 546 414.5 509.5 Q396 473 362.5 447 Q329 421 283 409 L259 481 Q285 488 305.5 502.5 Q326 517 337 535.5 Q348 554 348 574 Q348 580 347 585 Q336 578 322 578 Q304 578 289 587 Q274 596 265.5 611 Q257 626 257 645 Q257 664 267 679.5 Q277 695 294 704.5 Q311 714 332 714 Z " />
<glyph glyph-name="uni201E" unicode="&#x201e;" horiz-adv-x="468" d="M123 158 Q151 158 174 141.5 Q197 125 210.5 96.5 Q224 68 224 33 Q224 -10 205.5 -46.5 Q187 -83 153.5 -109 Q120 -135 74 -147 L50 -75 Q76 -68 96.5 -53.5 Q117 -39 128 -20.5 Q139 -2 139 18 Q139 24 138 29 Q127 22 113 22 Q95 22 80 31 Q65 40 56.5 55 Q48 70 48 89 Q48 108 58 123.5 Q68 139 85 148.5 Q102 158 123 158 Z M341 158 Q369 158 392 141.5 Q415 125 428.5 96.5 Q442 68 442 33 Q442 -10 423.5 -46.5 Q405 -83 371.5 -109 Q338 -135 292 -147 L268 -75 Q294 -68 314.5 -53.5 Q335 -39 346 -20.5 Q357 -2 357 18 Q357 24 356 29 Q345 22 331 22 Q313 22 298 31 Q283 40 274.5 55 Q266 70 266 89 Q266 108 276 123.5 Q286 139 303 148.5 Q320 158 341 158 Z " />
<glyph glyph-name="uni0131" unicode="&#x131;" horiz-adv-x="252" d="M56 0 L56 528 L196 528 L196 0 L56 0 Z " />
<glyph glyph-name="uni0237" unicode="&#x237;" horiz-adv-x="257" d="M25 -204 Q-2 -204 -27 -197.5 Q-52 -191 -73 -179 L-45 -71 Q-35 -76 -22.5 -79.5 Q-10 -83 1 -83 Q30 -83 45.5 -64 Q61 -45 61 -10 L61 528 L201 528 L201 -19 Q201 -74 179 -116 Q157 -158 117.5 -181 Q78 -204 25 -204 Z " />
<glyph glyph-name="uni0132" unicode="&#x132;" horiz-adv-x="698" d="M55 307 L55 710 L204 710 L204 307 L55 307 Z M350 -20 Q278 -20 218.5 4.5 Q159 29 117.5 76 Q76 123 57 189 L200 215 Q220 168 257 142.5 Q294 117 343 117 Q389 117 423 138.5 Q457 160 475.5 199 Q494 238 494 292 L494 710 L643 710 L643 291 Q643 220 622.5 163 Q602 106 563 65 Q524 24 470 2 Q416 -20 350 -20 Z " />
<glyph glyph-name="uni0133" unicode="&#x133;" horiz-adv-x="594" d="M206 671 Q206 648 195.5 630 Q185 612 166.5 601.5 Q148 591 126 591 Q104 591 85.5 601.5 Q67 612 56.5 630 Q46 648 46 671 Q46 694 56.5 712 Q67 730 85.5 740.5 Q104 751 126 751 Q148 751 166.5 740.5 Q185 730 195.5 712 Q206 694 206 671 Z M548 671 Q548 648 537.5 630 Q527 612 508.5 601.5 Q490 591 468 591 Q446 591 427.5 601.5 Q409 612 398.5 630 Q388 648 388 671 Q388 694 398.5 712 Q409 730 427.5 740.5 Q446 751 468 751 Q490 751 508.5 740.5 Q527 730 537.5 712 Q548 694 548 671 Z M250 15 Q191 15 147.5 42.5 Q104 70 80 121 Q56 172 56 241 L56 528 L196 528 L196 260 Q196 204 221 173 Q246 142 290 142 Q322 142 346 157 Q370 172 384 197.5 Q398 223 398 256 L398 528 L538 528 L538 49 Q538 -10 520 -57 Q502 -104 469 -138 Q436 -172 390 -190.5 Q344 -209 288 -209 Q236 -209 191.5 -192 Q147 -175 113.5 -143.5 Q80 -112 61 -68 L190 -34 Q206 -61 231.5 -76 Q257 -91 286 -91 Q320 -91 345 -75.5 Q370 -60 384 -31 Q398 -2 398 36 L398 88 Q374 54 336 34.5 Q298 15 250 15 Z " />
<glyph glyph-name="uni00DE" unicode="&#xde;" horiz-adv-x="599" d="M65 0 L65 710 L212 710 L212 596 L293 596 Q380 596 442.5 567.5 Q505 539 538.5 485.5 Q572 432 572 356 Q572 302 552 258.5 Q532 215 495 183.5 Q458 152 406.5 135 Q355 118 292 118 Q255 118 212 125 L212 0 L65 0 Z M212 470 L212 250 Q252 244 286 244 Q350 244 385.5 273 Q421 302 421 357 Q421 411 387 440.5 Q353 470 290 470 L212 470 Z " />
<glyph glyph-name="uni00C6" unicode="&#xc6;" horiz-adv-x="1026" d="M16 0 L462 710 L962 710 L962 583 L671 583 L671 428 L930 428 L930 301 L671 301 L671 127 L972 127 L972 0 L527 0 L527 156 L275 156 L182 0 L16 0 Z M350 282 L527 282 L527 579 L350 282 Z " />
<glyph glyph-name="uni0152" unicode="&#x152;" horiz-adv-x="1029" d="M418 0 Q334 0 265 25.5 Q196 51 146 98 Q96 145 69 210 Q42 275 42 354 Q42 433 69.5 498.5 Q97 564 147 611.5 Q197 659 266.5 684.5 Q336 710 420 710 L965 710 L965 583 L674 583 L674 428 L933 428 L933 301 L674 301 L674 127 L975 127 L975 0 L418 0 Z M427 132 L530 132 L530 578 L427 578 Q356 578 304 551 Q252 524 224 474 Q196 424 196 355 Q196 286 224 236 Q252 186 304 159 Q356 132 427 132 Z " />
<glyph glyph-name="uni1E9E" unicode="&#x1e9e;" horiz-adv-x="659" d="M388 -15 Q354 -15 323.5 -8 Q293 -1 265 12 L291 134 Q308 126 329.5 120.5 Q351 115 371 115 Q402 115 427 128.5 Q452 142 466 165 Q480 188 480 219 Q480 266 445 294.5 Q410 323 350 324 L338 412 L445 558 Q426 574 401 584 Q376 594 347 594 Q306 594 274.5 574 Q243 554 225 517 Q207 480 207 428 L207 0 L58 0 L58 423 Q58 491 78 546.5 Q98 602 135 642 Q172 682 224.5 703.5 Q277 725 342 725 Q398 725 449 708.5 Q500 692 542 662 Q584 632 613 589 L489 418 Q532 404 564.5 374.5 Q597 345 615 304.5 Q633 264 633 215 Q633 166 614.5 124 Q596 82 563 50.5 Q530 19 485 2 Q440 -15 388 -15 Z " />
<glyph glyph-name="uni00FE" unicode="&#xfe;" horiz-adv-x="639" d="M56 -194 L56 746 L196 746 L196 461 Q224 499 266.5 521 Q309 543 360 543 Q412 543 456 522 Q500 501 533 463.5 Q566 426 584.5 376 Q603 326 603 267 Q603 207 584 156 Q565 105 531 66.5 Q497 28 451 6.5 Q405 -15 352 -15 Q303 -15 263 4.5 Q223 24 196 59 L196 -194 L56 -194 Z M327 111 Q365 111 395 131 Q425 151 442.5 185.5 Q460 220 460 264 Q460 308 442.5 342.5 Q425 377 395 397 Q365 417 327 417 Q289 417 259 397 Q229 377 211.5 342.5 Q194 308 194 264 Q194 220 211.5 185.5 Q229 151 259 131 Q289 111 327 111 Z " />
<glyph glyph-name="uni00E6" unicode="&#xe6;" horiz-adv-x="893" d="M232 -15 Q189 -15 152.5 -3 Q116 9 88.5 31.5 Q61 54 46 84.5 Q31 115 31 152 Q31 200 57.5 238 Q84 276 132 297.5 Q180 319 243 319 Q275 319 303 313 Q331 307 358 296 L358 327 Q358 372 334 400 Q310 428 268 428 Q236 428 210.5 411.5 Q185 395 175 365 L50 390 Q60 436 92 470.5 Q124 505 170 524 Q216 543 270 543 Q323 543 365 521 Q407 499 434 460 Q466 500 512 521.5 Q558 543 614 543 Q668 543 713.5 523 Q759 503 792 466 Q825 429 843.5 378 Q862 327 862 264 L862 229 L493 229 Q502 170 534.5 136.5 Q567 103 617 103 Q652 103 679.5 120 Q707 137 726 169 L851 129 Q833 84 797.5 52 Q762 20 716 2.5 Q670 -15 618 -15 Q554 -15 502.5 12 Q451 39 418 87 Q403 55 375.5 32.5 Q348 10 311.5 -2.5 Q275 -15 232 -15 Z M609 435 Q565 435 535 405 Q505 375 495 323 L718 323 Q710 375 681.5 405 Q653 435 609 435 Z M169 157 Q169 129 190 111 Q211 93 248 93 Q280 93 305 107 Q330 121 344 145.5 Q358 170 358 200 L358 205 Q337 214 313 219.5 Q289 225 266 225 Q221 225 195 206.5 Q169 188 169 157 Z " />
<glyph glyph-name="uni0153" unicode="&#x153;" horiz-adv-x="980" d="M303 -15 Q247 -15 198.5 6 Q150 27 113.5 64.5 Q77 102 56.5 153 Q36 204 36 263 Q36 323 56.5 374 Q77 425 114 463 Q151 501 200 522 Q249 543 305 543 Q367 543 417 516.5 Q467 490 500 445 Q535 491 586 517 Q637 543 701 543 Q755 543 800.5 523 Q846 503 879 466 Q912 429 930.5 378 Q949 327 949 264 L949 229 L580 229 Q589 170 621.5 136.5 Q654 103 704 103 Q739 103 766.5 120 Q794 137 813 169 L938 129 Q920 84 884.5 52 Q849 20 802.5 2.5 Q756 -15 705 -15 Q639 -15 586 11 Q533 37 499 84 Q465 38 414.5 11.5 Q364 -15 303 -15 Z M696 435 Q652 435 622 405 Q592 375 582 323 L805 323 Q797 375 768.5 405 Q740 435 696 435 Z M307 111 Q344 111 372.5 131 Q401 151 418 185.5 Q435 220 435 264 Q435 308 418 342.5 Q401 377 372.5 397 Q344 417 307 417 Q270 417 241.5 397 Q213 377 196 342.5 Q179 308 179 264 Q179 220 196 185.5 Q213 151 241.5 131 Q270 111 307 111 Z " />
<glyph glyph-name="uni00DF" unicode="&#xdf;" horiz-adv-x="612" d="M340 -10 Q317 -10 292.5 -6.5 Q268 -3 249 4 L268 123 Q279 118 294.5 116 Q310 114 322 114 Q354 114 379.5 128 Q405 142 419 166.5 Q433 191 433 223 Q433 274 399.5 303.5 Q366 333 310 333 L279 333 L279 449 L300 449 Q328 449 349.5 461 Q371 473 384 494 Q397 515 397 541 Q397 567 384 588 Q371 609 349.5 621 Q328 633 300 633 Q270 633 246.5 619 Q223 605 209.5 578.5 Q196 552 196 514 L196 0 L56 0 L56 513 Q56 568 73.5 613 Q91 658 123.5 690.5 Q156 723 201 741 Q246 759 300 759 Q351 759 394.5 744 Q438 729 470 701.5 Q502 674 520 637.5 Q538 601 538 558 Q538 509 515.5 467.5 Q493 426 454 401 Q491 388 518.5 360 Q546 332 561 293.5 Q576 255 576 211 Q576 164 558.5 123.5 Q541 83 509 53 Q477 23 434 6.5 Q391 -10 340 -10 Z " />
<glyph glyph-name="uni0138" unicode="&#x138;" horiz-adv-x="581" d="M56 0 L56 528 L193 528 L193 304 L389 528 L553 528 L333 286 L577 0 L400 0 L193 254 L193 0 L56 0 Z " />
<glyph glyph-name="uni014A" unicode="&#x14a;" horiz-adv-x="732" d="M65 0 L65 710 L194 710 L523 240 L523 710 L667 710 L667 3 Q667 -62 641.5 -109.5 Q616 -157 571 -183 Q526 -209 468 -209 Q428 -209 396 -198 Q364 -187 341 -172 L377 -64 Q391 -72 410.5 -77.5 Q430 -83 447 -83 Q480 -83 501.5 -60.5 Q523 -38 523 2 L523 21 L209 470 L209 0 L65 0 Z " />
<glyph glyph-name="uni014B" unicode="&#x14b;" horiz-adv-x="594" d="M56 0 L56 528 L185 528 L189 460 Q212 498 252.5 520.5 Q293 543 345 543 Q403 543 446.5 515.5 Q490 488 514 437 Q538 386 538 317 L538 -19 Q538 -74 516.5 -116 Q495 -158 456.5 -181 Q418 -204 366 -204 Q339 -204 314 -197.5 Q289 -191 269 -180 L297 -72 Q306 -76 318.5 -79.5 Q331 -83 342 -83 Q368 -83 383 -64 Q398 -45 398 -10 L398 298 Q398 354 373 385 Q348 416 304 416 Q272 416 248 401 Q224 386 210 360.5 Q196 335 196 302 L196 0 L56 0 Z " />
<glyph glyph-name="uni00D0" unicode="&#xd0;" horiz-adv-x="769" d="M75 0 L75 308 L-3 308 L-3 422 L75 422 L75 710 L351 710 Q435 710 504 684.5 Q573 659 623 612 Q673 565 700 500 Q727 435 727 356 Q727 277 699.5 211.5 Q672 146 622 98.5 Q572 51 502.5 25.5 Q433 0 349 0 L75 0 Z M224 132 L342 132 Q413 132 465 159 Q517 186 545 236 Q573 286 573 355 Q573 424 545 474 Q517 524 465 551 Q413 578 342 578 L224 578 L224 422 L366 422 L366 308 L224 308 L224 132 Z " />
<glyph glyph-name="uni0110" unicode="&#x110;" horiz-adv-x="769" d="M75 0 L75 308 L-3 308 L-3 422 L75 422 L75 710 L351 710 Q435 710 504 684.5 Q573 659 623 612 Q673 565 700 500 Q727 435 727 356 Q727 277 699.5 211.5 Q672 146 622 98.5 Q572 51 502.5 25.5 Q433 0 349 0 L75 0 Z M224 132 L342 132 Q413 132 465 159 Q517 186 545 236 Q573 286 573 355 Q573 424 545 474 Q517 524 465 551 Q413 578 342 578 L224 578 L224 422 L366 422 L366 308 L224 308 L224 132 Z " />
<glyph glyph-name="uni0126" unicode="&#x126;" horiz-adv-x="763" d="M75 0 L75 525 L-3 525 L-3 627 L75 627 L75 710 L224 710 L224 627 L538 627 L538 710 L687 710 L687 627 L766 627 L766 525 L687 525 L687 0 L538 0 L538 291 L224 291 L224 0 L75 0 Z M224 423 L538 423 L538 525 L224 525 L224 423 Z " />
<glyph glyph-name="uni0166" unicode="&#x166;" horiz-adv-x="631" d="M241 0 L241 270 L118 270 L118 384 L241 384 L241 578 L41 578 L41 710 L590 710 L590 578 L390 578 L390 384 L513 384 L513 270 L390 270 L390 0 L241 0 Z " />
<glyph glyph-name="uni0141" unicode="&#x141;" horiz-adv-x="554" d="M75 0 L75 215 L-3 158 L-3 291 L75 348 L75 710 L224 710 L224 457 L348 547 L348 414 L224 324 L224 132 L514 132 L514 0 L75 0 Z " />
<glyph glyph-name="uni00D8" unicode="&#xd8;" horiz-adv-x="820" d="M190 -35 L52 -35 L145 90 Q97 140 69.5 208 Q42 276 42 354 Q42 418 60 475.5 Q78 533 111 579.5 Q144 626 189.5 659.5 Q235 693 291 711.5 Q347 730 411 730 Q459 730 503.5 719 Q548 708 587 687 L630 745 L768 745 L675 620 Q723 570 750.5 502 Q778 434 778 356 Q778 292 760 234.5 Q742 177 709 130.5 Q676 84 630.5 50.5 Q585 17 529 -1.5 Q473 -20 409 -20 Q361 -20 316.5 -9 Q272 2 233 23 L190 -35 Z M191 355 Q191 312 201.5 274.5 Q212 237 232 207 L505 577 Q462 598 410 598 Q362 598 322 580 Q282 562 252.5 529.5 Q223 497 207 452.5 Q191 408 191 355 Z M410 112 Q458 112 498 130 Q538 148 567.5 180.5 Q597 213 613 257.5 Q629 302 629 355 Q629 398 618.5 435.5 Q608 473 589 503 L315 133 Q358 112 410 112 Z " />
<glyph glyph-name="uni00F0" unicode="&#xf0;" horiz-adv-x="637" d="M310 -15 Q250 -15 200 5 Q150 25 113 61.5 Q76 98 56 147 Q36 196 36 254 Q36 311 55.5 360 Q75 409 109 446 Q143 483 188 503.5 Q233 524 285 524 Q328 524 363.5 509 Q399 494 424 467 Q393 536 340 602 L245 558 L208 636 L280 670 Q247 701 213 727 L350 761 Q373 744 395 724 L484 765 L521 687 L457 657 Q498 605 527.5 544.5 Q557 484 573 421 Q589 358 589 296 Q589 226 568.5 168.5 Q548 111 511 70 Q474 29 423 7 Q372 -15 310 -15 Z M313 111 Q352 111 382 130.5 Q412 150 429 183.5 Q446 217 446 260 Q446 302 429 335.5 Q412 369 382 388 Q352 407 313 407 Q274 407 244 388 Q214 369 196.5 335.5 Q179 302 179 260 Q179 217 196.5 183.5 Q214 150 244 130.5 Q274 111 313 111 Z " />
<glyph glyph-name="uni0111" unicode="&#x111;" horiz-adv-x="639" d="M278 -15 Q227 -15 183 5.5 Q139 26 106 63.5 Q73 101 54.5 150.5 Q36 200 36 259 Q36 318 55 368.5 Q74 419 108 457 Q142 495 187.5 516.5 Q233 538 286 538 Q335 538 375.5 519 Q416 500 443 464 L443 588 L309 588 L309 680 L443 680 L443 746 L583 746 L583 680 L653 680 L653 588 L583 588 L583 0 L454 0 L450 77 Q423 34 378 9.5 Q333 -15 278 -15 Z M312 111 Q350 111 380 130.5 Q410 150 427.5 184 Q445 218 445 261 Q445 304 427.5 338.5 Q410 373 380 392.5 Q350 412 312 412 Q274 412 244 392.5 Q214 373 196.5 338.5 Q179 304 179 261 Q179 218 196.5 184 Q214 150 244 130.5 Q274 111 312 111 Z " />
<glyph glyph-name="uni0127" unicode="&#x127;" horiz-adv-x="594" d="M56 0 L56 588 L-14 588 L-14 680 L56 680 L56 746 L196 746 L196 680 L330 680 L330 588 L196 588 L196 465 Q220 499 258 518.5 Q296 538 345 538 Q403 538 446.5 510 Q490 482 514 431.5 Q538 381 538 312 L538 0 L398 0 L398 293 Q398 348 373 379.5 Q348 411 304 411 Q272 411 248 396.5 Q224 382 210 356 Q196 330 196 297 L196 0 L56 0 Z " />
<glyph glyph-name="uni0167" unicode="&#x167;" horiz-adv-x="438" d="M28 231 L28 323 L108 323 L108 415 L18 415 L18 528 L108 528 L108 708 L248 708 L248 528 L392 528 L392 415 L248 415 L248 323 L382 323 L382 231 L248 231 L248 186 Q248 148 264 127.5 Q280 107 313 107 Q330 107 349.5 112 Q369 117 387 125 L412 20 Q386 4 354 -5.5 Q322 -15 285 -15 Q230 -15 190.5 6.5 Q151 28 129.5 69 Q108 110 108 169 L108 231 L28 231 Z " />
<glyph glyph-name="uni0142" unicode="&#x142;" horiz-adv-x="295" d="M78 0 L78 259 L6 205 L6 325 L78 379 L78 746 L218 746 L218 484 L289 537 L289 417 L218 364 L218 0 L78 0 Z " />
<glyph glyph-name="uni00F8" unicode="&#xf8;" horiz-adv-x="624" d="M157 -25 L43 -25 L112 69 Q77 107 56.5 157 Q36 207 36 264 Q36 324 57 374.5 Q78 425 115.5 463 Q153 501 203.5 522 Q254 543 314 543 Q348 543 379 535.5 Q410 528 438 514 L467 553 L581 553 L512 459 Q548 422 568 372 Q588 322 588 265 Q588 205 567 154 Q546 103 508.5 65 Q471 27 420.5 6 Q370 -15 310 -15 Q276 -15 245 -7.5 Q214 0 186 14 L157 -25 Z M174 264 Q174 240 179 219 Q184 198 193 180 L363 412 Q339 422 312 422 Q272 422 241 401.5 Q210 381 192 345.5 Q174 310 174 264 Z M312 106 Q352 106 383 126.5 Q414 147 432 183 Q450 219 450 264 Q450 288 445 309 Q440 330 431 348 L261 116 Q285 106 312 106 Z " />
<glyph glyph-name="uni0327" unicode="&#x327;" d="M-37 11 L50 11 L33 -41 Q65 -51 83.5 -73.5 Q102 -96 102 -126 Q102 -156 84.5 -178.5 Q67 -201 35.5 -213.5 Q4 -226 -36 -226 Q-79 -226 -118 -211 L-104 -137 Q-89 -142 -75.5 -144.5 Q-62 -147 -52 -147 Q-32 -147 -19.5 -138.5 Q-7 -130 -7 -116 Q-7 -83 -70 -83 L-37 11 Z " />
<glyph glyph-name="uni00B8" unicode="&#xb8;" horiz-adv-x="594" d="M268 11 L355 11 L338 -41 Q370 -51 388.5 -73.5 Q407 -96 407 -126 Q407 -156 389.5 -178.5 Q372 -201 340.5 -213.5 Q309 -226 269 -226 Q226 -226 187 -211 L201 -137 Q216 -142 229.5 -144.5 Q243 -147 253 -147 Q273 -147 285.5 -138.5 Q298 -130 298 -116 Q298 -83 235 -83 L268 11 Z " />
<glyph glyph-name="uni0326" unicode="&#x326;" d="M-33 -267 L-56 -210 Q-35 -202 -20.5 -189 Q-6 -176 -1 -161 Q-9 -165 -19 -165 Q-42 -165 -57 -149.5 Q-72 -134 -72 -111 Q-72 -86 -53 -69.5 Q-34 -53 -6 -53 Q17 -53 35 -64 Q53 -75 63 -94.5 Q73 -114 73 -138 Q73 -182 44.5 -216 Q16 -250 -33 -267 Z " />
<glyph glyph-name="uni0312" unicode="&#x312;" d="M7 581 Q-16 581 -34 592 Q-52 603 -62 622.5 Q-72 642 -72 666 Q-72 710 -44 744 Q-16 778 34 795 L57 738 Q36 730 21.5 717 Q7 704 2 689 Q10 693 20 693 Q42 693 57.5 677.5 Q73 662 73 639 Q73 614 54.5 597.5 Q36 581 7 581 Z " />
<glyph glyph-name="uni0328" unicode="&#x328;" d="M-80 -223 Q-133 -223 -164.5 -198.5 Q-196 -174 -196 -133 Q-196 -96 -166 -57 Q-136 -18 -72 25 L0 0 Q-46 -34 -66.5 -58.5 Q-87 -83 -87 -100 Q-87 -114 -76.5 -122.5 Q-66 -131 -49 -131 Q-37 -131 -24 -128.5 Q-11 -126 -3 -122 L9 -205 Q-33 -223 -80 -223 Z " />
<glyph glyph-name="uni02DB" unicode="&#x2db;" horiz-adv-x="594" d="M310 -223 Q257 -223 225.5 -198.5 Q194 -174 194 -133 Q194 -96 224 -57 Q254 -18 318 25 L390 0 Q344 -34 323.5 -58.5 Q303 -83 303 -100 Q303 -114 313.5 -122.5 Q324 -131 341 -131 Q353 -131 366 -128.5 Q379 -126 387 -122 L399 -205 Q357 -223 310 -223 Z " />
<glyph glyph-name="uni00C7" unicode="&#xc7;" horiz-adv-x="741" d="M396 -20 Q335 -20 281 -2 Q227 16 183 49 Q139 82 107.5 127.5 Q76 173 59 229.5 Q42 286 42 350 Q42 414 59.5 471.5 Q77 529 109 576.5 Q141 624 185 658.5 Q229 693 282.5 711.5 Q336 730 396 730 Q451 730 500 715 Q549 700 589 672 Q629 644 658.5 605 Q688 566 703 517 L559 481 Q535 534 492 563.5 Q449 593 394 593 Q352 593 315.5 575 Q279 557 252.5 524.5 Q226 492 211 448 Q196 404 196 352 Q196 300 210.5 257 Q225 214 252 182.5 Q279 151 315.5 134 Q352 117 396 117 Q453 117 496.5 145.5 Q540 174 566 229 L710 193 Q689 128 643.5 80 Q598 32 535 6 Q472 -20 396 -20 Z M359 9 L450 9 L432 -47 Q463 -57 482 -81 Q501 -105 501 -135 Q501 -165 483.5 -188.5 Q466 -212 434 -225 Q402 -238 361 -238 Q338 -238 316.5 -234 Q295 -230 274 -222 L289 -145 Q303 -150 317 -152.5 Q331 -155 342 -155 Q363 -155 375 -146.5 Q387 -138 387 -124 Q387 -108 371 -99.5 Q355 -91 324 -91 L359 9 Z " />
<glyph glyph-name="uni015E" unicode="&#x15e;" horiz-adv-x="573" d="M284 -15 Q220 -15 166.5 7.5 Q113 30 75.5 71.5 Q38 113 24 171 L163 201 Q176 160 208.5 137 Q241 114 286 114 Q318 114 342.5 125.5 Q367 137 380.5 157 Q394 177 394 203 Q394 236 369 256.5 Q344 277 288 290 L256 297 Q146 321 94 374.5 Q42 428 42 505 Q42 553 61 593 Q80 633 113.5 662.5 Q147 692 192 708.5 Q237 725 289 725 Q348 725 399 703 Q450 681 485 640 Q520 599 532 543 L395 513 Q383 553 353.5 574.5 Q324 596 285 596 Q258 596 236.5 585.5 Q215 575 202.5 556.5 Q190 538 190 515 Q190 480 217 461.5 Q244 443 297 431 L329 424 Q438 400 490.5 348 Q543 296 543 215 Q543 164 523.5 122 Q504 80 469 49 Q434 18 387 1.5 Q340 -15 284 -15 Z M247 9 L338 9 L320 -47 Q351 -57 370 -81 Q389 -105 389 -135 Q389 -165 371.5 -188.5 Q354 -212 322 -225 Q290 -238 249 -238 Q226 -238 204.5 -234 Q183 -230 162 -222 L177 -145 Q191 -150 205 -152.5 Q219 -155 230 -155 Q251 -155 263 -146.5 Q275 -138 275 -124 Q275 -108 259 -99.5 Q243 -91 212 -91 L247 9 Z " />
<glyph glyph-name="uni0122" unicode="&#x122;" horiz-adv-x="794" d="M408 -20 Q345 -20 289.5 -2 Q234 16 188.5 49.5 Q143 83 110.5 129 Q78 175 60 231.5 Q42 288 42 353 Q42 418 60 475 Q78 532 111 579 Q144 626 190 659.5 Q236 693 291.5 711.5 Q347 730 410 730 Q481 730 542 707 Q603 684 649.5 641 Q696 598 722 537 L578 493 Q551 541 508.5 567 Q466 593 410 593 Q364 593 325 575.5 Q286 558 257 525.5 Q228 493 212 450 Q196 407 196 356 Q196 304 212 260 Q228 216 257.5 184 Q287 152 327 134.5 Q367 117 415 117 Q466 117 506 136 Q546 155 571 189 Q596 223 602 269 L425 269 L425 392 L755 392 L755 317 Q755 243 729.5 181 Q704 119 658 74 Q612 29 548 4.5 Q484 -20 408 -20 Z M379 -278 L356 -221 Q379 -212 394 -199 Q409 -186 413 -172 Q405 -176 394 -176 Q371 -176 355 -160 Q339 -144 339 -121 Q339 -95 359 -78 Q379 -61 408 -61 Q432 -61 450 -72.5 Q468 -84 478.5 -103 Q489 -122 489 -147 Q489 -191 460 -226.5 Q431 -262 379 -278 Z " />
<glyph glyph-name="uni0136" unicode="&#x136;" horiz-adv-x="696" d="M65 0 L65 710 L214 710 L214 395 L477 710 L651 710 L367 379 L687 0 L494 0 L214 344 L214 0 L65 0 Z M311 -278 L288 -221 Q311 -212 326 -199 Q341 -186 345 -172 Q337 -176 326 -176 Q303 -176 287 -160 Q271 -144 271 -121 Q271 -95 291 -78 Q311 -61 340 -61 Q364 -61 382 -72.5 Q400 -84 410.5 -103 Q421 -122 421 -147 Q421 -191 392 -226.5 Q363 -262 311 -278 Z " />
<glyph glyph-name="uni013B" unicode="&#x13b;" horiz-adv-x="544" d="M65 0 L65 710 L214 710 L214 132 L504 132 L504 0 L65 0 Z M249 -278 L226 -221 Q249 -212 264 -199 Q279 -186 283 -172 Q275 -176 264 -176 Q241 -176 225 -160 Q209 -144 209 -121 Q209 -95 229 -78 Q249 -61 278 -61 Q302 -61 320 -72.5 Q338 -84 348.5 -103 Q359 -122 359 -147 Q359 -191 330 -226.5 Q301 -262 249 -278 Z " />
<glyph glyph-name="uni0145" unicode="&#x145;" horiz-adv-x="732" d="M65 0 L65 710 L194 710 L523 240 L523 710 L667 710 L667 0 L538 0 L209 470 L209 0 L65 0 Z M331 -278 L308 -221 Q331 -212 346 -199 Q361 -186 365 -172 Q357 -176 346 -176 Q323 -176 307 -160 Q291 -144 291 -121 Q291 -95 311 -78 Q331 -61 360 -61 Q384 -61 402 -72.5 Q420 -84 430.5 -103 Q441 -122 441 -147 Q441 -191 412 -226.5 Q383 -262 331 -278 Z " />
<glyph glyph-name="uni0218" unicode="&#x218;" horiz-adv-x="573" d="M284 -15 Q220 -15 166.5 7.5 Q113 30 75.5 71.5 Q38 113 24 171 L163 201 Q176 160 208.5 137 Q241 114 286 114 Q318 114 342.5 125.5 Q367 137 380.5 157 Q394 177 394 203 Q394 236 369 256.5 Q344 277 288 290 L256 297 Q146 321 94 374.5 Q42 428 42 505 Q42 553 61 593 Q80 633 113.5 662.5 Q147 692 192 708.5 Q237 725 289 725 Q348 725 399 703 Q450 681 485 640 Q520 599 532 543 L395 513 Q383 553 353.5 574.5 Q324 596 285 596 Q258 596 236.5 585.5 Q215 575 202.5 556.5 Q190 538 190 515 Q190 480 217 461.5 Q244 443 297 431 L329 424 Q438 400 490.5 348 Q543 296 543 215 Q543 164 523.5 122 Q504 80 469 49 Q434 18 387 1.5 Q340 -15 284 -15 Z M249 -278 L226 -221 Q249 -212 264 -199 Q279 -186 283 -172 Q275 -176 264 -176 Q241 -176 225 -160 Q209 -144 209 -121 Q209 -95 229 -78 Q249 -61 278 -61 Q302 -61 320 -72.5 Q338 -84 348.5 -103 Q359 -122 359 -147 Q359 -191 330 -226.5 Q301 -262 249 -278 Z " />
<glyph glyph-name="uni021A" unicode="&#x21a;" horiz-adv-x="631" d="M241 0 L241 578 L41 578 L41 710 L590 710 L590 578 L390 578 L390 0 L241 0 Z M280 -278 L257 -221 Q280 -212 295 -199 Q310 -186 314 -172 Q306 -176 295 -176 Q272 -176 256 -160 Q240 -144 240 -121 Q240 -95 260 -78 Q280 -61 309 -61 Q333 -61 351 -72.5 Q369 -84 379.5 -103 Q390 -122 390 -147 Q390 -191 361 -226.5 Q332 -262 280 -278 Z " />
<glyph glyph-name="uni0104" unicode="&#x104;" horiz-adv-x="755" d="M16 0 L298 710 L456 710 L739 0 L586 0 L528 156 L221 156 L163 0 L16 0 Z M268 282 L481 282 L374 565 L268 282 Z M657 -226 Q603 -226 571 -201 Q539 -176 539 -135 Q539 -96 569 -57 Q599 -18 663 25 L739 0 Q693 -34 672.5 -58.5 Q652 -83 652 -100 Q652 -114 662.5 -122.5 Q673 -131 690 -131 Q701 -131 714 -128.5 Q727 -126 736 -122 L748 -209 Q724 -217 701.5 -221.5 Q679 -226 657 -226 Z " />
<glyph glyph-name="uni0118" unicode="&#x118;" horiz-adv-x="574" d="M65 0 L65 710 L510 710 L510 583 L209 583 L209 428 L478 428 L478 301 L209 301 L209 127 L520 127 L520 0 L65 0 Z M439 -226 Q385 -226 353 -201 Q321 -176 321 -135 Q321 -96 351 -57 Q381 -18 445 25 L521 0 Q475 -34 454.5 -58.5 Q434 -83 434 -100 Q434 -114 444.5 -122.5 Q455 -131 472 -131 Q483 -131 496 -128.5 Q509 -126 518 -122 L530 -209 Q506 -217 483.5 -221.5 Q461 -226 439 -226 Z " />
<glyph glyph-name="uni012E" unicode="&#x12e;" horiz-adv-x="279" d="M65 0 L65 710 L214 710 L214 0 L65 0 Z M132 -226 Q78 -226 46 -201 Q14 -176 14 -135 Q14 -96 44 -57 Q74 -18 138 25 L214 0 Q168 -34 147.5 -58.5 Q127 -83 127 -100 Q127 -114 137.5 -122.5 Q148 -131 165 -131 Q176 -131 189 -128.5 Q202 -126 211 -122 L223 -209 Q199 -217 176.5 -221.5 Q154 -226 132 -226 Z " />
<glyph glyph-name="uni0172" unicode="&#x172;" horiz-adv-x="722" d="M360 -20 Q290 -20 234 1.5 Q178 23 138 63.5 Q98 104 76.5 160.5 Q55 217 55 287 L55 710 L204 710 L204 294 Q204 240 223 200 Q242 160 277.5 138.5 Q313 117 361 117 Q409 117 444 138.5 Q479 160 498.5 200 Q518 240 518 294 L518 710 L667 710 L667 287 Q667 217 645.5 160.5 Q624 104 583.5 63.5 Q543 23 486.5 1.5 Q430 -20 360 -20 Z M479 -226 Q424 -226 392 -200 Q360 -174 360 -131 Q360 -90 391 -47.5 Q422 -5 486 44 L574 58 Q522 7 497.5 -30 Q473 -67 473 -93 Q473 -110 483.5 -120.5 Q494 -131 512 -131 Q523 -131 535.5 -128.5 Q548 -126 557 -122 L569 -209 Q546 -217 524 -221.5 Q502 -226 479 -226 Z " />
<glyph glyph-name="uni00E7" unicode="&#xe7;" horiz-adv-x="571" d="M301 -15 Q244 -15 195.5 5.5 Q147 26 111.5 63 Q76 100 56 150.5 Q36 201 36 260 Q36 320 56.5 371.5 Q77 423 113.5 461.5 Q150 500 199 521.5 Q248 543 305 543 Q362 543 410 521.5 Q458 500 491.5 461 Q525 422 538 370 L405 344 Q390 378 363 397.5 Q336 417 302 417 Q266 417 238.5 397 Q211 377 195 341.5 Q179 306 179 262 Q179 218 194.5 184 Q210 150 238 130.5 Q266 111 302 111 Q338 111 367 130 Q396 149 410 184 L543 158 Q530 105 494.5 66 Q459 27 409 6 Q359 -15 301 -15 Z M266 11 L353 11 L336 -41 Q368 -51 386.5 -73.5 Q405 -96 405 -126 Q405 -156 387.5 -178.5 Q370 -201 338.5 -213.5 Q307 -226 267 -226 Q224 -226 185 -211 L199 -137 Q214 -142 227.5 -144.5 Q241 -147 251 -147 Q271 -147 283.5 -138.5 Q296 -130 296 -116 Q296 -83 233 -83 L266 11 Z " />
<glyph glyph-name="uni015F" unicode="&#x15f;" horiz-adv-x="491" d="M246 -15 Q190 -15 144.5 3 Q99 21 67.5 54 Q36 87 24 132 L150 159 Q160 128 186 110 Q212 92 248 92 Q282 92 304 107 Q326 122 326 148 Q326 170 306.5 184.5 Q287 199 242 207 L214 212 Q128 227 83.5 268 Q39 309 39 372 Q39 422 65 460.5 Q91 499 137 521 Q183 543 243 543 Q296 543 339.5 525.5 Q383 508 412 476 Q441 444 452 399 L327 373 Q317 403 294.5 420 Q272 437 242 437 Q211 437 191 422 Q171 407 171 384 Q171 364 190.5 350.5 Q210 337 257 329 L285 324 Q370 309 415 267.5 Q460 226 460 162 Q460 123 444.5 91 Q429 59 400 35 Q371 11 332 -2 Q293 -15 246 -15 Z M209 11 L296 11 L279 -41 Q311 -51 329.5 -73.5 Q348 -96 348 -126 Q348 -156 330.5 -178.5 Q313 -201 281.5 -213.5 Q250 -226 210 -226 Q167 -226 128 -211 L142 -137 Q157 -142 170.5 -144.5 Q184 -147 194 -147 Q214 -147 226.5 -138.5 Q239 -130 239 -116 Q239 -83 176 -83 L209 11 Z " />
<glyph glyph-name="uni0123" unicode="&#x123;" horiz-adv-x="629" d="M273 15 Q223 15 179.5 35 Q136 55 104 90.5 Q72 126 54 173.5 Q36 221 36 276 Q36 333 54.5 381.5 Q73 430 106.5 466 Q140 502 184.5 522.5 Q229 543 281 543 Q332 543 373 522.5 Q414 502 441 463 L444 528 L573 528 L573 63 Q573 2 553.5 -48 Q534 -98 498 -134 Q462 -170 412.5 -189.5 Q363 -209 303 -209 Q244 -209 197 -190.5 Q150 -172 115 -139 Q80 -106 60 -62 L194 -29 Q212 -58 240.5 -74.5 Q269 -91 305 -91 Q344 -91 372.5 -73.5 Q401 -56 417 -24.5 Q433 7 433 49 L433 92 Q406 56 364.5 35.5 Q323 15 273 15 Z M307 139 Q344 139 372.5 157.5 Q401 176 418 207.5 Q435 239 435 279 Q435 319 418 350.5 Q401 382 372.5 400.5 Q344 419 307 419 Q270 419 241.5 400.5 Q213 382 196 350.5 Q179 319 179 279 Q179 239 196 207.5 Q213 176 241.5 157.5 Q270 139 307 139 Z M310 581 Q287 581 269 592 Q251 603 241 622.5 Q231 642 231 666 Q231 710 259 744 Q287 778 337 795 L360 738 Q339 730 324.5 717 Q310 704 305 689 Q313 693 323 693 Q345 693 360.5 677.5 Q376 662 376 639 Q376 614 357.5 597.5 Q339 581 310 581 Z " />
<glyph glyph-name="uni0137" unicode="&#x137;" horiz-adv-x="581" d="M56 0 L56 746 L193 746 L193 313 L389 528 L553 528 L333 294 L577 0 L400 0 L193 263 L193 0 L56 0 Z M257 -267 L234 -210 Q255 -202 269.5 -189 Q284 -176 289 -161 Q281 -165 271 -165 Q248 -165 233 -149.5 Q218 -134 218 -111 Q218 -86 237 -69.5 Q256 -53 284 -53 Q307 -53 325 -64 Q343 -75 353 -94.5 Q363 -114 363 -138 Q363 -182 334.5 -216 Q306 -250 257 -267 Z " />
<glyph glyph-name="uni013C" unicode="&#x13c;" horiz-adv-x="252" d="M56 0 L56 746 L196 746 L196 0 L56 0 Z M92 -267 L69 -210 Q90 -202 104.5 -189 Q119 -176 124 -161 Q116 -165 106 -165 Q83 -165 68 -149.5 Q53 -134 53 -111 Q53 -86 72 -69.5 Q91 -53 119 -53 Q142 -53 160 -64 Q178 -75 188 -94.5 Q198 -114 198 -138 Q198 -182 169.5 -216 Q141 -250 92 -267 Z " />
<glyph glyph-name="uni0146" unicode="&#x146;" horiz-adv-x="594" d="M56 0 L56 528 L185 528 L189 460 Q212 498 252.5 520.5 Q293 543 345 543 Q403 543 446.5 515.5 Q490 488 514 437 Q538 386 538 317 L538 0 L398 0 L398 299 Q398 354 373 385.5 Q348 417 304 417 Q272 417 248 402.5 Q224 388 210 362 Q196 336 196 303 L196 0 L56 0 Z M264 -267 L241 -210 Q262 -202 276.5 -189 Q291 -176 296 -161 Q288 -165 278 -165 Q255 -165 240 -149.5 Q225 -134 225 -111 Q225 -86 244 -69.5 Q263 -53 291 -53 Q314 -53 332 -64 Q350 -75 360 -94.5 Q370 -114 370 -138 Q370 -182 341.5 -216 Q313 -250 264 -267 Z " />
<glyph glyph-name="uni0219" unicode="&#x219;" horiz-adv-x="491" d="M246 -15 Q190 -15 144.5 3 Q99 21 67.5 54 Q36 87 24 132 L150 159 Q160 128 186 110 Q212 92 248 92 Q282 92 304 107 Q326 122 326 148 Q326 170 306.5 184.5 Q287 199 242 207 L214 212 Q128 227 83.5 268 Q39 309 39 372 Q39 422 65 460.5 Q91 499 137 521 Q183 543 243 543 Q296 543 339.5 525.5 Q383 508 412 476 Q441 444 452 399 L327 373 Q317 403 294.5 420 Q272 437 242 437 Q211 437 191 422 Q171 407 171 384 Q171 364 190.5 350.5 Q210 337 257 329 L285 324 Q370 309 415 267.5 Q460 226 460 162 Q460 123 444.5 91 Q429 59 400 35 Q371 11 332 -2 Q293 -15 246 -15 Z M213 -267 L190 -210 Q211 -202 225.5 -189 Q240 -176 245 -161 Q237 -165 227 -165 Q204 -165 189 -149.5 Q174 -134 174 -111 Q174 -86 193 -69.5 Q212 -53 240 -53 Q263 -53 281 -64 Q299 -75 309 -94.5 Q319 -114 319 -138 Q319 -182 290.5 -216 Q262 -250 213 -267 Z " />
<glyph glyph-name="uni021B" unicode="&#x21b;" horiz-adv-x="438" d="M285 -15 Q230 -15 190.5 6.5 Q151 28 129.5 69 Q108 110 108 169 L108 415 L18 415 L18 528 L108 528 L108 708 L248 708 L248 528 L392 528 L392 415 L248 415 L248 186 Q248 148 264 127.5 Q280 107 313 107 Q330 107 349.5 112 Q369 117 387 125 L412 20 Q386 4 354 -5.5 Q322 -15 285 -15 Z M218 -267 L195 -210 Q216 -202 230.5 -189 Q245 -176 250 -161 Q242 -165 232 -165 Q209 -165 194 -149.5 Q179 -134 179 -111 Q179 -86 198 -69.5 Q217 -53 245 -53 Q268 -53 286 -64 Q304 -75 314 -94.5 Q324 -114 324 -138 Q324 -182 295.5 -216 Q267 -250 218 -267 Z " />
<glyph glyph-name="uni0105" unicode="&#x105;" horiz-adv-x="560" d="M219 -15 Q178 -15 144 -3 Q110 9 84.5 31.5 Q59 54 45 84 Q31 114 31 150 Q31 200 58 238 Q85 276 134 297.5 Q183 319 248 319 Q281 319 310.5 313 Q340 307 368 296 L368 327 Q368 372 342.5 400 Q317 428 273 428 Q240 428 213 411.5 Q186 395 175 365 L50 390 Q61 436 93.5 470.5 Q126 505 173 524 Q220 543 275 543 Q326 543 368 527 Q410 511 440.5 481 Q471 451 487.5 410.5 Q504 370 504 320 L504 0 L379 0 L375 62 Q354 28 314 6.5 Q274 -15 219 -15 Z M169 157 Q169 129 192 111 Q215 93 253 93 Q286 93 312 107 Q338 121 353 145.5 Q368 170 368 200 L368 205 Q346 214 321 219.5 Q296 225 271 225 Q224 225 196.5 206.5 Q169 188 169 157 Z M424 -223 Q371 -223 339.5 -198.5 Q308 -174 308 -133 Q308 -96 338 -57 Q368 -18 432 25 L504 0 Q458 -34 437.5 -58.5 Q417 -83 417 -100 Q417 -114 427.5 -122.5 Q438 -131 455 -131 Q467 -131 480 -128.5 Q493 -126 501 -122 L513 -205 Q471 -223 424 -223 Z " />
<glyph glyph-name="uni0119" unicode="&#x119;" horiz-adv-x="588" d="M306 -15 Q247 -15 197.5 5.5 Q148 26 112 63.5 Q76 101 56 152.5 Q36 204 36 265 Q36 324 56 375 Q76 426 111.5 463.5 Q147 501 195 522 Q243 543 299 543 Q357 543 404.5 523 Q452 503 486 466 Q520 429 538.5 378 Q557 327 557 264 L557 229 L178 229 Q187 170 221 136.5 Q255 103 307 103 Q343 103 372.5 120 Q402 137 421 169 L546 129 Q528 84 492 52 Q456 20 408 2.5 Q360 -15 306 -15 Z M299 435 Q253 435 221.5 405 Q190 375 180 323 L413 323 Q405 375 374.5 405 Q344 435 299 435 Z M399 -223 Q344 -223 312 -197.5 Q280 -172 280 -130 Q280 -90 310 -48.5 Q340 -7 405 40 L490 54 Q437 2 413 -33 Q389 -68 389 -93 Q389 -111 400 -121 Q411 -131 431 -131 Q442 -131 453.5 -128.5 Q465 -126 473 -122 L485 -205 Q443 -223 399 -223 Z " />
<glyph glyph-name="uni012F" unicode="&#x12f;" horiz-adv-x="252" d="M206 671 Q206 648 195.5 630 Q185 612 166.5 601.5 Q148 591 126 591 Q104 591 85.5 601.5 Q67 612 56.5 630 Q46 648 46 671 Q46 694 56.5 712 Q67 730 85.5 740.5 Q104 751 126 751 Q148 751 166.5 740.5 Q185 730 195.5 712 Q206 694 206 671 Z M56 0 L56 528 L196 528 L196 0 L56 0 Z M116 -223 Q63 -223 31.5 -198.5 Q0 -174 0 -133 Q0 -96 30 -57 Q60 -18 124 25 L196 0 Q150 -34 129.5 -58.5 Q109 -83 109 -100 Q109 -114 119.5 -122.5 Q130 -131 147 -131 Q159 -131 172 -128.5 Q185 -126 193 -122 L205 -205 Q163 -223 116 -223 Z " />
<glyph glyph-name="uni0173" unicode="&#x173;" horiz-adv-x="592" d="M294 -15 Q222 -15 168.5 15.5 Q115 46 85.5 102.5 Q56 159 56 236 L56 528 L196 528 L196 233 Q196 176 223 143.5 Q250 111 296 111 Q342 111 369 143.5 Q396 176 396 233 L396 528 L536 528 L536 236 Q536 179 519 133 Q502 87 470 54 Q438 21 393.5 3 Q349 -15 294 -15 Z M378 -223 Q323 -223 291 -197.5 Q259 -172 259 -130 Q259 -90 289 -48.5 Q319 -7 384 40 L469 54 Q416 2 392 -33 Q368 -68 368 -93 Q368 -111 379 -121 Q390 -131 410 -131 Q421 -131 432.5 -128.5 Q444 -126 452 -122 L464 -205 Q422 -223 378 -223 Z " />
<glyph glyph-name="uni0301" unicode="&#x301;" d="M-95 603 L19 746 L175 746 L37 603 L-95 603 Z " />
<glyph glyph-name="uni00B4" unicode="&#xb4;" horiz-adv-x="594" d="M162 603 L276 746 L432 746 L294 603 L162 603 Z " />
<glyph glyph-name="uni030B" unicode="&#x30b;" d="M-160 603 L-63 746 L69 746 L-52 603 L-160 603 Z M25 603 L122 746 L254 746 L133 603 L25 603 Z " />
<glyph glyph-name="uni02DD" unicode="&#x2dd;" horiz-adv-x="594" d="M90 603 L187 746 L319 746 L198 603 L90 603 Z M275 603 L372 746 L504 746 L383 603 L275 603 Z " />
<glyph glyph-name="uni00C1" unicode="&#xc1;" horiz-adv-x="755" d="M16 0 L298 710 L456 710 L739 0 L586 0 L528 156 L221 156 L163 0 L16 0 Z M268 282 L481 282 L374 565 L268 282 Z M264 784 L402 917 L578 917 L409 784 L264 784 Z " />
<glyph glyph-name="uni0106" unicode="&#x106;" horiz-adv-x="741" d="M396 -20 Q335 -20 281 -2 Q227 16 183 49 Q139 82 107.5 127.5 Q76 173 59 229.5 Q42 286 42 350 Q42 414 59.5 471.5 Q77 529 109 576.5 Q141 624 185 658.5 Q229 693 282.5 711.5 Q336 730 396 730 Q451 730 500 715 Q549 700 589 672 Q629 644 658.5 605 Q688 566 703 517 L559 481 Q535 534 492 563.5 Q449 593 394 593 Q352 593 315.5 575 Q279 557 252.5 524.5 Q226 492 211 448 Q196 404 196 352 Q196 300 210.5 257 Q225 214 252 182.5 Q279 151 315.5 134 Q352 117 396 117 Q453 117 496.5 145.5 Q540 174 566 229 L710 193 Q689 128 643.5 80 Q598 32 535 6 Q472 -20 396 -20 Z M282 784 L420 917 L596 917 L427 784 L282 784 Z " />
<glyph glyph-name="uni00C9" unicode="&#xc9;" horiz-adv-x="574" d="M65 0 L65 710 L510 710 L510 583 L209 583 L209 428 L478 428 L478 301 L209 301 L209 127 L520 127 L520 0 L65 0 Z M174 784 L312 917 L488 917 L319 784 L174 784 Z " />
<glyph glyph-name="uni00CD" unicode="&#xcd;" horiz-adv-x="279" d="M65 0 L65 710 L214 710 L214 0 L65 0 Z M26 784 L164 917 L340 917 L171 784 L26 784 Z " />
<glyph glyph-name="uni0139" unicode="&#x139;" horiz-adv-x="544" d="M65 0 L65 710 L214 710 L214 132 L504 132 L504 0 L65 0 Z M26 784 L164 917 L340 917 L171 784 L26 784 Z " />
<glyph glyph-name="uni0143" unicode="&#x143;" horiz-adv-x="732" d="M65 0 L65 710 L194 710 L523 240 L523 710 L667 710 L667 0 L538 0 L209 470 L209 0 L65 0 Z M253 784 L391 917 L567 917 L398 784 L253 784 Z " />
<glyph glyph-name="uni00D3" unicode="&#xd3;" horiz-adv-x="820" d="M409 -20 Q346 -20 290 -2 Q234 16 188.5 49.5 Q143 83 110.5 129.5 Q78 176 60 233 Q42 290 42 354 Q42 418 60 475.5 Q78 533 111 579.5 Q144 626 189.5 659.5 Q235 693 291 711.5 Q347 730 411 730 Q474 730 530 712 Q586 694 631.5 660.5 Q677 627 709.5 580.5 Q742 534 760 477 Q778 420 778 356 Q778 292 760 234.5 Q742 177 709 130.5 Q676 84 630.5 50.5 Q585 17 529 -1.5 Q473 -20 409 -20 Z M410 117 Q456 117 495.5 134.5 Q535 152 563.5 184 Q592 216 608 259.5 Q624 303 624 355 Q624 407 608 450.5 Q592 494 563.5 526 Q535 558 495.5 575.5 Q456 593 410 593 Q364 593 324.5 575.5 Q285 558 256.5 526 Q228 494 212 450.5 Q196 407 196 355 Q196 303 212 259.5 Q228 216 256.5 184 Q285 152 324.5 134.5 Q364 117 410 117 Z M297 784 L435 917 L611 917 L442 784 L297 784 Z " />
<glyph glyph-name="uni0154" unicode="&#x154;" horiz-adv-x="631" d="M65 0 L65 710 L293 710 Q380 710 443.5 682.5 Q507 655 541 603.5 Q575 552 575 482 Q575 441 560 403.5 Q545 366 518 335.5 Q491 305 453 285 L614 0 L450 0 L323 246 Q304 245 282 245 Q250 245 212 251 L212 0 L65 0 Z M212 584 L212 375 Q231 372 250 370.5 Q269 369 290 369 Q354 369 389 397.5 Q424 426 424 477 Q424 528 389 556 Q354 584 290 584 L212 584 Z M175 784 L313 917 L489 917 L320 784 L175 784 Z " />
<glyph glyph-name="uni015A" unicode="&#x15a;" horiz-adv-x="573" d="M284 -15 Q220 -15 166.5 7.5 Q113 30 75.5 71.5 Q38 113 24 171 L163 201 Q176 160 208.5 137 Q241 114 286 114 Q318 114 342.5 125.5 Q367 137 380.5 157 Q394 177 394 203 Q394 236 369 256.5 Q344 277 288 290 L256 297 Q146 321 94 374.5 Q42 428 42 505 Q42 553 61 593 Q80 633 113.5 662.5 Q147 692 192 708.5 Q237 725 289 725 Q348 725 399 703 Q450 681 485 640 Q520 599 532 543 L395 513 Q383 553 353.5 574.5 Q324 596 285 596 Q258 596 236.5 585.5 Q215 575 202.5 556.5 Q190 538 190 515 Q190 480 217 461.5 Q244 443 297 431 L329 424 Q438 400 490.5 348 Q543 296 543 215 Q543 164 523.5 122 Q504 80 469 49 Q434 18 387 1.5 Q340 -15 284 -15 Z M175 784 L313 917 L489 917 L320 784 L175 784 Z " />
<glyph glyph-name="uni00DA" unicode="&#xda;" horiz-adv-x="722" d="M360 -20 Q290 -20 234 1.5 Q178 23 138 63.5 Q98 104 76.5 160.5 Q55 217 55 287 L55 710 L204 710 L204 294 Q204 240 223 200 Q242 160 277.5 138.5 Q313 117 361 117 Q409 117 444 138.5 Q479 160 498.5 200 Q518 240 518 294 L518 710 L667 710 L667 287 Q667 217 645.5 160.5 Q624 104 583.5 63.5 Q543 23 486.5 1.5 Q430 -20 360 -20 Z M248 784 L386 917 L562 917 L393 784 L248 784 Z " />
<glyph glyph-name="uni1E82" unicode="&#x1e82;" horiz-adv-x="1044" d="M1015 710 L806 0 L662 0 L523 509 L384 0 L238 0 L29 710 L185 710 L315 197 L456 710 L593 710 L734 197 L863 710 L1015 710 Z M409 784 L547 917 L723 917 L554 784 L409 784 Z " />
<glyph glyph-name="uni00DD" unicode="&#xdd;" horiz-adv-x="667" d="M259 0 L259 276 L11 710 L177 710 L336 411 L494 710 L656 710 L408 276 L408 0 L259 0 Z M220 784 L358 917 L534 917 L365 784 L220 784 Z " />
<glyph glyph-name="uni0179" unicode="&#x179;" horiz-adv-x="640" d="M37 0 L37 106 L398 584 L52 584 L52 710 L584 710 L584 604 L223 126 L606 126 L606 0 L37 0 Z M205 784 L343 917 L519 917 L350 784 L205 784 Z " />
<glyph glyph-name="uni0150" unicode="&#x150;" horiz-adv-x="820" d="M409 -20 Q346 -20 290 -2 Q234 16 188.5 49.5 Q143 83 110.5 129.5 Q78 176 60 233 Q42 290 42 354 Q42 418 60 475.5 Q78 533 111 579.5 Q144 626 189.5 659.5 Q235 693 291 711.5 Q347 730 411 730 Q474 730 530 712 Q586 694 631.5 660.5 Q677 627 709.5 580.5 Q742 534 760 477 Q778 420 778 356 Q778 292 760 234.5 Q742 177 709 130.5 Q676 84 630.5 50.5 Q585 17 529 -1.5 Q473 -20 409 -20 Z M410 117 Q456 117 495.5 134.5 Q535 152 563.5 184 Q592 216 608 259.5 Q624 303 624 355 Q624 407 608 450.5 Q592 494 563.5 526 Q535 558 495.5 575.5 Q456 593 410 593 Q364 593 324.5 575.5 Q285 558 256.5 526 Q228 494 212 450.5 Q196 407 196 355 Q196 303 212 259.5 Q228 216 256.5 184 Q285 152 324.5 134.5 Q364 117 410 117 Z M199 784 L334 917 L496 917 L330 784 L199 784 Z M426 784 L561 917 L723 917 L557 784 L426 784 Z " />
<glyph glyph-name="uni0170" unicode="&#x170;" horiz-adv-x="722" d="M360 -20 Q290 -20 234 1.5 Q178 23 138 63.5 Q98 104 76.5 160.5 Q55 217 55 287 L55 710 L204 710 L204 294 Q204 240 223 200 Q242 160 277.5 138.5 Q313 117 361 117 Q409 117 444 138.5 Q479 160 498.5 200 Q518 240 518 294 L518 710 L667 710 L667 287 Q667 217 645.5 160.5 Q624 104 583.5 63.5 Q543 23 486.5 1.5 Q430 -20 360 -20 Z M150 784 L285 917 L447 917 L281 784 L150 784 Z M377 784 L512 917 L674 917 L508 784 L377 784 Z " />
<glyph glyph-name="uni00E1" unicode="&#xe1;" horiz-adv-x="560" d="M219 -15 Q178 -15 144 -3 Q110 9 84.5 31.5 Q59 54 45 84 Q31 114 31 150 Q31 200 58 238 Q85 276 134 297.5 Q183 319 248 319 Q281 319 310.5 313 Q340 307 368 296 L368 327 Q368 372 342.5 400 Q317 428 273 428 Q240 428 213 411.5 Q186 395 175 365 L50 390 Q61 436 93.5 470.5 Q126 505 173 524 Q220 543 275 543 Q326 543 368 527 Q410 511 440.5 481 Q471 451 487.5 410.5 Q504 370 504 320 L504 0 L379 0 L375 62 Q354 28 314 6.5 Q274 -15 219 -15 Z M169 157 Q169 129 192 111 Q215 93 253 93 Q286 93 312 107 Q338 121 353 145.5 Q368 170 368 200 L368 205 Q346 214 321 219.5 Q296 225 271 225 Q224 225 196.5 206.5 Q169 188 169 157 Z M183 603 L297 746 L453 746 L315 603 L183 603 Z " />
<glyph glyph-name="uni0107" unicode="&#x107;" horiz-adv-x="571" d="M301 -15 Q244 -15 195.5 5.5 Q147 26 111.5 63 Q76 100 56 150.5 Q36 201 36 260 Q36 320 56.5 371.5 Q77 423 113.5 461.5 Q150 500 199 521.5 Q248 543 305 543 Q362 543 410 521.5 Q458 500 491.5 461 Q525 422 538 370 L405 344 Q390 378 363 397.5 Q336 417 302 417 Q266 417 238.5 397 Q211 377 195 341.5 Q179 306 179 262 Q179 218 194.5 184 Q210 150 238 130.5 Q266 111 302 111 Q338 111 367 130 Q396 149 410 184 L543 158 Q530 105 494.5 66 Q459 27 409 6 Q359 -15 301 -15 Z M209 603 L323 746 L479 746 L341 603 L209 603 Z " />
<glyph glyph-name="uni00E9" unicode="&#xe9;" horiz-adv-x="588" d="M306 -15 Q247 -15 197.5 5.5 Q148 26 112 63.5 Q76 101 56 152.5 Q36 204 36 265 Q36 324 56 375 Q76 426 111.5 463.5 Q147 501 195 522 Q243 543 299 543 Q357 543 404.5 523 Q452 503 486 466 Q520 429 538.5 378 Q557 327 557 264 L557 229 L178 229 Q187 170 221 136.5 Q255 103 307 103 Q343 103 372.5 120 Q402 137 421 169 L546 129 Q528 84 492 52 Q456 20 408 2.5 Q360 -15 306 -15 Z M299 435 Q253 435 221.5 405 Q190 375 180 323 L413 323 Q405 375 374.5 405 Q344 435 299 435 Z M204 603 L318 746 L474 746 L336 603 L204 603 Z " />
<glyph glyph-name="uni00ED" unicode="&#xed;" horiz-adv-x="252" d="M56 0 L56 528 L196 528 L196 0 L56 0 Z M30 603 L144 746 L300 746 L162 603 L30 603 Z " />
<glyph glyph-name="uni013A" unicode="&#x13a;" horiz-adv-x="252" d="M56 0 L56 746 L196 746 L196 0 L56 0 Z M30 807 L144 950 L300 950 L162 807 L30 807 Z " />
<glyph glyph-name="uni0144" unicode="&#x144;" horiz-adv-x="594" d="M56 0 L56 528 L185 528 L189 460 Q212 498 252.5 520.5 Q293 543 345 543 Q403 543 446.5 515.5 Q490 488 514 437 Q538 386 538 317 L538 0 L398 0 L398 299 Q398 354 373 385.5 Q348 417 304 417 Q272 417 248 402.5 Q224 388 210 362 Q196 336 196 303 L196 0 L56 0 Z M202 603 L316 746 L472 746 L334 603 L202 603 Z " />
<glyph glyph-name="uni00F3" unicode="&#xf3;" horiz-adv-x="624" d="M310 -15 Q251 -15 201 6 Q151 27 114 64.5 Q77 102 56.5 153 Q36 204 36 264 Q36 324 57 374.5 Q78 425 115.5 463 Q153 501 203.5 522 Q254 543 314 543 Q373 543 423 522 Q473 501 510 463.5 Q547 426 567.5 375.5 Q588 325 588 265 Q588 205 567 154 Q546 103 508.5 65 Q471 27 420.5 6 Q370 -15 310 -15 Z M312 111 Q350 111 380 131 Q410 151 427.5 185.5 Q445 220 445 264 Q445 308 427.5 342.5 Q410 377 380 397 Q350 417 312 417 Q274 417 244 397 Q214 377 196.5 342.5 Q179 308 179 264 Q179 220 196.5 185.5 Q214 151 244 131 Q274 111 312 111 Z M217 603 L331 746 L487 746 L349 603 L217 603 Z " />
<glyph glyph-name="uni0155" unicode="&#x155;" horiz-adv-x="397" d="M56 0 L56 528 L185 528 L190 448 Q210 490 244 512.5 Q278 535 324 535 Q338 535 352 532.5 Q366 530 377 526 L362 388 Q351 392 339.5 393.5 Q328 395 316 395 Q258 395 227 359.5 Q196 324 196 259 L196 0 L56 0 Z M123 603 L237 746 L393 746 L255 603 L123 603 Z " />
<glyph glyph-name="uni015B" unicode="&#x15b;" horiz-adv-x="491" d="M246 -15 Q190 -15 144.5 3 Q99 21 67.5 54 Q36 87 24 132 L150 159 Q160 128 186 110 Q212 92 248 92 Q282 92 304 107 Q326 122 326 148 Q326 170 306.5 184.5 Q287 199 242 207 L214 212 Q128 227 83.5 268 Q39 309 39 372 Q39 422 65 460.5 Q91 499 137 521 Q183 543 243 543 Q296 543 339.5 525.5 Q383 508 412 476 Q441 444 452 399 L327 373 Q317 403 294.5 420 Q272 437 242 437 Q211 437 191 422 Q171 407 171 384 Q171 364 190.5 350.5 Q210 337 257 329 L285 324 Q370 309 415 267.5 Q460 226 460 162 Q460 123 444.5 91 Q429 59 400 35 Q371 11 332 -2 Q293 -15 246 -15 Z M148 603 L262 746 L418 746 L280 603 L148 603 Z " />
<glyph glyph-name="uni00FA" unicode="&#xfa;" horiz-adv-x="592" d="M294 -15 Q222 -15 168.5 15.5 Q115 46 85.5 102.5 Q56 159 56 236 L56 528 L196 528 L196 233 Q196 176 223 143.5 Q250 111 296 111 Q342 111 369 143.5 Q396 176 396 233 L396 528 L536 528 L536 236 Q536 179 519 133 Q502 87 470 54 Q438 21 393.5 3 Q349 -15 294 -15 Z M200 603 L314 746 L470 746 L332 603 L200 603 Z " />
<glyph glyph-name="uni1E83" unicode="&#x1e83;" horiz-adv-x="840" d="M186 0 L11 528 L155 528 L254 171 L361 528 L482 528 L589 170 L690 528 L829 528 L654 0 L525 0 L419 357 L313 0 L186 0 Z M325 603 L439 746 L595 746 L457 603 L325 603 Z " />
<glyph glyph-name="uni00FD" unicode="&#xfd;" horiz-adv-x="561" d="M144 -204 Q117 -204 93 -198.5 Q69 -193 48 -181 L75 -71 Q86 -76 101 -79.5 Q116 -83 129 -83 Q158 -83 179.5 -67.5 Q201 -52 215 -18 L224 5 L11 528 L164 528 L289 154 L402 528 L550 528 L333 -50 Q303 -130 256.5 -167 Q210 -204 144 -204 Z M185 603 L299 746 L455 746 L317 603 L185 603 Z " />
<glyph glyph-name="uni017A" unicode="&#x17a;" horiz-adv-x="525" d="M39 0 L39 93 L295 415 L46 415 L46 528 L469 528 L469 435 L212 113 L486 113 L486 0 L39 0 Z M162 603 L276 746 L432 746 L294 603 L162 603 Z " />
<glyph glyph-name="uni0151" unicode="&#x151;" horiz-adv-x="624" d="M310 -15 Q251 -15 201 6 Q151 27 114 64.5 Q77 102 56.5 153 Q36 204 36 264 Q36 324 57 374.5 Q78 425 115.5 463 Q153 501 203.5 522 Q254 543 314 543 Q373 543 423 522 Q473 501 510 463.5 Q547 426 567.5 375.5 Q588 325 588 265 Q588 205 567 154 Q546 103 508.5 65 Q471 27 420.5 6 Q370 -15 310 -15 Z M312 111 Q350 111 380 131 Q410 151 427.5 185.5 Q445 220 445 264 Q445 308 427.5 342.5 Q410 377 380 397 Q350 417 312 417 Q274 417 244 397 Q214 377 196.5 342.5 Q179 308 179 264 Q179 220 196.5 185.5 Q214 151 244 131 Q274 111 312 111 Z M152 603 L249 746 L381 746 L260 603 L152 603 Z M337 603 L434 746 L566 746 L445 603 L337 603 Z " />
<glyph glyph-name="uni0171" unicode="&#x171;" horiz-adv-x="592" d="M294 -15 Q222 -15 168.5 15.5 Q115 46 85.5 102.5 Q56 159 56 236 L56 528 L196 528 L196 233 Q196 176 223 143.5 Q250 111 296 111 Q342 111 369 143.5 Q396 176 396 233 L396 528 L536 528 L536 236 Q536 179 519 133 Q502 87 470 54 Q438 21 393.5 3 Q349 -15 294 -15 Z M135 603 L232 746 L364 746 L243 603 L135 603 Z M320 603 L417 746 L549 746 L428 603 L320 603 Z " />
<glyph glyph-name="uni0300" unicode="&#x300;" d="M-37 603 L-175 746 L-19 746 L95 603 L-37 603 Z " />
<glyph glyph-name="uni0060" unicode="&#x60;" horiz-adv-x="594" d="M300 603 L162 746 L318 746 L432 603 L300 603 Z " />
<glyph glyph-name="uni02CB" unicode="&#x2cb;" horiz-adv-x="594" d="M300 603 L162 746 L318 746 L432 603 L300 603 Z " />
<glyph glyph-name="uni00C0" unicode="&#xc0;" horiz-adv-x="755" d="M16 0 L298 710 L456 710 L739 0 L586 0 L528 156 L221 156 L163 0 L16 0 Z M268 282 L481 282 L374 565 L268 282 Z M345 784 L176 917 L352 917 L490 784 L345 784 Z " />
<glyph glyph-name="uni00C8" unicode="&#xc8;" horiz-adv-x="574" d="M65 0 L65 710 L510 710 L510 583 L209 583 L209 428 L478 428 L478 301 L209 301 L209 127 L520 127 L520 0 L65 0 Z M255 784 L86 917 L262 917 L400 784 L255 784 Z " />
<glyph glyph-name="uni00CC" unicode="&#xcc;" horiz-adv-x="279" d="M65 0 L65 710 L214 710 L214 0 L65 0 Z M107 784 L-62 917 L114 917 L252 784 L107 784 Z " />
<glyph glyph-name="uni00D2" unicode="&#xd2;" horiz-adv-x="820" d="M409 -20 Q346 -20 290 -2 Q234 16 188.5 49.5 Q143 83 110.5 129.5 Q78 176 60 233 Q42 290 42 354 Q42 418 60 475.5 Q78 533 111 579.5 Q144 626 189.5 659.5 Q235 693 291 711.5 Q347 730 411 730 Q474 730 530 712 Q586 694 631.5 660.5 Q677 627 709.5 580.5 Q742 534 760 477 Q778 420 778 356 Q778 292 760 234.5 Q742 177 709 130.5 Q676 84 630.5 50.5 Q585 17 529 -1.5 Q473 -20 409 -20 Z M410 117 Q456 117 495.5 134.5 Q535 152 563.5 184 Q592 216 608 259.5 Q624 303 624 355 Q624 407 608 450.5 Q592 494 563.5 526 Q535 558 495.5 575.5 Q456 593 410 593 Q364 593 324.5 575.5 Q285 558 256.5 526 Q228 494 212 450.5 Q196 407 196 355 Q196 303 212 259.5 Q228 216 256.5 184 Q285 152 324.5 134.5 Q364 117 410 117 Z M378 784 L209 917 L385 917 L523 784 L378 784 Z " />
<glyph glyph-name="uni00D9" unicode="&#xd9;" horiz-adv-x="722" d="M360 -20 Q290 -20 234 1.5 Q178 23 138 63.5 Q98 104 76.5 160.5 Q55 217 55 287 L55 710 L204 710 L204 294 Q204 240 223 200 Q242 160 277.5 138.5 Q313 117 361 117 Q409 117 444 138.5 Q479 160 498.5 200 Q518 240 518 294 L518 710 L667 710 L667 287 Q667 217 645.5 160.5 Q624 104 583.5 63.5 Q543 23 486.5 1.5 Q430 -20 360 -20 Z M329 784 L160 917 L336 917 L474 784 L329 784 Z " />
<glyph glyph-name="uni1E80" unicode="&#x1e80;" horiz-adv-x="1044" d="M1015 710 L806 0 L662 0 L523 509 L384 0 L238 0 L29 710 L185 710 L315 197 L456 710 L593 710 L734 197 L863 710 L1015 710 Z M490 784 L321 917 L497 917 L635 784 L490 784 Z " />
<glyph glyph-name="uni1EF2" unicode="&#x1ef2;" horiz-adv-x="667" d="M259 0 L259 276 L11 710 L177 710 L336 411 L494 710 L656 710 L408 276 L408 0 L259 0 Z M301 784 L132 917 L308 917 L446 784 L301 784 Z " />
<glyph glyph-name="uni00E0" unicode="&#xe0;" horiz-adv-x="560" d="M219 -15 Q178 -15 144 -3 Q110 9 84.5 31.5 Q59 54 45 84 Q31 114 31 150 Q31 200 58 238 Q85 276 134 297.5 Q183 319 248 319 Q281 319 310.5 313 Q340 307 368 296 L368 327 Q368 372 342.5 400 Q317 428 273 428 Q240 428 213 411.5 Q186 395 175 365 L50 390 Q61 436 93.5 470.5 Q126 505 173 524 Q220 543 275 543 Q326 543 368 527 Q410 511 440.5 481 Q471 451 487.5 410.5 Q504 370 504 320 L504 0 L379 0 L375 62 Q354 28 314 6.5 Q274 -15 219 -15 Z M169 157 Q169 129 192 111 Q215 93 253 93 Q286 93 312 107 Q338 121 353 145.5 Q368 170 368 200 L368 205 Q346 214 321 219.5 Q296 225 271 225 Q224 225 196.5 206.5 Q169 188 169 157 Z M241 603 L103 746 L259 746 L373 603 L241 603 Z " />
<glyph glyph-name="uni00E8" unicode="&#xe8;" horiz-adv-x="588" d="M306 -15 Q247 -15 197.5 5.5 Q148 26 112 63.5 Q76 101 56 152.5 Q36 204 36 265 Q36 324 56 375 Q76 426 111.5 463.5 Q147 501 195 522 Q243 543 299 543 Q357 543 404.5 523 Q452 503 486 466 Q520 429 538.5 378 Q557 327 557 264 L557 229 L178 229 Q187 170 221 136.5 Q255 103 307 103 Q343 103 372.5 120 Q402 137 421 169 L546 129 Q528 84 492 52 Q456 20 408 2.5 Q360 -15 306 -15 Z M299 435 Q253 435 221.5 405 Q190 375 180 323 L413 323 Q405 375 374.5 405 Q344 435 299 435 Z M262 603 L124 746 L280 746 L394 603 L262 603 Z " />
<glyph glyph-name="uni00EC" unicode="&#xec;" horiz-adv-x="252" d="M56 0 L56 528 L196 528 L196 0 L56 0 Z M88 603 L-50 746 L106 746 L220 603 L88 603 Z " />
<glyph glyph-name="uni00F2" unicode="&#xf2;" horiz-adv-x="624" d="M310 -15 Q251 -15 201 6 Q151 27 114 64.5 Q77 102 56.5 153 Q36 204 36 264 Q36 324 57 374.5 Q78 425 115.5 463 Q153 501 203.5 522 Q254 543 314 543 Q373 543 423 522 Q473 501 510 463.5 Q547 426 567.5 375.5 Q588 325 588 265 Q588 205 567 154 Q546 103 508.5 65 Q471 27 420.5 6 Q370 -15 310 -15 Z M312 111 Q350 111 380 131 Q410 151 427.5 185.5 Q445 220 445 264 Q445 308 427.5 342.5 Q410 377 380 397 Q350 417 312 417 Q274 417 244 397 Q214 377 196.5 342.5 Q179 308 179 264 Q179 220 196.5 185.5 Q214 151 244 131 Q274 111 312 111 Z M275 603 L137 746 L293 746 L407 603 L275 603 Z " />
<glyph glyph-name="uni00F9" unicode="&#xf9;" horiz-adv-x="592" d="M294 -15 Q222 -15 168.5 15.5 Q115 46 85.5 102.5 Q56 159 56 236 L56 528 L196 528 L196 233 Q196 176 223 143.5 Q250 111 296 111 Q342 111 369 143.5 Q396 176 396 233 L396 528 L536 528 L536 236 Q536 179 519 133 Q502 87 470 54 Q438 21 393.5 3 Q349 -15 294 -15 Z M258 603 L120 746 L276 746 L390 603 L258 603 Z " />
<glyph glyph-name="uni1E81" unicode="&#x1e81;" horiz-adv-x="840" d="M186 0 L11 528 L155 528 L254 171 L361 528 L482 528 L589 170 L690 528 L829 528 L654 0 L525 0 L419 357 L313 0 L186 0 Z M383 603 L245 746 L401 746 L515 603 L383 603 Z " />
<glyph glyph-name="uni1EF3" unicode="&#x1ef3;" horiz-adv-x="561" d="M144 -204 Q117 -204 93 -198.5 Q69 -193 48 -181 L75 -71 Q86 -76 101 -79.5 Q116 -83 129 -83 Q158 -83 179.5 -67.5 Q201 -52 215 -18 L224 5 L11 528 L164 528 L289 154 L402 528 L550 528 L333 -50 Q303 -130 256.5 -167 Q210 -204 144 -204 Z M243 603 L105 746 L261 746 L375 603 L243 603 Z " />
<glyph glyph-name="uni0302" unicode="&#x302;" d="M-188 603 L-55 746 L56 746 L189 603 L65 603 L-1 665 L-68 603 L-188 603 Z " />
<glyph glyph-name="uni02C6" unicode="&#x2c6;" horiz-adv-x="594" d="M108 603 L241 746 L352 746 L485 603 L361 603 L295 665 L228 603 L108 603 Z " />
<glyph glyph-name="uni0303" unicode="&#x303;" d="M66 599 Q44 599 27 606 Q10 613 -4.5 622.5 Q-19 632 -31 639 Q-43 646 -54 646 Q-66 646 -75 635 Q-84 624 -87 604 L-174 604 Q-167 670 -138 707 Q-109 744 -65 744 Q-43 744 -26 737 Q-9 730 5.5 720.5 Q20 711 32 704 Q44 697 55 697 Q67 697 76 708 Q85 719 88 739 L175 739 Q168 673 139 636 Q110 599 66 599 Z " />
<glyph glyph-name="uni02DC" unicode="&#x2dc;" horiz-adv-x="594" d="M362 599 Q340 599 323 606 Q306 613 291.5 622.5 Q277 632 265 639 Q253 646 242 646 Q230 646 221 635 Q212 624 209 604 L122 604 Q129 670 158 707 Q187 744 231 744 Q253 744 270 737 Q287 730 301.5 720.5 Q316 711 328 704 Q340 697 351 697 Q363 697 372 708 Q381 719 384 739 L471 739 Q464 673 435 636 Q406 599 362 599 Z " />
<glyph glyph-name="uni00C2" unicode="&#xc2;" horiz-adv-x="755" d="M16 0 L298 710 L456 710 L739 0 L586 0 L528 156 L221 156 L163 0 L16 0 Z M268 282 L481 282 L374 565 L268 282 Z M163 784 L310 917 L445 917 L592 784 L450 784 L376 843 L301 784 L163 784 Z " />
<glyph glyph-name="uni00CA" unicode="&#xca;" horiz-adv-x="574" d="M65 0 L65 710 L510 710 L510 583 L209 583 L209 428 L478 428 L478 301 L209 301 L209 127 L520 127 L520 0 L65 0 Z M73 784 L220 917 L355 917 L502 784 L360 784 L286 843 L211 784 L73 784 Z " />
<glyph glyph-name="uni00CE" unicode="&#xce;" horiz-adv-x="279" d="M65 0 L65 710 L214 710 L214 0 L65 0 Z M-75 784 L72 917 L207 917 L354 784 L212 784 L138 843 L63 784 L-75 784 Z " />
<glyph glyph-name="uni00D4" unicode="&#xd4;" horiz-adv-x="820" d="M409 -20 Q346 -20 290 -2 Q234 16 188.5 49.5 Q143 83 110.5 129.5 Q78 176 60 233 Q42 290 42 354 Q42 418 60 475.5 Q78 533 111 579.5 Q144 626 189.5 659.5 Q235 693 291 711.5 Q347 730 411 730 Q474 730 530 712 Q586 694 631.5 660.5 Q677 627 709.5 580.5 Q742 534 760 477 Q778 420 778 356 Q778 292 760 234.5 Q742 177 709 130.5 Q676 84 630.5 50.5 Q585 17 529 -1.5 Q473 -20 409 -20 Z M410 117 Q456 117 495.5 134.5 Q535 152 563.5 184 Q592 216 608 259.5 Q624 303 624 355 Q624 407 608 450.5 Q592 494 563.5 526 Q535 558 495.5 575.5 Q456 593 410 593 Q364 593 324.5 575.5 Q285 558 256.5 526 Q228 494 212 450.5 Q196 407 196 355 Q196 303 212 259.5 Q228 216 256.5 184 Q285 152 324.5 134.5 Q364 117 410 117 Z M196 784 L343 917 L478 917 L625 784 L483 784 L409 843 L334 784 L196 784 Z " />
<glyph glyph-name="uni00DB" unicode="&#xdb;" horiz-adv-x="722" d="M360 -20 Q290 -20 234 1.5 Q178 23 138 63.5 Q98 104 76.5 160.5 Q55 217 55 287 L55 710 L204 710 L204 294 Q204 240 223 200 Q242 160 277.5 138.5 Q313 117 361 117 Q409 117 444 138.5 Q479 160 498.5 200 Q518 240 518 294 L518 710 L667 710 L667 287 Q667 217 645.5 160.5 Q624 104 583.5 63.5 Q543 23 486.5 1.5 Q430 -20 360 -20 Z M147 784 L294 917 L429 917 L576 784 L434 784 L360 843 L285 784 L147 784 Z " />
<glyph glyph-name="uni0174" unicode="&#x174;" horiz-adv-x="1044" d="M1015 710 L806 0 L662 0 L523 509 L384 0 L238 0 L29 710 L185 710 L315 197 L456 710 L593 710 L734 197 L863 710 L1015 710 Z M308 784 L455 917 L590 917 L737 784 L595 784 L521 843 L446 784 L308 784 Z " />
<glyph glyph-name="uni0176" unicode="&#x176;" horiz-adv-x="667" d="M259 0 L259 276 L11 710 L177 710 L336 411 L494 710 L656 710 L408 276 L408 0 L259 0 Z M119 784 L266 917 L401 917 L548 784 L406 784 L332 843 L257 784 L119 784 Z " />
<glyph glyph-name="uni00C3" unicode="&#xc3;" horiz-adv-x="755" d="M16 0 L298 710 L456 710 L739 0 L586 0 L528 156 L221 156 L163 0 L16 0 Z M268 282 L481 282 L374 565 L268 282 Z M450 780 Q425 780 405.5 787.5 Q386 795 370 805 Q354 815 340 822.5 Q326 830 312 830 Q296 830 286 818.5 Q276 807 272 786 L180 786 Q185 830 202 863 Q219 896 245.5 913.5 Q272 931 306 931 Q330 931 349.5 923.5 Q369 916 385 906 Q401 896 415 888.5 Q429 881 443 881 Q458 881 468.5 892.5 Q479 904 483 925 L575 925 Q571 880 554 847.5 Q537 815 510.5 797.5 Q484 780 450 780 Z " />
<glyph glyph-name="uni0128" unicode="&#x128;" horiz-adv-x="279" d="M65 0 L65 710 L214 710 L214 0 L65 0 Z M212 780 Q187 780 167.5 787.5 Q148 795 132 805 Q116 815 102 822.5 Q88 830 74 830 Q58 830 48 818.5 Q38 807 34 786 L-58 786 Q-53 830 -36 863 Q-19 896 7.5 913.5 Q34 931 68 931 Q92 931 111.5 923.5 Q131 916 147 906 Q163 896 177 888.5 Q191 881 205 881 Q220 881 230.5 892.5 Q241 904 245 925 L337 925 Q333 880 316 847.5 Q299 815 272.5 797.5 Q246 780 212 780 Z " />
<glyph glyph-name="uni00D1" unicode="&#xd1;" horiz-adv-x="732" d="M65 0 L65 710 L194 710 L523 240 L523 710 L667 710 L667 0 L538 0 L209 470 L209 0 L65 0 Z M439 780 Q414 780 394.5 787.5 Q375 795 359 805 Q343 815 329 822.5 Q315 830 301 830 Q285 830 275 818.5 Q265 807 261 786 L169 786 Q174 830 191 863 Q208 896 234.5 913.5 Q261 931 295 931 Q319 931 338.5 923.5 Q358 916 374 906 Q390 896 404 888.5 Q418 881 432 881 Q447 881 457.5 892.5 Q468 904 472 925 L564 925 Q560 880 543 847.5 Q526 815 499.5 797.5 Q473 780 439 780 Z " />
<glyph glyph-name="uni00D5" unicode="&#xd5;" horiz-adv-x="820" d="M409 -20 Q346 -20 290 -2 Q234 16 188.5 49.5 Q143 83 110.5 129.5 Q78 176 60 233 Q42 290 42 354 Q42 418 60 475.5 Q78 533 111 579.5 Q144 626 189.5 659.5 Q235 693 291 711.5 Q347 730 411 730 Q474 730 530 712 Q586 694 631.5 660.5 Q677 627 709.5 580.5 Q742 534 760 477 Q778 420 778 356 Q778 292 760 234.5 Q742 177 709 130.5 Q676 84 630.5 50.5 Q585 17 529 -1.5 Q473 -20 409 -20 Z M410 117 Q456 117 495.5 134.5 Q535 152 563.5 184 Q592 216 608 259.5 Q624 303 624 355 Q624 407 608 450.5 Q592 494 563.5 526 Q535 558 495.5 575.5 Q456 593 410 593 Q364 593 324.5 575.5 Q285 558 256.5 526 Q228 494 212 450.5 Q196 407 196 355 Q196 303 212 259.5 Q228 216 256.5 184 Q285 152 324.5 134.5 Q364 117 410 117 Z M483 780 Q458 780 438.5 787.5 Q419 795 403 805 Q387 815 373 822.5 Q359 830 345 830 Q329 830 319 818.5 Q309 807 305 786 L213 786 Q218 830 235 863 Q252 896 278.5 913.5 Q305 931 339 931 Q363 931 382.5 923.5 Q402 916 418 906 Q434 896 448 888.5 Q462 881 476 881 Q491 881 501.5 892.5 Q512 904 516 925 L608 925 Q604 880 587 847.5 Q570 815 543.5 797.5 Q517 780 483 780 Z " />
<glyph glyph-name="uni0168" unicode="&#x168;" horiz-adv-x="722" d="M360 -20 Q290 -20 234 1.5 Q178 23 138 63.5 Q98 104 76.5 160.5 Q55 217 55 287 L55 710 L204 710 L204 294 Q204 240 223 200 Q242 160 277.5 138.5 Q313 117 361 117 Q409 117 444 138.5 Q479 160 498.5 200 Q518 240 518 294 L518 710 L667 710 L667 287 Q667 217 645.5 160.5 Q624 104 583.5 63.5 Q543 23 486.5 1.5 Q430 -20 360 -20 Z M434 780 Q409 780 389.5 787.5 Q370 795 354 805 Q338 815 324 822.5 Q310 830 296 830 Q280 830 270 818.5 Q260 807 256 786 L164 786 Q169 830 186 863 Q203 896 229.5 913.5 Q256 931 290 931 Q314 931 333.5 923.5 Q353 916 369 906 Q385 896 399 888.5 Q413 881 427 881 Q442 881 452.5 892.5 Q463 904 467 925 L559 925 Q555 880 538 847.5 Q521 815 494.5 797.5 Q468 780 434 780 Z " />
<glyph glyph-name="uni00E2" unicode="&#xe2;" horiz-adv-x="560" d="M219 -15 Q178 -15 144 -3 Q110 9 84.5 31.5 Q59 54 45 84 Q31 114 31 150 Q31 200 58 238 Q85 276 134 297.5 Q183 319 248 319 Q281 319 310.5 313 Q340 307 368 296 L368 327 Q368 372 342.5 400 Q317 428 273 428 Q240 428 213 411.5 Q186 395 175 365 L50 390 Q61 436 93.5 470.5 Q126 505 173 524 Q220 543 275 543 Q326 543 368 527 Q410 511 440.5 481 Q471 451 487.5 410.5 Q504 370 504 320 L504 0 L379 0 L375 62 Q354 28 314 6.5 Q274 -15 219 -15 Z M169 157 Q169 129 192 111 Q215 93 253 93 Q286 93 312 107 Q338 121 353 145.5 Q368 170 368 200 L368 205 Q346 214 321 219.5 Q296 225 271 225 Q224 225 196.5 206.5 Q169 188 169 157 Z M90 603 L223 746 L334 746 L467 603 L343 603 L277 665 L210 603 L90 603 Z " />
<glyph glyph-name="uni00EA" unicode="&#xea;" horiz-adv-x="588" d="M306 -15 Q247 -15 197.5 5.5 Q148 26 112 63.5 Q76 101 56 152.5 Q36 204 36 265 Q36 324 56 375 Q76 426 111.5 463.5 Q147 501 195 522 Q243 543 299 543 Q357 543 404.5 523 Q452 503 486 466 Q520 429 538.5 378 Q557 327 557 264 L557 229 L178 229 Q187 170 221 136.5 Q255 103 307 103 Q343 103 372.5 120 Q402 137 421 169 L546 129 Q528 84 492 52 Q456 20 408 2.5 Q360 -15 306 -15 Z M299 435 Q253 435 221.5 405 Q190 375 180 323 L413 323 Q405 375 374.5 405 Q344 435 299 435 Z M111 603 L244 746 L355 746 L488 603 L364 603 L298 665 L231 603 L111 603 Z " />
<glyph glyph-name="uni00EE" unicode="&#xee;" horiz-adv-x="252" d="M56 0 L56 528 L196 528 L196 0 L56 0 Z M-63 603 L70 746 L181 746 L314 603 L190 603 L124 665 L57 603 L-63 603 Z " />
<glyph glyph-name="uni00F4" unicode="&#xf4;" horiz-adv-x="624" d="M310 -15 Q251 -15 201 6 Q151 27 114 64.5 Q77 102 56.5 153 Q36 204 36 264 Q36 324 57 374.5 Q78 425 115.5 463 Q153 501 203.5 522 Q254 543 314 543 Q373 543 423 522 Q473 501 510 463.5 Q547 426 567.5 375.5 Q588 325 588 265 Q588 205 567 154 Q546 103 508.5 65 Q471 27 420.5 6 Q370 -15 310 -15 Z M312 111 Q350 111 380 131 Q410 151 427.5 185.5 Q445 220 445 264 Q445 308 427.5 342.5 Q410 377 380 397 Q350 417 312 417 Q274 417 244 397 Q214 377 196.5 342.5 Q179 308 179 264 Q179 220 196.5 185.5 Q214 151 244 131 Q274 111 312 111 Z M124 603 L257 746 L368 746 L501 603 L377 603 L311 665 L244 603 L124 603 Z " />
<glyph glyph-name="uni00FB" unicode="&#xfb;" horiz-adv-x="592" d="M294 -15 Q222 -15 168.5 15.5 Q115 46 85.5 102.5 Q56 159 56 236 L56 528 L196 528 L196 233 Q196 176 223 143.5 Q250 111 296 111 Q342 111 369 143.5 Q396 176 396 233 L396 528 L536 528 L536 236 Q536 179 519 133 Q502 87 470 54 Q438 21 393.5 3 Q349 -15 294 -15 Z M107 603 L240 746 L351 746 L484 603 L360 603 L294 665 L227 603 L107 603 Z " />
<glyph glyph-name="uni0175" unicode="&#x175;" horiz-adv-x="840" d="M186 0 L11 528 L155 528 L254 171 L361 528 L482 528 L589 170 L690 528 L829 528 L654 0 L525 0 L419 357 L313 0 L186 0 Z M232 603 L365 746 L476 746 L609 603 L485 603 L419 665 L352 603 L232 603 Z " />
<glyph glyph-name="uni0177" unicode="&#x177;" horiz-adv-x="561" d="M144 -204 Q117 -204 93 -198.5 Q69 -193 48 -181 L75 -71 Q86 -76 101 -79.5 Q116 -83 129 -83 Q158 -83 179.5 -67.5 Q201 -52 215 -18 L224 5 L11 528 L164 528 L289 154 L402 528 L550 528 L333 -50 Q303 -130 256.5 -167 Q210 -204 144 -204 Z M92 603 L225 746 L336 746 L469 603 L345 603 L279 665 L212 603 L92 603 Z " />
<glyph glyph-name="uni00E3" unicode="&#xe3;" horiz-adv-x="560" d="M219 -15 Q178 -15 144 -3 Q110 9 84.5 31.5 Q59 54 45 84 Q31 114 31 150 Q31 200 58 238 Q85 276 134 297.5 Q183 319 248 319 Q281 319 310.5 313 Q340 307 368 296 L368 327 Q368 372 342.5 400 Q317 428 273 428 Q240 428 213 411.5 Q186 395 175 365 L50 390 Q61 436 93.5 470.5 Q126 505 173 524 Q220 543 275 543 Q326 543 368 527 Q410 511 440.5 481 Q471 451 487.5 410.5 Q504 370 504 320 L504 0 L379 0 L375 62 Q354 28 314 6.5 Q274 -15 219 -15 Z M169 157 Q169 129 192 111 Q215 93 253 93 Q286 93 312 107 Q338 121 353 145.5 Q368 170 368 200 L368 205 Q346 214 321 219.5 Q296 225 271 225 Q224 225 196.5 206.5 Q169 188 169 157 Z M344 599 Q322 599 305 606 Q288 613 273.5 622.5 Q259 632 247 639 Q235 646 224 646 Q212 646 203 635 Q194 624 191 604 L104 604 Q111 670 140 707 Q169 744 213 744 Q235 744 252 737 Q269 730 283.5 720.5 Q298 711 310 704 Q322 697 333 697 Q345 697 354 708 Q363 719 366 739 L453 739 Q446 673 417 636 Q388 599 344 599 Z " />
<glyph glyph-name="uni0129" unicode="&#x129;" horiz-adv-x="252" d="M56 0 L56 528 L196 528 L196 0 L56 0 Z M191 599 Q169 599 152 606 Q135 613 120.5 622.5 Q106 632 94 639 Q82 646 71 646 Q59 646 50 635 Q41 624 38 604 L-49 604 Q-42 670 -13 707 Q16 744 60 744 Q82 744 99 737 Q116 730 130.5 720.5 Q145 711 157 704 Q169 697 180 697 Q192 697 201 708 Q210 719 213 739 L300 739 Q293 673 264 636 Q235 599 191 599 Z " />
<glyph glyph-name="uni00F1" unicode="&#xf1;" horiz-adv-x="594" d="M56 0 L56 528 L185 528 L189 460 Q212 498 252.5 520.5 Q293 543 345 543 Q403 543 446.5 515.5 Q490 488 514 437 Q538 386 538 317 L538 0 L398 0 L398 299 Q398 354 373 385.5 Q348 417 304 417 Q272 417 248 402.5 Q224 388 210 362 Q196 336 196 303 L196 0 L56 0 Z M363 599 Q341 599 324 606 Q307 613 292.5 622.5 Q278 632 266 639 Q254 646 243 646 Q231 646 222 635 Q213 624 210 604 L123 604 Q130 670 159 707 Q188 744 232 744 Q254 744 271 737 Q288 730 302.5 720.5 Q317 711 329 704 Q341 697 352 697 Q364 697 373 708 Q382 719 385 739 L472 739 Q465 673 436 636 Q407 599 363 599 Z " />
<glyph glyph-name="uni00F5" unicode="&#xf5;" horiz-adv-x="624" d="M310 -15 Q251 -15 201 6 Q151 27 114 64.5 Q77 102 56.5 153 Q36 204 36 264 Q36 324 57 374.5 Q78 425 115.5 463 Q153 501 203.5 522 Q254 543 314 543 Q373 543 423 522 Q473 501 510 463.5 Q547 426 567.5 375.5 Q588 325 588 265 Q588 205 567 154 Q546 103 508.5 65 Q471 27 420.5 6 Q370 -15 310 -15 Z M312 111 Q350 111 380 131 Q410 151 427.5 185.5 Q445 220 445 264 Q445 308 427.5 342.5 Q410 377 380 397 Q350 417 312 417 Q274 417 244 397 Q214 377 196.5 342.5 Q179 308 179 264 Q179 220 196.5 185.5 Q214 151 244 131 Q274 111 312 111 Z M378 599 Q356 599 339 606 Q322 613 307.5 622.5 Q293 632 281 639 Q269 646 258 646 Q246 646 237 635 Q228 624 225 604 L138 604 Q145 670 174 707 Q203 744 247 744 Q269 744 286 737 Q303 730 317.5 720.5 Q332 711 344 704 Q356 697 367 697 Q379 697 388 708 Q397 719 400 739 L487 739 Q480 673 451 636 Q422 599 378 599 Z " />
<glyph glyph-name="uni0169" unicode="&#x169;" horiz-adv-x="592" d="M294 -15 Q222 -15 168.5 15.5 Q115 46 85.5 102.5 Q56 159 56 236 L56 528 L196 528 L196 233 Q196 176 223 143.5 Q250 111 296 111 Q342 111 369 143.5 Q396 176 396 233 L396 528 L536 528 L536 236 Q536 179 519 133 Q502 87 470 54 Q438 21 393.5 3 Q349 -15 294 -15 Z M361 599 Q339 599 322 606 Q305 613 290.5 622.5 Q276 632 264 639 Q252 646 241 646 Q229 646 220 635 Q211 624 208 604 L121 604 Q128 670 157 707 Q186 744 230 744 Q252 744 269 737 Q286 730 300.5 720.5 Q315 711 327 704 Q339 697 350 697 Q362 697 371 708 Q380 719 383 739 L470 739 Q463 673 434 636 Q405 599 361 599 Z " />
<glyph glyph-name="uni030C" unicode="&#x30c;" d="M-55 603 L-188 746 L-64 746 L2 684 L69 746 L189 746 L56 603 L-55 603 Z " />
<glyph glyph-name="uni02C7" unicode="&#x2c7;" horiz-adv-x="594" d="M241 603 L108 746 L232 746 L298 684 L365 746 L485 746 L352 603 L241 603 Z " />
<glyph glyph-name="uni0315" unicode="&#x315;" d="M67 554 L82 746 L196 746 L149 554 L67 554 Z " />
<glyph glyph-name="uni0304" unicode="&#x304;" d="M-159 609 L-159 703 L159 703 L159 609 L-159 609 Z " />
<glyph glyph-name="uni02C9" unicode="&#x2c9;" horiz-adv-x="594" d="M138 609 L138 703 L456 703 L456 609 L138 609 Z " />
<glyph glyph-name="uni00AF" unicode="&#xaf;" horiz-adv-x="594" d="M138 609 L138 703 L456 703 L456 609 L138 609 Z " />
<glyph glyph-name="uni010C" unicode="&#x10c;" horiz-adv-x="741" d="M396 -20 Q335 -20 281 -2 Q227 16 183 49 Q139 82 107.5 127.5 Q76 173 59 229.5 Q42 286 42 350 Q42 414 59.5 471.5 Q77 529 109 576.5 Q141 624 185 658.5 Q229 693 282.5 711.5 Q336 730 396 730 Q451 730 500 715 Q549 700 589 672 Q629 644 658.5 605 Q688 566 703 517 L559 481 Q535 534 492 563.5 Q449 593 394 593 Q352 593 315.5 575 Q279 557 252.5 524.5 Q226 492 211 448 Q196 404 196 352 Q196 300 210.5 257 Q225 214 252 182.5 Q279 151 315.5 134 Q352 117 396 117 Q453 117 496.5 145.5 Q540 174 566 229 L710 193 Q689 128 643.5 80 Q598 32 535 6 Q472 -20 396 -20 Z M328 784 L181 917 L323 917 L397 858 L472 917 L610 917 L463 784 L328 784 Z " />
<glyph glyph-name="uni010E" unicode="&#x10e;" horiz-adv-x="759" d="M65 0 L65 710 L341 710 Q425 710 494 684.5 Q563 659 613 612 Q663 565 690 500 Q717 435 717 356 Q717 277 689.5 211.5 Q662 146 612 98.5 Q562 51 492.5 25.5 Q423 0 339 0 L65 0 Z M214 132 L332 132 Q403 132 455 159 Q507 186 535 236 Q563 286 563 355 Q563 424 535 474 Q507 524 455 551 Q403 578 332 578 L214 578 L214 132 Z M286 784 L139 917 L281 917 L355 858 L430 917 L568 917 L421 784 L286 784 Z " />
<glyph glyph-name="uni011A" unicode="&#x11a;" horiz-adv-x="574" d="M65 0 L65 710 L510 710 L510 583 L209 583 L209 428 L478 428 L478 301 L209 301 L209 127 L520 127 L520 0 L65 0 Z M220 784 L73 917 L215 917 L289 858 L364 917 L502 917 L355 784 L220 784 Z " />
<glyph glyph-name="uni013D" unicode="&#x13d;" horiz-adv-x="544" d="M65 0 L65 710 L214 710 L214 132 L504 132 L504 0 L65 0 Z M281 554 L296 746 L410 746 L363 554 L281 554 Z " />
<glyph glyph-name="uni0147" unicode="&#x147;" horiz-adv-x="732" d="M65 0 L65 710 L194 710 L523 240 L523 710 L667 710 L667 0 L538 0 L209 470 L209 0 L65 0 Z M299 784 L152 917 L294 917 L368 858 L443 917 L581 917 L434 784 L299 784 Z " />
<glyph glyph-name="uni0158" unicode="&#x158;" horiz-adv-x="631" d="M65 0 L65 710 L293 710 Q380 710 443.5 682.5 Q507 655 541 603.5 Q575 552 575 482 Q575 441 560 403.5 Q545 366 518 335.5 Q491 305 453 285 L614 0 L450 0 L323 246 Q304 245 282 245 Q250 245 212 251 L212 0 L65 0 Z M212 584 L212 375 Q231 372 250 370.5 Q269 369 290 369 Q354 369 389 397.5 Q424 426 424 477 Q424 528 389 556 Q354 584 290 584 L212 584 Z M221 784 L74 917 L216 917 L290 858 L365 917 L503 917 L356 784 L221 784 Z " />
<glyph glyph-name="uni0160" unicode="&#x160;" horiz-adv-x="573" d="M284 -15 Q220 -15 166.5 7.5 Q113 30 75.5 71.5 Q38 113 24 171 L163 201 Q176 160 208.5 137 Q241 114 286 114 Q318 114 342.5 125.5 Q367 137 380.5 157 Q394 177 394 203 Q394 236 369 256.5 Q344 277 288 290 L256 297 Q146 321 94 374.5 Q42 428 42 505 Q42 553 61 593 Q80 633 113.5 662.5 Q147 692 192 708.5 Q237 725 289 725 Q348 725 399 703 Q450 681 485 640 Q520 599 532 543 L395 513 Q383 553 353.5 574.5 Q324 596 285 596 Q258 596 236.5 585.5 Q215 575 202.5 556.5 Q190 538 190 515 Q190 480 217 461.5 Q244 443 297 431 L329 424 Q438 400 490.5 348 Q543 296 543 215 Q543 164 523.5 122 Q504 80 469 49 Q434 18 387 1.5 Q340 -15 284 -15 Z M221 784 L74 917 L216 917 L290 858 L365 917 L503 917 L356 784 L221 784 Z " />
<glyph glyph-name="uni0164" unicode="&#x164;" horiz-adv-x="631" d="M241 0 L241 578 L41 578 L41 710 L590 710 L590 578 L390 578 L390 0 L241 0 Z M248 784 L101 917 L243 917 L317 858 L392 917 L530 917 L383 784 L248 784 Z " />
<glyph glyph-name="uni017D" unicode="&#x17d;" horiz-adv-x="640" d="M37 0 L37 106 L398 584 L52 584 L52 710 L584 710 L584 604 L223 126 L606 126 L606 0 L37 0 Z M251 784 L104 917 L246 917 L320 858 L395 917 L533 917 L386 784 L251 784 Z " />
<glyph glyph-name="uni0100" unicode="&#x100;" horiz-adv-x="755" d="M16 0 L298 710 L456 710 L739 0 L586 0 L528 156 L221 156 L163 0 L16 0 Z M268 282 L481 282 L374 565 L268 282 Z M195 789 L195 889 L559 889 L559 789 L195 789 Z " />
<glyph glyph-name="uni0112" unicode="&#x112;" horiz-adv-x="574" d="M65 0 L65 710 L510 710 L510 583 L209 583 L209 428 L478 428 L478 301 L209 301 L209 127 L520 127 L520 0 L65 0 Z M105 789 L105 889 L469 889 L469 789 L105 789 Z " />
<glyph glyph-name="uni012A" unicode="&#x12a;" horiz-adv-x="279" d="M65 0 L65 710 L214 710 L214 0 L65 0 Z M-43 789 L-43 889 L321 889 L321 789 L-43 789 Z " />
<glyph glyph-name="uni016A" unicode="&#x16a;" horiz-adv-x="722" d="M360 -20 Q290 -20 234 1.5 Q178 23 138 63.5 Q98 104 76.5 160.5 Q55 217 55 287 L55 710 L204 710 L204 294 Q204 240 223 200 Q242 160 277.5 138.5 Q313 117 361 117 Q409 117 444 138.5 Q479 160 498.5 200 Q518 240 518 294 L518 710 L667 710 L667 287 Q667 217 645.5 160.5 Q624 104 583.5 63.5 Q543 23 486.5 1.5 Q430 -20 360 -20 Z M179 789 L179 889 L543 889 L543 789 L179 789 Z " />
<glyph glyph-name="uni010D" unicode="&#x10d;" horiz-adv-x="571" d="M301 -15 Q244 -15 195.5 5.5 Q147 26 111.5 63 Q76 100 56 150.5 Q36 201 36 260 Q36 320 56.5 371.5 Q77 423 113.5 461.5 Q150 500 199 521.5 Q248 543 305 543 Q362 543 410 521.5 Q458 500 491.5 461 Q525 422 538 370 L405 344 Q390 378 363 397.5 Q336 417 302 417 Q266 417 238.5 397 Q211 377 195 341.5 Q179 306 179 262 Q179 218 194.5 184 Q210 150 238 130.5 Q266 111 302 111 Q338 111 367 130 Q396 149 410 184 L543 158 Q530 105 494.5 66 Q459 27 409 6 Q359 -15 301 -15 Z M249 603 L116 746 L240 746 L306 684 L373 746 L493 746 L360 603 L249 603 Z " />
<glyph glyph-name="uni010F" unicode="&#x10f;" horiz-adv-x="679" d="M278 -15 Q227 -15 183 6 Q139 27 106 64.5 Q73 102 54.5 152 Q36 202 36 261 Q36 321 55 372 Q74 423 108 461.5 Q142 500 187.5 521.5 Q233 543 286 543 Q335 543 375.5 523.5 Q416 504 443 469 L443 746 L583 746 L583 0 L454 0 L450 77 Q422 34 377.5 9.5 Q333 -15 278 -15 Z M312 111 Q350 111 380 131 Q410 151 427.5 185.5 Q445 220 445 264 Q445 308 427.5 342.5 Q410 377 380 397 Q350 417 312 417 Q274 417 244 397 Q214 377 196.5 342.5 Q179 308 179 264 Q179 220 196.5 185.5 Q214 151 244 131 Q274 111 312 111 Z M650 554 L665 746 L779 746 L732 554 L650 554 Z " />
<glyph glyph-name="uni011B" unicode="&#x11b;" horiz-adv-x="588" d="M306 -15 Q247 -15 197.5 5.5 Q148 26 112 63.5 Q76 101 56 152.5 Q36 204 36 265 Q36 324 56 375 Q76 426 111.5 463.5 Q147 501 195 522 Q243 543 299 543 Q357 543 404.5 523 Q452 503 486 466 Q520 429 538.5 378 Q557 327 557 264 L557 229 L178 229 Q187 170 221 136.5 Q255 103 307 103 Q343 103 372.5 120 Q402 137 421 169 L546 129 Q528 84 492 52 Q456 20 408 2.5 Q360 -15 306 -15 Z M299 435 Q253 435 221.5 405 Q190 375 180 323 L413 323 Q405 375 374.5 405 Q344 435 299 435 Z M244 603 L111 746 L235 746 L301 684 L368 746 L488 746 L355 603 L244 603 Z " />
<glyph glyph-name="uni013E" unicode="&#x13e;" horiz-adv-x="292" d="M56 0 L56 746 L196 746 L196 0 L56 0 Z M263 554 L278 746 L392 746 L345 554 L263 554 Z " />
<glyph glyph-name="uni0148" unicode="&#x148;" horiz-adv-x="594" d="M56 0 L56 528 L185 528 L189 460 Q212 498 252.5 520.5 Q293 543 345 543 Q403 543 446.5 515.5 Q490 488 514 437 Q538 386 538 317 L538 0 L398 0 L398 299 Q398 354 373 385.5 Q348 417 304 417 Q272 417 248 402.5 Q224 388 210 362 Q196 336 196 303 L196 0 L56 0 Z M242 603 L109 746 L233 746 L299 684 L366 746 L486 746 L353 603 L242 603 Z " />
<glyph glyph-name="uni0159" unicode="&#x159;" horiz-adv-x="397" d="M56 0 L56 528 L185 528 L190 448 Q210 490 244 512.5 Q278 535 324 535 Q338 535 352 532.5 Q366 530 377 526 L362 388 Q351 392 339.5 393.5 Q328 395 316 395 Q258 395 227 359.5 Q196 324 196 259 L196 0 L56 0 Z M163 603 L30 746 L154 746 L220 684 L287 746 L407 746 L274 603 L163 603 Z " />
<glyph glyph-name="uni0161" unicode="&#x161;" horiz-adv-x="491" d="M246 -15 Q190 -15 144.5 3 Q99 21 67.5 54 Q36 87 24 132 L150 159 Q160 128 186 110 Q212 92 248 92 Q282 92 304 107 Q326 122 326 148 Q326 170 306.5 184.5 Q287 199 242 207 L214 212 Q128 227 83.5 268 Q39 309 39 372 Q39 422 65 460.5 Q91 499 137 521 Q183 543 243 543 Q296 543 339.5 525.5 Q383 508 412 476 Q441 444 452 399 L327 373 Q317 403 294.5 420 Q272 437 242 437 Q211 437 191 422 Q171 407 171 384 Q171 364 190.5 350.5 Q210 337 257 329 L285 324 Q370 309 415 267.5 Q460 226 460 162 Q460 123 444.5 91 Q429 59 400 35 Q371 11 332 -2 Q293 -15 246 -15 Z M188 603 L55 746 L179 746 L245 684 L312 746 L432 746 L299 603 L188 603 Z " />
<glyph glyph-name="uni0165" unicode="&#x165;" horiz-adv-x="438" d="M285 -15 Q230 -15 190.5 6.5 Q151 28 129.5 69 Q108 110 108 169 L108 415 L18 415 L18 528 L108 528 L108 708 L248 708 L248 528 L392 528 L392 415 L248 415 L248 186 Q248 148 264 127.5 Q280 107 313 107 Q330 107 349.5 112 Q369 117 387 125 L412 20 Q386 4 354 -5.5 Q322 -15 285 -15 Z M325 593 L337 746 L451 746 L407 593 L325 593 Z " />
<glyph glyph-name="uni017E" unicode="&#x17e;" horiz-adv-x="525" d="M39 0 L39 93 L295 415 L46 415 L46 528 L469 528 L469 435 L212 113 L486 113 L486 0 L39 0 Z M202 603 L69 746 L193 746 L259 684 L326 746 L446 746 L313 603 L202 603 Z " />
<glyph glyph-name="uni0101" unicode="&#x101;" horiz-adv-x="560" d="M219 -15 Q178 -15 144 -3 Q110 9 84.5 31.5 Q59 54 45 84 Q31 114 31 150 Q31 200 58 238 Q85 276 134 297.5 Q183 319 248 319 Q281 319 310.5 313 Q340 307 368 296 L368 327 Q368 372 342.5 400 Q317 428 273 428 Q240 428 213 411.5 Q186 395 175 365 L50 390 Q61 436 93.5 470.5 Q126 505 173 524 Q220 543 275 543 Q326 543 368 527 Q410 511 440.5 481 Q471 451 487.5 410.5 Q504 370 504 320 L504 0 L379 0 L375 62 Q354 28 314 6.5 Q274 -15 219 -15 Z M169 157 Q169 129 192 111 Q215 93 253 93 Q286 93 312 107 Q338 121 353 145.5 Q368 170 368 200 L368 205 Q346 214 321 219.5 Q296 225 271 225 Q224 225 196.5 206.5 Q169 188 169 157 Z M119 609 L119 703 L437 703 L437 609 L119 609 Z " />
<glyph glyph-name="uni0113" unicode="&#x113;" horiz-adv-x="588" d="M306 -15 Q247 -15 197.5 5.5 Q148 26 112 63.5 Q76 101 56 152.5 Q36 204 36 265 Q36 324 56 375 Q76 426 111.5 463.5 Q147 501 195 522 Q243 543 299 543 Q357 543 404.5 523 Q452 503 486 466 Q520 429 538.5 378 Q557 327 557 264 L557 229 L178 229 Q187 170 221 136.5 Q255 103 307 103 Q343 103 372.5 120 Q402 137 421 169 L546 129 Q528 84 492 52 Q456 20 408 2.5 Q360 -15 306 -15 Z M299 435 Q253 435 221.5 405 Q190 375 180 323 L413 323 Q405 375 374.5 405 Q344 435 299 435 Z M140 609 L140 703 L458 703 L458 609 L140 609 Z " />
<glyph glyph-name="uni012B" unicode="&#x12b;" horiz-adv-x="252" d="M56 0 L56 528 L196 528 L196 0 L56 0 Z M-34 609 L-34 703 L284 703 L284 609 L-34 609 Z " />
<glyph glyph-name="uni016B" unicode="&#x16b;" horiz-adv-x="592" d="M294 -15 Q222 -15 168.5 15.5 Q115 46 85.5 102.5 Q56 159 56 236 L56 528 L196 528 L196 233 Q196 176 223 143.5 Q250 111 296 111 Q342 111 369 143.5 Q396 176 396 233 L396 528 L536 528 L536 236 Q536 179 519 133 Q502 87 470 54 Q438 21 393.5 3 Q349 -15 294 -15 Z M136 609 L136 703 L454 703 L454 609 L136 609 Z " />
<glyph glyph-name="uni0308" unicode="&#x308;" d="M-107 600 Q-128 600 -145 609.5 Q-162 619 -172 635.5 Q-182 652 -182 672 Q-182 692 -172 708.5 Q-162 725 -145 734.5 Q-128 744 -107 744 Q-86 744 -69 734.5 Q-52 725 -42 708.5 Q-32 692 -32 672 Q-32 652 -42 635.5 Q-52 619 -69 609.5 Q-86 600 -107 600 Z M107 600 Q86 600 69 609.5 Q52 619 42 635.5 Q32 652 32 672 Q32 692 42 708.5 Q52 725 69 734.5 Q86 744 107 744 Q128 744 145 734.5 Q162 725 172 708.5 Q182 692 182 672 Q182 652 172 635.5 Q162 619 145 609.5 Q128 600 107 600 Z " />
<glyph glyph-name="uni00A8" unicode="&#xa8;" horiz-adv-x="594" d="M190 600 Q169 600 152 609.5 Q135 619 125 635.5 Q115 652 115 672 Q115 692 125 708.5 Q135 725 152 734.5 Q169 744 190 744 Q211 744 228 734.5 Q245 725 255 708.5 Q265 692 265 672 Q265 652 255 635.5 Q245 619 228 609.5 Q211 600 190 600 Z M404 600 Q383 600 366 609.5 Q349 619 339 635.5 Q329 652 329 672 Q329 692 339 708.5 Q349 725 366 734.5 Q383 744 404 744 Q425 744 442 734.5 Q459 725 469 708.5 Q479 692 479 672 Q479 652 469 635.5 Q459 619 442 609.5 Q425 600 404 600 Z " />
<glyph glyph-name="uni0306" unicode="&#x306;" d="M0 601 Q-46 601 -82 618 Q-118 635 -141.5 666 Q-165 697 -172 739 L-68 739 Q-62 712 -44 698 Q-26 684 0 684 Q26 684 43.5 698 Q61 712 68 739 L172 739 Q165 697 141.5 666 Q118 635 82 618 Q46 601 0 601 Z " />
<glyph glyph-name="uni02D8" unicode="&#x2d8;" horiz-adv-x="594" d="M297 601 Q251 601 215 618 Q179 635 155.5 666 Q132 697 125 739 L229 739 Q235 712 253 698 Q271 684 297 684 Q323 684 340.5 698 Q358 712 365 739 L469 739 Q462 697 438.5 666 Q415 635 379 618 Q343 601 297 601 Z " />
<glyph glyph-name="uni00C4" unicode="&#xc4;" horiz-adv-x="755" d="M16 0 L298 710 L456 710 L739 0 L586 0 L528 156 L221 156 L163 0 L16 0 Z M268 282 L481 282 L374 565 L268 282 Z M256 773 Q234 773 216.5 783.5 Q199 794 188.5 811 Q178 828 178 849 Q178 870 188.5 887 Q199 904 216.5 914.5 Q234 925 256 925 Q278 925 295.5 914.5 Q313 904 323.5 887 Q334 870 334 849 Q334 828 323.5 811 Q313 794 295.5 783.5 Q278 773 256 773 Z M498 773 Q476 773 458.5 783.5 Q441 794 430.5 811 Q420 828 420 849 Q420 870 430.5 887 Q441 904 458.5 914.5 Q476 925 498 925 Q520 925 537.5 914.5 Q555 904 565.5 887 Q576 870 576 849 Q576 828 565.5 811 Q555 794 537.5 783.5 Q520 773 498 773 Z " />
<glyph glyph-name="uni00CB" unicode="&#xcb;" horiz-adv-x="574" d="M65 0 L65 710 L510 710 L510 583 L209 583 L209 428 L478 428 L478 301 L209 301 L209 127 L520 127 L520 0 L65 0 Z M166 773 Q144 773 126.5 783.5 Q109 794 98.5 811 Q88 828 88 849 Q88 870 98.5 887 Q109 904 126.5 914.5 Q144 925 166 925 Q188 925 205.5 914.5 Q223 904 233.5 887 Q244 870 244 849 Q244 828 233.5 811 Q223 794 205.5 783.5 Q188 773 166 773 Z M408 773 Q386 773 368.5 783.5 Q351 794 340.5 811 Q330 828 330 849 Q330 870 340.5 887 Q351 904 368.5 914.5 Q386 925 408 925 Q430 925 447.5 914.5 Q465 904 475.5 887 Q486 870 486 849 Q486 828 475.5 811 Q465 794 447.5 783.5 Q430 773 408 773 Z " />
<glyph glyph-name="uni00CF" unicode="&#xcf;" horiz-adv-x="279" d="M65 0 L65 710 L214 710 L214 0 L65 0 Z M18 773 Q-4 773 -21.5 783.5 Q-39 794 -49.5 811 Q-60 828 -60 849 Q-60 870 -49.5 887 Q-39 904 -21.5 914.5 Q-4 925 18 925 Q40 925 57.5 914.5 Q75 904 85.5 887 Q96 870 96 849 Q96 828 85.5 811 Q75 794 57.5 783.5 Q40 773 18 773 Z M260 773 Q238 773 220.5 783.5 Q203 794 192.5 811 Q182 828 182 849 Q182 870 192.5 887 Q203 904 220.5 914.5 Q238 925 260 925 Q282 925 299.5 914.5 Q317 904 327.5 887 Q338 870 338 849 Q338 828 327.5 811 Q317 794 299.5 783.5 Q282 773 260 773 Z " />
<glyph glyph-name="uni00D6" unicode="&#xd6;" horiz-adv-x="820" d="M409 -20 Q346 -20 290 -2 Q234 16 188.5 49.5 Q143 83 110.5 129.5 Q78 176 60 233 Q42 290 42 354 Q42 418 60 475.5 Q78 533 111 579.5 Q144 626 189.5 659.5 Q235 693 291 711.5 Q347 730 411 730 Q474 730 530 712 Q586 694 631.5 660.5 Q677 627 709.5 580.5 Q742 534 760 477 Q778 420 778 356 Q778 292 760 234.5 Q742 177 709 130.5 Q676 84 630.5 50.5 Q585 17 529 -1.5 Q473 -20 409 -20 Z M410 117 Q456 117 495.5 134.5 Q535 152 563.5 184 Q592 216 608 259.5 Q624 303 624 355 Q624 407 608 450.5 Q592 494 563.5 526 Q535 558 495.5 575.5 Q456 593 410 593 Q364 593 324.5 575.5 Q285 558 256.5 526 Q228 494 212 450.5 Q196 407 196 355 Q196 303 212 259.5 Q228 216 256.5 184 Q285 152 324.5 134.5 Q364 117 410 117 Z M289 773 Q267 773 249.5 783.5 Q232 794 221.5 811 Q211 828 211 849 Q211 870 221.5 887 Q232 904 249.5 914.5 Q267 925 289 925 Q311 925 328.5 914.5 Q346 904 356.5 887 Q367 870 367 849 Q367 828 356.5 811 Q346 794 328.5 783.5 Q311 773 289 773 Z M531 773 Q509 773 491.5 783.5 Q474 794 463.5 811 Q453 828 453 849 Q453 870 463.5 887 Q474 904 491.5 914.5 Q509 925 531 925 Q553 925 570.5 914.5 Q588 904 598.5 887 Q609 870 609 849 Q609 828 598.5 811 Q588 794 570.5 783.5 Q553 773 531 773 Z " />
<glyph glyph-name="uni00DC" unicode="&#xdc;" horiz-adv-x="722" d="M360 -20 Q290 -20 234 1.5 Q178 23 138 63.5 Q98 104 76.5 160.5 Q55 217 55 287 L55 710 L204 710 L204 294 Q204 240 223 200 Q242 160 277.5 138.5 Q313 117 361 117 Q409 117 444 138.5 Q479 160 498.5 200 Q518 240 518 294 L518 710 L667 710 L667 287 Q667 217 645.5 160.5 Q624 104 583.5 63.5 Q543 23 486.5 1.5 Q430 -20 360 -20 Z M240 773 Q218 773 200.5 783.5 Q183 794 172.5 811 Q162 828 162 849 Q162 870 172.5 887 Q183 904 200.5 914.5 Q218 925 240 925 Q262 925 279.5 914.5 Q297 904 307.5 887 Q318 870 318 849 Q318 828 307.5 811 Q297 794 279.5 783.5 Q262 773 240 773 Z M482 773 Q460 773 442.5 783.5 Q425 794 414.5 811 Q404 828 404 849 Q404 870 414.5 887 Q425 904 442.5 914.5 Q460 925 482 925 Q504 925 521.5 914.5 Q539 904 549.5 887 Q560 870 560 849 Q560 828 549.5 811 Q539 794 521.5 783.5 Q504 773 482 773 Z " />
<glyph glyph-name="uni1E84" unicode="&#x1e84;" horiz-adv-x="1044" d="M1015 710 L806 0 L662 0 L523 509 L384 0 L238 0 L29 710 L185 710 L315 197 L456 710 L593 710 L734 197 L863 710 L1015 710 Z M401 773 Q379 773 361.5 783.5 Q344 794 333.5 811 Q323 828 323 849 Q323 870 333.5 887 Q344 904 361.5 914.5 Q379 925 401 925 Q423 925 440.5 914.5 Q458 904 468.5 887 Q479 870 479 849 Q479 828 468.5 811 Q458 794 440.5 783.5 Q423 773 401 773 Z M643 773 Q621 773 603.5 783.5 Q586 794 575.5 811 Q565 828 565 849 Q565 870 575.5 887 Q586 904 603.5 914.5 Q621 925 643 925 Q665 925 682.5 914.5 Q700 904 710.5 887 Q721 870 721 849 Q721 828 710.5 811 Q700 794 682.5 783.5 Q665 773 643 773 Z " />
<glyph glyph-name="uni0178" unicode="&#x178;" horiz-adv-x="667" d="M259 0 L259 276 L11 710 L177 710 L336 411 L494 710 L656 710 L408 276 L408 0 L259 0 Z M212 773 Q190 773 172.5 783.5 Q155 794 144.5 811 Q134 828 134 849 Q134 870 144.5 887 Q155 904 172.5 914.5 Q190 925 212 925 Q234 925 251.5 914.5 Q269 904 279.5 887 Q290 870 290 849 Q290 828 279.5 811 Q269 794 251.5 783.5 Q234 773 212 773 Z M454 773 Q432 773 414.5 783.5 Q397 794 386.5 811 Q376 828 376 849 Q376 870 386.5 887 Q397 904 414.5 914.5 Q432 925 454 925 Q476 925 493.5 914.5 Q511 904 521.5 887 Q532 870 532 849 Q532 828 521.5 811 Q511 794 493.5 783.5 Q476 773 454 773 Z " />
<glyph glyph-name="uni0102" unicode="&#x102;" horiz-adv-x="755" d="M16 0 L298 710 L456 710 L739 0 L586 0 L528 156 L221 156 L163 0 L16 0 Z M268 282 L481 282 L374 565 L268 282 Z M377 779 Q329 779 289.5 796.5 Q250 814 224.5 847 Q199 880 192 924 L302 924 Q309 896 329 880.5 Q349 865 377 865 Q405 865 425 880.5 Q445 896 452 924 L562 924 Q555 880 529.5 847 Q504 814 464.5 796.5 Q425 779 377 779 Z " />
<glyph glyph-name="uni011E" unicode="&#x11e;" horiz-adv-x="794" d="M408 -20 Q345 -20 289.5 -2 Q234 16 188.5 49.5 Q143 83 110.5 129 Q78 175 60 231.5 Q42 288 42 353 Q42 418 60 475 Q78 532 111 579 Q144 626 190 659.5 Q236 693 291.5 711.5 Q347 730 410 730 Q481 730 542 707 Q603 684 649.5 641 Q696 598 722 537 L578 493 Q551 541 508.5 567 Q466 593 410 593 Q364 593 325 575.5 Q286 558 257 525.5 Q228 493 212 450 Q196 407 196 356 Q196 304 212 260 Q228 216 257.5 184 Q287 152 327 134.5 Q367 117 415 117 Q466 117 506 136 Q546 155 571 189 Q596 223 602 269 L425 269 L425 392 L755 392 L755 317 Q755 243 729.5 181 Q704 119 658 74 Q612 29 548 4.5 Q484 -20 408 -20 Z M416 779 Q368 779 328.5 796.5 Q289 814 263.5 847 Q238 880 231 924 L341 924 Q348 896 368 880.5 Q388 865 416 865 Q444 865 464 880.5 Q484 896 491 924 L601 924 Q594 880 568.5 847 Q543 814 503.5 796.5 Q464 779 416 779 Z " />
<glyph glyph-name="uni00E4" unicode="&#xe4;" horiz-adv-x="560" d="M219 -15 Q178 -15 144 -3 Q110 9 84.5 31.5 Q59 54 45 84 Q31 114 31 150 Q31 200 58 238 Q85 276 134 297.5 Q183 319 248 319 Q281 319 310.5 313 Q340 307 368 296 L368 327 Q368 372 342.5 400 Q317 428 273 428 Q240 428 213 411.5 Q186 395 175 365 L50 390 Q61 436 93.5 470.5 Q126 505 173 524 Q220 543 275 543 Q326 543 368 527 Q410 511 440.5 481 Q471 451 487.5 410.5 Q504 370 504 320 L504 0 L379 0 L375 62 Q354 28 314 6.5 Q274 -15 219 -15 Z M169 157 Q169 129 192 111 Q215 93 253 93 Q286 93 312 107 Q338 121 353 145.5 Q368 170 368 200 L368 205 Q346 214 321 219.5 Q296 225 271 225 Q224 225 196.5 206.5 Q169 188 169 157 Z M171 600 Q150 600 133 609.5 Q116 619 106 635.5 Q96 652 96 672 Q96 692 106 708.5 Q116 725 133 734.5 Q150 744 171 744 Q192 744 209 734.5 Q226 725 236 708.5 Q246 692 246 672 Q246 652 236 635.5 Q226 619 209 609.5 Q192 600 171 600 Z M385 600 Q364 600 347 609.5 Q330 619 320 635.5 Q310 652 310 672 Q310 692 320 708.5 Q330 725 347 734.5 Q364 744 385 744 Q406 744 423 734.5 Q440 725 450 708.5 Q460 692 460 672 Q460 652 450 635.5 Q440 619 423 609.5 Q406 600 385 600 Z " />
<glyph glyph-name="uni00EB" unicode="&#xeb;" horiz-adv-x="588" d="M306 -15 Q247 -15 197.5 5.5 Q148 26 112 63.5 Q76 101 56 152.5 Q36 204 36 265 Q36 324 56 375 Q76 426 111.5 463.5 Q147 501 195 522 Q243 543 299 543 Q357 543 404.5 523 Q452 503 486 466 Q520 429 538.5 378 Q557 327 557 264 L557 229 L178 229 Q187 170 221 136.5 Q255 103 307 103 Q343 103 372.5 120 Q402 137 421 169 L546 129 Q528 84 492 52 Q456 20 408 2.5 Q360 -15 306 -15 Z M299 435 Q253 435 221.5 405 Q190 375 180 323 L413 323 Q405 375 374.5 405 Q344 435 299 435 Z M192 600 Q171 600 154 609.5 Q137 619 127 635.5 Q117 652 117 672 Q117 692 127 708.5 Q137 725 154 734.5 Q171 744 192 744 Q213 744 230 734.5 Q247 725 257 708.5 Q267 692 267 672 Q267 652 257 635.5 Q247 619 230 609.5 Q213 600 192 600 Z M406 600 Q385 600 368 609.5 Q351 619 341 635.5 Q331 652 331 672 Q331 692 341 708.5 Q351 725 368 734.5 Q385 744 406 744 Q427 744 444 734.5 Q461 725 471 708.5 Q481 692 481 672 Q481 652 471 635.5 Q461 619 444 609.5 Q427 600 406 600 Z " />
<glyph glyph-name="uni00EF" unicode="&#xef;" horiz-adv-x="252" d="M56 0 L56 528 L196 528 L196 0 L56 0 Z M18 600 Q-3 600 -20 609.5 Q-37 619 -47 635.5 Q-57 652 -57 672 Q-57 692 -47 708.5 Q-37 725 -20 734.5 Q-3 744 18 744 Q39 744 56 734.5 Q73 725 83 708.5 Q93 692 93 672 Q93 652 83 635.5 Q73 619 56 609.5 Q39 600 18 600 Z M232 600 Q211 600 194 609.5 Q177 619 167 635.5 Q157 652 157 672 Q157 692 167 708.5 Q177 725 194 734.5 Q211 744 232 744 Q253 744 270 734.5 Q287 725 297 708.5 Q307 692 307 672 Q307 652 297 635.5 Q287 619 270 609.5 Q253 600 232 600 Z " />
<glyph glyph-name="uni00F6" unicode="&#xf6;" horiz-adv-x="624" d="M310 -15 Q251 -15 201 6 Q151 27 114 64.5 Q77 102 56.5 153 Q36 204 36 264 Q36 324 57 374.5 Q78 425 115.5 463 Q153 501 203.5 522 Q254 543 314 543 Q373 543 423 522 Q473 501 510 463.5 Q547 426 567.5 375.5 Q588 325 588 265 Q588 205 567 154 Q546 103 508.5 65 Q471 27 420.5 6 Q370 -15 310 -15 Z M312 111 Q350 111 380 131 Q410 151 427.5 185.5 Q445 220 445 264 Q445 308 427.5 342.5 Q410 377 380 397 Q350 417 312 417 Q274 417 244 397 Q214 377 196.5 342.5 Q179 308 179 264 Q179 220 196.5 185.5 Q214 151 244 131 Q274 111 312 111 Z M205 600 Q184 600 167 609.5 Q150 619 140 635.5 Q130 652 130 672 Q130 692 140 708.5 Q150 725 167 734.5 Q184 744 205 744 Q226 744 243 734.5 Q260 725 270 708.5 Q280 692 280 672 Q280 652 270 635.5 Q260 619 243 609.5 Q226 600 205 600 Z M419 600 Q398 600 381 609.5 Q364 619 354 635.5 Q344 652 344 672 Q344 692 354 708.5 Q364 725 381 734.5 Q398 744 419 744 Q440 744 457 734.5 Q474 725 484 708.5 Q494 692 494 672 Q494 652 484 635.5 Q474 619 457 609.5 Q440 600 419 600 Z " />
<glyph glyph-name="uni00FC" unicode="&#xfc;" horiz-adv-x="592" d="M294 -15 Q222 -15 168.5 15.5 Q115 46 85.5 102.5 Q56 159 56 236 L56 528 L196 528 L196 233 Q196 176 223 143.5 Q250 111 296 111 Q342 111 369 143.5 Q396 176 396 233 L396 528 L536 528 L536 236 Q536 179 519 133 Q502 87 470 54 Q438 21 393.5 3 Q349 -15 294 -15 Z M188 600 Q167 600 150 609.5 Q133 619 123 635.5 Q113 652 113 672 Q113 692 123 708.5 Q133 725 150 734.5 Q167 744 188 744 Q209 744 226 734.5 Q243 725 253 708.5 Q263 692 263 672 Q263 652 253 635.5 Q243 619 226 609.5 Q209 600 188 600 Z M402 600 Q381 600 364 609.5 Q347 619 337 635.5 Q327 652 327 672 Q327 692 337 708.5 Q347 725 364 734.5 Q381 744 402 744 Q423 744 440 734.5 Q457 725 467 708.5 Q477 692 477 672 Q477 652 467 635.5 Q457 619 440 609.5 Q423 600 402 600 Z " />
<glyph glyph-name="uni1E85" unicode="&#x1e85;" horiz-adv-x="840" d="M186 0 L11 528 L155 528 L254 171 L361 528 L482 528 L589 170 L690 528 L829 528 L654 0 L525 0 L419 357 L313 0 L186 0 Z M313 600 Q292 600 275 609.5 Q258 619 248 635.5 Q238 652 238 672 Q238 692 248 708.5 Q258 725 275 734.5 Q292 744 313 744 Q334 744 351 734.5 Q368 725 378 708.5 Q388 692 388 672 Q388 652 378 635.5 Q368 619 351 609.5 Q334 600 313 600 Z M527 600 Q506 600 489 609.5 Q472 619 462 635.5 Q452 652 452 672 Q452 692 462 708.5 Q472 725 489 734.5 Q506 744 527 744 Q548 744 565 734.5 Q582 725 592 708.5 Q602 692 602 672 Q602 652 592 635.5 Q582 619 565 609.5 Q548 600 527 600 Z " />
<glyph glyph-name="uni00FF" unicode="&#xff;" horiz-adv-x="561" d="M144 -204 Q117 -204 93 -198.5 Q69 -193 48 -181 L75 -71 Q86 -76 101 -79.5 Q116 -83 129 -83 Q158 -83 179.5 -67.5 Q201 -52 215 -18 L224 5 L11 528 L164 528 L289 154 L402 528 L550 528 L333 -50 Q303 -130 256.5 -167 Q210 -204 144 -204 Z M173 600 Q152 600 135 609.5 Q118 619 108 635.5 Q98 652 98 672 Q98 692 108 708.5 Q118 725 135 734.5 Q152 744 173 744 Q194 744 211 734.5 Q228 725 238 708.5 Q248 692 248 672 Q248 652 238 635.5 Q228 619 211 609.5 Q194 600 173 600 Z M387 600 Q366 600 349 609.5 Q332 619 322 635.5 Q312 652 312 672 Q312 692 322 708.5 Q332 725 349 734.5 Q366 744 387 744 Q408 744 425 734.5 Q442 725 452 708.5 Q462 692 462 672 Q462 652 452 635.5 Q442 619 425 609.5 Q408 600 387 600 Z " />
<glyph glyph-name="uni0103" unicode="&#x103;" horiz-adv-x="560" d="M219 -15 Q178 -15 144 -3 Q110 9 84.5 31.5 Q59 54 45 84 Q31 114 31 150 Q31 200 58 238 Q85 276 134 297.5 Q183 319 248 319 Q281 319 310.5 313 Q340 307 368 296 L368 327 Q368 372 342.5 400 Q317 428 273 428 Q240 428 213 411.5 Q186 395 175 365 L50 390 Q61 436 93.5 470.5 Q126 505 173 524 Q220 543 275 543 Q326 543 368 527 Q410 511 440.5 481 Q471 451 487.5 410.5 Q504 370 504 320 L504 0 L379 0 L375 62 Q354 28 314 6.5 Q274 -15 219 -15 Z M169 157 Q169 129 192 111 Q215 93 253 93 Q286 93 312 107 Q338 121 353 145.5 Q368 170 368 200 L368 205 Q346 214 321 219.5 Q296 225 271 225 Q224 225 196.5 206.5 Q169 188 169 157 Z M278 601 Q232 601 196 618 Q160 635 136.5 666 Q113 697 106 739 L210 739 Q216 712 234 698 Q252 684 278 684 Q304 684 321.5 698 Q339 712 346 739 L450 739 Q443 697 419.5 666 Q396 635 360 618 Q324 601 278 601 Z " />
<glyph glyph-name="uni011F" unicode="&#x11f;" horiz-adv-x="629" d="M273 15 Q223 15 179.5 35 Q136 55 104 90.5 Q72 126 54 173.5 Q36 221 36 276 Q36 333 54.5 381.5 Q73 430 106.5 466 Q140 502 184.5 522.5 Q229 543 281 543 Q332 543 373 522.5 Q414 502 441 463 L444 528 L573 528 L573 63 Q573 2 553.5 -48 Q534 -98 498 -134 Q462 -170 412.5 -189.5 Q363 -209 303 -209 Q244 -209 197 -190.5 Q150 -172 115 -139 Q80 -106 60 -62 L194 -29 Q212 -58 240.5 -74.5 Q269 -91 305 -91 Q344 -91 372.5 -73.5 Q401 -56 417 -24.5 Q433 7 433 49 L433 92 Q406 56 364.5 35.5 Q323 15 273 15 Z M307 139 Q344 139 372.5 157.5 Q401 176 418 207.5 Q435 239 435 279 Q435 319 418 350.5 Q401 382 372.5 400.5 Q344 419 307 419 Q270 419 241.5 400.5 Q213 382 196 350.5 Q179 319 179 279 Q179 239 196 207.5 Q213 176 241.5 157.5 Q270 139 307 139 Z M303 601 Q257 601 221 618 Q185 635 161.5 666 Q138 697 131 739 L235 739 Q241 712 259 698 Q277 684 303 684 Q329 684 346.5 698 Q364 712 371 739 L475 739 Q468 697 444.5 666 Q421 635 385 618 Q349 601 303 601 Z " />
<glyph glyph-name="uni0307" unicode="&#x307;" d="M80 671 Q80 648 69.5 630 Q59 612 40.5 601.5 Q22 591 0 591 Q-22 591 -40.5 601.5 Q-59 612 -69.5 630 Q-80 648 -80 671 Q-80 694 -69.5 712 Q-59 730 -40.5 740.5 Q-22 751 0 751 Q22 751 40.5 740.5 Q59 730 69.5 712 Q80 694 80 671 Z " />
<glyph glyph-name="uni02D9" unicode="&#x2d9;" horiz-adv-x="594" d="M377 671 Q377 648 366.5 630 Q356 612 337.5 601.5 Q319 591 297 591 Q275 591 256.5 601.5 Q238 612 227.5 630 Q217 648 217 671 Q217 694 227.5 712 Q238 730 256.5 740.5 Q275 751 297 751 Q319 751 337.5 740.5 Q356 730 366.5 712 Q377 694 377 671 Z " />
<glyph glyph-name="uni0323" unicode="&#x323;" d="M80 -146 Q80 -168 69.5 -186.5 Q59 -205 40.5 -215.5 Q22 -226 0 -226 Q-22 -226 -40.5 -215.5 Q-59 -205 -69.5 -186.5 Q-80 -168 -80 -146 Q-80 -124 -69.5 -105.5 Q-59 -87 -40.5 -76.5 Q-22 -66 0 -66 Q22 -66 40.5 -76.5 Q59 -87 69.5 -105.5 Q80 -124 80 -146 Z " />
<glyph glyph-name="uni0116" unicode="&#x116;" horiz-adv-x="574" d="M65 0 L65 710 L510 710 L510 583 L209 583 L209 428 L478 428 L478 301 L209 301 L209 127 L520 127 L520 0 L65 0 Z M287 773 Q263 773 244.5 784 Q226 795 215 813.5 Q204 832 204 855 Q204 878 215 896.5 Q226 915 244.5 926 Q263 937 287 937 Q311 937 329.5 926 Q348 915 359 896.5 Q370 878 370 855 Q370 832 359 813.5 Q348 795 329.5 784 Q311 773 287 773 Z " />
<glyph glyph-name="uni0130" unicode="&#x130;" horiz-adv-x="279" d="M65 0 L65 710 L214 710 L214 0 L65 0 Z M139 773 Q115 773 96.5 784 Q78 795 67 813.5 Q56 832 56 855 Q56 878 67 896.5 Q78 915 96.5 926 Q115 937 139 937 Q163 937 181.5 926 Q200 915 211 896.5 Q222 878 222 855 Q222 832 211 813.5 Q200 795 181.5 784 Q163 773 139 773 Z " />
<glyph glyph-name="uni010A" unicode="&#x10a;" horiz-adv-x="741" d="M396 -20 Q335 -20 281 -2 Q227 16 183 49 Q139 82 107.5 127.5 Q76 173 59 229.5 Q42 286 42 350 Q42 414 59.5 471.5 Q77 529 109 576.5 Q141 624 185 658.5 Q229 693 282.5 711.5 Q336 730 396 730 Q451 730 500 715 Q549 700 589 672 Q629 644 658.5 605 Q688 566 703 517 L559 481 Q535 534 492 563.5 Q449 593 394 593 Q352 593 315.5 575 Q279 557 252.5 524.5 Q226 492 211 448 Q196 404 196 352 Q196 300 210.5 257 Q225 214 252 182.5 Q279 151 315.5 134 Q352 117 396 117 Q453 117 496.5 145.5 Q540 174 566 229 L710 193 Q689 128 643.5 80 Q598 32 535 6 Q472 -20 396 -20 Z M395 773 Q371 773 352.5 784 Q334 795 323 813.5 Q312 832 312 855 Q312 878 323 896.5 Q334 915 352.5 926 Q371 937 395 937 Q419 937 437.5 926 Q456 915 467 896.5 Q478 878 478 855 Q478 832 467 813.5 Q456 795 437.5 784 Q419 773 395 773 Z " />
<glyph glyph-name="uni0120" unicode="&#x120;" horiz-adv-x="794" d="M408 -20 Q345 -20 289.5 -2 Q234 16 188.5 49.5 Q143 83 110.5 129 Q78 175 60 231.5 Q42 288 42 353 Q42 418 60 475 Q78 532 111 579 Q144 626 190 659.5 Q236 693 291.5 711.5 Q347 730 410 730 Q481 730 542 707 Q603 684 649.5 641 Q696 598 722 537 L578 493 Q551 541 508.5 567 Q466 593 410 593 Q364 593 325 575.5 Q286 558 257 525.5 Q228 493 212 450 Q196 407 196 356 Q196 304 212 260 Q228 216 257.5 184 Q287 152 327 134.5 Q367 117 415 117 Q466 117 506 136 Q546 155 571 189 Q596 223 602 269 L425 269 L425 392 L755 392 L755 317 Q755 243 729.5 181 Q704 119 658 74 Q612 29 548 4.5 Q484 -20 408 -20 Z M416 773 Q392 773 373.5 784 Q355 795 344 813.5 Q333 832 333 855 Q333 878 344 896.5 Q355 915 373.5 926 Q392 937 416 937 Q440 937 458.5 926 Q477 915 488 896.5 Q499 878 499 855 Q499 832 488 813.5 Q477 795 458.5 784 Q440 773 416 773 Z " />
<glyph glyph-name="uni017B" unicode="&#x17b;" horiz-adv-x="640" d="M37 0 L37 106 L398 584 L52 584 L52 710 L584 710 L584 604 L223 126 L606 126 L606 0 L37 0 Z M318 773 Q294 773 275.5 784 Q257 795 246 813.5 Q235 832 235 855 Q235 878 246 896.5 Q257 915 275.5 926 Q294 937 318 937 Q342 937 360.5 926 Q379 915 390 896.5 Q401 878 401 855 Q401 832 390 813.5 Q379 795 360.5 784 Q342 773 318 773 Z " />
<glyph glyph-name="uni1E24" unicode="&#x1e24;" horiz-adv-x="742" d="M65 0 L65 710 L214 710 L214 433 L528 433 L528 710 L677 710 L677 0 L528 0 L528 301 L214 301 L214 0 L65 0 Z M371 -235 Q347 -235 328.5 -224 Q310 -213 299 -194.5 Q288 -176 288 -153 Q288 -130 299 -111.5 Q310 -93 328.5 -82 Q347 -71 371 -71 Q395 -71 413.5 -82 Q432 -93 443 -111.5 Q454 -130 454 -153 Q454 -176 443 -194.5 Q432 -213 413.5 -224 Q395 -235 371 -235 Z " />
<glyph glyph-name="uni1E36" unicode="&#x1e36;" horiz-adv-x="544" d="M65 0 L65 710 L214 710 L214 132 L504 132 L504 0 L65 0 Z M284 -235 Q260 -235 241.5 -224 Q223 -213 212 -194.5 Q201 -176 201 -153 Q201 -130 212 -111.5 Q223 -93 241.5 -82 Q260 -71 284 -71 Q308 -71 326.5 -82 Q345 -93 356 -111.5 Q367 -130 367 -153 Q367 -176 356 -194.5 Q345 -213 326.5 -224 Q308 -235 284 -235 Z " />
<glyph glyph-name="uni0117" unicode="&#x117;" horiz-adv-x="588" d="M306 -15 Q247 -15 197.5 5.5 Q148 26 112 63.5 Q76 101 56 152.5 Q36 204 36 265 Q36 324 56 375 Q76 426 111.5 463.5 Q147 501 195 522 Q243 543 299 543 Q357 543 404.5 523 Q452 503 486 466 Q520 429 538.5 378 Q557 327 557 264 L557 229 L178 229 Q187 170 221 136.5 Q255 103 307 103 Q343 103 372.5 120 Q402 137 421 169 L546 129 Q528 84 492 52 Q456 20 408 2.5 Q360 -15 306 -15 Z M299 435 Q253 435 221.5 405 Q190 375 180 323 L413 323 Q405 375 374.5 405 Q344 435 299 435 Z M379 671 Q379 648 368.5 630 Q358 612 339.5 601.5 Q321 591 299 591 Q277 591 258.5 601.5 Q240 612 229.5 630 Q219 648 219 671 Q219 694 229.5 712 Q240 730 258.5 740.5 Q277 751 299 751 Q321 751 339.5 740.5 Q358 730 368.5 712 Q379 694 379 671 Z " />
<glyph glyph-name="uni010B" unicode="&#x10b;" horiz-adv-x="571" d="M301 -15 Q244 -15 195.5 5.5 Q147 26 111.5 63 Q76 100 56 150.5 Q36 201 36 260 Q36 320 56.5 371.5 Q77 423 113.5 461.5 Q150 500 199 521.5 Q248 543 305 543 Q362 543 410 521.5 Q458 500 491.5 461 Q525 422 538 370 L405 344 Q390 378 363 397.5 Q336 417 302 417 Q266 417 238.5 397 Q211 377 195 341.5 Q179 306 179 262 Q179 218 194.5 184 Q210 150 238 130.5 Q266 111 302 111 Q338 111 367 130 Q396 149 410 184 L543 158 Q530 105 494.5 66 Q459 27 409 6 Q359 -15 301 -15 Z M384 671 Q384 648 373.5 630 Q363 612 344.5 601.5 Q326 591 304 591 Q282 591 263.5 601.5 Q245 612 234.5 630 Q224 648 224 671 Q224 694 234.5 712 Q245 730 263.5 740.5 Q282 751 304 751 Q326 751 344.5 740.5 Q363 730 373.5 712 Q384 694 384 671 Z " />
<glyph glyph-name="uni0121" unicode="&#x121;" horiz-adv-x="629" d="M273 15 Q223 15 179.5 35 Q136 55 104 90.5 Q72 126 54 173.5 Q36 221 36 276 Q36 333 54.5 381.5 Q73 430 106.5 466 Q140 502 184.5 522.5 Q229 543 281 543 Q332 543 373 522.5 Q414 502 441 463 L444 528 L573 528 L573 63 Q573 2 553.5 -48 Q534 -98 498 -134 Q462 -170 412.5 -189.5 Q363 -209 303 -209 Q244 -209 197 -190.5 Q150 -172 115 -139 Q80 -106 60 -62 L194 -29 Q212 -58 240.5 -74.5 Q269 -91 305 -91 Q344 -91 372.5 -73.5 Q401 -56 417 -24.5 Q433 7 433 49 L433 92 Q406 56 364.5 35.5 Q323 15 273 15 Z M307 139 Q344 139 372.5 157.5 Q401 176 418 207.5 Q435 239 435 279 Q435 319 418 350.5 Q401 382 372.5 400.5 Q344 419 307 419 Q270 419 241.5 400.5 Q213 382 196 350.5 Q179 319 179 279 Q179 239 196 207.5 Q213 176 241.5 157.5 Q270 139 307 139 Z M383 671 Q383 648 372.5 630 Q362 612 343.5 601.5 Q325 591 303 591 Q281 591 262.5 601.5 Q244 612 233.5 630 Q223 648 223 671 Q223 694 233.5 712 Q244 730 262.5 740.5 Q281 751 303 751 Q325 751 343.5 740.5 Q362 730 372.5 712 Q383 694 383 671 Z " />
<glyph glyph-name="uni017C" unicode="&#x17c;" horiz-adv-x="525" d="M39 0 L39 93 L295 415 L46 415 L46 528 L469 528 L469 435 L212 113 L486 113 L486 0 L39 0 Z M337 671 Q337 648 326.5 630 Q316 612 297.5 601.5 Q279 591 257 591 Q235 591 216.5 601.5 Q198 612 187.5 630 Q177 648 177 671 Q177 694 187.5 712 Q198 730 216.5 740.5 Q235 751 257 751 Q279 751 297.5 740.5 Q316 730 326.5 712 Q337 694 337 671 Z " />
<glyph glyph-name="uni1E25" unicode="&#x1e25;" horiz-adv-x="594" d="M56 0 L56 746 L196 746 L196 470 Q220 504 258 523.5 Q296 543 345 543 Q403 543 446.5 515.5 Q490 488 514 437 Q538 386 538 317 L538 0 L398 0 L398 299 Q398 354 373 385.5 Q348 417 304 417 Q272 417 248 402.5 Q224 388 210 362 Q196 336 196 303 L196 0 L56 0 Z M377 -146 Q377 -168 366.5 -186.5 Q356 -205 337.5 -215.5 Q319 -226 297 -226 Q275 -226 256.5 -215.5 Q238 -205 227.5 -186.5 Q217 -168 217 -146 Q217 -124 227.5 -105.5 Q238 -87 256.5 -76.5 Q275 -66 297 -66 Q319 -66 337.5 -76.5 Q356 -87 366.5 -105.5 Q377 -124 377 -146 Z " />
<glyph glyph-name="uni1E37" unicode="&#x1e37;" horiz-adv-x="252" d="M56 0 L56 746 L196 746 L196 0 L56 0 Z M205 -146 Q205 -168 194.5 -186.5 Q184 -205 165.5 -215.5 Q147 -226 125 -226 Q103 -226 84.5 -215.5 Q66 -205 55.5 -186.5 Q45 -168 45 -146 Q45 -124 55.5 -105.5 Q66 -87 84.5 -76.5 Q103 -66 125 -66 Q147 -66 165.5 -76.5 Q184 -87 194.5 -105.5 Q205 -124 205 -146 Z " />
<glyph glyph-name="uni030A" unicode="&#x30a;" d="M0 576 Q-32 576 -58 590.5 Q-84 605 -99 629.5 Q-114 654 -114 685 Q-114 716 -99 740.5 Q-84 765 -58 779.5 Q-32 794 0 794 Q32 794 58 779.5 Q84 765 99 740.5 Q114 716 114 685 Q114 654 99 629.5 Q84 605 58 590.5 Q32 576 0 576 Z M0 640 Q18 640 31 653 Q44 666 44 685 Q44 704 31 717 Q18 730 0 730 Q-18 730 -31 717 Q-44 704 -44 685 Q-44 666 -31 653 Q-18 640 0 640 Z " />
<glyph glyph-name="uni02DA" unicode="&#x2da;" horiz-adv-x="594" d="M297 576 Q265 576 239 590.5 Q213 605 198 629.5 Q183 654 183 685 Q183 716 198 740.5 Q213 765 239 779.5 Q265 794 297 794 Q329 794 355 779.5 Q381 765 396 740.5 Q411 716 411 685 Q411 654 396 629.5 Q381 605 355 590.5 Q329 576 297 576 Z M297 640 Q315 640 328 653 Q341 666 341 685 Q341 704 328 717 Q315 730 297 730 Q279 730 266 717 Q253 704 253 685 Q253 666 266 653 Q279 640 297 640 Z " />
<glyph glyph-name="uni00C5" unicode="&#xc5;" horiz-adv-x="755" d="M16 0 L298 710 L456 710 L739 0 L586 0 L528 156 L221 156 L163 0 L16 0 Z M268 282 L481 282 L374 565 L268 282 Z M377 751 Q344 751 317.5 766 Q291 781 275.5 806.5 Q260 832 260 863 Q260 894 275.5 919.5 Q291 945 317.5 960 Q344 975 377 975 Q410 975 436.5 960 Q463 945 478.5 919.5 Q494 894 494 863 Q494 832 478.5 806.5 Q463 781 436.5 766 Q410 751 377 751 Z M377 819 Q394 819 407 831.5 Q420 844 420 863 Q420 882 407 894.5 Q394 907 377 907 Q360 907 347 894.5 Q334 882 334 863 Q334 844 347 831.5 Q360 819 377 819 Z " />
<glyph glyph-name="uni016E" unicode="&#x16e;" horiz-adv-x="722" d="M360 -20 Q290 -20 234 1.5 Q178 23 138 63.5 Q98 104 76.5 160.5 Q55 217 55 287 L55 710 L204 710 L204 294 Q204 240 223 200 Q242 160 277.5 138.5 Q313 117 361 117 Q409 117 444 138.5 Q479 160 498.5 200 Q518 240 518 294 L518 710 L667 710 L667 287 Q667 217 645.5 160.5 Q624 104 583.5 63.5 Q543 23 486.5 1.5 Q430 -20 360 -20 Z M361 751 Q328 751 301.5 766 Q275 781 259.5 806.5 Q244 832 244 863 Q244 894 259.5 919.5 Q275 945 301.5 960 Q328 975 361 975 Q394 975 420.5 960 Q447 945 462.5 919.5 Q478 894 478 863 Q478 832 462.5 806.5 Q447 781 420.5 766 Q394 751 361 751 Z M361 819 Q378 819 391 831.5 Q404 844 404 863 Q404 882 391 894.5 Q378 907 361 907 Q344 907 331 894.5 Q318 882 318 863 Q318 844 331 831.5 Q344 819 361 819 Z " />
<glyph glyph-name="uni00E5" unicode="&#xe5;" horiz-adv-x="560" d="M219 -15 Q178 -15 144 -3 Q110 9 84.5 31.5 Q59 54 45 84 Q31 114 31 150 Q31 200 58 238 Q85 276 134 297.5 Q183 319 248 319 Q281 319 310.5 313 Q340 307 368 296 L368 327 Q368 372 342.5 400 Q317 428 273 428 Q240 428 213 411.5 Q186 395 175 365 L50 390 Q61 436 93.5 470.5 Q126 505 173 524 Q220 543 275 543 Q326 543 368 527 Q410 511 440.5 481 Q471 451 487.5 410.5 Q504 370 504 320 L504 0 L379 0 L375 62 Q354 28 314 6.5 Q274 -15 219 -15 Z M169 157 Q169 129 192 111 Q215 93 253 93 Q286 93 312 107 Q338 121 353 145.5 Q368 170 368 200 L368 205 Q346 214 321 219.5 Q296 225 271 225 Q224 225 196.5 206.5 Q169 188 169 157 Z M278 576 Q246 576 220 590.5 Q194 605 179 629.5 Q164 654 164 685 Q164 716 179 740.5 Q194 765 220 779.5 Q246 794 278 794 Q310 794 336 779.5 Q362 765 377 740.5 Q392 716 392 685 Q392 654 377 629.5 Q362 605 336 590.5 Q310 576 278 576 Z M278 640 Q296 640 309 653 Q322 666 322 685 Q322 704 309 717 Q296 730 278 730 Q260 730 247 717 Q234 704 234 685 Q234 666 247 653 Q260 640 278 640 Z " />
<glyph glyph-name="uni016F" unicode="&#x16f;" horiz-adv-x="592" d="M294 -15 Q222 -15 168.5 15.5 Q115 46 85.5 102.5 Q56 159 56 236 L56 528 L196 528 L196 233 Q196 176 223 143.5 Q250 111 296 111 Q342 111 369 143.5 Q396 176 396 233 L396 528 L536 528 L536 236 Q536 179 519 133 Q502 87 470 54 Q438 21 393.5 3 Q349 -15 294 -15 Z M295 576 Q263 576 237 590.5 Q211 605 196 629.5 Q181 654 181 685 Q181 716 196 740.5 Q211 765 237 779.5 Q263 794 295 794 Q327 794 353 779.5 Q379 765 394 740.5 Q409 716 409 685 Q409 654 394 629.5 Q379 605 353 590.5 Q327 576 295 576 Z M295 640 Q313 640 326 653 Q339 666 339 685 Q339 704 326 717 Q313 730 295 730 Q277 730 264 717 Q251 704 251 685 Q251 666 264 653 Q277 640 295 640 Z " />
<glyph glyph-name="uniFEFF" unicode="&#xfeff;" d="" />
<glyph glyph-name="uniFFFD" unicode="&#xfffd;" horiz-adv-x="808" d="M404 -34 L15 355 L404 744 L793 355 L404 -34 Z M357 250 L439 250 L439 303 Q492 320 521.5 354 Q551 388 551 435 Q551 472 532 501 Q513 530 479.5 546.5 Q446 563 404 563 Q366 563 334 549.5 Q302 536 280.5 511 Q259 486 252 453 L332 435 Q340 460 358 473.5 Q376 487 400 487 Q428 487 445 470.5 Q462 454 462 429 Q462 368 357 343 L357 250 Z M398 108 Q420 108 435 123 Q450 138 450 160 Q450 182 435 197 Q420 212 398 212 Q376 212 361.5 197 Q347 182 347 160 Q347 138 361.5 123 Q376 108 398 108 Z " />
<glyph glyph-name="uF0001" unicode="&#xf0001;" horiz-adv-x="742" d="M711 219 Q726 178 720 138 Q716 110 702.5 85 Q689 60 667.5 41 Q646 22 620 12 Q590 0 557 0 Q552 0 546.5 0.5 Q541 1 536 1 Q499 5 459 27 Q437 39 415.5 56.5 Q394 74 371 98 Q348 74 326.5 56.5 Q305 39 283 27 Q245 5 206 1 Q201 1 196 0.5 Q191 0 186 0 Q153 0 123 12 Q82 28 55 62 Q28 96 22 138 Q16 178 31 219 Q33 226 35.5 232 Q38 238 42 246 Q46 254 49.5 262 Q53 270 59 283 Q98 366 139 447.5 Q180 529 223 611 L225 615 Q230 623 232 627.5 Q234 632 237 637 L243 649 Q251 663 257.5 672.5 Q264 682 271 690 Q311 736 371 736 Q400 736 426 724 Q452 712 471 690 Q478 682 484.5 672.5 Q491 663 499 649 Q503 642 506.5 634.5 Q510 627 517 615 L519 611 Q562 529 603 447.5 Q644 366 682 284 L700 246 Q704 238 706.5 231.5 Q709 225 711 219 Z M659 147 Q663 171 653 199 Q651 204 649 209 Q647 214 643 221 Q642 224 641 226.5 Q640 229 638 232 Q637 235 635.5 238 Q634 241 633 245 Q632 247 630.5 249.5 Q629 252 627 258 Q588 339 547.5 420.5 Q507 502 464 583 L461 588 Q457 596 455.5 598 Q454 600 453 604 Q451 608 448.5 612 Q446 616 444 620 Q438 631 433.5 638 Q429 645 424 651 Q403 675 371 675 Q339 675 318 651 Q313 645 308.5 638 Q304 631 298 620 Q296 616 293.5 612 Q291 608 289 603 Q287 600 285.5 597 Q284 594 280 587 L278 583 Q235 503 194.5 421 Q154 339 116 259 Q109 246 105.5 237 Q102 228 98 221 Q95 214 92.5 209 Q90 204 89 199 Q79 171 83 147 Q87 121 103.5 100 Q120 79 146 69 Q158 64 172 62 Q186 60 199 62 Q225 65 252 80 Q271 90 290 106 Q309 122 330 144 Q296 187 273.5 226.5 Q251 266 243 302 Q235 335 240 366 Q245 396 261 418 Q279 444 308 458.5 Q337 473 371 473 Q405 473 434 458.5 Q463 444 481 418 Q497 396 502 366 Q507 335 499 302 Q491 266 468.5 226.5 Q446 187 412 144 Q433 122 452 106 Q471 90 490 80 Q517 65 543 62 Q556 60 569.5 62 Q583 64 596 69 Q622 79 638.5 100 Q655 121 659 147 Z M371 191 Q426 261 438 315 Q444 338 441 357 Q440 364 437 371 Q434 378 430 384 Q421 397 405.5 404.5 Q390 412 371 412 Q352 412 336.5 404.5 Q321 397 312 384 Q308 378 305 371 Q302 364 301 357 Q298 338 304 315 Q316 261 371 191 Z " />
<glyph glyph-name="uF0002" unicode="&#xf0002;" horiz-adv-x="614" d="M591 460 Q598 446 590 434 L283 26 Q272 11 259.5 0.5 Q247 -10 234 -5 Q223 -1 218.5 11 Q214 23 215 41 Q216 55 218 77.5 Q220 100 222 125.5 Q224 151 226.5 175.5 Q229 200 230.5 219.5 Q232 239 233 248 Q234 261 231.5 267.5 Q229 274 217 273 L47 259 Q40 258 33.5 261.5 Q27 265 23 271 Q16 285 24 297 L331 705 Q342 720 354.5 730 Q367 740 380 736 Q391 732 395.5 720 Q400 708 399 690 Q398 676 396 653.5 Q394 631 392 605 Q390 579 387.5 554 Q385 529 383.5 510 Q382 491 381 482 Q380 469 382 463 Q384 457 396 458 L567 472 Q574 472 580.5 469 Q587 466 591 460 Z " />
<glyph glyph-name="uF0003" unicode="&#xf0003;" horiz-adv-x="482" d="M449 550 L263 393 Q253 387 241 387 Q229 387 219 393 L33 550 Q20 560 20 573 L20 726 Q20 730 24 733 Q28 736 33 736 L449 736 Q454 736 458 733 Q462 730 462 726 L462 573 Q462 560 449 550 Z M241 0 Q206 0 175.5 13 Q145 26 122 49 Q99 72 86 102.5 Q73 133 73 168 Q73 203 86 233.5 Q99 264 122 287.5 Q145 311 175.5 324 Q206 337 241 337 Q276 337 306.5 324 Q337 311 360 287.5 Q383 264 396 233.5 Q409 203 409 168 Q409 133 396 102.5 Q383 72 360 49 Q337 26 306.5 13 Q276 0 241 0 Z " />
<glyph glyph-name="uF0004" unicode="&#xf0004;" horiz-adv-x="800" d="M707 472 Q749 471 767 457.5 Q785 444 778.5 423 Q772 402 738 377 L584 261 L640 77 Q652 37 645 16 Q638 -5 616 -5 Q594 -5 559 19 L400 128 L242 19 Q207 -5 184.5 -5 Q162 -5 155 16 Q148 37 161 77 L217 261 L63 377 Q30 402 22.5 423 Q15 444 33.5 457.5 Q52 471 94 472 L287 475 L350 657 Q364 696 382 709.5 Q400 723 418 709.5 Q436 696 450 657 L514 475 L707 472 Z " />
<glyph glyph-name="uF0005" unicode="&#xf0005;" horiz-adv-x="800" d="M351 657 Q362 686 375 701 Q388 716 401 716 L401 129 L242 19 Q208 -5 185 -5 Q162 -5 155 16 Q148 37 161 77 L217 261 L63 377 Q29 402 22 423 Q15 444 33.5 457.5 Q52 471 94 472 L287 475 L351 657 Z " />
<glyph glyph-name="uF0006" unicode="&#xf0006;" horiz-adv-x="800" d="M707 472 Q749 471 767 458 Q785 445 778.5 423.5 Q772 402 738 377 L584 261 L640 77 Q652 37 645 16 Q638 -5 616 -5 Q594 -5 559 19 L400 129 L242 19 Q207 -5 184.5 -5 Q162 -5 155 16 Q148 37 161 77 L217 261 L63 377 Q29 402 22 423 Q15 444 33.5 457.5 Q52 471 94 472 L287 475 L350 657 Q364 696 382 709.5 Q400 723 418 709.5 Q436 696 450 657 L514 475 L707 472 Z M496 290 L638 397 L459 401 L400 570 L341 401 L162 397 L305 290 L253 119 L400 221 L548 119 L496 290 Z " />
<glyph glyph-name="uF0007" unicode="&#xf0007;" horiz-adv-x="704" d="M526 572 Q538 572 557.5 567 Q577 562 599 550.5 Q621 539 640.5 518 Q660 497 672 465.5 Q684 434 684 390 Q684 353 669.5 316 Q655 279 630.5 243.5 Q606 208 575.5 175 Q545 142 512.5 113.5 Q480 85 450.5 62 Q421 39 398.5 22.5 Q376 6 364 -1 Q359 -5 352 -5 Q345 -5 340 -1 Q328 7 305.5 23 Q283 39 253.5 62 Q224 85 191.5 113.5 Q159 142 128.5 175 Q98 208 73.5 243.5 Q49 279 34.5 316 Q20 353 20 390 Q20 434 32 465.5 Q44 497 63.5 518 Q83 539 105 550.5 Q127 562 146.5 567 Q166 572 178 572 Q182 572 187 572 Q192 572 197 571 Q216 569 234.5 562.5 Q253 556 272 546 Q292 535 311.5 519.5 Q331 504 352 482 Q373 504 392.5 519.5 Q412 535 432 546 Q451 556 469.5 562.5 Q488 569 506 571 Q511 572 516.5 572 Q522 572 526 572 Z " />
<glyph glyph-name="uF0008" unicode="&#xf0008;" horiz-adv-x="929" d="M761 0 L168 0 L168 556 Q192 556 210 558 Q228 560 242 574 Q242 574 246 577.5 Q250 581 258 593.5 Q266 606 279 633 Q295 667 306.5 688 Q318 709 329.5 720.5 Q341 732 355 736.5 Q369 741 390 741 L539 741 Q560 741 574 736.5 Q588 732 599.5 720.5 Q611 709 622.5 688 Q634 667 650 633 Q663 606 671 593.5 Q679 581 683 577.5 Q687 574 687 574 Q700 560 718.5 558 Q737 556 761 556 L761 0 Z M409 556 L520 556 Q530 556 543 556 Q556 556 567.5 558 Q579 560 585 566 Q591 572 587 584 L561 642 Q557 652 552.5 659.5 Q548 667 539 667 L390 667 Q381 667 376.5 659.5 Q372 652 368 642 L342 584 Q338 572 344 566 Q350 560 361.5 558 Q373 556 386 556 Q399 556 409 556 Z M131 0 L57 0 Q48 0 39.5 5.5 Q31 11 25.5 19.5 Q20 28 20 37 L20 519 Q20 534 32 545 Q44 556 57 556 L131 556 L131 0 Z M798 556 L872 556 Q886 556 897.5 545 Q909 534 909 519 L909 37 Q909 28 903.5 19.5 Q898 11 889.5 5.5 Q881 0 872 0 L798 0 L798 556 Z " />
<glyph glyph-name="uF0009" unicode="&#xf0009;" horiz-adv-x="800" d="M706 472 Q748 471 766.5 458 Q785 445 778 423.5 Q771 402 737 377 L584 261 L640 77 Q652 37 645 16 Q638 -5 615.5 -5 Q593 -5 558 19 L400 129 L242 19 Q207 -5 184.5 -5 Q162 -5 155 16 Q148 37 161 77 L216 261 L63 377 Q29 402 22 423 Q15 444 33.5 457.5 Q52 471 94 472 L287 475 L350 657 Q364 696 382 709.5 Q400 723 418 709.5 Q436 696 450 657 L513 475 L706 472 Z M638 397 L459 401 L400 570 L400 221 L547 119 L495 290 L638 397 Z " />
<glyph glyph-name="uF0010" unicode="&#xf0010;" horiz-adv-x="609" d="M589 451 Q590 410 577 365.5 Q564 321 541 277.5 Q518 234 489 193 Q460 152 430.5 116 Q401 80 375 52 Q349 24 331 6 Q320 -5 304.5 -5 Q289 -5 278 6 Q260 24 234 52 Q208 80 178.5 116 Q149 152 120 193 Q91 234 68 277.5 Q45 321 31.5 365.5 Q18 410 20 451 Q20 498 34.5 540.5 Q49 583 75 618.5 Q101 654 136.5 680 Q172 706 214.5 720.5 Q257 735 304 735 Q351 735 393.5 720.5 Q436 706 472 680 Q508 654 534 618.5 Q560 583 574.5 540.5 Q589 498 589 451 Z M304 335 Q336 335 362.5 350.5 Q389 366 404.5 392.5 Q420 419 420 451 Q420 482 404.5 508.5 Q389 535 362.5 550.5 Q336 566 304 566 Q272 566 246 550.5 Q220 535 204.5 508.5 Q189 482 189 451 Q189 419 204.5 392.5 Q220 366 246 350.5 Q272 335 304 335 Z " />
<glyph glyph-name="uF0011" unicode="&#xf0011;" horiz-adv-x="1539" d="M797 360 L650 17 Q646 10 639 5 Q632 0 624 0 L48 0 Q37 0 28.5 8.5 Q20 17 20 28 L20 707 Q20 719 28.5 727.5 Q37 736 48 736 L624 736 Q632 736 639 731 Q646 726 650 719 L797 376 Q800 368 797 360 Z M1519 712 L1519 24 Q1519 14 1512.5 7 Q1506 0 1496 0 L739 0 Q734 0 731 4.5 Q728 9 730 14 L878 360 Q881 368 878 376 L730 722 Q728 727 731 731.5 Q734 736 739 736 L1496 736 Q1506 736 1512.5 729 Q1519 722 1519 712 Z M1407 563 Q1406 576 1396 584 Q1386 592 1373 592 L1214 592 Q1209 592 1209 597 L1209 630 Q1209 643 1201 652.5 Q1193 662 1180 664 Q1166 666 1155 656 Q1144 646 1144 632 L1144 597 Q1144 592 1139 592 L980 592 Q967 592 957.5 584 Q948 576 946 563 Q944 549 954 538 Q964 527 978 527 L1025 527 Q1031 527 1031 522 Q1034 494 1044 455.5 Q1054 417 1074 372.5 Q1094 328 1130 284 Q1132 282 1132 280.5 Q1132 279 1130 278 Q1104 254 1070.5 232 Q1037 210 995 192 Q984 187 978 176 Q972 165 975 154 Q978 143 987 136 Q996 129 1007 129 Q1012 129 1020 132 Q1067 153 1105.5 178 Q1144 203 1173 231 Q1176 234 1180 231 Q1198 214 1219.5 198 Q1241 182 1266 167 L1282 158 Q1294 151 1307 144.5 Q1320 138 1334 132 Q1340 129 1346 129 Q1356 129 1365.5 136 Q1375 143 1378 154 Q1381 165 1375 176 Q1369 187 1358 192 Q1337 201 1318 211.5 Q1299 222 1282 233 Q1278 235 1274 238 Q1270 241 1266 244 Q1242 261 1223 278 Q1221 280 1223 284 Q1236 300 1246.5 316 Q1257 332 1266 348 Q1270 356 1274 364 Q1278 372 1282 380 Q1302 422 1310.5 459 Q1319 496 1322 522 Q1322 527 1328 527 L1375 527 Q1389 527 1398.5 538 Q1408 549 1407 563 Z M564 167 L454 562 Q450 576 439 584 Q428 592 414 592 L313 592 Q299 592 288 584 Q277 576 273 562 L162 168 Q159 157 163.5 145.5 Q168 134 179 129 Q186 126 193 126 Q204 126 212.5 133 Q221 140 224 150 L263 289 Q265 296 272 296 L454 296 Q461 296 463 288 L502 151 Q505 140 514.5 132.5 Q524 125 536 126 Q552 128 560 140.5 Q568 153 564 167 Z M399 520 L441 368 Q442 365 440 362.5 Q438 360 435 360 L292 360 Q288 360 286 362.5 Q284 365 285 368 L329 520 Q331 527 338 527 L389 527 Q396 527 399 520 Z M1258 521 Q1254 495 1246 464 Q1238 433 1222 399.5 Q1206 366 1181 333 Q1180 332 1177 332 Q1174 332 1173 333 Q1136 383 1119 432.5 Q1102 482 1097 521 Q1097 527 1103 527 L1251 527 Q1258 527 1258 521 Z " />
<glyph glyph-name="uF0012" unicode="&#xf0012;" horiz-adv-x="714" d="M665 656 Q677 656 685.5 648 Q694 640 694 628 L694 28 Q694 17 685.5 8.5 Q677 0 665 0 L49 0 Q37 0 28.5 8.5 Q20 17 20 28 L20 628 Q20 640 28.5 648 Q37 656 49 656 L123 656 Q129 656 133.5 660.5 Q138 665 138 671 L138 728 Q138 747 151 760 Q164 773 183 773 Q202 773 215.5 760 Q229 747 229 728 L229 671 Q229 665 233 660.5 Q237 656 243 656 L466 656 Q472 656 476 660.5 Q480 665 480 671 L480 728 Q480 747 493.5 760 Q507 773 526 773 Q545 773 558 760 Q571 747 571 728 L571 671 Q571 665 575.5 660.5 Q580 656 586 656 L665 656 Z M169 119 L545 119 Q558 119 564 120.5 Q570 122 571.5 129 Q573 136 573 153 L573 364 Q573 381 572 388 Q571 395 564.5 396.5 Q558 398 544 398 L170 398 Q156 398 149.5 396.5 Q143 395 142 388 Q141 381 141 364 L141 153 Q141 136 142 129 Q143 122 149 120.5 Q155 119 169 119 Z " />
<glyph glyph-name="uF0013" unicode="&#xf0013;" horiz-adv-x="1216" d="M387 419 L137 136 Q125 122 108 116.5 Q91 111 73.5 114.5 Q56 118 43 130 Q29 142 23.5 159 Q18 176 21 193 Q24 210 37 224 L287 508 Q308 532 336 545.5 Q364 559 394 561 Q424 563 453.5 553 Q483 543 507 522 Q513 517 518.5 511 Q524 505 529 498 L714 250 Q720 242 729 241 Q738 240 746 245 Q747 246 748 247 Q749 248 750 250 L926 485 L784 485 Q766 485 750.5 494 Q735 503 726 518.5 Q717 534 717 552 Q717 570 726 585.5 Q735 601 750.5 610 Q766 619 784 619 L1055 619 Q1078 619 1096 605.5 Q1114 592 1120 570 L1194 304 Q1198 286 1193.5 269 Q1189 252 1177 239.5 Q1165 227 1147 222 Q1129 217 1112 221.5 Q1095 226 1082 238 Q1069 250 1064 268 L1028 399 L857 170 Q850 161 842.5 153 Q835 145 826 138 Q800 118 770 111 Q740 104 710 108.5 Q680 113 653 128.5 Q626 144 607 170 L419 421 Q412 427 402.5 426.5 Q393 426 387 419 Z " />
<glyph glyph-name="uF0014" unicode="&#xf0014;" horiz-adv-x="691" d="M377 176 L377 132 Q377 124 384 124 L408 124 Q421 124 430 115 Q439 106 439 93 L439 70 Q439 67 441 64.5 Q443 62 446 62 L454 62 Q467 62 476 53 Q485 44 485 31 Q485 18 476 9 Q467 0 454 0 L237 0 Q224 0 215 9 Q206 18 206 31 Q206 44 215 53 Q224 62 237 62 L245 62 Q248 62 250.5 64.5 Q253 67 253 70 L253 93 Q253 106 261.5 115 Q270 124 284 124 L307 124 Q310 124 312.5 126 Q315 128 315 132 L315 176 Q315 181 311 185.5 Q307 190 302 191 Q249 203 212 247 Q201 261 192.5 278 Q184 295 177 313 Q175 320 169 322 Q139 336 115 360.5 Q91 385 73 416 Q55 447 43.5 481 Q32 515 26 548.5 Q20 582 20 610 Q20 646 27 670.5 Q34 695 46 709.5 Q58 724 71 731.5 Q84 739 96.5 741.5 Q109 744 118 744 Q141 744 160 735 Q179 726 193.5 713 Q208 700 218 688 Q222 682 230 682 L461 682 Q468 682 473 688 Q482 700 497 713 Q512 726 531 735 Q550 744 573 744 Q582 744 594.5 741.5 Q607 739 620 731.5 Q633 724 645 709.5 Q657 695 664 670.5 Q671 646 671 610 Q671 582 665 548.5 Q659 515 647.5 481 Q636 447 618 416 Q600 385 576 360.5 Q552 336 522 322 Q516 320 514 313 Q507 295 498.5 278 Q490 261 479 247 Q442 203 389 191 Q377 188 377 176 Z M82 610 Q82 578 89.5 544.5 Q97 511 110.5 479.5 Q124 448 143 423 Q146 420 151 421 Q158 423 156 429 Q154 472 156.5 512.5 Q159 553 163.5 585.5 Q168 618 172 637 Q172 641 171 644.5 Q170 648 168 650 Q159 661 145.5 671.5 Q132 682 118 682 Q82 682 82 610 Z M573 682 Q559 682 545.5 671 Q532 660 523 650 Q521 648 520 644.5 Q519 641 519 637 Q522 618 527 585.5 Q532 553 534.5 512.5 Q537 472 535 429 Q533 423 540 421 Q544 420 548 423 Q566 448 580 479.5 Q594 511 601.5 544.5 Q609 578 609 610 Q609 682 573 682 Z " />
<glyph glyph-name="uF0015" unicode="&#xf0015;" horiz-adv-x="800" d="M449 657 L513 475 L706 472 Q748 471 766.5 457.5 Q785 444 778 423 Q771 402 737 377 L583 261 L639 77 Q652 37 645 16 Q638 -5 615 -5 Q592 -5 558 19 L399 129 L399 716 Q412 716 425 701 Q438 686 449 657 Z " />
<glyph glyph-name="uF0016" unicode="&#xf0016;" horiz-adv-x="800" d="M94 472 L287 475 L350 657 Q364 696 382 709.5 Q400 723 418 709.5 Q436 696 450 657 L513 475 L706 472 Q748 471 766.5 457.5 Q785 444 778 423 Q771 402 737 377 L584 261 L639 77 Q652 37 645 16 Q638 -5 615.5 -5 Q593 -5 558 19 L400 129 L242 19 Q207 -5 184.5 -5 Q162 -5 155 16 Q148 37 160 77 L216 261 L63 377 Q29 402 22 423.5 Q15 445 33.5 458 Q52 471 94 472 Z M305 290 L253 119 L400 221 L400 570 L341 401 L162 397 L305 290 Z " />
<glyph glyph-name="uF0017" unicode="&#xf0017;" horiz-adv-x="1539" d="M20 712 Q20 722 26.5 729 Q33 736 43 736 L800 736 Q805 736 808 731.5 Q811 727 809 722 L661 376 Q658 368 661 360 L809 14 Q811 9 808 4.5 Q805 0 800 0 L43 0 Q33 0 26.5 7 Q20 14 20 24 L20 712 Z M742 360 Q739 368 742 376 L889 719 Q893 726 900 731 Q907 736 915 736 L1491 736 Q1502 736 1510.5 727.5 Q1519 719 1519 707 L1519 28 Q1519 17 1510.5 8.5 Q1502 0 1491 0 L915 0 Q907 0 900 5 Q893 10 889 17 L742 360 Z M132 563 Q130 549 140 538 Q150 527 164 527 L211 527 Q217 527 217 522 Q220 496 229 459 Q238 422 257 380 Q261 372 264.5 364 Q268 356 273 348 Q282 332 292.5 316 Q303 300 316 284 Q318 280 316 278 Q297 261 273 244 Q269 241 265.5 238 Q262 235 257 233 Q240 222 221 211.5 Q202 201 181 192 Q170 187 164 176 Q158 165 161 154 Q164 143 173 136 Q182 129 193 129 Q199 129 205 132 Q219 138 232 144.5 Q245 151 257 158 L273 167 Q298 182 319.5 198 Q341 214 359 231 Q362 234 366 231 Q395 203 433.5 178 Q472 153 519 132 Q526 129 532 129 Q542 129 551.5 136 Q561 143 564 154 Q567 165 560.5 176 Q554 187 544 192 Q502 210 468.5 232 Q435 254 409 278 Q408 279 408 280.5 Q408 282 409 284 Q444 328 464.5 372.5 Q485 417 494.5 455.5 Q504 494 508 522 Q508 527 514 527 L561 527 Q575 527 584.5 538 Q594 549 593 563 Q592 576 582 584 Q572 592 559 592 L400 592 Q395 592 395 597 L395 632 Q395 646 384 656 Q373 666 359 664 Q346 662 338 652.5 Q330 643 330 630 L330 597 Q330 592 325 592 L166 592 Q153 592 143.5 584 Q134 576 132 563 Z M975 167 Q970 153 978.5 140.5 Q987 128 1003 126 Q1015 125 1024.5 132.5 Q1034 140 1037 151 L1076 288 Q1078 296 1085 296 L1267 296 Q1274 296 1276 289 L1315 150 Q1318 140 1327 133 Q1336 126 1346 126 Q1352 126 1360 129 Q1370 134 1375 145.5 Q1380 157 1377 168 L1266 562 Q1262 576 1251 584 Q1240 592 1226 592 L1125 592 Q1111 592 1100 584 Q1089 576 1085 562 L975 167 Z M281 521 Q281 527 288 527 L436 527 Q442 527 442 521 Q437 482 420.5 432.5 Q404 383 366 333 Q364 332 362 332 Q360 332 358 333 Q332 366 316.5 399.5 Q301 433 292.5 464 Q284 495 281 521 Z M1140 520 Q1144 527 1150 527 L1201 527 Q1208 527 1210 520 L1254 368 Q1255 365 1253 362.5 Q1251 360 1247 360 L1104 360 Q1101 360 1099 362.5 Q1097 365 1098 368 L1140 520 Z " />
<glyph glyph-name="uF0018" unicode="&#xf0018;" horiz-adv-x="646" d="M545 462 Q568 461 586 449.5 Q604 438 615 420 Q626 402 626 380 L626 82 Q626 60 614.5 41 Q603 22 583.5 11 Q564 0 541 0 L105 0 Q82 0 62.5 11 Q43 22 31.5 41 Q20 60 20 82 L20 380 Q20 402 31 420 Q42 438 60 449.5 Q78 461 100 462 L100 541 Q100 582 116 617 Q132 652 159.5 679 Q187 706 223 721 Q259 736 301 736 L345 736 Q386 736 422.5 721 Q459 706 486.5 679 Q514 652 529.5 617 Q545 582 545 541 L545 462 Z M203 541 L203 462 L443 462 L443 541 Q443 570 436 588.5 Q429 607 417.5 617 Q406 627 393 631 Q380 635 367.5 635.5 Q355 636 345 636 L301 636 Q292 636 279.5 635 Q267 634 254 630 Q241 626 229 616 Q217 606 210 588 Q203 570 203 541 Z " />
<glyph glyph-name="uF0019" unicode="&#xf0019;" horiz-adv-x="776" d="M665 465 L751 377 Q756 371 756 363 Q756 355 750 350 L654 257 L654 123 Q654 115 648 109.5 Q642 104 635 104 L495 104 L395 7 Q390 2 382 2 Q374 2 368 8 L275 104 L141 104 Q134 104 128 109.5 Q122 115 122 123 L122 262 L25 363 Q20 368 20 376 Q20 384 26 389 L122 483 L122 617 Q122 624 128 630 Q134 636 141 636 L281 636 L381 732 Q387 738 395 737.5 Q403 737 408 732 L501 636 L635 636 Q642 636 648 630 Q654 624 654 617 L654 610 L396 370 L317 453 Q310 460 304.5 460 Q299 460 295 457.5 Q291 455 291 455 L235 402 Q235 402 232 398.5 Q229 395 228.5 388.5 Q228 382 235 375 L377 223 Q384 216 390 216.5 Q396 217 400 219.5 Q404 222 404 222 L665 465 Z " />
<glyph glyph-name="uF0020" unicode="&#xf0020;" horiz-adv-x="530" d="M510 533 L510 41 Q510 24 498 12 Q486 0 469 0 L61 0 Q44 0 32 12 Q20 24 20 41 L20 568 Q20 584 29.5 597 Q39 610 54 615 L404 732 Q424 739 442 729.5 Q460 720 467 701 L469 695 L469 574 Q486 574 498 562 Q510 550 510 533 Z M190 574 L388 574 L388 640 L190 574 Z M408 350 Q408 380 397 405.5 Q386 431 366 450.5 Q346 470 320.5 481 Q295 492 265 492 Q235 492 209.5 481 Q184 470 164 450.5 Q144 431 133 405.5 Q122 380 122 350 Q121 325 130.5 299 Q140 273 156 247 Q172 221 190 198 Q208 175 224.5 157 Q241 139 252 128 Q257 123 265 123 Q273 123 278 128 Q289 139 305.5 157 Q322 175 340 198 Q358 221 374 247 Q390 273 399.5 299 Q409 325 408 350 Z M323 350 Q323 334 315 321.5 Q307 309 294 301 Q281 293 265 293 Q249 293 236 301 Q223 309 215 321.5 Q207 334 207 350 Q207 366 215 379 Q223 392 236 400 Q249 408 265 408 Q281 408 294 400 Q307 392 315 379 Q323 366 323 350 Z " />
<glyph glyph-name="uF0101" unicode="&#xf0101;" horiz-adv-x="872" d="M850 376 Q840 360 833 341.5 Q826 323 822 304.5 Q818 286 818 272 L818 245 Q818 234 816.5 222 Q815 210 806 189 Q797 164 773 139 Q760 125 741.5 113.5 Q723 102 702 94 Q693 90 693 81 L693 36 Q693 19 681 7 Q669 -5 652 -5 Q636 -5 624 7 Q612 19 612 36 L612 61 Q612 64 611 66.5 Q610 69 608 71 Q606 72 603 73.5 Q600 75 597 74 L297 74 Q291 74 285.5 74 Q280 74 275 75 Q272 75 269 73.5 Q266 72 264 71 Q262 69 261 66.5 Q260 64 260 61 L260 36 Q260 19 248 7 Q236 -5 220 -5 Q203 -5 191 7 Q179 19 179 36 L179 82 Q179 90 170 94 Q160 98 150.5 102.5 Q141 107 133 112 Q86 141 67 188 Q67 188 67 188.5 Q67 189 66 189 Q62 199 60 208.5 Q58 218 56 228 Q55 233 55 237 Q55 241 55 245 L55 272 Q55 295 45.5 324.5 Q36 354 23 377 Q17 385 22 394 Q26 403 37 403 L51 404 Q58 403 63 408 Q66 410 67 413 Q68 416 68 419 L68 639 Q68 654 73 671 Q78 688 90.5 703 Q103 718 124 728 Q152 741 181 736 Q210 731 236 710 L238 708 Q240 706 241 708 Q260 717 283 717 Q304 717 328 705 Q344 699 359 688 Q361 686 363 685 L364 684 Q374 674 374 659 Q374 652 371.5 646 Q369 640 364 635 L271 542 Q270 540 269 539.5 Q268 539 266 538 Q257 532 247 532 Q230 532 221 543 L218 547 Q208 562 200 577 Q189 602 189 623 Q189 628 189 633 Q189 638 190 642 Q192 648 188 650 Q174 661 166 660.5 Q158 660 156 658 Q148 655 146.5 649 Q145 643 145 641 L145 418 Q145 411 149.5 407 Q154 403 160 403 L835 403 Q845 403 850 394 Q854 385 850 376 Z " />
<glyph glyph-name="uF0102" unicode="&#xf0102;" horiz-adv-x="782" d="M394 387 Q396 376 387 368 Q368 348 356 321.5 Q344 295 344 255 L344 23 Q344 13 337.5 6.5 Q331 0 321 0 L50 0 Q41 0 34.5 6 Q28 12 27 20 Q23 52 21.5 88.5 Q20 125 20.5 161.5 Q21 198 24 230.5 Q27 263 31.5 288 Q36 313 43 326 Q54 347 80 372 Q106 397 152 431 L163 439 Q165 441 167.5 443.5 Q170 446 171 447 Q172 449 171 451.5 Q170 454 168 456 Q167 458 161 465 Q137 494 124.5 530.5 Q112 567 112 614 Q112 651 129 680 Q146 709 175 725.5 Q204 742 240 742 Q275 742 304 725 Q333 708 350 679 Q367 650 367 614 Q367 567 354.5 529.5 Q342 492 317 464 Q311 458 309 454.5 Q307 451 308 449 Q308 447 309 445.5 Q310 444 315 441 L325 436 Q332 432 346 424 Q349 422 359.5 417 Q370 412 383 404 Q392 398 394 387 Z M761 250 Q761 222 761.5 199 Q762 176 762 156 L762 137 Q762 123 761.5 108.5 Q761 94 761 78 L761 23 Q761 13 754.5 6.5 Q748 0 738 0 L414 0 Q404 0 397.5 6.5 Q391 13 391 23 L391 255 Q391 289 402 310.5 Q413 332 437 349 L482 374 Q486 376 489 377 Q492 378 495 380 Q500 382 501.5 383.5 Q503 385 503 385 Q503 390 502 392 Q501 394 497 398 Q497 399 496 400 Q468 430 455.5 468 Q443 506 443 552 Q443 575 451.5 598 Q460 621 477 640 Q494 659 518 670.5 Q542 682 572 682 Q602 682 626 671 Q650 660 667 641 Q684 622 692.5 599 Q701 576 701 552 Q701 508 688.5 469 Q676 430 648 400 L644 396 Q642 393 641 391.5 Q640 390 640 386 Q640 384 641 383 Q642 382 646 380 Q648 378 651 377 Q654 376 658 374 L679 365 Q720 346 740.5 320 Q761 294 761 250 Z " />
<glyph glyph-name="uF0103" unicode="&#xf0103;" horiz-adv-x="895" d="M790 416 Q814 416 833 404.5 Q852 393 863.5 373.5 Q875 354 875 330 L875 37 Q875 20 862.5 7.5 Q850 -5 832 -5 Q815 -5 802.5 7.5 Q790 20 790 37 L790 45 Q790 56 781.5 64.5 Q773 73 761 73 L134 73 Q122 73 114 64.5 Q106 56 106 45 L106 37 Q106 20 93 7.5 Q80 -5 63 -5 Q45 -5 32.5 7.5 Q20 20 20 37 L20 330 Q20 354 31.5 373.5 Q43 393 62.5 404.5 Q82 416 106 416 L106 655 Q106 673 115 688 Q124 703 139 712 Q154 721 172 721 L724 721 Q742 721 757 712 Q772 703 781 688 Q790 673 790 655 L790 416 Z M403 432 L403 535 Q403 548 393.5 558 Q384 568 370 568 L227 568 Q214 568 204 558 Q194 548 194 535 L194 432 Q194 425 199 420.5 Q204 416 211 416 L387 416 Q394 416 398.5 420.5 Q403 425 403 432 Z M701 432 L701 535 Q701 548 691.5 558 Q682 568 668 568 L525 568 Q512 568 502 558 Q492 548 492 535 L492 432 Q492 425 496.5 420.5 Q501 416 508 416 L684 416 Q692 416 696.5 420.5 Q701 425 701 432 Z " />
<glyph glyph-name="uF0104" unicode="&#xf0104;" horiz-adv-x="778" d="M758 39 Q758 22 746 11 Q734 0 718 0 L605 0 Q583 0 567.5 15 Q552 30 552 53 L552 532 Q552 542 544 550 Q536 558 525 558 L476 558 L476 -60 Q476 -74 465 -82 Q455 -89 442 -86 L177 -2 Q173 0 169 0 L60 0 Q44 0 32 11 Q20 22 20 39 Q20 56 32 67.5 Q44 79 60 79 L126 79 Q137 79 145 87 Q153 95 153 106 L153 619 Q153 627 158.5 634 Q164 641 172 644 L442 730 Q455 733 465 726 Q476 718 476 704 L476 638 L605 638 Q616 638 624 630 Q632 622 632 611 L632 106 Q632 95 640 87 Q648 79 658 79 L718 79 Q734 79 746 67.5 Q758 56 758 39 Z " />
<glyph glyph-name="uF0105" unicode="&#xf0105;" horiz-adv-x="858" d="M371 664 L371 489 Q371 465 359 445 Q347 425 327 413 Q307 401 283 401 L108 401 Q84 401 64 413 Q44 425 32 445 Q20 465 20 489 L20 664 Q20 688 32 708 Q44 728 64 740 Q84 752 108 752 L283 752 Q307 752 327 740 Q347 728 359 708 Q371 688 371 664 Z M750 752 Q774 752 794 740 Q814 728 826 708 Q838 688 838 664 L838 489 Q838 465 826 445 Q814 425 794 413 Q774 401 750 401 L575 401 Q551 401 531 413 Q511 425 499 445 Q487 465 487 489 L487 664 Q487 688 499 708 Q511 728 531 740 Q551 752 575 752 L750 752 Z M283 285 Q307 285 327 273 Q347 261 359 241 Q371 221 371 197 L371 22 Q371 -2 359 -22 Q347 -42 327 -54 Q307 -66 283 -66 L108 -66 Q84 -66 64 -54 Q44 -42 32 -22 Q20 -2 20 22 L20 197 Q20 221 32 241 Q44 261 64 273 Q84 285 108 285 L283 285 Z M750 285 Q774 285 794 273 Q814 261 826 241 Q838 221 838 197 L838 22 Q838 -2 826 -22 Q814 -42 794 -54 Q774 -66 750 -66 L575 -66 Q551 -66 531 -54 Q511 -42 499 -22 Q487 -2 487 22 L487 197 Q487 221 499 241 Q511 261 531 273 Q551 285 575 285 L750 285 Z " />
<glyph glyph-name="uF0201" unicode="&#xf0201;" horiz-adv-x="615" d="M102 488 Q88 503 88 524 Q88 545 102 560 L272 729 Q278 737 288 740 L289 740 Q294 742 298 743 Q302 744 307 744 Q318 744 326 740 L327 740 Q337 737 343 729 L512 560 Q527 545 527 524 Q527 503 512 488 Q505 480 496 476.5 Q487 473 477 473 Q456 473 441 488 L358 571 L358 220 Q358 199 343 184 Q328 169 307 169 Q286 169 271.5 184 Q257 199 257 220 L257 571 L174 488 Q159 473 138 473 Q117 473 102 488 Z M544 101 Q565 101 580 86.5 Q595 72 595 51 Q595 30 580 15 Q565 0 544 0 L71 0 Q50 0 35 15 Q20 30 20 51 Q20 72 35 86.5 Q50 101 71 101 L544 101 Z " />
<glyph glyph-name="uF0202" unicode="&#xf0202;" horiz-adv-x="615" d="M544 709 Q565 709 580 694 Q595 679 595 658 Q595 637 580 622.5 Q565 608 544 608 L71 608 Q50 608 35 622.5 Q20 637 20 658 Q20 679 35 694 Q50 709 71 709 L544 709 Z M512 221 Q527 206 527 185 Q527 164 512 149 L343 -20 Q337 -28 327 -31 L326 -31 Q318 -35 307 -35 Q302 -35 298 -34 Q294 -33 289 -31 L288 -31 Q278 -28 272 -20 L102 149 Q88 164 88 185 Q88 206 102 221 Q117 235 138 235 Q159 235 174 221 L257 138 L257 489 Q257 510 271.5 525 Q286 540 307 540 Q328 540 343 525 Q358 510 358 489 L358 138 L441 221 Q456 235 477 235 Q498 235 512 221 Z " />
<glyph glyph-name="uF0203" unicode="&#xf0203;" horiz-adv-x="701" d="M650 266 Q665 258 673 243.5 Q681 229 681.5 212.5 Q682 196 673 181 Q664 166 649.5 158 Q635 150 619 150 Q611 150 603.5 152 Q596 154 588 158 L413 260 L413 57 Q413 40 404.5 26 Q396 12 382 3.5 Q368 -5 351 -5 Q334 -5 319.5 3.5 Q305 12 296.5 26 Q288 40 288 57 L288 260 L113 158 Q106 154 98 152 Q90 150 82 150 Q66 150 51.5 158 Q37 166 28 181 Q20 196 20 212.5 Q20 229 28 243.5 Q36 258 51 266 L226 367 L51 468 Q36 476 28 490.5 Q20 505 20 521.5 Q20 538 28 553 Q36 568 50.5 576 Q65 584 81.5 584 Q98 584 113 576 L288 474 L288 677 Q288 694 296.5 708 Q305 722 319.5 730.5 Q334 739 351 739 Q368 739 382 730.5 Q396 722 404.5 708 Q413 694 413 677 L413 474 L588 576 Q603 584 619.5 584 Q636 584 650 576 Q664 568 673 553 Q682 538 681.5 521.5 Q681 505 673 490.5 Q665 476 650 468 L475 367 L650 266 Z " />
<glyph glyph-name="uF0301" unicode="&#xf0301;" horiz-adv-x="513" d="M290 611 Q373 602 424.5 544 Q476 486 493 379 Q494 372 490 366 Q485 361 478 361 L36 361 Q29 361 24 366 Q22 369 20.5 372 Q19 375 20 379 Q56 593 227 611 Q232 669 264 701 Q300 739 367 739 L445 739 Q458 739 467 729.5 Q476 720 476 707 Q476 694 467 685 Q458 676 445 676 L367 676 Q327 676 309 657 Q302 650 297 638 Q292 626 290 611 Z M408 328 Q424 331 437.5 322 Q451 313 453 297 Q456 280 447 267 Q438 254 421 251 Q405 248 391.5 257 Q378 266 376 283 Q373 299 382.5 312.5 Q392 326 408 328 Z M250 328 Q266 331 279.5 322 Q293 313 296 297 Q298 280 289 267 Q280 254 264 251 Q248 248 234.5 257 Q221 266 218 283 Q215 299 224.5 312.5 Q234 326 250 328 Z M138 297 Q141 280 131.5 267 Q122 254 106 251 Q90 248 76.5 257 Q63 266 60 283 Q57 299 66.5 312.5 Q76 326 92 328 Q108 331 121.5 322 Q135 313 138 297 Z M408 202 Q424 205 437.5 195.5 Q451 186 453 170 Q456 154 447 141 Q438 128 421 125 Q405 122 391.5 131 Q378 140 376 157 Q373 173 382.5 186.5 Q392 200 408 202 Z M92 202 Q108 205 121.5 195.5 Q135 186 138 170 Q141 154 131.5 141 Q122 128 106 125 Q90 122 76.5 131 Q63 140 60 157 Q57 173 66.5 186.5 Q76 200 92 202 Z M250 202 Q266 205 279.5 195.5 Q293 186 296 170 Q298 154 289 141 Q280 128 264 125 Q248 122 234.5 131 Q221 140 218 157 Q215 173 224.5 186.5 Q234 200 250 202 Z M408 76 Q424 79 437.5 69.5 Q451 60 453 44 Q456 28 447 14.5 Q438 1 421 -1 Q405 -4 391.5 5 Q378 14 376 31 Q373 47 382.5 60 Q392 73 408 76 Z M92 76 Q108 79 121.5 69.5 Q135 60 138 44 Q141 28 131.5 14.5 Q122 1 106 -1 Q90 -4 76.5 5 Q63 14 60 31 Q57 47 66.5 60 Q76 73 92 76 Z M250 76 Q266 79 279.5 69.5 Q293 60 296 44 Q298 28 289 14.5 Q280 1 264 -1 Q248 -4 234.5 5 Q221 14 218 31 Q215 47 224.5 60 Q234 73 250 76 Z " />
<glyph glyph-name="uF0302" unicode="&#xf0302;" horiz-adv-x="896" d="M121 655 Q121 676 131 693 Q141 710 158.5 720.5 Q176 731 197 731 L698 731 Q719 731 736 720.5 Q753 710 763.5 693 Q774 676 774 655 L774 520 Q755 520 737.5 510.5 Q720 501 705.5 486 Q691 471 682.5 452.5 Q674 434 674 415 L674 255 L222 255 L222 415 Q222 435 213.5 453.5 Q205 472 190 487.5 Q175 503 157 512 Q139 521 121 521 L121 655 Z M800 468 Q818 468 835.5 460.5 Q853 453 864.5 436.5 Q876 420 876 392 Q876 370 872 357.5 Q868 345 862 338.5 Q856 332 849 327 Q842 322 833.5 313.5 Q825 305 825 290 L825 116 Q825 106 817.5 98.5 Q810 91 800 91 L774 91 L774 23 Q774 8 766 1.5 Q758 -5 749 -5 Q736 -5 728 -0.5 Q720 4 710 23 L678 91 L217 91 L184 23 Q174 4 166 -0.5 Q158 -5 145 -5 Q137 -5 128.5 1.5 Q120 8 120 23 L120 91 L96 91 Q86 91 78.5 98.5 Q71 106 71 116 Q71 118 71 130.5 Q71 143 71 161.5 Q71 180 71 201 Q71 222 71 241 Q71 260 71 274 Q71 288 71 292 Q70 306 62.5 314 Q55 322 48 328 Q41 334 34.5 341 Q28 348 24 360 Q20 372 20 392 Q20 468 96 468 Q114 468 131.5 462 Q149 456 160.5 440 Q172 424 172 392 L172 256 Q172 235 187 220 Q202 205 223 205 L673 205 Q694 205 709 220 Q724 235 724 256 L724 392 Q724 418 733 433.5 Q742 449 755 456.5 Q768 464 780.5 466 Q793 468 800 468 Z " />
<glyph glyph-name="uF0303" unicode="&#xf0303;" horiz-adv-x="695" d="M181 573 L546 573 L458 667 Q448 679 448 696 Q448 713 458 725 Q469 737 485 737 Q501 737 512 725 L664 561 Q675 549 675 532 Q675 515 664 503 L512 339 Q501 327 485 327 Q469 327 458 339 Q448 351 448 368 Q448 385 458 397 L546 491 L181 491 Q165 491 154 503 Q143 515 143 532 Q143 549 154 561 Q165 573 181 573 Z M515 163 L150 163 L237 69 Q248 57 248 40 Q248 23 237 11 Q226 -1 210 -1 Q194 -1 183 11 L31 175 Q20 187 20 204 Q20 221 31 233 L183 397 Q194 409 210 409 Q226 409 237 397 Q248 385 248 368 Q248 351 237 339 L150 245 L515 245 Q531 245 542 233 Q553 221 553 204 Q553 187 542 175 Q531 163 515 163 Z " />
<glyph glyph-name="uF0401" unicode="&#xf0401;" horiz-adv-x="784" d="M392 739 Q453 739 509 720 Q565 701 611.5 667 Q658 633 692 586.5 Q726 540 745 484 Q764 428 764 367 Q764 306 745 250 Q726 194 692 147.5 Q658 101 611.5 67 Q565 33 509.5 14 Q454 -5 392 -5 Q331 -5 275 14 Q219 33 172.5 67 Q126 101 92 147.5 Q58 194 39 250 Q20 306 20 367 Q20 428 39 484 Q58 540 92 586.5 Q126 633 172.5 667 Q219 701 274.5 720 Q330 739 392 739 Z M180 252 Q189 250 193 256 L503 566 Q509 570 507 579 Q506 586 499 591 Q474 602 447 608.5 Q420 615 392 615 Q341 615 296 595.5 Q251 576 217 542 Q183 508 163.5 463 Q144 418 144 367 Q144 338 150.5 311.5 Q157 285 168 260 Q173 253 180 252 Z M392 119 Q443 119 488 138.5 Q533 158 567 192 Q601 226 620.5 271 Q640 316 640 367 Q640 396 633.5 422.5 Q627 449 616 474 Q611 481 604 482 Q595 484 591 478 L281 168 Q275 164 277 155 Q278 148 285 143 Q310 132 337 125.5 Q364 119 392 119 Z " />
<glyph glyph-name="uF0402" unicode="&#xf0402;" horiz-adv-x="932" d="M838 618 Q858 618 875 608 Q892 598 902 581 Q912 564 912 544 L912 69 Q912 48 902 31.5 Q892 15 875 5 Q858 -5 838 -5 L94 -5 Q74 -5 57 5 Q40 15 30 31.5 Q20 48 20 69 L20 544 Q20 564 30 581 Q40 598 57 608 Q74 618 94 618 L838 618 Z M862 382 L862 452 Q862 460 856 466.5 Q850 473 842 473 L90 473 Q82 473 76 466.5 Q70 460 70 452 L70 382 Q70 374 76 368 Q82 362 90 362 L842 362 Q850 362 856 368 Q862 374 862 382 Z " />
<glyph glyph-name="uF0403" unicode="&#xf0403;" horiz-adv-x="890" d="M866 732 Q870 728 870 723 Q870 718 868 713 L478 4 Q474 -3 465 -5 L463 -5 Q454 -5 450 1 L340 120 Q334 126 327 126 Q323 126 319.5 124 Q316 122 314 120 L252 52 Q249 48 244.5 46.5 Q240 45 235 46 Q225 49 222 59 L154 318 Q153 322 150 326 L25 461 Q18 470 21 478 Q22 482 25 485 Q28 488 33 490 L847 738 Q858 741 866 732 Z M719 632 Q723 634 721 638 Q719 641 715 639 L209 385 Q208 385 206 383 Q193 376 190 361.5 Q187 347 195 334 Q203 322 217.5 319 Q232 316 244 324 L719 632 Z " />
<glyph glyph-name="uF0404" unicode="&#xf0404;" horiz-adv-x="714" d="M30 611 Q46 650 70 676.5 Q94 703 121.5 718.5 Q149 734 174 738 Q188 741 200.5 736 Q213 731 222 715 Q230 701 238.5 686 Q247 671 259 648.5 Q271 626 289 589 Q294 580 296.5 572 Q299 564 296.5 554.5 Q294 545 284 531 Q272 514 261 497.5 Q250 481 241.5 468.5 Q233 456 230 452 Q222 442 220 428.5 Q218 415 229 402 Q244 383 262.5 361.5 Q281 340 299 318.5 Q317 297 332.5 278.5 Q348 260 358.5 247.5 Q369 235 371 232 Q377 224 391 221 Q405 218 420 225 L507 264 Q524 272 536 272 Q548 272 564 259 Q596 234 616 218.5 Q636 203 650 191.5 Q664 180 676 170 Q690 159 693 147 Q696 135 690 119 Q677 88 655.5 64.5 Q634 41 608.5 25.5 Q583 10 557.5 2.5 Q532 -5 512 -5 Q481 -5 445.5 7 Q410 19 372.5 40.5 Q335 62 299 89.5 Q263 117 231 148 Q199 179 173 210 Q145 244 118 285.5 Q91 327 70 371.5 Q49 416 35.5 460 Q22 504 20 543 Q18 582 30 611 Z " />
<glyph glyph-name="uF0405" unicode="&#xf0405;" horiz-adv-x="761" d="M734 20 Q733 12 726.5 6 Q720 0 712 0 L334 0 Q326 0 319 6 Q312 12 311 20 Q310 33 309 45.5 Q308 58 307 72 Q305 110 305 148.5 Q305 187 308 221.5 Q311 256 315.5 283 Q320 310 327 323 Q338 345 364 369.5 Q390 394 436 427 Q448 436 452 440 Q456 444 454 448.5 Q452 453 445 461 Q421 489 408.5 526 Q396 563 396 610 Q396 646 413 674.5 Q430 703 459 719.5 Q488 736 523 736 Q533 736 542 734.5 Q551 733 559 731 Q586 724 606 706.5 Q626 689 637.5 664.5 Q649 640 649 610 Q649 516 601 461 Q594 453 592 448.5 Q590 444 594 440 Q598 436 610 427 Q656 394 682 369.5 Q708 345 718 323 Q725 310 729.5 285.5 Q734 261 737 228.5 Q740 196 740.5 160 Q741 124 739.5 88 Q738 52 734 20 Z M250 519 Q270 519 283 505.5 Q296 492 296 473 Q296 454 283 440.5 Q270 427 250 427 L204 427 L204 381 Q204 362 190.5 348.5 Q177 335 158 335 Q139 335 125.5 348.5 Q112 362 112 381 L112 427 L66 427 Q53 427 42 435 Q32 441 26 451 Q20 461 20 473 Q20 485 26 495 Q32 505 42 511 Q53 519 66 519 L112 519 L112 565 Q112 584 125.5 597.5 Q139 611 158 611 Q177 611 190.5 597.5 Q204 584 204 565 L204 519 L250 519 Z " />
</font>
</svg>
