<?xml version="1.0" encoding="UTF-8"?>
<svg xmlns="http://www.w3.org/2000/svg" xmlns:xlink="http://www.w3.org/1999/xlink" version="1.2" >
<font id="Masbul Medium">
<font-face  font-family="Masbul" units-per-em="1000" ascent="1009" descent="-293" font-style="normal" font-weight="500" font-stretch="normal" cap-height="710" x-height="523" underline-position="-100" underline-thickness="63" />
<missing-glyph  horiz-adv-x="500" d="M450 0 L50 0 L50 750 L450 750 L450 0 Z M100 50 L400 50 L400 700 L100 700 L100 50 Z " />
<glyph glyph-name="uni0000" d="" />
<glyph glyph-name="uni0020" unicode="&#x20;" horiz-adv-x="213" d="" />
<glyph glyph-name="uni000D002" unicode="&#xd;" horiz-adv-x="213" d="" />
<glyph glyph-name="uni002E" unicode="&#x2e;" horiz-adv-x="254" d="M127 -4 Q106 -4 89 6 Q72 16 61.5 33.5 Q51 51 51 72 Q51 93 61.5 110.5 Q72 128 89 138 Q106 148 127 148 Q148 148 165 138 Q182 128 192.5 110.5 Q203 93 203 72 Q203 51 192.5 33.5 Q182 16 165 6 Q148 -4 127 -4 Z " />
<glyph glyph-name="uni003A" unicode="&#x3a;" horiz-adv-x="254" d="M127 -4 Q106 -4 89 6 Q72 16 61.5 33.5 Q51 51 51 72 Q51 93 61.5 110.5 Q72 128 89 138 Q106 148 127 148 Q148 148 165 138 Q182 128 192.5 110.5 Q203 93 203 72 Q203 51 192.5 33.5 Q182 16 165 6 Q148 -4 127 -4 Z M127 375 Q106 375 89 385 Q72 395 61.5 412.5 Q51 430 51 451 Q51 472 61.5 489.5 Q72 507 89 517 Q106 527 127 527 Q148 527 165 517 Q182 507 192.5 489.5 Q203 472 203 451 Q203 430 192.5 412.5 Q182 395 165 385 Q148 375 127 375 Z " />
<glyph glyph-name="uni002C" unicode="&#x2c;" horiz-adv-x="254" d="M76 -173 L52 -106 Q95 -91 120.5 -61.5 Q146 -32 146 3 Q146 16 143 27 Q130 17 113 17 Q96 17 81.5 25.5 Q67 34 58.5 49 Q50 64 50 82 Q50 100 60 115 Q70 130 86.5 139 Q103 148 123 148 Q152 148 175.5 130.5 Q199 113 212.5 83 Q226 53 226 16 Q226 -28 207.5 -65.5 Q189 -103 155.5 -130.5 Q122 -158 76 -173 Z " />
<glyph glyph-name="uni003B" unicode="&#x3b;" horiz-adv-x="254" d="M76 -173 L52 -106 Q95 -91 120.5 -61.5 Q146 -32 146 3 Q146 16 143 27 Q130 17 113 17 Q96 17 81.5 25.5 Q67 34 58.5 49 Q50 64 50 82 Q50 100 60 115 Q70 130 86.5 139 Q103 148 123 148 Q152 148 175.5 130.5 Q199 113 212.5 83 Q226 53 226 16 Q226 -28 207.5 -65.5 Q189 -103 155.5 -130.5 Q122 -158 76 -173 Z M127 375 Q106 375 89 385 Q72 395 61.5 412.5 Q51 430 51 451 Q51 472 61.5 489.5 Q72 507 89 517 Q106 527 127 527 Q148 527 165 517 Q182 507 192.5 489.5 Q203 472 203 451 Q203 430 192.5 412.5 Q182 395 165 385 Q148 375 127 375 Z " />
<glyph glyph-name="uni003F" unicode="&#x3f;" horiz-adv-x="525" d="M193 208 L193 363 Q279 384 323.5 422.5 Q368 461 368 514 Q368 545 353.5 569 Q339 593 313.5 606.5 Q288 620 255 620 Q210 620 176 595 Q142 570 128 526 L20 552 Q32 603 65.5 642 Q99 681 148 703 Q197 725 256 725 Q306 725 348.5 709.5 Q391 694 422.5 666 Q454 638 471.5 600.5 Q489 563 489 519 Q489 469 467 426 Q445 383 403.5 351.5 Q362 320 305 302 L305 208 L193 208 Z M249 -4 Q228 -4 211.5 6 Q195 16 185 33 Q175 50 175 70 Q175 90 185 107 Q195 124 211.5 134 Q228 144 249 144 Q270 144 286.5 134 Q303 124 313 107 Q323 90 323 70 Q323 50 313 33 Q303 16 286.5 6 Q270 -4 249 -4 Z " />
<glyph glyph-name="uni0021" unicode="&#x21;" horiz-adv-x="250" d="M69 208 L63 710 L187 710 L181 208 L69 208 Z M125 -4 Q104 -4 87.5 6 Q71 16 61 33 Q51 50 51 70 Q51 90 61 107 Q71 124 87.5 134 Q104 144 125 144 Q146 144 162.5 134 Q179 124 189 107 Q199 90 199 70 Q199 50 189 33 Q179 16 162.5 6 Q146 -4 125 -4 Z " />
<glyph glyph-name="uni00BF" unicode="&#xbf;" horiz-adv-x="497" d="M268 379 Q248 379 231 389 Q214 399 204 415.5 Q194 432 194 453 Q194 474 204 490.5 Q214 507 231 517 Q248 527 268 527 Q288 527 305 517 Q322 507 332 490.5 Q342 474 342 453 Q342 432 332 415.5 Q322 399 305 389 Q288 379 268 379 Z M261 -202 Q211 -202 168.5 -186.5 Q126 -171 94.5 -143 Q63 -115 45.5 -77.5 Q28 -40 28 4 Q28 54 50 97 Q72 140 113.5 171.5 Q155 203 212 221 L212 315 L324 315 L324 160 Q238 139 193.5 100.5 Q149 62 149 9 Q149 -22 163.5 -46 Q178 -70 203 -83.5 Q228 -97 262 -97 Q307 -97 341.5 -71.5 Q376 -46 389 -3 L497 -29 Q484 -80 451 -119 Q418 -158 369 -180 Q320 -202 261 -202 Z " />
<glyph glyph-name="uni00A1" unicode="&#xa1;" horiz-adv-x="250" d="M125 379 Q104 379 87.5 389 Q71 399 61 415.5 Q51 432 51 453 Q51 474 61 490.5 Q71 507 87.5 517 Q104 527 125 527 Q146 527 162.5 517 Q179 507 189 490.5 Q199 474 199 453 Q199 432 189 415.5 Q179 399 162.5 389 Q146 379 125 379 Z M63 -187 L69 315 L181 315 L187 -187 L63 -187 Z " />
<glyph glyph-name="uni0027" unicode="&#x27;" horiz-adv-x="216" d="M61 440 L56 710 L160 710 L155 440 L61 440 Z " />
<glyph glyph-name="uni0022" unicode="&#x22;" horiz-adv-x="405" d="M61 440 L56 710 L160 710 L155 440 L61 440 Z M250 440 L245 710 L349 710 L344 440 L250 440 Z " />
<glyph glyph-name="uni2026" unicode="&#x2026;" horiz-adv-x="762" d="M127 -4 Q106 -4 89 6 Q72 16 61.5 33.5 Q51 51 51 72 Q51 93 61.5 110.5 Q72 128 89 138 Q106 148 127 148 Q148 148 165 138 Q182 128 192.5 110.5 Q203 93 203 72 Q203 51 192.5 33.5 Q182 16 165 6 Q148 -4 127 -4 Z M381 -4 Q360 -4 343 6 Q326 16 315.5 33.5 Q305 51 305 72 Q305 93 315.5 110.5 Q326 128 343 138 Q360 148 381 148 Q402 148 419 138 Q436 128 446.5 110.5 Q457 93 457 72 Q457 51 446.5 33.5 Q436 16 419 6 Q402 -4 381 -4 Z M635 -4 Q614 -4 597 6 Q580 16 569.5 33.5 Q559 51 559 72 Q559 93 569.5 110.5 Q580 128 597 138 Q614 148 635 148 Q656 148 673 138 Q690 128 700.5 110.5 Q711 93 711 72 Q711 51 700.5 33.5 Q690 16 673 6 Q656 -4 635 -4 Z " />
<glyph glyph-name="uni00A0" unicode="&#xa0;" horiz-adv-x="213" d="" />
<glyph glyph-name="uni2000" unicode="&#x2000;" horiz-adv-x="500" d="" />
<glyph glyph-name="uni2001" unicode="&#x2001;" horiz-adv-x="1000" d="" />
<glyph glyph-name="uni2002" unicode="&#x2002;" horiz-adv-x="500" d="" />
<glyph glyph-name="uni2003" unicode="&#x2003;" horiz-adv-x="1000" d="" />
<glyph glyph-name="uni2004" unicode="&#x2004;" horiz-adv-x="333" d="" />
<glyph glyph-name="uni2005" unicode="&#x2005;" horiz-adv-x="250" d="" />
<glyph glyph-name="uni2006" unicode="&#x2006;" horiz-adv-x="166" d="" />
<glyph glyph-name="uni2007" unicode="&#x2007;" horiz-adv-x="594" d="" />
<glyph glyph-name="uni2008" unicode="&#x2008;" horiz-adv-x="254" d="" />
<glyph glyph-name="uni2009" unicode="&#x2009;" horiz-adv-x="200" d="" />
<glyph glyph-name="uni200A" unicode="&#x200a;" horiz-adv-x="63" d="" />
<glyph glyph-name="uni200B" unicode="&#x200b;" d="" />
<glyph glyph-name="uni0030" unicode="0" horiz-adv-x="612" d="M304 -15 Q244 -15 196 9.5 Q148 34 114 81 Q80 128 62.5 194 Q45 260 45 342 Q45 427 63.5 494 Q82 561 117 608 Q152 655 201 680 Q250 705 310 705 Q371 705 418.5 680 Q466 655 499 608 Q532 561 549.5 495.5 Q567 430 567 348 Q567 264 549 197 Q531 130 496.5 82.5 Q462 35 413.5 10 Q365 -15 304 -15 Z M306 93 Q373 93 410.5 158.5 Q448 224 448 345 Q448 466 410.5 531.5 Q373 597 306 597 Q239 597 201.5 531.5 Q164 466 164 345 Q164 224 201.5 158.5 Q239 93 306 93 Z " />
<glyph glyph-name="uni0031" unicode="1" horiz-adv-x="431" d="M210 0 L210 563 L60 479 L19 576 L228 690 L326 690 L326 0 L210 0 Z " />
<glyph glyph-name="uni0032" unicode="2" horiz-adv-x="567" d="M47 0 L47 88 Q98 130 136.5 163.5 Q175 197 205 225 Q235 253 261 279 Q306 324 333.5 358 Q361 392 374 422 Q387 452 387 484 Q387 519 373 545 Q359 571 334.5 585.5 Q310 600 277 600 Q232 600 199 571.5 Q166 543 153 493 L43 515 Q56 572 89.5 615 Q123 658 172.5 681.5 Q222 705 280 705 Q329 705 370 688.5 Q411 672 441.5 642.5 Q472 613 488.5 573.5 Q505 534 505 487 Q505 444 489 403 Q473 362 438.5 318 Q404 274 350 221 Q294 166 221 105 L517 105 L517 0 L47 0 Z " />
<glyph glyph-name="uni0033" unicode="3" horiz-adv-x="565" d="M277 -15 Q218 -15 167.5 5.5 Q117 26 80.5 67 Q44 108 29 167 L137 188 Q153 140 189 114 Q225 88 275 88 Q312 88 341 102 Q370 116 386.5 141 Q403 166 403 198 Q403 230 386.5 254.5 Q370 279 340.5 292 Q311 305 271 305 L197 305 L197 407 L266 407 Q303 407 330.5 419.5 Q358 432 373 455 Q388 478 388 508 Q388 536 374 557 Q360 578 335.5 590 Q311 602 278 602 Q233 602 198.5 577 Q164 552 150 505 L42 526 Q54 580 88 620 Q122 660 172 682.5 Q222 705 283 705 Q331 705 371.5 691.5 Q412 678 442 653 Q472 628 488.5 593.5 Q505 559 505 517 Q505 465 478.5 425 Q452 385 403 362 Q458 342 489.5 298 Q521 254 521 195 Q521 150 502.5 111.5 Q484 73 451 45 Q418 17 373.5 1 Q329 -15 277 -15 Z " />
<glyph glyph-name="uni0034" unicode="4" horiz-adv-x="592" d="M356 0 L356 151 L34 151 L34 244 L343 690 L470 690 L470 250 L552 250 L552 151 L470 151 L470 0 L356 0 Z M149 250 L356 250 L356 547 L149 250 Z " />
<glyph glyph-name="uni0035" unicode="5" horiz-adv-x="556" d="M278 -15 Q218 -15 168.5 7 Q119 29 84 69.5 Q49 110 35 164 L145 183 Q161 138 196.5 113 Q232 88 278 88 Q315 88 344.5 104.5 Q374 121 390.5 149.5 Q407 178 407 215 Q407 251 390.5 279 Q374 307 345 323 Q316 339 279 339 Q247 339 217 326.5 Q187 314 167 294 L73 304 L73 690 L474 690 L474 583 L183 583 L183 404 Q230 442 301 442 Q349 442 390 425 Q431 408 461 377.5 Q491 347 508 306 Q525 265 525 217 Q525 167 506 124.5 Q487 82 453 50.5 Q419 19 374.5 2 Q330 -15 278 -15 Z " />
<glyph glyph-name="uni0036" unicode="6" horiz-adv-x="593" d="M315 -15 Q255 -15 205.5 9 Q156 33 120.5 77 Q85 121 65.5 183.5 Q46 246 46 322 Q46 405 69 475 Q92 545 134 596.5 Q176 648 234 676.5 Q292 705 363 705 Q407 705 447 693.5 Q487 682 522 659 L487 563 Q462 579 430.5 588.5 Q399 598 365 598 Q309 598 265.5 570.5 Q222 543 195.5 488.5 Q169 434 162 355 Q187 396 230.5 419.5 Q274 443 332 443 Q381 443 423 426 Q465 409 496 378.5 Q527 348 544.5 307.5 Q562 267 562 220 Q562 170 543.5 127.5 Q525 85 491 53 Q457 21 412 3 Q367 -15 315 -15 Z M314 87 Q351 87 380.5 104.5 Q410 122 427 151.5 Q444 181 444 218 Q444 255 427 283.5 Q410 312 381 328.5 Q352 345 315 345 Q278 345 249 328.5 Q220 312 203 284 Q186 256 186 219 Q186 182 203 152 Q220 122 249 104.5 Q278 87 314 87 Z " />
<glyph glyph-name="uni0037" unicode="7" horiz-adv-x="552" d="M127 0 L380 583 L35 583 L35 690 L509 690 L509 600 L257 0 L127 0 Z " />
<glyph glyph-name="uni0038" unicode="8" horiz-adv-x="590" d="M294 -15 Q238 -15 191.5 0 Q145 15 111.5 42 Q78 69 59.5 107 Q41 145 41 190 Q41 249 72.5 294.5 Q104 340 160 361 Q113 384 88 423.5 Q63 463 63 512 Q63 554 80.5 589.5 Q98 625 129.5 650.5 Q161 676 203.5 690.5 Q246 705 296 705 Q346 705 387.5 691 Q429 677 460.5 651 Q492 625 509 590.5 Q526 556 526 514 Q526 465 501.5 425.5 Q477 386 431 362 Q487 342 518 297.5 Q549 253 549 194 Q549 148 530.5 109.5 Q512 71 477.5 43 Q443 15 396.5 0 Q350 -15 294 -15 Z M295 406 Q329 406 355.5 419 Q382 432 397 454 Q412 476 412 505 Q412 534 397 556 Q382 578 355.5 591 Q329 604 295 604 Q261 604 234.5 591 Q208 578 193 556 Q178 534 178 505 Q178 476 193 454 Q208 432 234.5 419 Q261 406 295 406 Z M295 86 Q336 86 366.5 100 Q397 114 414 139 Q431 164 431 197 Q431 230 414 255 Q397 280 366.5 294 Q336 308 295 308 Q254 308 223.5 294 Q193 280 176 255 Q159 230 159 197 Q159 164 176 139 Q193 114 223.5 100 Q254 86 295 86 Z " />
<glyph glyph-name="uni0039" unicode="9" horiz-adv-x="590" d="M231 -15 Q136 -15 65 31 L100 127 Q125 111 157.5 101.5 Q190 92 228 92 Q283 92 326 115.5 Q369 139 396 192.5 Q423 246 429 335 Q404 294 360.5 270.5 Q317 247 259 247 Q210 247 168.5 264 Q127 281 96 311.5 Q65 342 48 382.5 Q31 423 31 470 Q31 520 49.5 562.5 Q68 605 101.5 637 Q135 669 179.5 687 Q224 705 277 705 Q337 705 386 681.5 Q435 658 470.5 613.5 Q506 569 525 505 Q544 441 544 360 Q544 271 521.5 201 Q499 131 457 83 Q415 35 357.5 10 Q300 -15 231 -15 Z M276 345 Q313 345 342 361.5 Q371 378 387.5 406 Q404 434 404 471 Q404 508 387 538 Q370 568 341.5 585.5 Q313 603 277 603 Q241 603 212 585.5 Q183 568 166 538.5 Q149 509 149 472 Q149 435 165.5 406.5 Q182 378 211 361.5 Q240 345 276 345 Z " />
<glyph glyph-name="uni2080" unicode="&#x2080;" horiz-adv-x="357" d="M178 -9 Q132 -9 98.5 14.5 Q65 38 46.5 83 Q28 128 28 190 Q28 251 46 295.5 Q64 340 97.5 364.5 Q131 389 178 389 Q224 389 257.5 365.5 Q291 342 309.5 297 Q328 252 328 190 Q328 129 310 84.5 Q292 40 258.5 15.5 Q225 -9 178 -9 Z M178 67 Q209 67 226 98.5 Q243 130 243 190 Q243 250 226 281.5 Q209 313 178 313 Q147 313 130 281.5 Q113 250 113 190 Q113 130 130 98.5 Q147 67 178 67 Z " />
<glyph glyph-name="uni2081" unicode="&#x2081;" horiz-adv-x="357" d="M166 0 L166 292 L83 248 L57 317 L177 380 L249 380 L249 0 L166 0 Z " />
<glyph glyph-name="uni2082" unicode="&#x2082;" horiz-adv-x="357" d="M44 0 L44 61 Q66 78 88.5 97 Q111 116 129.5 132 Q148 148 157 156 Q191 186 208.5 213.5 Q226 241 226 265 Q226 285 212.5 300 Q199 315 176 315 Q156 315 140 302.5 Q124 290 118 265 L40 278 Q46 311 66 336 Q86 361 115.5 375 Q145 389 180 389 Q218 389 247.5 373 Q277 357 294 329.5 Q311 302 311 267 Q311 228 288.5 193 Q266 158 222 119 Q210 108 196 97 Q182 86 167 74 L318 74 L318 0 L44 0 Z " />
<glyph glyph-name="uni2083" unicode="&#x2083;" horiz-adv-x="357" d="M174 -9 Q117 -9 79.5 19.5 Q42 48 30 95 L107 108 Q113 88 130 76 Q147 64 171 64 Q197 64 214.5 77.5 Q232 91 232 113 Q232 133 216 146 Q200 159 173 159 L132 159 L132 231 L167 231 Q192 231 208 243.5 Q224 256 224 275 Q224 293 209 304.5 Q194 316 172 316 Q151 316 135.5 306 Q120 296 114 276 L37 289 Q44 320 63.5 342 Q83 364 112 376.5 Q141 389 177 389 Q214 389 243.5 375.5 Q273 362 290 338 Q307 314 307 283 Q307 255 292.5 233.5 Q278 212 251 199 Q282 187 299 163.5 Q316 140 316 107 Q316 74 297.5 47.5 Q279 21 247 6 Q215 -9 174 -9 Z " />
<glyph glyph-name="uni2084" unicode="&#x2084;" horiz-adv-x="357" d="M199 0 L199 76 L22 76 L22 143 L186 380 L280 380 L280 145 L321 145 L321 76 L280 76 L280 0 L199 0 Z M101 145 L199 145 L199 286 L101 145 Z " />
<glyph glyph-name="uni2044" unicode="&#x2044;" horiz-adv-x="93" d="M-217 0 L219 690 L310 690 L-126 0 L-217 0 Z " />
<glyph glyph-name="uni0025" unicode="&#x25;" horiz-adv-x="743" d="M191 387 Q146 387 111 407 Q76 427 55.5 462 Q35 497 35 542 Q35 587 55.5 622.5 Q76 658 112 678.5 Q148 699 193 699 Q238 699 273 678.5 Q308 658 328.5 623 Q349 588 349 543 Q349 498 328.5 463 Q308 428 272 407.5 Q236 387 191 387 Z M204 0 L108 0 L539 690 L635 690 L204 0 Z M124 543 Q124 520 133 502.5 Q142 485 157 475 Q172 465 192 465 Q212 465 227 475 Q242 485 251 502.5 Q260 520 260 543 Q260 566 251 583.5 Q242 601 227 611 Q212 621 192 621 Q172 621 157 611 Q142 601 133 583.5 Q124 566 124 543 Z M550 -9 Q506 -9 470.5 11 Q435 31 414.5 66 Q394 101 394 146 Q394 191 414.5 226.5 Q435 262 470.5 282.5 Q506 303 552 303 Q596 303 631.5 282.5 Q667 262 687.5 227 Q708 192 708 147 Q708 102 687.5 67 Q667 32 631.5 11.5 Q596 -9 550 -9 Z M551 69 Q570 69 585.5 79 Q601 89 610 106.5 Q619 124 619 147 Q619 170 610 187.5 Q601 205 585.5 215 Q570 225 551 225 Q532 225 516.5 215 Q501 205 492 187.5 Q483 170 483 147 Q483 124 492 106.5 Q501 89 516.5 79 Q532 69 551 69 Z " />
<glyph glyph-name="uni2030" unicode="&#x2030;" horiz-adv-x="1104" d="M191 387 Q146 387 111 407 Q76 427 55.5 462 Q35 497 35 542 Q35 587 55.5 622.5 Q76 658 112 678.5 Q148 699 193 699 Q238 699 273 678.5 Q308 658 328.5 623 Q349 588 349 543 Q349 498 328.5 463 Q308 428 272 407.5 Q236 387 191 387 Z M204 0 L108 0 L539 690 L635 690 L204 0 Z M124 543 Q124 520 133 502.5 Q142 485 157 475 Q172 465 192 465 Q212 465 227 475 Q242 485 251 502.5 Q260 520 260 543 Q260 566 251 583.5 Q242 601 227 611 Q212 621 192 621 Q172 621 157 611 Q142 601 133 583.5 Q124 566 124 543 Z M550 -9 Q506 -9 470.5 11 Q435 31 414.5 66 Q394 101 394 146 Q394 191 414.5 226.5 Q435 262 470.5 282.5 Q506 303 552 303 Q596 303 631.5 282.5 Q667 262 687.5 227 Q708 192 708 147 Q708 102 687.5 67 Q667 32 631.5 11.5 Q596 -9 550 -9 Z M911 -9 Q866 -9 831 11 Q796 31 775.5 66 Q755 101 755 146 Q755 191 775.5 226.5 Q796 262 832 282.5 Q868 303 913 303 Q958 303 993 282.5 Q1028 262 1048.5 227 Q1069 192 1069 147 Q1069 102 1048.5 67 Q1028 32 992 11.5 Q956 -9 911 -9 Z M551 69 Q570 69 585.5 79 Q601 89 610 106.5 Q619 124 619 147 Q619 170 610 187.5 Q601 205 585.5 215 Q570 225 551 225 Q532 225 516.5 215 Q501 205 492 187.5 Q483 170 483 147 Q483 124 492 106.5 Q501 89 516.5 79 Q532 69 551 69 Z M912 69 Q932 69 947 79 Q962 89 971 106.5 Q980 124 980 147 Q980 170 971 187.5 Q962 205 947 215 Q932 225 912 225 Q892 225 877 215 Q862 205 853 187.5 Q844 170 844 147 Q844 124 853 106.5 Q862 89 877 79 Q892 69 912 69 Z " />
<glyph glyph-name="uni00BD" unicode="&#xbd;" horiz-adv-x="807" d="M131 0 L567 690 L658 690 L222 0 L131 0 Z M494 0 L494 61 Q516 78 538.5 97 Q561 116 579.5 132 Q598 148 607 156 Q641 186 658.5 213.5 Q676 241 676 265 Q676 285 662.5 300 Q649 315 626 315 Q606 315 590 302.5 Q574 290 568 265 L490 278 Q496 311 516 336 Q536 361 565.5 375 Q595 389 630 389 Q668 389 697.5 373 Q727 357 744 329.5 Q761 302 761 267 Q761 228 738.5 193 Q716 158 672 119 Q660 108 646 97 Q632 86 617 74 L768 74 L768 0 L494 0 Z M166 310 L166 602 L83 558 L57 627 L177 690 L249 690 L249 310 L166 310 Z " />
<glyph glyph-name="uni00BC" unicode="&#xbc;" horiz-adv-x="807" d="M149 0 L585 690 L676 690 L240 0 L149 0 Z M649 0 L649 76 L472 76 L472 143 L636 380 L730 380 L730 145 L771 145 L771 76 L730 76 L730 0 L649 0 Z M551 145 L649 145 L649 286 L551 145 Z M166 310 L166 602 L83 558 L57 627 L177 690 L249 690 L249 310 L166 310 Z " />
<glyph glyph-name="uni00BE" unicode="&#xbe;" horiz-adv-x="807" d="M153 0 L589 690 L680 690 L244 0 L153 0 Z M649 0 L649 76 L472 76 L472 143 L636 380 L730 380 L730 145 L771 145 L771 76 L730 76 L730 0 L649 0 Z M551 145 L649 145 L649 286 L551 145 Z M174 301 Q117 301 79.5 329.5 Q42 358 30 405 L107 418 Q113 398 130 386 Q147 374 171 374 Q197 374 214.5 387.5 Q232 401 232 423 Q232 443 216 456 Q200 469 173 469 L132 469 L132 541 L167 541 Q192 541 208 553.5 Q224 566 224 585 Q224 603 209 614.5 Q194 626 172 626 Q151 626 135.5 616 Q120 606 114 586 L37 599 Q44 630 63.5 652 Q83 674 112 686.5 Q141 699 177 699 Q214 699 243.5 685.5 Q273 672 290 648 Q307 624 307 593 Q307 565 292.5 543.5 Q278 522 251 509 Q282 497 299 473.5 Q316 450 316 417 Q316 384 297.5 357.5 Q279 331 247 316 Q215 301 174 301 Z " />
<glyph glyph-name="uni0024" unicode="&#x24;" horiz-adv-x="594" d="M267 -140 L267 -8 Q215 -1 171.5 22 Q128 45 97 83 Q66 121 51 171 L158 195 Q173 153 200.5 126.5 Q228 100 267 91 L267 304 Q172 321 119.5 372 Q67 423 67 498 Q67 552 92.5 595 Q118 638 163 665.5 Q208 693 267 699 L267 820 L334 820 L334 698 Q384 692 425 669 Q466 646 494 609 Q522 572 534 523 L429 499 Q415 540 391.5 564.5 Q368 589 334 597 L334 403 L351 400 Q445 383 494.5 331 Q544 279 544 202 Q544 143 517 97.5 Q490 52 443 24.5 Q396 -3 334 -9 L334 -140 L267 -140 Z M179 508 Q179 478 198.5 454.5 Q218 431 267 417 L267 599 Q226 592 202.5 568 Q179 544 179 508 Z M432 191 Q432 228 407.5 253.5 Q383 279 334 291 L334 89 Q378 96 405 123 Q432 150 432 191 Z " />
<glyph glyph-name="uni00A2" unicode="&#xa2;" horiz-adv-x="594" d="M273 -138 L273 -7 Q225 0 185 22.5 Q145 45 115.5 80 Q86 115 70 160.5 Q54 206 54 258 Q54 310 70 356 Q86 402 115.5 438.5 Q145 475 185 498.5 Q225 522 273 530 L273 650 L340 650 L340 532 Q388 528 428 508 Q468 488 496.5 455.5 Q525 423 538 380 L429 354 Q415 385 392 404.5 Q369 424 340 431 L340 92 Q371 98 396 117.5 Q421 137 435 168 L543 143 Q530 100 500 68 Q470 36 429 16 Q388 -4 340 -9 L340 -138 L273 -138 Z M172 259 Q172 218 184.5 184.5 Q197 151 219.5 127.5 Q242 104 273 95 L273 428 Q243 417 220.5 393 Q198 369 185 334.5 Q172 300 172 259 Z " />
<glyph glyph-name="uni00A3" unicode="&#xa3;" horiz-adv-x="594" d="M31 0 L31 105 L92 105 L107 287 L30 287 L30 379 L114 379 L123 483 Q128 552 156.5 601.5 Q185 651 232.5 678 Q280 705 342 705 Q398 705 442.5 683.5 Q487 662 516.5 621.5 Q546 581 558 525 L448 503 Q438 551 411 575.5 Q384 600 343 600 Q298 600 270 569 Q242 538 238 482 L230 379 L413 379 L413 287 L222 287 L208 105 L557 105 L557 0 L31 0 Z " />
<glyph glyph-name="uni00A5" unicode="&#xa5;" horiz-adv-x="594" d="M92 124 L92 199 L239 199 L239 279 L92 279 L92 354 L203 354 L21 690 L150 690 L299 383 L448 690 L573 690 L391 354 L502 354 L502 279 L355 279 L355 199 L502 199 L502 124 L355 124 L355 0 L239 0 L239 124 L92 124 Z " />
<glyph glyph-name="uni20AC" unicode="&#x20ac;" horiz-adv-x="594" d="M-4 229 L14 304 L72 304 Q71 321 71 339 Q71 361 72 381 L-4 381 L14 456 L81 456 Q96 534 131 590 Q166 646 218.5 675.5 Q271 705 337 705 Q394 705 441 683 Q488 661 520 621 Q552 581 566 526 L457 504 Q443 550 411 574.5 Q379 599 336 599 Q283 599 248 562 Q213 525 198 456 L413 456 L395 381 L188 381 Q187 362 187 341 Q187 322 188 304 L380 304 L363 229 L198 229 Q212 161 247 126 Q282 91 335 91 Q380 91 413.5 116 Q447 141 461 186 L570 164 Q556 109 522.5 69 Q489 29 440.5 7 Q392 -15 333 -15 Q266 -15 214 14 Q162 43 128 97.5 Q94 152 80 229 L-4 229 Z " />
<glyph glyph-name="uni20BA" unicode="&#x20ba;" horiz-adv-x="594" d="M122 0 L122 202 L50 168 L50 250 L122 284 L122 366 L51 332 L51 414 L122 448 L122 690 L238 690 L238 504 L379 571 L379 489 L238 422 L238 340 L379 407 L379 325 L238 258 L238 111 L240 111 Q326 111 376.5 158.5 Q427 206 443 297 L553 287 Q531 145 449.5 72.5 Q368 0 228 0 L122 0 Z " />
<glyph glyph-name="uni20B9" unicode="&#x20b9;" horiz-adv-x="594" d="M75 602 L75 690 L544 690 L522 602 L412 602 Q450 566 464 513 L544 513 L522 426 L468 426 Q461 376 433 337.5 Q405 299 360.5 275.5 Q316 252 259 246 L543 0 L373 0 L76 261 L75 261 L75 342 Q96 337 128 333.5 Q160 330 190 330 Q258 330 298.5 354.5 Q339 379 350 426 L75 426 L75 513 L349 513 Q336 556 299 579 Q262 602 205 602 L75 602 Z " />
<glyph glyph-name="uni20A1" unicode="&#x20a1;" horiz-adv-x="594" d="M138 -140 L167 35 Q110 77 78.5 155.5 Q47 234 47 341 Q47 443 75 519.5 Q103 596 155 642 Q207 688 278 697 L298 815 L355 815 L336 699 Q364 697 390 690 L411 815 L468 815 L443 666 Q521 618 549 515 L446 494 Q437 522 422 543 L347 95 Q385 103 410.5 130 Q436 157 447 196 L553 175 Q539 122 508 82 Q477 42 431.5 18 Q386 -6 330 -9 L308 -140 L251 -140 L273 -7 Q245 -4 219 6 L195 -140 L138 -140 Z M238 114 Q261 98 290 93 L373 586 Q347 599 319 599 L238 114 Z M161 342 Q161 237 191 174 L260 587 Q212 565 186.5 502.5 Q161 440 161 342 Z " />
<glyph glyph-name="uni20AA" unicode="&#x20aa;" horiz-adv-x="919" d="M83 0 L83 690 L379 690 Q454 690 508 660 Q562 630 591.5 575 Q621 520 621 445 L621 210 L515 210 L515 441 Q515 506 478.5 541.5 Q442 577 375 577 L189 577 L189 0 L83 0 Z M299 0 L299 478 L405 478 L405 113 L591 113 Q658 113 694.5 148.5 Q731 184 731 249 L731 690 L837 690 L837 245 Q837 170 807.5 115 Q778 60 724 30 Q670 0 595 0 L299 0 Z " />
<glyph glyph-name="uni20A9" unicode="&#x20a9;" horiz-adv-x="945" d="M233 0 L164 265 L34 265 L34 334 L146 334 L124 416 L34 416 L34 485 L106 485 L53 690 L174 690 L218 485 L377 485 L424 690 L525 690 L573 485 L732 485 L776 690 L892 690 L839 485 L911 485 L911 416 L821 416 L799 334 L911 334 L911 265 L781 265 L712 0 L593 0 L532 265 L414 265 L353 0 L233 0 Z M430 334 L516 334 L473 518 L430 334 Z M589 416 L608 334 L699 334 L717 416 L589 416 Z M251 334 L342 334 L361 416 L233 416 L251 334 Z M266 265 L295 131 L326 265 L266 265 Z M624 265 L655 131 L684 265 L624 265 Z " />
<glyph glyph-name="uni20AD" unicode="&#x20ad;" horiz-adv-x="594" d="M85 0 L85 316 L12 316 L12 408 L85 408 L85 690 L201 690 L201 386 L424 690 L559 690 L337 408 L517 408 L517 316 L343 316 L595 0 L445 0 L201 334 L201 0 L85 0 Z " />
<glyph glyph-name="uni20A8" unicode="&#x20a8;" horiz-adv-x="1053" d="M68 0 L68 690 L269 690 Q349 690 407 664 Q465 638 496 589.5 Q527 541 527 474 Q527 433 512.5 396 Q498 359 471 330 Q444 301 407 283 L564 0 L432 0 L302 251 Q277 249 257 249 Q225 249 184 255 L184 0 L68 0 Z M184 587 L184 359 Q203 355 223 353.5 Q243 352 263 352 Q334 352 372 383 Q410 414 410 470 Q410 525 373 556 Q336 587 269 587 L184 587 Z M804 -15 Q752 -15 709 2 Q666 19 636 50.5 Q606 82 592 125 L696 152 Q710 118 738.5 99 Q767 80 805 80 Q844 80 869 98.5 Q894 117 894 146 Q894 171 874 188 Q854 205 809 213 L776 219 Q692 234 649.5 273 Q607 312 607 373 Q607 422 632 459 Q657 496 700.5 517 Q744 538 802 538 Q852 538 892.5 521 Q933 504 961 473 Q989 442 1001 400 L898 375 Q886 407 860.5 425.5 Q835 444 801 444 Q766 444 743 426.5 Q720 409 720 382 Q720 359 740 344 Q760 329 810 320 L843 314 Q923 300 966 259 Q1009 218 1009 157 Q1009 120 994 88.5 Q979 57 951.5 33.5 Q924 10 886.5 -2.5 Q849 -15 804 -15 Z " />
<glyph glyph-name="uni20B1" unicode="&#x20b1;" horiz-adv-x="594" d="M91 0 L91 354 L15 354 L15 411 L91 411 L91 479 L16 479 L16 536 L91 536 L91 690 L272 690 Q331 690 378 671.5 Q425 653 458 618.5 Q491 584 507 536 L581 536 L581 479 L520 479 Q522 460 522 440 Q522 425 521 411 L581 411 L581 354 L509 354 Q493 304 459 267.5 Q425 231 376.5 211 Q328 191 268 191 Q240 191 205 196 L205 0 L91 0 Z M205 590 L205 536 L383 536 Q364 562 335 576 Q306 590 269 590 L205 590 Z M410 441 Q410 461 406 479 L205 479 L205 411 L408 411 Q410 425 410 441 Z M259 291 Q303 291 335.5 307.5 Q368 324 387 354 L205 354 L205 296 Q235 291 259 291 Z " />
<glyph glyph-name="uni0E3F" unicode="&#xe3f;" horiz-adv-x="594" d="M72 0 L72 690 L258 690 L258 815 L325 815 L325 689 Q387 685 432 662.5 Q477 640 501 602 Q525 564 525 513 Q525 465 503 427 Q481 389 439 367 Q494 348 524.5 302.5 Q555 257 555 195 Q555 138 527 95.5 Q499 53 447.5 28.5 Q396 4 325 0 L325 -140 L258 -140 L258 0 L72 0 Z M182 593 L182 403 L258 403 L258 593 L182 593 Z M411 498 Q411 537 388.5 561 Q366 585 325 591 L325 405 Q367 410 389 434.5 Q411 459 411 498 Z M182 97 L258 97 L258 312 L182 312 L182 97 Z M440 204 Q440 252 410 280 Q380 308 325 312 L325 97 Q380 101 410 129 Q440 157 440 204 Z " />
<glyph glyph-name="uni20AB" unicode="&#x20ab;" horiz-adv-x="594" d="M245 -15 Q197 -15 156.5 4.5 Q116 24 85.5 58.5 Q55 93 38 139.5 Q21 186 21 240 Q21 295 38.5 342 Q56 389 87 424 Q118 459 160 478.5 Q202 498 251 498 Q298 498 337 477.5 Q376 457 401 421 L401 543 L270 543 L270 623 L401 623 L401 690 L517 690 L517 623 L583 623 L583 543 L517 543 L517 0 L411 0 L407 75 Q381 33 339 9 Q297 -15 245 -15 Z M270 87 Q308 87 338 107 Q368 127 385.5 162 Q403 197 403 242 Q403 287 385.5 322 Q368 357 338 377 Q308 397 270 397 Q232 397 202 377 Q172 357 155 322 Q138 287 138 242 Q138 197 155 162 Q172 127 202 107 Q232 87 270 87 Z M26 -153 L26 -73 L547 -73 L547 -153 L26 -153 Z " />
<glyph glyph-name="uni00A4" unicode="&#xa4;" horiz-adv-x="594" d="M47 177 L126 256 Q111 279 103 306 Q95 333 95 363 Q95 393 103 420.5 Q111 448 126 471 L47 550 L114 617 L193 538 Q216 552 242.5 559.5 Q269 567 297 567 Q325 567 351.5 559.5 Q378 552 401 538 L480 617 L547 550 L468 471 Q483 448 491 421 Q499 394 499 364 Q499 334 491 306.5 Q483 279 468 256 L547 177 L480 110 L401 189 Q378 175 351.5 167.5 Q325 160 296 160 Q268 160 242 167.5 Q216 175 193 189 L114 110 L47 177 Z M297 253 Q326 253 348 267.5 Q370 282 382.5 307 Q395 332 395 363 Q395 394 382.5 419 Q370 444 348 458 Q326 472 297 472 Q268 472 246 458 Q224 444 211 419 Q198 394 198 363 Q198 332 211 307 Q224 282 246 267.5 Q268 253 297 253 Z " />
<glyph glyph-name="uni005E" unicode="&#x5e;" horiz-adv-x="594" d="M76 344 L247 690 L348 690 L519 344 L409 344 L296 578 L182 344 L76 344 Z " />
<glyph glyph-name="uni002B" unicode="&#x2b;" horiz-adv-x="594" d="M83 227 L83 324 L247 324 L247 490 L347 490 L347 324 L511 324 L511 227 L347 227 L347 55 L247 55 L247 227 L83 227 Z " />
<glyph glyph-name="uni2212" unicode="&#x2212;" horiz-adv-x="594" d="M92 225 L92 326 L502 326 L502 225 L92 225 Z " />
<glyph glyph-name="uni00B1" unicode="&#xb1;" horiz-adv-x="594" d="M249 154 L249 317 L88 317 L88 408 L249 408 L249 565 L345 565 L345 408 L507 408 L507 317 L345 317 L345 154 L249 154 Z M98 0 L98 96 L497 96 L497 0 L98 0 Z " />
<glyph glyph-name="uni003D" unicode="&#x3d;" horiz-adv-x="594" d="M86 339 L86 440 L509 440 L509 339 L86 339 Z M86 111 L86 212 L509 212 L509 111 L86 111 Z " />
<glyph glyph-name="uni00F7" unicode="&#xf7;" horiz-adv-x="594" d="M297 380 Q280 380 265.5 388.5 Q251 397 243 411 Q235 425 235 442 Q235 459 243 473 Q251 487 265.5 495.5 Q280 504 297 504 Q314 504 328.5 495.5 Q343 487 351 473 Q359 459 359 442 Q359 425 351 411 Q343 397 328.5 388.5 Q314 380 297 380 Z M88 225 L88 326 L506 326 L506 225 L88 225 Z M297 47 Q280 47 265.5 55.5 Q251 64 243 78 Q235 92 235 109 Q235 126 243 140 Q251 154 265.5 162.5 Q280 171 297 171 Q314 171 328.5 162.5 Q343 154 351 140 Q359 126 359 109 Q359 92 351 78 Q343 64 328.5 55.5 Q314 47 297 47 Z " />
<glyph glyph-name="uni003C" unicode="&#x3c;" horiz-adv-x="594" d="M473 484 L473 383 L210 277 L473 171 L473 66 L95 229 L95 321 L473 484 Z " />
<glyph glyph-name="uni003E" unicode="&#x3e;" horiz-adv-x="594" d="M122 66 L122 167 L385 273 L122 379 L122 484 L500 321 L500 229 L122 66 Z " />
<glyph glyph-name="uni007E" unicode="&#x7e;" horiz-adv-x="594" d="M385 183 Q360 183 340 191 Q320 199 304 210.5 Q288 222 273.5 233.5 Q259 245 245.5 253 Q232 261 217 261 Q177 261 164 190 L66 190 Q76 273 113.5 319 Q151 365 209 365 Q234 365 254 357 Q274 349 290 337.5 Q306 326 320.5 314.5 Q335 303 348.5 295 Q362 287 377 287 Q417 287 430 358 L528 358 Q518 275 480.5 229 Q443 183 385 183 Z " />
<glyph glyph-name="uni00AC" unicode="&#xac;" horiz-adv-x="594" d="M80 271 L80 368 L494 368 L494 100 L394 100 L394 271 L80 271 Z " />
<glyph glyph-name="uni00D7" unicode="&#xd7;" horiz-adv-x="594" d="M158 73 L94 137 L234 277 L101 410 L165 474 L298 341 L430 474 L494 410 L361 277 L501 137 L437 73 L298 213 L158 73 Z " />
<glyph glyph-name="uni005F" unicode="&#x5f;" horiz-adv-x="573" d="M30 -150 L30 -63 L543 -63 L543 -150 L30 -150 Z " />
<glyph glyph-name="uni00A7" unicode="&#xa7;" horiz-adv-x="506" d="M249 -95 Q171 -95 113.5 -60 Q56 -25 31 42 L136 68 Q170 -1 251 -1 Q294 -1 320.5 17 Q347 35 347 66 Q347 92 325 108.5 Q303 125 255 134 L207 143 Q126 158 82.5 199 Q39 240 39 302 Q39 348 62.5 384 Q86 420 128 440 Q90 461 71 491.5 Q52 522 52 561 Q52 596 67 626 Q82 656 109.5 678 Q137 700 174 712.5 Q211 725 255 725 Q334 725 386.5 688.5 Q439 652 459 590 L354 564 Q326 630 251 630 Q214 630 189.5 613.5 Q165 597 165 570 Q165 544 189.5 527 Q214 510 260 503 L310 495 Q393 482 434 440 Q475 398 475 339 Q475 290 449.5 254 Q424 218 382 198 Q462 156 462 73 Q462 36 446.5 5.5 Q431 -25 402 -47.5 Q373 -70 334.5 -82.5 Q296 -95 249 -95 Z M365 315 Q365 346 343.5 365 Q322 384 280 393 L257 398 Q244 401 231 401 Q195 401 171.5 379.5 Q148 358 148 323 Q148 292 169.5 273 Q191 254 233 245 L256 240 Q270 237 282 237 Q318 237 341.5 258.5 Q365 280 365 315 Z " />
<glyph glyph-name="uni00B6" unicode="&#xb6;" horiz-adv-x="587" d="M273 -92 L273 246 Q201 253 149 283.5 Q97 314 69 363.5 Q41 413 41 479 Q41 550 73.5 602 Q106 654 167 682 Q228 710 313 710 L353 710 L353 -92 L273 -92 Z M430 -92 L430 710 L510 710 L510 -92 L430 -92 Z " />
<glyph glyph-name="uni0023" unicode="&#x23;" horiz-adv-x="661" d="M134 0 L149 182 L52 182 L59 267 L156 267 L168 424 L73 424 L80 510 L175 510 L190 690 L286 690 L271 510 L416 510 L431 690 L527 690 L512 510 L609 510 L602 424 L505 424 L493 267 L588 267 L581 182 L486 182 L471 0 L375 0 L390 182 L245 182 L230 0 L134 0 Z M252 267 L397 267 L409 424 L264 424 L252 267 Z " />
<glyph glyph-name="uni007C" unicode="&#x7c;" horiz-adv-x="262" d="M80 -111 L80 759 L182 759 L182 -111 L80 -111 Z " />
<glyph glyph-name="uni2020" unicode="&#x2020;" horiz-adv-x="471" d="M183 -82 L183 442 L30 442 L30 534 L183 534 L183 710 L288 710 L288 534 L441 534 L441 442 L288 442 L288 -82 L183 -82 Z " />
<glyph glyph-name="uni2021" unicode="&#x2021;" horiz-adv-x="518" d="M53 99 L53 191 L206 191 L206 442 L53 442 L53 534 L206 534 L206 710 L311 710 L311 534 L464 534 L464 442 L311 442 L311 191 L464 191 L464 99 L311 99 L311 -82 L206 -82 L206 99 L53 99 Z " />
<glyph glyph-name="uni0026" unicode="&#x26;" horiz-adv-x="697" d="M279 -20 Q225 -20 180.5 -5 Q136 10 103.5 37 Q71 64 53.5 101 Q36 138 36 182 Q36 244 71 295.5 Q106 347 167 379 Q139 409 122 435.5 Q105 462 97 488 Q89 514 89 542 Q89 582 103.5 615.5 Q118 649 143.5 673.5 Q169 698 204 711.5 Q239 725 281 725 Q322 725 356 712.5 Q390 700 415 677 Q440 654 454 623 Q468 592 468 556 Q468 444 329 366 L486 208 Q506 244 518.5 289.5 Q531 335 535 388 L638 379 Q630 306 610 245 Q590 184 559 136 L694 0 L540 0 L487 54 Q444 18 391.5 -1 Q339 -20 279 -20 Z M198 546 Q198 520 214 492.5 Q230 465 265 430 Q313 454 337 485.5 Q361 517 361 551 Q361 586 338.5 607 Q316 628 282 628 Q258 628 239 617.5 Q220 607 209 588.5 Q198 570 198 546 Z M155 194 Q155 160 171.5 134.5 Q188 109 218.5 94.5 Q249 80 290 80 Q326 80 358 91.5 Q390 103 417 124 L230 314 Q194 294 174.5 262 Q155 230 155 194 Z " />
<glyph glyph-name="uni002A" unicode="&#x2a;" horiz-adv-x="413" d="M129 332 L54 385 L147 498 L10 533 L37 620 L169 567 L160 710 L253 710 L244 567 L376 620 L403 533 L266 498 L359 385 L284 332 L206 455 L129 332 Z " />
<glyph glyph-name="uni002D" unicode="&#x2d;" horiz-adv-x="372" d="M46 224 L46 326 L326 326 L326 224 L46 224 Z " />
<glyph glyph-name="uni2013" unicode="&#x2013;" horiz-adv-x="500" d="M0 231 L0 319 L500 319 L500 231 L0 231 Z " />
<glyph glyph-name="uni2014" unicode="&#x2014;" horiz-adv-x="1000" d="M0 231 L0 319 L1000 319 L1000 231 L0 231 Z " />
<glyph glyph-name="uni0028" unicode="&#x28;" horiz-adv-x="342" d="M326 -141 L213 -141 Q130 -40 88 78 Q46 196 46 324 Q46 452 88 570 Q130 688 213 789 L326 789 Q240 684 196 565.5 Q152 447 152 324 Q152 201 196 82.5 Q240 -36 326 -141 Z " />
<glyph glyph-name="uni0029" unicode="&#x29;" horiz-adv-x="342" d="M16 789 L129 789 Q212 688 254 570 Q296 452 296 324 Q296 196 254 78 Q212 -40 129 -141 L16 -141 Q102 -36 146 82.5 Q190 201 190 324 Q190 447 146 565.5 Q102 684 16 789 Z " />
<glyph glyph-name="uni002F" unicode="&#x2f;" horiz-adv-x="454" d="M10 -111 L338 759 L444 759 L116 -111 L10 -111 Z " />
<glyph glyph-name="uni005C" unicode="&#x5c;" horiz-adv-x="454" d="M338 -111 L10 759 L116 759 L444 -111 L338 -111 Z " />
<glyph glyph-name="uni005B" unicode="&#x5b;" horiz-adv-x="358" d="M80 -141 L80 789 L318 789 L318 700 L182 700 L182 -52 L318 -52 L318 -141 L80 -141 Z " />
<glyph glyph-name="uni005D" unicode="&#x5d;" horiz-adv-x="358" d="M40 -141 L40 -52 L176 -52 L176 700 L40 700 L40 789 L278 789 L278 -141 L40 -141 Z " />
<glyph glyph-name="uni007B" unicode="&#x7b;" horiz-adv-x="367" d="M327 789 L327 700 L296 700 Q252 700 229 676.5 Q206 653 206 606 Q206 580 210 551.5 Q214 523 217.5 495 Q221 467 221 444 Q221 414 211.5 389.5 Q202 365 187 348 Q172 331 153 324 Q172 317 187 300 Q202 283 211.5 258.5 Q221 234 221 204 Q221 181 217.5 153 Q214 125 210 96.5 Q206 68 206 42 Q206 -5 229 -28.5 Q252 -52 296 -52 L327 -52 L327 -141 L289 -141 Q227 -141 185 -120 Q143 -99 122 -61 Q101 -23 101 29 Q101 61 104.5 94.5 Q108 128 112 157.5 Q116 187 116 208 Q116 242 98 262 Q80 282 45 282 L30 282 L30 366 L45 366 Q80 366 98 386 Q116 406 116 440 Q116 461 112 490.5 Q108 520 104.5 553.5 Q101 587 101 619 Q101 671 122 709 Q143 747 185 768 Q227 789 289 789 L327 789 Z " />
<glyph glyph-name="uni007D" unicode="&#x7d;" horiz-adv-x="367" d="M40 -141 L40 -52 L71 -52 Q114 -52 137.5 -28.5 Q161 -5 161 42 Q161 68 157.5 96.5 Q154 125 150 153 Q146 181 146 204 Q146 234 155.5 258.5 Q165 283 180.5 300 Q196 317 214 324 Q196 331 180.5 348 Q165 365 155.5 389.5 Q146 414 146 444 Q146 467 150 495 Q154 523 157.5 551.5 Q161 580 161 606 Q161 653 137.5 676.5 Q114 700 71 700 L40 700 L40 789 L78 789 Q140 789 182 768 Q224 747 245 709 Q266 671 266 619 Q266 587 262 553.5 Q258 520 254.5 490.5 Q251 461 251 440 Q251 406 269.5 386 Q288 366 322 366 L337 366 L337 282 L322 282 Q288 282 269.5 262 Q251 242 251 208 Q251 187 254.5 157.5 Q258 128 262 94.5 Q266 61 266 29 Q266 -23 245 -61 Q224 -99 182 -120 Q140 -141 78 -141 L40 -141 Z " />
<glyph glyph-name="uni2022" unicode="&#x2022;" horiz-adv-x="286" d="M143 176 Q116 176 93 189.5 Q70 203 56.5 226 Q43 249 43 276 Q43 304 56.5 326.5 Q70 349 93 362.5 Q116 376 143 376 Q170 376 193 362.5 Q216 349 229.5 326.5 Q243 304 243 276 Q243 249 229.5 226 Q216 203 193 189.5 Q170 176 143 176 Z " />
<glyph glyph-name="uni2039" unicode="&#x2039;" horiz-adv-x="296" d="M156 95 L20 285 L156 475 L261 475 L129 285 L261 95 L156 95 Z " />
<glyph glyph-name="uni203A" unicode="&#x203a;" horiz-adv-x="296" d="M35 95 L167 285 L35 475 L140 475 L276 285 L140 95 L35 95 Z " />
<glyph glyph-name="uni00AB" unicode="&#xab;" horiz-adv-x="507" d="M156 95 L20 285 L156 475 L261 475 L129 285 L261 95 L156 95 Z M367 95 L231 285 L367 475 L472 475 L340 285 L472 95 L367 95 Z " />
<glyph glyph-name="uni00BB" unicode="&#xbb;" horiz-adv-x="507" d="M35 95 L167 285 L35 475 L140 475 L276 285 L140 95 L35 95 Z M246 95 L378 285 L246 475 L351 475 L487 285 L351 95 L246 95 Z " />
<glyph glyph-name="uni0040" unicode="&#x40;" horiz-adv-x="1011" d="M483 28 Q439 28 401 45.5 Q363 63 334.5 94 Q306 125 290.5 167.5 Q275 210 275 259 Q275 308 290.5 350.5 Q306 393 334.5 424.5 Q363 456 400.5 474 Q438 492 481 492 Q527 492 564 471.5 Q601 451 624 414 L627 480 L726 480 L726 186 Q726 155 740.5 136.5 Q755 118 779 118 Q804 118 823 140 Q842 162 853 200.5 Q864 239 864 289 Q864 362 839 422.5 Q814 483 768 527.5 Q722 572 658.5 596 Q595 620 519 620 Q455 620 399 602 Q343 584 297.5 551.5 Q252 519 219 473.5 Q186 428 168 372.5 Q150 317 150 254 Q150 193 167.5 139 Q185 85 217.5 40.5 Q250 -4 294 -36.5 Q338 -69 392 -86.5 Q446 -104 506 -104 Q564 -104 620.5 -89.5 Q677 -75 724 -49 L764 -131 Q652 -196 505 -196 Q427 -196 357.5 -174 Q288 -152 231 -111 Q174 -70 132.5 -14.5 Q91 41 68.5 109.5 Q46 178 46 254 Q46 333 69 402 Q92 471 134.5 528 Q177 585 235.5 626 Q294 667 365.5 689.5 Q437 712 518 712 Q596 712 664 692 Q732 672 787.5 634.5 Q843 597 882.5 544.5 Q922 492 943.5 428 Q965 364 965 290 Q965 211 941 152.5 Q917 94 873.5 61.5 Q830 29 772 29 Q721 29 685.5 53 Q650 77 635 120 Q613 76 573.5 52 Q534 28 483 28 Z M502 127 Q536 127 562.5 144.5 Q589 162 604.5 192 Q620 222 620 261 Q620 300 604.5 330 Q589 360 562.5 377.5 Q536 395 502 395 Q468 395 441 377.5 Q414 360 399 329.5 Q384 299 384 261 Q384 222 399 192 Q414 162 441 144.5 Q468 127 502 127 Z " />
<glyph glyph-name="uni00B7" unicode="&#xb7;" horiz-adv-x="254" d="M127 199 Q106 199 89 209 Q72 219 61.5 236.5 Q51 254 51 275 Q51 296 61.5 313.5 Q72 331 89 341 Q106 351 127 351 Q148 351 165 341 Q182 331 192.5 313.5 Q203 296 203 275 Q203 254 192.5 236.5 Q182 219 165 209 Q148 199 127 199 Z " />
<glyph glyph-name="uni0041" unicode="A" horiz-adv-x="735" d="M19 0 L302 710 L432 710 L716 0 L590 0 L523 176 L207 176 L140 0 L19 0 Z M247 280 L483 280 L365 587 L247 280 Z " />
<glyph glyph-name="uni0042" unicode="B" horiz-adv-x="613" d="M70 0 L70 710 L316 710 Q386 710 436.5 687.5 Q487 665 515 624 Q543 583 543 527 Q543 476 519.5 437 Q496 398 452 376 Q509 356 541 309.5 Q573 263 573 201 Q573 140 542 95 Q511 50 454.5 25 Q398 0 321 0 L70 0 Z M188 606 L188 418 L305 418 Q361 418 391 442 Q421 466 421 512 Q421 556 390.5 581 Q360 606 305 606 L188 606 Z M188 104 L316 104 Q380 104 415 132.5 Q450 161 450 211 Q450 263 415 291 Q380 319 316 319 L188 319 L188 104 Z " />
<glyph glyph-name="uni0043" unicode="C" horiz-adv-x="733" d="M393 -20 Q318 -20 254.5 7.5 Q191 35 144.5 85 Q98 135 72 202.5 Q46 270 46 350 Q46 414 63 471.5 Q80 529 111.5 576.5 Q143 624 186 658.5 Q229 693 281.5 711.5 Q334 730 393 730 Q462 730 521.5 705.5 Q581 681 624.5 636.5 Q668 592 690 531 L573 498 Q547 555 499.5 586.5 Q452 618 392 618 Q345 618 305 598 Q265 578 235 542 Q205 506 188.5 457 Q172 408 172 351 Q172 294 188.5 246.5 Q205 199 234.5 164.5 Q264 130 304.5 111 Q345 92 394 92 Q456 92 503.5 123 Q551 154 580 212 L697 179 Q674 118 630 73 Q586 28 525 4 Q464 -20 393 -20 Z " />
<glyph glyph-name="uni0044" unicode="D" horiz-adv-x="751" d="M70 0 L70 710 L329 710 Q413 710 482.5 684.5 Q552 659 601.5 612.5 Q651 566 678 501 Q705 436 705 356 Q705 276 678 210.5 Q651 145 601 98 Q551 51 482 25.5 Q413 0 329 0 L70 0 Z M192 109 L323 109 Q402 109 459 139 Q516 169 547.5 224.5 Q579 280 579 355 Q579 430 547.5 485.5 Q516 541 458.5 571 Q401 601 323 601 L192 601 L192 109 Z " />
<glyph glyph-name="uni0045" unicode="E" horiz-adv-x="568" d="M70 0 L70 710 L500 710 L500 605 L190 605 L190 419 L470 419 L470 314 L190 314 L190 105 L510 105 L510 0 L70 0 Z " />
<glyph glyph-name="uni0046" unicode="F" horiz-adv-x="537" d="M70 0 L70 710 L491 710 L491 603 L190 603 L190 399 L460 399 L460 292 L190 292 L190 0 L70 0 Z " />
<glyph glyph-name="uni0047" unicode="G" horiz-adv-x="786" d="M404 -20 Q342 -20 287.5 -2 Q233 16 189 49.5 Q145 83 113 129 Q81 175 63.5 231.5 Q46 288 46 353 Q46 418 63.5 475 Q81 532 113.5 579 Q146 626 190.5 659.5 Q235 693 289.5 711.5 Q344 730 406 730 Q473 730 531.5 708 Q590 686 635 645 Q680 604 706 548 L590 509 Q561 561 513.5 589.5 Q466 618 406 618 Q356 618 313.5 598 Q271 578 239 542.5 Q207 507 189.5 459 Q172 411 172 355 Q172 298 189.5 249.5 Q207 201 239 166 Q271 131 314.5 111.5 Q358 92 409 92 Q468 92 513.5 115.5 Q559 139 586 181 Q613 223 617 279 L423 279 L423 381 L742 381 L742 314 Q742 240 717.5 179 Q693 118 647.5 73.5 Q602 29 540.5 4.5 Q479 -20 404 -20 Z " />
<glyph glyph-name="uni0048" unicode="H" horiz-adv-x="731" d="M70 0 L70 710 L192 710 L192 422 L539 422 L539 710 L661 710 L661 0 L539 0 L539 313 L192 313 L192 0 L70 0 Z " />
<glyph glyph-name="uni0049" unicode="I" horiz-adv-x="262" d="M70 0 L70 710 L192 710 L192 0 L70 0 Z " />
<glyph glyph-name="uni004A" unicode="J" horiz-adv-x="542" d="M249 -15 Q192 -15 145.5 6.5 Q99 28 66 68 Q33 108 16 166 L134 191 Q169 95 250 95 Q283 95 307.5 111.5 Q332 128 345 158 Q358 188 358 228 L358 710 L480 710 L480 231 Q480 176 463.5 130.5 Q447 85 416.5 52.5 Q386 20 343.5 2.5 Q301 -15 249 -15 Z " />
<glyph glyph-name="uni004B" unicode="K" horiz-adv-x="676" d="M70 0 L70 710 L192 710 L192 393 L483 710 L629 710 L319 377 L665 0 L503 0 L192 347 L192 0 L70 0 Z " />
<glyph glyph-name="uni004C" unicode="L" horiz-adv-x="536" d="M70 0 L70 710 L192 710 L192 109 L493 109 L493 0 L70 0 Z " />
<glyph glyph-name="uni004D" unicode="M" horiz-adv-x="844" d="M70 0 L70 710 L188 710 L424 275 L661 710 L774 710 L774 0 L653 0 L653 490 L467 148 L377 148 L191 490 L191 0 L70 0 Z " />
<glyph glyph-name="uni004E" unicode="N" horiz-adv-x="721" d="M70 0 L70 710 L178 710 L532 202 L532 710 L651 710 L651 0 L543 0 L189 510 L189 0 L70 0 Z " />
<glyph glyph-name="uni004F" unicode="O" horiz-adv-x="810" d="M405 -20 Q343 -20 288.5 -2 Q234 16 189.5 49.5 Q145 83 113 129 Q81 175 63.5 232 Q46 289 46 354 Q46 419 63.5 476 Q81 533 113 579.5 Q145 626 190 660 Q235 694 289.5 712 Q344 730 406 730 Q468 730 522.5 712 Q577 694 621.5 660.5 Q666 627 698 581 Q730 535 747 478 Q764 421 764 356 Q764 291 746.5 234 Q729 177 697 130.5 Q665 84 620.5 50 Q576 16 521.5 -2 Q467 -20 405 -20 Z M405 92 Q456 92 498.5 111.5 Q541 131 572 166 Q603 201 620.5 249.5 Q638 298 638 355 Q638 412 620.5 460.5 Q603 509 572 544 Q541 579 498.5 598.5 Q456 618 405 618 Q354 618 311.5 598.5 Q269 579 238 544 Q207 509 189.5 460.5 Q172 412 172 355 Q172 298 189.5 249.5 Q207 201 238 166 Q269 131 311.5 111.5 Q354 92 405 92 Z " />
<glyph glyph-name="uni0050" unicode="P" horiz-adv-x="587" d="M70 0 L70 710 L285 710 Q370 710 430.5 682 Q491 654 523.5 602 Q556 550 556 476 Q556 406 522 353.5 Q488 301 426 272.5 Q364 244 280 244 Q260 244 237.5 246 Q215 248 190 251 L190 0 L70 0 Z M190 604 L190 357 Q212 354 234 352 Q256 350 275 350 Q351 350 391.5 383 Q432 416 432 477 Q432 537 393 570.5 Q354 604 283 604 L190 604 Z " />
<glyph glyph-name="uni0051" unicode="Q" horiz-adv-x="810" d="M405 -20 Q343 -20 288.5 -2 Q234 16 189.5 49.5 Q145 83 113 129 Q81 175 63.5 232 Q46 289 46 354 Q46 419 63.5 476 Q81 533 113 579.5 Q145 626 190 660 Q235 694 289.5 712 Q344 730 406 730 Q468 730 522.5 712 Q577 694 621.5 660.5 Q666 627 698 581 Q730 535 747 478 Q764 421 764 356 Q764 275 736 205.5 Q708 136 659 85 L744 -20 L662 -86 L575 22 Q537 2 494.5 -9 Q452 -20 405 -20 Z M405 92 Q458 92 502 112 L381 263 L462 328 L583 177 Q609 211 623.5 256.5 Q638 302 638 355 Q638 412 620.5 460.5 Q603 509 572 544 Q541 579 498.5 598.5 Q456 618 405 618 Q354 618 311.5 598.5 Q269 579 238 544 Q207 509 189.5 460.5 Q172 412 172 355 Q172 298 189.5 249.5 Q207 201 238 166 Q269 131 311.5 111.5 Q354 92 405 92 Z " />
<glyph glyph-name="uni0052" unicode="R" horiz-adv-x="618" d="M70 0 L70 710 L284 710 Q369 710 430.5 683 Q492 656 525 606 Q558 556 558 487 Q558 444 542.5 406.5 Q527 369 498.5 339 Q470 309 430 290 L595 0 L460 0 L323 258 Q312 257 298.5 256.5 Q285 256 271 256 Q236 256 190 263 L190 0 L70 0 Z M190 604 L190 369 Q211 365 233.5 363.5 Q256 362 278 362 Q352 362 393 394 Q434 426 434 483 Q434 540 394 572 Q354 604 282 604 L190 604 Z " />
<glyph glyph-name="uni0053" unicode="S" horiz-adv-x="564" d="M279 -15 Q219 -15 167.5 6.5 Q116 28 80 67 Q44 106 29 160 L144 188 Q160 142 195 117 Q230 92 280 92 Q316 92 344 106 Q372 120 388.5 144 Q405 168 405 199 Q405 237 377.5 262.5 Q350 288 291 301 L254 309 Q148 332 97.5 385 Q47 438 47 514 Q47 560 65 598.5 Q83 637 115 665.5 Q147 694 190 709.5 Q233 725 283 725 Q340 725 388 704 Q436 683 470 644.5 Q504 606 518 553 L404 525 Q388 570 356 594 Q324 618 280 618 Q248 618 223.5 605.5 Q199 593 184.5 571.5 Q170 550 170 523 Q170 484 199 461 Q228 438 288 424 L325 416 Q529 370 529 209 Q529 160 510.5 118.5 Q492 77 458 47.5 Q424 18 378.5 1.5 Q333 -15 279 -15 Z " />
<glyph glyph-name="uni0054" unicode="T" horiz-adv-x="624" d="M251 0 L251 601 L44 601 L44 710 L580 710 L580 601 L373 601 L373 0 L251 0 Z " />
<glyph glyph-name="uni0055" unicode="U" horiz-adv-x="716" d="M356 -20 Q288 -20 234 1 Q180 22 141.5 62 Q103 102 82.5 157.5 Q62 213 62 282 L62 710 L184 710 L184 287 Q184 227 205.5 183.5 Q227 140 266 116 Q305 92 358 92 Q411 92 450 116 Q489 140 510.5 183.5 Q532 227 532 287 L532 710 L654 710 L654 282 Q654 213 633 157.5 Q612 102 572.5 62.5 Q533 23 478.5 1.5 Q424 -20 356 -20 Z " />
<glyph glyph-name="uni0056" unicode="V" horiz-adv-x="712" d="M291 0 L19 710 L152 710 L359 138 L565 710 L693 710 L421 0 L291 0 Z " />
<glyph glyph-name="uni0057" unicode="W" horiz-adv-x="1029" d="M998 710 L788 0 L664 0 L515 540 L366 0 L241 0 L31 710 L161 710 L307 162 L457 710 L575 710 L726 162 L871 710 L998 710 Z " />
<glyph glyph-name="uni0058" unicode="X" horiz-adv-x="669" d="M11 0 L266 375 L39 710 L178 710 L336 461 L493 710 L628 710 L403 375 L658 0 L513 0 L332 281 L151 0 L11 0 Z " />
<glyph glyph-name="uni0059" unicode="Y" horiz-adv-x="648" d="M263 0 L263 280 L14 710 L152 710 L326 392 L499 710 L634 710 L385 280 L385 0 L263 0 Z " />
<glyph glyph-name="uni005A" unicode="Z" horiz-adv-x="630" d="M41 0 L41 88 L418 606 L56 606 L56 710 L569 710 L569 622 L192 104 L591 104 L591 0 L41 0 Z " />
<glyph glyph-name="uni0061" unicode="a" horiz-adv-x="554" d="M222 -15 Q182 -15 148.5 -3 Q115 9 90 31 Q65 53 51 83 Q37 113 37 149 Q37 199 63.5 236.5 Q90 274 138 295 Q186 316 250 316 Q285 316 317 309.5 Q349 303 378 291 L378 324 Q378 359 365 385.5 Q352 412 328 427 Q304 442 270 442 Q234 442 205 423 Q176 404 162 370 L56 394 Q68 438 99.5 470 Q131 502 175.5 520 Q220 538 272 538 Q321 538 361.5 522 Q402 506 431 477 Q460 448 476 408 Q492 368 492 319 L492 0 L387 0 L383 69 Q362 31 320 8 Q278 -15 222 -15 Z M153 154 Q153 132 165 114.5 Q177 97 198.5 87 Q220 77 249 77 Q286 77 315 93 Q344 109 361 136.5 Q378 164 378 199 L378 211 Q352 222 324.5 228.5 Q297 235 268 235 Q216 235 184.5 213 Q153 191 153 154 Z " />
<glyph glyph-name="uni0062" unicode="b" horiz-adv-x="632" d="M62 0 L62 744 L177 744 L177 447 Q205 490 250 514 Q295 538 349 538 Q401 538 445.5 517 Q490 496 523 459 Q556 422 574.5 372 Q593 322 593 264 Q593 205 574 154 Q555 103 521 65 Q487 27 441.5 6 Q396 -15 343 -15 Q288 -15 243.5 9 Q199 33 172 77 L167 0 L62 0 Z M325 89 Q368 89 402 111.5 Q436 134 455.5 173 Q475 212 475 262 Q475 312 455.5 350.5 Q436 389 402 411.5 Q368 434 325 434 Q282 434 248 411.5 Q214 389 194.5 350.5 Q175 312 175 262 Q175 212 194.5 173 Q214 134 248 111.5 Q282 89 325 89 Z " />
<glyph glyph-name="uni0063" unicode="c" horiz-adv-x="561" d="M298 -15 Q242 -15 195 5.5 Q148 26 113 62.5 Q78 99 58.5 149 Q39 199 39 258 Q39 317 59 368 Q79 419 114 457 Q149 495 196.5 516.5 Q244 538 300 538 Q354 538 399 518.5 Q444 499 476.5 463.5 Q509 428 523 380 L414 354 Q397 392 366.5 413 Q336 434 298 434 Q258 434 226 411 Q194 388 175.5 348.5 Q157 309 157 259 Q157 210 175 171.5 Q193 133 224.5 111 Q256 89 298 89 Q338 89 371 109.5 Q404 130 420 168 L528 143 Q514 95 480 59.5 Q446 24 399 4.5 Q352 -15 298 -15 Z " />
<glyph glyph-name="uni0064" unicode="d" horiz-adv-x="632" d="M283 -15 Q231 -15 186.5 6 Q142 27 109 64 Q76 101 57.5 151 Q39 201 39 259 Q39 318 58 369 Q77 420 111 458 Q145 496 190.5 517 Q236 538 289 538 Q341 538 384 516 Q427 494 455 454 L455 744 L570 744 L570 0 L465 0 L460 84 Q432 38 386 11.5 Q340 -15 283 -15 Z M307 89 Q350 89 384 111.5 Q418 134 437.5 173 Q457 212 457 261 Q457 311 437.5 350 Q418 389 384 411.5 Q350 434 307 434 Q264 434 230 411.5 Q196 389 176.5 350 Q157 311 157 261 Q157 212 176.5 173 Q196 134 230 111.5 Q264 89 307 89 Z " />
<glyph glyph-name="uni0065" unicode="e" horiz-adv-x="581" d="M305 -15 Q247 -15 198.5 5.5 Q150 26 114 63 Q78 100 58.5 150.5 Q39 201 39 262 Q39 321 58.5 371 Q78 421 112.5 458.5 Q147 496 194 517 Q241 538 296 538 Q351 538 396.5 518.5 Q442 499 475.5 463 Q509 427 527 377.5 Q545 328 545 268 L545 234 L158 234 Q163 188 182.5 154.5 Q202 121 233 103 Q264 85 305 85 Q387 85 433 158 L534 119 Q516 78 481.5 47.5 Q447 17 401.5 1 Q356 -15 305 -15 Z M296 445 Q261 445 233.5 429 Q206 413 187 384 Q168 355 161 316 L425 316 Q419 355 402 384 Q385 413 357.5 429 Q330 445 296 445 Z " />
<glyph glyph-name="uni0066" unicode="f" horiz-adv-x="397" d="M109 0 L109 430 L17 430 L17 523 L109 523 L109 560 Q109 618 133 661.5 Q157 705 199 729.5 Q241 754 295 754 Q326 754 351.5 746.5 Q377 739 397 728 L371 640 Q358 647 341.5 651.5 Q325 656 309 656 Q266 656 245 629.5 Q224 603 224 554 L224 523 L374 523 L374 430 L224 430 L224 0 L109 0 Z " />
<glyph glyph-name="uni0067" unicode="g" horiz-adv-x="627" d="M280 10 Q229 10 185 30 Q141 50 108 85.5 Q75 121 57 168.5 Q39 216 39 272 Q39 328 57.5 376.5 Q76 425 110 461 Q144 497 189 517.5 Q234 538 286 538 Q340 538 384.5 514.5 Q429 491 456 449 L460 523 L565 523 L565 55 Q565 -5 546 -54.5 Q527 -104 492 -139.5 Q457 -175 408.5 -194 Q360 -213 300 -213 Q220 -213 160 -177 Q100 -141 66 -77 L175 -39 Q197 -75 230 -93.5 Q263 -112 304 -112 Q348 -112 381 -92.5 Q414 -73 432 -37.5 Q450 -2 450 46 L450 96 Q422 56 378 33 Q334 10 280 10 Z M304 114 Q346 114 379.5 135 Q413 156 432.5 192 Q452 228 452 274 Q452 320 432.5 356 Q413 392 379.5 413 Q346 434 304 434 Q262 434 229 413 Q196 392 176.5 356 Q157 320 157 274 Q157 228 176.5 192 Q196 156 229 135 Q262 114 304 114 Z " />
<glyph glyph-name="uni0068" unicode="h" horiz-adv-x="587" d="M62 0 L62 744 L177 744 L177 460 Q201 496 241 517 Q281 538 331 538 Q390 538 433.5 510 Q477 482 501 431 Q525 380 525 311 L525 0 L410 0 L410 298 Q410 362 381.5 398 Q353 434 302 434 Q266 434 237.5 417 Q209 400 193 371 Q177 342 177 304 L177 0 L62 0 Z " />
<glyph glyph-name="uni0069" unicode="i" horiz-adv-x="239" d="M189 669 Q189 650 179.5 634 Q170 618 154 608.5 Q138 599 119 599 Q100 599 84 608.5 Q68 618 58.5 634 Q49 650 49 669 Q49 688 58.5 704 Q68 720 84 729.5 Q100 739 119 739 Q138 739 154 729.5 Q170 720 179.5 704 Q189 688 189 669 Z M62 0 L62 523 L177 523 L177 0 L62 0 Z " />
<glyph glyph-name="uni006A" unicode="j" horiz-adv-x="244" d="M194 669 Q194 650 184.5 634 Q175 618 159.5 608.5 Q144 599 124 599 Q104 599 88.5 608.5 Q73 618 63.5 634 Q54 650 54 669 Q54 688 63.5 704 Q73 720 88.5 729.5 Q104 739 124 739 Q144 739 159.5 729.5 Q175 720 184.5 704 Q194 688 194 669 Z M18 -208 Q-8 -208 -31 -201.5 Q-54 -195 -74 -183 L-47 -94 Q-24 -107 1 -107 Q32 -107 49.5 -86 Q67 -65 67 -27 L67 523 L182 523 L182 -34 Q182 -86 161.5 -125 Q141 -164 104 -186 Q67 -208 18 -208 Z " />
<glyph glyph-name="uni006B" unicode="k" horiz-adv-x="561" d="M62 0 L62 744 L177 744 L177 307 L391 523 L531 523 L296 291 L555 0 L404 0 L177 264 L177 0 L62 0 Z " />
<glyph glyph-name="uni006C" unicode="l" horiz-adv-x="239" d="M62 0 L62 744 L177 744 L177 0 L62 0 Z " />
<glyph glyph-name="uni006D" unicode="m" horiz-adv-x="915" d="M62 0 L62 523 L167 523 L171 453 Q194 492 234 515 Q274 538 325 538 Q380 538 422 510.5 Q464 483 487 435 Q502 466 527.5 489 Q553 512 587.5 525 Q622 538 662 538 Q720 538 763 510.5 Q806 483 829.5 432.5 Q853 382 853 312 L853 0 L738 0 L738 299 Q738 364 710 399 Q682 434 633 434 Q599 434 572.5 417.5 Q546 401 530.5 371.5 Q515 342 515 305 L515 0 L400 0 L400 299 Q400 364 372 399 Q344 434 295 434 Q261 434 234.5 417.5 Q208 401 192.5 371.5 Q177 342 177 305 L177 0 L62 0 Z " />
<glyph glyph-name="uni006E" unicode="n" horiz-adv-x="587" d="M62 0 L62 523 L167 523 L171 451 Q194 491 235.5 514.5 Q277 538 331 538 Q390 538 433.5 510 Q477 482 501 431 Q525 380 525 311 L525 0 L410 0 L410 298 Q410 362 381.5 398 Q353 434 302 434 Q266 434 237.5 417 Q209 400 193 371 Q177 342 177 304 L177 0 L62 0 Z " />
<glyph glyph-name="uni006F" unicode="o" horiz-adv-x="614" d="M305 -15 Q248 -15 199.5 5.5 Q151 26 115 63.5 Q79 101 59 151.5 Q39 202 39 262 Q39 321 59 371.5 Q79 422 115.5 459.5 Q152 497 201.5 517.5 Q251 538 309 538 Q366 538 414.5 517.5 Q463 497 499 459.5 Q535 422 555 372 Q575 322 575 262 Q575 202 555 151.5 Q535 101 498.5 63.5 Q462 26 412.5 5.5 Q363 -15 305 -15 Z M307 89 Q350 89 384 111.5 Q418 134 437.5 173 Q457 212 457 262 Q457 312 437.5 350.5 Q418 389 384 411.5 Q350 434 307 434 Q264 434 230 411.5 Q196 389 176.5 350.5 Q157 312 157 262 Q157 212 176.5 173 Q196 134 230 111.5 Q264 89 307 89 Z " />
<glyph glyph-name="uni0070" unicode="p" horiz-adv-x="632" d="M62 -198 L62 523 L167 523 L172 439 Q200 485 246 511.5 Q292 538 349 538 Q401 538 445.5 517 Q490 496 523 459 Q556 422 574.5 372 Q593 322 593 264 Q593 205 574 154 Q555 103 521 65 Q487 27 441.5 6 Q396 -15 343 -15 Q291 -15 248 7 Q205 29 177 69 L177 -198 L62 -198 Z M325 89 Q368 89 402 111.5 Q436 134 455.5 173 Q475 212 475 262 Q475 312 455.5 350.5 Q436 389 402 411.5 Q368 434 325 434 Q282 434 248 411.5 Q214 389 194.5 350.5 Q175 312 175 262 Q175 212 194.5 173 Q214 134 248 111.5 Q282 89 325 89 Z " />
<glyph glyph-name="uni0071" unicode="q" horiz-adv-x="632" d="M283 -15 Q231 -15 186.5 6 Q142 27 109 64 Q76 101 57.5 151 Q39 201 39 259 Q39 318 58 369 Q77 420 111 458 Q145 496 190.5 517 Q236 538 289 538 Q344 538 388.5 514 Q433 490 460 446 L465 523 L570 523 L570 -198 L455 -198 L455 76 Q427 33 382 9 Q337 -15 283 -15 Z M307 89 Q350 89 384 111.5 Q418 134 437.5 173 Q457 212 457 261 Q457 311 437.5 350 Q418 389 384 411.5 Q350 434 307 434 Q264 434 230 411.5 Q196 389 176.5 350 Q157 311 157 261 Q157 212 176.5 173 Q196 134 230 111.5 Q264 89 307 89 Z " />
<glyph glyph-name="uni0072" unicode="r" horiz-adv-x="388" d="M62 0 L62 523 L167 523 L172 437 Q192 481 227.5 505.5 Q263 530 311 530 Q326 530 340 528 Q354 526 365 521 L352 409 Q341 413 329 414.5 Q317 416 305 416 Q245 416 211 376 Q177 336 177 265 L177 0 L62 0 Z " />
<glyph glyph-name="uni0073" unicode="s" horiz-adv-x="479" d="M241 -15 Q190 -15 146.5 2 Q103 19 72.5 50.5 Q42 82 29 125 L133 152 Q146 118 175 99 Q204 80 242 80 Q281 80 306 98.5 Q331 117 331 146 Q331 171 311 188 Q291 205 246 213 L213 219 Q129 234 86.5 273 Q44 312 44 373 Q44 422 69 459 Q94 496 138 517 Q182 538 239 538 Q288 538 329 521 Q370 504 398 473 Q426 442 438 400 L335 375 Q323 407 297.5 425.5 Q272 444 238 444 Q203 444 180 426.5 Q157 409 157 382 Q157 359 177.5 344 Q198 329 247 320 L280 314 Q360 300 403 259 Q446 218 446 157 Q446 120 431 88.5 Q416 57 388.5 33.5 Q361 10 323.5 -2.5 Q286 -15 241 -15 Z " />
<glyph glyph-name="uni0074" unicode="t" horiz-adv-x="426" d="M278 -15 Q199 -15 154 30.5 Q109 76 109 161 L109 430 L17 430 L17 523 L109 523 L109 700 L224 700 L224 523 L376 523 L376 430 L224 430 L224 173 Q224 131 241.5 108.5 Q259 86 293 86 Q311 86 332 91.5 Q353 97 371 107 L397 20 Q374 4 343.5 -5.5 Q313 -15 278 -15 Z " />
<glyph glyph-name="uni0075" unicode="u" horiz-adv-x="586" d="M292 -15 Q222 -15 170.5 15 Q119 45 90.5 100.5 Q62 156 62 231 L62 523 L177 523 L177 229 Q177 164 208 126.5 Q239 89 293 89 Q347 89 378 126.5 Q409 164 409 229 L409 523 L524 523 L524 231 Q524 157 495.5 101.5 Q467 46 415 15.5 Q363 -15 292 -15 Z " />
<glyph glyph-name="uni0076" unicode="v" horiz-adv-x="545" d="M214 0 L14 523 L140 523 L274 120 L409 523 L531 523 L331 0 L214 0 Z " />
<glyph glyph-name="uni0077" unicode="w" horiz-adv-x="824" d="M188 0 L14 523 L134 523 L245 141 L362 523 L465 523 L581 141 L694 523 L810 523 L635 0 L527 0 L412 380 L296 0 L188 0 Z " />
<glyph glyph-name="uni0078" unicode="x" horiz-adv-x="554" d="M14 0 L213 276 L36 523 L166 523 L278 348 L393 523 L518 523 L341 276 L540 0 L405 0 L276 200 L145 0 L14 0 Z " />
<glyph glyph-name="uni0079" unicode="y" horiz-adv-x="545" d="M132 -208 Q107 -208 85.5 -203 Q64 -198 44 -187 L69 -96 Q80 -101 94 -104.5 Q108 -108 121 -108 Q151 -108 173.5 -91 Q196 -74 211 -36 L227 5 L14 523 L140 523 L281 132 L409 523 L531 523 L309 -63 Q280 -138 236.5 -173 Q193 -208 132 -208 Z " />
<glyph glyph-name="uni007A" unicode="z" horiz-adv-x="513" d="M41 0 L41 76 L313 430 L48 430 L48 523 L455 523 L455 447 L183 93 L472 93 L472 0 L41 0 Z " />
<glyph glyph-name="uni2122" unicode="&#x2122;" horiz-adv-x="790" d="M126 359 L126 636 L27 636 L27 710 L309 710 L309 636 L210 636 L210 359 L126 359 Z M368 359 L368 710 L452 710 L550 515 L648 710 L730 710 L730 359 L649 359 L649 580 L576 432 L522 432 L449 580 L449 359 L368 359 Z " />
<glyph glyph-name="uni00AA" unicode="&#xaa;" horiz-adv-x="399" d="M159 312 Q122 312 92.5 326.5 Q63 341 46 367 Q29 393 29 427 Q29 462 48 489 Q67 516 100.5 530.5 Q134 545 180 545 Q226 545 263 528 L263 550 Q263 582 244 602.5 Q225 623 196 623 Q172 623 154 611.5 Q136 600 129 581 L42 598 Q51 628 73.5 651 Q96 674 128 687 Q160 700 198 700 Q246 700 281.5 680.5 Q317 661 337 626.5 Q357 592 357 545 L357 321 L270 321 L267 366 Q252 341 224 326.5 Q196 312 159 312 Z M124 431 Q124 409 141 396 Q158 383 183 383 Q206 383 224 393.5 Q242 404 252.5 422 Q263 440 263 462 L263 468 Q248 474 230.5 478 Q213 482 196 482 Q164 482 144 469 Q124 456 124 431 Z " />
<glyph glyph-name="uni00BA" unicode="&#xba;" horiz-adv-x="440" d="M220 312 Q179 312 143.5 326.5 Q108 341 82 367.5 Q56 394 41.5 429.5 Q27 465 27 506 Q27 547 41.5 582.5 Q56 618 82 644.5 Q108 671 143 685.5 Q178 700 220 700 Q261 700 296.5 685.5 Q332 671 358 644.5 Q384 618 398.5 582.5 Q413 547 413 506 Q413 465 398.5 429.5 Q384 394 358 367.5 Q332 341 297 326.5 Q262 312 220 312 Z M220 400 Q248 400 269 414 Q290 428 302 452 Q314 476 314 506 Q314 536 302 560 Q290 584 269 598 Q248 612 220 612 Q192 612 171 598 Q150 584 138 560 Q126 536 126 506 Q126 476 138 452 Q150 428 171 414 Q192 400 220 400 Z " />
<glyph glyph-name="uni00B0" unicode="&#xb0;" horiz-adv-x="372" d="M348 592 Q348 559 335.5 530 Q323 501 300.5 479 Q278 457 248.5 444.5 Q219 432 185 432 Q152 432 122.5 444 Q93 456 71 478 Q49 500 36.5 529 Q24 558 24 592 Q24 625 36.5 654 Q49 683 71.5 705 Q94 727 123.5 739.5 Q153 752 187 752 Q220 752 249.5 740 Q279 728 301 706 Q323 684 335.5 655 Q348 626 348 592 Z M261 592 Q261 614 251 632.5 Q241 651 223.5 662 Q206 673 186 673 Q166 673 148.5 662 Q131 651 121 632.5 Q111 614 111 592 Q111 570 121 551.5 Q131 533 148.5 522 Q166 511 186 511 Q206 511 223.5 522 Q241 533 251 551.5 Q261 570 261 592 Z " />
<glyph glyph-name="uni00A9" unicode="&#xa9;" horiz-adv-x="854" d="M427 -21 Q363 -21 306 -2.5 Q249 16 202.5 50 Q156 84 122 130.5 Q88 177 69.5 234 Q51 291 51 355 Q51 419 69.5 475.5 Q88 532 122 579 Q156 626 202.5 659.5 Q249 693 306 711.5 Q363 730 427 730 Q491 730 548 711.5 Q605 693 651.5 659.5 Q698 626 732 579 Q766 532 784.5 475.5 Q803 419 803 355 Q803 291 784.5 234 Q766 177 732 130.5 Q698 84 651.5 50 Q605 16 548 -2.5 Q491 -21 427 -21 Z M427 53 Q476 53 521 68 Q566 83 603 111 Q640 139 667.5 176.5 Q695 214 710 259.5 Q725 305 725 355 Q725 405 710 450 Q695 495 667.5 533 Q640 571 603 598.5 Q566 626 521 641 Q476 656 427 656 Q378 656 333 641 Q288 626 251 598.5 Q214 571 186.5 533 Q159 495 144 450 Q129 405 129 355 Q129 305 144 259.5 Q159 214 186.5 176.5 Q214 139 251 111 Q288 83 333 68 Q378 53 427 53 Z M431 153 Q390 153 354.5 168 Q319 183 293 210.5 Q267 238 252.5 275 Q238 312 238 356 Q238 400 253 438 Q268 476 294.5 504.5 Q321 533 356.5 549 Q392 565 433 565 Q474 565 508 550 Q542 535 566 506.5 Q590 478 601 440 L514 419 Q502 447 480.5 463 Q459 479 433 479 Q405 479 383 463 Q361 447 348 419.5 Q335 392 335 358 Q335 323 347.5 296 Q360 269 382 254 Q404 239 433 239 Q461 239 484 254.5 Q507 270 518 298 L605 277 Q594 240 568.5 212.5 Q543 185 507.5 169 Q472 153 431 153 Z " />
<glyph glyph-name="uni00AE" unicode="&#xae;" horiz-adv-x="536" d="M268 270 Q219 270 177.5 287 Q136 304 105 334.5 Q74 365 57 406 Q40 447 40 495 Q40 543 57 584 Q74 625 105 655.5 Q136 686 177.5 703 Q219 720 268 720 Q317 720 358.5 703 Q400 686 431 655.5 Q462 625 479 584 Q496 543 496 495 Q496 447 479 406 Q462 365 431 334.5 Q400 304 358.5 287 Q317 270 268 270 Z M268 322 Q304 322 335.5 335 Q367 348 391 372 Q415 396 428 427.5 Q441 459 441 495 Q441 531 428 562.5 Q415 594 391 618 Q367 642 335.5 655 Q304 668 268 668 Q232 668 200.5 655 Q169 642 145 618 Q121 594 108 562.5 Q95 531 95 495 Q95 459 108 427.5 Q121 396 145 372 Q169 348 200.5 335 Q232 322 268 322 Z M184 379 L184 615 L267 615 Q313 615 339 594.5 Q365 574 365 537 Q365 516 354.5 498.5 Q344 481 327 471 L377 379 L314 379 L277 455 Q270 454 264 454 Q255 454 241 456 L241 379 L184 379 Z M241 566 L241 504 Q252 502 265 502 Q284 502 295 511 Q306 520 306 535 Q306 549 295 557.5 Q284 566 265 566 L241 566 Z " />
<glyph glyph-name="uni2018" unicode="&#x2018;" horiz-adv-x="240" d="M129 432 Q104 432 83 448 Q62 464 49.5 491 Q37 518 37 551 Q37 590 53.5 624 Q70 658 100 683 Q130 708 171 722 L194 660 Q156 646 133.5 619.5 Q111 593 111 563 Q111 551 113 542 Q124 550 138 550 Q154 550 166.5 542.5 Q179 535 187 521.5 Q195 508 195 492 Q195 476 186 462 Q177 448 162 440 Q147 432 129 432 Z " />
<glyph glyph-name="uni2019" unicode="&#x2019;" horiz-adv-x="240" d="M111 714 Q136 714 157 698 Q178 682 190.5 655 Q203 628 203 595 Q203 556 186.5 522 Q170 488 140 463 Q110 438 69 424 L46 486 Q84 500 106.5 526.5 Q129 553 129 583 Q129 595 127 604 Q116 596 102 596 Q86 596 73.5 603.5 Q61 611 53 624.5 Q45 638 45 654 Q45 670 54 684 Q63 698 78 706 Q93 714 111 714 Z " />
<glyph glyph-name="uni201A" unicode="&#x201a;" horiz-adv-x="236" d="M116 139 Q141 139 162 123 Q183 107 195.5 80 Q208 53 208 20 Q208 -19 191.5 -53 Q175 -87 145 -112 Q115 -137 74 -151 L51 -89 Q89 -75 111.5 -48.5 Q134 -22 134 8 Q134 20 132 29 Q121 21 107 21 Q91 21 78.5 28.5 Q66 36 58 49.5 Q50 63 50 79 Q50 95 59 109 Q68 123 83 131 Q98 139 116 139 Z " />
<glyph glyph-name="uni201C" unicode="&#x201c;" horiz-adv-x="442" d="M129 432 Q104 432 83 448 Q62 464 49.5 491 Q37 518 37 551 Q37 590 53.5 624 Q70 658 100 683 Q130 708 171 722 L194 660 Q156 646 133.5 619.5 Q111 593 111 563 Q111 551 113 542 Q124 550 138 550 Q154 550 166.5 542.5 Q179 535 187 521.5 Q195 508 195 492 Q195 476 186 462 Q177 448 162 440 Q147 432 129 432 Z M331 432 Q306 432 285 448 Q264 464 251.5 491 Q239 518 239 551 Q239 590 255.5 624 Q272 658 302 683 Q332 708 373 722 L396 660 Q358 646 335.5 619.5 Q313 593 313 563 Q313 551 315 542 Q326 550 340 550 Q356 550 368.5 542.5 Q381 535 389 521.5 Q397 508 397 492 Q397 476 388 462 Q379 448 364 440 Q349 432 331 432 Z " />
<glyph glyph-name="uni201D" unicode="&#x201d;" horiz-adv-x="442" d="M111 714 Q136 714 157 698 Q178 682 190.5 655 Q203 628 203 595 Q203 556 186.5 522 Q170 488 140 463 Q110 438 69 424 L46 486 Q84 500 106.5 526.5 Q129 553 129 583 Q129 595 127 604 Q116 596 102 596 Q86 596 73.5 603.5 Q61 611 53 624.5 Q45 638 45 654 Q45 670 54 684 Q63 698 78 706 Q93 714 111 714 Z M313 714 Q338 714 359 698 Q380 682 392.5 655 Q405 628 405 595 Q405 556 388.5 522 Q372 488 342 463 Q312 438 271 424 L248 486 Q286 500 308.5 526.5 Q331 553 331 583 Q331 595 329 604 Q318 596 304 596 Q288 596 275.5 603.5 Q263 611 255 624.5 Q247 638 247 654 Q247 670 256 684 Q265 698 280 706 Q295 714 313 714 Z " />
<glyph glyph-name="uni201E" unicode="&#x201e;" horiz-adv-x="439" d="M116 139 Q141 139 162 123 Q183 107 195.5 80 Q208 53 208 20 Q208 -19 191.5 -53 Q175 -87 145 -112 Q115 -137 74 -151 L51 -89 Q89 -75 111.5 -48.5 Q134 -22 134 8 Q134 20 132 29 Q121 21 107 21 Q91 21 78.5 28.5 Q66 36 58 49.5 Q50 63 50 79 Q50 95 59 109 Q68 123 83 131 Q98 139 116 139 Z M319 139 Q344 139 365 123 Q386 107 398.5 80 Q411 53 411 20 Q411 -19 394.5 -53 Q378 -87 348 -112 Q318 -137 277 -151 L254 -89 Q292 -75 314.5 -48.5 Q337 -22 337 8 Q337 20 335 29 Q324 21 310 21 Q294 21 281.5 28.5 Q269 36 261 49.5 Q253 63 253 79 Q253 95 262 109 Q271 123 286 131 Q301 139 319 139 Z " />
<glyph glyph-name="uni0131" unicode="&#x131;" horiz-adv-x="239" d="M62 0 L62 523 L177 523 L177 0 L62 0 Z " />
<glyph glyph-name="uni0237" unicode="&#x237;" horiz-adv-x="244" d="M18 -208 Q-8 -208 -31 -201.5 Q-54 -195 -74 -183 L-47 -94 Q-24 -107 1 -107 Q32 -107 49.5 -86 Q67 -65 67 -27 L67 523 L182 523 L182 -34 Q182 -86 161.5 -125 Q141 -164 104 -186 Q67 -208 18 -208 Z " />
<glyph glyph-name="uni0132" unicode="&#x132;" horiz-adv-x="691" d="M62 300 L62 710 L184 710 L184 300 L62 300 Z M344 -20 Q276 -20 220 3 Q164 26 124.5 70 Q85 114 65 176 L182 206 Q204 150 245 121 Q286 92 339 92 Q390 92 428 115.5 Q466 139 486.5 182.5 Q507 226 507 286 L507 710 L629 710 L629 285 Q629 216 609 160 Q589 104 551 63.5 Q513 23 460.5 1.5 Q408 -20 344 -20 Z " />
<glyph glyph-name="uni0133" unicode="&#x133;" horiz-adv-x="587" d="M189 669 Q189 650 179.5 634 Q170 618 154 608.5 Q138 599 119 599 Q100 599 84 608.5 Q68 618 58.5 634 Q49 650 49 669 Q49 688 58.5 704 Q68 720 84 729.5 Q100 739 119 739 Q138 739 154 729.5 Q170 720 179.5 704 Q189 688 189 669 Z M537 669 Q537 650 527.5 634 Q518 618 502 608.5 Q486 599 467 599 Q448 599 432 608.5 Q416 618 406.5 634 Q397 650 397 669 Q397 688 406.5 704 Q416 720 432 729.5 Q448 739 467 739 Q486 739 502 729.5 Q518 720 527.5 704 Q537 688 537 669 Z M256 10 Q197 10 153.5 38 Q110 66 86 117 Q62 168 62 237 L62 523 L177 523 L177 250 Q177 186 205.5 150 Q234 114 285 114 Q322 114 350 131 Q378 148 394 177 Q410 206 410 244 L410 523 L525 523 L525 39 Q525 -18 508 -64.5 Q491 -111 459 -144.5 Q427 -178 382.5 -195.5 Q338 -213 284 -213 Q235 -213 192.5 -197.5 Q150 -182 118 -153.5 Q86 -125 67 -85 L173 -47 Q193 -78 221.5 -95 Q250 -112 284 -112 Q322 -112 350.5 -94.5 Q379 -77 394.5 -45.5 Q410 -14 410 30 L410 88 Q386 52 346 31 Q306 10 256 10 Z " />
<glyph glyph-name="uni00DE" unicode="&#xde;" horiz-adv-x="587" d="M70 0 L70 710 L190 710 L190 590 L285 590 Q370 590 430.5 562 Q491 534 523.5 482 Q556 430 556 356 Q556 286 522 233.5 Q488 181 426 152.5 Q364 124 280 124 Q260 124 237.5 126 Q215 128 190 131 L190 0 L70 0 Z M190 484 L190 237 Q212 234 234 232 Q256 230 275 230 Q351 230 391.5 263 Q432 296 432 357 Q432 417 393 450.5 Q354 484 283 484 L190 484 Z " />
<glyph glyph-name="uni00C6" unicode="&#xc6;" horiz-adv-x="1015" d="M19 0 L471 710 L947 710 L947 605 L647 605 L647 419 L917 419 L917 314 L647 314 L647 105 L957 105 L957 0 L527 0 L527 176 L263 176 L155 0 L19 0 Z M327 280 L527 280 L527 604 L327 280 Z " />
<glyph glyph-name="uni0152" unicode="&#x152;" horiz-adv-x="1032" d="M422 0 Q338 0 268.5 25.5 Q199 51 149.5 97.5 Q100 144 73 209 Q46 274 46 354 Q46 434 73 499.5 Q100 565 150 612 Q200 659 269 684.5 Q338 710 422 710 L964 710 L964 605 L664 605 L664 419 L934 419 L934 314 L664 314 L664 105 L974 105 L974 0 L422 0 Z M428 109 L544 109 L544 601 L428 601 Q350 601 292.5 571 Q235 541 203.5 485.5 Q172 430 172 355 Q172 280 203.5 224.5 Q235 169 292.5 139 Q350 109 428 109 Z " />
<glyph glyph-name="uni1E9E" unicode="&#x1e9e;" horiz-adv-x="646" d="M372 -15 Q337 -15 306.5 -7 Q276 1 248 16 L275 115 Q294 104 320 98 Q346 92 368 92 Q404 92 432 107.5 Q460 123 476 150.5 Q492 178 492 214 Q492 251 474 278.5 Q456 306 424 322 Q392 338 348 338 L337 411 L458 569 Q436 590 405.5 603 Q375 616 340 616 Q294 616 258.5 593.5 Q223 571 203.5 529.5 Q184 488 184 431 L184 0 L62 0 L62 428 Q62 495 81.5 549.5 Q101 604 137.5 643.5 Q174 683 224.5 704 Q275 725 337 725 Q417 725 485 690 Q553 655 597 591 L466 419 Q511 406 545 376.5 Q579 347 598 305.5 Q617 264 617 214 Q617 164 598.5 122.5 Q580 81 547 50 Q514 19 469.5 2 Q425 -15 372 -15 Z " />
<glyph glyph-name="uni00FE" unicode="&#xfe;" horiz-adv-x="632" d="M62 -198 L62 744 L177 744 L177 447 Q205 490 250 514 Q295 538 349 538 Q401 538 445.5 517 Q490 496 523 459 Q556 422 574.5 372 Q593 322 593 264 Q593 205 574 154 Q555 103 521 65 Q487 27 441.5 6 Q396 -15 343 -15 Q291 -15 248 7 Q205 29 177 69 L177 -198 L62 -198 Z M325 89 Q368 89 402 111.5 Q436 134 455.5 173 Q475 212 475 262 Q475 312 455.5 350.5 Q436 389 402 411.5 Q368 434 325 434 Q282 434 248 411.5 Q214 389 194.5 350.5 Q175 312 175 262 Q175 212 194.5 173 Q214 134 248 111.5 Q282 89 325 89 Z " />
<glyph glyph-name="uni00E6" unicode="&#xe6;" horiz-adv-x="891" d="M232 -15 Q190 -15 154.5 -3 Q119 9 92.5 31 Q66 53 51.5 83 Q37 113 37 150 Q37 199 63 236.5 Q89 274 135.5 295 Q182 316 245 316 Q279 316 309.5 309.5 Q340 303 368 291 L368 324 Q368 359 355.5 385.5 Q343 412 320 427 Q297 442 265 442 Q230 442 202.5 423 Q175 404 162 370 L56 394 Q68 438 98.5 470 Q129 502 172.5 520 Q216 538 267 538 Q321 538 363.5 515 Q406 492 432 451 Q465 492 511.5 515 Q558 538 615 538 Q667 538 710.5 518.5 Q754 499 786.5 463 Q819 427 837 377.5 Q855 328 855 268 L855 234 L478 234 Q482 188 501 154.5 Q520 121 550 103 Q580 85 620 85 Q699 85 743 158 L844 119 Q826 78 792 47.5 Q758 17 714 1 Q670 -15 622 -15 Q556 -15 503.5 13.5 Q451 42 418 92 Q404 61 377.5 36.5 Q351 12 314 -1.5 Q277 -15 232 -15 Z M611 445 Q578 445 551 429 Q524 413 506 384.5 Q488 356 480 316 L735 316 Q730 355 713 384 Q696 413 670 429 Q644 445 611 445 Z M153 154 Q153 120 178.5 98.5 Q204 77 245 77 Q280 77 307.5 93 Q335 109 351.5 136.5 Q368 164 368 199 L368 212 Q343 222 316.5 228.5 Q290 235 263 235 Q213 235 183 213 Q153 191 153 154 Z " />
<glyph glyph-name="uni0153" unicode="&#x153;" horiz-adv-x="979" d="M298 -15 Q244 -15 197 5.5 Q150 26 114.5 63.5 Q79 101 59 151 Q39 201 39 261 Q39 320 59 370.5 Q79 421 114.5 458.5 Q150 496 197.5 517 Q245 538 300 538 Q365 538 417 509.5 Q469 481 502 432 Q536 482 587 510 Q638 538 701 538 Q754 538 798 518.5 Q842 499 874.5 463 Q907 427 925 377.5 Q943 328 943 268 L943 234 L566 234 Q570 188 589 154.5 Q608 121 638 103 Q668 85 708 85 Q787 85 831 158 L932 119 Q914 78 880.5 47.5 Q847 17 802.5 1 Q758 -15 709 -15 Q643 -15 589 13.5 Q535 42 501 93 Q468 43 415.5 14 Q363 -15 298 -15 Z M699 445 Q666 445 639 429 Q612 413 594 384.5 Q576 356 568 316 L823 316 Q818 355 801 384 Q784 413 758 429 Q732 445 699 445 Z M302 89 Q344 89 376.5 111.5 Q409 134 428 173 Q447 212 447 262 Q447 312 428 350.5 Q409 389 376.5 411.5 Q344 434 302 434 Q260 434 227.5 411.5 Q195 389 176 350.5 Q157 312 157 262 Q157 212 176 173 Q195 134 227.5 111.5 Q260 89 302 89 Z " />
<glyph glyph-name="uni00DF" unicode="&#xdf;" horiz-adv-x="600" d="M331 -10 Q306 -10 281 -6 Q256 -2 237 6 L254 104 Q267 99 284.5 95.5 Q302 92 319 92 Q354 92 382.5 107.5 Q411 123 427 150.5 Q443 178 443 214 Q443 252 425.5 281 Q408 310 377 327 Q346 344 306 344 L274 344 L274 441 L296 441 Q328 441 353 455 Q378 469 392.5 493 Q407 517 407 547 Q407 577 392 600.5 Q377 624 351.5 638 Q326 652 295 652 Q260 652 233.5 636 Q207 620 192 590 Q177 560 177 519 L177 0 L62 0 L62 519 Q62 572 79 615 Q96 658 127 690 Q158 722 200.5 739 Q243 756 295 756 Q344 756 385.5 741 Q427 726 458 699 Q489 672 506 635.5 Q523 599 523 557 Q523 508 500 467 Q477 426 435 401 Q473 388 501.5 360.5 Q530 333 545.5 295 Q561 257 561 212 Q561 165 544 124.5 Q527 84 496.5 54 Q466 24 424 7 Q382 -10 331 -10 Z " />
<glyph glyph-name="uni0138" unicode="&#x138;" horiz-adv-x="561" d="M62 0 L62 523 L177 523 L177 297 L391 523 L531 523 L296 282 L555 0 L404 0 L177 254 L177 0 L62 0 Z " />
<glyph glyph-name="uni014A" unicode="&#x14a;" horiz-adv-x="721" d="M70 0 L70 710 L178 710 L532 202 L532 710 L651 710 L651 -9 Q651 -71 626 -117 Q601 -163 557.5 -188 Q514 -213 459 -213 Q421 -213 390.5 -202 Q360 -191 338 -175 L372 -86 Q388 -96 409.5 -102 Q431 -108 450 -108 Q488 -108 510 -82 Q532 -56 532 -9 L532 16 L189 510 L189 0 L70 0 Z " />
<glyph glyph-name="uni014B" unicode="&#x14b;" horiz-adv-x="587" d="M62 0 L62 523 L167 523 L171 451 Q194 491 235.5 514.5 Q277 538 331 538 Q390 538 433.5 510 Q477 482 501 431 Q525 380 525 311 L525 -39 Q525 -91 504.5 -130 Q484 -169 447 -191 Q410 -213 362 -213 Q336 -213 312.5 -206.5 Q289 -200 270 -189 L296 -99 Q306 -104 319.5 -108 Q333 -112 345 -112 Q375 -112 392.5 -91 Q410 -70 410 -32 L410 298 Q410 362 381.5 398 Q353 434 302 434 Q266 434 237.5 417 Q209 400 193 371 Q177 342 177 304 L177 0 L62 0 Z " />
<glyph glyph-name="uni00D0" unicode="&#xd0;" horiz-adv-x="761" d="M80 0 L80 317 L-2 317 L-2 416 L80 416 L80 710 L339 710 Q423 710 492.5 684.5 Q562 659 611.5 612.5 Q661 566 688 501 Q715 436 715 356 Q715 276 688 210.5 Q661 145 611 98 Q561 51 492 25.5 Q423 0 339 0 L80 0 Z M202 109 L333 109 Q412 109 469 139 Q526 169 557.5 224.5 Q589 280 589 355 Q589 430 557.5 485.5 Q526 541 468.5 571 Q411 601 333 601 L202 601 L202 416 L356 416 L356 317 L202 317 L202 109 Z " />
<glyph glyph-name="uni0110" unicode="&#x110;" horiz-adv-x="761" d="M80 0 L80 317 L-2 317 L-2 416 L80 416 L80 710 L339 710 Q423 710 492.5 684.5 Q562 659 611.5 612.5 Q661 566 688 501 Q715 436 715 356 Q715 276 688 210.5 Q661 145 611 98 Q561 51 492 25.5 Q423 0 339 0 L80 0 Z M202 109 L333 109 Q412 109 469 139 Q526 169 557.5 224.5 Q589 280 589 355 Q589 430 557.5 485.5 Q526 541 468.5 571 Q411 601 333 601 L202 601 L202 416 L356 416 L356 317 L202 317 L202 109 Z " />
<glyph glyph-name="uni0126" unicode="&#x126;" horiz-adv-x="751" d="M80 0 L80 529 L-2 529 L-2 619 L80 619 L80 710 L202 710 L202 619 L549 619 L549 710 L671 710 L671 619 L753 619 L753 529 L671 529 L671 0 L549 0 L549 306 L202 306 L202 0 L80 0 Z M202 415 L549 415 L549 529 L202 529 L202 415 Z " />
<glyph glyph-name="uni0166" unicode="&#x166;" horiz-adv-x="624" d="M251 0 L251 286 L125 286 L125 385 L251 385 L251 601 L44 601 L44 710 L580 710 L580 601 L373 601 L373 385 L499 385 L499 286 L373 286 L373 0 L251 0 Z " />
<glyph glyph-name="uni0141" unicode="&#x141;" horiz-adv-x="546" d="M80 0 L80 227 L-2 167 L-2 282 L80 342 L80 710 L202 710 L202 432 L331 527 L331 412 L202 317 L202 109 L503 109 L503 0 L80 0 Z " />
<glyph glyph-name="uni00D8" unicode="&#xd8;" horiz-adv-x="810" d="M174 -35 L56 -35 L148 88 Q100 138 73 206.5 Q46 275 46 355 Q46 419 63.5 476 Q81 533 113 579.5 Q145 626 189.5 659.5 Q234 693 288.5 711.5 Q343 730 405 730 Q456 730 502.5 717.5 Q549 705 588 681 L636 745 L754 745 L662 622 Q710 572 737 503.5 Q764 435 764 355 Q764 291 746.5 234 Q729 177 697 130.5 Q665 84 621 50.5 Q577 17 522.5 -1.5 Q468 -20 406 -20 Q355 -20 308.5 -7 Q262 6 222 29 L174 -35 Z M169 354 Q169 304 182 260.5 Q195 217 219 184 L521 591 Q496 605 467 613 Q438 621 406 621 Q354 621 310.5 601.5 Q267 582 235.5 546 Q204 510 186.5 461 Q169 412 169 354 Z M404 89 Q456 89 499.5 108.5 Q543 128 574.5 164 Q606 200 623.5 249 Q641 298 641 356 Q641 406 628 449.5 Q615 493 591 526 L289 119 Q314 105 343 97 Q372 89 404 89 Z " />
<glyph glyph-name="uni00F0" unicode="&#xf0;" horiz-adv-x="623" d="M305 -15 Q248 -15 199.5 5 Q151 25 115 61.5 Q79 98 59 147 Q39 196 39 253 Q39 310 58 358.5 Q77 407 111 444 Q145 481 190 501.5 Q235 522 286 522 Q332 522 369.5 505 Q407 488 434 457 Q418 494 395 531.5 Q372 569 343 604 L247 558 L214 627 L289 663 Q254 697 216 725 L333 756 Q361 735 387 711 L476 754 L509 685 L441 652 Q483 599 513.5 538.5 Q544 478 560 414.5 Q576 351 576 289 Q576 220 556.5 164 Q537 108 501 68 Q465 28 415 6.5 Q365 -15 305 -15 Z M308 89 Q352 89 385.5 110.5 Q419 132 438.5 169.5 Q458 207 458 255 Q458 303 438.5 340.5 Q419 378 385.5 399 Q352 420 308 420 Q264 420 230 399 Q196 378 176.5 340.5 Q157 303 157 255 Q157 207 176.5 169.5 Q196 132 230 110.5 Q264 89 308 89 Z " />
<glyph glyph-name="uni0111" unicode="&#x111;" horiz-adv-x="632" d="M283 -15 Q231 -15 186.5 6 Q142 27 109 64 Q76 101 57.5 151 Q39 201 39 259 Q39 318 58 369 Q77 420 111 458 Q145 496 190.5 517 Q236 538 289 538 Q341 538 384 516 Q427 494 455 454 L455 591 L309 591 L309 672 L455 672 L455 744 L570 744 L570 672 L644 672 L644 591 L570 591 L570 0 L465 0 L460 84 Q432 38 386 11.5 Q340 -15 283 -15 Z M307 89 Q350 89 384 111.5 Q418 134 437.5 173 Q457 212 457 261 Q457 311 437.5 350 Q418 389 384 411.5 Q350 434 307 434 Q264 434 230 411.5 Q196 389 176.5 350 Q157 311 157 261 Q157 212 176.5 173 Q196 134 230 111.5 Q264 89 307 89 Z " />
<glyph glyph-name="uni0127" unicode="&#x127;" horiz-adv-x="587" d="M62 0 L62 591 L-12 591 L-12 672 L62 672 L62 744 L177 744 L177 672 L323 672 L323 591 L177 591 L177 460 Q201 496 241 517 Q281 538 331 538 Q390 538 433.5 510 Q477 482 501 431 Q525 380 525 311 L525 0 L410 0 L410 298 Q410 362 381.5 398 Q353 434 302 434 Q266 434 237.5 417 Q209 400 193 371 Q177 342 177 304 L177 0 L62 0 Z " />
<glyph glyph-name="uni0167" unicode="&#x167;" horiz-adv-x="426" d="M27 233 L27 318 L109 318 L109 430 L17 430 L17 523 L109 523 L109 700 L224 700 L224 523 L376 523 L376 430 L224 430 L224 318 L366 318 L366 233 L224 233 L224 173 Q224 131 241.5 108.5 Q259 86 293 86 Q311 86 332 91.5 Q353 97 371 107 L397 20 Q374 4 343.5 -5.5 Q313 -15 278 -15 Q199 -15 154 30.5 Q109 76 109 161 L109 233 L27 233 Z " />
<glyph glyph-name="uni0142" unicode="&#x142;" horiz-adv-x="273" d="M79 0 L79 275 L4 219 L4 324 L79 380 L79 744 L194 744 L194 466 L269 522 L269 417 L194 361 L194 0 L79 0 Z " />
<glyph glyph-name="uni00F8" unicode="&#xf8;" horiz-adv-x="614" d="M151 -25 L46 -25 L113 68 Q79 105 59 154.5 Q39 204 39 262 Q39 321 59 371.5 Q79 422 115.5 459.5 Q152 497 201.5 517.5 Q251 538 309 538 Q343 538 374.5 530 Q406 522 433 507 L463 548 L568 548 L501 456 Q535 419 555 369 Q575 319 575 262 Q575 202 555 151.5 Q535 101 498.5 63.5 Q462 26 412.5 5.5 Q363 -15 305 -15 Q271 -15 239.5 -7 Q208 1 181 16 L151 -25 Z M155 262 Q155 233 162 207.5 Q169 182 181 161 L371 421 Q341 436 307 436 Q274 436 246.5 423 Q219 410 198.5 386.5 Q178 363 166.5 331.5 Q155 300 155 262 Z M307 87 Q350 87 384.5 109.5 Q419 132 439 172 Q459 212 459 262 Q459 291 452 316.5 Q445 342 433 362 L243 102 Q273 87 307 87 Z " />
<glyph glyph-name="uni0327" unicode="&#x327;" d="M-32 11 L42 11 L25 -46 Q57 -53 77 -76 Q97 -99 97 -128 Q97 -156 80.5 -178 Q64 -200 35 -212 Q6 -224 -32 -224 Q-74 -224 -111 -209 L-97 -144 Q-81 -149 -67.5 -151.5 Q-54 -154 -43 -154 Q-22 -154 -9 -145 Q4 -136 4 -121 Q4 -86 -63 -86 L-32 11 Z " />
<glyph glyph-name="uni00B8" unicode="&#xb8;" horiz-adv-x="587" d="M268 11 L342 11 L325 -46 Q357 -53 377 -76 Q397 -99 397 -128 Q397 -156 380.5 -178 Q364 -200 335 -212 Q306 -224 268 -224 Q226 -224 189 -209 L203 -144 Q219 -149 232.5 -151.5 Q246 -154 257 -154 Q278 -154 291 -145 Q304 -136 304 -121 Q304 -86 237 -86 L268 11 Z " />
<glyph glyph-name="uni0326" unicode="&#x326;" d="M-31 -256 L-53 -205 Q-31 -195 -17 -181 Q-3 -167 1 -151 Q-7 -156 -18 -156 Q-38 -156 -51.5 -142 Q-65 -128 -65 -107 Q-65 -85 -48.5 -70 Q-32 -55 -6 -55 Q15 -55 31.5 -65.5 Q48 -76 57 -94 Q66 -112 66 -135 Q66 -176 40 -208 Q14 -240 -31 -256 Z " />
<glyph glyph-name="uni0312" unicode="&#x312;" d="M7 581 Q-14 581 -30 591.5 Q-46 602 -55.5 620 Q-65 638 -65 661 Q-65 702 -39 734 Q-13 766 32 782 L54 731 Q32 721 18 707 Q4 693 0 677 Q8 682 19 682 Q38 682 52 668 Q66 654 66 633 Q66 611 49 596 Q32 581 7 581 Z " />
<glyph glyph-name="uni0328" unicode="&#x328;" d="M-74 -219 Q-106 -219 -131 -208 Q-156 -197 -169.5 -177 Q-183 -157 -183 -131 Q-183 -94 -153.5 -56.5 Q-124 -19 -63 24 L0 0 Q-47 -36 -68.5 -62 Q-90 -88 -90 -107 Q-90 -122 -79.5 -131 Q-69 -140 -51 -140 Q-38 -140 -24.5 -138 Q-11 -136 -2 -131 L11 -202 Q-32 -219 -74 -219 Z " />
<glyph glyph-name="uni02DB" unicode="&#x2db;" horiz-adv-x="587" d="M305 -219 Q273 -219 248 -208 Q223 -197 209.5 -177 Q196 -157 196 -131 Q196 -94 225.5 -56.5 Q255 -19 316 24 L379 0 Q332 -36 310.5 -62 Q289 -88 289 -107 Q289 -122 299.5 -131 Q310 -140 328 -140 Q341 -140 354.5 -138 Q368 -136 377 -131 L390 -202 Q347 -219 305 -219 Z " />
<glyph glyph-name="uni00C7" unicode="&#xc7;" horiz-adv-x="733" d="M393 -20 Q318 -20 254.5 7.5 Q191 35 144.5 85 Q98 135 72 202.5 Q46 270 46 350 Q46 414 63 471.5 Q80 529 111.5 576.5 Q143 624 186 658.5 Q229 693 281.5 711.5 Q334 730 393 730 Q462 730 521.5 705.5 Q581 681 624.5 636.5 Q668 592 690 531 L573 498 Q547 555 499.5 586.5 Q452 618 392 618 Q345 618 305 598 Q265 578 235 542 Q205 506 188.5 457 Q172 408 172 351 Q172 294 188.5 246.5 Q205 199 234.5 164.5 Q264 130 304.5 111 Q345 92 394 92 Q456 92 503.5 123 Q551 154 580 212 L697 179 Q674 118 630 73 Q586 28 525 4 Q464 -20 393 -20 Z M364 8 L441 8 L423 -51 Q455 -60 475 -83 Q495 -106 495 -136 Q495 -165 478.5 -187 Q462 -209 432.5 -221.5 Q403 -234 364 -234 Q320 -234 280 -219 L295 -151 Q311 -156 325 -158.5 Q339 -161 351 -161 Q373 -161 385.5 -152 Q398 -143 398 -128 Q398 -93 331 -93 L364 8 Z " />
<glyph glyph-name="uni015E" unicode="&#x15e;" horiz-adv-x="564" d="M279 -15 Q219 -15 167.5 6.5 Q116 28 80 67 Q44 106 29 160 L144 188 Q160 142 195 117 Q230 92 280 92 Q316 92 344 106 Q372 120 388.5 144 Q405 168 405 199 Q405 237 377.5 262.5 Q350 288 291 301 L254 309 Q148 332 97.5 385 Q47 438 47 514 Q47 560 65 598.5 Q83 637 115 665.5 Q147 694 190 709.5 Q233 725 283 725 Q340 725 388 704 Q436 683 470 644.5 Q504 606 518 553 L404 525 Q388 570 356 594 Q324 618 280 618 Q248 618 223.5 605.5 Q199 593 184.5 571.5 Q170 550 170 523 Q170 484 199 461 Q228 438 288 424 L325 416 Q529 370 529 209 Q529 160 510.5 118.5 Q492 77 458 47.5 Q424 18 378.5 1.5 Q333 -15 279 -15 Z M249 8 L326 8 L308 -51 Q340 -60 360 -83 Q380 -106 380 -136 Q380 -165 363.5 -187 Q347 -209 317.5 -221.5 Q288 -234 249 -234 Q205 -234 165 -219 L180 -151 Q196 -156 210 -158.5 Q224 -161 236 -161 Q258 -161 270.5 -152 Q283 -143 283 -128 Q283 -93 216 -93 L249 8 Z " />
<glyph glyph-name="uni0122" unicode="&#x122;" horiz-adv-x="786" d="M404 -20 Q342 -20 287.5 -2 Q233 16 189 49.5 Q145 83 113 129 Q81 175 63.5 231.5 Q46 288 46 353 Q46 418 63.5 475 Q81 532 113.5 579 Q146 626 190.5 659.5 Q235 693 289.5 711.5 Q344 730 406 730 Q473 730 531.5 708 Q590 686 635 645 Q680 604 706 548 L590 509 Q561 561 513.5 589.5 Q466 618 406 618 Q356 618 313.5 598 Q271 578 239 542.5 Q207 507 189.5 459 Q172 411 172 355 Q172 298 189.5 249.5 Q207 201 239 166 Q271 131 314.5 111.5 Q358 92 409 92 Q468 92 513.5 115.5 Q559 139 586 181 Q613 223 617 279 L423 279 L423 381 L742 381 L742 314 Q742 240 717.5 179 Q693 118 647.5 73.5 Q602 29 540.5 4.5 Q479 -20 404 -20 Z M376 -268 L354 -217 Q377 -207 391.5 -193 Q406 -179 409 -163 Q401 -168 390 -168 Q370 -168 356 -153.5 Q342 -139 342 -119 Q342 -95 359.5 -80 Q377 -65 403 -65 Q424 -65 440.5 -75.5 Q457 -86 466.5 -104 Q476 -122 476 -145 Q476 -186 449.5 -219 Q423 -252 376 -268 Z " />
<glyph glyph-name="uni0136" unicode="&#x136;" horiz-adv-x="676" d="M70 0 L70 710 L192 710 L192 393 L483 710 L629 710 L319 377 L665 0 L503 0 L192 347 L192 0 L70 0 Z M306 -268 L284 -217 Q307 -207 321.5 -193 Q336 -179 339 -163 Q331 -168 320 -168 Q300 -168 286 -153.5 Q272 -139 272 -119 Q272 -95 289.5 -80 Q307 -65 333 -65 Q354 -65 370.5 -75.5 Q387 -86 396.5 -104 Q406 -122 406 -145 Q406 -186 379.5 -219 Q353 -252 306 -268 Z " />
<glyph glyph-name="uni013B" unicode="&#x13b;" horiz-adv-x="536" d="M70 0 L70 710 L192 710 L192 109 L493 109 L493 0 L70 0 Z M248 -268 L226 -217 Q249 -207 263.5 -193 Q278 -179 281 -163 Q273 -168 262 -168 Q242 -168 228 -153.5 Q214 -139 214 -119 Q214 -95 231.5 -80 Q249 -65 275 -65 Q296 -65 312.5 -75.5 Q329 -86 338.5 -104 Q348 -122 348 -145 Q348 -186 321.5 -219 Q295 -252 248 -268 Z " />
<glyph glyph-name="uni0145" unicode="&#x145;" horiz-adv-x="721" d="M70 0 L70 710 L178 710 L532 202 L532 710 L651 710 L651 0 L543 0 L189 510 L189 0 L70 0 Z M328 -268 L306 -217 Q329 -207 343.5 -193 Q358 -179 361 -163 Q353 -168 342 -168 Q322 -168 308 -153.5 Q294 -139 294 -119 Q294 -95 311.5 -80 Q329 -65 355 -65 Q376 -65 392.5 -75.5 Q409 -86 418.5 -104 Q428 -122 428 -145 Q428 -186 401.5 -219 Q375 -252 328 -268 Z " />
<glyph glyph-name="uni0218" unicode="&#x218;" horiz-adv-x="564" d="M279 -15 Q219 -15 167.5 6.5 Q116 28 80 67 Q44 106 29 160 L144 188 Q160 142 195 117 Q230 92 280 92 Q316 92 344 106 Q372 120 388.5 144 Q405 168 405 199 Q405 237 377.5 262.5 Q350 288 291 301 L254 309 Q148 332 97.5 385 Q47 438 47 514 Q47 560 65 598.5 Q83 637 115 665.5 Q147 694 190 709.5 Q233 725 283 725 Q340 725 388 704 Q436 683 470 644.5 Q504 606 518 553 L404 525 Q388 570 356 594 Q324 618 280 618 Q248 618 223.5 605.5 Q199 593 184.5 571.5 Q170 550 170 523 Q170 484 199 461 Q228 438 288 424 L325 416 Q529 370 529 209 Q529 160 510.5 118.5 Q492 77 458 47.5 Q424 18 378.5 1.5 Q333 -15 279 -15 Z M246 -268 L224 -217 Q247 -207 261.5 -193 Q276 -179 279 -163 Q271 -168 260 -168 Q240 -168 226 -153.5 Q212 -139 212 -119 Q212 -95 229.5 -80 Q247 -65 273 -65 Q294 -65 310.5 -75.5 Q327 -86 336.5 -104 Q346 -122 346 -145 Q346 -186 319.5 -219 Q293 -252 246 -268 Z " />
<glyph glyph-name="uni021A" unicode="&#x21a;" horiz-adv-x="624" d="M251 0 L251 601 L44 601 L44 710 L580 710 L580 601 L373 601 L373 0 L251 0 Z M279 -268 L257 -217 Q280 -207 294.5 -193 Q309 -179 312 -163 Q304 -168 293 -168 Q273 -168 259 -153.5 Q245 -139 245 -119 Q245 -95 262.5 -80 Q280 -65 306 -65 Q327 -65 343.5 -75.5 Q360 -86 369.5 -104 Q379 -122 379 -145 Q379 -186 352.5 -219 Q326 -252 279 -268 Z " />
<glyph glyph-name="uni0104" unicode="&#x104;" horiz-adv-x="735" d="M19 0 L302 710 L432 710 L716 0 L590 0 L523 176 L207 176 L140 0 L19 0 Z M247 280 L483 280 L365 587 L247 280 Z M640 -222 Q607 -222 582.5 -210.5 Q558 -199 544 -179 Q530 -159 530 -132 Q530 -94 559 -56.5 Q588 -19 649 24 L716 0 Q669 -36 647.5 -62 Q626 -88 626 -107 Q626 -122 636.5 -131 Q647 -140 665 -140 Q677 -140 690.5 -138 Q704 -136 714 -131 L727 -205 Q704 -213 682.5 -217.5 Q661 -222 640 -222 Z " />
<glyph glyph-name="uni0118" unicode="&#x118;" horiz-adv-x="568" d="M70 0 L70 710 L500 710 L500 605 L190 605 L190 419 L470 419 L470 314 L190 314 L190 105 L510 105 L510 0 L70 0 Z M435 -222 Q402 -222 377.5 -210.5 Q353 -199 339 -179 Q325 -159 325 -132 Q325 -94 354 -56.5 Q383 -19 444 24 L511 0 Q464 -36 442.5 -62 Q421 -88 421 -107 Q421 -122 431.5 -131 Q442 -140 460 -140 Q472 -140 485.5 -138 Q499 -136 509 -131 L522 -205 Q499 -213 477.5 -217.5 Q456 -222 435 -222 Z " />
<glyph glyph-name="uni012E" unicode="&#x12e;" horiz-adv-x="262" d="M70 0 L70 710 L192 710 L192 0 L70 0 Z M116 -222 Q83 -222 58.5 -210.5 Q34 -199 20 -179 Q6 -159 6 -132 Q6 -94 35 -56.5 Q64 -19 125 24 L192 0 Q145 -36 123.5 -62 Q102 -88 102 -107 Q102 -122 112.5 -131 Q123 -140 141 -140 Q153 -140 166.5 -138 Q180 -136 190 -131 L203 -205 Q180 -213 158.5 -217.5 Q137 -222 116 -222 Z " />
<glyph glyph-name="uni0172" unicode="&#x172;" horiz-adv-x="716" d="M356 -20 Q288 -20 234 1 Q180 22 141.5 62 Q103 102 82.5 157.5 Q62 213 62 282 L62 710 L184 710 L184 287 Q184 227 205.5 183.5 Q227 140 266 116 Q305 92 358 92 Q411 92 450 116 Q489 140 510.5 183.5 Q532 227 532 287 L532 710 L654 710 L654 282 Q654 213 633 157.5 Q612 102 572.5 62.5 Q533 23 478.5 1.5 Q424 -20 356 -20 Z M479 -222 Q428 -222 397.5 -196 Q367 -170 367 -127 Q367 -47 490 48 L564 57 Q512 5 487.5 -33.5 Q463 -72 463 -100 Q463 -119 473.5 -129.5 Q484 -140 503 -140 Q515 -140 528.5 -138 Q542 -136 551 -131 L564 -205 Q521 -222 479 -222 Z " />
<glyph glyph-name="uni00E7" unicode="&#xe7;" horiz-adv-x="561" d="M298 -15 Q242 -15 195 5.5 Q148 26 113 62.5 Q78 99 58.5 149 Q39 199 39 258 Q39 317 59 368 Q79 419 114 457 Q149 495 196.5 516.5 Q244 538 300 538 Q354 538 399 518.5 Q444 499 476.5 463.5 Q509 428 523 380 L414 354 Q397 392 366.5 413 Q336 434 298 434 Q258 434 226 411 Q194 388 175.5 348.5 Q157 309 157 259 Q157 210 175 171.5 Q193 133 224.5 111 Q256 89 298 89 Q338 89 371 109.5 Q404 130 420 168 L528 143 Q514 95 480 59.5 Q446 24 399 4.5 Q352 -15 298 -15 Z M267 11 L341 11 L324 -46 Q356 -53 376 -76 Q396 -99 396 -128 Q396 -156 379.5 -178 Q363 -200 334 -212 Q305 -224 267 -224 Q225 -224 188 -209 L202 -144 Q218 -149 231.5 -151.5 Q245 -154 256 -154 Q277 -154 290 -145 Q303 -136 303 -121 Q303 -86 236 -86 L267 11 Z " />
<glyph glyph-name="uni015F" unicode="&#x15f;" horiz-adv-x="479" d="M241 -15 Q190 -15 146.5 2 Q103 19 72.5 50.5 Q42 82 29 125 L133 152 Q146 118 175 99 Q204 80 242 80 Q281 80 306 98.5 Q331 117 331 146 Q331 171 311 188 Q291 205 246 213 L213 219 Q129 234 86.5 273 Q44 312 44 373 Q44 422 69 459 Q94 496 138 517 Q182 538 239 538 Q288 538 329 521 Q370 504 398 473 Q426 442 438 400 L335 375 Q323 407 297.5 425.5 Q272 444 238 444 Q203 444 180 426.5 Q157 409 157 382 Q157 359 177.5 344 Q198 329 247 320 L280 314 Q360 300 403 259 Q446 218 446 157 Q446 120 431 88.5 Q416 57 388.5 33.5 Q361 10 323.5 -2.5 Q286 -15 241 -15 Z M208 11 L282 11 L265 -46 Q297 -53 317 -76 Q337 -99 337 -128 Q337 -156 320.5 -178 Q304 -200 275 -212 Q246 -224 208 -224 Q166 -224 129 -209 L143 -144 Q159 -149 172.5 -151.5 Q186 -154 197 -154 Q218 -154 231 -145 Q244 -136 244 -121 Q244 -86 177 -86 L208 11 Z " />
<glyph glyph-name="uni0123" unicode="&#x123;" horiz-adv-x="627" d="M280 10 Q229 10 185 30 Q141 50 108 85.5 Q75 121 57 168.5 Q39 216 39 272 Q39 328 57.5 376.5 Q76 425 110 461 Q144 497 189 517.5 Q234 538 286 538 Q340 538 384.5 514.5 Q429 491 456 449 L460 523 L565 523 L565 55 Q565 -5 546 -54.5 Q527 -104 492 -139.5 Q457 -175 408.5 -194 Q360 -213 300 -213 Q220 -213 160 -177 Q100 -141 66 -77 L175 -39 Q197 -75 230 -93.5 Q263 -112 304 -112 Q348 -112 381 -92.5 Q414 -73 432 -37.5 Q450 -2 450 46 L450 96 Q422 56 378 33 Q334 10 280 10 Z M304 114 Q346 114 379.5 135 Q413 156 432.5 192 Q452 228 452 274 Q452 320 432.5 356 Q413 392 379.5 413 Q346 434 304 434 Q262 434 229 413 Q196 392 176.5 356 Q157 320 157 274 Q157 228 176.5 192 Q196 156 229 135 Q262 114 304 114 Z M310 581 Q289 581 273 591.5 Q257 602 247.5 620 Q238 638 238 661 Q238 702 264 734 Q290 766 335 782 L357 731 Q335 721 321 707 Q307 693 303 677 Q311 682 322 682 Q341 682 355 668 Q369 654 369 633 Q369 611 352 596 Q335 581 310 581 Z " />
<glyph glyph-name="uni0137" unicode="&#x137;" horiz-adv-x="561" d="M62 0 L62 744 L177 744 L177 307 L391 523 L531 523 L296 291 L555 0 L404 0 L177 264 L177 0 L62 0 Z M256 -256 L234 -205 Q256 -195 270 -181 Q284 -167 288 -151 Q280 -156 269 -156 Q249 -156 235.5 -142 Q222 -128 222 -107 Q222 -85 238.5 -70 Q255 -55 281 -55 Q302 -55 318.5 -65.5 Q335 -76 344 -94 Q353 -112 353 -135 Q353 -176 327 -208 Q301 -240 256 -256 Z " />
<glyph glyph-name="uni013C" unicode="&#x13c;" horiz-adv-x="239" d="M62 0 L62 744 L177 744 L177 0 L62 0 Z M87 -256 L65 -205 Q87 -195 101 -181 Q115 -167 119 -151 Q111 -156 100 -156 Q80 -156 66.5 -142 Q53 -128 53 -107 Q53 -85 69.5 -70 Q86 -55 112 -55 Q133 -55 149.5 -65.5 Q166 -76 175 -94 Q184 -112 184 -135 Q184 -176 158 -208 Q132 -240 87 -256 Z " />
<glyph glyph-name="uni0146" unicode="&#x146;" horiz-adv-x="587" d="M62 0 L62 523 L167 523 L171 451 Q194 491 235.5 514.5 Q277 538 331 538 Q390 538 433.5 510 Q477 482 501 431 Q525 380 525 311 L525 0 L410 0 L410 298 Q410 362 381.5 398 Q353 434 302 434 Q266 434 237.5 417 Q209 400 193 371 Q177 342 177 304 L177 0 L62 0 Z M262 -256 L240 -205 Q262 -195 276 -181 Q290 -167 294 -151 Q286 -156 275 -156 Q255 -156 241.5 -142 Q228 -128 228 -107 Q228 -85 244.5 -70 Q261 -55 287 -55 Q308 -55 324.5 -65.5 Q341 -76 350 -94 Q359 -112 359 -135 Q359 -176 333 -208 Q307 -240 262 -256 Z " />
<glyph glyph-name="uni0219" unicode="&#x219;" horiz-adv-x="479" d="M241 -15 Q190 -15 146.5 2 Q103 19 72.5 50.5 Q42 82 29 125 L133 152 Q146 118 175 99 Q204 80 242 80 Q281 80 306 98.5 Q331 117 331 146 Q331 171 311 188 Q291 205 246 213 L213 219 Q129 234 86.5 273 Q44 312 44 373 Q44 422 69 459 Q94 496 138 517 Q182 538 239 538 Q288 538 329 521 Q370 504 398 473 Q426 442 438 400 L335 375 Q323 407 297.5 425.5 Q272 444 238 444 Q203 444 180 426.5 Q157 409 157 382 Q157 359 177.5 344 Q198 329 247 320 L280 314 Q360 300 403 259 Q446 218 446 157 Q446 120 431 88.5 Q416 57 388.5 33.5 Q361 10 323.5 -2.5 Q286 -15 241 -15 Z M209 -256 L187 -205 Q209 -195 223 -181 Q237 -167 241 -151 Q233 -156 222 -156 Q202 -156 188.5 -142 Q175 -128 175 -107 Q175 -85 191.5 -70 Q208 -55 234 -55 Q255 -55 271.5 -65.5 Q288 -76 297 -94 Q306 -112 306 -135 Q306 -176 280 -208 Q254 -240 209 -256 Z " />
<glyph glyph-name="uni021B" unicode="&#x21b;" horiz-adv-x="426" d="M278 -15 Q199 -15 154 30.5 Q109 76 109 161 L109 430 L17 430 L17 523 L109 523 L109 700 L224 700 L224 523 L376 523 L376 430 L224 430 L224 173 Q224 131 241.5 108.5 Q259 86 293 86 Q311 86 332 91.5 Q353 97 371 107 L397 20 Q374 4 343.5 -5.5 Q313 -15 278 -15 Z M215 -256 L193 -205 Q215 -195 229 -181 Q243 -167 247 -151 Q239 -156 228 -156 Q208 -156 194.5 -142 Q181 -128 181 -107 Q181 -85 197.5 -70 Q214 -55 240 -55 Q261 -55 277.5 -65.5 Q294 -76 303 -94 Q312 -112 312 -135 Q312 -176 286 -208 Q260 -240 215 -256 Z " />
<glyph glyph-name="uni0105" unicode="&#x105;" horiz-adv-x="554" d="M222 -15 Q182 -15 148.5 -3 Q115 9 90 31 Q65 53 51 83 Q37 113 37 149 Q37 199 63.5 236.5 Q90 274 138 295 Q186 316 250 316 Q285 316 317 309.5 Q349 303 378 291 L378 324 Q378 359 365 385.5 Q352 412 328 427 Q304 442 270 442 Q234 442 205 423 Q176 404 162 370 L56 394 Q68 438 99.5 470 Q131 502 175.5 520 Q220 538 272 538 Q321 538 361.5 522 Q402 506 431 477 Q460 448 476 408 Q492 368 492 319 L492 0 L387 0 L383 69 Q362 31 320 8 Q278 -15 222 -15 Z M153 154 Q153 132 165 114.5 Q177 97 198.5 87 Q220 77 249 77 Q286 77 315 93 Q344 109 361 136.5 Q378 164 378 199 L378 211 Q352 222 324.5 228.5 Q297 235 268 235 Q216 235 184.5 213 Q153 191 153 154 Z M418 -219 Q386 -219 361 -208 Q336 -197 322.5 -177 Q309 -157 309 -131 Q309 -94 338.5 -56.5 Q368 -19 429 24 L492 0 Q445 -36 423.5 -62 Q402 -88 402 -107 Q402 -122 412.5 -131 Q423 -140 441 -140 Q454 -140 467.5 -138 Q481 -136 490 -131 L503 -202 Q460 -219 418 -219 Z " />
<glyph glyph-name="uni0119" unicode="&#x119;" horiz-adv-x="581" d="M305 -15 Q247 -15 198.5 5.5 Q150 26 114 63 Q78 100 58.5 150.5 Q39 201 39 262 Q39 321 58.5 371 Q78 421 112.5 458.5 Q147 496 194 517 Q241 538 296 538 Q351 538 396.5 518.5 Q442 499 475.5 463 Q509 427 527 377.5 Q545 328 545 268 L545 234 L158 234 Q163 188 182.5 154.5 Q202 121 233 103 Q264 85 305 85 Q387 85 433 158 L534 119 Q516 78 481.5 47.5 Q447 17 401.5 1 Q356 -15 305 -15 Z M296 445 Q261 445 233.5 429 Q206 413 187 384 Q168 355 161 316 L425 316 Q419 355 402 384 Q385 413 357.5 429 Q330 445 296 445 Z M400 -219 Q365 -219 339.5 -207.5 Q314 -196 300 -175 Q286 -154 286 -127 Q286 -88 316 -46 Q346 -4 408 42 L480 51 Q427 0 403 -36.5 Q379 -73 379 -100 Q379 -140 424 -140 Q435 -140 447 -138 Q459 -136 467 -131 L480 -202 Q440 -219 400 -219 Z " />
<glyph glyph-name="uni012F" unicode="&#x12f;" horiz-adv-x="239" d="M189 669 Q189 650 179.5 634 Q170 618 154 608.5 Q138 599 119 599 Q100 599 84 608.5 Q68 618 58.5 634 Q49 650 49 669 Q49 688 58.5 704 Q68 720 84 729.5 Q100 739 119 739 Q138 739 154 729.5 Q170 720 179.5 704 Q189 688 189 669 Z M62 0 L62 523 L177 523 L177 0 L62 0 Z M103 -219 Q71 -219 46 -208 Q21 -197 7.5 -177 Q-6 -157 -6 -131 Q-6 -94 23.5 -56.5 Q53 -19 114 24 L177 0 Q130 -36 108.5 -62 Q87 -88 87 -107 Q87 -122 97.5 -131 Q108 -140 126 -140 Q139 -140 152.5 -138 Q166 -136 175 -131 L188 -202 Q145 -219 103 -219 Z " />
<glyph glyph-name="uni0173" unicode="&#x173;" horiz-adv-x="586" d="M292 -15 Q222 -15 170.5 15 Q119 45 90.5 100.5 Q62 156 62 231 L62 523 L177 523 L177 229 Q177 164 208 126.5 Q239 89 293 89 Q347 89 378 126.5 Q409 164 409 229 L409 523 L524 523 L524 231 Q524 157 495.5 101.5 Q467 46 415 15.5 Q363 -15 292 -15 Z M377 -219 Q342 -219 316.5 -207.5 Q291 -196 277 -175 Q263 -154 263 -127 Q263 -88 293 -46 Q323 -4 385 42 L457 51 Q404 0 380 -36.5 Q356 -73 356 -100 Q356 -140 401 -140 Q412 -140 424 -138 Q436 -136 444 -131 L457 -202 Q417 -219 377 -219 Z " />
<glyph glyph-name="uni0301" unicode="&#x301;" d="M-86 601 L30 744 L160 744 L24 601 L-86 601 Z " />
<glyph glyph-name="uni00B4" unicode="&#xb4;" horiz-adv-x="587" d="M170 601 L286 744 L416 744 L280 601 L170 601 Z " />
<glyph glyph-name="uni030B" unicode="&#x30b;" d="M-151 601 L-53 744 L65 744 L-54 601 L-151 601 Z M25 601 L123 744 L241 744 L122 601 L25 601 Z " />
<glyph glyph-name="uni02DD" unicode="&#x2dd;" horiz-adv-x="587" d="M97 601 L195 744 L313 744 L194 601 L97 601 Z M273 601 L371 744 L489 744 L370 601 L273 601 Z " />
<glyph glyph-name="uni00C1" unicode="&#xc1;" horiz-adv-x="735" d="M19 0 L302 710 L432 710 L716 0 L590 0 L523 176 L207 176 L140 0 L19 0 Z M247 280 L483 280 L365 587 L247 280 Z M265 786 L402 914 L550 914 L387 786 L265 786 Z " />
<glyph glyph-name="uni0106" unicode="&#x106;" horiz-adv-x="733" d="M393 -20 Q318 -20 254.5 7.5 Q191 35 144.5 85 Q98 135 72 202.5 Q46 270 46 350 Q46 414 63 471.5 Q80 529 111.5 576.5 Q143 624 186 658.5 Q229 693 281.5 711.5 Q334 730 393 730 Q462 730 521.5 705.5 Q581 681 624.5 636.5 Q668 592 690 531 L573 498 Q547 555 499.5 586.5 Q452 618 392 618 Q345 618 305 598 Q265 578 235 542 Q205 506 188.5 457 Q172 408 172 351 Q172 294 188.5 246.5 Q205 199 234.5 164.5 Q264 130 304.5 111 Q345 92 394 92 Q456 92 503.5 123 Q551 154 580 212 L697 179 Q674 118 630 73 Q586 28 525 4 Q464 -20 393 -20 Z M290 786 L427 914 L575 914 L412 786 L290 786 Z " />
<glyph glyph-name="uni00C9" unicode="&#xc9;" horiz-adv-x="568" d="M70 0 L70 710 L500 710 L500 605 L190 605 L190 419 L470 419 L470 314 L190 314 L190 105 L510 105 L510 0 L70 0 Z M183 786 L320 914 L468 914 L305 786 L183 786 Z " />
<glyph glyph-name="uni00CD" unicode="&#xcd;" horiz-adv-x="262" d="M70 0 L70 710 L192 710 L192 0 L70 0 Z M29 786 L166 914 L314 914 L151 786 L29 786 Z " />
<glyph glyph-name="uni0139" unicode="&#x139;" horiz-adv-x="536" d="M70 0 L70 710 L192 710 L192 109 L493 109 L493 0 L70 0 Z M29 786 L166 914 L314 914 L151 786 L29 786 Z " />
<glyph glyph-name="uni0143" unicode="&#x143;" horiz-adv-x="721" d="M70 0 L70 710 L178 710 L532 202 L532 710 L651 710 L651 0 L543 0 L189 510 L189 0 L70 0 Z M259 786 L396 914 L544 914 L381 786 L259 786 Z " />
<glyph glyph-name="uni00D3" unicode="&#xd3;" horiz-adv-x="810" d="M405 -20 Q343 -20 288.5 -2 Q234 16 189.5 49.5 Q145 83 113 129 Q81 175 63.5 232 Q46 289 46 354 Q46 419 63.5 476 Q81 533 113 579.5 Q145 626 190 660 Q235 694 289.5 712 Q344 730 406 730 Q468 730 522.5 712 Q577 694 621.5 660.5 Q666 627 698 581 Q730 535 747 478 Q764 421 764 356 Q764 291 746.5 234 Q729 177 697 130.5 Q665 84 620.5 50 Q576 16 521.5 -2 Q467 -20 405 -20 Z M405 92 Q456 92 498.5 111.5 Q541 131 572 166 Q603 201 620.5 249.5 Q638 298 638 355 Q638 412 620.5 460.5 Q603 509 572 544 Q541 579 498.5 598.5 Q456 618 405 618 Q354 618 311.5 598.5 Q269 579 238 544 Q207 509 189.5 460.5 Q172 412 172 355 Q172 298 189.5 249.5 Q207 201 238 166 Q269 131 311.5 111.5 Q354 92 405 92 Z M303 786 L440 914 L588 914 L425 786 L303 786 Z " />
<glyph glyph-name="uni0154" unicode="&#x154;" horiz-adv-x="618" d="M70 0 L70 710 L284 710 Q369 710 430.5 683 Q492 656 525 606 Q558 556 558 487 Q558 444 542.5 406.5 Q527 369 498.5 339 Q470 309 430 290 L595 0 L460 0 L323 258 Q312 257 298.5 256.5 Q285 256 271 256 Q236 256 190 263 L190 0 L70 0 Z M190 604 L190 369 Q211 365 233.5 363.5 Q256 362 278 362 Q352 362 393 394 Q434 426 434 483 Q434 540 394 572 Q354 604 282 604 L190 604 Z M177 786 L314 914 L462 914 L299 786 L177 786 Z " />
<glyph glyph-name="uni015A" unicode="&#x15a;" horiz-adv-x="564" d="M279 -15 Q219 -15 167.5 6.5 Q116 28 80 67 Q44 106 29 160 L144 188 Q160 142 195 117 Q230 92 280 92 Q316 92 344 106 Q372 120 388.5 144 Q405 168 405 199 Q405 237 377.5 262.5 Q350 288 291 301 L254 309 Q148 332 97.5 385 Q47 438 47 514 Q47 560 65 598.5 Q83 637 115 665.5 Q147 694 190 709.5 Q233 725 283 725 Q340 725 388 704 Q436 683 470 644.5 Q504 606 518 553 L404 525 Q388 570 356 594 Q324 618 280 618 Q248 618 223.5 605.5 Q199 593 184.5 571.5 Q170 550 170 523 Q170 484 199 461 Q228 438 288 424 L325 416 Q529 370 529 209 Q529 160 510.5 118.5 Q492 77 458 47.5 Q424 18 378.5 1.5 Q333 -15 279 -15 Z M180 786 L317 914 L465 914 L302 786 L180 786 Z " />
<glyph glyph-name="uni00DA" unicode="&#xda;" horiz-adv-x="716" d="M356 -20 Q288 -20 234 1 Q180 22 141.5 62 Q103 102 82.5 157.5 Q62 213 62 282 L62 710 L184 710 L184 287 Q184 227 205.5 183.5 Q227 140 266 116 Q305 92 358 92 Q411 92 450 116 Q489 140 510.5 183.5 Q532 227 532 287 L532 710 L654 710 L654 282 Q654 213 633 157.5 Q612 102 572.5 62.5 Q533 23 478.5 1.5 Q424 -20 356 -20 Z M256 786 L393 914 L541 914 L378 786 L256 786 Z " />
<glyph glyph-name="uni1E82" unicode="&#x1e82;" horiz-adv-x="1029" d="M998 710 L788 0 L664 0 L515 540 L366 0 L241 0 L31 710 L161 710 L307 162 L457 710 L575 710 L726 162 L871 710 L998 710 Z M412 786 L549 914 L697 914 L534 786 L412 786 Z " />
<glyph glyph-name="uni00DD" unicode="&#xdd;" horiz-adv-x="648" d="M263 0 L263 280 L14 710 L152 710 L326 392 L499 710 L634 710 L385 280 L385 0 L263 0 Z M221 786 L358 914 L506 914 L343 786 L221 786 Z " />
<glyph glyph-name="uni0179" unicode="&#x179;" horiz-adv-x="630" d="M41 0 L41 88 L418 606 L56 606 L56 710 L569 710 L569 622 L192 104 L591 104 L591 0 L41 0 Z M210 786 L347 914 L495 914 L332 786 L210 786 Z " />
<glyph glyph-name="uni0150" unicode="&#x150;" horiz-adv-x="810" d="M405 -20 Q343 -20 288.5 -2 Q234 16 189.5 49.5 Q145 83 113 129 Q81 175 63.5 232 Q46 289 46 354 Q46 419 63.5 476 Q81 533 113 579.5 Q145 626 190 660 Q235 694 289.5 712 Q344 730 406 730 Q468 730 522.5 712 Q577 694 621.5 660.5 Q666 627 698 581 Q730 535 747 478 Q764 421 764 356 Q764 291 746.5 234 Q729 177 697 130.5 Q665 84 620.5 50 Q576 16 521.5 -2 Q467 -20 405 -20 Z M405 92 Q456 92 498.5 111.5 Q541 131 572 166 Q603 201 620.5 249.5 Q638 298 638 355 Q638 412 620.5 460.5 Q603 509 572 544 Q541 579 498.5 598.5 Q456 618 405 618 Q354 618 311.5 598.5 Q269 579 238 544 Q207 509 189.5 460.5 Q172 412 172 355 Q172 298 189.5 249.5 Q207 201 238 166 Q269 131 311.5 111.5 Q354 92 405 92 Z M209 786 L348 914 L487 914 L324 786 L209 786 Z M419 786 L558 914 L697 914 L534 786 L419 786 Z " />
<glyph glyph-name="uni0170" unicode="&#x170;" horiz-adv-x="716" d="M356 -20 Q288 -20 234 1 Q180 22 141.5 62 Q103 102 82.5 157.5 Q62 213 62 282 L62 710 L184 710 L184 287 Q184 227 205.5 183.5 Q227 140 266 116 Q305 92 358 92 Q411 92 450 116 Q489 140 510.5 183.5 Q532 227 532 287 L532 710 L654 710 L654 282 Q654 213 633 157.5 Q612 102 572.5 62.5 Q533 23 478.5 1.5 Q424 -20 356 -20 Z M162 786 L301 914 L440 914 L277 786 L162 786 Z M372 786 L511 914 L650 914 L487 786 L372 786 Z " />
<glyph glyph-name="uni00E1" unicode="&#xe1;" horiz-adv-x="554" d="M222 -15 Q182 -15 148.5 -3 Q115 9 90 31 Q65 53 51 83 Q37 113 37 149 Q37 199 63.5 236.5 Q90 274 138 295 Q186 316 250 316 Q285 316 317 309.5 Q349 303 378 291 L378 324 Q378 359 365 385.5 Q352 412 328 427 Q304 442 270 442 Q234 442 205 423 Q176 404 162 370 L56 394 Q68 438 99.5 470 Q131 502 175.5 520 Q220 538 272 538 Q321 538 361.5 522 Q402 506 431 477 Q460 448 476 408 Q492 368 492 319 L492 0 L387 0 L383 69 Q362 31 320 8 Q278 -15 222 -15 Z M153 154 Q153 132 165 114.5 Q177 97 198.5 87 Q220 77 249 77 Q286 77 315 93 Q344 109 361 136.5 Q378 164 378 199 L378 211 Q352 222 324.5 228.5 Q297 235 268 235 Q216 235 184.5 213 Q153 191 153 154 Z M188 601 L304 744 L434 744 L298 601 L188 601 Z " />
<glyph glyph-name="uni0107" unicode="&#x107;" horiz-adv-x="561" d="M298 -15 Q242 -15 195 5.5 Q148 26 113 62.5 Q78 99 58.5 149 Q39 199 39 258 Q39 317 59 368 Q79 419 114 457 Q149 495 196.5 516.5 Q244 538 300 538 Q354 538 399 518.5 Q444 499 476.5 463.5 Q509 428 523 380 L414 354 Q397 392 366.5 413 Q336 434 298 434 Q258 434 226 411 Q194 388 175.5 348.5 Q157 309 157 259 Q157 210 175 171.5 Q193 133 224.5 111 Q256 89 298 89 Q338 89 371 109.5 Q404 130 420 168 L528 143 Q514 95 480 59.5 Q446 24 399 4.5 Q352 -15 298 -15 Z M214 601 L330 744 L460 744 L324 601 L214 601 Z " />
<glyph glyph-name="uni00E9" unicode="&#xe9;" horiz-adv-x="581" d="M305 -15 Q247 -15 198.5 5.5 Q150 26 114 63 Q78 100 58.5 150.5 Q39 201 39 262 Q39 321 58.5 371 Q78 421 112.5 458.5 Q147 496 194 517 Q241 538 296 538 Q351 538 396.5 518.5 Q442 499 475.5 463 Q509 427 527 377.5 Q545 328 545 268 L545 234 L158 234 Q163 188 182.5 154.5 Q202 121 233 103 Q264 85 305 85 Q387 85 433 158 L534 119 Q516 78 481.5 47.5 Q447 17 401.5 1 Q356 -15 305 -15 Z M296 445 Q261 445 233.5 429 Q206 413 187 384 Q168 355 161 316 L425 316 Q419 355 402 384 Q385 413 357.5 429 Q330 445 296 445 Z M210 601 L326 744 L456 744 L320 601 L210 601 Z " />
<glyph glyph-name="uni00ED" unicode="&#xed;" horiz-adv-x="239" d="M62 0 L62 523 L177 523 L177 0 L62 0 Z M32 601 L148 744 L278 744 L142 601 L32 601 Z " />
<glyph glyph-name="uni013A" unicode="&#x13a;" horiz-adv-x="239" d="M62 0 L62 744 L177 744 L177 0 L62 0 Z M32 803 L148 946 L278 946 L142 803 L32 803 Z " />
<glyph glyph-name="uni0144" unicode="&#x144;" horiz-adv-x="587" d="M62 0 L62 523 L167 523 L171 451 Q194 491 235.5 514.5 Q277 538 331 538 Q390 538 433.5 510 Q477 482 501 431 Q525 380 525 311 L525 0 L410 0 L410 298 Q410 362 381.5 398 Q353 434 302 434 Q266 434 237.5 417 Q209 400 193 371 Q177 342 177 304 L177 0 L62 0 Z M207 601 L323 744 L453 744 L317 601 L207 601 Z " />
<glyph glyph-name="uni00F3" unicode="&#xf3;" horiz-adv-x="614" d="M305 -15 Q248 -15 199.5 5.5 Q151 26 115 63.5 Q79 101 59 151.5 Q39 202 39 262 Q39 321 59 371.5 Q79 422 115.5 459.5 Q152 497 201.5 517.5 Q251 538 309 538 Q366 538 414.5 517.5 Q463 497 499 459.5 Q535 422 555 372 Q575 322 575 262 Q575 202 555 151.5 Q535 101 498.5 63.5 Q462 26 412.5 5.5 Q363 -15 305 -15 Z M307 89 Q350 89 384 111.5 Q418 134 437.5 173 Q457 212 457 262 Q457 312 437.5 350.5 Q418 389 384 411.5 Q350 434 307 434 Q264 434 230 411.5 Q196 389 176.5 350.5 Q157 312 157 262 Q157 212 176.5 173 Q196 134 230 111.5 Q264 89 307 89 Z M221 601 L337 744 L467 744 L331 601 L221 601 Z " />
<glyph glyph-name="uni0155" unicode="&#x155;" horiz-adv-x="388" d="M62 0 L62 523 L167 523 L172 437 Q192 481 227.5 505.5 Q263 530 311 530 Q326 530 340 528 Q354 526 365 521 L352 409 Q341 413 329 414.5 Q317 416 305 416 Q245 416 211 376 Q177 336 177 265 L177 0 L62 0 Z M128 601 L244 744 L374 744 L238 601 L128 601 Z " />
<glyph glyph-name="uni015B" unicode="&#x15b;" horiz-adv-x="479" d="M241 -15 Q190 -15 146.5 2 Q103 19 72.5 50.5 Q42 82 29 125 L133 152 Q146 118 175 99 Q204 80 242 80 Q281 80 306 98.5 Q331 117 331 146 Q331 171 311 188 Q291 205 246 213 L213 219 Q129 234 86.5 273 Q44 312 44 373 Q44 422 69 459 Q94 496 138 517 Q182 538 239 538 Q288 538 329 521 Q370 504 398 473 Q426 442 438 400 L335 375 Q323 407 297.5 425.5 Q272 444 238 444 Q203 444 180 426.5 Q157 409 157 382 Q157 359 177.5 344 Q198 329 247 320 L280 314 Q360 300 403 259 Q446 218 446 157 Q446 120 431 88.5 Q416 57 388.5 33.5 Q361 10 323.5 -2.5 Q286 -15 241 -15 Z M152 601 L268 744 L398 744 L262 601 L152 601 Z " />
<glyph glyph-name="uni00FA" unicode="&#xfa;" horiz-adv-x="586" d="M292 -15 Q222 -15 170.5 15 Q119 45 90.5 100.5 Q62 156 62 231 L62 523 L177 523 L177 229 Q177 164 208 126.5 Q239 89 293 89 Q347 89 378 126.5 Q409 164 409 229 L409 523 L524 523 L524 231 Q524 157 495.5 101.5 Q467 46 415 15.5 Q363 -15 292 -15 Z M206 601 L322 744 L452 744 L316 601 L206 601 Z " />
<glyph glyph-name="uni1E83" unicode="&#x1e83;" horiz-adv-x="824" d="M188 0 L14 523 L134 523 L245 141 L362 523 L465 523 L581 141 L694 523 L810 523 L635 0 L527 0 L412 380 L296 0 L188 0 Z M325 601 L441 744 L571 744 L435 601 L325 601 Z " />
<glyph glyph-name="uni00FD" unicode="&#xfd;" horiz-adv-x="545" d="M132 -208 Q107 -208 85.5 -203 Q64 -198 44 -187 L69 -96 Q80 -101 94 -104.5 Q108 -108 121 -108 Q151 -108 173.5 -91 Q196 -74 211 -36 L227 5 L14 523 L140 523 L281 132 L409 523 L531 523 L309 -63 Q280 -138 236.5 -173 Q193 -208 132 -208 Z M186 601 L302 744 L432 744 L296 601 L186 601 Z " />
<glyph glyph-name="uni017A" unicode="&#x17a;" horiz-adv-x="513" d="M41 0 L41 76 L313 430 L48 430 L48 523 L455 523 L455 447 L183 93 L472 93 L472 0 L41 0 Z M165 601 L281 744 L411 744 L275 601 L165 601 Z " />
<glyph glyph-name="uni0151" unicode="&#x151;" horiz-adv-x="614" d="M305 -15 Q248 -15 199.5 5.5 Q151 26 115 63.5 Q79 101 59 151.5 Q39 202 39 262 Q39 321 59 371.5 Q79 422 115.5 459.5 Q152 497 201.5 517.5 Q251 538 309 538 Q366 538 414.5 517.5 Q463 497 499 459.5 Q535 422 555 372 Q575 322 575 262 Q575 202 555 151.5 Q535 101 498.5 63.5 Q462 26 412.5 5.5 Q363 -15 305 -15 Z M307 89 Q350 89 384 111.5 Q418 134 437.5 173 Q457 212 457 262 Q457 312 437.5 350.5 Q418 389 384 411.5 Q350 434 307 434 Q264 434 230 411.5 Q196 389 176.5 350.5 Q157 312 157 262 Q157 212 176.5 173 Q196 134 230 111.5 Q264 89 307 89 Z M156 601 L254 744 L372 744 L253 601 L156 601 Z M332 601 L430 744 L548 744 L429 601 L332 601 Z " />
<glyph glyph-name="uni0171" unicode="&#x171;" horiz-adv-x="586" d="M292 -15 Q222 -15 170.5 15 Q119 45 90.5 100.5 Q62 156 62 231 L62 523 L177 523 L177 229 Q177 164 208 126.5 Q239 89 293 89 Q347 89 378 126.5 Q409 164 409 229 L409 523 L524 523 L524 231 Q524 157 495.5 101.5 Q467 46 415 15.5 Q363 -15 292 -15 Z M141 601 L239 744 L357 744 L238 601 L141 601 Z M317 601 L415 744 L533 744 L414 601 L317 601 Z " />
<glyph glyph-name="uni0300" unicode="&#x300;" d="M-24 601 L-160 744 L-30 744 L86 601 L-24 601 Z " />
<glyph glyph-name="uni0060" unicode="&#x60;" horiz-adv-x="587" d="M306 601 L170 744 L300 744 L416 601 L306 601 Z " />
<glyph glyph-name="uni02CB" unicode="&#x2cb;" horiz-adv-x="587" d="M306 601 L170 744 L300 744 L416 601 L306 601 Z " />
<glyph glyph-name="uni00C0" unicode="&#xc0;" horiz-adv-x="735" d="M19 0 L302 710 L432 710 L716 0 L590 0 L523 176 L207 176 L140 0 L19 0 Z M247 280 L483 280 L365 587 L247 280 Z M347 786 L184 914 L332 914 L469 786 L347 786 Z " />
<glyph glyph-name="uni00C8" unicode="&#xc8;" horiz-adv-x="568" d="M70 0 L70 710 L500 710 L500 605 L190 605 L190 419 L470 419 L470 314 L190 314 L190 105 L510 105 L510 0 L70 0 Z M265 786 L102 914 L250 914 L387 786 L265 786 Z " />
<glyph glyph-name="uni00CC" unicode="&#xcc;" horiz-adv-x="262" d="M70 0 L70 710 L192 710 L192 0 L70 0 Z M111 786 L-52 914 L96 914 L233 786 L111 786 Z " />
<glyph glyph-name="uni00D2" unicode="&#xd2;" horiz-adv-x="810" d="M405 -20 Q343 -20 288.5 -2 Q234 16 189.5 49.5 Q145 83 113 129 Q81 175 63.5 232 Q46 289 46 354 Q46 419 63.5 476 Q81 533 113 579.5 Q145 626 190 660 Q235 694 289.5 712 Q344 730 406 730 Q468 730 522.5 712 Q577 694 621.5 660.5 Q666 627 698 581 Q730 535 747 478 Q764 421 764 356 Q764 291 746.5 234 Q729 177 697 130.5 Q665 84 620.5 50 Q576 16 521.5 -2 Q467 -20 405 -20 Z M405 92 Q456 92 498.5 111.5 Q541 131 572 166 Q603 201 620.5 249.5 Q638 298 638 355 Q638 412 620.5 460.5 Q603 509 572 544 Q541 579 498.5 598.5 Q456 618 405 618 Q354 618 311.5 598.5 Q269 579 238 544 Q207 509 189.5 460.5 Q172 412 172 355 Q172 298 189.5 249.5 Q207 201 238 166 Q269 131 311.5 111.5 Q354 92 405 92 Z M385 786 L222 914 L370 914 L507 786 L385 786 Z " />
<glyph glyph-name="uni00D9" unicode="&#xd9;" horiz-adv-x="716" d="M356 -20 Q288 -20 234 1 Q180 22 141.5 62 Q103 102 82.5 157.5 Q62 213 62 282 L62 710 L184 710 L184 287 Q184 227 205.5 183.5 Q227 140 266 116 Q305 92 358 92 Q411 92 450 116 Q489 140 510.5 183.5 Q532 227 532 287 L532 710 L654 710 L654 282 Q654 213 633 157.5 Q612 102 572.5 62.5 Q533 23 478.5 1.5 Q424 -20 356 -20 Z M338 786 L175 914 L323 914 L460 786 L338 786 Z " />
<glyph glyph-name="uni1E80" unicode="&#x1e80;" horiz-adv-x="1029" d="M998 710 L788 0 L664 0 L515 540 L366 0 L241 0 L31 710 L161 710 L307 162 L457 710 L575 710 L726 162 L871 710 L998 710 Z M494 786 L331 914 L479 914 L616 786 L494 786 Z " />
<glyph glyph-name="uni1EF2" unicode="&#x1ef2;" horiz-adv-x="648" d="M263 0 L263 280 L14 710 L152 710 L326 392 L499 710 L634 710 L385 280 L385 0 L263 0 Z M303 786 L140 914 L288 914 L425 786 L303 786 Z " />
<glyph glyph-name="uni00E0" unicode="&#xe0;" horiz-adv-x="554" d="M222 -15 Q182 -15 148.5 -3 Q115 9 90 31 Q65 53 51 83 Q37 113 37 149 Q37 199 63.5 236.5 Q90 274 138 295 Q186 316 250 316 Q285 316 317 309.5 Q349 303 378 291 L378 324 Q378 359 365 385.5 Q352 412 328 427 Q304 442 270 442 Q234 442 205 423 Q176 404 162 370 L56 394 Q68 438 99.5 470 Q131 502 175.5 520 Q220 538 272 538 Q321 538 361.5 522 Q402 506 431 477 Q460 448 476 408 Q492 368 492 319 L492 0 L387 0 L383 69 Q362 31 320 8 Q278 -15 222 -15 Z M153 154 Q153 132 165 114.5 Q177 97 198.5 87 Q220 77 249 77 Q286 77 315 93 Q344 109 361 136.5 Q378 164 378 199 L378 211 Q352 222 324.5 228.5 Q297 235 268 235 Q216 235 184.5 213 Q153 191 153 154 Z M250 601 L114 744 L244 744 L360 601 L250 601 Z " />
<glyph glyph-name="uni00E8" unicode="&#xe8;" horiz-adv-x="581" d="M305 -15 Q247 -15 198.5 5.5 Q150 26 114 63 Q78 100 58.5 150.5 Q39 201 39 262 Q39 321 58.5 371 Q78 421 112.5 458.5 Q147 496 194 517 Q241 538 296 538 Q351 538 396.5 518.5 Q442 499 475.5 463 Q509 427 527 377.5 Q545 328 545 268 L545 234 L158 234 Q163 188 182.5 154.5 Q202 121 233 103 Q264 85 305 85 Q387 85 433 158 L534 119 Q516 78 481.5 47.5 Q447 17 401.5 1 Q356 -15 305 -15 Z M296 445 Q261 445 233.5 429 Q206 413 187 384 Q168 355 161 316 L425 316 Q419 355 402 384 Q385 413 357.5 429 Q330 445 296 445 Z M272 601 L136 744 L266 744 L382 601 L272 601 Z " />
<glyph glyph-name="uni00EC" unicode="&#xec;" horiz-adv-x="239" d="M62 0 L62 523 L177 523 L177 0 L62 0 Z M94 601 L-42 744 L88 744 L204 601 L94 601 Z " />
<glyph glyph-name="uni00F2" unicode="&#xf2;" horiz-adv-x="614" d="M305 -15 Q248 -15 199.5 5.5 Q151 26 115 63.5 Q79 101 59 151.5 Q39 202 39 262 Q39 321 59 371.5 Q79 422 115.5 459.5 Q152 497 201.5 517.5 Q251 538 309 538 Q366 538 414.5 517.5 Q463 497 499 459.5 Q535 422 555 372 Q575 322 575 262 Q575 202 555 151.5 Q535 101 498.5 63.5 Q462 26 412.5 5.5 Q363 -15 305 -15 Z M307 89 Q350 89 384 111.5 Q418 134 437.5 173 Q457 212 457 262 Q457 312 437.5 350.5 Q418 389 384 411.5 Q350 434 307 434 Q264 434 230 411.5 Q196 389 176.5 350.5 Q157 312 157 262 Q157 212 176.5 173 Q196 134 230 111.5 Q264 89 307 89 Z M283 601 L147 744 L277 744 L393 601 L283 601 Z " />
<glyph glyph-name="uni00F9" unicode="&#xf9;" horiz-adv-x="586" d="M292 -15 Q222 -15 170.5 15 Q119 45 90.5 100.5 Q62 156 62 231 L62 523 L177 523 L177 229 Q177 164 208 126.5 Q239 89 293 89 Q347 89 378 126.5 Q409 164 409 229 L409 523 L524 523 L524 231 Q524 157 495.5 101.5 Q467 46 415 15.5 Q363 -15 292 -15 Z M268 601 L132 744 L262 744 L378 601 L268 601 Z " />
<glyph glyph-name="uni1E81" unicode="&#x1e81;" horiz-adv-x="824" d="M188 0 L14 523 L134 523 L245 141 L362 523 L465 523 L581 141 L694 523 L810 523 L635 0 L527 0 L412 380 L296 0 L188 0 Z M387 601 L251 744 L381 744 L497 601 L387 601 Z " />
<glyph glyph-name="uni1EF3" unicode="&#x1ef3;" horiz-adv-x="545" d="M132 -208 Q107 -208 85.5 -203 Q64 -198 44 -187 L69 -96 Q80 -101 94 -104.5 Q108 -108 121 -108 Q151 -108 173.5 -91 Q196 -74 211 -36 L227 5 L14 523 L140 523 L281 132 L409 523 L531 523 L309 -63 Q280 -138 236.5 -173 Q193 -208 132 -208 Z M248 601 L112 744 L242 744 L358 601 L248 601 Z " />
<glyph glyph-name="uni0302" unicode="&#x302;" d="M-175 601 L-46 744 L47 744 L176 601 L71 601 L0 672 L-73 601 L-175 601 Z " />
<glyph glyph-name="uni02C6" unicode="&#x2c6;" horiz-adv-x="587" d="M118 601 L247 744 L340 744 L469 601 L364 601 L293 672 L220 601 L118 601 Z " />
<glyph glyph-name="uni0303" unicode="&#x303;" d="M65 597 Q43 597 26 604.5 Q9 612 -4.5 622 Q-18 632 -30 639.5 Q-42 647 -54 647 Q-67 647 -76 635.5 Q-85 624 -87 602 L-167 602 Q-161 666 -133 700.5 Q-105 735 -64 735 Q-42 735 -25 727.5 Q-8 720 5.5 710 Q19 700 31 692.5 Q43 685 55 685 Q68 685 77 696.5 Q86 708 88 730 L168 730 Q162 666 134 631.5 Q106 597 65 597 Z " />
<glyph glyph-name="uni02DC" unicode="&#x2dc;" horiz-adv-x="587" d="M358 597 Q336 597 319 604.5 Q302 612 288.5 622 Q275 632 263 639.5 Q251 647 239 647 Q226 647 217 635.5 Q208 624 206 602 L126 602 Q132 666 160 700.5 Q188 735 229 735 Q251 735 268 727.5 Q285 720 298.5 710 Q312 700 324 692.5 Q336 685 348 685 Q361 685 370 696.5 Q379 708 381 730 L461 730 Q455 666 427 631.5 Q399 597 358 597 Z " />
<glyph glyph-name="uni00C2" unicode="&#xc2;" horiz-adv-x="735" d="M19 0 L302 710 L432 710 L716 0 L590 0 L523 176 L207 176 L140 0 L19 0 Z M247 280 L483 280 L365 587 L247 280 Z M166 786 L311 914 L423 914 L568 786 L446 786 L366 848 L285 786 L166 786 Z " />
<glyph glyph-name="uni00CA" unicode="&#xca;" horiz-adv-x="568" d="M70 0 L70 710 L500 710 L500 605 L190 605 L190 419 L470 419 L470 314 L190 314 L190 105 L510 105 L510 0 L70 0 Z M84 786 L229 914 L341 914 L486 786 L364 786 L284 848 L203 786 L84 786 Z " />
<glyph glyph-name="uni00CE" unicode="&#xce;" horiz-adv-x="262" d="M70 0 L70 710 L192 710 L192 0 L70 0 Z M-70 786 L75 914 L187 914 L332 786 L210 786 L130 848 L49 786 L-70 786 Z " />
<glyph glyph-name="uni00D4" unicode="&#xd4;" horiz-adv-x="810" d="M405 -20 Q343 -20 288.5 -2 Q234 16 189.5 49.5 Q145 83 113 129 Q81 175 63.5 232 Q46 289 46 354 Q46 419 63.5 476 Q81 533 113 579.5 Q145 626 190 660 Q235 694 289.5 712 Q344 730 406 730 Q468 730 522.5 712 Q577 694 621.5 660.5 Q666 627 698 581 Q730 535 747 478 Q764 421 764 356 Q764 291 746.5 234 Q729 177 697 130.5 Q665 84 620.5 50 Q576 16 521.5 -2 Q467 -20 405 -20 Z M405 92 Q456 92 498.5 111.5 Q541 131 572 166 Q603 201 620.5 249.5 Q638 298 638 355 Q638 412 620.5 460.5 Q603 509 572 544 Q541 579 498.5 598.5 Q456 618 405 618 Q354 618 311.5 598.5 Q269 579 238 544 Q207 509 189.5 460.5 Q172 412 172 355 Q172 298 189.5 249.5 Q207 201 238 166 Q269 131 311.5 111.5 Q354 92 405 92 Z M204 786 L349 914 L461 914 L606 786 L484 786 L404 848 L323 786 L204 786 Z " />
<glyph glyph-name="uni00DB" unicode="&#xdb;" horiz-adv-x="716" d="M356 -20 Q288 -20 234 1 Q180 22 141.5 62 Q103 102 82.5 157.5 Q62 213 62 282 L62 710 L184 710 L184 287 Q184 227 205.5 183.5 Q227 140 266 116 Q305 92 358 92 Q411 92 450 116 Q489 140 510.5 183.5 Q532 227 532 287 L532 710 L654 710 L654 282 Q654 213 633 157.5 Q612 102 572.5 62.5 Q533 23 478.5 1.5 Q424 -20 356 -20 Z M157 786 L302 914 L414 914 L559 786 L437 786 L357 848 L276 786 L157 786 Z " />
<glyph glyph-name="uni0174" unicode="&#x174;" horiz-adv-x="1029" d="M998 710 L788 0 L664 0 L515 540 L366 0 L241 0 L31 710 L161 710 L307 162 L457 710 L575 710 L726 162 L871 710 L998 710 Z M313 786 L458 914 L570 914 L715 786 L593 786 L513 848 L432 786 L313 786 Z " />
<glyph glyph-name="uni0176" unicode="&#x176;" horiz-adv-x="648" d="M263 0 L263 280 L14 710 L152 710 L326 392 L499 710 L634 710 L385 280 L385 0 L263 0 Z M122 786 L267 914 L379 914 L524 786 L402 786 L322 848 L241 786 L122 786 Z " />
<glyph glyph-name="uni00C3" unicode="&#xc3;" horiz-adv-x="735" d="M19 0 L302 710 L432 710 L716 0 L590 0 L523 176 L207 176 L140 0 L19 0 Z M247 280 L483 280 L365 587 L247 280 Z M440 783 Q416 783 396.5 791 Q377 799 361.5 809 Q346 819 332 827 Q318 835 304 835 Q287 835 276 823 Q265 811 260 789 L178 789 Q183 830 198.5 859.5 Q214 889 238.5 905 Q263 921 295 921 Q319 921 338.5 913 Q358 905 373.5 895 Q389 885 403 877 Q417 869 431 869 Q448 869 459.5 881 Q471 893 475 915 L557 915 Q553 874 537 844.5 Q521 815 496 799 Q471 783 440 783 Z " />
<glyph glyph-name="uni0128" unicode="&#x128;" horiz-adv-x="262" d="M70 0 L70 710 L192 710 L192 0 L70 0 Z M204 783 Q180 783 160.5 791 Q141 799 125.5 809 Q110 819 96 827 Q82 835 68 835 Q51 835 40 823 Q29 811 24 789 L-58 789 Q-53 830 -37.5 859.5 Q-22 889 2.5 905 Q27 921 59 921 Q83 921 102.5 913 Q122 905 137.5 895 Q153 885 167 877 Q181 869 195 869 Q212 869 223.5 881 Q235 893 239 915 L321 915 Q317 874 301 844.5 Q285 815 260 799 Q235 783 204 783 Z " />
<glyph glyph-name="uni00D1" unicode="&#xd1;" horiz-adv-x="721" d="M70 0 L70 710 L178 710 L532 202 L532 710 L651 710 L651 0 L543 0 L189 510 L189 0 L70 0 Z M434 783 Q410 783 390.5 791 Q371 799 355.5 809 Q340 819 326 827 Q312 835 298 835 Q281 835 270 823 Q259 811 254 789 L172 789 Q177 830 192.5 859.5 Q208 889 232.5 905 Q257 921 289 921 Q313 921 332.5 913 Q352 905 367.5 895 Q383 885 397 877 Q411 869 425 869 Q442 869 453.5 881 Q465 893 469 915 L551 915 Q547 874 531 844.5 Q515 815 490 799 Q465 783 434 783 Z " />
<glyph glyph-name="uni00D5" unicode="&#xd5;" horiz-adv-x="810" d="M405 -20 Q343 -20 288.5 -2 Q234 16 189.5 49.5 Q145 83 113 129 Q81 175 63.5 232 Q46 289 46 354 Q46 419 63.5 476 Q81 533 113 579.5 Q145 626 190 660 Q235 694 289.5 712 Q344 730 406 730 Q468 730 522.5 712 Q577 694 621.5 660.5 Q666 627 698 581 Q730 535 747 478 Q764 421 764 356 Q764 291 746.5 234 Q729 177 697 130.5 Q665 84 620.5 50 Q576 16 521.5 -2 Q467 -20 405 -20 Z M405 92 Q456 92 498.5 111.5 Q541 131 572 166 Q603 201 620.5 249.5 Q638 298 638 355 Q638 412 620.5 460.5 Q603 509 572 544 Q541 579 498.5 598.5 Q456 618 405 618 Q354 618 311.5 598.5 Q269 579 238 544 Q207 509 189.5 460.5 Q172 412 172 355 Q172 298 189.5 249.5 Q207 201 238 166 Q269 131 311.5 111.5 Q354 92 405 92 Z M478 783 Q454 783 434.5 791 Q415 799 399.5 809 Q384 819 370 827 Q356 835 342 835 Q325 835 314 823 Q303 811 298 789 L216 789 Q221 830 236.5 859.5 Q252 889 276.5 905 Q301 921 333 921 Q357 921 376.5 913 Q396 905 411.5 895 Q427 885 441 877 Q455 869 469 869 Q486 869 497.5 881 Q509 893 513 915 L595 915 Q591 874 575 844.5 Q559 815 534 799 Q509 783 478 783 Z " />
<glyph glyph-name="uni0168" unicode="&#x168;" horiz-adv-x="716" d="M356 -20 Q288 -20 234 1 Q180 22 141.5 62 Q103 102 82.5 157.5 Q62 213 62 282 L62 710 L184 710 L184 287 Q184 227 205.5 183.5 Q227 140 266 116 Q305 92 358 92 Q411 92 450 116 Q489 140 510.5 183.5 Q532 227 532 287 L532 710 L654 710 L654 282 Q654 213 633 157.5 Q612 102 572.5 62.5 Q533 23 478.5 1.5 Q424 -20 356 -20 Z M431 783 Q407 783 387.5 791 Q368 799 352.5 809 Q337 819 323 827 Q309 835 295 835 Q278 835 267 823 Q256 811 251 789 L169 789 Q174 830 189.5 859.5 Q205 889 229.5 905 Q254 921 286 921 Q310 921 329.5 913 Q349 905 364.5 895 Q380 885 394 877 Q408 869 422 869 Q439 869 450.5 881 Q462 893 466 915 L548 915 Q544 874 528 844.5 Q512 815 487 799 Q462 783 431 783 Z " />
<glyph glyph-name="uni00E2" unicode="&#xe2;" horiz-adv-x="554" d="M222 -15 Q182 -15 148.5 -3 Q115 9 90 31 Q65 53 51 83 Q37 113 37 149 Q37 199 63.5 236.5 Q90 274 138 295 Q186 316 250 316 Q285 316 317 309.5 Q349 303 378 291 L378 324 Q378 359 365 385.5 Q352 412 328 427 Q304 442 270 442 Q234 442 205 423 Q176 404 162 370 L56 394 Q68 438 99.5 470 Q131 502 175.5 520 Q220 538 272 538 Q321 538 361.5 522 Q402 506 431 477 Q460 448 476 408 Q492 368 492 319 L492 0 L387 0 L383 69 Q362 31 320 8 Q278 -15 222 -15 Z M153 154 Q153 132 165 114.5 Q177 97 198.5 87 Q220 77 249 77 Q286 77 315 93 Q344 109 361 136.5 Q378 164 378 199 L378 211 Q352 222 324.5 228.5 Q297 235 268 235 Q216 235 184.5 213 Q153 191 153 154 Z M99 601 L228 744 L321 744 L450 601 L345 601 L274 672 L201 601 L99 601 Z " />
<glyph glyph-name="uni00EA" unicode="&#xea;" horiz-adv-x="581" d="M305 -15 Q247 -15 198.5 5.5 Q150 26 114 63 Q78 100 58.5 150.5 Q39 201 39 262 Q39 321 58.5 371 Q78 421 112.5 458.5 Q147 496 194 517 Q241 538 296 538 Q351 538 396.5 518.5 Q442 499 475.5 463 Q509 427 527 377.5 Q545 328 545 268 L545 234 L158 234 Q163 188 182.5 154.5 Q202 121 233 103 Q264 85 305 85 Q387 85 433 158 L534 119 Q516 78 481.5 47.5 Q447 17 401.5 1 Q356 -15 305 -15 Z M296 445 Q261 445 233.5 429 Q206 413 187 384 Q168 355 161 316 L425 316 Q419 355 402 384 Q385 413 357.5 429 Q330 445 296 445 Z M121 601 L250 744 L343 744 L472 601 L367 601 L296 672 L223 601 L121 601 Z " />
<glyph glyph-name="uni00EE" unicode="&#xee;" horiz-adv-x="239" d="M62 0 L62 523 L177 523 L177 0 L62 0 Z M-57 601 L72 744 L165 744 L294 601 L189 601 L118 672 L45 601 L-57 601 Z " />
<glyph glyph-name="uni00F4" unicode="&#xf4;" horiz-adv-x="614" d="M305 -15 Q248 -15 199.5 5.5 Q151 26 115 63.5 Q79 101 59 151.5 Q39 202 39 262 Q39 321 59 371.5 Q79 422 115.5 459.5 Q152 497 201.5 517.5 Q251 538 309 538 Q366 538 414.5 517.5 Q463 497 499 459.5 Q535 422 555 372 Q575 322 575 262 Q575 202 555 151.5 Q535 101 498.5 63.5 Q462 26 412.5 5.5 Q363 -15 305 -15 Z M307 89 Q350 89 384 111.5 Q418 134 437.5 173 Q457 212 457 262 Q457 312 437.5 350.5 Q418 389 384 411.5 Q350 434 307 434 Q264 434 230 411.5 Q196 389 176.5 350.5 Q157 312 157 262 Q157 212 176.5 173 Q196 134 230 111.5 Q264 89 307 89 Z M132 601 L261 744 L354 744 L483 601 L378 601 L307 672 L234 601 L132 601 Z " />
<glyph glyph-name="uni00FB" unicode="&#xfb;" horiz-adv-x="586" d="M292 -15 Q222 -15 170.5 15 Q119 45 90.5 100.5 Q62 156 62 231 L62 523 L177 523 L177 229 Q177 164 208 126.5 Q239 89 293 89 Q347 89 378 126.5 Q409 164 409 229 L409 523 L524 523 L524 231 Q524 157 495.5 101.5 Q467 46 415 15.5 Q363 -15 292 -15 Z M117 601 L246 744 L339 744 L468 601 L363 601 L292 672 L219 601 L117 601 Z " />
<glyph glyph-name="uni0175" unicode="&#x175;" horiz-adv-x="824" d="M188 0 L14 523 L134 523 L245 141 L362 523 L465 523 L581 141 L694 523 L810 523 L635 0 L527 0 L412 380 L296 0 L188 0 Z M236 601 L365 744 L458 744 L587 601 L482 601 L411 672 L338 601 L236 601 Z " />
<glyph glyph-name="uni0177" unicode="&#x177;" horiz-adv-x="545" d="M132 -208 Q107 -208 85.5 -203 Q64 -198 44 -187 L69 -96 Q80 -101 94 -104.5 Q108 -108 121 -108 Q151 -108 173.5 -91 Q196 -74 211 -36 L227 5 L14 523 L140 523 L281 132 L409 523 L531 523 L309 -63 Q280 -138 236.5 -173 Q193 -208 132 -208 Z M97 601 L226 744 L319 744 L448 601 L343 601 L272 672 L199 601 L97 601 Z " />
<glyph glyph-name="uni00E3" unicode="&#xe3;" horiz-adv-x="554" d="M222 -15 Q182 -15 148.5 -3 Q115 9 90 31 Q65 53 51 83 Q37 113 37 149 Q37 199 63.5 236.5 Q90 274 138 295 Q186 316 250 316 Q285 316 317 309.5 Q349 303 378 291 L378 324 Q378 359 365 385.5 Q352 412 328 427 Q304 442 270 442 Q234 442 205 423 Q176 404 162 370 L56 394 Q68 438 99.5 470 Q131 502 175.5 520 Q220 538 272 538 Q321 538 361.5 522 Q402 506 431 477 Q460 448 476 408 Q492 368 492 319 L492 0 L387 0 L383 69 Q362 31 320 8 Q278 -15 222 -15 Z M153 154 Q153 132 165 114.5 Q177 97 198.5 87 Q220 77 249 77 Q286 77 315 93 Q344 109 361 136.5 Q378 164 378 199 L378 211 Q352 222 324.5 228.5 Q297 235 268 235 Q216 235 184.5 213 Q153 191 153 154 Z M339 597 Q317 597 300 604.5 Q283 612 269.5 622 Q256 632 244 639.5 Q232 647 220 647 Q207 647 198 635.5 Q189 624 187 602 L107 602 Q113 666 141 700.5 Q169 735 210 735 Q232 735 249 727.5 Q266 720 279.5 710 Q293 700 305 692.5 Q317 685 329 685 Q342 685 351 696.5 Q360 708 362 730 L442 730 Q436 666 408 631.5 Q380 597 339 597 Z " />
<glyph glyph-name="uni0129" unicode="&#x129;" horiz-adv-x="239" d="M62 0 L62 523 L177 523 L177 0 L62 0 Z M183 597 Q161 597 144 604.5 Q127 612 113.5 622 Q100 632 88 639.5 Q76 647 64 647 Q51 647 42 635.5 Q33 624 31 602 L-49 602 Q-43 666 -15 700.5 Q13 735 54 735 Q76 735 93 727.5 Q110 720 123.5 710 Q137 700 149 692.5 Q161 685 173 685 Q186 685 195 696.5 Q204 708 206 730 L286 730 Q280 666 252 631.5 Q224 597 183 597 Z " />
<glyph glyph-name="uni00F1" unicode="&#xf1;" horiz-adv-x="587" d="M62 0 L62 523 L167 523 L171 451 Q194 491 235.5 514.5 Q277 538 331 538 Q390 538 433.5 510 Q477 482 501 431 Q525 380 525 311 L525 0 L410 0 L410 298 Q410 362 381.5 398 Q353 434 302 434 Q266 434 237.5 417 Q209 400 193 371 Q177 342 177 304 L177 0 L62 0 Z M358 597 Q336 597 319 604.5 Q302 612 288.5 622 Q275 632 263 639.5 Q251 647 239 647 Q226 647 217 635.5 Q208 624 206 602 L126 602 Q132 666 160 700.5 Q188 735 229 735 Q251 735 268 727.5 Q285 720 298.5 710 Q312 700 324 692.5 Q336 685 348 685 Q361 685 370 696.5 Q379 708 381 730 L461 730 Q455 666 427 631.5 Q399 597 358 597 Z " />
<glyph glyph-name="uni00F5" unicode="&#xf5;" horiz-adv-x="614" d="M305 -15 Q248 -15 199.5 5.5 Q151 26 115 63.5 Q79 101 59 151.5 Q39 202 39 262 Q39 321 59 371.5 Q79 422 115.5 459.5 Q152 497 201.5 517.5 Q251 538 309 538 Q366 538 414.5 517.5 Q463 497 499 459.5 Q535 422 555 372 Q575 322 575 262 Q575 202 555 151.5 Q535 101 498.5 63.5 Q462 26 412.5 5.5 Q363 -15 305 -15 Z M307 89 Q350 89 384 111.5 Q418 134 437.5 173 Q457 212 457 262 Q457 312 437.5 350.5 Q418 389 384 411.5 Q350 434 307 434 Q264 434 230 411.5 Q196 389 176.5 350.5 Q157 312 157 262 Q157 212 176.5 173 Q196 134 230 111.5 Q264 89 307 89 Z M372 597 Q350 597 333 604.5 Q316 612 302.5 622 Q289 632 277 639.5 Q265 647 253 647 Q240 647 231 635.5 Q222 624 220 602 L140 602 Q146 666 174 700.5 Q202 735 243 735 Q265 735 282 727.5 Q299 720 312.5 710 Q326 700 338 692.5 Q350 685 362 685 Q375 685 384 696.5 Q393 708 395 730 L475 730 Q469 666 441 631.5 Q413 597 372 597 Z " />
<glyph glyph-name="uni0169" unicode="&#x169;" horiz-adv-x="586" d="M292 -15 Q222 -15 170.5 15 Q119 45 90.5 100.5 Q62 156 62 231 L62 523 L177 523 L177 229 Q177 164 208 126.5 Q239 89 293 89 Q347 89 378 126.5 Q409 164 409 229 L409 523 L524 523 L524 231 Q524 157 495.5 101.5 Q467 46 415 15.5 Q363 -15 292 -15 Z M357 597 Q335 597 318 604.5 Q301 612 287.5 622 Q274 632 262 639.5 Q250 647 238 647 Q225 647 216 635.5 Q207 624 205 602 L125 602 Q131 666 159 700.5 Q187 735 228 735 Q250 735 267 727.5 Q284 720 297.5 710 Q311 700 323 692.5 Q335 685 347 685 Q360 685 369 696.5 Q378 708 380 730 L460 730 Q454 666 426 631.5 Q398 597 357 597 Z " />
<glyph glyph-name="uni030C" unicode="&#x30c;" d="M-46 601 L-175 744 L-70 744 L1 673 L74 744 L176 744 L47 601 L-46 601 Z " />
<glyph glyph-name="uni02C7" unicode="&#x2c7;" horiz-adv-x="587" d="M247 601 L118 744 L223 744 L294 673 L367 744 L469 744 L340 601 L247 601 Z " />
<glyph glyph-name="uni0315" unicode="&#x315;" d="M70 568 L87 744 L189 744 L144 568 L70 568 Z " />
<glyph glyph-name="uni0304" unicode="&#x304;" d="M-153 610 L-153 693 L153 693 L153 610 L-153 610 Z " />
<glyph glyph-name="uni02C9" unicode="&#x2c9;" horiz-adv-x="587" d="M140 610 L140 693 L446 693 L446 610 L140 610 Z " />
<glyph glyph-name="uni00AF" unicode="&#xaf;" horiz-adv-x="587" d="M140 610 L140 693 L446 693 L446 610 L140 610 Z " />
<glyph glyph-name="uni010C" unicode="&#x10c;" horiz-adv-x="733" d="M393 -20 Q318 -20 254.5 7.5 Q191 35 144.5 85 Q98 135 72 202.5 Q46 270 46 350 Q46 414 63 471.5 Q80 529 111.5 576.5 Q143 624 186 658.5 Q229 693 281.5 711.5 Q334 730 393 730 Q462 730 521.5 705.5 Q581 681 624.5 636.5 Q668 592 690 531 L573 498 Q547 555 499.5 586.5 Q452 618 392 618 Q345 618 305 598 Q265 578 235 542 Q205 506 188.5 457 Q172 408 172 351 Q172 294 188.5 246.5 Q205 199 234.5 164.5 Q264 130 304.5 111 Q345 92 394 92 Q456 92 503.5 123 Q551 154 580 212 L697 179 Q674 118 630 73 Q586 28 525 4 Q464 -20 393 -20 Z M336 786 L191 914 L313 914 L393 852 L474 914 L593 914 L448 786 L336 786 Z " />
<glyph glyph-name="uni010E" unicode="&#x10e;" horiz-adv-x="751" d="M70 0 L70 710 L329 710 Q413 710 482.5 684.5 Q552 659 601.5 612.5 Q651 566 678 501 Q705 436 705 356 Q705 276 678 210.5 Q651 145 601 98 Q551 51 482 25.5 Q413 0 329 0 L70 0 Z M192 109 L323 109 Q402 109 459 139 Q516 169 547.5 224.5 Q579 280 579 355 Q579 430 547.5 485.5 Q516 541 458.5 571 Q401 601 323 601 L192 601 L192 109 Z M293 786 L148 914 L270 914 L350 852 L431 914 L550 914 L405 786 L293 786 Z " />
<glyph glyph-name="uni011A" unicode="&#x11a;" horiz-adv-x="568" d="M70 0 L70 710 L500 710 L500 605 L190 605 L190 419 L470 419 L470 314 L190 314 L190 105 L510 105 L510 0 L70 0 Z M229 786 L84 914 L206 914 L286 852 L367 914 L486 914 L341 786 L229 786 Z " />
<glyph glyph-name="uni013D" unicode="&#x13d;" horiz-adv-x="536" d="M70 0 L70 710 L192 710 L192 109 L493 109 L493 0 L70 0 Z M262 568 L279 744 L381 744 L336 568 L262 568 Z " />
<glyph glyph-name="uni0147" unicode="&#x147;" horiz-adv-x="721" d="M70 0 L70 710 L178 710 L532 202 L532 710 L651 710 L651 0 L543 0 L189 510 L189 0 L70 0 Z M305 786 L160 914 L282 914 L362 852 L443 914 L562 914 L417 786 L305 786 Z " />
<glyph glyph-name="uni0158" unicode="&#x158;" horiz-adv-x="618" d="M70 0 L70 710 L284 710 Q369 710 430.5 683 Q492 656 525 606 Q558 556 558 487 Q558 444 542.5 406.5 Q527 369 498.5 339 Q470 309 430 290 L595 0 L460 0 L323 258 Q312 257 298.5 256.5 Q285 256 271 256 Q236 256 190 263 L190 0 L70 0 Z M190 604 L190 369 Q211 365 233.5 363.5 Q256 362 278 362 Q352 362 393 394 Q434 426 434 483 Q434 540 394 572 Q354 604 282 604 L190 604 Z M223 786 L78 914 L200 914 L280 852 L361 914 L480 914 L335 786 L223 786 Z " />
<glyph glyph-name="uni0160" unicode="&#x160;" horiz-adv-x="564" d="M279 -15 Q219 -15 167.5 6.5 Q116 28 80 67 Q44 106 29 160 L144 188 Q160 142 195 117 Q230 92 280 92 Q316 92 344 106 Q372 120 388.5 144 Q405 168 405 199 Q405 237 377.5 262.5 Q350 288 291 301 L254 309 Q148 332 97.5 385 Q47 438 47 514 Q47 560 65 598.5 Q83 637 115 665.5 Q147 694 190 709.5 Q233 725 283 725 Q340 725 388 704 Q436 683 470 644.5 Q504 606 518 553 L404 525 Q388 570 356 594 Q324 618 280 618 Q248 618 223.5 605.5 Q199 593 184.5 571.5 Q170 550 170 523 Q170 484 199 461 Q228 438 288 424 L325 416 Q529 370 529 209 Q529 160 510.5 118.5 Q492 77 458 47.5 Q424 18 378.5 1.5 Q333 -15 279 -15 Z M226 786 L81 914 L203 914 L283 852 L364 914 L483 914 L338 786 L226 786 Z " />
<glyph glyph-name="uni0164" unicode="&#x164;" horiz-adv-x="624" d="M251 0 L251 601 L44 601 L44 710 L580 710 L580 601 L373 601 L373 0 L251 0 Z M256 786 L111 914 L233 914 L313 852 L394 914 L513 914 L368 786 L256 786 Z " />
<glyph glyph-name="uni017D" unicode="&#x17d;" horiz-adv-x="630" d="M41 0 L41 88 L418 606 L56 606 L56 710 L569 710 L569 622 L192 104 L591 104 L591 0 L41 0 Z M256 786 L111 914 L233 914 L313 852 L394 914 L513 914 L368 786 L256 786 Z " />
<glyph glyph-name="uni0100" unicode="&#x100;" horiz-adv-x="735" d="M19 0 L302 710 L432 710 L716 0 L590 0 L523 176 L207 176 L140 0 L19 0 Z M247 280 L483 280 L365 587 L247 280 Z M192 791 L192 879 L542 879 L542 791 L192 791 Z " />
<glyph glyph-name="uni0112" unicode="&#x112;" horiz-adv-x="568" d="M70 0 L70 710 L500 710 L500 605 L190 605 L190 419 L470 419 L470 314 L190 314 L190 105 L510 105 L510 0 L70 0 Z M110 791 L110 879 L460 879 L460 791 L110 791 Z " />
<glyph glyph-name="uni012A" unicode="&#x12a;" horiz-adv-x="262" d="M70 0 L70 710 L192 710 L192 0 L70 0 Z M-44 791 L-44 879 L306 879 L306 791 L-44 791 Z " />
<glyph glyph-name="uni016A" unicode="&#x16a;" horiz-adv-x="716" d="M356 -20 Q288 -20 234 1 Q180 22 141.5 62 Q103 102 82.5 157.5 Q62 213 62 282 L62 710 L184 710 L184 287 Q184 227 205.5 183.5 Q227 140 266 116 Q305 92 358 92 Q411 92 450 116 Q489 140 510.5 183.5 Q532 227 532 287 L532 710 L654 710 L654 282 Q654 213 633 157.5 Q612 102 572.5 62.5 Q533 23 478.5 1.5 Q424 -20 356 -20 Z M183 791 L183 879 L533 879 L533 791 L183 791 Z " />
<glyph glyph-name="uni010D" unicode="&#x10d;" horiz-adv-x="561" d="M298 -15 Q242 -15 195 5.5 Q148 26 113 62.5 Q78 99 58.5 149 Q39 199 39 258 Q39 317 59 368 Q79 419 114 457 Q149 495 196.5 516.5 Q244 538 300 538 Q354 538 399 518.5 Q444 499 476.5 463.5 Q509 428 523 380 L414 354 Q397 392 366.5 413 Q336 434 298 434 Q258 434 226 411 Q194 388 175.5 348.5 Q157 309 157 259 Q157 210 175 171.5 Q193 133 224.5 111 Q256 89 298 89 Q338 89 371 109.5 Q404 130 420 168 L528 143 Q514 95 480 59.5 Q446 24 399 4.5 Q352 -15 298 -15 Z M254 601 L125 744 L230 744 L301 673 L374 744 L476 744 L347 601 L254 601 Z " />
<glyph glyph-name="uni010F" unicode="&#x10f;" horiz-adv-x="632" d="M283 -15 Q231 -15 186.5 6 Q142 27 109 64 Q76 101 57.5 151 Q39 201 39 259 Q39 318 58 369 Q77 420 111 458 Q145 496 190.5 517 Q236 538 289 538 Q341 538 384 516 Q427 494 455 454 L455 744 L570 744 L570 0 L465 0 L460 84 Q432 38 386 11.5 Q340 -15 283 -15 Z M307 89 Q350 89 384 111.5 Q418 134 437.5 173 Q457 212 457 261 Q457 311 437.5 350 Q418 389 384 411.5 Q350 434 307 434 Q264 434 230 411.5 Q196 389 176.5 350 Q157 311 157 261 Q157 212 176.5 173 Q196 134 230 111.5 Q264 89 307 89 Z M640 568 L657 744 L759 744 L714 568 L640 568 Z " />
<glyph glyph-name="uni011B" unicode="&#x11b;" horiz-adv-x="581" d="M305 -15 Q247 -15 198.5 5.5 Q150 26 114 63 Q78 100 58.5 150.5 Q39 201 39 262 Q39 321 58.5 371 Q78 421 112.5 458.5 Q147 496 194 517 Q241 538 296 538 Q351 538 396.5 518.5 Q442 499 475.5 463 Q509 427 527 377.5 Q545 328 545 268 L545 234 L158 234 Q163 188 182.5 154.5 Q202 121 233 103 Q264 85 305 85 Q387 85 433 158 L534 119 Q516 78 481.5 47.5 Q447 17 401.5 1 Q356 -15 305 -15 Z M296 445 Q261 445 233.5 429 Q206 413 187 384 Q168 355 161 316 L425 316 Q419 355 402 384 Q385 413 357.5 429 Q330 445 296 445 Z M250 601 L121 744 L226 744 L297 673 L370 744 L472 744 L343 601 L250 601 Z " />
<glyph glyph-name="uni013E" unicode="&#x13e;" horiz-adv-x="239" d="M62 0 L62 744 L177 744 L177 0 L62 0 Z M247 568 L264 744 L366 744 L321 568 L247 568 Z " />
<glyph glyph-name="uni0148" unicode="&#x148;" horiz-adv-x="587" d="M62 0 L62 523 L167 523 L171 451 Q194 491 235.5 514.5 Q277 538 331 538 Q390 538 433.5 510 Q477 482 501 431 Q525 380 525 311 L525 0 L410 0 L410 298 Q410 362 381.5 398 Q353 434 302 434 Q266 434 237.5 417 Q209 400 193 371 Q177 342 177 304 L177 0 L62 0 Z M247 601 L118 744 L223 744 L294 673 L367 744 L469 744 L340 601 L247 601 Z " />
<glyph glyph-name="uni0159" unicode="&#x159;" horiz-adv-x="388" d="M62 0 L62 523 L167 523 L172 437 Q192 481 227.5 505.5 Q263 530 311 530 Q326 530 340 528 Q354 526 365 521 L352 409 Q341 413 329 414.5 Q317 416 305 416 Q245 416 211 376 Q177 336 177 265 L177 0 L62 0 Z M168 601 L39 744 L144 744 L215 673 L288 744 L390 744 L261 601 L168 601 Z " />
<glyph glyph-name="uni0161" unicode="&#x161;" horiz-adv-x="479" d="M241 -15 Q190 -15 146.5 2 Q103 19 72.5 50.5 Q42 82 29 125 L133 152 Q146 118 175 99 Q204 80 242 80 Q281 80 306 98.5 Q331 117 331 146 Q331 171 311 188 Q291 205 246 213 L213 219 Q129 234 86.5 273 Q44 312 44 373 Q44 422 69 459 Q94 496 138 517 Q182 538 239 538 Q288 538 329 521 Q370 504 398 473 Q426 442 438 400 L335 375 Q323 407 297.5 425.5 Q272 444 238 444 Q203 444 180 426.5 Q157 409 157 382 Q157 359 177.5 344 Q198 329 247 320 L280 314 Q360 300 403 259 Q446 218 446 157 Q446 120 431 88.5 Q416 57 388.5 33.5 Q361 10 323.5 -2.5 Q286 -15 241 -15 Z M192 601 L63 744 L168 744 L239 673 L312 744 L414 744 L285 601 L192 601 Z " />
<glyph glyph-name="uni0165" unicode="&#x165;" horiz-adv-x="426" d="M278 -15 Q199 -15 154 30.5 Q109 76 109 161 L109 430 L17 430 L17 523 L109 523 L109 700 L224 700 L224 523 L376 523 L376 430 L224 430 L224 173 Q224 131 241.5 108.5 Q259 86 293 86 Q311 86 332 91.5 Q353 97 371 107 L397 20 Q374 4 343.5 -5.5 Q313 -15 278 -15 Z M302 591 L316 744 L418 744 L378 591 L302 591 Z " />
<glyph glyph-name="uni017E" unicode="&#x17e;" horiz-adv-x="513" d="M41 0 L41 76 L313 430 L48 430 L48 523 L455 523 L455 447 L183 93 L472 93 L472 0 L41 0 Z M205 601 L76 744 L181 744 L252 673 L325 744 L427 744 L298 601 L205 601 Z " />
<glyph glyph-name="uni0101" unicode="&#x101;" horiz-adv-x="554" d="M222 -15 Q182 -15 148.5 -3 Q115 9 90 31 Q65 53 51 83 Q37 113 37 149 Q37 199 63.5 236.5 Q90 274 138 295 Q186 316 250 316 Q285 316 317 309.5 Q349 303 378 291 L378 324 Q378 359 365 385.5 Q352 412 328 427 Q304 442 270 442 Q234 442 205 423 Q176 404 162 370 L56 394 Q68 438 99.5 470 Q131 502 175.5 520 Q220 538 272 538 Q321 538 361.5 522 Q402 506 431 477 Q460 448 476 408 Q492 368 492 319 L492 0 L387 0 L383 69 Q362 31 320 8 Q278 -15 222 -15 Z M153 154 Q153 132 165 114.5 Q177 97 198.5 87 Q220 77 249 77 Q286 77 315 93 Q344 109 361 136.5 Q378 164 378 199 L378 211 Q352 222 324.5 228.5 Q297 235 268 235 Q216 235 184.5 213 Q153 191 153 154 Z M121 610 L121 693 L427 693 L427 610 L121 610 Z " />
<glyph glyph-name="uni0113" unicode="&#x113;" horiz-adv-x="581" d="M305 -15 Q247 -15 198.5 5.5 Q150 26 114 63 Q78 100 58.5 150.5 Q39 201 39 262 Q39 321 58.5 371 Q78 421 112.5 458.5 Q147 496 194 517 Q241 538 296 538 Q351 538 396.5 518.5 Q442 499 475.5 463 Q509 427 527 377.5 Q545 328 545 268 L545 234 L158 234 Q163 188 182.5 154.5 Q202 121 233 103 Q264 85 305 85 Q387 85 433 158 L534 119 Q516 78 481.5 47.5 Q447 17 401.5 1 Q356 -15 305 -15 Z M296 445 Q261 445 233.5 429 Q206 413 187 384 Q168 355 161 316 L425 316 Q419 355 402 384 Q385 413 357.5 429 Q330 445 296 445 Z M143 610 L143 693 L449 693 L449 610 L143 610 Z " />
<glyph glyph-name="uni012B" unicode="&#x12b;" horiz-adv-x="239" d="M62 0 L62 523 L177 523 L177 0 L62 0 Z M-35 610 L-35 693 L271 693 L271 610 L-35 610 Z " />
<glyph glyph-name="uni016B" unicode="&#x16b;" horiz-adv-x="586" d="M292 -15 Q222 -15 170.5 15 Q119 45 90.5 100.5 Q62 156 62 231 L62 523 L177 523 L177 229 Q177 164 208 126.5 Q239 89 293 89 Q347 89 378 126.5 Q409 164 409 229 L409 523 L524 523 L524 231 Q524 157 495.5 101.5 Q467 46 415 15.5 Q363 -15 292 -15 Z M139 610 L139 693 L445 693 L445 610 L139 610 Z " />
<glyph glyph-name="uni0308" unicode="&#x308;" d="M-101 604 Q-119 604 -133.5 613 Q-148 622 -157 636.5 Q-166 651 -166 669 Q-166 687 -157 701.5 Q-148 716 -133.5 725 Q-119 734 -101 734 Q-83 734 -68 725 Q-53 716 -44.5 701.5 Q-36 687 -36 669 Q-36 651 -44.5 636.5 Q-53 622 -68 613 Q-83 604 -101 604 Z M101 604 Q83 604 68 613 Q53 622 44.5 636.5 Q36 651 36 669 Q36 687 44.5 701.5 Q53 716 68 725 Q83 734 101 734 Q119 734 133.5 725 Q148 716 157 701.5 Q166 687 166 669 Q166 651 157 636.5 Q148 622 133.5 613 Q119 604 101 604 Z " />
<glyph glyph-name="uni00A8" unicode="&#xa8;" horiz-adv-x="587" d="M192 604 Q174 604 159.5 613 Q145 622 136 636.5 Q127 651 127 669 Q127 687 136 701.5 Q145 716 159.5 725 Q174 734 192 734 Q210 734 225 725 Q240 716 248.5 701.5 Q257 687 257 669 Q257 651 248.5 636.5 Q240 622 225 613 Q210 604 192 604 Z M394 604 Q376 604 361 613 Q346 622 337.5 636.5 Q329 651 329 669 Q329 687 337.5 701.5 Q346 716 361 725 Q376 734 394 734 Q412 734 426.5 725 Q441 716 450 701.5 Q459 687 459 669 Q459 651 450 636.5 Q441 622 426.5 613 Q412 604 394 604 Z " />
<glyph glyph-name="uni0306" unicode="&#x306;" d="M0 600 Q-43 600 -77.5 616.5 Q-112 633 -134 662.5 Q-156 692 -163 733 L-71 733 Q-64 704 -45.5 690 Q-27 676 0 676 Q27 676 45.5 690 Q64 704 71 733 L163 733 Q156 692 134 662.5 Q112 633 77.5 616.5 Q43 600 0 600 Z " />
<glyph glyph-name="uni02D8" unicode="&#x2d8;" horiz-adv-x="587" d="M293 600 Q250 600 215.5 616.5 Q181 633 159 662.5 Q137 692 130 733 L222 733 Q229 704 247.5 690 Q266 676 293 676 Q320 676 338.5 690 Q357 704 364 733 L456 733 Q449 692 427 662.5 Q405 633 370.5 616.5 Q336 600 293 600 Z " />
<glyph glyph-name="uni00C4" unicode="&#xc4;" horiz-adv-x="735" d="M19 0 L302 710 L432 710 L716 0 L590 0 L523 176 L207 176 L140 0 L19 0 Z M247 280 L483 280 L365 587 L247 280 Z M251 779 Q231 779 215.5 788 Q200 797 191 812.5 Q182 828 182 847 Q182 866 191 881.5 Q200 897 215.5 906 Q231 915 251 915 Q271 915 286.5 906 Q302 897 311 881.5 Q320 866 320 847 Q320 828 311 812.5 Q302 797 286.5 788 Q271 779 251 779 Z M484 779 Q465 779 449 788 Q433 797 424 812.5 Q415 828 415 847 Q415 866 424 881.5 Q433 897 449 906 Q465 915 484 915 Q503 915 519 906 Q535 897 544 881.5 Q553 866 553 847 Q553 828 544 812.5 Q535 797 519 788 Q503 779 484 779 Z " />
<glyph glyph-name="uni00CB" unicode="&#xcb;" horiz-adv-x="568" d="M70 0 L70 710 L500 710 L500 605 L190 605 L190 419 L470 419 L470 314 L190 314 L190 105 L510 105 L510 0 L70 0 Z M169 779 Q149 779 133.5 788 Q118 797 109 812.5 Q100 828 100 847 Q100 866 109 881.5 Q118 897 133.5 906 Q149 915 169 915 Q189 915 204.5 906 Q220 897 229 881.5 Q238 866 238 847 Q238 828 229 812.5 Q220 797 204.5 788 Q189 779 169 779 Z M402 779 Q383 779 367 788 Q351 797 342 812.5 Q333 828 333 847 Q333 866 342 881.5 Q351 897 367 906 Q383 915 402 915 Q421 915 437 906 Q453 897 462 881.5 Q471 866 471 847 Q471 828 462 812.5 Q453 797 437 788 Q421 779 402 779 Z " />
<glyph glyph-name="uni00CF" unicode="&#xcf;" horiz-adv-x="262" d="M70 0 L70 710 L192 710 L192 0 L70 0 Z M15 779 Q-5 779 -20.5 788 Q-36 797 -45 812.5 Q-54 828 -54 847 Q-54 866 -45 881.5 Q-36 897 -20.5 906 Q-5 915 15 915 Q35 915 50.5 906 Q66 897 75 881.5 Q84 866 84 847 Q84 828 75 812.5 Q66 797 50.5 788 Q35 779 15 779 Z M248 779 Q229 779 213 788 Q197 797 188 812.5 Q179 828 179 847 Q179 866 188 881.5 Q197 897 213 906 Q229 915 248 915 Q267 915 283 906 Q299 897 308 881.5 Q317 866 317 847 Q317 828 308 812.5 Q299 797 283 788 Q267 779 248 779 Z " />
<glyph glyph-name="uni00D6" unicode="&#xd6;" horiz-adv-x="810" d="M405 -20 Q343 -20 288.5 -2 Q234 16 189.5 49.5 Q145 83 113 129 Q81 175 63.5 232 Q46 289 46 354 Q46 419 63.5 476 Q81 533 113 579.5 Q145 626 190 660 Q235 694 289.5 712 Q344 730 406 730 Q468 730 522.5 712 Q577 694 621.5 660.5 Q666 627 698 581 Q730 535 747 478 Q764 421 764 356 Q764 291 746.5 234 Q729 177 697 130.5 Q665 84 620.5 50 Q576 16 521.5 -2 Q467 -20 405 -20 Z M405 92 Q456 92 498.5 111.5 Q541 131 572 166 Q603 201 620.5 249.5 Q638 298 638 355 Q638 412 620.5 460.5 Q603 509 572 544 Q541 579 498.5 598.5 Q456 618 405 618 Q354 618 311.5 598.5 Q269 579 238 544 Q207 509 189.5 460.5 Q172 412 172 355 Q172 298 189.5 249.5 Q207 201 238 166 Q269 131 311.5 111.5 Q354 92 405 92 Z M289 779 Q269 779 253.5 788 Q238 797 229 812.5 Q220 828 220 847 Q220 866 229 881.5 Q238 897 253.5 906 Q269 915 289 915 Q309 915 324.5 906 Q340 897 349 881.5 Q358 866 358 847 Q358 828 349 812.5 Q340 797 324.5 788 Q309 779 289 779 Z M522 779 Q503 779 487 788 Q471 797 462 812.5 Q453 828 453 847 Q453 866 462 881.5 Q471 897 487 906 Q503 915 522 915 Q541 915 557 906 Q573 897 582 881.5 Q591 866 591 847 Q591 828 582 812.5 Q573 797 557 788 Q541 779 522 779 Z " />
<glyph glyph-name="uni00DC" unicode="&#xdc;" horiz-adv-x="716" d="M356 -20 Q288 -20 234 1 Q180 22 141.5 62 Q103 102 82.5 157.5 Q62 213 62 282 L62 710 L184 710 L184 287 Q184 227 205.5 183.5 Q227 140 266 116 Q305 92 358 92 Q411 92 450 116 Q489 140 510.5 183.5 Q532 227 532 287 L532 710 L654 710 L654 282 Q654 213 633 157.5 Q612 102 572.5 62.5 Q533 23 478.5 1.5 Q424 -20 356 -20 Z M242 779 Q222 779 206.5 788 Q191 797 182 812.5 Q173 828 173 847 Q173 866 182 881.5 Q191 897 206.5 906 Q222 915 242 915 Q262 915 277.5 906 Q293 897 302 881.5 Q311 866 311 847 Q311 828 302 812.5 Q293 797 277.5 788 Q262 779 242 779 Z M475 779 Q456 779 440 788 Q424 797 415 812.5 Q406 828 406 847 Q406 866 415 881.5 Q424 897 440 906 Q456 915 475 915 Q494 915 510 906 Q526 897 535 881.5 Q544 866 544 847 Q544 828 535 812.5 Q526 797 510 788 Q494 779 475 779 Z " />
<glyph glyph-name="uni1E84" unicode="&#x1e84;" horiz-adv-x="1029" d="M998 710 L788 0 L664 0 L515 540 L366 0 L241 0 L31 710 L161 710 L307 162 L457 710 L575 710 L726 162 L871 710 L998 710 Z M398 779 Q378 779 362.5 788 Q347 797 338 812.5 Q329 828 329 847 Q329 866 338 881.5 Q347 897 362.5 906 Q378 915 398 915 Q418 915 433.5 906 Q449 897 458 881.5 Q467 866 467 847 Q467 828 458 812.5 Q449 797 433.5 788 Q418 779 398 779 Z M631 779 Q612 779 596 788 Q580 797 571 812.5 Q562 828 562 847 Q562 866 571 881.5 Q580 897 596 906 Q612 915 631 915 Q650 915 666 906 Q682 897 691 881.5 Q700 866 700 847 Q700 828 691 812.5 Q682 797 666 788 Q650 779 631 779 Z " />
<glyph glyph-name="uni0178" unicode="&#x178;" horiz-adv-x="648" d="M263 0 L263 280 L14 710 L152 710 L326 392 L499 710 L634 710 L385 280 L385 0 L263 0 Z M207 779 Q187 779 171.5 788 Q156 797 147 812.5 Q138 828 138 847 Q138 866 147 881.5 Q156 897 171.5 906 Q187 915 207 915 Q227 915 242.5 906 Q258 897 267 881.5 Q276 866 276 847 Q276 828 267 812.5 Q258 797 242.5 788 Q227 779 207 779 Z M440 779 Q421 779 405 788 Q389 797 380 812.5 Q371 828 371 847 Q371 866 380 881.5 Q389 897 405 906 Q421 915 440 915 Q459 915 475 906 Q491 897 500 881.5 Q509 866 509 847 Q509 828 500 812.5 Q491 797 475 788 Q459 779 440 779 Z " />
<glyph glyph-name="uni0102" unicode="&#x102;" horiz-adv-x="735" d="M19 0 L302 710 L432 710 L716 0 L590 0 L523 176 L207 176 L140 0 L19 0 Z M247 280 L483 280 L365 587 L247 280 Z M367 781 Q321 781 284.5 798 Q248 815 223.5 845.5 Q199 876 192 919 L287 919 Q295 890 316 874 Q337 858 367 858 Q398 858 418.5 874 Q439 890 447 919 L542 919 Q535 876 510.5 845.5 Q486 815 449.5 798 Q413 781 367 781 Z " />
<glyph glyph-name="uni011E" unicode="&#x11e;" horiz-adv-x="786" d="M404 -20 Q342 -20 287.5 -2 Q233 16 189 49.5 Q145 83 113 129 Q81 175 63.5 231.5 Q46 288 46 353 Q46 418 63.5 475 Q81 532 113.5 579 Q146 626 190.5 659.5 Q235 693 289.5 711.5 Q344 730 406 730 Q473 730 531.5 708 Q590 686 635 645 Q680 604 706 548 L590 509 Q561 561 513.5 589.5 Q466 618 406 618 Q356 618 313.5 598 Q271 578 239 542.5 Q207 507 189.5 459 Q172 411 172 355 Q172 298 189.5 249.5 Q207 201 239 166 Q271 131 314.5 111.5 Q358 92 409 92 Q468 92 513.5 115.5 Q559 139 586 181 Q613 223 617 279 L423 279 L423 381 L742 381 L742 314 Q742 240 717.5 179 Q693 118 647.5 73.5 Q602 29 540.5 4.5 Q479 -20 404 -20 Z M412 781 Q366 781 329.5 798 Q293 815 268.5 845.5 Q244 876 237 919 L332 919 Q340 890 361 874 Q382 858 412 858 Q443 858 463.5 874 Q484 890 492 919 L587 919 Q580 876 555.5 845.5 Q531 815 494.5 798 Q458 781 412 781 Z " />
<glyph glyph-name="uni00E4" unicode="&#xe4;" horiz-adv-x="554" d="M222 -15 Q182 -15 148.5 -3 Q115 9 90 31 Q65 53 51 83 Q37 113 37 149 Q37 199 63.5 236.5 Q90 274 138 295 Q186 316 250 316 Q285 316 317 309.5 Q349 303 378 291 L378 324 Q378 359 365 385.5 Q352 412 328 427 Q304 442 270 442 Q234 442 205 423 Q176 404 162 370 L56 394 Q68 438 99.5 470 Q131 502 175.5 520 Q220 538 272 538 Q321 538 361.5 522 Q402 506 431 477 Q460 448 476 408 Q492 368 492 319 L492 0 L387 0 L383 69 Q362 31 320 8 Q278 -15 222 -15 Z M153 154 Q153 132 165 114.5 Q177 97 198.5 87 Q220 77 249 77 Q286 77 315 93 Q344 109 361 136.5 Q378 164 378 199 L378 211 Q352 222 324.5 228.5 Q297 235 268 235 Q216 235 184.5 213 Q153 191 153 154 Z M173 604 Q155 604 140.5 613 Q126 622 117 636.5 Q108 651 108 669 Q108 687 117 701.5 Q126 716 140.5 725 Q155 734 173 734 Q191 734 206 725 Q221 716 229.5 701.5 Q238 687 238 669 Q238 651 229.5 636.5 Q221 622 206 613 Q191 604 173 604 Z M375 604 Q357 604 342 613 Q327 622 318.5 636.5 Q310 651 310 669 Q310 687 318.5 701.5 Q327 716 342 725 Q357 734 375 734 Q393 734 407.5 725 Q422 716 431 701.5 Q440 687 440 669 Q440 651 431 636.5 Q422 622 407.5 613 Q393 604 375 604 Z " />
<glyph glyph-name="uni00EB" unicode="&#xeb;" horiz-adv-x="581" d="M305 -15 Q247 -15 198.5 5.5 Q150 26 114 63 Q78 100 58.5 150.5 Q39 201 39 262 Q39 321 58.5 371 Q78 421 112.5 458.5 Q147 496 194 517 Q241 538 296 538 Q351 538 396.5 518.5 Q442 499 475.5 463 Q509 427 527 377.5 Q545 328 545 268 L545 234 L158 234 Q163 188 182.5 154.5 Q202 121 233 103 Q264 85 305 85 Q387 85 433 158 L534 119 Q516 78 481.5 47.5 Q447 17 401.5 1 Q356 -15 305 -15 Z M296 445 Q261 445 233.5 429 Q206 413 187 384 Q168 355 161 316 L425 316 Q419 355 402 384 Q385 413 357.5 429 Q330 445 296 445 Z M195 604 Q177 604 162.5 613 Q148 622 139 636.5 Q130 651 130 669 Q130 687 139 701.5 Q148 716 162.5 725 Q177 734 195 734 Q213 734 228 725 Q243 716 251.5 701.5 Q260 687 260 669 Q260 651 251.5 636.5 Q243 622 228 613 Q213 604 195 604 Z M397 604 Q379 604 364 613 Q349 622 340.5 636.5 Q332 651 332 669 Q332 687 340.5 701.5 Q349 716 364 725 Q379 734 397 734 Q415 734 429.5 725 Q444 716 453 701.5 Q462 687 462 669 Q462 651 453 636.5 Q444 622 429.5 613 Q415 604 397 604 Z " />
<glyph glyph-name="uni00EF" unicode="&#xef;" horiz-adv-x="239" d="M62 0 L62 523 L177 523 L177 0 L62 0 Z M17 604 Q-1 604 -15.5 613 Q-30 622 -39 636.5 Q-48 651 -48 669 Q-48 687 -39 701.5 Q-30 716 -15.5 725 Q-1 734 17 734 Q35 734 50 725 Q65 716 73.5 701.5 Q82 687 82 669 Q82 651 73.5 636.5 Q65 622 50 613 Q35 604 17 604 Z M219 604 Q201 604 186 613 Q171 622 162.5 636.5 Q154 651 154 669 Q154 687 162.5 701.5 Q171 716 186 725 Q201 734 219 734 Q237 734 251.5 725 Q266 716 275 701.5 Q284 687 284 669 Q284 651 275 636.5 Q266 622 251.5 613 Q237 604 219 604 Z " />
<glyph glyph-name="uni00F6" unicode="&#xf6;" horiz-adv-x="614" d="M305 -15 Q248 -15 199.5 5.5 Q151 26 115 63.5 Q79 101 59 151.5 Q39 202 39 262 Q39 321 59 371.5 Q79 422 115.5 459.5 Q152 497 201.5 517.5 Q251 538 309 538 Q366 538 414.5 517.5 Q463 497 499 459.5 Q535 422 555 372 Q575 322 575 262 Q575 202 555 151.5 Q535 101 498.5 63.5 Q462 26 412.5 5.5 Q363 -15 305 -15 Z M307 89 Q350 89 384 111.5 Q418 134 437.5 173 Q457 212 457 262 Q457 312 437.5 350.5 Q418 389 384 411.5 Q350 434 307 434 Q264 434 230 411.5 Q196 389 176.5 350.5 Q157 312 157 262 Q157 212 176.5 173 Q196 134 230 111.5 Q264 89 307 89 Z M206 604 Q188 604 173.5 613 Q159 622 150 636.5 Q141 651 141 669 Q141 687 150 701.5 Q159 716 173.5 725 Q188 734 206 734 Q224 734 239 725 Q254 716 262.5 701.5 Q271 687 271 669 Q271 651 262.5 636.5 Q254 622 239 613 Q224 604 206 604 Z M408 604 Q390 604 375 613 Q360 622 351.5 636.5 Q343 651 343 669 Q343 687 351.5 701.5 Q360 716 375 725 Q390 734 408 734 Q426 734 440.5 725 Q455 716 464 701.5 Q473 687 473 669 Q473 651 464 636.5 Q455 622 440.5 613 Q426 604 408 604 Z " />
<glyph glyph-name="uni00FC" unicode="&#xfc;" horiz-adv-x="586" d="M292 -15 Q222 -15 170.5 15 Q119 45 90.5 100.5 Q62 156 62 231 L62 523 L177 523 L177 229 Q177 164 208 126.5 Q239 89 293 89 Q347 89 378 126.5 Q409 164 409 229 L409 523 L524 523 L524 231 Q524 157 495.5 101.5 Q467 46 415 15.5 Q363 -15 292 -15 Z M191 604 Q173 604 158.5 613 Q144 622 135 636.5 Q126 651 126 669 Q126 687 135 701.5 Q144 716 158.5 725 Q173 734 191 734 Q209 734 224 725 Q239 716 247.5 701.5 Q256 687 256 669 Q256 651 247.5 636.5 Q239 622 224 613 Q209 604 191 604 Z M393 604 Q375 604 360 613 Q345 622 336.5 636.5 Q328 651 328 669 Q328 687 336.5 701.5 Q345 716 360 725 Q375 734 393 734 Q411 734 425.5 725 Q440 716 449 701.5 Q458 687 458 669 Q458 651 449 636.5 Q440 622 425.5 613 Q411 604 393 604 Z " />
<glyph glyph-name="uni1E85" unicode="&#x1e85;" horiz-adv-x="824" d="M188 0 L14 523 L134 523 L245 141 L362 523 L465 523 L581 141 L694 523 L810 523 L635 0 L527 0 L412 380 L296 0 L188 0 Z M310 604 Q292 604 277.5 613 Q263 622 254 636.5 Q245 651 245 669 Q245 687 254 701.5 Q263 716 277.5 725 Q292 734 310 734 Q328 734 343 725 Q358 716 366.5 701.5 Q375 687 375 669 Q375 651 366.5 636.5 Q358 622 343 613 Q328 604 310 604 Z M512 604 Q494 604 479 613 Q464 622 455.5 636.5 Q447 651 447 669 Q447 687 455.5 701.5 Q464 716 479 725 Q494 734 512 734 Q530 734 544.5 725 Q559 716 568 701.5 Q577 687 577 669 Q577 651 568 636.5 Q559 622 544.5 613 Q530 604 512 604 Z " />
<glyph glyph-name="uni00FF" unicode="&#xff;" horiz-adv-x="545" d="M132 -208 Q107 -208 85.5 -203 Q64 -198 44 -187 L69 -96 Q80 -101 94 -104.5 Q108 -108 121 -108 Q151 -108 173.5 -91 Q196 -74 211 -36 L227 5 L14 523 L140 523 L281 132 L409 523 L531 523 L309 -63 Q280 -138 236.5 -173 Q193 -208 132 -208 Z M171 604 Q153 604 138.5 613 Q124 622 115 636.5 Q106 651 106 669 Q106 687 115 701.5 Q124 716 138.5 725 Q153 734 171 734 Q189 734 204 725 Q219 716 227.5 701.5 Q236 687 236 669 Q236 651 227.5 636.5 Q219 622 204 613 Q189 604 171 604 Z M373 604 Q355 604 340 613 Q325 622 316.5 636.5 Q308 651 308 669 Q308 687 316.5 701.5 Q325 716 340 725 Q355 734 373 734 Q391 734 405.5 725 Q420 716 429 701.5 Q438 687 438 669 Q438 651 429 636.5 Q420 622 405.5 613 Q391 604 373 604 Z " />
<glyph glyph-name="uni0103" unicode="&#x103;" horiz-adv-x="554" d="M222 -15 Q182 -15 148.5 -3 Q115 9 90 31 Q65 53 51 83 Q37 113 37 149 Q37 199 63.5 236.5 Q90 274 138 295 Q186 316 250 316 Q285 316 317 309.5 Q349 303 378 291 L378 324 Q378 359 365 385.5 Q352 412 328 427 Q304 442 270 442 Q234 442 205 423 Q176 404 162 370 L56 394 Q68 438 99.5 470 Q131 502 175.5 520 Q220 538 272 538 Q321 538 361.5 522 Q402 506 431 477 Q460 448 476 408 Q492 368 492 319 L492 0 L387 0 L383 69 Q362 31 320 8 Q278 -15 222 -15 Z M153 154 Q153 132 165 114.5 Q177 97 198.5 87 Q220 77 249 77 Q286 77 315 93 Q344 109 361 136.5 Q378 164 378 199 L378 211 Q352 222 324.5 228.5 Q297 235 268 235 Q216 235 184.5 213 Q153 191 153 154 Z M274 600 Q231 600 196.5 616.5 Q162 633 140 662.5 Q118 692 111 733 L203 733 Q210 704 228.5 690 Q247 676 274 676 Q301 676 319.5 690 Q338 704 345 733 L437 733 Q430 692 408 662.5 Q386 633 351.5 616.5 Q317 600 274 600 Z " />
<glyph glyph-name="uni011F" unicode="&#x11f;" horiz-adv-x="627" d="M280 10 Q229 10 185 30 Q141 50 108 85.5 Q75 121 57 168.5 Q39 216 39 272 Q39 328 57.5 376.5 Q76 425 110 461 Q144 497 189 517.5 Q234 538 286 538 Q340 538 384.5 514.5 Q429 491 456 449 L460 523 L565 523 L565 55 Q565 -5 546 -54.5 Q527 -104 492 -139.5 Q457 -175 408.5 -194 Q360 -213 300 -213 Q220 -213 160 -177 Q100 -141 66 -77 L175 -39 Q197 -75 230 -93.5 Q263 -112 304 -112 Q348 -112 381 -92.5 Q414 -73 432 -37.5 Q450 -2 450 46 L450 96 Q422 56 378 33 Q334 10 280 10 Z M304 114 Q346 114 379.5 135 Q413 156 432.5 192 Q452 228 452 274 Q452 320 432.5 356 Q413 392 379.5 413 Q346 434 304 434 Q262 434 229 413 Q196 392 176.5 356 Q157 320 157 274 Q157 228 176.5 192 Q196 156 229 135 Q262 114 304 114 Z M303 600 Q260 600 225.5 616.5 Q191 633 169 662.5 Q147 692 140 733 L232 733 Q239 704 257.5 690 Q276 676 303 676 Q330 676 348.5 690 Q367 704 374 733 L466 733 Q459 692 437 662.5 Q415 633 380.5 616.5 Q346 600 303 600 Z " />
<glyph glyph-name="uni0307" unicode="&#x307;" d="M70 669 Q70 650 60.5 634 Q51 618 35.5 608.5 Q20 599 0 599 Q-20 599 -35.5 608.5 Q-51 618 -60.5 634 Q-70 650 -70 669 Q-70 688 -60.5 704 Q-51 720 -35.5 729.5 Q-20 739 0 739 Q20 739 35.5 729.5 Q51 720 60.5 704 Q70 688 70 669 Z " />
<glyph glyph-name="uni02D9" unicode="&#x2d9;" horiz-adv-x="587" d="M363 669 Q363 650 353.5 634 Q344 618 328.5 608.5 Q313 599 293 599 Q273 599 257.5 608.5 Q242 618 232.5 634 Q223 650 223 669 Q223 688 232.5 704 Q242 720 257.5 729.5 Q273 739 293 739 Q313 739 328.5 729.5 Q344 720 353.5 704 Q363 688 363 669 Z " />
<glyph glyph-name="uni0323" unicode="&#x323;" d="M70 -148 Q70 -168 60.5 -183.5 Q51 -199 35.5 -208.5 Q20 -218 0 -218 Q-20 -218 -35.5 -208.5 Q-51 -199 -60.5 -183.5 Q-70 -168 -70 -148 Q-70 -128 -60.5 -112.5 Q-51 -97 -35.5 -87.5 Q-20 -78 0 -78 Q20 -78 35.5 -87.5 Q51 -97 60.5 -112.5 Q70 -128 70 -148 Z " />
<glyph glyph-name="uni0116" unicode="&#x116;" horiz-adv-x="568" d="M70 0 L70 710 L500 710 L500 605 L190 605 L190 419 L470 419 L470 314 L190 314 L190 105 L510 105 L510 0 L70 0 Z M285 779 Q265 779 248.5 788.5 Q232 798 222.5 814.5 Q213 831 213 851 Q213 871 222.5 887 Q232 903 248.5 912.5 Q265 922 285 922 Q305 922 321.5 912.5 Q338 903 347.5 887 Q357 871 357 851 Q357 831 347.5 814.5 Q338 798 321.5 788.5 Q305 779 285 779 Z " />
<glyph glyph-name="uni0130" unicode="&#x130;" horiz-adv-x="262" d="M70 0 L70 710 L192 710 L192 0 L70 0 Z M131 779 Q111 779 94.5 788.5 Q78 798 68.5 814.5 Q59 831 59 851 Q59 871 68.5 887 Q78 903 94.5 912.5 Q111 922 131 922 Q151 922 167.5 912.5 Q184 903 193.5 887 Q203 871 203 851 Q203 831 193.5 814.5 Q184 798 167.5 788.5 Q151 779 131 779 Z " />
<glyph glyph-name="uni010A" unicode="&#x10a;" horiz-adv-x="733" d="M393 -20 Q318 -20 254.5 7.5 Q191 35 144.5 85 Q98 135 72 202.5 Q46 270 46 350 Q46 414 63 471.5 Q80 529 111.5 576.5 Q143 624 186 658.5 Q229 693 281.5 711.5 Q334 730 393 730 Q462 730 521.5 705.5 Q581 681 624.5 636.5 Q668 592 690 531 L573 498 Q547 555 499.5 586.5 Q452 618 392 618 Q345 618 305 598 Q265 578 235 542 Q205 506 188.5 457 Q172 408 172 351 Q172 294 188.5 246.5 Q205 199 234.5 164.5 Q264 130 304.5 111 Q345 92 394 92 Q456 92 503.5 123 Q551 154 580 212 L697 179 Q674 118 630 73 Q586 28 525 4 Q464 -20 393 -20 Z M392 779 Q372 779 355.5 788.5 Q339 798 329.5 814.5 Q320 831 320 851 Q320 871 329.5 887 Q339 903 355.5 912.5 Q372 922 392 922 Q412 922 428.5 912.5 Q445 903 454.5 887 Q464 871 464 851 Q464 831 454.5 814.5 Q445 798 428.5 788.5 Q412 779 392 779 Z " />
<glyph glyph-name="uni0120" unicode="&#x120;" horiz-adv-x="786" d="M404 -20 Q342 -20 287.5 -2 Q233 16 189 49.5 Q145 83 113 129 Q81 175 63.5 231.5 Q46 288 46 353 Q46 418 63.5 475 Q81 532 113.5 579 Q146 626 190.5 659.5 Q235 693 289.5 711.5 Q344 730 406 730 Q473 730 531.5 708 Q590 686 635 645 Q680 604 706 548 L590 509 Q561 561 513.5 589.5 Q466 618 406 618 Q356 618 313.5 598 Q271 578 239 542.5 Q207 507 189.5 459 Q172 411 172 355 Q172 298 189.5 249.5 Q207 201 239 166 Q271 131 314.5 111.5 Q358 92 409 92 Q468 92 513.5 115.5 Q559 139 586 181 Q613 223 617 279 L423 279 L423 381 L742 381 L742 314 Q742 240 717.5 179 Q693 118 647.5 73.5 Q602 29 540.5 4.5 Q479 -20 404 -20 Z M412 779 Q392 779 375.5 788.5 Q359 798 349.5 814.5 Q340 831 340 851 Q340 871 349.5 887 Q359 903 375.5 912.5 Q392 922 412 922 Q432 922 448.5 912.5 Q465 903 474.5 887 Q484 871 484 851 Q484 831 474.5 814.5 Q465 798 448.5 788.5 Q432 779 412 779 Z " />
<glyph glyph-name="uni017B" unicode="&#x17b;" horiz-adv-x="630" d="M41 0 L41 88 L418 606 L56 606 L56 710 L569 710 L569 622 L192 104 L591 104 L591 0 L41 0 Z M312 779 Q292 779 275.5 788.5 Q259 798 249.5 814.5 Q240 831 240 851 Q240 871 249.5 887 Q259 903 275.5 912.5 Q292 922 312 922 Q332 922 348.5 912.5 Q365 903 374.5 887 Q384 871 384 851 Q384 831 374.5 814.5 Q365 798 348.5 788.5 Q332 779 312 779 Z " />
<glyph glyph-name="uni1E24" unicode="&#x1e24;" horiz-adv-x="731" d="M70 0 L70 710 L192 710 L192 422 L539 422 L539 710 L661 710 L661 0 L539 0 L539 313 L192 313 L192 0 L70 0 Z M366 -226 Q346 -226 329.5 -216.5 Q313 -207 303.5 -190.5 Q294 -174 294 -154 Q294 -134 303.5 -118 Q313 -102 329.5 -92.5 Q346 -83 366 -83 Q386 -83 402.5 -92.5 Q419 -102 428.5 -118 Q438 -134 438 -154 Q438 -174 428.5 -190.5 Q419 -207 402.5 -216.5 Q386 -226 366 -226 Z " />
<glyph glyph-name="uni1E36" unicode="&#x1e36;" horiz-adv-x="536" d="M70 0 L70 710 L192 710 L192 109 L493 109 L493 0 L70 0 Z M281 -226 Q261 -226 244.5 -216.5 Q228 -207 218.5 -190.5 Q209 -174 209 -154 Q209 -134 218.5 -118 Q228 -102 244.5 -92.5 Q261 -83 281 -83 Q301 -83 317.5 -92.5 Q334 -102 343.5 -118 Q353 -134 353 -154 Q353 -174 343.5 -190.5 Q334 -207 317.5 -216.5 Q301 -226 281 -226 Z " />
<glyph glyph-name="uni0117" unicode="&#x117;" horiz-adv-x="581" d="M305 -15 Q247 -15 198.5 5.5 Q150 26 114 63 Q78 100 58.5 150.5 Q39 201 39 262 Q39 321 58.5 371 Q78 421 112.5 458.5 Q147 496 194 517 Q241 538 296 538 Q351 538 396.5 518.5 Q442 499 475.5 463 Q509 427 527 377.5 Q545 328 545 268 L545 234 L158 234 Q163 188 182.5 154.5 Q202 121 233 103 Q264 85 305 85 Q387 85 433 158 L534 119 Q516 78 481.5 47.5 Q447 17 401.5 1 Q356 -15 305 -15 Z M296 445 Q261 445 233.5 429 Q206 413 187 384 Q168 355 161 316 L425 316 Q419 355 402 384 Q385 413 357.5 429 Q330 445 296 445 Z M366 669 Q366 650 356.5 634 Q347 618 331.5 608.5 Q316 599 296 599 Q276 599 260.5 608.5 Q245 618 235.5 634 Q226 650 226 669 Q226 688 235.5 704 Q245 720 260.5 729.5 Q276 739 296 739 Q316 739 331.5 729.5 Q347 720 356.5 704 Q366 688 366 669 Z " />
<glyph glyph-name="uni010B" unicode="&#x10b;" horiz-adv-x="561" d="M298 -15 Q242 -15 195 5.5 Q148 26 113 62.5 Q78 99 58.5 149 Q39 199 39 258 Q39 317 59 368 Q79 419 114 457 Q149 495 196.5 516.5 Q244 538 300 538 Q354 538 399 518.5 Q444 499 476.5 463.5 Q509 428 523 380 L414 354 Q397 392 366.5 413 Q336 434 298 434 Q258 434 226 411 Q194 388 175.5 348.5 Q157 309 157 259 Q157 210 175 171.5 Q193 133 224.5 111 Q256 89 298 89 Q338 89 371 109.5 Q404 130 420 168 L528 143 Q514 95 480 59.5 Q446 24 399 4.5 Q352 -15 298 -15 Z M370 669 Q370 650 360.5 634 Q351 618 335.5 608.5 Q320 599 300 599 Q280 599 264.5 608.5 Q249 618 239.5 634 Q230 650 230 669 Q230 688 239.5 704 Q249 720 264.5 729.5 Q280 739 300 739 Q320 739 335.5 729.5 Q351 720 360.5 704 Q370 688 370 669 Z " />
<glyph glyph-name="uni0121" unicode="&#x121;" horiz-adv-x="627" d="M280 10 Q229 10 185 30 Q141 50 108 85.5 Q75 121 57 168.5 Q39 216 39 272 Q39 328 57.5 376.5 Q76 425 110 461 Q144 497 189 517.5 Q234 538 286 538 Q340 538 384.5 514.5 Q429 491 456 449 L460 523 L565 523 L565 55 Q565 -5 546 -54.5 Q527 -104 492 -139.5 Q457 -175 408.5 -194 Q360 -213 300 -213 Q220 -213 160 -177 Q100 -141 66 -77 L175 -39 Q197 -75 230 -93.5 Q263 -112 304 -112 Q348 -112 381 -92.5 Q414 -73 432 -37.5 Q450 -2 450 46 L450 96 Q422 56 378 33 Q334 10 280 10 Z M304 114 Q346 114 379.5 135 Q413 156 432.5 192 Q452 228 452 274 Q452 320 432.5 356 Q413 392 379.5 413 Q346 434 304 434 Q262 434 229 413 Q196 392 176.5 356 Q157 320 157 274 Q157 228 176.5 192 Q196 156 229 135 Q262 114 304 114 Z M373 669 Q373 650 363.5 634 Q354 618 338.5 608.5 Q323 599 303 599 Q283 599 267.5 608.5 Q252 618 242.5 634 Q233 650 233 669 Q233 688 242.5 704 Q252 720 267.5 729.5 Q283 739 303 739 Q323 739 338.5 729.5 Q354 720 363.5 704 Q373 688 373 669 Z " />
<glyph glyph-name="uni017C" unicode="&#x17c;" horiz-adv-x="513" d="M41 0 L41 76 L313 430 L48 430 L48 523 L455 523 L455 447 L183 93 L472 93 L472 0 L41 0 Z M321 669 Q321 650 311.5 634 Q302 618 286.5 608.5 Q271 599 251 599 Q231 599 215.5 608.5 Q200 618 190.5 634 Q181 650 181 669 Q181 688 190.5 704 Q200 720 215.5 729.5 Q231 739 251 739 Q271 739 286.5 729.5 Q302 720 311.5 704 Q321 688 321 669 Z " />
<glyph glyph-name="uni1E25" unicode="&#x1e25;" horiz-adv-x="587" d="M62 0 L62 744 L177 744 L177 460 Q201 496 241 517 Q281 538 331 538 Q390 538 433.5 510 Q477 482 501 431 Q525 380 525 311 L525 0 L410 0 L410 298 Q410 362 381.5 398 Q353 434 302 434 Q266 434 237.5 417 Q209 400 193 371 Q177 342 177 304 L177 0 L62 0 Z M363 -148 Q363 -168 353.5 -183.5 Q344 -199 328.5 -208.5 Q313 -218 293 -218 Q273 -218 257.5 -208.5 Q242 -199 232.5 -183.5 Q223 -168 223 -148 Q223 -128 232.5 -112.5 Q242 -97 257.5 -87.5 Q273 -78 293 -78 Q313 -78 328.5 -87.5 Q344 -97 353.5 -112.5 Q363 -128 363 -148 Z " />
<glyph glyph-name="uni1E37" unicode="&#x1e37;" horiz-adv-x="239" d="M62 0 L62 744 L177 744 L177 0 L62 0 Z M188 -148 Q188 -168 178.5 -183.5 Q169 -199 153.5 -208.5 Q138 -218 118 -218 Q98 -218 82.5 -208.5 Q67 -199 57.5 -183.5 Q48 -168 48 -148 Q48 -128 57.5 -112.5 Q67 -97 82.5 -87.5 Q98 -78 118 -78 Q138 -78 153.5 -87.5 Q169 -97 178.5 -112.5 Q188 -128 188 -148 Z " />
<glyph glyph-name="uni030A" unicode="&#x30a;" d="M0 574 Q-30 574 -54.5 588 Q-79 602 -93.5 625.5 Q-108 649 -108 678 Q-108 707 -93.5 730.5 Q-79 754 -54.5 768 Q-30 782 0 782 Q30 782 54.5 768 Q79 754 93.5 730.5 Q108 707 108 678 Q108 649 93.5 625.5 Q79 602 54.5 588 Q30 574 0 574 Z M0 631 Q19 631 32.5 644.5 Q46 658 46 678 Q46 698 32.5 711.5 Q19 725 0 725 Q-19 725 -32.5 711.5 Q-46 698 -46 678 Q-46 658 -32.5 644.5 Q-19 631 0 631 Z " />
<glyph glyph-name="uni02DA" unicode="&#x2da;" horiz-adv-x="587" d="M293 574 Q263 574 238.5 588 Q214 602 199.5 625.5 Q185 649 185 678 Q185 707 199.5 730.5 Q214 754 238.5 768 Q263 782 293 782 Q323 782 347.5 768 Q372 754 386.5 730.5 Q401 707 401 678 Q401 649 386.5 625.5 Q372 602 347.5 588 Q323 574 293 574 Z M293 631 Q312 631 325.5 644.5 Q339 658 339 678 Q339 698 325.5 711.5 Q312 725 293 725 Q274 725 260.5 711.5 Q247 698 247 678 Q247 658 260.5 644.5 Q274 631 293 631 Z " />
<glyph glyph-name="uni00C5" unicode="&#xc5;" horiz-adv-x="735" d="M19 0 L302 710 L432 710 L716 0 L590 0 L523 176 L207 176 L140 0 L19 0 Z M247 280 L483 280 L365 587 L247 280 Z M367 751 Q336 751 311 765 Q286 779 271.5 803.5 Q257 828 257 857 Q257 886 271.5 910.5 Q286 935 311 949 Q336 963 367 963 Q398 963 423 949 Q448 935 462.5 910.5 Q477 886 477 857 Q477 828 462.5 803.5 Q448 779 423 765 Q398 751 367 751 Z M367 811 Q385 811 398.5 824.5 Q412 838 412 857 Q412 876 398.5 889.5 Q385 903 367 903 Q349 903 335.5 889.5 Q322 876 322 857 Q322 838 335.5 824.5 Q349 811 367 811 Z " />
<glyph glyph-name="uni016E" unicode="&#x16e;" horiz-adv-x="716" d="M356 -20 Q288 -20 234 1 Q180 22 141.5 62 Q103 102 82.5 157.5 Q62 213 62 282 L62 710 L184 710 L184 287 Q184 227 205.5 183.5 Q227 140 266 116 Q305 92 358 92 Q411 92 450 116 Q489 140 510.5 183.5 Q532 227 532 287 L532 710 L654 710 L654 282 Q654 213 633 157.5 Q612 102 572.5 62.5 Q533 23 478.5 1.5 Q424 -20 356 -20 Z M358 751 Q327 751 302 765 Q277 779 262.5 803.5 Q248 828 248 857 Q248 886 262.5 910.5 Q277 935 302 949 Q327 963 358 963 Q389 963 414 949 Q439 935 453.5 910.5 Q468 886 468 857 Q468 828 453.5 803.5 Q439 779 414 765 Q389 751 358 751 Z M358 811 Q376 811 389.5 824.5 Q403 838 403 857 Q403 876 389.5 889.5 Q376 903 358 903 Q340 903 326.5 889.5 Q313 876 313 857 Q313 838 326.5 824.5 Q340 811 358 811 Z " />
<glyph glyph-name="uni00E5" unicode="&#xe5;" horiz-adv-x="554" d="M222 -15 Q182 -15 148.5 -3 Q115 9 90 31 Q65 53 51 83 Q37 113 37 149 Q37 199 63.5 236.5 Q90 274 138 295 Q186 316 250 316 Q285 316 317 309.5 Q349 303 378 291 L378 324 Q378 359 365 385.5 Q352 412 328 427 Q304 442 270 442 Q234 442 205 423 Q176 404 162 370 L56 394 Q68 438 99.5 470 Q131 502 175.5 520 Q220 538 272 538 Q321 538 361.5 522 Q402 506 431 477 Q460 448 476 408 Q492 368 492 319 L492 0 L387 0 L383 69 Q362 31 320 8 Q278 -15 222 -15 Z M153 154 Q153 132 165 114.5 Q177 97 198.5 87 Q220 77 249 77 Q286 77 315 93 Q344 109 361 136.5 Q378 164 378 199 L378 211 Q352 222 324.5 228.5 Q297 235 268 235 Q216 235 184.5 213 Q153 191 153 154 Z M274 574 Q244 574 219.5 588 Q195 602 180.5 625.5 Q166 649 166 678 Q166 707 180.5 730.5 Q195 754 219.5 768 Q244 782 274 782 Q304 782 328.5 768 Q353 754 367.5 730.5 Q382 707 382 678 Q382 649 367.5 625.5 Q353 602 328.5 588 Q304 574 274 574 Z M274 631 Q293 631 306.5 644.5 Q320 658 320 678 Q320 698 306.5 711.5 Q293 725 274 725 Q255 725 241.5 711.5 Q228 698 228 678 Q228 658 241.5 644.5 Q255 631 274 631 Z " />
<glyph glyph-name="uni016F" unicode="&#x16f;" horiz-adv-x="586" d="M292 -15 Q222 -15 170.5 15 Q119 45 90.5 100.5 Q62 156 62 231 L62 523 L177 523 L177 229 Q177 164 208 126.5 Q239 89 293 89 Q347 89 378 126.5 Q409 164 409 229 L409 523 L524 523 L524 231 Q524 157 495.5 101.5 Q467 46 415 15.5 Q363 -15 292 -15 Z M292 574 Q262 574 237.5 588 Q213 602 198.5 625.5 Q184 649 184 678 Q184 707 198.5 730.5 Q213 754 237.5 768 Q262 782 292 782 Q322 782 346.5 768 Q371 754 385.5 730.5 Q400 707 400 678 Q400 649 385.5 625.5 Q371 602 346.5 588 Q322 574 292 574 Z M292 631 Q311 631 324.5 644.5 Q338 658 338 678 Q338 698 324.5 711.5 Q311 725 292 725 Q273 725 259.5 711.5 Q246 698 246 678 Q246 658 259.5 644.5 Q273 631 292 631 Z " />
<glyph glyph-name="uniFEFF" unicode="&#xfeff;" d="" />
<glyph glyph-name="uniFFFD" unicode="&#xfffd;" horiz-adv-x="808" d="M404 -34 L15 355 L404 744 L793 355 L404 -34 Z M364 240 L432 240 L432 301 Q488 318 518.5 354 Q549 390 549 438 Q549 474 530 503 Q511 532 478.5 549 Q446 566 404 566 Q367 566 336 552.5 Q305 539 284 514.5 Q263 490 255 458 L322 441 Q330 470 351 486.5 Q372 503 401 503 Q433 503 453.5 483 Q474 463 474 432 Q474 398 446.5 373.5 Q419 349 364 336 L364 240 Z M398 106 Q417 106 430.5 119 Q444 132 444 151 Q444 170 431 183.5 Q418 197 398 197 Q379 197 366 184 Q353 171 353 151 Q353 132 366 119 Q379 106 398 106 Z " />
<glyph glyph-name="uF0001" unicode="&#xf0001;" horiz-adv-x="742" d="M711 219 Q726 178 720 138 Q716 110 702.5 85 Q689 60 667.5 41 Q646 22 620 12 Q590 0 557 0 Q552 0 546.5 0.5 Q541 1 536 1 Q499 5 459 27 Q437 39 415.5 56.5 Q394 74 371 98 Q348 74 326.5 56.5 Q305 39 283 27 Q245 5 206 1 Q201 1 196 0.5 Q191 0 186 0 Q153 0 123 12 Q82 28 55 62 Q28 96 22 138 Q16 178 31 219 Q33 226 35.5 232 Q38 238 42 246 Q46 254 49.5 262 Q53 270 59 283 Q98 366 139 447.5 Q180 529 223 611 L225 615 Q230 623 232 627.5 Q234 632 237 637 L243 649 Q251 663 257.5 672.5 Q264 682 271 690 Q311 736 371 736 Q400 736 426 724 Q452 712 471 690 Q478 682 484.5 672.5 Q491 663 499 649 Q503 642 506.5 634.5 Q510 627 517 615 L519 611 Q562 529 603 447.5 Q644 366 682 284 L700 246 Q704 238 706.5 231.5 Q709 225 711 219 Z M659 147 Q663 171 653 199 Q651 204 649 209 Q647 214 643 221 Q642 224 641 226.5 Q640 229 638 232 Q637 235 635.5 238 Q634 241 633 245 Q632 247 630.5 249.5 Q629 252 627 258 Q588 339 547.5 420.5 Q507 502 464 583 L461 588 Q457 596 455.5 598 Q454 600 453 604 Q451 608 448.5 612 Q446 616 444 620 Q438 631 433.5 638 Q429 645 424 651 Q403 675 371 675 Q339 675 318 651 Q313 645 308.5 638 Q304 631 298 620 Q296 616 293.5 612 Q291 608 289 603 Q287 600 285.5 597 Q284 594 280 587 L278 583 Q235 503 194.5 421 Q154 339 116 259 Q109 246 105.5 237 Q102 228 98 221 Q95 214 92.5 209 Q90 204 89 199 Q79 171 83 147 Q87 121 103.5 100 Q120 79 146 69 Q158 64 172 62 Q186 60 199 62 Q225 65 252 80 Q271 90 290 106 Q309 122 330 144 Q296 187 273.5 226.5 Q251 266 243 302 Q235 335 240 366 Q245 396 261 418 Q279 444 308 458.5 Q337 473 371 473 Q405 473 434 458.5 Q463 444 481 418 Q497 396 502 366 Q507 335 499 302 Q491 266 468.5 226.5 Q446 187 412 144 Q433 122 452 106 Q471 90 490 80 Q517 65 543 62 Q556 60 569.5 62 Q583 64 596 69 Q622 79 638.5 100 Q655 121 659 147 Z M371 191 Q426 261 438 315 Q444 338 441 357 Q440 364 437 371 Q434 378 430 384 Q421 397 405.5 404.5 Q390 412 371 412 Q352 412 336.5 404.5 Q321 397 312 384 Q308 378 305 371 Q302 364 301 357 Q298 338 304 315 Q316 261 371 191 Z " />
<glyph glyph-name="uF0002" unicode="&#xf0002;" horiz-adv-x="614" d="M591 460 Q598 446 590 434 L283 26 Q272 11 259.5 0.5 Q247 -10 234 -5 Q223 -1 218.5 11 Q214 23 215 41 Q216 55 218 77.5 Q220 100 222 125.5 Q224 151 226.5 175.5 Q229 200 230.5 219.5 Q232 239 233 248 Q234 261 231.5 267.5 Q229 274 217 273 L47 259 Q40 258 33.5 261.5 Q27 265 23 271 Q16 285 24 297 L331 705 Q342 720 354.5 730 Q367 740 380 736 Q391 732 395.5 720 Q400 708 399 690 Q398 676 396 653.5 Q394 631 392 605 Q390 579 387.5 554 Q385 529 383.5 510 Q382 491 381 482 Q380 469 382 463 Q384 457 396 458 L567 472 Q574 472 580.5 469 Q587 466 591 460 Z " />
<glyph glyph-name="uF0003" unicode="&#xf0003;" horiz-adv-x="482" d="M449 550 L263 393 Q253 387 241 387 Q229 387 219 393 L33 550 Q20 560 20 573 L20 726 Q20 730 24 733 Q28 736 33 736 L449 736 Q454 736 458 733 Q462 730 462 726 L462 573 Q462 560 449 550 Z M241 0 Q206 0 175.5 13 Q145 26 122 49 Q99 72 86 102.5 Q73 133 73 168 Q73 203 86 233.5 Q99 264 122 287.5 Q145 311 175.5 324 Q206 337 241 337 Q276 337 306.5 324 Q337 311 360 287.5 Q383 264 396 233.5 Q409 203 409 168 Q409 133 396 102.5 Q383 72 360 49 Q337 26 306.5 13 Q276 0 241 0 Z " />
<glyph glyph-name="uF0004" unicode="&#xf0004;" horiz-adv-x="800" d="M707 472 Q749 471 767 457.5 Q785 444 778.5 423 Q772 402 738 377 L584 261 L640 77 Q652 37 645 16 Q638 -5 616 -5 Q594 -5 559 19 L400 128 L242 19 Q207 -5 184.5 -5 Q162 -5 155 16 Q148 37 161 77 L217 261 L63 377 Q30 402 22.5 423 Q15 444 33.5 457.5 Q52 471 94 472 L287 475 L350 657 Q364 696 382 709.5 Q400 723 418 709.5 Q436 696 450 657 L514 475 L707 472 Z " />
<glyph glyph-name="uF0005" unicode="&#xf0005;" horiz-adv-x="800" d="M351 657 Q362 686 375 701 Q388 716 401 716 L401 129 L242 19 Q208 -5 185 -5 Q162 -5 155 16 Q148 37 161 77 L217 261 L63 377 Q29 402 22 423 Q15 444 33.5 457.5 Q52 471 94 472 L287 475 L351 657 Z " />
<glyph glyph-name="uF0006" unicode="&#xf0006;" horiz-adv-x="800" d="M707 472 Q749 471 767 458 Q785 445 778.5 423.5 Q772 402 738 377 L584 261 L640 77 Q652 37 645 16 Q638 -5 616 -5 Q594 -5 559 19 L400 129 L242 19 Q207 -5 184.5 -5 Q162 -5 155 16 Q148 37 161 77 L217 261 L63 377 Q29 402 22 423 Q15 444 33.5 457.5 Q52 471 94 472 L287 475 L350 657 Q364 696 382 709.5 Q400 723 418 709.5 Q436 696 450 657 L514 475 L707 472 Z M496 290 L638 397 L459 401 L400 570 L341 401 L162 397 L305 290 L253 119 L400 221 L548 119 L496 290 Z " />
<glyph glyph-name="uF0007" unicode="&#xf0007;" horiz-adv-x="704" d="M526 572 Q538 572 557.5 567 Q577 562 599 550.5 Q621 539 640.5 518 Q660 497 672 465.5 Q684 434 684 390 Q684 353 669.5 316 Q655 279 630.5 243.5 Q606 208 575.5 175 Q545 142 512.5 113.5 Q480 85 450.5 62 Q421 39 398.5 22.5 Q376 6 364 -1 Q359 -5 352 -5 Q345 -5 340 -1 Q328 7 305.5 23 Q283 39 253.5 62 Q224 85 191.5 113.5 Q159 142 128.5 175 Q98 208 73.5 243.5 Q49 279 34.5 316 Q20 353 20 390 Q20 434 32 465.5 Q44 497 63.5 518 Q83 539 105 550.5 Q127 562 146.5 567 Q166 572 178 572 Q182 572 187 572 Q192 572 197 571 Q216 569 234.5 562.5 Q253 556 272 546 Q292 535 311.5 519.5 Q331 504 352 482 Q373 504 392.5 519.5 Q412 535 432 546 Q451 556 469.5 562.5 Q488 569 506 571 Q511 572 516.5 572 Q522 572 526 572 Z " />
<glyph glyph-name="uF0008" unicode="&#xf0008;" horiz-adv-x="929" d="M761 0 L168 0 L168 556 Q192 556 210 558 Q228 560 242 574 Q242 574 246 577.5 Q250 581 258 593.5 Q266 606 279 633 Q295 667 306.5 688 Q318 709 329.5 720.5 Q341 732 355 736.5 Q369 741 390 741 L539 741 Q560 741 574 736.5 Q588 732 599.5 720.5 Q611 709 622.5 688 Q634 667 650 633 Q663 606 671 593.5 Q679 581 683 577.5 Q687 574 687 574 Q700 560 718.5 558 Q737 556 761 556 L761 0 Z M409 556 L520 556 Q530 556 543 556 Q556 556 567.5 558 Q579 560 585 566 Q591 572 587 584 L561 642 Q557 652 552.5 659.5 Q548 667 539 667 L390 667 Q381 667 376.5 659.5 Q372 652 368 642 L342 584 Q338 572 344 566 Q350 560 361.5 558 Q373 556 386 556 Q399 556 409 556 Z M131 0 L57 0 Q48 0 39.5 5.5 Q31 11 25.5 19.5 Q20 28 20 37 L20 519 Q20 534 32 545 Q44 556 57 556 L131 556 L131 0 Z M798 556 L872 556 Q886 556 897.5 545 Q909 534 909 519 L909 37 Q909 28 903.5 19.5 Q898 11 889.5 5.5 Q881 0 872 0 L798 0 L798 556 Z " />
<glyph glyph-name="uF0009" unicode="&#xf0009;" horiz-adv-x="800" d="M706 472 Q748 471 766.5 458 Q785 445 778 423.5 Q771 402 737 377 L584 261 L640 77 Q652 37 645 16 Q638 -5 615.5 -5 Q593 -5 558 19 L400 129 L242 19 Q207 -5 184.5 -5 Q162 -5 155 16 Q148 37 161 77 L216 261 L63 377 Q29 402 22 423 Q15 444 33.5 457.5 Q52 471 94 472 L287 475 L350 657 Q364 696 382 709.5 Q400 723 418 709.5 Q436 696 450 657 L513 475 L706 472 Z M638 397 L459 401 L400 570 L400 221 L547 119 L495 290 L638 397 Z " />
<glyph glyph-name="uF0010" unicode="&#xf0010;" horiz-adv-x="609" d="M589 451 Q590 410 577 365.5 Q564 321 541 277.5 Q518 234 489 193 Q460 152 430.5 116 Q401 80 375 52 Q349 24 331 6 Q320 -5 304.5 -5 Q289 -5 278 6 Q260 24 234 52 Q208 80 178.5 116 Q149 152 120 193 Q91 234 68 277.5 Q45 321 31.5 365.5 Q18 410 20 451 Q20 498 34.5 540.5 Q49 583 75 618.5 Q101 654 136.5 680 Q172 706 214.5 720.5 Q257 735 304 735 Q351 735 393.5 720.5 Q436 706 472 680 Q508 654 534 618.5 Q560 583 574.5 540.5 Q589 498 589 451 Z M304 335 Q336 335 362.5 350.5 Q389 366 404.5 392.5 Q420 419 420 451 Q420 482 404.5 508.5 Q389 535 362.5 550.5 Q336 566 304 566 Q272 566 246 550.5 Q220 535 204.5 508.5 Q189 482 189 451 Q189 419 204.5 392.5 Q220 366 246 350.5 Q272 335 304 335 Z " />
<glyph glyph-name="uF0011" unicode="&#xf0011;" horiz-adv-x="1539" d="M797 360 L650 17 Q646 10 639 5 Q632 0 624 0 L48 0 Q37 0 28.5 8.5 Q20 17 20 28 L20 707 Q20 719 28.5 727.5 Q37 736 48 736 L624 736 Q632 736 639 731 Q646 726 650 719 L797 376 Q800 368 797 360 Z M1519 712 L1519 24 Q1519 14 1512.5 7 Q1506 0 1496 0 L739 0 Q734 0 731 4.5 Q728 9 730 14 L878 360 Q881 368 878 376 L730 722 Q728 727 731 731.5 Q734 736 739 736 L1496 736 Q1506 736 1512.5 729 Q1519 722 1519 712 Z M1407 563 Q1406 576 1396 584 Q1386 592 1373 592 L1214 592 Q1209 592 1209 597 L1209 630 Q1209 643 1201 652.5 Q1193 662 1180 664 Q1166 666 1155 656 Q1144 646 1144 632 L1144 597 Q1144 592 1139 592 L980 592 Q967 592 957.5 584 Q948 576 946 563 Q944 549 954 538 Q964 527 978 527 L1025 527 Q1031 527 1031 522 Q1034 494 1044 455.5 Q1054 417 1074 372.5 Q1094 328 1130 284 Q1132 282 1132 280.5 Q1132 279 1130 278 Q1104 254 1070.5 232 Q1037 210 995 192 Q984 187 978 176 Q972 165 975 154 Q978 143 987 136 Q996 129 1007 129 Q1012 129 1020 132 Q1067 153 1105.5 178 Q1144 203 1173 231 Q1176 234 1180 231 Q1198 214 1219.5 198 Q1241 182 1266 167 L1282 158 Q1294 151 1307 144.5 Q1320 138 1334 132 Q1340 129 1346 129 Q1356 129 1365.5 136 Q1375 143 1378 154 Q1381 165 1375 176 Q1369 187 1358 192 Q1337 201 1318 211.5 Q1299 222 1282 233 Q1278 235 1274 238 Q1270 241 1266 244 Q1242 261 1223 278 Q1221 280 1223 284 Q1236 300 1246.5 316 Q1257 332 1266 348 Q1270 356 1274 364 Q1278 372 1282 380 Q1302 422 1310.5 459 Q1319 496 1322 522 Q1322 527 1328 527 L1375 527 Q1389 527 1398.5 538 Q1408 549 1407 563 Z M564 167 L454 562 Q450 576 439 584 Q428 592 414 592 L313 592 Q299 592 288 584 Q277 576 273 562 L162 168 Q159 157 163.5 145.5 Q168 134 179 129 Q186 126 193 126 Q204 126 212.5 133 Q221 140 224 150 L263 289 Q265 296 272 296 L454 296 Q461 296 463 288 L502 151 Q505 140 514.5 132.5 Q524 125 536 126 Q552 128 560 140.5 Q568 153 564 167 Z M399 520 L441 368 Q442 365 440 362.5 Q438 360 435 360 L292 360 Q288 360 286 362.5 Q284 365 285 368 L329 520 Q331 527 338 527 L389 527 Q396 527 399 520 Z M1258 521 Q1254 495 1246 464 Q1238 433 1222 399.5 Q1206 366 1181 333 Q1180 332 1177 332 Q1174 332 1173 333 Q1136 383 1119 432.5 Q1102 482 1097 521 Q1097 527 1103 527 L1251 527 Q1258 527 1258 521 Z " />
<glyph glyph-name="uF0012" unicode="&#xf0012;" horiz-adv-x="714" d="M665 656 Q677 656 685.5 648 Q694 640 694 628 L694 28 Q694 17 685.5 8.5 Q677 0 665 0 L49 0 Q37 0 28.5 8.5 Q20 17 20 28 L20 628 Q20 640 28.5 648 Q37 656 49 656 L123 656 Q129 656 133.5 660.5 Q138 665 138 671 L138 728 Q138 747 151 760 Q164 773 183 773 Q202 773 215.5 760 Q229 747 229 728 L229 671 Q229 665 233 660.5 Q237 656 243 656 L466 656 Q472 656 476 660.5 Q480 665 480 671 L480 728 Q480 747 493.5 760 Q507 773 526 773 Q545 773 558 760 Q571 747 571 728 L571 671 Q571 665 575.5 660.5 Q580 656 586 656 L665 656 Z M169 119 L545 119 Q558 119 564 120.5 Q570 122 571.5 129 Q573 136 573 153 L573 364 Q573 381 572 388 Q571 395 564.5 396.5 Q558 398 544 398 L170 398 Q156 398 149.5 396.5 Q143 395 142 388 Q141 381 141 364 L141 153 Q141 136 142 129 Q143 122 149 120.5 Q155 119 169 119 Z " />
<glyph glyph-name="uF0013" unicode="&#xf0013;" horiz-adv-x="1216" d="M387 419 L137 136 Q125 122 108 116.5 Q91 111 73.5 114.5 Q56 118 43 130 Q29 142 23.5 159 Q18 176 21 193 Q24 210 37 224 L287 508 Q308 532 336 545.5 Q364 559 394 561 Q424 563 453.5 553 Q483 543 507 522 Q513 517 518.5 511 Q524 505 529 498 L714 250 Q720 242 729 241 Q738 240 746 245 Q747 246 748 247 Q749 248 750 250 L926 485 L784 485 Q766 485 750.5 494 Q735 503 726 518.5 Q717 534 717 552 Q717 570 726 585.5 Q735 601 750.5 610 Q766 619 784 619 L1055 619 Q1078 619 1096 605.5 Q1114 592 1120 570 L1194 304 Q1198 286 1193.5 269 Q1189 252 1177 239.5 Q1165 227 1147 222 Q1129 217 1112 221.5 Q1095 226 1082 238 Q1069 250 1064 268 L1028 399 L857 170 Q850 161 842.5 153 Q835 145 826 138 Q800 118 770 111 Q740 104 710 108.5 Q680 113 653 128.5 Q626 144 607 170 L419 421 Q412 427 402.5 426.5 Q393 426 387 419 Z " />
<glyph glyph-name="uF0014" unicode="&#xf0014;" horiz-adv-x="691" d="M377 176 L377 132 Q377 124 384 124 L408 124 Q421 124 430 115 Q439 106 439 93 L439 70 Q439 67 441 64.5 Q443 62 446 62 L454 62 Q467 62 476 53 Q485 44 485 31 Q485 18 476 9 Q467 0 454 0 L237 0 Q224 0 215 9 Q206 18 206 31 Q206 44 215 53 Q224 62 237 62 L245 62 Q248 62 250.5 64.5 Q253 67 253 70 L253 93 Q253 106 261.5 115 Q270 124 284 124 L307 124 Q310 124 312.5 126 Q315 128 315 132 L315 176 Q315 181 311 185.5 Q307 190 302 191 Q249 203 212 247 Q201 261 192.5 278 Q184 295 177 313 Q175 320 169 322 Q139 336 115 360.5 Q91 385 73 416 Q55 447 43.5 481 Q32 515 26 548.5 Q20 582 20 610 Q20 646 27 670.5 Q34 695 46 709.5 Q58 724 71 731.5 Q84 739 96.5 741.5 Q109 744 118 744 Q141 744 160 735 Q179 726 193.5 713 Q208 700 218 688 Q222 682 230 682 L461 682 Q468 682 473 688 Q482 700 497 713 Q512 726 531 735 Q550 744 573 744 Q582 744 594.5 741.5 Q607 739 620 731.5 Q633 724 645 709.5 Q657 695 664 670.5 Q671 646 671 610 Q671 582 665 548.5 Q659 515 647.5 481 Q636 447 618 416 Q600 385 576 360.5 Q552 336 522 322 Q516 320 514 313 Q507 295 498.5 278 Q490 261 479 247 Q442 203 389 191 Q377 188 377 176 Z M82 610 Q82 578 89.5 544.5 Q97 511 110.5 479.5 Q124 448 143 423 Q146 420 151 421 Q158 423 156 429 Q154 472 156.5 512.5 Q159 553 163.5 585.5 Q168 618 172 637 Q172 641 171 644.5 Q170 648 168 650 Q159 661 145.5 671.5 Q132 682 118 682 Q82 682 82 610 Z M573 682 Q559 682 545.5 671 Q532 660 523 650 Q521 648 520 644.5 Q519 641 519 637 Q522 618 527 585.5 Q532 553 534.5 512.5 Q537 472 535 429 Q533 423 540 421 Q544 420 548 423 Q566 448 580 479.5 Q594 511 601.5 544.5 Q609 578 609 610 Q609 682 573 682 Z " />
<glyph glyph-name="uF0015" unicode="&#xf0015;" horiz-adv-x="800" d="M449 657 L513 475 L706 472 Q748 471 766.5 457.5 Q785 444 778 423 Q771 402 737 377 L583 261 L639 77 Q652 37 645 16 Q638 -5 615 -5 Q592 -5 558 19 L399 129 L399 716 Q412 716 425 701 Q438 686 449 657 Z " />
<glyph glyph-name="uF0016" unicode="&#xf0016;" horiz-adv-x="800" d="M94 472 L287 475 L350 657 Q364 696 382 709.5 Q400 723 418 709.5 Q436 696 450 657 L513 475 L706 472 Q748 471 766.5 457.5 Q785 444 778 423 Q771 402 737 377 L584 261 L639 77 Q652 37 645 16 Q638 -5 615.5 -5 Q593 -5 558 19 L400 129 L242 19 Q207 -5 184.5 -5 Q162 -5 155 16 Q148 37 160 77 L216 261 L63 377 Q29 402 22 423.5 Q15 445 33.5 458 Q52 471 94 472 Z M305 290 L253 119 L400 221 L400 570 L341 401 L162 397 L305 290 Z " />
<glyph glyph-name="uF0017" unicode="&#xf0017;" horiz-adv-x="1539" d="M20 712 Q20 722 26.5 729 Q33 736 43 736 L800 736 Q805 736 808 731.5 Q811 727 809 722 L661 376 Q658 368 661 360 L809 14 Q811 9 808 4.5 Q805 0 800 0 L43 0 Q33 0 26.5 7 Q20 14 20 24 L20 712 Z M742 360 Q739 368 742 376 L889 719 Q893 726 900 731 Q907 736 915 736 L1491 736 Q1502 736 1510.5 727.5 Q1519 719 1519 707 L1519 28 Q1519 17 1510.5 8.5 Q1502 0 1491 0 L915 0 Q907 0 900 5 Q893 10 889 17 L742 360 Z M132 563 Q130 549 140 538 Q150 527 164 527 L211 527 Q217 527 217 522 Q220 496 229 459 Q238 422 257 380 Q261 372 264.5 364 Q268 356 273 348 Q282 332 292.5 316 Q303 300 316 284 Q318 280 316 278 Q297 261 273 244 Q269 241 265.5 238 Q262 235 257 233 Q240 222 221 211.5 Q202 201 181 192 Q170 187 164 176 Q158 165 161 154 Q164 143 173 136 Q182 129 193 129 Q199 129 205 132 Q219 138 232 144.5 Q245 151 257 158 L273 167 Q298 182 319.5 198 Q341 214 359 231 Q362 234 366 231 Q395 203 433.5 178 Q472 153 519 132 Q526 129 532 129 Q542 129 551.5 136 Q561 143 564 154 Q567 165 560.5 176 Q554 187 544 192 Q502 210 468.5 232 Q435 254 409 278 Q408 279 408 280.5 Q408 282 409 284 Q444 328 464.5 372.5 Q485 417 494.5 455.5 Q504 494 508 522 Q508 527 514 527 L561 527 Q575 527 584.5 538 Q594 549 593 563 Q592 576 582 584 Q572 592 559 592 L400 592 Q395 592 395 597 L395 632 Q395 646 384 656 Q373 666 359 664 Q346 662 338 652.5 Q330 643 330 630 L330 597 Q330 592 325 592 L166 592 Q153 592 143.5 584 Q134 576 132 563 Z M975 167 Q970 153 978.5 140.5 Q987 128 1003 126 Q1015 125 1024.5 132.5 Q1034 140 1037 151 L1076 288 Q1078 296 1085 296 L1267 296 Q1274 296 1276 289 L1315 150 Q1318 140 1327 133 Q1336 126 1346 126 Q1352 126 1360 129 Q1370 134 1375 145.5 Q1380 157 1377 168 L1266 562 Q1262 576 1251 584 Q1240 592 1226 592 L1125 592 Q1111 592 1100 584 Q1089 576 1085 562 L975 167 Z M281 521 Q281 527 288 527 L436 527 Q442 527 442 521 Q437 482 420.5 432.5 Q404 383 366 333 Q364 332 362 332 Q360 332 358 333 Q332 366 316.5 399.5 Q301 433 292.5 464 Q284 495 281 521 Z M1140 520 Q1144 527 1150 527 L1201 527 Q1208 527 1210 520 L1254 368 Q1255 365 1253 362.5 Q1251 360 1247 360 L1104 360 Q1101 360 1099 362.5 Q1097 365 1098 368 L1140 520 Z " />
<glyph glyph-name="uF0018" unicode="&#xf0018;" horiz-adv-x="646" d="M545 462 Q568 461 586 449.5 Q604 438 615 420 Q626 402 626 380 L626 82 Q626 60 614.5 41 Q603 22 583.5 11 Q564 0 541 0 L105 0 Q82 0 62.5 11 Q43 22 31.5 41 Q20 60 20 82 L20 380 Q20 402 31 420 Q42 438 60 449.5 Q78 461 100 462 L100 541 Q100 582 116 617 Q132 652 159.5 679 Q187 706 223 721 Q259 736 301 736 L345 736 Q386 736 422.5 721 Q459 706 486.5 679 Q514 652 529.5 617 Q545 582 545 541 L545 462 Z M203 541 L203 462 L443 462 L443 541 Q443 570 436 588.5 Q429 607 417.5 617 Q406 627 393 631 Q380 635 367.5 635.5 Q355 636 345 636 L301 636 Q292 636 279.5 635 Q267 634 254 630 Q241 626 229 616 Q217 606 210 588 Q203 570 203 541 Z " />
<glyph glyph-name="uF0019" unicode="&#xf0019;" horiz-adv-x="776" d="M665 465 L751 377 Q756 371 756 363 Q756 355 750 350 L654 257 L654 123 Q654 115 648 109.5 Q642 104 635 104 L495 104 L395 7 Q390 2 382 2 Q374 2 368 8 L275 104 L141 104 Q134 104 128 109.5 Q122 115 122 123 L122 262 L25 363 Q20 368 20 376 Q20 384 26 389 L122 483 L122 617 Q122 624 128 630 Q134 636 141 636 L281 636 L381 732 Q387 738 395 737.5 Q403 737 408 732 L501 636 L635 636 Q642 636 648 630 Q654 624 654 617 L654 610 L396 370 L317 453 Q310 460 304.5 460 Q299 460 295 457.5 Q291 455 291 455 L235 402 Q235 402 232 398.5 Q229 395 228.5 388.5 Q228 382 235 375 L377 223 Q384 216 390 216.5 Q396 217 400 219.5 Q404 222 404 222 L665 465 Z " />
<glyph glyph-name="uF0020" unicode="&#xf0020;" horiz-adv-x="530" d="M510 533 L510 41 Q510 24 498 12 Q486 0 469 0 L61 0 Q44 0 32 12 Q20 24 20 41 L20 568 Q20 584 29.5 597 Q39 610 54 615 L404 732 Q424 739 442 729.5 Q460 720 467 701 L469 695 L469 574 Q486 574 498 562 Q510 550 510 533 Z M190 574 L388 574 L388 640 L190 574 Z M408 350 Q408 380 397 405.5 Q386 431 366 450.5 Q346 470 320.5 481 Q295 492 265 492 Q235 492 209.5 481 Q184 470 164 450.5 Q144 431 133 405.5 Q122 380 122 350 Q121 325 130.5 299 Q140 273 156 247 Q172 221 190 198 Q208 175 224.5 157 Q241 139 252 128 Q257 123 265 123 Q273 123 278 128 Q289 139 305.5 157 Q322 175 340 198 Q358 221 374 247 Q390 273 399.5 299 Q409 325 408 350 Z M323 350 Q323 334 315 321.5 Q307 309 294 301 Q281 293 265 293 Q249 293 236 301 Q223 309 215 321.5 Q207 334 207 350 Q207 366 215 379 Q223 392 236 400 Q249 408 265 408 Q281 408 294 400 Q307 392 315 379 Q323 366 323 350 Z " />
<glyph glyph-name="uF0101" unicode="&#xf0101;" horiz-adv-x="872" d="M850 376 Q840 360 833 341.5 Q826 323 822 304.5 Q818 286 818 272 L818 245 Q818 234 816.5 222 Q815 210 806 189 Q797 164 773 139 Q760 125 741.5 113.5 Q723 102 702 94 Q693 90 693 81 L693 36 Q693 19 681 7 Q669 -5 652 -5 Q636 -5 624 7 Q612 19 612 36 L612 61 Q612 64 611 66.5 Q610 69 608 71 Q606 72 603 73.5 Q600 75 597 74 L297 74 Q291 74 285.5 74 Q280 74 275 75 Q272 75 269 73.5 Q266 72 264 71 Q262 69 261 66.5 Q260 64 260 61 L260 36 Q260 19 248 7 Q236 -5 220 -5 Q203 -5 191 7 Q179 19 179 36 L179 82 Q179 90 170 94 Q160 98 150.5 102.5 Q141 107 133 112 Q86 141 67 188 Q67 188 67 188.5 Q67 189 66 189 Q62 199 60 208.5 Q58 218 56 228 Q55 233 55 237 Q55 241 55 245 L55 272 Q55 295 45.5 324.5 Q36 354 23 377 Q17 385 22 394 Q26 403 37 403 L51 404 Q58 403 63 408 Q66 410 67 413 Q68 416 68 419 L68 639 Q68 654 73 671 Q78 688 90.5 703 Q103 718 124 728 Q152 741 181 736 Q210 731 236 710 L238 708 Q240 706 241 708 Q260 717 283 717 Q304 717 328 705 Q344 699 359 688 Q361 686 363 685 L364 684 Q374 674 374 659 Q374 652 371.5 646 Q369 640 364 635 L271 542 Q270 540 269 539.5 Q268 539 266 538 Q257 532 247 532 Q230 532 221 543 L218 547 Q208 562 200 577 Q189 602 189 623 Q189 628 189 633 Q189 638 190 642 Q192 648 188 650 Q174 661 166 660.5 Q158 660 156 658 Q148 655 146.5 649 Q145 643 145 641 L145 418 Q145 411 149.5 407 Q154 403 160 403 L835 403 Q845 403 850 394 Q854 385 850 376 Z " />
<glyph glyph-name="uF0102" unicode="&#xf0102;" horiz-adv-x="782" d="M394 387 Q396 376 387 368 Q368 348 356 321.5 Q344 295 344 255 L344 23 Q344 13 337.5 6.5 Q331 0 321 0 L50 0 Q41 0 34.5 6 Q28 12 27 20 Q23 52 21.5 88.5 Q20 125 20.5 161.5 Q21 198 24 230.5 Q27 263 31.5 288 Q36 313 43 326 Q54 347 80 372 Q106 397 152 431 L163 439 Q165 441 167.5 443.5 Q170 446 171 447 Q172 449 171 451.5 Q170 454 168 456 Q167 458 161 465 Q137 494 124.5 530.5 Q112 567 112 614 Q112 651 129 680 Q146 709 175 725.5 Q204 742 240 742 Q275 742 304 725 Q333 708 350 679 Q367 650 367 614 Q367 567 354.5 529.5 Q342 492 317 464 Q311 458 309 454.5 Q307 451 308 449 Q308 447 309 445.5 Q310 444 315 441 L325 436 Q332 432 346 424 Q349 422 359.5 417 Q370 412 383 404 Q392 398 394 387 Z M761 250 Q761 222 761.5 199 Q762 176 762 156 L762 137 Q762 123 761.5 108.5 Q761 94 761 78 L761 23 Q761 13 754.5 6.5 Q748 0 738 0 L414 0 Q404 0 397.5 6.5 Q391 13 391 23 L391 255 Q391 289 402 310.5 Q413 332 437 349 L482 374 Q486 376 489 377 Q492 378 495 380 Q500 382 501.5 383.5 Q503 385 503 385 Q503 390 502 392 Q501 394 497 398 Q497 399 496 400 Q468 430 455.5 468 Q443 506 443 552 Q443 575 451.5 598 Q460 621 477 640 Q494 659 518 670.5 Q542 682 572 682 Q602 682 626 671 Q650 660 667 641 Q684 622 692.5 599 Q701 576 701 552 Q701 508 688.5 469 Q676 430 648 400 L644 396 Q642 393 641 391.5 Q640 390 640 386 Q640 384 641 383 Q642 382 646 380 Q648 378 651 377 Q654 376 658 374 L679 365 Q720 346 740.5 320 Q761 294 761 250 Z " />
<glyph glyph-name="uF0103" unicode="&#xf0103;" horiz-adv-x="895" d="M790 416 Q814 416 833 404.5 Q852 393 863.5 373.5 Q875 354 875 330 L875 37 Q875 20 862.5 7.5 Q850 -5 832 -5 Q815 -5 802.5 7.5 Q790 20 790 37 L790 45 Q790 56 781.5 64.5 Q773 73 761 73 L134 73 Q122 73 114 64.5 Q106 56 106 45 L106 37 Q106 20 93 7.5 Q80 -5 63 -5 Q45 -5 32.5 7.5 Q20 20 20 37 L20 330 Q20 354 31.5 373.5 Q43 393 62.5 404.5 Q82 416 106 416 L106 655 Q106 673 115 688 Q124 703 139 712 Q154 721 172 721 L724 721 Q742 721 757 712 Q772 703 781 688 Q790 673 790 655 L790 416 Z M403 432 L403 535 Q403 548 393.5 558 Q384 568 370 568 L227 568 Q214 568 204 558 Q194 548 194 535 L194 432 Q194 425 199 420.5 Q204 416 211 416 L387 416 Q394 416 398.5 420.5 Q403 425 403 432 Z M701 432 L701 535 Q701 548 691.5 558 Q682 568 668 568 L525 568 Q512 568 502 558 Q492 548 492 535 L492 432 Q492 425 496.5 420.5 Q501 416 508 416 L684 416 Q692 416 696.5 420.5 Q701 425 701 432 Z " />
<glyph glyph-name="uF0104" unicode="&#xf0104;" horiz-adv-x="778" d="M758 39 Q758 22 746 11 Q734 0 718 0 L605 0 Q583 0 567.5 15 Q552 30 552 53 L552 532 Q552 542 544 550 Q536 558 525 558 L476 558 L476 -60 Q476 -74 465 -82 Q455 -89 442 -86 L177 -2 Q173 0 169 0 L60 0 Q44 0 32 11 Q20 22 20 39 Q20 56 32 67.5 Q44 79 60 79 L126 79 Q137 79 145 87 Q153 95 153 106 L153 619 Q153 627 158.5 634 Q164 641 172 644 L442 730 Q455 733 465 726 Q476 718 476 704 L476 638 L605 638 Q616 638 624 630 Q632 622 632 611 L632 106 Q632 95 640 87 Q648 79 658 79 L718 79 Q734 79 746 67.5 Q758 56 758 39 Z " />
<glyph glyph-name="uF0105" unicode="&#xf0105;" horiz-adv-x="858" d="M371 664 L371 489 Q371 465 359 445 Q347 425 327 413 Q307 401 283 401 L108 401 Q84 401 64 413 Q44 425 32 445 Q20 465 20 489 L20 664 Q20 688 32 708 Q44 728 64 740 Q84 752 108 752 L283 752 Q307 752 327 740 Q347 728 359 708 Q371 688 371 664 Z M750 752 Q774 752 794 740 Q814 728 826 708 Q838 688 838 664 L838 489 Q838 465 826 445 Q814 425 794 413 Q774 401 750 401 L575 401 Q551 401 531 413 Q511 425 499 445 Q487 465 487 489 L487 664 Q487 688 499 708 Q511 728 531 740 Q551 752 575 752 L750 752 Z M283 285 Q307 285 327 273 Q347 261 359 241 Q371 221 371 197 L371 22 Q371 -2 359 -22 Q347 -42 327 -54 Q307 -66 283 -66 L108 -66 Q84 -66 64 -54 Q44 -42 32 -22 Q20 -2 20 22 L20 197 Q20 221 32 241 Q44 261 64 273 Q84 285 108 285 L283 285 Z M750 285 Q774 285 794 273 Q814 261 826 241 Q838 221 838 197 L838 22 Q838 -2 826 -22 Q814 -42 794 -54 Q774 -66 750 -66 L575 -66 Q551 -66 531 -54 Q511 -42 499 -22 Q487 -2 487 22 L487 197 Q487 221 499 241 Q511 261 531 273 Q551 285 575 285 L750 285 Z " />
<glyph glyph-name="uF0201" unicode="&#xf0201;" horiz-adv-x="615" d="M102 488 Q88 503 88 524 Q88 545 102 560 L272 729 Q278 737 288 740 L289 740 Q294 742 298 743 Q302 744 307 744 Q318 744 326 740 L327 740 Q337 737 343 729 L512 560 Q527 545 527 524 Q527 503 512 488 Q505 480 496 476.5 Q487 473 477 473 Q456 473 441 488 L358 571 L358 220 Q358 199 343 184 Q328 169 307 169 Q286 169 271.5 184 Q257 199 257 220 L257 571 L174 488 Q159 473 138 473 Q117 473 102 488 Z M544 101 Q565 101 580 86.5 Q595 72 595 51 Q595 30 580 15 Q565 0 544 0 L71 0 Q50 0 35 15 Q20 30 20 51 Q20 72 35 86.5 Q50 101 71 101 L544 101 Z " />
<glyph glyph-name="uF0202" unicode="&#xf0202;" horiz-adv-x="615" d="M544 709 Q565 709 580 694 Q595 679 595 658 Q595 637 580 622.5 Q565 608 544 608 L71 608 Q50 608 35 622.5 Q20 637 20 658 Q20 679 35 694 Q50 709 71 709 L544 709 Z M512 221 Q527 206 527 185 Q527 164 512 149 L343 -20 Q337 -28 327 -31 L326 -31 Q318 -35 307 -35 Q302 -35 298 -34 Q294 -33 289 -31 L288 -31 Q278 -28 272 -20 L102 149 Q88 164 88 185 Q88 206 102 221 Q117 235 138 235 Q159 235 174 221 L257 138 L257 489 Q257 510 271.5 525 Q286 540 307 540 Q328 540 343 525 Q358 510 358 489 L358 138 L441 221 Q456 235 477 235 Q498 235 512 221 Z " />
<glyph glyph-name="uF0203" unicode="&#xf0203;" horiz-adv-x="701" d="M650 266 Q665 258 673 243.5 Q681 229 681.5 212.5 Q682 196 673 181 Q664 166 649.5 158 Q635 150 619 150 Q611 150 603.5 152 Q596 154 588 158 L413 260 L413 57 Q413 40 404.5 26 Q396 12 382 3.5 Q368 -5 351 -5 Q334 -5 319.5 3.5 Q305 12 296.5 26 Q288 40 288 57 L288 260 L113 158 Q106 154 98 152 Q90 150 82 150 Q66 150 51.5 158 Q37 166 28 181 Q20 196 20 212.5 Q20 229 28 243.5 Q36 258 51 266 L226 367 L51 468 Q36 476 28 490.5 Q20 505 20 521.5 Q20 538 28 553 Q36 568 50.5 576 Q65 584 81.5 584 Q98 584 113 576 L288 474 L288 677 Q288 694 296.5 708 Q305 722 319.5 730.5 Q334 739 351 739 Q368 739 382 730.5 Q396 722 404.5 708 Q413 694 413 677 L413 474 L588 576 Q603 584 619.5 584 Q636 584 650 576 Q664 568 673 553 Q682 538 681.5 521.5 Q681 505 673 490.5 Q665 476 650 468 L475 367 L650 266 Z " />
<glyph glyph-name="uF0301" unicode="&#xf0301;" horiz-adv-x="513" d="M290 611 Q373 602 424.5 544 Q476 486 493 379 Q494 372 490 366 Q485 361 478 361 L36 361 Q29 361 24 366 Q22 369 20.5 372 Q19 375 20 379 Q56 593 227 611 Q232 669 264 701 Q300 739 367 739 L445 739 Q458 739 467 729.5 Q476 720 476 707 Q476 694 467 685 Q458 676 445 676 L367 676 Q327 676 309 657 Q302 650 297 638 Q292 626 290 611 Z M408 328 Q424 331 437.5 322 Q451 313 453 297 Q456 280 447 267 Q438 254 421 251 Q405 248 391.5 257 Q378 266 376 283 Q373 299 382.5 312.5 Q392 326 408 328 Z M250 328 Q266 331 279.5 322 Q293 313 296 297 Q298 280 289 267 Q280 254 264 251 Q248 248 234.5 257 Q221 266 218 283 Q215 299 224.5 312.5 Q234 326 250 328 Z M138 297 Q141 280 131.5 267 Q122 254 106 251 Q90 248 76.5 257 Q63 266 60 283 Q57 299 66.5 312.5 Q76 326 92 328 Q108 331 121.5 322 Q135 313 138 297 Z M408 202 Q424 205 437.5 195.5 Q451 186 453 170 Q456 154 447 141 Q438 128 421 125 Q405 122 391.5 131 Q378 140 376 157 Q373 173 382.5 186.5 Q392 200 408 202 Z M92 202 Q108 205 121.5 195.5 Q135 186 138 170 Q141 154 131.5 141 Q122 128 106 125 Q90 122 76.5 131 Q63 140 60 157 Q57 173 66.5 186.5 Q76 200 92 202 Z M250 202 Q266 205 279.5 195.5 Q293 186 296 170 Q298 154 289 141 Q280 128 264 125 Q248 122 234.5 131 Q221 140 218 157 Q215 173 224.5 186.5 Q234 200 250 202 Z M408 76 Q424 79 437.5 69.5 Q451 60 453 44 Q456 28 447 14.5 Q438 1 421 -1 Q405 -4 391.5 5 Q378 14 376 31 Q373 47 382.5 60 Q392 73 408 76 Z M92 76 Q108 79 121.5 69.5 Q135 60 138 44 Q141 28 131.5 14.5 Q122 1 106 -1 Q90 -4 76.5 5 Q63 14 60 31 Q57 47 66.5 60 Q76 73 92 76 Z M250 76 Q266 79 279.5 69.5 Q293 60 296 44 Q298 28 289 14.5 Q280 1 264 -1 Q248 -4 234.5 5 Q221 14 218 31 Q215 47 224.5 60 Q234 73 250 76 Z " />
<glyph glyph-name="uF0302" unicode="&#xf0302;" horiz-adv-x="896" d="M121 655 Q121 676 131 693 Q141 710 158.5 720.5 Q176 731 197 731 L698 731 Q719 731 736 720.5 Q753 710 763.5 693 Q774 676 774 655 L774 520 Q755 520 737.5 510.5 Q720 501 705.5 486 Q691 471 682.5 452.5 Q674 434 674 415 L674 255 L222 255 L222 415 Q222 435 213.5 453.5 Q205 472 190 487.5 Q175 503 157 512 Q139 521 121 521 L121 655 Z M800 468 Q818 468 835.5 460.5 Q853 453 864.5 436.5 Q876 420 876 392 Q876 370 872 357.5 Q868 345 862 338.5 Q856 332 849 327 Q842 322 833.5 313.5 Q825 305 825 290 L825 116 Q825 106 817.5 98.5 Q810 91 800 91 L774 91 L774 23 Q774 8 766 1.5 Q758 -5 749 -5 Q736 -5 728 -0.5 Q720 4 710 23 L678 91 L217 91 L184 23 Q174 4 166 -0.5 Q158 -5 145 -5 Q137 -5 128.5 1.5 Q120 8 120 23 L120 91 L96 91 Q86 91 78.5 98.5 Q71 106 71 116 Q71 118 71 130.5 Q71 143 71 161.5 Q71 180 71 201 Q71 222 71 241 Q71 260 71 274 Q71 288 71 292 Q70 306 62.5 314 Q55 322 48 328 Q41 334 34.5 341 Q28 348 24 360 Q20 372 20 392 Q20 468 96 468 Q114 468 131.5 462 Q149 456 160.5 440 Q172 424 172 392 L172 256 Q172 235 187 220 Q202 205 223 205 L673 205 Q694 205 709 220 Q724 235 724 256 L724 392 Q724 418 733 433.5 Q742 449 755 456.5 Q768 464 780.5 466 Q793 468 800 468 Z " />
<glyph glyph-name="uF0303" unicode="&#xf0303;" horiz-adv-x="695" d="M181 573 L546 573 L458 667 Q448 679 448 696 Q448 713 458 725 Q469 737 485 737 Q501 737 512 725 L664 561 Q675 549 675 532 Q675 515 664 503 L512 339 Q501 327 485 327 Q469 327 458 339 Q448 351 448 368 Q448 385 458 397 L546 491 L181 491 Q165 491 154 503 Q143 515 143 532 Q143 549 154 561 Q165 573 181 573 Z M515 163 L150 163 L237 69 Q248 57 248 40 Q248 23 237 11 Q226 -1 210 -1 Q194 -1 183 11 L31 175 Q20 187 20 204 Q20 221 31 233 L183 397 Q194 409 210 409 Q226 409 237 397 Q248 385 248 368 Q248 351 237 339 L150 245 L515 245 Q531 245 542 233 Q553 221 553 204 Q553 187 542 175 Q531 163 515 163 Z " />
<glyph glyph-name="uF0401" unicode="&#xf0401;" horiz-adv-x="784" d="M392 739 Q453 739 509 720 Q565 701 611.5 667 Q658 633 692 586.5 Q726 540 745 484 Q764 428 764 367 Q764 306 745 250 Q726 194 692 147.5 Q658 101 611.5 67 Q565 33 509.5 14 Q454 -5 392 -5 Q331 -5 275 14 Q219 33 172.5 67 Q126 101 92 147.5 Q58 194 39 250 Q20 306 20 367 Q20 428 39 484 Q58 540 92 586.5 Q126 633 172.5 667 Q219 701 274.5 720 Q330 739 392 739 Z M180 252 Q189 250 193 256 L503 566 Q509 570 507 579 Q506 586 499 591 Q474 602 447 608.5 Q420 615 392 615 Q341 615 296 595.5 Q251 576 217 542 Q183 508 163.5 463 Q144 418 144 367 Q144 338 150.5 311.5 Q157 285 168 260 Q173 253 180 252 Z M392 119 Q443 119 488 138.5 Q533 158 567 192 Q601 226 620.5 271 Q640 316 640 367 Q640 396 633.5 422.5 Q627 449 616 474 Q611 481 604 482 Q595 484 591 478 L281 168 Q275 164 277 155 Q278 148 285 143 Q310 132 337 125.5 Q364 119 392 119 Z " />
<glyph glyph-name="uF0402" unicode="&#xf0402;" horiz-adv-x="932" d="M838 618 Q858 618 875 608 Q892 598 902 581 Q912 564 912 544 L912 69 Q912 48 902 31.5 Q892 15 875 5 Q858 -5 838 -5 L94 -5 Q74 -5 57 5 Q40 15 30 31.5 Q20 48 20 69 L20 544 Q20 564 30 581 Q40 598 57 608 Q74 618 94 618 L838 618 Z M862 382 L862 452 Q862 460 856 466.5 Q850 473 842 473 L90 473 Q82 473 76 466.5 Q70 460 70 452 L70 382 Q70 374 76 368 Q82 362 90 362 L842 362 Q850 362 856 368 Q862 374 862 382 Z " />
<glyph glyph-name="uF0403" unicode="&#xf0403;" horiz-adv-x="890" d="M866 732 Q870 728 870 723 Q870 718 868 713 L478 4 Q474 -3 465 -5 L463 -5 Q454 -5 450 1 L340 120 Q334 126 327 126 Q323 126 319.5 124 Q316 122 314 120 L252 52 Q249 48 244.5 46.5 Q240 45 235 46 Q225 49 222 59 L154 318 Q153 322 150 326 L25 461 Q18 470 21 478 Q22 482 25 485 Q28 488 33 490 L847 738 Q858 741 866 732 Z M719 632 Q723 634 721 638 Q719 641 715 639 L209 385 Q208 385 206 383 Q193 376 190 361.5 Q187 347 195 334 Q203 322 217.5 319 Q232 316 244 324 L719 632 Z " />
<glyph glyph-name="uF0404" unicode="&#xf0404;" horiz-adv-x="714" d="M30 611 Q46 650 70 676.5 Q94 703 121.5 718.5 Q149 734 174 738 Q188 741 200.5 736 Q213 731 222 715 Q230 701 238.5 686 Q247 671 259 648.5 Q271 626 289 589 Q294 580 296.5 572 Q299 564 296.5 554.5 Q294 545 284 531 Q272 514 261 497.5 Q250 481 241.5 468.5 Q233 456 230 452 Q222 442 220 428.5 Q218 415 229 402 Q244 383 262.5 361.5 Q281 340 299 318.5 Q317 297 332.5 278.5 Q348 260 358.5 247.5 Q369 235 371 232 Q377 224 391 221 Q405 218 420 225 L507 264 Q524 272 536 272 Q548 272 564 259 Q596 234 616 218.5 Q636 203 650 191.5 Q664 180 676 170 Q690 159 693 147 Q696 135 690 119 Q677 88 655.5 64.5 Q634 41 608.5 25.5 Q583 10 557.5 2.5 Q532 -5 512 -5 Q481 -5 445.5 7 Q410 19 372.5 40.5 Q335 62 299 89.5 Q263 117 231 148 Q199 179 173 210 Q145 244 118 285.5 Q91 327 70 371.5 Q49 416 35.5 460 Q22 504 20 543 Q18 582 30 611 Z " />
</font>
</svg>
