<?xml version="1.0" encoding="UTF-8"?>
<svg xmlns="http://www.w3.org/2000/svg" xmlns:xlink="http://www.w3.org/1999/xlink" version="1.2" >
<font id="Masbul Extra Bold">
<font-face  font-family="Masbul" units-per-em="1000" ascent="1009" descent="-293" font-style="normal" font-weight="800" font-stretch="normal" cap-height="710" x-height="533" underline-position="-100" underline-thickness="63" />
<missing-glyph  horiz-adv-x="500" d="M450 0 L50 0 L50 750 L450 750 L450 0 Z M100 50 L400 50 L400 700 L100 700 L100 50 Z " />
<glyph glyph-name="uni0000" d="" />
<glyph glyph-name="uni0020" unicode="&#x20;" horiz-adv-x="206" d="" />
<glyph glyph-name="uni000D002" unicode="&#xd;" horiz-adv-x="206" d="" />
<glyph glyph-name="uni002E" unicode="&#x2e;" horiz-adv-x="284" d="M142 -4 Q114 -4 91.5 9.5 Q69 23 56 45.5 Q43 68 43 95 Q43 122 56 144.5 Q69 167 91.5 180.5 Q114 194 142 194 Q170 194 192.5 180.5 Q215 167 228 144.5 Q241 122 241 95 Q241 68 228 45.5 Q215 23 192.5 9.5 Q170 -4 142 -4 Z " />
<glyph glyph-name="uni003A" unicode="&#x3a;" horiz-adv-x="284" d="M142 -4 Q114 -4 91.5 9.5 Q69 23 56 45.5 Q43 68 43 95 Q43 122 56 144.5 Q69 167 91.5 180.5 Q114 194 142 194 Q170 194 192.5 180.5 Q215 167 228 144.5 Q241 122 241 95 Q241 68 228 45.5 Q215 23 192.5 9.5 Q170 -4 142 -4 Z M142 339 Q114 339 91.5 352.5 Q69 366 56 388.5 Q43 411 43 438 Q43 465 56 487.5 Q69 510 91.5 523.5 Q114 537 142 537 Q170 537 192.5 523.5 Q215 510 228 487.5 Q241 465 241 438 Q241 411 228 388.5 Q215 366 192.5 352.5 Q170 339 142 339 Z " />
<glyph glyph-name="uni002C" unicode="&#x2c;" horiz-adv-x="284" d="M79 -161 L53 -74 Q84 -68 108.5 -52.5 Q133 -37 147 -16 Q161 5 161 28 Q161 31 161 33 Q146 24 128 24 Q106 24 87.5 35.5 Q69 47 58 66 Q47 85 47 108 Q47 132 59.5 152 Q72 172 93 183.5 Q114 195 140 195 Q174 195 201.5 175.5 Q229 156 245 122.5 Q261 89 261 48 Q261 -3 238 -46 Q215 -89 174.5 -119 Q134 -149 79 -161 Z " />
<glyph glyph-name="uni003B" unicode="&#x3b;" horiz-adv-x="284" d="M79 -161 L53 -74 Q84 -68 108.5 -52.5 Q133 -37 147 -16 Q161 5 161 28 Q161 31 161 33 Q146 24 128 24 Q106 24 87.5 35.5 Q69 47 58 66 Q47 85 47 108 Q47 132 59.5 152 Q72 172 93 183.5 Q114 195 140 195 Q174 195 201.5 175.5 Q229 156 245 122.5 Q261 89 261 48 Q261 -3 238 -46 Q215 -89 174.5 -119 Q134 -149 79 -161 Z M142 339 Q114 339 91.5 352.5 Q69 366 56 388.5 Q43 411 43 438 Q43 465 56 487.5 Q69 510 91.5 523.5 Q114 537 142 537 Q170 537 192.5 523.5 Q215 510 228 487.5 Q241 465 241 438 Q241 411 228 388.5 Q215 366 192.5 352.5 Q170 339 142 339 Z " />
<glyph glyph-name="uni003F" unicode="&#x3f;" horiz-adv-x="554" d="M189 234 L189 384 Q272 404 312 435 Q352 466 352 507 Q352 539 329.5 559.5 Q307 580 271 580 Q237 580 211.5 561 Q186 542 175 511 L20 543 Q29 583 51.5 616.5 Q74 650 107.5 674 Q141 698 183.5 711.5 Q226 725 275 725 Q329 725 374 709.5 Q419 694 452.5 666 Q486 638 504 599.5 Q522 561 522 515 Q522 466 500.5 424.5 Q479 383 439.5 352.5 Q400 322 345 305 L345 234 L189 234 Z M267 -4 Q240 -4 218.5 8.5 Q197 21 184.5 42.5 Q172 64 172 91 Q172 118 184.5 139.5 Q197 161 218.5 173.5 Q240 186 267 186 Q294 186 315.5 173.5 Q337 161 349.5 139.5 Q362 118 362 91 Q362 64 349.5 42.5 Q337 21 315.5 8.5 Q294 -4 267 -4 Z " />
<glyph glyph-name="uni0021" unicode="&#x21;" horiz-adv-x="276" d="M60 234 L50 710 L226 710 L216 234 L60 234 Z M138 -4 Q112 -4 90 8.5 Q68 21 55.5 42.5 Q43 64 43 91 Q43 118 55.5 139.5 Q68 161 90 173.5 Q112 186 138 186 Q164 186 186 173.5 Q208 161 220.5 139.5 Q233 118 233 91 Q233 64 220.5 42.5 Q208 21 186 8.5 Q164 -4 138 -4 Z " />
<glyph glyph-name="uni00BF" unicode="&#xbf;" horiz-adv-x="528" d="M281 347 Q254 347 232.5 359.5 Q211 372 198.5 393.5 Q186 415 186 442 Q186 469 198.5 490.5 Q211 512 232.5 524.5 Q254 537 281 537 Q308 537 329.5 524.5 Q351 512 363.5 490.5 Q376 469 376 442 Q376 415 363.5 393.5 Q351 372 329.5 359.5 Q308 347 281 347 Z M273 -192 Q219 -192 174 -176.5 Q129 -161 95.5 -133 Q62 -105 44 -66.5 Q26 -28 26 18 Q26 67 47.5 108.5 Q69 150 108.5 180.5 Q148 211 203 228 L203 299 L359 299 L359 149 Q276 129 236 98 Q196 67 196 26 Q196 -6 218.5 -26.5 Q241 -47 277 -47 Q311 -47 336.5 -28.5 Q362 -10 373 22 L528 -10 Q519 -50 496.5 -83.5 Q474 -117 440.5 -141 Q407 -165 364.5 -178.5 Q322 -192 273 -192 Z " />
<glyph glyph-name="uni00A1" unicode="&#xa1;" horiz-adv-x="276" d="M138 347 Q112 347 90 359.5 Q68 372 55.5 393.5 Q43 415 43 442 Q43 469 55.5 490.5 Q68 512 90 524.5 Q112 537 138 537 Q164 537 186 524.5 Q208 512 220.5 490.5 Q233 469 233 442 Q233 415 220.5 393.5 Q208 372 186 359.5 Q164 347 138 347 Z M50 -177 L60 299 L216 299 L226 -177 L50 -177 Z " />
<glyph glyph-name="uni0027" unicode="&#x27;" horiz-adv-x="250" d="M59 425 L52 710 L198 710 L191 425 L59 425 Z " />
<glyph glyph-name="uni0022" unicode="&#x22;" horiz-adv-x="463" d="M59 425 L52 710 L198 710 L191 425 L59 425 Z M272 425 L265 710 L411 710 L404 425 L272 425 Z " />
<glyph glyph-name="uni2026" unicode="&#x2026;" horiz-adv-x="852" d="M142 -4 Q114 -4 91.5 9.5 Q69 23 56 45.5 Q43 68 43 95 Q43 122 56 144.5 Q69 167 91.5 180.5 Q114 194 142 194 Q170 194 192.5 180.5 Q215 167 228 144.5 Q241 122 241 95 Q241 68 228 45.5 Q215 23 192.5 9.5 Q170 -4 142 -4 Z M426 -4 Q398 -4 375.5 9.5 Q353 23 340 45.5 Q327 68 327 95 Q327 122 340 144.5 Q353 167 375.5 180.5 Q398 194 426 194 Q454 194 476.5 180.5 Q499 167 512 144.5 Q525 122 525 95 Q525 68 512 45.5 Q499 23 476.5 9.5 Q454 -4 426 -4 Z M710 -4 Q682 -4 659.5 9.5 Q637 23 624 45.5 Q611 68 611 95 Q611 122 624 144.5 Q637 167 659.5 180.5 Q682 194 710 194 Q738 194 760.5 180.5 Q783 167 796 144.5 Q809 122 809 95 Q809 68 796 45.5 Q783 23 760.5 9.5 Q738 -4 710 -4 Z " />
<glyph glyph-name="uni00A0" unicode="&#xa0;" horiz-adv-x="206" d="" />
<glyph glyph-name="uni2000" unicode="&#x2000;" horiz-adv-x="500" d="" />
<glyph glyph-name="uni2001" unicode="&#x2001;" horiz-adv-x="1000" d="" />
<glyph glyph-name="uni2002" unicode="&#x2002;" horiz-adv-x="500" d="" />
<glyph glyph-name="uni2003" unicode="&#x2003;" horiz-adv-x="1000" d="" />
<glyph glyph-name="uni2004" unicode="&#x2004;" horiz-adv-x="333" d="" />
<glyph glyph-name="uni2005" unicode="&#x2005;" horiz-adv-x="250" d="" />
<glyph glyph-name="uni2006" unicode="&#x2006;" horiz-adv-x="166" d="" />
<glyph glyph-name="uni2007" unicode="&#x2007;" horiz-adv-x="601" d="" />
<glyph glyph-name="uni2008" unicode="&#x2008;" horiz-adv-x="284" d="" />
<glyph glyph-name="uni2009" unicode="&#x2009;" horiz-adv-x="200" d="" />
<glyph glyph-name="uni200A" unicode="&#x200a;" horiz-adv-x="63" d="" />
<glyph glyph-name="uni200B" unicode="&#x200b;" d="" />
<glyph glyph-name="uni0030" unicode="0" horiz-adv-x="624" d="M310 -15 Q248 -15 198.5 10 Q149 35 114 82 Q79 129 60.5 195 Q42 261 42 344 Q42 427 61 494 Q80 561 115 608 Q150 655 200 680 Q250 705 313 705 Q375 705 424.5 680 Q474 655 509 608 Q544 561 562.5 495 Q581 429 581 346 Q581 263 562 196 Q543 129 508 82 Q473 35 423 10 Q373 -15 310 -15 Z M311 138 Q360 138 386 191 Q412 244 412 345 Q412 446 386 499 Q360 552 311 552 Q263 552 237 499 Q211 446 211 345 Q211 244 237 191 Q263 138 311 138 Z " />
<glyph glyph-name="uni0031" unicode="1" horiz-adv-x="452" d="M197 0 L197 515 L66 442 L14 580 L219 690 L363 690 L363 0 L197 0 Z " />
<glyph glyph-name="uni0032" unicode="2" horiz-adv-x="573" d="M40 0 L40 118 Q87 158 122 187.5 Q157 217 183 240.5 Q209 264 229 283 Q271 324 298 356.5 Q325 389 338.5 418.5 Q352 448 352 476 Q352 513 330.5 534 Q309 555 275 555 Q242 555 219 534.5 Q196 514 188 477 L31 502 Q40 548 62.5 585 Q85 622 118.5 649 Q152 676 194 690.5 Q236 705 284 705 Q336 705 379 688 Q422 671 454 640.5 Q486 610 503.5 569 Q521 528 521 480 Q521 436 505 395.5 Q489 355 455 311.5 Q421 268 367 217 Q347 199 327 181 Q307 163 285 145 L533 145 L533 0 L40 0 Z " />
<glyph glyph-name="uni0033" unicode="3" horiz-adv-x="568" d="M278 -15 Q214 -15 161 7 Q108 29 71 71 Q34 113 20 174 L173 199 Q184 167 210 148.5 Q236 130 273 130 Q300 130 321 139.5 Q342 149 354 166.5 Q366 184 366 206 Q366 228 354 245.5 Q342 263 321 272.5 Q300 282 273 282 L201 282 L201 422 L264 422 Q304 422 328.5 442 Q353 462 353 493 Q353 523 331.5 541.5 Q310 560 276 560 Q244 560 220 542.5 Q196 525 186 492 L32 517 Q40 559 62 593.5 Q84 628 117.5 653 Q151 678 193.5 691.5 Q236 705 285 705 Q334 705 376.5 691 Q419 677 450 651.5 Q481 626 498.5 590.5 Q516 555 516 512 Q516 462 492 423.5 Q468 385 423 361 Q476 341 505 298 Q534 255 534 199 Q534 152 515 113 Q496 74 461.5 45 Q427 16 380 0.5 Q333 -15 278 -15 Z " />
<glyph glyph-name="uni0034" unicode="4" horiz-adv-x="609" d="M338 0 L338 133 L28 133 L28 266 L312 690 L499 690 L499 271 L572 271 L572 133 L499 133 L499 0 L338 0 Z M180 271 L338 271 L338 505 L180 271 Z " />
<glyph glyph-name="uni0035" unicode="5" horiz-adv-x="565" d="M282 -15 Q219 -15 166.5 8 Q114 31 79 73.5 Q44 116 32 172 L188 194 Q198 163 223 146.5 Q248 130 280 130 Q307 130 328.5 141.5 Q350 153 362 172.5 Q374 192 374 218 Q374 244 362 264.5 Q350 285 329 296.5 Q308 308 282 308 Q258 308 235 299 Q212 290 197 275 L66 288 L66 690 L490 690 L490 543 L224 543 L224 420 Q263 446 318 446 Q366 446 407 429 Q448 412 478 381.5 Q508 351 524.5 310 Q541 269 541 221 Q541 170 521.5 127 Q502 84 466.5 52 Q431 20 384 2.5 Q337 -15 282 -15 Z " />
<glyph glyph-name="uni0036" unicode="6" horiz-adv-x="606" d="M328 -15 Q264 -15 211.5 9 Q159 33 121 78 Q83 123 62.5 184.5 Q42 246 42 321 Q42 406 65.5 476.5 Q89 547 132.5 598.5 Q176 650 236.5 677.5 Q297 705 370 705 Q415 705 458 694 Q501 683 539 661 L500 525 Q486 533 466 540 Q446 547 423.5 551 Q401 555 380 555 Q334 555 298 534 Q262 513 239 473.5 Q216 434 209 379 Q233 411 271 429 Q309 447 357 447 Q405 447 446 430 Q487 413 517.5 382.5 Q548 352 565 311.5 Q582 271 582 223 Q582 173 562.5 129.5 Q543 86 508.5 53.5 Q474 21 427.5 3 Q381 -15 328 -15 Z M321 125 Q347 125 368.5 137.5 Q390 150 402.5 171.5 Q415 193 415 220 Q415 247 403 268.5 Q391 290 369.5 302 Q348 314 321 314 Q295 314 274 302 Q253 290 240.5 268.5 Q228 247 228 220 Q228 193 240.5 171.5 Q253 150 274 137.5 Q295 125 321 125 Z " />
<glyph glyph-name="uni0037" unicode="7" horiz-adv-x="565" d="M108 0 L338 538 L32 538 L32 690 L524 690 L524 565 L293 0 L108 0 Z " />
<glyph glyph-name="uni0038" unicode="8" horiz-adv-x="601" d="M298 -15 Q240 -15 191.5 -0.5 Q143 14 107.5 41.5 Q72 69 52.5 107 Q33 145 33 192 Q33 249 62.5 294 Q92 339 146 361 Q102 384 78.5 422.5 Q55 461 55 509 Q55 552 73.5 588 Q92 624 125 650.5 Q158 677 203 691 Q248 705 302 705 Q355 705 399.5 691 Q444 677 476.5 651 Q509 625 527 589.5 Q545 554 545 511 Q545 462 521.5 423.5 Q498 385 454 362 Q506 341 536.5 297.5 Q567 254 567 195 Q567 148 547.5 109.5 Q528 71 492 43 Q456 15 406.5 0 Q357 -15 298 -15 Z M300 420 Q324 420 343.5 429.5 Q363 439 374 455.5 Q385 472 385 493 Q385 514 374 530 Q363 546 343.5 555.5 Q324 565 300 565 Q276 565 256.5 555.5 Q237 546 226 530 Q215 514 215 493 Q215 472 226 455.5 Q237 439 256.5 429.5 Q276 420 300 420 Z M300 125 Q330 125 353 135 Q376 145 389 162.5 Q402 180 402 204 Q402 228 389 246 Q376 264 353 274.5 Q330 285 300 285 Q270 285 247 274.5 Q224 264 211 246 Q198 228 198 204 Q198 180 211 162.5 Q224 145 247 135 Q270 125 300 125 Z " />
<glyph glyph-name="uni0039" unicode="9" horiz-adv-x="605" d="M234 -15 Q138 -15 61 29 L100 165 Q114 157 134 150 Q154 143 177.5 139 Q201 135 225 135 Q271 135 307 152.5 Q343 170 366 208.5 Q389 247 396 310 Q372 279 333.5 261 Q295 243 247 243 Q200 243 159 260 Q118 277 87.5 307.5 Q57 338 40 378.5 Q23 419 23 466 Q23 517 42.5 560.5 Q62 604 96.5 636.5 Q131 669 177.5 687 Q224 705 277 705 Q341 705 393.5 681.5 Q446 658 484 613 Q522 568 542.5 504 Q563 440 563 359 Q563 272 539 203 Q515 134 471.5 85 Q428 36 367.5 10.5 Q307 -15 234 -15 Z M283 376 Q310 376 331 388 Q352 400 364.5 421.5 Q377 443 377 470 Q377 497 364.5 518.5 Q352 540 331 552.5 Q310 565 284 565 Q258 565 236.5 552.5 Q215 540 202.5 518.5 Q190 497 190 470 Q190 443 202 421.5 Q214 400 235 388 Q256 376 283 376 Z " />
<glyph glyph-name="uni2080" unicode="&#x2080;" horiz-adv-x="361" d="M178 -9 Q131 -9 96.5 15 Q62 39 43.5 83 Q25 127 25 188 Q25 250 44 294.5 Q63 339 98.5 363 Q134 387 182 387 Q229 387 263.5 363 Q298 339 316.5 295 Q335 251 335 190 Q335 128 315.5 83.5 Q296 39 261 15 Q226 -9 178 -9 Z M180 90 Q224 90 224 189 Q224 288 180 288 Q136 288 136 189 Q136 90 180 90 Z " />
<glyph glyph-name="uni2081" unicode="&#x2081;" horiz-adv-x="361" d="M150 0 L150 267 L78 228 L46 317 L163 380 L260 380 L260 0 L150 0 Z " />
<glyph glyph-name="uni2082" unicode="&#x2082;" horiz-adv-x="361" d="M40 0 L40 74 Q54 84 72.5 99.5 Q91 115 109.5 130.5 Q128 146 139 156 Q175 188 191.5 212.5 Q208 237 208 256 Q208 272 199 282.5 Q190 293 174 293 Q160 293 149 283 Q138 273 135 256 L34 270 Q40 304 60.5 330.5 Q81 357 112.5 372 Q144 387 181 387 Q220 387 251.5 371 Q283 355 301 327 Q319 299 319 264 Q319 228 297.5 192 Q276 156 230 118 Q221 111 213.5 105 Q206 99 198 93 L326 93 L326 0 L40 0 Z " />
<glyph glyph-name="uni2083" unicode="&#x2083;" horiz-adv-x="361" d="M176 -9 Q136 -9 105 4.5 Q74 18 53.5 42 Q33 66 26 97 L125 112 Q129 99 141 91 Q153 83 171 83 Q191 83 202.5 93 Q214 103 214 117 Q214 131 203 140 Q192 149 173 149 L135 149 L135 235 L166 235 Q186 235 196.5 243.5 Q207 252 207 265 Q207 278 196.5 286.5 Q186 295 171 295 Q158 295 147.5 288 Q137 281 133 268 L33 284 Q39 315 59 338 Q79 361 109.5 374 Q140 387 178 387 Q218 387 248 373.5 Q278 360 295.5 336 Q313 312 313 280 Q313 253 299.5 231.5 Q286 210 260 197 Q290 185 306.5 162 Q323 139 323 108 Q323 74 304 47.5 Q285 21 251.5 6 Q218 -9 176 -9 Z " />
<glyph glyph-name="uni2084" unicode="&#x2084;" horiz-adv-x="361" d="M186 0 L186 70 L16 70 L16 152 L167 380 L291 380 L291 154 L328 154 L328 70 L291 70 L291 0 L186 0 Z M111 154 L186 154 L186 266 L111 154 Z " />
<glyph glyph-name="uni2044" unicode="&#x2044;" horiz-adv-x="92" d="M-234 0 L206 690 L326 690 L-114 0 L-234 0 Z " />
<glyph glyph-name="uni0025" unicode="&#x25;" horiz-adv-x="769" d="M196 382 Q161 382 131 394 Q101 406 78.5 427 Q56 448 43.5 477 Q31 506 31 540 Q31 574 43.5 603 Q56 632 78.5 653.5 Q101 675 131 687 Q161 699 196 699 Q231 699 261 687 Q291 675 313.5 654 Q336 633 348.5 604 Q361 575 361 541 Q361 507 348.5 478 Q336 449 313.5 427.5 Q291 406 261 394 Q231 382 196 382 Z M233 0 L105 0 L536 690 L664 690 L233 0 Z M144 540 Q144 514 159 496.5 Q174 479 196 479 Q218 479 233 496.5 Q248 514 248 540 Q248 566 233 583.5 Q218 601 196 601 Q174 601 159 583.5 Q144 566 144 540 Z M573 -9 Q538 -9 508 3 Q478 15 455.5 36 Q433 57 420.5 86 Q408 115 408 149 Q408 183 420.5 212 Q433 241 455.5 262.5 Q478 284 508 296 Q538 308 573 308 Q608 308 638 296 Q668 284 690.5 263 Q713 242 725.5 213 Q738 184 738 150 Q738 116 725.5 87 Q713 58 690.5 36.5 Q668 15 638 3 Q608 -9 573 -9 Z M573 88 Q596 88 610.5 105.5 Q625 123 625 149 Q625 175 610.5 192.5 Q596 210 573 210 Q550 210 535.5 192.5 Q521 175 521 149 Q521 123 535.5 105.5 Q550 88 573 88 Z " />
<glyph glyph-name="uni2030" unicode="&#x2030;" horiz-adv-x="1140" d="M196 382 Q161 382 131 394 Q101 406 78.5 427 Q56 448 43.5 477 Q31 506 31 540 Q31 574 43.5 603 Q56 632 78.5 653.5 Q101 675 131 687 Q161 699 196 699 Q231 699 261 687 Q291 675 313.5 654 Q336 633 348.5 604 Q361 575 361 541 Q361 507 348.5 478 Q336 449 313.5 427.5 Q291 406 261 394 Q231 382 196 382 Z M233 0 L105 0 L536 690 L664 690 L233 0 Z M144 540 Q144 514 159 496.5 Q174 479 196 479 Q218 479 233 496.5 Q248 514 248 540 Q248 566 233 583.5 Q218 601 196 601 Q174 601 159 583.5 Q144 566 144 540 Z M573 -9 Q538 -9 508 3 Q478 15 455.5 36 Q433 57 420.5 86 Q408 115 408 149 Q408 183 420.5 212 Q433 241 455.5 262.5 Q478 284 508 296 Q538 308 573 308 Q608 308 638 296 Q668 284 690.5 263 Q713 242 725.5 213 Q738 184 738 150 Q738 116 725.5 87 Q713 58 690.5 36.5 Q668 15 638 3 Q608 -9 573 -9 Z M944 -9 Q909 -9 879 3 Q849 15 826.5 36 Q804 57 791.5 86 Q779 115 779 149 Q779 183 791.5 212 Q804 241 826.5 262.5 Q849 284 879 296 Q909 308 944 308 Q979 308 1009 296 Q1039 284 1061.5 263 Q1084 242 1096.5 213 Q1109 184 1109 150 Q1109 116 1096.5 87 Q1084 58 1061.5 36.5 Q1039 15 1009 3 Q979 -9 944 -9 Z M573 88 Q596 88 610.5 105.5 Q625 123 625 149 Q625 175 610.5 192.5 Q596 210 573 210 Q550 210 535.5 192.5 Q521 175 521 149 Q521 123 535.5 105.5 Q550 88 573 88 Z M944 88 Q966 88 981 105.5 Q996 123 996 149 Q996 175 981 192.5 Q966 210 944 210 Q922 210 907 192.5 Q892 175 892 149 Q892 123 907 105.5 Q922 88 944 88 Z " />
<glyph glyph-name="uni00BD" unicode="&#xbd;" horiz-adv-x="813" d="M117 0 L557 690 L677 690 L237 0 L117 0 Z M492 0 L492 74 Q506 84 524.5 99.5 Q543 115 561.5 130.5 Q580 146 591 156 Q627 188 643.5 212.5 Q660 237 660 256 Q660 272 651 282.5 Q642 293 626 293 Q612 293 601 283 Q590 273 587 256 L486 270 Q492 304 512.5 330.5 Q533 357 564.5 372 Q596 387 633 387 Q672 387 703.5 371 Q735 355 753 327 Q771 299 771 264 Q771 228 749.5 192 Q728 156 682 118 Q673 111 665.5 105 Q658 99 650 93 L778 93 L778 0 L492 0 Z M150 310 L150 577 L78 538 L46 627 L163 690 L260 690 L260 310 L150 310 Z " />
<glyph glyph-name="uni00BC" unicode="&#xbc;" horiz-adv-x="813" d="M133 0 L573 690 L693 690 L253 0 L133 0 Z M638 0 L638 70 L468 70 L468 152 L619 380 L743 380 L743 154 L780 154 L780 70 L743 70 L743 0 L638 0 Z M563 154 L638 154 L638 266 L563 154 Z M150 310 L150 577 L78 538 L46 627 L163 690 L260 690 L260 310 L150 310 Z " />
<glyph glyph-name="uni00BE" unicode="&#xbe;" horiz-adv-x="813" d="M139 0 L579 690 L699 690 L259 0 L139 0 Z M638 0 L638 70 L468 70 L468 152 L619 380 L743 380 L743 154 L780 154 L780 70 L743 70 L743 0 L638 0 Z M563 154 L638 154 L638 266 L563 154 Z M176 301 Q136 301 105 314.5 Q74 328 53.5 352 Q33 376 26 407 L125 422 Q129 409 141 401 Q153 393 171 393 Q191 393 202.5 403 Q214 413 214 427 Q214 441 203 450 Q192 459 173 459 L135 459 L135 545 L166 545 Q186 545 196.5 553.5 Q207 562 207 575 Q207 588 196.5 596.5 Q186 605 171 605 Q158 605 147.5 598 Q137 591 133 578 L33 594 Q39 625 59 648 Q79 671 109.5 684 Q140 697 178 697 Q218 697 248 683.5 Q278 670 295.5 646 Q313 622 313 590 Q313 563 299.5 541.5 Q286 520 260 507 Q290 495 306.5 472 Q323 449 323 418 Q323 384 304 357.5 Q285 331 251.5 316 Q218 301 176 301 Z " />
<glyph glyph-name="uni0024" unicode="&#x24;" horiz-adv-x="601" d="M244 -140 L244 -4 Q192 5 150.5 28.5 Q109 52 81 88.5 Q53 125 41 172 L197 204 Q210 166 237.5 147 Q265 128 305 128 Q344 128 368.5 147.5 Q393 167 393 198 Q393 223 372.5 239.5 Q352 256 308 265 L260 275 Q160 296 107.5 350 Q55 404 55 486 Q55 539 79 582.5 Q103 626 146 655 Q189 684 244 695 L244 820 L357 820 L357 695 Q407 686 446.5 662.5 Q486 639 512 603 Q538 567 547 521 L397 488 Q388 522 362.5 540.5 Q337 559 302 559 Q267 559 244.5 541.5 Q222 524 222 495 Q222 471 243.5 455.5 Q265 440 312 430 L360 420 Q458 400 508.5 347 Q559 294 559 214 Q559 156 533.5 109.5 Q508 63 462.5 33 Q417 3 357 -6 L357 -140 L244 -140 Z " />
<glyph glyph-name="uni00A2" unicode="&#xa2;" horiz-adv-x="601" d="M255 -136 L255 -6 Q208 4 169 27.5 Q130 51 101 86 Q72 121 56.5 165.5 Q41 210 41 261 Q41 313 56.5 358 Q72 403 101 439.5 Q130 476 169 500.5 Q208 525 255 536 L255 648 L368 648 L368 537 Q416 529 455.5 505 Q495 481 522 444 Q549 407 560 360 L402 334 Q389 365 366 382.5 Q343 400 313 400 Q282 400 258.5 382.5 Q235 365 221 334.5 Q207 304 207 264 Q207 225 220.5 195 Q234 165 258 148 Q282 131 313 131 Q344 131 369.5 148.5 Q395 166 407 197 L565 171 Q554 125 526.5 88 Q499 51 458 27 Q417 3 368 -6 L368 -136 L255 -136 Z " />
<glyph glyph-name="uni00A3" unicode="&#xa3;" horiz-adv-x="601" d="M25 0 L25 145 L80 145 L91 272 L24 272 L24 394 L101 394 L108 481 Q114 550 144 600 Q174 650 224 677.5 Q274 705 340 705 Q402 705 450.5 681.5 Q499 658 531 615 Q563 572 573 512 L416 487 Q403 555 342 555 Q310 555 291.5 535.5 Q273 516 270 479 L263 394 L418 394 L418 272 L253 272 L243 145 L570 145 L570 0 L25 0 Z " />
<glyph glyph-name="uni00A5" unicode="&#xa5;" horiz-adv-x="601" d="M77 107 L77 198 L219 198 L219 265 L77 265 L77 356 L183 356 L9 690 L193 690 L305 427 L414 690 L593 690 L419 356 L525 356 L525 265 L383 265 L383 198 L525 198 L525 107 L383 107 L383 0 L219 0 L219 107 L77 107 Z " />
<glyph glyph-name="uni20AC" unicode="&#x20ac;" horiz-adv-x="601" d="M-4 231 L17 316 L69 316 Q69 324 69 333 Q69 351 70 369 L-2 369 L19 454 L80 454 Q96 533 132 589 Q168 645 221.5 675 Q275 705 344 705 Q404 705 452.5 682.5 Q501 660 533.5 618 Q566 576 579 518 L428 493 Q418 525 395.5 542.5 Q373 560 342 560 Q305 560 280 533 Q255 506 243 454 L423 454 L402 369 L233 369 Q232 355 232 340 Q232 327 232 316 L392 316 L371 231 L242 231 Q265 130 340 130 Q373 130 397.5 148 Q422 166 432 197 L583 172 Q570 114 535.5 72.5 Q501 31 450.5 8 Q400 -15 338 -15 Q232 -15 164.5 49 Q97 113 77 231 L-4 231 Z " />
<glyph glyph-name="uni20BA" unicode="&#x20ba;" horiz-adv-x="601" d="M115 0 L115 199 L47 166 L47 267 L115 300 L115 369 L48 337 L48 438 L115 470 L115 690 L279 690 L279 549 L387 601 L387 500 L279 448 L279 378 L387 430 L387 329 L279 277 L279 150 Q336 156 370.5 194 Q405 232 415 300 L570 287 Q526 0 235 0 L115 0 Z " />
<glyph glyph-name="uni20B9" unicode="&#x20b9;" horiz-adv-x="601" d="M77 579 L77 690 L553 690 L524 579 L434 579 Q459 549 471 509 L553 509 L524 398 L475 398 Q462 332 416 286.5 Q370 241 301 224 L552 0 L333 0 L78 229 L77 229 L77 333 Q99 328 126.5 325 Q154 322 176 322 Q279 322 305 398 L77 398 L77 509 L304 509 Q291 543 261.5 561 Q232 579 188 579 L77 579 Z " />
<glyph glyph-name="uni20A1" unicode="&#x20a1;" horiz-adv-x="601" d="M122 -140 L153 41 Q98 84 68.5 160 Q39 236 39 338 Q39 436 66 511.5 Q93 587 143 634 Q193 681 262 695 L282 815 L361 815 L341 699 Q367 697 391 690 L412 815 L491 815 L464 655 Q537 600 563 491 L401 467 Q390 507 368.5 529 Q347 551 315 551 Q265 551 236.5 497.5 Q208 444 208 341 Q208 241 235.5 190 Q263 139 314 139 Q348 139 371.5 161.5 Q395 184 404 223 L566 199 Q553 140 523 96.5 Q493 53 450 27 Q407 1 353 -7 L331 -140 L252 -140 L274 -8 Q248 -5 225 3 L201 -140 L122 -140 Z " />
<glyph glyph-name="uni20AA" unicode="&#x20aa;" horiz-adv-x="933" d="M68 0 L68 690 L384 690 Q444 690 492 671 Q540 652 574.5 616.5 Q609 581 627.5 531 Q646 481 646 419 L646 226 L508 226 L508 412 Q508 472 474 503.5 Q440 535 375 535 L206 535 L206 0 L68 0 Z M287 0 L287 459 L425 459 L425 155 L595 155 Q660 155 694 186.5 Q728 218 728 278 L728 690 L866 690 L866 271 Q866 209 847.5 159 Q829 109 794.5 73.5 Q760 38 712 19 Q664 0 604 0 L287 0 Z " />
<glyph glyph-name="uni20A9" unicode="&#x20a9;" horiz-adv-x="975" d="M227 0 L177 196 L30 196 L30 291 L153 291 L136 357 L30 357 L30 452 L112 452 L51 690 L227 690 L316 211 L416 690 L565 690 L666 211 L754 690 L924 690 L863 452 L945 452 L945 357 L839 357 L822 291 L945 291 L945 196 L798 196 L748 0 L583 0 L488 444 L394 0 L227 0 Z " />
<glyph glyph-name="uni20AD" unicode="&#x20ad;" horiz-adv-x="601" d="M66 0 L66 300 L-5 300 L-5 422 L66 422 L66 690 L233 690 L233 399 L401 690 L581 690 L408 422 L545 422 L545 300 L420 300 L617 0 L417 0 L233 326 L233 0 L66 0 Z " />
<glyph glyph-name="uni20A8" unicode="&#x20a8;" horiz-adv-x="1101" d="M56 0 L56 690 L283 690 Q368 690 429 662.5 Q490 635 523 584.5 Q556 534 556 464 Q556 425 542.5 389 Q529 353 504.5 323 Q480 293 447 273 L597 0 L415 0 L303 227 Q289 226 274 226 Q262 226 248.5 227 Q235 228 220 230 L220 0 L56 0 Z M220 548 L220 371 Q235 368 250.5 366.5 Q266 365 284 365 Q335 365 363 390 Q391 415 391 459 Q391 502 363 525 Q335 548 283 548 L220 548 Z M844 -15 Q786 -15 739 3 Q692 21 659 54 Q626 87 613 132 L758 159 Q767 136 790.5 122 Q814 108 845 108 Q876 108 894.5 120.5 Q913 133 913 153 Q913 172 894.5 183 Q876 194 831 201 L807 205 Q720 220 673.5 262.5 Q627 305 627 371 Q627 410 642.5 442.5 Q658 475 686.5 498.5 Q715 522 754 535 Q793 548 840 548 Q895 548 940 530.5 Q985 513 1015.5 481 Q1046 449 1058 405 L914 378 Q905 400 885.5 412.5 Q866 425 840 425 Q812 425 795.5 413.5 Q779 402 779 383 Q779 366 795.5 356 Q812 346 859 338 L883 334 Q972 319 1019 276.5 Q1066 234 1066 168 Q1066 128 1050 94 Q1034 60 1004.5 36 Q975 12 934 -1.5 Q893 -15 844 -15 Z " />
<glyph glyph-name="uni20B1" unicode="&#x20b1;" horiz-adv-x="601" d="M87 0 L87 315 L11 315 L11 410 L87 410 L87 477 L12 477 L12 572 L87 572 L87 690 L280 690 Q362 690 420.5 659 Q479 628 509 572 L594 572 L594 477 L536 477 Q537 464 537 450 Q537 429 534 410 L594 410 L594 315 L503 315 Q472 262 416.5 232.5 Q361 203 288 203 Q268 203 248 205 L248 0 L87 0 Z M248 544 L248 352 Q260 350 270 350 Q321 350 348.5 375 Q376 400 376 448 Q376 495 350 519.5 Q324 544 276 544 L248 544 Z " />
<glyph glyph-name="uni0E3F" unicode="&#xe3f;" horiz-adv-x="601" d="M57 0 L57 690 L233 690 L233 815 L346 815 L346 688 Q407 681 450.5 658 Q494 635 517 597.5 Q540 560 540 511 Q540 466 519.5 427.5 Q499 389 459 368 Q512 348 541 304 Q570 260 570 198 Q570 143 543 101 Q516 59 465.5 33.5 Q415 8 346 2 L346 -140 L233 -140 L233 0 L57 0 Z M216 552 L216 420 L297 420 Q336 420 356.5 437 Q377 454 377 486 Q377 518 356.5 535 Q336 552 297 552 L216 552 Z M216 138 L314 138 Q359 138 382.5 157 Q406 176 406 213 Q406 250 382 269.5 Q358 289 314 289 L216 289 L216 138 Z " />
<glyph glyph-name="uni20AB" unicode="&#x20ab;" horiz-adv-x="601" d="M228 -15 Q182 -15 142.5 4.5 Q103 24 73.5 58.5 Q44 93 27.5 139 Q11 185 11 239 Q11 294 28 341.5 Q45 389 76 424.5 Q107 460 148.5 479.5 Q190 499 238 499 Q279 499 313 483 Q347 467 370 437 L370 539 L248 539 L248 634 L370 634 L370 690 L533 690 L533 634 L592 634 L592 539 L533 539 L533 0 L382 0 L378 67 Q354 29 314.5 7 Q275 -15 228 -15 Z M274 125 Q302 125 324 140.5 Q346 156 358.5 182 Q371 208 371 242 Q371 276 358.5 302 Q346 328 324 343.5 Q302 359 274 359 Q246 359 224 343.5 Q202 328 189.5 302 Q177 276 177 242 Q177 208 189.5 182 Q202 156 224 140.5 Q246 125 274 125 Z M20 -158 L20 -63 L563 -63 L563 -158 L20 -158 Z " />
<glyph glyph-name="uni00A4" unicode="&#xa4;" horiz-adv-x="601" d="M41 187 L118 265 Q105 287 98 312 Q91 337 91 364 Q91 391 98 416 Q105 441 118 463 L41 541 L123 623 L201 544 Q223 557 248.5 563.5 Q274 570 301 570 Q328 570 353.5 563.5 Q379 557 401 544 L479 623 L561 541 L484 463 Q497 441 504 416 Q511 391 511 364 Q511 337 504 312 Q497 287 484 265 L561 187 L479 105 L401 184 Q379 171 353.5 164.5 Q328 158 301 158 Q274 158 248.5 164.5 Q223 171 201 184 L123 105 L41 187 Z M227 364 Q227 340 236.5 321.5 Q246 303 263 292.5 Q280 282 301 282 Q322 282 339 292.5 Q356 303 365.5 321.5 Q375 340 375 364 Q375 388 365.5 406.5 Q356 425 339 435.5 Q322 446 301 446 Q280 446 263 435.5 Q246 425 236.5 406.5 Q227 388 227 364 Z " />
<glyph glyph-name="uni005E" unicode="&#x5e;" horiz-adv-x="601" d="M60 337 L230 690 L371 690 L541 337 L390 337 L298 538 L205 337 L60 337 Z " />
<glyph glyph-name="uni002B" unicode="&#x2b;" horiz-adv-x="601" d="M76 207 L76 343 L230 343 L230 499 L370 499 L370 343 L524 343 L524 207 L370 207 L370 46 L230 46 L230 207 L76 207 Z " />
<glyph glyph-name="uni2212" unicode="&#x2212;" horiz-adv-x="601" d="M86 205 L86 345 L515 345 L515 205 L86 205 Z " />
<glyph glyph-name="uni00B1" unicode="&#xb1;" horiz-adv-x="601" d="M234 179 L234 323 L85 323 L85 451 L234 451 L234 590 L367 590 L367 451 L516 451 L516 323 L367 323 L367 179 L234 179 Z M95 0 L95 132 L506 132 L506 0 L95 0 Z " />
<glyph glyph-name="uni003D" unicode="&#x3d;" horiz-adv-x="601" d="M78 324 L78 457 L523 457 L523 324 L78 324 Z M78 93 L78 226 L523 226 L523 93 L78 93 Z " />
<glyph glyph-name="uni00F7" unicode="&#xf7;" horiz-adv-x="601" d="M300 382 Q280 382 263.5 392 Q247 402 237 419 Q227 436 227 457 Q227 478 237 495 Q247 512 263.5 522 Q280 532 300 532 Q320 532 336.5 522 Q353 512 363 495 Q373 478 373 457 Q373 436 363 419 Q353 402 336.5 392 Q320 382 300 382 Z M78 210 L78 341 L523 341 L523 210 L78 210 Z M300 19 Q280 19 263.5 29 Q247 39 237 56 Q227 73 227 94 Q227 115 237 132 Q247 149 263.5 159 Q280 169 300 169 Q320 169 336.5 159 Q353 149 363 132 Q373 115 373 94 Q373 73 363 56 Q353 39 336.5 29 Q320 19 300 19 Z " />
<glyph glyph-name="uni003C" unicode="&#x3c;" horiz-adv-x="601" d="M490 501 L490 363 L238 278 L490 192 L490 49 L87 210 L87 340 L490 501 Z " />
<glyph glyph-name="uni003E" unicode="&#x3e;" horiz-adv-x="601" d="M111 49 L111 187 L363 272 L111 358 L111 501 L514 340 L514 210 L111 49 Z " />
<glyph glyph-name="uni007E" unicode="&#x7e;" horiz-adv-x="601" d="M389 168 Q364 168 343.5 175 Q323 182 306 192.5 Q289 203 275 213.5 Q261 224 248.5 231 Q236 238 225 238 Q194 238 185 176 L55 176 Q60 240 80 285 Q100 330 134 354 Q168 378 211 378 Q236 378 256.5 371 Q277 364 294 353.5 Q311 343 325 332.5 Q339 322 351.5 315 Q364 308 375 308 Q406 308 415 370 L545 370 Q540 306 520 261 Q500 216 466 192 Q432 168 389 168 Z " />
<glyph glyph-name="uni00AC" unicode="&#xac;" horiz-adv-x="601" d="M76 255 L76 391 L505 391 L505 94 L365 94 L365 255 L76 255 Z " />
<glyph glyph-name="uni00D7" unicode="&#xd7;" horiz-adv-x="601" d="M171 59 L82 148 L212 278 L89 400 L178 489 L300 366 L423 489 L512 400 L390 278 L519 148 L430 59 L300 188 L171 59 Z " />
<glyph glyph-name="uni005F" unicode="&#x5f;" horiz-adv-x="611" d="M30 -175 L30 -55 L581 -55 L581 -175 L30 -175 Z " />
<glyph glyph-name="uni00A7" unicode="&#xa7;" horiz-adv-x="522" d="M258 -95 Q200 -95 153 -78 Q106 -61 72.5 -28.5 Q39 4 24 48 L173 75 Q184 52 206.5 39 Q229 26 261 26 Q292 26 311 38.5 Q330 51 330 72 Q330 113 245 126 L204 132 Q121 144 76 185 Q31 226 31 290 Q31 335 53 369.5 Q75 404 116 426 Q81 448 62.5 479 Q44 510 44 550 Q44 588 60 620 Q76 652 105 675.5 Q134 699 174 712 Q214 725 262 725 Q318 725 362.5 708 Q407 691 438 659.5 Q469 628 482 584 L335 557 Q314 603 260 603 Q233 603 215.5 590.5 Q198 578 198 559 Q198 540 217 528 Q236 516 279 509 L331 501 Q411 488 454.5 448 Q498 408 498 347 Q498 302 475.5 266.5 Q453 231 410 208 Q485 163 485 82 Q485 43 468.5 10.5 Q452 -22 421.5 -45.5 Q391 -69 349.5 -82 Q308 -95 258 -95 Z M352 313 Q352 362 280 375 L265 378 Q259 379 254.5 379.5 Q250 380 246 380 Q214 380 195.5 364.5 Q177 349 177 321 Q177 272 249 259 L264 256 Q270 255 275 254.5 Q280 254 283 254 Q315 254 333.5 269.5 Q352 285 352 313 Z " />
<glyph glyph-name="uni00B6" unicode="&#xb6;" horiz-adv-x="593" d="M256 -92 L256 224 Q187 234 137 266.5 Q87 299 60.5 350 Q34 401 34 466 Q34 542 68 597 Q102 652 166 681 Q230 710 320 710 L355 710 L355 -92 L256 -92 Z M428 -92 L428 710 L528 710 L528 -92 L428 -92 Z " />
<glyph glyph-name="uni0023" unicode="&#x23;" horiz-adv-x="669" d="M126 0 L140 174 L50 174 L59 285 L149 285 L159 408 L70 408 L79 519 L168 519 L182 690 L303 690 L289 519 L408 519 L422 690 L543 690 L529 519 L619 519 L610 408 L520 408 L510 285 L599 285 L590 174 L501 174 L487 0 L366 0 L380 174 L261 174 L247 0 L126 0 Z M270 285 L389 285 L399 408 L280 408 L270 285 Z " />
<glyph glyph-name="uni007C" unicode="&#x7c;" horiz-adv-x="283" d="M70 -118 L70 766 L213 766 L213 -118 L70 -118 Z " />
<glyph glyph-name="uni2020" unicode="&#x2020;" horiz-adv-x="488" d="M169 -82 L169 415 L30 415 L30 545 L169 545 L169 710 L319 710 L319 545 L458 545 L458 415 L319 415 L319 -82 L169 -82 Z " />
<glyph glyph-name="uni2021" unicode="&#x2021;" horiz-adv-x="524" d="M48 88 L48 218 L187 218 L187 415 L48 415 L48 545 L187 545 L187 710 L337 710 L337 545 L476 545 L476 415 L337 415 L337 218 L476 218 L476 88 L337 88 L337 -82 L187 -82 L187 88 L48 88 Z " />
<glyph glyph-name="uni0026" unicode="&#x26;" horiz-adv-x="712" d="M282 -20 Q226 -20 179.5 -5 Q133 10 99.5 37.5 Q66 65 47.5 103 Q29 141 29 186 Q29 247 62 296.5 Q95 346 154 377 Q127 408 111 434 Q95 460 88 484 Q81 508 81 534 Q81 576 97 610.5 Q113 645 141.5 671 Q170 697 208.5 711 Q247 725 292 725 Q336 725 373 712 Q410 699 437.5 675 Q465 651 480 618.5 Q495 586 495 547 Q495 435 364 361 L483 239 Q498 270 507.5 308.5 Q517 347 520 392 L659 381 Q651 309 630.5 248.5 Q610 188 579 140 L715 0 L517 0 L480 38 Q438 10 388.5 -5 Q339 -20 282 -20 Z M235 533 Q235 515 246 494.5 Q257 474 283 445 Q314 461 331 484.5 Q348 508 348 534 Q348 560 332.5 576.5 Q317 593 293 593 Q268 593 251.5 575.5 Q235 558 235 533 Z M192 209 Q192 182 205.5 161.5 Q219 141 243.5 129.5 Q268 118 299 118 Q345 118 385 137 L234 293 Q214 278 203 256.5 Q192 235 192 209 Z " />
<glyph glyph-name="uni002A" unicode="&#x2a;" horiz-adv-x="440" d="M148 302 L50 372 L143 479 L7 510 L43 625 L171 571 L158 710 L282 710 L269 571 L397 625 L433 510 L297 479 L390 372 L292 302 L220 423 L148 302 Z " />
<glyph glyph-name="uni002D" unicode="&#x2d;" horiz-adv-x="372" d="M43 205 L43 345 L329 345 L329 205 L43 205 Z " />
<glyph glyph-name="uni2013" unicode="&#x2013;" horiz-adv-x="500" d="M0 215 L0 335 L500 335 L500 215 L0 215 Z " />
<glyph glyph-name="uni2014" unicode="&#x2014;" horiz-adv-x="1000" d="M0 215 L0 335 L1000 335 L1000 215 L0 215 Z " />
<glyph glyph-name="uni0028" unicode="&#x28;" horiz-adv-x="369" d="M357 -148 L203 -148 Q124 -41 83 79.5 Q42 200 42 324 Q42 448 83 568.5 Q124 689 203 796 L357 796 Q275 683 233.5 563.5 Q192 444 192 324 Q192 204 233.5 84.5 Q275 -35 357 -148 Z " />
<glyph glyph-name="uni0029" unicode="&#x29;" horiz-adv-x="369" d="M12 796 L166 796 Q246 689 286.5 568.5 Q327 448 327 324 Q327 200 286.5 79.5 Q246 -41 166 -148 L12 -148 Q94 -35 135.5 84.5 Q177 204 177 324 Q177 444 135.5 563.5 Q94 683 12 796 Z " />
<glyph glyph-name="uni002F" unicode="&#x2f;" horiz-adv-x="494" d="M6 -118 L339 766 L488 766 L155 -118 L6 -118 Z " />
<glyph glyph-name="uni005C" unicode="&#x5c;" horiz-adv-x="494" d="M339 -118 L6 766 L155 766 L488 -118 L339 -118 Z " />
<glyph glyph-name="uni005B" unicode="&#x5b;" horiz-adv-x="381" d="M70 -148 L70 796 L341 796 L341 671 L214 671 L214 -23 L341 -23 L341 -148 L70 -148 Z " />
<glyph glyph-name="uni005D" unicode="&#x5d;" horiz-adv-x="381" d="M40 -148 L40 -23 L167 -23 L167 671 L40 671 L40 796 L311 796 L311 -148 L40 -148 Z " />
<glyph glyph-name="uni007B" unicode="&#x7b;" horiz-adv-x="398" d="M358 796 L358 671 L325 671 Q282 671 261.5 649.5 Q241 628 241 583 Q241 562 244.5 537 Q248 512 252 488 Q256 464 256 444 Q256 416 246.5 391.5 Q237 367 221 349 Q205 331 185 324 Q205 317 221 299 Q237 281 246.5 256.5 Q256 232 256 204 Q256 184 252 160 Q248 136 244.5 111 Q241 86 241 65 Q241 20 261.5 -1.5 Q282 -23 325 -23 L358 -23 L358 -148 L312 -148 Q205 -148 149.5 -98 Q94 -48 94 44 Q94 75 98 105.5 Q102 136 105.5 161.5 Q109 187 109 204 Q109 233 92.5 249 Q76 265 45 265 L30 265 L30 383 L45 383 Q76 383 92.5 399 Q109 415 109 444 Q109 461 105.5 486.5 Q102 512 98 542.5 Q94 573 94 604 Q94 696 149.5 746 Q205 796 312 796 L358 796 Z " />
<glyph glyph-name="uni007D" unicode="&#x7d;" horiz-adv-x="398" d="M40 -148 L40 -23 L73 -23 Q116 -23 136.5 -1.5 Q157 20 157 65 Q157 86 153.5 111 Q150 136 146 160 Q142 184 142 204 Q142 232 151.5 256.5 Q161 281 177 299 Q193 317 213 324 Q193 331 177 349 Q161 367 151.5 391.5 Q142 416 142 444 Q142 464 146 488 Q150 512 153.5 537 Q157 562 157 583 Q157 628 136.5 649.5 Q116 671 73 671 L40 671 L40 796 L86 796 Q193 796 248.5 746 Q304 696 304 604 Q304 573 300 542.5 Q296 512 292.5 486.5 Q289 461 289 444 Q289 415 305.5 399 Q322 383 353 383 L368 383 L368 265 L353 265 Q322 265 305.5 249 Q289 233 289 204 Q289 187 292.5 161.5 Q296 136 300 105.5 Q304 75 304 44 Q304 -48 248.5 -98 Q193 -148 86 -148 L40 -148 Z " />
<glyph glyph-name="uni2022" unicode="&#x2022;" horiz-adv-x="340" d="M170 147 Q134 147 105 164 Q76 181 58.5 210.5 Q41 240 41 276 Q41 312 58.5 341 Q76 370 105 387.5 Q134 405 170 405 Q206 405 235 387.5 Q264 370 281.5 341 Q299 312 299 276 Q299 240 281.5 210.5 Q264 181 235 164 Q206 147 170 147 Z " />
<glyph glyph-name="uni2039" unicode="&#x2039;" horiz-adv-x="324" d="M152 91 L20 285 L152 479 L289 479 L162 285 L289 91 L152 91 Z " />
<glyph glyph-name="uni203A" unicode="&#x203a;" horiz-adv-x="324" d="M35 91 L162 285 L35 479 L172 479 L304 285 L172 91 L35 91 Z " />
<glyph glyph-name="uni00AB" unicode="&#xab;" horiz-adv-x="558" d="M152 91 L20 285 L152 479 L289 479 L162 285 L289 91 L152 91 Z M386 91 L254 285 L386 479 L523 479 L396 285 L523 91 L386 91 Z " />
<glyph glyph-name="uni00BB" unicode="&#xbb;" horiz-adv-x="558" d="M35 91 L162 285 L35 479 L172 479 L304 285 L172 91 L35 91 Z M269 91 L396 285 L269 479 L406 479 L538 285 L406 91 L269 91 Z " />
<glyph glyph-name="uni0040" unicode="&#x40;" horiz-adv-x="1019" d="M481 32 Q437 32 399.5 49.5 Q362 67 334 97.5 Q306 128 290.5 169.5 Q275 211 275 259 Q275 307 290.5 348.5 Q306 390 334 422 Q362 454 399 471.5 Q436 489 478 489 Q519 489 552.5 471 Q586 453 607 421 L610 478 L737 478 L737 197 Q737 172 748.5 157 Q760 142 779 142 Q802 142 818.5 161.5 Q835 181 844.5 214.5 Q854 248 854 290 Q854 359 829.5 416.5 Q805 474 760 516 Q715 558 654.5 580.5 Q594 603 522 603 Q445 603 380.5 577.5 Q316 552 268 505 Q220 458 194 395 Q168 332 168 257 Q168 198 184.5 146 Q201 94 232 51 Q263 8 305 -23 Q347 -54 399 -70.5 Q451 -87 510 -87 Q561 -87 614.5 -74 Q668 -61 714 -37 L764 -138 Q711 -170 645.5 -186 Q580 -202 512 -202 Q430 -202 358 -179.5 Q286 -157 227.5 -116 Q169 -75 127 -18.5 Q85 38 62 107.5 Q39 177 39 255 Q39 334 62.5 404.5 Q86 475 129 532.5 Q172 590 231.5 631.5 Q291 673 364 695.5 Q437 718 519 718 Q598 718 667.5 697.5 Q737 677 794.5 639 Q852 601 893.5 548.5 Q935 496 957.5 431 Q980 366 980 293 Q980 214 954.5 156 Q929 98 881.5 65.5 Q834 33 769 33 Q716 33 679 54.5 Q642 76 624 116 Q603 76 565.5 54 Q528 32 481 32 Z M507 157 Q534 157 555 170.5 Q576 184 588.5 207 Q601 230 601 260 Q601 290 588.5 313.5 Q576 337 555 350.5 Q534 364 507 364 Q480 364 459 350.5 Q438 337 426 313.5 Q414 290 414 260 Q414 230 426 207 Q438 184 459 170.5 Q480 157 507 157 Z " />
<glyph glyph-name="uni00B7" unicode="&#xb7;" horiz-adv-x="284" d="M142 177 Q114 177 91.5 190.5 Q69 204 56 226.5 Q43 249 43 276 Q43 303 56 325.5 Q69 348 91.5 361.5 Q114 375 142 375 Q170 375 192.5 361.5 Q215 348 228 325.5 Q241 303 241 276 Q241 249 228 226.5 Q215 204 192.5 190.5 Q170 177 142 177 Z " />
<glyph glyph-name="uni0041" unicode="A" horiz-adv-x="773" d="M13 0 L294 710 L479 710 L760 0 L580 0 L530 138 L237 138 L187 0 L13 0 Z M290 284 L477 284 L383 543 L290 284 Z " />
<glyph glyph-name="uni0042" unicode="B" horiz-adv-x="627" d="M60 0 L60 710 L330 710 Q404 710 458 687.5 Q512 665 541 623.5 Q570 582 570 525 Q570 475 548 436.5 Q526 398 485 376 Q540 355 570 309.5 Q600 264 600 203 Q600 141 567.5 95.5 Q535 50 475.5 25 Q416 0 335 0 L60 0 Z M226 572 L226 428 L311 428 Q354 428 377 446.5 Q400 465 400 499 Q400 534 377 553 Q354 572 311 572 L226 572 Z M226 138 L328 138 Q377 138 403 159 Q429 180 429 219 Q429 259 403 280 Q377 301 328 301 L226 301 L226 138 Z " />
<glyph glyph-name="uni0043" unicode="C" horiz-adv-x="748" d="M398 -20 Q336 -20 281.5 -2 Q227 16 182.5 49 Q138 82 106 127.5 Q74 173 56.5 229.5 Q39 286 39 350 Q39 414 56.5 471.5 Q74 529 106.5 576.5 Q139 624 184 658.5 Q229 693 283.5 711.5 Q338 730 399 730 Q456 730 507.5 714 Q559 698 600.5 668.5 Q642 639 671.5 597.5 Q701 556 716 504 L546 466 Q524 516 485 543 Q446 570 396 570 Q358 570 325.5 553.5 Q293 537 269 507.5 Q245 478 232 438.5 Q219 399 219 352 Q219 306 232 267 Q245 228 269 199.5 Q293 171 326 155.5 Q359 140 398 140 Q450 140 489.5 166.5 Q529 193 553 244 L723 206 Q703 136 656.5 85.5 Q610 35 544 7.5 Q478 -20 398 -20 Z " />
<glyph glyph-name="uni0044" unicode="D" horiz-adv-x="767" d="M60 0 L60 710 L351 710 Q434 710 503 684.5 Q572 659 622.5 612 Q673 565 700.5 500 Q728 435 728 356 Q728 277 700.5 212 Q673 147 622.5 99.5 Q572 52 502.5 26 Q433 0 349 0 L60 0 Z M234 154 L340 154 Q404 154 450.5 178.5 Q497 203 522.5 248 Q548 293 548 355 Q548 417 522.5 462 Q497 507 450.5 531.5 Q404 556 340 556 L234 556 L234 154 Z " />
<glyph glyph-name="uni0045" unicode="E" horiz-adv-x="579" d="M60 0 L60 710 L519 710 L519 565 L230 565 L230 435 L485 435 L485 290 L230 290 L230 145 L529 145 L529 0 L60 0 Z " />
<glyph glyph-name="uni0046" unicode="F" horiz-adv-x="548" d="M60 0 L60 710 L509 710 L509 560 L232 560 L232 411 L475 411 L475 262 L232 262 L232 0 L60 0 Z " />
<glyph glyph-name="uni0047" unicode="G" horiz-adv-x="807" d="M415 -20 Q350 -20 293 -2 Q236 16 189.5 49.5 Q143 83 109 129 Q75 175 57 231.5 Q39 288 39 353 Q39 418 57.5 475 Q76 532 110 579 Q144 626 191 659.5 Q238 693 295 711.5 Q352 730 417 730 Q492 730 555.5 706.5 Q619 683 666.5 638.5 Q714 594 742 531 L572 482 Q548 526 508.5 549 Q469 572 417 572 Q374 572 338 556 Q302 540 275.5 511 Q249 482 234 442.5 Q219 403 219 356 Q219 308 234 268 Q249 228 276.5 199 Q304 170 341.5 154 Q379 138 424 138 Q468 138 503.5 153 Q539 168 562 196 Q585 224 593 261 L432 261 L432 401 L772 401 L772 320 Q772 245 746 183 Q720 121 672 75.5 Q624 30 558.5 5 Q493 -20 415 -20 Z " />
<glyph glyph-name="uni0048" unicode="H" horiz-adv-x="752" d="M60 0 L60 710 L234 710 L234 444 L518 444 L518 710 L692 710 L692 0 L518 0 L518 290 L234 290 L234 0 L60 0 Z " />
<glyph glyph-name="uni0049" unicode="I" horiz-adv-x="294" d="M60 0 L60 710 L234 710 L234 0 L60 0 Z " />
<glyph glyph-name="uni004A" unicode="J" horiz-adv-x="565" d="M262 -15 Q198 -15 146.5 9 Q95 33 60 79.5 Q25 126 9 191 L179 221 Q189 182 209 161.5 Q229 141 259 141 Q295 141 316 166.5 Q337 192 337 235 L337 710 L511 710 L511 242 Q511 185 493 137.5 Q475 90 442 56 Q409 22 363.5 3.5 Q318 -15 262 -15 Z " />
<glyph glyph-name="uni004B" unicode="K" horiz-adv-x="715" d="M60 0 L60 710 L234 710 L234 398 L472 710 L672 710 L409 381 L708 0 L486 0 L234 342 L234 0 L60 0 Z " />
<glyph glyph-name="uni004C" unicode="L" horiz-adv-x="551" d="M60 0 L60 710 L234 710 L234 154 L514 154 L514 0 L60 0 Z " />
<glyph glyph-name="uni004D" unicode="M" horiz-adv-x="863" d="M60 0 L60 710 L230 710 L433 331 L637 710 L803 710 L803 0 L636 0 L636 416 L492 148 L371 148 L227 416 L227 0 L60 0 Z " />
<glyph glyph-name="uni004E" unicode="N" horiz-adv-x="742" d="M60 0 L60 710 L209 710 L515 276 L515 710 L682 710 L682 0 L533 0 L227 434 L227 0 L60 0 Z " />
<glyph glyph-name="uni004F" unicode="O" horiz-adv-x="828" d="M413 -20 Q349 -20 292 -2 Q235 16 189 49.5 Q143 83 109 129.5 Q75 176 57 233 Q39 290 39 354 Q39 418 57 475.5 Q75 533 109 579.5 Q143 626 189.5 659.5 Q236 693 293 711.5 Q350 730 415 730 Q479 730 536 712 Q593 694 639 660.5 Q685 627 719 580.5 Q753 534 771 477 Q789 420 789 356 Q789 292 771 234.5 Q753 177 719 130.5 Q685 84 638.5 50.5 Q592 17 535 -1.5 Q478 -20 413 -20 Z M414 140 Q456 140 492 156 Q528 172 554 201 Q580 230 594.5 269 Q609 308 609 355 Q609 402 594.5 441 Q580 480 554 509 Q528 538 492 554 Q456 570 414 570 Q372 570 336 554 Q300 538 274 509 Q248 480 233.5 441 Q219 402 219 355 Q219 308 233.5 269 Q248 230 274 201 Q300 172 336 156 Q372 140 414 140 Z " />
<glyph glyph-name="uni0050" unicode="P" horiz-adv-x="610" d="M60 0 L60 710 L300 710 Q390 710 454.5 681 Q519 652 553 597 Q587 542 587 464 Q587 410 566.5 365 Q546 320 508.5 287.5 Q471 255 419 237.5 Q367 220 303 220 Q269 220 231 226 L231 0 L60 0 Z M231 565 L231 370 Q266 365 295 365 Q351 365 381.5 390.5 Q412 416 412 465 Q412 513 382.5 539 Q353 565 297 565 L231 565 Z " />
<glyph glyph-name="uni0051" unicode="Q" horiz-adv-x="828" d="M406 -20 Q345 -20 290 -2 Q235 16 189 49.5 Q143 83 109.5 129.5 Q76 176 57.5 233 Q39 290 39 354 Q39 418 57.5 475.5 Q76 533 110 579.5 Q144 626 190.5 659.5 Q237 693 294 711.5 Q351 730 415 730 Q479 730 536 711.5 Q593 693 639 659.5 Q685 626 719 580.5 Q753 535 771 479.5 Q789 424 789 363 Q789 288 762 222 Q735 156 689 105 L769 5 L656 -86 L572 18 Q534 0 492.5 -10 Q451 -20 406 -20 Z M416 140 Q445 140 471 147 L364 280 L473 368 L580 235 Q594 259 601.5 288.5 Q609 318 609 352 Q609 400 594.5 440 Q580 480 554 509 Q528 538 492 554 Q456 570 414 570 Q372 570 336 554 Q300 538 274 509 Q248 480 233.5 441 Q219 402 219 355 Q219 308 233.5 269 Q248 230 274 201 Q300 172 336 156 Q372 140 416 140 Z " />
<glyph glyph-name="uni0052" unicode="R" horiz-adv-x="643" d="M60 0 L60 710 L301 710 Q391 710 456 682 Q521 654 556 601.5 Q591 549 591 477 Q591 437 576.5 400 Q562 363 536 332 Q510 301 475 280 L632 0 L442 0 L325 234 Q309 233 292 233 Q264 233 231 238 L231 0 L60 0 Z M231 565 L231 381 Q248 378 265 376.5 Q282 375 301 375 Q355 375 385.5 400.5 Q416 426 416 471 Q416 516 385 540.5 Q354 565 298 565 L231 565 Z " />
<glyph glyph-name="uni0053" unicode="S" horiz-adv-x="581" d="M289 -15 Q222 -15 166 8.5 Q110 32 72 75.5 Q34 119 20 180 L181 212 Q194 173 222 153 Q250 133 290 133 Q330 133 356 152.5 Q382 172 382 203 Q382 231 357.5 249 Q333 267 275 280 L248 286 Q140 310 89 365 Q38 420 38 497 Q38 547 57.5 588.5 Q77 630 111.5 660.5 Q146 691 193 708 Q240 725 294 725 Q358 725 410 702 Q462 679 497 636.5 Q532 594 545 535 L387 503 Q374 540 350 558.5 Q326 577 292 577 Q257 577 234 559 Q211 541 211 512 Q211 490 224.5 476.5 Q238 463 262 454.5 Q286 446 316 439 L342 433 Q450 408 503 355 Q556 302 556 220 Q556 168 536 125 Q516 82 480 50.5 Q444 19 395.5 2 Q347 -15 289 -15 Z " />
<glyph glyph-name="uni0054" unicode="T" horiz-adv-x="638" d="M232 0 L232 556 L38 556 L38 710 L600 710 L600 556 L406 556 L406 0 L232 0 Z " />
<glyph glyph-name="uni0055" unicode="U" horiz-adv-x="740" d="M368 -20 Q296 -20 238.5 2 Q181 24 139.5 65 Q98 106 76 163.5 Q54 221 54 292 L54 710 L228 710 L228 300 Q228 251 245.5 215 Q263 179 294.5 159.5 Q326 140 370 140 Q414 140 445.5 159.5 Q477 179 494.5 215 Q512 251 512 300 L512 710 L686 710 L686 292 Q686 221 663.5 163.5 Q641 106 599.5 65 Q558 24 499 2 Q440 -20 368 -20 Z " />
<glyph glyph-name="uni0056" unicode="V" horiz-adv-x="752" d="M281 0 L13 710 L206 710 L380 194 L554 710 L739 710 L471 0 L281 0 Z " />
<glyph glyph-name="uni0057" unicode="W" horiz-adv-x="1058" d="M1031 710 L819 0 L657 0 L530 481 L403 0 L239 0 L27 710 L209 710 L327 229 L454 710 L610 710 L737 230 L854 710 L1031 710 Z " />
<glyph glyph-name="uni0058" unicode="X" horiz-adv-x="708" d="M7 0 L257 375 L37 710 L230 710 L356 495 L481 710 L670 710 L450 373 L701 0 L499 0 L350 247 L203 0 L7 0 Z " />
<glyph glyph-name="uni0059" unicode="Y" horiz-adv-x="684" d="M255 0 L255 273 L8 710 L205 710 L345 435 L485 710 L676 710 L429 273 L429 0 L255 0 Z " />
<glyph glyph-name="uni005A" unicode="Z" horiz-adv-x="649" d="M34 0 L34 123 L379 564 L49 564 L49 710 L598 710 L598 587 L252 146 L620 146 L620 0 L34 0 Z " />
<glyph glyph-name="uni0061" unicode="a" horiz-adv-x="566" d="M212 -15 Q172 -15 138 -2.5 Q104 10 79 32 Q54 54 40 84.5 Q26 115 26 151 Q26 202 53.5 241 Q81 280 130.5 301.5 Q180 323 246 323 Q278 323 304 318 Q330 313 357 302 L357 329 Q357 368 334.5 391.5 Q312 415 274 415 Q246 415 223 401.5 Q200 388 191 365 L45 390 Q53 425 74 454 Q95 483 126.5 504 Q158 525 196 536.5 Q234 548 277 548 Q330 548 373.5 531.5 Q417 515 449 484.5 Q481 454 498 412.5 Q515 371 515 321 L515 0 L369 0 L365 63 Q345 28 305 6.5 Q265 -15 212 -15 Z M186 161 Q186 137 205.5 121.5 Q225 106 257 106 Q286 106 308.5 118 Q331 130 344 151 Q357 172 357 198 L357 203 Q339 211 318 215.5 Q297 220 276 220 Q234 220 210 204 Q186 188 186 161 Z " />
<glyph glyph-name="uni0062" unicode="b" horiz-adv-x="647" d="M51 0 L51 748 L214 748 L214 469 Q241 506 283 527 Q325 548 374 548 Q425 548 468.5 526.5 Q512 505 544.5 467.5 Q577 430 595.5 379 Q614 328 614 270 Q614 210 595 158 Q576 106 542 67 Q508 28 462 6.5 Q416 -15 363 -15 Q312 -15 271.5 6.5 Q231 28 205 67 L201 0 L51 0 Z M330 132 Q364 132 390.5 149.5 Q417 167 432.5 197.5 Q448 228 448 266 Q448 305 432.5 335.5 Q417 366 390.5 383.5 Q364 401 330 401 Q296 401 269.5 383.5 Q243 366 227.5 335.5 Q212 305 212 266 Q212 228 227.5 197.5 Q243 167 269.5 149.5 Q296 132 330 132 Z " />
<glyph glyph-name="uni0063" unicode="c" horiz-adv-x="581" d="M304 -15 Q246 -15 196.5 5.5 Q147 26 110.5 63.5 Q74 101 53.5 151.5 Q33 202 33 262 Q33 323 54 375 Q75 427 112 466 Q149 505 199.5 526.5 Q250 548 308 548 Q369 548 419.5 525 Q470 502 504.5 460 Q539 418 552 361 L394 335 Q381 366 358 383.5 Q335 401 305 401 Q274 401 250.5 383.5 Q227 366 213 335 Q199 304 199 265 Q199 226 212.5 196 Q226 166 250 149 Q274 132 305 132 Q336 132 361.5 149 Q387 166 399 198 L557 172 Q548 130 524.5 95.5 Q501 61 467.5 36 Q434 11 392 -2 Q350 -15 304 -15 Z " />
<glyph glyph-name="uni0064" unicode="d" horiz-adv-x="647" d="M273 -15 Q222 -15 178.5 6.5 Q135 28 102.5 65.5 Q70 103 51.5 153.5 Q33 204 33 263 Q33 323 52 375 Q71 427 105 466 Q139 505 185 526.5 Q231 548 284 548 Q331 548 369 530 Q407 512 433 478 L433 748 L596 748 L596 0 L446 0 L441 76 Q414 34 370 9.5 Q326 -15 273 -15 Z M317 132 Q350 132 377 149.5 Q404 167 419.5 197.5 Q435 228 435 267 Q435 306 419.5 336 Q404 366 377 383.5 Q350 401 317 401 Q284 401 257 383.5 Q230 366 214.5 336 Q199 306 199 267 Q199 228 214.5 197.5 Q230 167 257 149.5 Q284 132 317 132 Z " />
<glyph glyph-name="uni0065" unicode="e" horiz-adv-x="596" d="M307 -15 Q247 -15 197 5.5 Q147 26 110 64 Q73 102 53 154 Q33 206 33 268 Q33 328 53.5 379 Q74 430 110.5 468 Q147 506 196 527 Q245 548 302 548 Q362 548 411 527.5 Q460 507 495 469 Q530 431 549 378 Q568 325 568 260 L568 224 L200 224 Q210 175 238 148.5 Q266 122 309 122 Q341 122 365.5 135 Q390 148 409 174 L558 135 Q539 89 501.5 55.5 Q464 22 414 3.5 Q364 -15 307 -15 Z M302 426 Q262 426 235.5 400.5 Q209 375 200 328 L400 328 Q392 375 366.5 400.5 Q341 426 302 426 Z " />
<glyph glyph-name="uni0066" unicode="f" horiz-adv-x="422" d="M107 0 L107 401 L19 401 L19 533 L107 533 L107 561 Q107 606 122 643 Q137 680 164.5 707 Q192 734 230 748.5 Q268 763 314 763 Q346 763 373.5 756 Q401 749 424 737 L395 616 Q384 622 369 626 Q354 630 341 630 Q306 630 288 609.5 Q270 589 270 552 L270 533 L401 533 L401 401 L270 401 L270 0 L107 0 Z " />
<glyph glyph-name="uni0067" unicode="g" horiz-adv-x="637" d="M267 19 Q218 19 175.5 39.5 Q133 60 101 96.5 Q69 133 51 180 Q33 227 33 280 Q33 335 51.5 383.5 Q70 432 103.5 469 Q137 506 181.5 527 Q226 548 278 548 Q327 548 367 528 Q407 508 432 472 L436 533 L586 533 L586 70 Q586 8 566 -42.5 Q546 -93 509 -129.5 Q472 -166 421 -186 Q370 -206 308 -206 Q248 -206 198 -187.5 Q148 -169 112 -135.5 Q76 -102 56 -57 L216 -23 Q231 -46 255 -59 Q279 -72 310 -72 Q344 -72 369.5 -56.5 Q395 -41 409 -13 Q423 15 423 52 L423 93 Q396 58 355.5 38.5 Q315 19 267 19 Z M312 161 Q344 161 369.5 177 Q395 193 410 220.5 Q425 248 425 284 Q425 319 410 346.5 Q395 374 369.5 390 Q344 406 312 406 Q280 406 254.5 390 Q229 374 214 346.5 Q199 319 199 284 Q199 248 214 220.5 Q229 193 254.5 177 Q280 161 312 161 Z " />
<glyph glyph-name="uni0068" unicode="h" horiz-adv-x="601" d="M51 0 L51 748 L214 748 L214 475 Q238 509 275.5 528.5 Q313 548 361 548 Q418 548 460.5 520 Q503 492 526.5 441.5 Q550 391 550 322 L550 0 L387 0 L387 299 Q387 346 365.5 373.5 Q344 401 306 401 Q279 401 258.5 388 Q238 375 226 352.5 Q214 330 214 302 L214 0 L51 0 Z " />
<glyph glyph-name="uni0069" unicode="i" horiz-adv-x="265" d="M223 673 Q223 648 211.5 628 Q200 608 179 596 Q158 584 132 584 Q106 584 85.5 596 Q65 608 53.5 628 Q42 648 42 673 Q42 698 53.5 718 Q65 738 85.5 750 Q106 762 132 762 Q158 762 179 750 Q200 738 211.5 718 Q223 698 223 673 Z M51 0 L51 533 L214 533 L214 0 L51 0 Z " />
<glyph glyph-name="uni006A" unicode="j" horiz-adv-x="270" d="M228 673 Q228 648 216.5 628 Q205 608 184.5 596 Q164 584 137 584 Q111 584 90.5 596 Q70 608 58.5 628 Q47 648 47 673 Q47 698 58.5 718 Q70 738 90.5 750 Q111 762 137 762 Q164 762 184.5 750 Q205 738 216.5 718 Q228 698 228 673 Z M31 -206 Q-27 -206 -73 -180 L-44 -58 Q-35 -62 -22 -65.5 Q-9 -69 1 -69 Q27 -69 41.5 -51.5 Q56 -34 56 -2 L56 533 L219 533 L219 -10 Q219 -69 195.5 -113 Q172 -157 130 -181.5 Q88 -206 31 -206 Z " />
<glyph glyph-name="uni006B" unicode="k" horiz-adv-x="601" d="M51 0 L51 748 L214 748 L214 320 L390 533 L575 533 L371 297 L599 0 L398 0 L214 262 L214 0 L51 0 Z " />
<glyph glyph-name="uni006C" unicode="l" horiz-adv-x="265" d="M51 0 L51 748 L214 748 L214 0 L51 0 Z " />
<glyph glyph-name="uni006D" unicode="m" horiz-adv-x="925" d="M51 0 L51 533 L201 533 L206 463 Q228 502 267 525 Q306 548 355 548 Q407 548 447.5 522.5 Q488 497 511 451 Q536 494 581 521 Q626 548 684 548 Q742 548 785 520 Q828 492 851 440.5 Q874 389 874 318 L874 0 L711 0 L711 298 Q711 346 690 373.5 Q669 401 632 401 Q606 401 586.5 388 Q567 375 555.5 352 Q544 329 544 300 L544 0 L381 0 L381 298 Q381 346 360 373.5 Q339 401 302 401 Q276 401 256.5 388 Q237 375 225.5 352 Q214 329 214 300 L214 0 L51 0 Z " />
<glyph glyph-name="uni006E" unicode="n" horiz-adv-x="601" d="M51 0 L51 533 L201 533 L206 463 Q229 502 269 525 Q309 548 361 548 Q418 548 460.5 520 Q503 492 526.5 441.5 Q550 391 550 322 L550 0 L387 0 L387 299 Q387 346 365.5 373.5 Q344 401 306 401 Q279 401 258.5 388 Q238 375 226 352.5 Q214 330 214 302 L214 0 L51 0 Z " />
<glyph glyph-name="uni006F" unicode="o" horiz-adv-x="634" d="M315 -15 Q255 -15 203.5 6 Q152 27 113.5 65 Q75 103 54 154 Q33 205 33 265 Q33 325 54.5 376.5 Q76 428 114.5 466.5 Q153 505 205.5 526.5 Q258 548 319 548 Q379 548 430.5 527 Q482 506 520.5 467.5 Q559 429 580 378 Q601 327 601 267 Q601 207 579.5 155.5 Q558 104 519.5 66 Q481 28 428.5 6.5 Q376 -15 315 -15 Z M317 132 Q350 132 377 149.5 Q404 167 419.5 197.5 Q435 228 435 266 Q435 305 419.5 335.5 Q404 366 377 383.5 Q350 401 317 401 Q284 401 257 383.5 Q230 366 214.5 335.5 Q199 305 199 266 Q199 228 214.5 197.5 Q230 167 257 149.5 Q284 132 317 132 Z " />
<glyph glyph-name="uni0070" unicode="p" horiz-adv-x="647" d="M51 -191 L51 533 L201 533 L206 457 Q233 499 277 523.5 Q321 548 374 548 Q425 548 468.5 526.5 Q512 505 544.5 467.5 Q577 430 595.5 379 Q614 328 614 270 Q614 210 595 158 Q576 106 542 67 Q508 28 462 6.5 Q416 -15 363 -15 Q316 -15 278 3 Q240 21 214 55 L214 -191 L51 -191 Z M330 132 Q364 132 390.5 149.5 Q417 167 432.5 197.5 Q448 228 448 266 Q448 305 432.5 335.5 Q417 366 390.5 383.5 Q364 401 330 401 Q296 401 269.5 383.5 Q243 366 227.5 335.5 Q212 305 212 266 Q212 228 227.5 197.5 Q243 167 269.5 149.5 Q296 132 330 132 Z " />
<glyph glyph-name="uni0071" unicode="q" horiz-adv-x="647" d="M273 -15 Q222 -15 178.5 6.5 Q135 28 102.5 65.5 Q70 103 51.5 153.5 Q33 204 33 263 Q33 323 52 375 Q71 427 105 466 Q139 505 185 526.5 Q231 548 284 548 Q335 548 375.5 526.5 Q416 505 442 466 L446 533 L596 533 L596 -191 L433 -191 L433 64 Q406 27 364 6 Q322 -15 273 -15 Z M317 132 Q350 132 377 149.5 Q404 167 419.5 197.5 Q435 228 435 267 Q435 306 419.5 336 Q404 366 377 383.5 Q350 401 317 401 Q284 401 257 383.5 Q230 366 214.5 336 Q199 306 199 267 Q199 228 214.5 197.5 Q230 167 257 149.5 Q284 132 317 132 Z " />
<glyph glyph-name="uni0072" unicode="r" horiz-adv-x="406" d="M51 0 L51 533 L201 533 L207 448 Q226 492 260 516 Q294 540 339 540 Q352 540 365 538 Q378 536 388 531 L372 369 Q361 373 349.5 374.5 Q338 376 326 376 Q270 376 242 344.5 Q214 313 214 253 L214 0 L51 0 Z " />
<glyph glyph-name="uni0073" unicode="s" horiz-adv-x="505" d="M253 -15 Q195 -15 147 3 Q99 21 66.5 54 Q34 87 20 132 L170 159 Q179 136 201.5 122 Q224 108 254 108 Q285 108 302.5 120.5 Q320 133 320 153 Q320 172 301.5 183 Q283 194 238 201 L214 205 Q127 220 80.5 262.5 Q34 305 34 371 Q34 410 49.5 442.5 Q65 475 94 498.5 Q123 522 162.5 535 Q202 548 249 548 Q304 548 349.5 530.5 Q395 513 426 481 Q457 449 469 405 L320 378 Q311 400 292.5 412.5 Q274 425 249 425 Q221 425 205.5 413.5 Q190 402 190 383 Q190 366 207 356 Q224 346 270 338 L294 334 Q383 319 430 276.5 Q477 234 477 168 Q477 128 460.5 94 Q444 60 414.5 36 Q385 12 343.5 -1.5 Q302 -15 253 -15 Z " />
<glyph glyph-name="uni0074" unicode="t" horiz-adv-x="449" d="M294 -15 Q204 -15 155.5 34.5 Q107 84 107 177 L107 400 L19 400 L19 533 L107 533 L107 715 L270 715 L270 533 L407 533 L407 400 L270 400 L270 197 Q270 162 285 143.5 Q300 125 331 125 Q347 125 365.5 129.5 Q384 134 401 142 L426 18 Q400 4 367 -5.5 Q334 -15 294 -15 Z " />
<glyph glyph-name="uni0075" unicode="u" horiz-adv-x="598" d="M298 -15 Q224 -15 168 16.5 Q112 48 81.5 105 Q51 162 51 240 L51 533 L214 533 L214 237 Q214 188 236.5 160 Q259 132 299 132 Q339 132 361.5 160 Q384 188 384 237 L384 533 L547 533 L547 240 Q547 183 529.5 136 Q512 89 479.5 55 Q447 21 401 3 Q355 -15 298 -15 Z " />
<glyph glyph-name="uni0076" unicode="v" horiz-adv-x="576" d="M205 0 L8 533 L187 533 L290 182 L395 533 L568 533 L371 0 L205 0 Z " />
<glyph glyph-name="uni0077" unicode="w" horiz-adv-x="857" d="M184 0 L8 533 L178 533 L262 196 L358 533 L502 533 L598 194 L685 533 L849 533 L673 0 L522 0 L428 334 L333 0 L184 0 Z " />
<glyph glyph-name="uni0078" unicode="x" horiz-adv-x="597" d="M11 0 L206 282 L33 533 L219 533 L299 391 L382 533 L564 533 L391 281 L586 0 L391 0 L297 164 L201 0 L11 0 Z " />
<glyph glyph-name="uni0079" unicode="y" horiz-adv-x="576" d="M155 -206 Q126 -206 100 -200 Q74 -194 51 -181 L80 -56 Q91 -61 106.5 -65 Q122 -69 136 -69 Q163 -69 183 -52.5 Q203 -36 217 -1 L221 8 L8 533 L187 533 L297 183 L395 533 L568 533 L356 -38 Q324 -124 275 -165 Q226 -206 155 -206 Z " />
<glyph glyph-name="uni007A" unicode="z" horiz-adv-x="536" d="M37 0 L37 108 L279 402 L45 402 L45 533 L482 533 L482 425 L240 131 L499 131 L499 0 L37 0 Z " />
<glyph glyph-name="uni2122" unicode="&#x2122;" horiz-adv-x="808" d="M121 359 L121 616 L27 616 L27 710 L323 710 L323 616 L229 616 L229 359 L121 359 Z M372 359 L372 710 L481 710 L564 538 L646 710 L753 710 L753 359 L650 359 L650 548 L597 432 L528 432 L475 548 L475 359 L372 359 Z " />
<glyph glyph-name="uni00AA" unicode="&#xaa;" horiz-adv-x="432" d="M163 304 Q126 304 96.5 319 Q67 334 50 360 Q33 386 33 420 Q33 456 52 483.5 Q71 511 106 526 Q141 541 188 541 Q209 541 226 538.5 Q243 536 261 529 L261 547 Q261 572 246.5 587.5 Q232 603 210 603 Q193 603 179 593.5 Q165 584 160 570 L46 588 Q54 621 77.5 646.5 Q101 672 136 686 Q171 700 213 700 Q264 700 302.5 680 Q341 660 362.5 624 Q384 588 384 540 L384 315 L271 315 L268 354 Q253 330 226 317 Q199 304 163 304 Z M157 427 Q157 411 168.5 402 Q180 393 199 393 Q226 393 243.5 410.5 Q261 428 261 453 L261 456 Q239 466 212 466 Q187 466 172 455.5 Q157 445 157 427 Z " />
<glyph glyph-name="uni00BA" unicode="&#xba;" horiz-adv-x="465" d="M234 304 Q190 304 152.5 319 Q115 334 87.5 361 Q60 388 44.5 424 Q29 460 29 502 Q29 544 44.5 580 Q60 616 87 643 Q114 670 151 685 Q188 700 232 700 Q276 700 313.5 685 Q351 670 378.5 643 Q406 616 421.5 580 Q437 544 437 502 Q437 460 421.5 424 Q406 388 379 361 Q352 334 315 319 Q278 304 234 304 Z M233 419 Q255 419 272 429.5 Q289 440 298.5 459 Q308 478 308 502 Q308 526 298.5 545 Q289 564 272 574.5 Q255 585 233 585 Q211 585 194 574.5 Q177 564 167.5 545 Q158 526 158 502 Q158 478 167.5 459 Q177 440 194 429.5 Q211 419 233 419 Z " />
<glyph glyph-name="uni00B0" unicode="&#xb0;" horiz-adv-x="382" d="M364 585 Q364 550 350.5 520 Q337 490 313 467 Q289 444 258 431 Q227 418 191 418 Q155 418 124 431 Q93 444 69 467 Q45 490 31.5 520 Q18 550 18 585 Q18 620 31.5 650 Q45 680 69 703 Q93 726 124 739 Q155 752 191 752 Q227 752 258 739 Q289 726 313 703 Q337 680 350.5 650 Q364 620 364 585 Z M253 585 Q253 604 245 619.5 Q237 635 222.5 644 Q208 653 191 653 Q174 653 159.5 644 Q145 635 137 619.5 Q129 604 129 585 Q129 566 137 550.5 Q145 535 159.5 526 Q174 517 191 517 Q208 517 222.5 526 Q237 535 245 550.5 Q253 566 253 585 Z " />
<glyph glyph-name="uni00A9" unicode="&#xa9;" horiz-adv-x="840" d="M420 -21 Q356 -21 299 -2.5 Q242 16 195.5 50 Q149 84 115 130.5 Q81 177 62.5 234 Q44 291 44 355 Q44 419 62.5 475.5 Q81 532 115 579 Q149 626 195.5 659.5 Q242 693 299 711.5 Q356 730 420 730 Q484 730 541 711.5 Q598 693 644.5 659.5 Q691 626 725 579 Q759 532 777.5 475.5 Q796 419 796 355 Q796 291 777.5 234 Q759 177 725 130.5 Q691 84 644.5 50 Q598 16 541 -2.5 Q484 -21 420 -21 Z M420 68 Q478 68 529 90 Q580 112 618.5 151.5 Q657 191 678.5 243 Q700 295 700 355 Q700 415 678.5 466.5 Q657 518 618.5 557.5 Q580 597 529 619 Q478 641 420 641 Q362 641 311 619 Q260 597 221.5 557.5 Q183 518 161.5 466.5 Q140 415 140 355 Q140 295 161.5 243 Q183 191 221.5 151.5 Q260 112 311 90 Q362 68 420 68 Z M423 157 Q381 157 345.5 172 Q310 187 283.5 214 Q257 241 242 277 Q227 313 227 356 Q227 400 242 437 Q257 474 284.5 502 Q312 530 348.5 545.5 Q385 561 427 561 Q470 561 506.5 543.5 Q543 526 568 495 Q593 464 602 421 L485 401 Q477 423 461.5 435 Q446 447 427 447 Q406 447 390 435.5 Q374 424 364.5 404 Q355 384 355 358 Q355 320 375 295.5 Q395 271 427 271 Q447 271 464 282.5 Q481 294 489 317 L606 297 Q598 255 571.5 223.5 Q545 192 506.5 174.5 Q468 157 423 157 Z " />
<glyph glyph-name="uni00AE" unicode="&#xae;" horiz-adv-x="536" d="M268 270 Q219 270 177.5 287 Q136 304 105 334.5 Q74 365 57 406 Q40 447 40 495 Q40 543 57 584 Q74 625 105 655.5 Q136 686 177.5 703 Q219 720 268 720 Q317 720 358.5 703 Q400 686 431 655.5 Q462 625 479 584 Q496 543 496 495 Q496 447 479 406 Q462 365 431 334.5 Q400 304 358.5 287 Q317 270 268 270 Z M268 329 Q303 329 333.5 341.5 Q364 354 386.5 376.5 Q409 399 421.5 429.5 Q434 460 434 495 Q434 530 421.5 560.5 Q409 591 386.5 613.5 Q364 636 333.5 648.5 Q303 661 268 661 Q233 661 202.5 648.5 Q172 636 149.5 613.5 Q127 591 114.5 560.5 Q102 530 102 495 Q102 460 114.5 429.5 Q127 399 149.5 376.5 Q172 354 202.5 341.5 Q233 329 268 329 Z M180 381 L180 613 L266 613 Q312 613 338 592 Q364 571 364 535 Q364 516 354 498.5 Q344 481 328 470 L375 381 L304 381 L271 452 Q270 452 268 452 Q266 452 264 452 Q255 452 245 453 L245 381 L180 381 Z M245 558 L245 507 Q250 506 255 505.5 Q260 505 267 505 Q281 505 289 512.5 Q297 520 297 533 Q297 558 265 558 L245 558 Z " />
<glyph glyph-name="uni2018" unicode="&#x2018;" horiz-adv-x="257" d="M138 401 Q108 401 83 418.5 Q58 436 43.5 466 Q29 496 29 532 Q29 578 49.5 617 Q70 656 107 683 Q144 710 193 721 L216 643 Q188 636 166.5 622.5 Q145 609 132.5 590.5 Q120 572 120 551 L120 546 Q132 554 149 554 Q169 554 185.5 544 Q202 534 212 517 Q222 500 222 479 Q222 458 210.5 440 Q199 422 180 411.5 Q161 401 138 401 Z " />
<glyph glyph-name="uni2019" unicode="&#x2019;" horiz-adv-x="257" d="M119 715 Q149 715 173.5 697.5 Q198 680 213 650 Q228 620 228 584 Q228 538 207.5 499 Q187 460 150.5 433 Q114 406 64 395 L41 473 Q69 480 90.5 493.5 Q112 507 124.5 525.5 Q137 544 137 565 L137 570 Q125 562 108 562 Q88 562 71.5 572 Q55 582 45 599 Q35 616 35 637 Q35 658 46.5 676 Q58 694 77 704.5 Q96 715 119 715 Z " />
<glyph glyph-name="uni201A" unicode="&#x201a;" horiz-adv-x="263" d="M131 177 Q161 177 185.5 159.5 Q210 142 225 112 Q240 82 240 46 Q240 0 219.5 -39 Q199 -78 162.5 -105 Q126 -132 76 -143 L53 -65 Q81 -58 102.5 -44.5 Q124 -31 136.5 -12.5 Q149 6 149 27 L149 32 Q137 24 120 24 Q100 24 83.5 34 Q67 44 57 61 Q47 78 47 99 Q47 120 58.5 138 Q70 156 89 166.5 Q108 177 131 177 Z " />
<glyph glyph-name="uni201C" unicode="&#x201c;" horiz-adv-x="488" d="M138 401 Q108 401 83 418.5 Q58 436 43.5 466 Q29 496 29 532 Q29 578 49.5 617 Q70 656 107 683 Q144 710 193 721 L216 643 Q188 636 166.5 622.5 Q145 609 132.5 590.5 Q120 572 120 551 L120 546 Q132 554 149 554 Q169 554 185.5 544 Q202 534 212 517 Q222 500 222 479 Q222 458 210.5 440 Q199 422 180 411.5 Q161 401 138 401 Z M369 401 Q339 401 314 418.5 Q289 436 274.5 466 Q260 496 260 532 Q260 578 280.5 617 Q301 656 338 683 Q375 710 424 721 L447 643 Q419 636 397.5 622.5 Q376 609 363.5 590.5 Q351 572 351 551 L351 546 Q363 554 380 554 Q400 554 416.5 544 Q433 534 443 517 Q453 500 453 479 Q453 458 441.5 440 Q430 422 411 411.5 Q392 401 369 401 Z " />
<glyph glyph-name="uni201D" unicode="&#x201d;" horiz-adv-x="488" d="M119 715 Q149 715 173.5 697.5 Q198 680 213 650 Q228 620 228 584 Q228 538 207.5 499 Q187 460 150.5 433 Q114 406 64 395 L41 473 Q69 480 90.5 493.5 Q112 507 124.5 525.5 Q137 544 137 565 L137 570 Q125 562 108 562 Q88 562 71.5 572 Q55 582 45 599 Q35 616 35 637 Q35 658 46.5 676 Q58 694 77 704.5 Q96 715 119 715 Z M350 715 Q380 715 404.5 697.5 Q429 680 444 650 Q459 620 459 584 Q459 538 438.5 499 Q418 460 381.5 433 Q345 406 295 395 L272 473 Q300 480 321.5 493.5 Q343 507 355.5 525.5 Q368 544 368 565 L368 570 Q356 562 339 562 Q319 562 302.5 572 Q286 582 276 599 Q266 616 266 637 Q266 658 277.5 676 Q289 694 308 704.5 Q327 715 350 715 Z " />
<glyph glyph-name="uni201E" unicode="&#x201e;" horiz-adv-x="495" d="M131 177 Q161 177 185.5 159.5 Q210 142 225 112 Q240 82 240 46 Q240 0 219.5 -39 Q199 -78 162.5 -105 Q126 -132 76 -143 L53 -65 Q81 -58 102.5 -44.5 Q124 -31 136.5 -12.5 Q149 6 149 27 L149 32 Q137 24 120 24 Q100 24 83.5 34 Q67 44 57 61 Q47 78 47 99 Q47 120 58.5 138 Q70 156 89 166.5 Q108 177 131 177 Z M363 177 Q393 177 417.5 159.5 Q442 142 457 112 Q472 82 472 46 Q472 0 451.5 -39 Q431 -78 394.5 -105 Q358 -132 308 -143 L285 -65 Q313 -58 334.5 -44.5 Q356 -31 368.5 -12.5 Q381 6 381 27 L381 32 Q369 24 352 24 Q332 24 315.5 34 Q299 44 289 61 Q279 78 279 99 Q279 120 290.5 138 Q302 156 321 166.5 Q340 177 363 177 Z " />
<glyph glyph-name="uni0131" unicode="&#x131;" horiz-adv-x="265" d="M51 0 L51 533 L214 533 L214 0 L51 0 Z " />
<glyph glyph-name="uni0237" unicode="&#x237;" horiz-adv-x="270" d="M31 -206 Q-27 -206 -73 -180 L-44 -58 Q-35 -62 -22 -65.5 Q-9 -69 1 -69 Q27 -69 41.5 -51.5 Q56 -34 56 -2 L56 533 L219 533 L219 -10 Q219 -69 195.5 -113 Q172 -157 130 -181.5 Q88 -206 31 -206 Z " />
<glyph glyph-name="uni0132" unicode="&#x132;" horiz-adv-x="716" d="M54 313 L54 710 L228 710 L228 313 L54 313 Z M361 -20 Q284 -20 222.5 6 Q161 32 118.5 81.5 Q76 131 56 201 L224 228 Q240 186 273.5 163 Q307 140 352 140 Q394 140 424.5 159 Q455 178 471.5 213.5 Q488 249 488 297 L488 710 L662 710 L662 296 Q662 224 640.5 166 Q619 108 579.5 66.5 Q540 25 484.5 2.5 Q429 -20 361 -20 Z " />
<glyph glyph-name="uni0133" unicode="&#x133;" horiz-adv-x="601" d="M223 673 Q223 648 211.5 628 Q200 608 179 596 Q158 584 132 584 Q106 584 85.5 596 Q65 608 53.5 628 Q42 648 42 673 Q42 698 53.5 718 Q65 738 85.5 750 Q106 762 132 762 Q158 762 179 750 Q200 738 211.5 718 Q223 698 223 673 Z M559 673 Q559 648 547.5 628 Q536 608 515 596 Q494 584 468 584 Q442 584 421.5 596 Q401 608 389.5 628 Q378 648 378 673 Q378 698 389.5 718 Q401 738 421.5 750 Q442 762 468 762 Q494 762 515 750 Q536 738 547.5 718 Q559 698 559 673 Z M240 19 Q183 19 140.5 46.5 Q98 74 74.5 125 Q51 176 51 245 L51 533 L214 533 L214 268 Q214 221 235.5 193.5 Q257 166 295 166 Q322 166 343 179 Q364 192 375.5 214 Q387 236 387 265 L387 533 L550 533 L550 58 Q550 -2 531.5 -50.5 Q513 -99 478.5 -133.5 Q444 -168 396.5 -187 Q349 -206 291 -206 Q236 -206 189.5 -188 Q143 -170 108.5 -137.5 Q74 -105 56 -60 L213 -25 Q226 -48 247 -60 Q268 -72 293 -72 Q336 -72 361.5 -41 Q387 -10 387 41 L387 92 Q363 58 325.5 38.5 Q288 19 240 19 Z " />
<glyph glyph-name="uni00DE" unicode="&#xde;" horiz-adv-x="610" d="M60 0 L60 710 L231 710 L231 602 L300 602 Q390 602 454.5 573 Q519 544 553 489 Q587 434 587 356 Q587 302 566.5 257 Q546 212 508.5 179.5 Q471 147 419 129.5 Q367 112 303 112 Q269 112 231 118 L231 0 L60 0 Z M231 457 L231 262 Q266 257 295 257 Q351 257 381.5 282.5 Q412 308 412 357 Q412 405 382.5 431 Q353 457 297 457 L231 457 Z " />
<glyph glyph-name="uni00C6" unicode="&#xc6;" horiz-adv-x="1036" d="M13 0 L451 710 L976 710 L976 565 L697 565 L697 435 L942 435 L942 290 L697 290 L697 145 L986 145 L986 0 L527 0 L527 138 L285 138 L205 0 L13 0 Z M369 284 L527 284 L527 558 L369 284 Z " />
<glyph glyph-name="uni0152" unicode="&#x152;" horiz-adv-x="1027" d="M416 0 Q333 0 264 25.5 Q195 51 144.5 98 Q94 145 66.5 210 Q39 275 39 354 Q39 433 66.5 498 Q94 563 144.5 610.5 Q195 658 264.5 684 Q334 710 418 710 L967 710 L967 565 L688 565 L688 435 L933 435 L933 290 L688 290 L688 145 L977 145 L977 0 L416 0 Z M427 154 L518 154 L518 556 L427 556 Q363 556 316.5 531.5 Q270 507 244.5 462 Q219 417 219 355 Q219 293 244.5 248 Q270 203 316.5 178.5 Q363 154 427 154 Z " />
<glyph glyph-name="uni1E9E" unicode="&#x1e9e;" horiz-adv-x="671" d="M398 -15 Q365 -15 335.5 -8.5 Q306 -2 281 8 L306 148 Q321 141 340 137 Q359 133 376 133 Q404 133 426 144 Q448 155 460.5 175.5 Q473 196 473 223 Q473 263 444.5 288.5 Q416 314 360 315 L347 412 L434 544 Q418 556 397 563 Q376 570 353 570 Q316 570 288 552.5 Q260 535 244 503 Q228 471 228 426 L228 0 L54 0 L54 418 Q54 492 76 549 Q98 606 138 645.5 Q178 685 231 705 Q284 725 347 725 Q410 725 463 706.5 Q516 688 558 656.5 Q600 625 628 587 L515 417 Q556 401 586 371.5 Q616 342 632 302.5 Q648 263 648 217 Q648 168 630 126 Q612 84 579 52.5 Q546 21 500 3 Q454 -15 398 -15 Z " />
<glyph glyph-name="uni00FE" unicode="&#xfe;" horiz-adv-x="647" d="M51 -191 L51 748 L214 748 L214 469 Q241 506 283 527 Q325 548 374 548 Q425 548 468.5 526.5 Q512 505 544.5 467.5 Q577 430 595.5 379 Q614 328 614 270 Q614 210 595 158 Q576 106 542 67 Q508 28 462 6.5 Q416 -15 363 -15 Q316 -15 278 3 Q240 21 214 55 L214 -191 L51 -191 Z M330 132 Q364 132 390.5 149.5 Q417 167 432.5 197.5 Q448 228 448 266 Q448 305 432.5 335.5 Q417 366 390.5 383.5 Q364 401 330 401 Q296 401 269.5 383.5 Q243 366 227.5 335.5 Q212 305 212 266 Q212 228 227.5 197.5 Q243 167 269.5 149.5 Q296 132 330 132 Z " />
<glyph glyph-name="uni00E6" unicode="&#xe6;" horiz-adv-x="892" d="M232 -15 Q189 -15 152 -3 Q115 9 86.5 31.5 Q58 54 42 85 Q26 116 26 154 Q26 204 53 242 Q80 280 128 301.5 Q176 323 241 323 Q270 323 295 318 Q320 313 347 302 L347 329 Q347 368 326 391.5 Q305 415 269 415 Q242 415 220.5 401.5 Q199 388 191 365 L45 390 Q54 427 75 456 Q96 485 127 505.5 Q158 526 194.5 537 Q231 548 270 548 Q321 548 362.5 529.5 Q404 511 432 477 Q465 510 508.5 529 Q552 548 607 548 Q664 548 711 527.5 Q758 507 792 469 Q826 431 845 378 Q864 325 864 260 L864 224 L506 224 Q515 175 542 148.5 Q569 122 612 122 Q640 122 664 134.5 Q688 147 705 174 L854 135 Q836 89 799 55.5 Q762 22 713 3.5 Q664 -15 610 -15 Q548 -15 498.5 9 Q449 33 415 75 Q399 49 373 29 Q347 9 311.5 -3 Q276 -15 232 -15 Z M603 426 Q565 426 539.5 400.5 Q514 375 505 328 L696 328 Q689 375 664.5 400.5 Q640 426 603 426 Z M186 161 Q186 137 204 121.5 Q222 106 253 106 Q280 106 301 118 Q322 130 334.5 151 Q347 172 347 198 L347 203 Q330 211 310.5 215.5 Q291 220 270 220 Q232 220 209 204 Q186 188 186 161 Z " />
<glyph glyph-name="uni0153" unicode="&#x153;" horiz-adv-x="981" d="M306 -15 Q249 -15 199.5 6 Q150 27 112.5 65 Q75 103 54 154 Q33 205 33 265 Q33 325 54.5 376.5 Q76 428 114 466.5 Q152 505 202 526.5 Q252 548 309 548 Q369 548 418 524.5 Q467 501 501 460 Q535 501 584 524.5 Q633 548 695 548 Q752 548 799.5 527.5 Q847 507 881 469 Q915 431 934 378 Q953 325 953 260 L953 224 L595 224 Q604 175 631 148.5 Q658 122 701 122 Q730 122 753.5 134.5 Q777 147 794 174 L943 135 Q924 89 887.5 55.5 Q851 22 802 3.5 Q753 -15 698 -15 Q636 -15 585.5 8.5 Q535 32 500 74 Q465 32 415.5 8.5 Q366 -15 306 -15 Z M692 426 Q654 426 628.5 400.5 Q603 375 594 328 L785 328 Q778 375 753.5 400.5 Q729 426 692 426 Z M312 132 Q344 132 369.5 149.5 Q395 167 410 197.5 Q425 228 425 266 Q425 305 410 335.5 Q395 366 369.5 383.5 Q344 401 312 401 Q280 401 254.5 383.5 Q229 366 214 335.5 Q199 305 199 266 Q199 228 214 197.5 Q229 167 254.5 149.5 Q280 132 312 132 Z " />
<glyph glyph-name="uni00DF" unicode="&#xdf;" horiz-adv-x="623" d="M349 -10 Q326 -10 302.5 -6.5 Q279 -3 260 3 L281 137 Q291 133 303.5 131.5 Q316 130 327 130 Q356 130 377.5 142.5 Q399 155 411.5 176.5 Q424 198 424 227 Q424 256 410 278.5 Q396 301 371 313 Q346 325 313 325 L284 325 L284 455 L303 455 Q328 455 347.5 466 Q367 477 378.5 495.5 Q390 514 390 536 Q390 558 379 576 Q368 594 349 604.5 Q330 615 305 615 Q279 615 258.5 602.5 Q238 590 226 566 Q214 542 214 508 L214 0 L51 0 L51 503 Q51 561 69 608.5 Q87 656 121 690.5 Q155 725 201.5 743.5 Q248 762 305 762 Q358 762 403 746.5 Q448 731 481.5 703 Q515 675 533.5 637.5 Q552 600 552 556 Q552 508 530 467.5 Q508 427 470 401 Q506 388 533 360 Q560 332 575 294.5 Q590 257 590 213 Q590 165 572 124.5 Q554 84 521.5 53.5 Q489 23 445 6.5 Q401 -10 349 -10 Z " />
<glyph glyph-name="uni0138" unicode="&#x138;" horiz-adv-x="601" d="M51 0 L51 533 L214 533 L214 311 L390 533 L575 533 L371 289 L599 0 L398 0 L214 253 L214 0 L51 0 Z " />
<glyph glyph-name="uni014A" unicode="&#x14a;" horiz-adv-x="742" d="M60 0 L60 710 L209 710 L515 276 L515 710 L682 710 L682 14 Q682 -52 655.5 -101.5 Q629 -151 581.5 -178.5 Q534 -206 470 -206 Q430 -206 396.5 -194 Q363 -182 344 -169 L380 -48 Q393 -54 411.5 -59 Q430 -64 446 -64 Q477 -64 496 -44.5 Q515 -25 515 9 L515 26 L227 434 L227 0 L60 0 Z " />
<glyph glyph-name="uni014B" unicode="&#x14b;" horiz-adv-x="601" d="M51 0 L51 533 L201 533 L206 463 Q229 502 269 525 Q309 548 361 548 Q418 548 460.5 520 Q503 492 526.5 441.5 Q550 391 550 322 L550 -10 Q550 -69 527.5 -113 Q505 -157 464 -181.5 Q423 -206 368 -206 Q310 -206 267 -183 L295 -60 Q305 -64 316.5 -66.5 Q328 -69 337 -69 Q361 -69 374 -52 Q387 -35 387 -2 L387 299 Q387 346 365.5 373.5 Q344 401 306 401 Q279 401 258.5 388 Q238 375 226 352.5 Q214 330 214 302 L214 0 L51 0 Z " />
<glyph glyph-name="uni00D0" unicode="&#xd0;" horiz-adv-x="777" d="M70 0 L70 298 L-4 298 L-4 427 L70 427 L70 710 L361 710 Q444 710 513 684.5 Q582 659 632.5 612 Q683 565 710.5 500 Q738 435 738 356 Q738 277 710.5 212 Q683 147 632.5 99.5 Q582 52 512.5 26 Q443 0 359 0 L70 0 Z M244 154 L350 154 Q414 154 460.5 178.5 Q507 203 532.5 248 Q558 293 558 355 Q558 417 532.5 462 Q507 507 460.5 531.5 Q414 556 350 556 L244 556 L244 427 L376 427 L376 298 L244 298 L244 154 Z " />
<glyph glyph-name="uni0110" unicode="&#x110;" horiz-adv-x="777" d="M70 0 L70 298 L-4 298 L-4 427 L70 427 L70 710 L361 710 Q444 710 513 684.5 Q582 659 632.5 612 Q683 565 710.5 500 Q738 435 738 356 Q738 277 710.5 212 Q683 147 632.5 99.5 Q582 52 512.5 26 Q443 0 359 0 L70 0 Z M244 154 L350 154 Q414 154 460.5 178.5 Q507 203 532.5 248 Q558 293 558 355 Q558 417 532.5 462 Q507 507 460.5 531.5 Q414 556 350 556 L244 556 L244 427 L376 427 L376 298 L244 298 L244 154 Z " />
<glyph glyph-name="uni0126" unicode="&#x126;" horiz-adv-x="772" d="M70 0 L70 523 L-4 523 L-4 632 L70 632 L70 710 L244 710 L244 632 L528 632 L528 710 L702 710 L702 632 L776 632 L776 523 L702 523 L702 0 L528 0 L528 279 L244 279 L244 0 L70 0 Z M244 433 L528 433 L528 523 L244 523 L244 433 Z " />
<glyph glyph-name="uni0166" unicode="&#x166;" horiz-adv-x="638" d="M232 0 L232 255 L112 255 L112 384 L232 384 L232 556 L38 556 L38 710 L600 710 L600 556 L406 556 L406 384 L526 384 L526 255 L406 255 L406 0 L232 0 Z " />
<glyph glyph-name="uni0141" unicode="&#x141;" horiz-adv-x="561" d="M70 0 L70 203 L-4 150 L-4 299 L70 353 L70 710 L244 710 L244 479 L364 566 L364 416 L244 329 L244 154 L524 154 L524 0 L70 0 Z " />
<glyph glyph-name="uni00D8" unicode="&#xd8;" horiz-adv-x="828" d="M198 -35 L48 -35 L143 93 Q95 143 67 210 Q39 277 39 354 Q39 418 57 475.5 Q75 533 109 579.5 Q143 626 189.5 659.5 Q236 693 293 711.5 Q350 730 415 730 Q462 730 505.5 719.5 Q549 709 588 689 L630 745 L780 745 L685 617 Q733 567 761 500 Q789 433 789 356 Q789 292 771 234.5 Q753 177 719 130.5 Q685 84 638.5 50.5 Q592 17 535 -1.5 Q478 -20 413 -20 Q366 -20 322.5 -9.5 Q279 1 240 21 L198 -35 Z M212 355 Q212 319 220.5 287 Q229 255 245 229 L493 561 Q456 577 414 577 Q370 577 333 560.5 Q296 544 269 514.5 Q242 485 227 444 Q212 403 212 355 Z M414 133 Q458 133 495 149.5 Q532 166 559 195.5 Q586 225 601 266 Q616 307 616 355 Q616 391 607.5 423 Q599 455 583 481 L335 149 Q372 133 414 133 Z " />
<glyph glyph-name="uni00F0" unicode="&#xf0;" horiz-adv-x="640" d="M314 -15 Q254 -15 202.5 5.5 Q151 26 113 62.5 Q75 99 54 148.5 Q33 198 33 257 Q33 312 52.5 361 Q72 410 106 447 Q140 484 185.5 505 Q231 526 282 526 Q322 526 355.5 513 Q389 500 413 476 Q385 536 339 595 L241 551 L202 637 L273 669 Q239 702 203 729 L364 766 Q387 750 408 730 L494 769 L533 683 L475 657 Q514 605 543 545.5 Q572 486 587.5 423.5 Q603 361 603 300 Q603 230 582 172 Q561 114 522.5 72 Q484 30 431 7.5 Q378 -15 314 -15 Z M318 132 Q352 132 378.5 149 Q405 166 420 195 Q435 224 435 262 Q435 300 420 329 Q405 358 378.5 374.5 Q352 391 318 391 Q284 391 257 374 Q230 357 214.5 328 Q199 299 199 262 Q199 224 214.5 195 Q230 166 257 149 Q284 132 318 132 Z " />
<glyph glyph-name="uni0111" unicode="&#x111;" horiz-adv-x="647" d="M273 -15 Q222 -15 178.5 6 Q135 27 102.5 64 Q70 101 51.5 151 Q33 201 33 258 Q33 317 52 368 Q71 419 105 457 Q139 495 185 516.5 Q231 538 284 538 Q331 538 369 520 Q407 502 433 469 L433 587 L309 587 L309 686 L433 686 L433 748 L596 748 L596 686 L661 686 L661 587 L596 587 L596 0 L446 0 L441 74 Q414 33 370 9 Q326 -15 273 -15 Z M317 132 Q350 132 377 149 Q404 166 419.5 195 Q435 224 435 262 Q435 299 419.5 328 Q404 357 377 374 Q350 391 317 391 Q284 391 257 374 Q230 357 214.5 328 Q199 299 199 262 Q199 224 214.5 195 Q230 166 257 149 Q284 132 317 132 Z " />
<glyph glyph-name="uni0127" unicode="&#x127;" horiz-adv-x="601" d="M51 0 L51 587 L-14 587 L-14 686 L51 686 L51 748 L214 748 L214 686 L338 686 L338 587 L214 587 L214 465 Q238 499 275.5 518.5 Q313 538 361 538 Q418 538 460.5 510 Q503 482 526.5 431.5 Q550 381 550 312 L550 0 L387 0 L387 289 Q387 336 365.5 363.5 Q344 391 306 391 Q279 391 258.5 378 Q238 365 226 342.5 Q214 320 214 292 L214 0 L51 0 Z " />
<glyph glyph-name="uni0167" unicode="&#x167;" horiz-adv-x="449" d="M29 232 L29 326 L107 326 L107 408 L19 408 L19 533 L107 533 L107 715 L270 715 L270 533 L407 533 L407 408 L270 408 L270 326 L397 326 L397 232 L270 232 L270 194 Q270 160 285 141 Q300 122 331 122 Q347 122 365.5 127 Q384 132 401 139 L426 18 Q400 4 367 -5.5 Q334 -15 294 -15 Q204 -15 155.5 34.5 Q107 84 107 177 L107 232 L29 232 Z " />
<glyph glyph-name="uni0142" unicode="&#x142;" horiz-adv-x="316" d="M77 0 L77 246 L8 194 L8 324 L77 376 L77 748 L240 748 L240 497 L308 548 L308 418 L240 367 L240 0 L77 0 Z " />
<glyph glyph-name="uni00F8" unicode="&#xf8;" horiz-adv-x="634" d="M165 -25 L40 -25 L111 71 Q74 108 53.5 158 Q33 208 33 265 Q33 325 54.5 376.5 Q76 428 114.5 466.5 Q153 505 205.5 526.5 Q258 548 319 548 Q352 548 383 541 Q414 534 442 521 L469 558 L594 558 L523 462 Q560 424 580.5 374 Q601 324 601 267 Q601 207 579.5 155.5 Q558 104 519.5 66 Q481 28 428.5 6.5 Q376 -15 315 -15 Q282 -15 251 -8 Q220 -1 192 12 L165 -25 Z M189 266 Q189 228 203 197 L356 405 Q337 411 317 411 Q280 411 251.5 392.5 Q223 374 206 341 Q189 308 189 266 Z M317 122 Q354 122 382.5 140.5 Q411 159 428 191.5 Q445 224 445 266 Q445 304 430 336 L278 128 Q297 122 317 122 Z " />
<glyph glyph-name="uni0327" unicode="&#x327;" d="M-42 11 L57 11 L40 -38 Q71 -49 89 -72 Q107 -95 107 -124 Q107 -154 88 -177.5 Q69 -201 36.5 -214.5 Q4 -228 -39 -228 Q-61 -228 -82.5 -224 Q-104 -220 -124 -212 L-111 -131 Q-97 -136 -83.5 -138.5 Q-70 -141 -60 -141 Q-40 -141 -28.5 -133 Q-17 -125 -17 -111 Q-17 -96 -32.5 -88 Q-48 -80 -76 -80 L-42 11 Z " />
<glyph glyph-name="uni00B8" unicode="&#xb8;" horiz-adv-x="601" d="M267 11 L366 11 L349 -38 Q380 -49 398 -72 Q416 -95 416 -124 Q416 -154 397 -177.5 Q378 -201 345.5 -214.5 Q313 -228 270 -228 Q248 -228 226.5 -224 Q205 -220 185 -212 L198 -131 Q212 -136 225.5 -138.5 Q239 -141 249 -141 Q269 -141 280.5 -133 Q292 -125 292 -111 Q292 -96 276.5 -88 Q261 -80 233 -80 L267 11 Z " />
<glyph glyph-name="uni0326" unicode="&#x326;" d="M-36 -273 L-59 -214 Q-37 -207 -21.5 -195 Q-6 -183 0 -169 Q-9 -173 -20 -173 Q-45 -173 -62 -156.5 Q-79 -140 -79 -114 Q-79 -87 -58.5 -69 Q-38 -51 -6 -51 Q19 -51 38.5 -62.5 Q58 -74 69 -93.5 Q80 -113 80 -138 Q80 -184 49 -220 Q18 -256 -36 -273 Z " />
<glyph glyph-name="uni0312" unicode="&#x312;" d="M7 581 Q-18 581 -37.5 592.5 Q-57 604 -68 623.5 Q-79 643 -79 668 Q-79 714 -48 750 Q-17 786 37 803 L60 744 Q38 737 22.5 725 Q7 713 1 699 Q10 703 21 703 Q46 703 63 686.5 Q80 670 80 644 Q80 617 59 599 Q38 581 7 581 Z " />
<glyph glyph-name="uni0328" unicode="&#x328;" d="M-80 -226 Q-140 -226 -174.5 -200 Q-209 -174 -209 -132 Q-209 -93 -177.5 -55 Q-146 -17 -80 25 L0 0 Q-45 -36 -64.5 -59.5 Q-84 -83 -84 -100 Q-84 -114 -74 -122.5 Q-64 -131 -45 -131 Q-36 -131 -23.5 -128.5 Q-11 -126 -3 -122 L8 -208 Q-32 -226 -80 -226 Z " />
<glyph glyph-name="uni02DB" unicode="&#x2db;" horiz-adv-x="601" d="M321 -226 Q261 -226 226.5 -200 Q192 -174 192 -132 Q192 -93 223.5 -55 Q255 -17 321 25 L401 0 Q356 -36 336.5 -59.5 Q317 -83 317 -100 Q317 -114 327 -122.5 Q337 -131 356 -131 Q365 -131 377.5 -128.5 Q390 -126 398 -122 L409 -208 Q369 -226 321 -226 Z " />
<glyph glyph-name="uni00C7" unicode="&#xc7;" horiz-adv-x="748" d="M398 -20 Q336 -20 281.5 -2 Q227 16 182.5 49 Q138 82 106 127.5 Q74 173 56.5 229.5 Q39 286 39 350 Q39 414 56.5 471.5 Q74 529 106.5 576.5 Q139 624 184 658.5 Q229 693 283.5 711.5 Q338 730 399 730 Q456 730 507.5 714 Q559 698 600.5 668.5 Q642 639 671.5 597.5 Q701 556 716 504 L546 466 Q524 516 485 543 Q446 570 396 570 Q358 570 325.5 553.5 Q293 537 269 507.5 Q245 478 232 438.5 Q219 399 219 352 Q219 306 232 267 Q245 228 269 199.5 Q293 171 326 155.5 Q359 140 398 140 Q450 140 489.5 166.5 Q529 193 553 244 L723 206 Q703 136 656.5 85.5 Q610 35 544 7.5 Q478 -20 398 -20 Z M355 10 L459 10 L440 -44 Q471 -55 489 -79.5 Q507 -104 507 -134 Q507 -165 488 -189 Q469 -213 435.5 -227 Q402 -241 358 -241 Q335 -241 312.5 -236.5 Q290 -232 268 -225 L283 -140 Q296 -144 310 -147 Q324 -150 334 -150 Q354 -150 365.5 -142 Q377 -134 377 -120 Q377 -106 361.5 -97.5 Q346 -89 318 -89 L355 10 Z " />
<glyph glyph-name="uni015E" unicode="&#x15e;" horiz-adv-x="581" d="M289 -15 Q222 -15 166 8.5 Q110 32 72 75.5 Q34 119 20 180 L181 212 Q194 173 222 153 Q250 133 290 133 Q330 133 356 152.5 Q382 172 382 203 Q382 231 357.5 249 Q333 267 275 280 L248 286 Q140 310 89 365 Q38 420 38 497 Q38 547 57.5 588.5 Q77 630 111.5 660.5 Q146 691 193 708 Q240 725 294 725 Q358 725 410 702 Q462 679 497 636.5 Q532 594 545 535 L387 503 Q374 540 350 558.5 Q326 577 292 577 Q257 577 234 559 Q211 541 211 512 Q211 490 224.5 476.5 Q238 463 262 454.5 Q286 446 316 439 L342 433 Q450 408 503 355 Q556 302 556 220 Q556 168 536 125 Q516 82 480 50.5 Q444 19 395.5 2 Q347 -15 289 -15 Z M246 10 L350 10 L331 -44 Q362 -55 380 -79.5 Q398 -104 398 -134 Q398 -165 379 -189 Q360 -213 326.5 -227 Q293 -241 249 -241 Q226 -241 203.5 -236.5 Q181 -232 159 -225 L174 -140 Q187 -144 201 -147 Q215 -150 225 -150 Q245 -150 256.5 -142 Q268 -134 268 -120 Q268 -106 252.5 -97.5 Q237 -89 209 -89 L246 10 Z " />
<glyph glyph-name="uni0122" unicode="&#x122;" horiz-adv-x="807" d="M415 -20 Q350 -20 293 -2 Q236 16 189.5 49.5 Q143 83 109 129 Q75 175 57 231.5 Q39 288 39 353 Q39 418 57.5 475 Q76 532 110 579 Q144 626 191 659.5 Q238 693 295 711.5 Q352 730 417 730 Q492 730 555.5 706.5 Q619 683 666.5 638.5 Q714 594 742 531 L572 482 Q548 526 508.5 549 Q469 572 417 572 Q374 572 338 556 Q302 540 275.5 511 Q249 482 234 442.5 Q219 403 219 356 Q219 308 234 268 Q249 228 276.5 199 Q304 170 341.5 154 Q379 138 424 138 Q468 138 503.5 153 Q539 168 562 196 Q585 224 593 261 L432 261 L432 401 L772 401 L772 320 Q772 245 746 183 Q720 121 672 75.5 Q624 30 558.5 5 Q493 -20 415 -20 Z M381 -284 L358 -225 Q407 -209 418 -179 Q410 -183 398 -183 Q373 -183 355 -166.5 Q337 -150 337 -123 Q337 -104 347 -89.5 Q357 -75 374 -66.5 Q391 -58 413 -58 Q439 -58 458.5 -69.5 Q478 -81 489.5 -101 Q501 -121 501 -146 Q501 -193 469 -230.5 Q437 -268 381 -284 Z " />
<glyph glyph-name="uni0136" unicode="&#x136;" horiz-adv-x="715" d="M60 0 L60 710 L234 710 L234 398 L472 710 L672 710 L409 381 L708 0 L486 0 L234 342 L234 0 L60 0 Z M315 -284 L292 -225 Q341 -209 352 -179 Q344 -183 332 -183 Q307 -183 289 -166.5 Q271 -150 271 -123 Q271 -104 281 -89.5 Q291 -75 308 -66.5 Q325 -58 347 -58 Q373 -58 392.5 -69.5 Q412 -81 423.5 -101 Q435 -121 435 -146 Q435 -193 403 -230.5 Q371 -268 315 -284 Z " />
<glyph glyph-name="uni013B" unicode="&#x13b;" horiz-adv-x="551" d="M60 0 L60 710 L234 710 L234 154 L514 154 L514 0 L60 0 Z M248 -284 L225 -225 Q274 -209 285 -179 Q277 -183 265 -183 Q240 -183 222 -166.5 Q204 -150 204 -123 Q204 -104 214 -89.5 Q224 -75 241 -66.5 Q258 -58 280 -58 Q306 -58 325.5 -69.5 Q345 -81 356.5 -101 Q368 -121 368 -146 Q368 -193 336 -230.5 Q304 -268 248 -284 Z " />
<glyph glyph-name="uni0145" unicode="&#x145;" horiz-adv-x="742" d="M60 0 L60 710 L209 710 L515 276 L515 710 L682 710 L682 0 L533 0 L227 434 L227 0 L60 0 Z M333 -284 L310 -225 Q359 -209 370 -179 Q362 -183 350 -183 Q325 -183 307 -166.5 Q289 -150 289 -123 Q289 -104 299 -89.5 Q309 -75 326 -66.5 Q343 -58 365 -58 Q391 -58 410.5 -69.5 Q430 -81 441.5 -101 Q453 -121 453 -146 Q453 -193 421 -230.5 Q389 -268 333 -284 Z " />
<glyph glyph-name="uni0218" unicode="&#x218;" horiz-adv-x="581" d="M289 -15 Q222 -15 166 8.5 Q110 32 72 75.5 Q34 119 20 180 L181 212 Q194 173 222 153 Q250 133 290 133 Q330 133 356 152.5 Q382 172 382 203 Q382 231 357.5 249 Q333 267 275 280 L248 286 Q140 310 89 365 Q38 420 38 497 Q38 547 57.5 588.5 Q77 630 111.5 660.5 Q146 691 193 708 Q240 725 294 725 Q358 725 410 702 Q462 679 497 636.5 Q532 594 545 535 L387 503 Q374 540 350 558.5 Q326 577 292 577 Q257 577 234 559 Q211 541 211 512 Q211 490 224.5 476.5 Q238 463 262 454.5 Q286 446 316 439 L342 433 Q450 408 503 355 Q556 302 556 220 Q556 168 536 125 Q516 82 480 50.5 Q444 19 395.5 2 Q347 -15 289 -15 Z M251 -284 L228 -225 Q277 -209 288 -179 Q280 -183 268 -183 Q243 -183 225 -166.5 Q207 -150 207 -123 Q207 -104 217 -89.5 Q227 -75 244 -66.5 Q261 -58 283 -58 Q309 -58 328.5 -69.5 Q348 -81 359.5 -101 Q371 -121 371 -146 Q371 -193 339 -230.5 Q307 -268 251 -284 Z " />
<glyph glyph-name="uni021A" unicode="&#x21a;" horiz-adv-x="638" d="M232 0 L232 556 L38 556 L38 710 L600 710 L600 556 L406 556 L406 0 L232 0 Z M280 -284 L257 -225 Q306 -209 317 -179 Q309 -183 297 -183 Q272 -183 254 -166.5 Q236 -150 236 -123 Q236 -104 246 -89.5 Q256 -75 273 -66.5 Q290 -58 312 -58 Q338 -58 357.5 -69.5 Q377 -81 388.5 -101 Q400 -121 400 -146 Q400 -193 368 -230.5 Q336 -268 280 -284 Z " />
<glyph glyph-name="uni0104" unicode="&#x104;" horiz-adv-x="773" d="M13 0 L294 710 L479 710 L760 0 L580 0 L530 138 L237 138 L187 0 L13 0 Z M290 284 L477 284 L383 543 L290 284 Z M678 -230 Q617 -230 582 -203.5 Q547 -177 547 -132 Q547 -94 577.5 -55.5 Q608 -17 675 26 L760 0 Q715 -36 695.5 -59.5 Q676 -83 676 -100 Q676 -114 686 -122.5 Q696 -131 713 -131 Q724 -131 736 -128.5 Q748 -126 757 -122 L768 -212 Q720 -230 678 -230 Z " />
<glyph glyph-name="uni0118" unicode="&#x118;" horiz-adv-x="579" d="M60 0 L60 710 L519 710 L519 565 L230 565 L230 435 L485 435 L485 290 L230 290 L230 145 L529 145 L529 0 L60 0 Z M448 -230 Q387 -230 352 -203.5 Q317 -177 317 -132 Q317 -94 347.5 -55.5 Q378 -17 445 26 L530 0 Q485 -36 465.5 -59.5 Q446 -83 446 -100 Q446 -114 456 -122.5 Q466 -131 483 -131 Q494 -131 506 -128.5 Q518 -126 527 -122 L538 -212 Q490 -230 448 -230 Z " />
<glyph glyph-name="uni012E" unicode="&#x12e;" horiz-adv-x="294" d="M60 0 L60 710 L234 710 L234 0 L60 0 Z M152 -230 Q91 -230 56 -203.5 Q21 -177 21 -132 Q21 -94 51.5 -55.5 Q82 -17 149 26 L234 0 Q189 -36 169.5 -59.5 Q150 -83 150 -100 Q150 -114 160 -122.5 Q170 -131 187 -131 Q198 -131 210 -128.5 Q222 -126 231 -122 L242 -212 Q194 -230 152 -230 Z " />
<glyph glyph-name="uni0172" unicode="&#x172;" horiz-adv-x="740" d="M368 -20 Q296 -20 238.5 2 Q181 24 139.5 65 Q98 106 76 163.5 Q54 221 54 292 L54 710 L228 710 L228 300 Q228 251 245.5 215 Q263 179 294.5 159.5 Q326 140 370 140 Q414 140 445.5 159.5 Q477 179 494.5 215 Q512 251 512 300 L512 710 L686 710 L686 292 Q686 221 663.5 163.5 Q641 106 599.5 65 Q558 24 499 2 Q440 -20 368 -20 Z M491 -230 Q451 -230 421.5 -217.5 Q392 -205 376 -182.5 Q360 -160 360 -130 Q360 -90 391 -48.5 Q422 -7 489 40 L590 59 Q537 6 513 -31 Q489 -68 489 -93 Q489 -110 499 -120.5 Q509 -131 528 -131 Q536 -131 548.5 -128.5 Q561 -126 570 -122 L581 -212 Q536 -230 491 -230 Z " />
<glyph glyph-name="uni00E7" unicode="&#xe7;" horiz-adv-x="581" d="M304 -15 Q246 -15 196.5 5.5 Q147 26 110.5 63.5 Q74 101 53.5 151.5 Q33 202 33 262 Q33 323 54 375 Q75 427 112 466 Q149 505 199.5 526.5 Q250 548 308 548 Q369 548 419.5 525 Q470 502 504.5 460 Q539 418 552 361 L394 335 Q381 366 358 383.5 Q335 401 305 401 Q274 401 250.5 383.5 Q227 366 213 335 Q199 304 199 265 Q199 226 212.5 196 Q226 166 250 149 Q274 132 305 132 Q336 132 361.5 149 Q387 166 399 198 L557 172 Q548 130 524.5 95.5 Q501 61 467.5 36 Q434 11 392 -2 Q350 -15 304 -15 Z M264 11 L363 11 L346 -38 Q377 -49 395 -72 Q413 -95 413 -124 Q413 -154 394 -177.5 Q375 -201 342.5 -214.5 Q310 -228 267 -228 Q245 -228 223.5 -224 Q202 -220 182 -212 L195 -131 Q209 -136 222.5 -138.5 Q236 -141 246 -141 Q266 -141 277.5 -133 Q289 -125 289 -111 Q289 -96 273.5 -88 Q258 -80 230 -80 L264 11 Z " />
<glyph glyph-name="uni015F" unicode="&#x15f;" horiz-adv-x="505" d="M253 -15 Q195 -15 147 3 Q99 21 66.5 54 Q34 87 20 132 L170 159 Q179 136 201.5 122 Q224 108 254 108 Q285 108 302.5 120.5 Q320 133 320 153 Q320 172 301.5 183 Q283 194 238 201 L214 205 Q127 220 80.5 262.5 Q34 305 34 371 Q34 410 49.5 442.5 Q65 475 94 498.5 Q123 522 162.5 535 Q202 548 249 548 Q304 548 349.5 530.5 Q395 513 426 481 Q457 449 469 405 L320 378 Q311 400 292.5 412.5 Q274 425 249 425 Q221 425 205.5 413.5 Q190 402 190 383 Q190 366 207 356 Q224 346 270 338 L294 334 Q383 319 430 276.5 Q477 234 477 168 Q477 128 460.5 94 Q444 60 414.5 36 Q385 12 343.5 -1.5 Q302 -15 253 -15 Z M209 11 L308 11 L291 -38 Q322 -49 340 -72 Q358 -95 358 -124 Q358 -154 339 -177.5 Q320 -201 287.5 -214.5 Q255 -228 212 -228 Q190 -228 168.5 -224 Q147 -220 127 -212 L140 -131 Q154 -136 167.5 -138.5 Q181 -141 191 -141 Q211 -141 222.5 -133 Q234 -125 234 -111 Q234 -96 218.5 -88 Q203 -80 175 -80 L209 11 Z " />
<glyph glyph-name="uni0123" unicode="&#x123;" horiz-adv-x="637" d="M267 19 Q218 19 175.5 39.5 Q133 60 101 96.5 Q69 133 51 180 Q33 227 33 280 Q33 335 51.5 383.5 Q70 432 103.5 469 Q137 506 181.5 527 Q226 548 278 548 Q327 548 367 528 Q407 508 432 472 L436 533 L586 533 L586 70 Q586 8 566 -42.5 Q546 -93 509 -129.5 Q472 -166 421 -186 Q370 -206 308 -206 Q248 -206 198 -187.5 Q148 -169 112 -135.5 Q76 -102 56 -57 L216 -23 Q231 -46 255 -59 Q279 -72 310 -72 Q344 -72 369.5 -56.5 Q395 -41 409 -13 Q423 15 423 52 L423 93 Q396 58 355.5 38.5 Q315 19 267 19 Z M312 161 Q344 161 369.5 177 Q395 193 410 220.5 Q425 248 425 284 Q425 319 410 346.5 Q395 374 369.5 390 Q344 406 312 406 Q280 406 254.5 390 Q229 374 214 346.5 Q199 319 199 284 Q199 248 214 220.5 Q229 193 254.5 177 Q280 161 312 161 Z M316 581 Q291 581 271.5 592.5 Q252 604 241 623.5 Q230 643 230 668 Q230 714 261 750 Q292 786 346 803 L369 744 Q347 737 331.5 725 Q316 713 310 699 Q319 703 330 703 Q355 703 372 686.5 Q389 670 389 644 Q389 617 368 599 Q347 581 316 581 Z " />
<glyph glyph-name="uni0137" unicode="&#x137;" horiz-adv-x="601" d="M51 0 L51 748 L214 748 L214 320 L390 533 L575 533 L371 297 L599 0 L398 0 L214 262 L214 0 L51 0 Z M259 -273 L236 -214 Q258 -207 273.5 -195 Q289 -183 295 -169 Q286 -173 275 -173 Q250 -173 233 -156.5 Q216 -140 216 -114 Q216 -87 236.5 -69 Q257 -51 289 -51 Q314 -51 333.5 -62.5 Q353 -74 364 -93.5 Q375 -113 375 -138 Q375 -184 344 -220 Q313 -256 259 -273 Z " />
<glyph glyph-name="uni013C" unicode="&#x13c;" horiz-adv-x="265" d="M51 0 L51 748 L214 748 L214 0 L51 0 Z M95 -273 L72 -214 Q94 -207 109.5 -195 Q125 -183 131 -169 Q122 -173 111 -173 Q86 -173 69 -156.5 Q52 -140 52 -114 Q52 -87 72.5 -69 Q93 -51 125 -51 Q150 -51 169.5 -62.5 Q189 -74 200 -93.5 Q211 -113 211 -138 Q211 -184 180 -220 Q149 -256 95 -273 Z " />
<glyph glyph-name="uni0146" unicode="&#x146;" horiz-adv-x="601" d="M51 0 L51 533 L201 533 L206 463 Q229 502 269 525 Q309 548 361 548 Q418 548 460.5 520 Q503 492 526.5 441.5 Q550 391 550 322 L550 0 L387 0 L387 299 Q387 346 365.5 373.5 Q344 401 306 401 Q279 401 258.5 388 Q238 375 226 352.5 Q214 330 214 302 L214 0 L51 0 Z M264 -273 L241 -214 Q263 -207 278.5 -195 Q294 -183 300 -169 Q291 -173 280 -173 Q255 -173 238 -156.5 Q221 -140 221 -114 Q221 -87 241.5 -69 Q262 -51 294 -51 Q319 -51 338.5 -62.5 Q358 -74 369 -93.5 Q380 -113 380 -138 Q380 -184 349 -220 Q318 -256 264 -273 Z " />
<glyph glyph-name="uni0219" unicode="&#x219;" horiz-adv-x="505" d="M253 -15 Q195 -15 147 3 Q99 21 66.5 54 Q34 87 20 132 L170 159 Q179 136 201.5 122 Q224 108 254 108 Q285 108 302.5 120.5 Q320 133 320 153 Q320 172 301.5 183 Q283 194 238 201 L214 205 Q127 220 80.5 262.5 Q34 305 34 371 Q34 410 49.5 442.5 Q65 475 94 498.5 Q123 522 162.5 535 Q202 548 249 548 Q304 548 349.5 530.5 Q395 513 426 481 Q457 449 469 405 L320 378 Q311 400 292.5 412.5 Q274 425 249 425 Q221 425 205.5 413.5 Q190 402 190 383 Q190 366 207 356 Q224 346 270 338 L294 334 Q383 319 430 276.5 Q477 234 477 168 Q477 128 460.5 94 Q444 60 414.5 36 Q385 12 343.5 -1.5 Q302 -15 253 -15 Z M215 -273 L192 -214 Q214 -207 229.5 -195 Q245 -183 251 -169 Q242 -173 231 -173 Q206 -173 189 -156.5 Q172 -140 172 -114 Q172 -87 192.5 -69 Q213 -51 245 -51 Q270 -51 289.5 -62.5 Q309 -74 320 -93.5 Q331 -113 331 -138 Q331 -184 300 -220 Q269 -256 215 -273 Z " />
<glyph glyph-name="uni021B" unicode="&#x21b;" horiz-adv-x="449" d="M294 -15 Q204 -15 155.5 34.5 Q107 84 107 177 L107 400 L19 400 L19 533 L107 533 L107 715 L270 715 L270 533 L407 533 L407 400 L270 400 L270 197 Q270 162 285 143.5 Q300 125 331 125 Q347 125 365.5 129.5 Q384 134 401 142 L426 18 Q400 4 367 -5.5 Q334 -15 294 -15 Z M219 -273 L196 -214 Q218 -207 233.5 -195 Q249 -183 255 -169 Q246 -173 235 -173 Q210 -173 193 -156.5 Q176 -140 176 -114 Q176 -87 196.5 -69 Q217 -51 249 -51 Q274 -51 293.5 -62.5 Q313 -74 324 -93.5 Q335 -113 335 -138 Q335 -184 304 -220 Q273 -256 219 -273 Z " />
<glyph glyph-name="uni0105" unicode="&#x105;" horiz-adv-x="566" d="M212 -15 Q172 -15 138 -2.5 Q104 10 79 32 Q54 54 40 84.5 Q26 115 26 151 Q26 202 53.5 241 Q81 280 130.5 301.5 Q180 323 246 323 Q278 323 304 318 Q330 313 357 302 L357 329 Q357 368 334.5 391.5 Q312 415 274 415 Q246 415 223 401.5 Q200 388 191 365 L45 390 Q53 425 74 454 Q95 483 126.5 504 Q158 525 196 536.5 Q234 548 277 548 Q330 548 373.5 531.5 Q417 515 449 484.5 Q481 454 498 412.5 Q515 371 515 321 L515 0 L369 0 L365 63 Q345 28 305 6.5 Q265 -15 212 -15 Z M186 161 Q186 137 205.5 121.5 Q225 106 257 106 Q286 106 308.5 118 Q331 130 344 151 Q357 172 357 198 L357 203 Q339 211 318 215.5 Q297 220 276 220 Q234 220 210 204 Q186 188 186 161 Z M435 -226 Q375 -226 340.5 -200 Q306 -174 306 -132 Q306 -93 337.5 -55 Q369 -17 435 25 L515 0 Q470 -36 450.5 -59.5 Q431 -83 431 -100 Q431 -114 441 -122.5 Q451 -131 470 -131 Q479 -131 491.5 -128.5 Q504 -126 512 -122 L523 -208 Q483 -226 435 -226 Z " />
<glyph glyph-name="uni0119" unicode="&#x119;" horiz-adv-x="596" d="M307 -15 Q247 -15 197 5.5 Q147 26 110 64 Q73 102 53 154 Q33 206 33 268 Q33 328 53.5 379 Q74 430 110.5 468 Q147 506 196 527 Q245 548 302 548 Q362 548 411 527.5 Q460 507 495 469 Q530 431 549 378 Q568 325 568 260 L568 224 L200 224 Q210 175 238 148.5 Q266 122 309 122 Q341 122 365.5 135 Q390 148 409 174 L558 135 Q539 89 501.5 55.5 Q464 22 414 3.5 Q364 -15 307 -15 Z M302 426 Q262 426 235.5 400.5 Q209 375 200 328 L400 328 Q392 375 366.5 400.5 Q341 426 302 426 Z M402 -226 Q362 -226 333.5 -213.5 Q305 -201 289 -179 Q273 -157 273 -128 Q273 -89 304 -48.5 Q335 -8 402 38 L499 57 Q445 2 421.5 -33 Q398 -68 398 -93 Q398 -111 408 -121 Q418 -131 438 -131 Q447 -131 458.5 -128.5 Q470 -126 479 -122 L490 -208 Q446 -226 402 -226 Z " />
<glyph glyph-name="uni012F" unicode="&#x12f;" horiz-adv-x="265" d="M223 673 Q223 648 211.5 628 Q200 608 179 596 Q158 584 132 584 Q106 584 85.5 596 Q65 608 53.5 628 Q42 648 42 673 Q42 698 53.5 718 Q65 738 85.5 750 Q106 762 132 762 Q158 762 179 750 Q200 738 211.5 718 Q223 698 223 673 Z M51 0 L51 533 L214 533 L214 0 L51 0 Z M134 -226 Q74 -226 39.5 -200 Q5 -174 5 -132 Q5 -93 36.5 -55 Q68 -17 134 25 L214 0 Q169 -36 149.5 -59.5 Q130 -83 130 -100 Q130 -114 140 -122.5 Q150 -131 169 -131 Q178 -131 190.5 -128.5 Q203 -126 211 -122 L222 -208 Q182 -226 134 -226 Z " />
<glyph glyph-name="uni0173" unicode="&#x173;" horiz-adv-x="598" d="M298 -15 Q224 -15 168 16.5 Q112 48 81.5 105 Q51 162 51 240 L51 533 L214 533 L214 237 Q214 188 236.5 160 Q259 132 299 132 Q339 132 361.5 160 Q384 188 384 237 L384 533 L547 533 L547 240 Q547 183 529.5 136 Q512 89 479.5 55 Q447 21 401 3 Q355 -15 298 -15 Z M383 -226 Q343 -226 314.5 -213.5 Q286 -201 270 -179 Q254 -157 254 -128 Q254 -89 285 -48.5 Q316 -8 383 38 L480 57 Q426 2 402.5 -33 Q379 -68 379 -93 Q379 -111 389 -121 Q399 -131 419 -131 Q428 -131 439.5 -128.5 Q451 -126 460 -122 L471 -208 Q427 -226 383 -226 Z " />
<glyph glyph-name="uni0301" unicode="&#x301;" d="M-103 605 L9 748 L189 748 L49 605 L-103 605 Z " />
<glyph glyph-name="uni00B4" unicode="&#xb4;" horiz-adv-x="601" d="M154 605 L266 748 L446 748 L306 605 L154 605 Z " />
<glyph glyph-name="uni030B" unicode="&#x30b;" d="M-176 605 L-80 748 L73 748 L-51 605 L-176 605 Z M25 605 L121 748 L274 748 L150 605 L25 605 Z " />
<glyph glyph-name="uni02DD" unicode="&#x2dd;" horiz-adv-x="601" d="M75 605 L171 748 L324 748 L200 605 L75 605 Z M276 605 L372 748 L525 748 L401 605 L276 605 Z " />
<glyph glyph-name="uni00C1" unicode="&#xc1;" horiz-adv-x="773" d="M13 0 L294 710 L479 710 L760 0 L580 0 L530 138 L237 138 L187 0 L13 0 Z M290 284 L477 284 L383 543 L290 284 Z M263 782 L402 920 L604 920 L429 782 L263 782 Z " />
<glyph glyph-name="uni0106" unicode="&#x106;" horiz-adv-x="748" d="M398 -20 Q336 -20 281.5 -2 Q227 16 182.5 49 Q138 82 106 127.5 Q74 173 56.5 229.5 Q39 286 39 350 Q39 414 56.5 471.5 Q74 529 106.5 576.5 Q139 624 184 658.5 Q229 693 283.5 711.5 Q338 730 399 730 Q456 730 507.5 714 Q559 698 600.5 668.5 Q642 639 671.5 597.5 Q701 556 716 504 L546 466 Q524 516 485 543 Q446 570 396 570 Q358 570 325.5 553.5 Q293 537 269 507.5 Q245 478 232 438.5 Q219 399 219 352 Q219 306 232 267 Q245 228 269 199.5 Q293 171 326 155.5 Q359 140 398 140 Q450 140 489.5 166.5 Q529 193 553 244 L723 206 Q703 136 656.5 85.5 Q610 35 544 7.5 Q478 -20 398 -20 Z M274 782 L413 920 L615 920 L440 782 L274 782 Z " />
<glyph glyph-name="uni00C9" unicode="&#xc9;" horiz-adv-x="579" d="M60 0 L60 710 L519 710 L519 565 L230 565 L230 435 L485 435 L485 290 L230 290 L230 145 L529 145 L529 0 L60 0 Z M166 782 L305 920 L507 920 L332 782 L166 782 Z " />
<glyph glyph-name="uni00CD" unicode="&#xcd;" horiz-adv-x="294" d="M60 0 L60 710 L234 710 L234 0 L60 0 Z M24 782 L163 920 L365 920 L190 782 L24 782 Z " />
<glyph glyph-name="uni0139" unicode="&#x139;" horiz-adv-x="551" d="M60 0 L60 710 L234 710 L234 154 L514 154 L514 0 L60 0 Z M24 782 L163 920 L365 920 L190 782 L24 782 Z " />
<glyph glyph-name="uni0143" unicode="&#x143;" horiz-adv-x="742" d="M60 0 L60 710 L209 710 L515 276 L515 710 L682 710 L682 0 L533 0 L227 434 L227 0 L60 0 Z M248 782 L387 920 L589 920 L414 782 L248 782 Z " />
<glyph glyph-name="uni00D3" unicode="&#xd3;" horiz-adv-x="828" d="M413 -20 Q349 -20 292 -2 Q235 16 189 49.5 Q143 83 109 129.5 Q75 176 57 233 Q39 290 39 354 Q39 418 57 475.5 Q75 533 109 579.5 Q143 626 189.5 659.5 Q236 693 293 711.5 Q350 730 415 730 Q479 730 536 712 Q593 694 639 660.5 Q685 627 719 580.5 Q753 534 771 477 Q789 420 789 356 Q789 292 771 234.5 Q753 177 719 130.5 Q685 84 638.5 50.5 Q592 17 535 -1.5 Q478 -20 413 -20 Z M414 140 Q456 140 492 156 Q528 172 554 201 Q580 230 594.5 269 Q609 308 609 355 Q609 402 594.5 441 Q580 480 554 509 Q528 538 492 554 Q456 570 414 570 Q372 570 336 554 Q300 538 274 509 Q248 480 233.5 441 Q219 402 219 355 Q219 308 233.5 269 Q248 230 274 201 Q300 172 336 156 Q372 140 414 140 Z M291 782 L430 920 L632 920 L457 782 L291 782 Z " />
<glyph glyph-name="uni0154" unicode="&#x154;" horiz-adv-x="643" d="M60 0 L60 710 L301 710 Q391 710 456 682 Q521 654 556 601.5 Q591 549 591 477 Q591 437 576.5 400 Q562 363 536 332 Q510 301 475 280 L632 0 L442 0 L325 234 Q309 233 292 233 Q264 233 231 238 L231 0 L60 0 Z M231 565 L231 381 Q248 378 265 376.5 Q282 375 301 375 Q355 375 385.5 400.5 Q416 426 416 471 Q416 516 385 540.5 Q354 565 298 565 L231 565 Z M173 782 L312 920 L514 920 L339 782 L173 782 Z " />
<glyph glyph-name="uni015A" unicode="&#x15a;" horiz-adv-x="581" d="M289 -15 Q222 -15 166 8.5 Q110 32 72 75.5 Q34 119 20 180 L181 212 Q194 173 222 153 Q250 133 290 133 Q330 133 356 152.5 Q382 172 382 203 Q382 231 357.5 249 Q333 267 275 280 L248 286 Q140 310 89 365 Q38 420 38 497 Q38 547 57.5 588.5 Q77 630 111.5 660.5 Q146 691 193 708 Q240 725 294 725 Q358 725 410 702 Q462 679 497 636.5 Q532 594 545 535 L387 503 Q374 540 350 558.5 Q326 577 292 577 Q257 577 234 559 Q211 541 211 512 Q211 490 224.5 476.5 Q238 463 262 454.5 Q286 446 316 439 L342 433 Q450 408 503 355 Q556 302 556 220 Q556 168 536 125 Q516 82 480 50.5 Q444 19 395.5 2 Q347 -15 289 -15 Z M170 782 L309 920 L511 920 L336 782 L170 782 Z " />
<glyph glyph-name="uni00DA" unicode="&#xda;" horiz-adv-x="740" d="M368 -20 Q296 -20 238.5 2 Q181 24 139.5 65 Q98 106 76 163.5 Q54 221 54 292 L54 710 L228 710 L228 300 Q228 251 245.5 215 Q263 179 294.5 159.5 Q326 140 370 140 Q414 140 445.5 159.5 Q477 179 494.5 215 Q512 251 512 300 L512 710 L686 710 L686 292 Q686 221 663.5 163.5 Q641 106 599.5 65 Q558 24 499 2 Q440 -20 368 -20 Z M247 782 L386 920 L588 920 L413 782 L247 782 Z " />
<glyph glyph-name="uni1E82" unicode="&#x1e82;" horiz-adv-x="1058" d="M1031 710 L819 0 L657 0 L530 481 L403 0 L239 0 L27 710 L209 710 L327 229 L454 710 L610 710 L737 230 L854 710 L1031 710 Z M406 782 L545 920 L747 920 L572 782 L406 782 Z " />
<glyph glyph-name="uni00DD" unicode="&#xdd;" horiz-adv-x="684" d="M255 0 L255 273 L8 710 L205 710 L345 435 L485 710 L676 710 L429 273 L429 0 L255 0 Z M219 782 L358 920 L560 920 L385 782 L219 782 Z " />
<glyph glyph-name="uni0179" unicode="&#x179;" horiz-adv-x="649" d="M34 0 L34 123 L379 564 L49 564 L49 710 L598 710 L598 587 L252 146 L620 146 L620 0 L34 0 Z M200 782 L339 920 L541 920 L366 782 L200 782 Z " />
<glyph glyph-name="uni0150" unicode="&#x150;" horiz-adv-x="828" d="M413 -20 Q349 -20 292 -2 Q235 16 189 49.5 Q143 83 109 129.5 Q75 176 57 233 Q39 290 39 354 Q39 418 57 475.5 Q75 533 109 579.5 Q143 626 189.5 659.5 Q236 693 293 711.5 Q350 730 415 730 Q479 730 536 712 Q593 694 639 660.5 Q685 627 719 580.5 Q753 534 771 477 Q789 420 789 356 Q789 292 771 234.5 Q753 177 719 130.5 Q685 84 638.5 50.5 Q592 17 535 -1.5 Q478 -20 413 -20 Z M414 140 Q456 140 492 156 Q528 172 554 201 Q580 230 594.5 269 Q609 308 609 355 Q609 402 594.5 441 Q580 480 554 509 Q528 538 492 554 Q456 570 414 570 Q372 570 336 554 Q300 538 274 509 Q248 480 233.5 441 Q219 402 219 355 Q219 308 233.5 269 Q248 230 274 201 Q300 172 336 156 Q372 140 414 140 Z M182 782 L314 920 L504 920 L336 782 L182 782 Z M430 782 L562 920 L752 920 L584 782 L430 782 Z " />
<glyph glyph-name="uni0170" unicode="&#x170;" horiz-adv-x="740" d="M368 -20 Q296 -20 238.5 2 Q181 24 139.5 65 Q98 106 76 163.5 Q54 221 54 292 L54 710 L228 710 L228 300 Q228 251 245.5 215 Q263 179 294.5 159.5 Q326 140 370 140 Q414 140 445.5 159.5 Q477 179 494.5 215 Q512 251 512 300 L512 710 L686 710 L686 292 Q686 221 663.5 163.5 Q641 106 599.5 65 Q558 24 499 2 Q440 -20 368 -20 Z M138 782 L270 920 L460 920 L292 782 L138 782 Z M386 782 L518 920 L708 920 L540 782 L386 782 Z " />
<glyph glyph-name="uni00E1" unicode="&#xe1;" horiz-adv-x="566" d="M212 -15 Q172 -15 138 -2.5 Q104 10 79 32 Q54 54 40 84.5 Q26 115 26 151 Q26 202 53.5 241 Q81 280 130.5 301.5 Q180 323 246 323 Q278 323 304 318 Q330 313 357 302 L357 329 Q357 368 334.5 391.5 Q312 415 274 415 Q246 415 223 401.5 Q200 388 191 365 L45 390 Q53 425 74 454 Q95 483 126.5 504 Q158 525 196 536.5 Q234 548 277 548 Q330 548 373.5 531.5 Q417 515 449 484.5 Q481 454 498 412.5 Q515 371 515 321 L515 0 L369 0 L365 63 Q345 28 305 6.5 Q265 -15 212 -15 Z M186 161 Q186 137 205.5 121.5 Q225 106 257 106 Q286 106 308.5 118 Q331 130 344 151 Q357 172 357 198 L357 203 Q339 211 318 215.5 Q297 220 276 220 Q234 220 210 204 Q186 188 186 161 Z M178 605 L290 748 L470 748 L330 605 L178 605 Z " />
<glyph glyph-name="uni0107" unicode="&#x107;" horiz-adv-x="581" d="M304 -15 Q246 -15 196.5 5.5 Q147 26 110.5 63.5 Q74 101 53.5 151.5 Q33 202 33 262 Q33 323 54 375 Q75 427 112 466 Q149 505 199.5 526.5 Q250 548 308 548 Q369 548 419.5 525 Q470 502 504.5 460 Q539 418 552 361 L394 335 Q381 366 358 383.5 Q335 401 305 401 Q274 401 250.5 383.5 Q227 366 213 335 Q199 304 199 265 Q199 226 212.5 196 Q226 166 250 149 Q274 132 305 132 Q336 132 361.5 149 Q387 166 399 198 L557 172 Q548 130 524.5 95.5 Q501 61 467.5 36 Q434 11 392 -2 Q350 -15 304 -15 Z M205 605 L317 748 L497 748 L357 605 L205 605 Z " />
<glyph glyph-name="uni00E9" unicode="&#xe9;" horiz-adv-x="596" d="M307 -15 Q247 -15 197 5.5 Q147 26 110 64 Q73 102 53 154 Q33 206 33 268 Q33 328 53.5 379 Q74 430 110.5 468 Q147 506 196 527 Q245 548 302 548 Q362 548 411 527.5 Q460 507 495 469 Q530 431 549 378 Q568 325 568 260 L568 224 L200 224 Q210 175 238 148.5 Q266 122 309 122 Q341 122 365.5 135 Q390 148 409 174 L558 135 Q539 89 501.5 55.5 Q464 22 414 3.5 Q364 -15 307 -15 Z M302 426 Q262 426 235.5 400.5 Q209 375 200 328 L400 328 Q392 375 366.5 400.5 Q341 426 302 426 Z M199 605 L311 748 L491 748 L351 605 L199 605 Z " />
<glyph glyph-name="uni00ED" unicode="&#xed;" horiz-adv-x="265" d="M51 0 L51 533 L214 533 L214 0 L51 0 Z M28 605 L140 748 L320 748 L180 605 L28 605 Z " />
<glyph glyph-name="uni013A" unicode="&#x13a;" horiz-adv-x="265" d="M51 0 L51 748 L214 748 L214 0 L51 0 Z M28 811 L140 954 L320 954 L180 811 L28 811 Z " />
<glyph glyph-name="uni0144" unicode="&#x144;" horiz-adv-x="601" d="M51 0 L51 533 L201 533 L206 463 Q229 502 269 525 Q309 548 361 548 Q418 548 460.5 520 Q503 492 526.5 441.5 Q550 391 550 322 L550 0 L387 0 L387 299 Q387 346 365.5 373.5 Q344 401 306 401 Q279 401 258.5 388 Q238 375 226 352.5 Q214 330 214 302 L214 0 L51 0 Z M197 605 L309 748 L489 748 L349 605 L197 605 Z " />
<glyph glyph-name="uni00F3" unicode="&#xf3;" horiz-adv-x="634" d="M315 -15 Q255 -15 203.5 6 Q152 27 113.5 65 Q75 103 54 154 Q33 205 33 265 Q33 325 54.5 376.5 Q76 428 114.5 466.5 Q153 505 205.5 526.5 Q258 548 319 548 Q379 548 430.5 527 Q482 506 520.5 467.5 Q559 429 580 378 Q601 327 601 267 Q601 207 579.5 155.5 Q558 104 519.5 66 Q481 28 428.5 6.5 Q376 -15 315 -15 Z M317 132 Q350 132 377 149.5 Q404 167 419.5 197.5 Q435 228 435 266 Q435 305 419.5 335.5 Q404 366 377 383.5 Q350 401 317 401 Q284 401 257 383.5 Q230 366 214.5 335.5 Q199 305 199 266 Q199 228 214.5 197.5 Q230 167 257 149.5 Q284 132 317 132 Z M214 605 L326 748 L506 748 L366 605 L214 605 Z " />
<glyph glyph-name="uni0155" unicode="&#x155;" horiz-adv-x="406" d="M51 0 L51 533 L201 533 L207 448 Q226 492 260 516 Q294 540 339 540 Q352 540 365 538 Q378 536 388 531 L372 369 Q361 373 349.5 374.5 Q338 376 326 376 Q270 376 242 344.5 Q214 313 214 253 L214 0 L51 0 Z M119 605 L231 748 L411 748 L271 605 L119 605 Z " />
<glyph glyph-name="uni015B" unicode="&#x15b;" horiz-adv-x="505" d="M253 -15 Q195 -15 147 3 Q99 21 66.5 54 Q34 87 20 132 L170 159 Q179 136 201.5 122 Q224 108 254 108 Q285 108 302.5 120.5 Q320 133 320 153 Q320 172 301.5 183 Q283 194 238 201 L214 205 Q127 220 80.5 262.5 Q34 305 34 371 Q34 410 49.5 442.5 Q65 475 94 498.5 Q123 522 162.5 535 Q202 548 249 548 Q304 548 349.5 530.5 Q395 513 426 481 Q457 449 469 405 L320 378 Q311 400 292.5 412.5 Q274 425 249 425 Q221 425 205.5 413.5 Q190 402 190 383 Q190 366 207 356 Q224 346 270 338 L294 334 Q383 319 430 276.5 Q477 234 477 168 Q477 128 460.5 94 Q444 60 414.5 36 Q385 12 343.5 -1.5 Q302 -15 253 -15 Z M144 605 L256 748 L436 748 L296 605 L144 605 Z " />
<glyph glyph-name="uni00FA" unicode="&#xfa;" horiz-adv-x="598" d="M298 -15 Q224 -15 168 16.5 Q112 48 81.5 105 Q51 162 51 240 L51 533 L214 533 L214 237 Q214 188 236.5 160 Q259 132 299 132 Q339 132 361.5 160 Q384 188 384 237 L384 533 L547 533 L547 240 Q547 183 529.5 136 Q512 89 479.5 55 Q447 21 401 3 Q355 -15 298 -15 Z M195 605 L307 748 L487 748 L347 605 L195 605 Z " />
<glyph glyph-name="uni1E83" unicode="&#x1e83;" horiz-adv-x="857" d="M184 0 L8 533 L178 533 L262 196 L358 533 L502 533 L598 194 L685 533 L849 533 L673 0 L522 0 L428 334 L333 0 L184 0 Z M325 605 L437 748 L617 748 L477 605 L325 605 Z " />
<glyph glyph-name="uni00FD" unicode="&#xfd;" horiz-adv-x="576" d="M155 -206 Q126 -206 100 -200 Q74 -194 51 -181 L80 -56 Q91 -61 106.5 -65 Q122 -69 136 -69 Q163 -69 183 -52.5 Q203 -36 217 -1 L221 8 L8 533 L187 533 L297 183 L395 533 L568 533 L356 -38 Q324 -124 275 -165 Q226 -206 155 -206 Z M184 605 L296 748 L476 748 L336 605 L184 605 Z " />
<glyph glyph-name="uni017A" unicode="&#x17a;" horiz-adv-x="536" d="M37 0 L37 108 L279 402 L45 402 L45 533 L482 533 L482 425 L240 131 L499 131 L499 0 L37 0 Z M160 605 L272 748 L452 748 L312 605 L160 605 Z " />
<glyph glyph-name="uni0151" unicode="&#x151;" horiz-adv-x="634" d="M315 -15 Q255 -15 203.5 6 Q152 27 113.5 65 Q75 103 54 154 Q33 205 33 265 Q33 325 54.5 376.5 Q76 428 114.5 466.5 Q153 505 205.5 526.5 Q258 548 319 548 Q379 548 430.5 527 Q482 506 520.5 467.5 Q559 429 580 378 Q601 327 601 267 Q601 207 579.5 155.5 Q558 104 519.5 66 Q481 28 428.5 6.5 Q376 -15 315 -15 Z M317 132 Q350 132 377 149.5 Q404 167 419.5 197.5 Q435 228 435 266 Q435 305 419.5 335.5 Q404 366 377 383.5 Q350 401 317 401 Q284 401 257 383.5 Q230 366 214.5 335.5 Q199 305 199 266 Q199 228 214.5 197.5 Q230 167 257 149.5 Q284 132 317 132 Z M141 605 L237 748 L390 748 L266 605 L141 605 Z M342 605 L438 748 L591 748 L467 605 L342 605 Z " />
<glyph glyph-name="uni0171" unicode="&#x171;" horiz-adv-x="598" d="M298 -15 Q224 -15 168 16.5 Q112 48 81.5 105 Q51 162 51 240 L51 533 L214 533 L214 237 Q214 188 236.5 160 Q259 132 299 132 Q339 132 361.5 160 Q384 188 384 237 L384 533 L547 533 L547 240 Q547 183 529.5 136 Q512 89 479.5 55 Q447 21 401 3 Q355 -15 298 -15 Z M122 605 L218 748 L371 748 L247 605 L122 605 Z M323 605 L419 748 L572 748 L448 605 L323 605 Z " />
<glyph glyph-name="uni0300" unicode="&#x300;" d="M-49 605 L-189 748 L-9 748 L103 605 L-49 605 Z " />
<glyph glyph-name="uni0060" unicode="&#x60;" horiz-adv-x="601" d="M294 605 L154 748 L334 748 L446 605 L294 605 Z " />
<glyph glyph-name="uni02CB" unicode="&#x2cb;" horiz-adv-x="601" d="M294 605 L154 748 L334 748 L446 605 L294 605 Z " />
<glyph glyph-name="uni00C0" unicode="&#xc0;" horiz-adv-x="773" d="M13 0 L294 710 L479 710 L760 0 L580 0 L530 138 L237 138 L187 0 L13 0 Z M290 284 L477 284 L383 543 L290 284 Z M343 782 L168 920 L370 920 L509 782 L343 782 Z " />
<glyph glyph-name="uni00C8" unicode="&#xc8;" horiz-adv-x="579" d="M60 0 L60 710 L519 710 L519 565 L230 565 L230 435 L485 435 L485 290 L230 290 L230 145 L529 145 L529 0 L60 0 Z M246 782 L71 920 L273 920 L412 782 L246 782 Z " />
<glyph glyph-name="uni00CC" unicode="&#xcc;" horiz-adv-x="294" d="M60 0 L60 710 L234 710 L234 0 L60 0 Z M104 782 L-71 920 L131 920 L270 782 L104 782 Z " />
<glyph glyph-name="uni00D2" unicode="&#xd2;" horiz-adv-x="828" d="M413 -20 Q349 -20 292 -2 Q235 16 189 49.5 Q143 83 109 129.5 Q75 176 57 233 Q39 290 39 354 Q39 418 57 475.5 Q75 533 109 579.5 Q143 626 189.5 659.5 Q236 693 293 711.5 Q350 730 415 730 Q479 730 536 712 Q593 694 639 660.5 Q685 627 719 580.5 Q753 534 771 477 Q789 420 789 356 Q789 292 771 234.5 Q753 177 719 130.5 Q685 84 638.5 50.5 Q592 17 535 -1.5 Q478 -20 413 -20 Z M414 140 Q456 140 492 156 Q528 172 554 201 Q580 230 594.5 269 Q609 308 609 355 Q609 402 594.5 441 Q580 480 554 509 Q528 538 492 554 Q456 570 414 570 Q372 570 336 554 Q300 538 274 509 Q248 480 233.5 441 Q219 402 219 355 Q219 308 233.5 269 Q248 230 274 201 Q300 172 336 156 Q372 140 414 140 Z M371 782 L196 920 L398 920 L537 782 L371 782 Z " />
<glyph glyph-name="uni00D9" unicode="&#xd9;" horiz-adv-x="740" d="M368 -20 Q296 -20 238.5 2 Q181 24 139.5 65 Q98 106 76 163.5 Q54 221 54 292 L54 710 L228 710 L228 300 Q228 251 245.5 215 Q263 179 294.5 159.5 Q326 140 370 140 Q414 140 445.5 159.5 Q477 179 494.5 215 Q512 251 512 300 L512 710 L686 710 L686 292 Q686 221 663.5 163.5 Q641 106 599.5 65 Q558 24 499 2 Q440 -20 368 -20 Z M327 782 L152 920 L354 920 L493 782 L327 782 Z " />
<glyph glyph-name="uni1E80" unicode="&#x1e80;" horiz-adv-x="1058" d="M1031 710 L819 0 L657 0 L530 481 L403 0 L239 0 L27 710 L209 710 L327 229 L454 710 L610 710 L737 230 L854 710 L1031 710 Z M486 782 L311 920 L513 920 L652 782 L486 782 Z " />
<glyph glyph-name="uni1EF2" unicode="&#x1ef2;" horiz-adv-x="684" d="M255 0 L255 273 L8 710 L205 710 L345 435 L485 710 L676 710 L429 273 L429 0 L255 0 Z M299 782 L124 920 L326 920 L465 782 L299 782 Z " />
<glyph glyph-name="uni00E0" unicode="&#xe0;" horiz-adv-x="566" d="M212 -15 Q172 -15 138 -2.5 Q104 10 79 32 Q54 54 40 84.5 Q26 115 26 151 Q26 202 53.5 241 Q81 280 130.5 301.5 Q180 323 246 323 Q278 323 304 318 Q330 313 357 302 L357 329 Q357 368 334.5 391.5 Q312 415 274 415 Q246 415 223 401.5 Q200 388 191 365 L45 390 Q53 425 74 454 Q95 483 126.5 504 Q158 525 196 536.5 Q234 548 277 548 Q330 548 373.5 531.5 Q417 515 449 484.5 Q481 454 498 412.5 Q515 371 515 321 L515 0 L369 0 L365 63 Q345 28 305 6.5 Q265 -15 212 -15 Z M186 161 Q186 137 205.5 121.5 Q225 106 257 106 Q286 106 308.5 118 Q331 130 344 151 Q357 172 357 198 L357 203 Q339 211 318 215.5 Q297 220 276 220 Q234 220 210 204 Q186 188 186 161 Z M232 605 L92 748 L272 748 L384 605 L232 605 Z " />
<glyph glyph-name="uni00E8" unicode="&#xe8;" horiz-adv-x="596" d="M307 -15 Q247 -15 197 5.5 Q147 26 110 64 Q73 102 53 154 Q33 206 33 268 Q33 328 53.5 379 Q74 430 110.5 468 Q147 506 196 527 Q245 548 302 548 Q362 548 411 527.5 Q460 507 495 469 Q530 431 549 378 Q568 325 568 260 L568 224 L200 224 Q210 175 238 148.5 Q266 122 309 122 Q341 122 365.5 135 Q390 148 409 174 L558 135 Q539 89 501.5 55.5 Q464 22 414 3.5 Q364 -15 307 -15 Z M302 426 Q262 426 235.5 400.5 Q209 375 200 328 L400 328 Q392 375 366.5 400.5 Q341 426 302 426 Z M253 605 L113 748 L293 748 L405 605 L253 605 Z " />
<glyph glyph-name="uni00EC" unicode="&#xec;" horiz-adv-x="265" d="M51 0 L51 533 L214 533 L214 0 L51 0 Z M82 605 L-58 748 L122 748 L234 605 L82 605 Z " />
<glyph glyph-name="uni00F2" unicode="&#xf2;" horiz-adv-x="634" d="M315 -15 Q255 -15 203.5 6 Q152 27 113.5 65 Q75 103 54 154 Q33 205 33 265 Q33 325 54.5 376.5 Q76 428 114.5 466.5 Q153 505 205.5 526.5 Q258 548 319 548 Q379 548 430.5 527 Q482 506 520.5 467.5 Q559 429 580 378 Q601 327 601 267 Q601 207 579.5 155.5 Q558 104 519.5 66 Q481 28 428.5 6.5 Q376 -15 315 -15 Z M317 132 Q350 132 377 149.5 Q404 167 419.5 197.5 Q435 228 435 266 Q435 305 419.5 335.5 Q404 366 377 383.5 Q350 401 317 401 Q284 401 257 383.5 Q230 366 214.5 335.5 Q199 305 199 266 Q199 228 214.5 197.5 Q230 167 257 149.5 Q284 132 317 132 Z M268 605 L128 748 L308 748 L420 605 L268 605 Z " />
<glyph glyph-name="uni00F9" unicode="&#xf9;" horiz-adv-x="598" d="M298 -15 Q224 -15 168 16.5 Q112 48 81.5 105 Q51 162 51 240 L51 533 L214 533 L214 237 Q214 188 236.5 160 Q259 132 299 132 Q339 132 361.5 160 Q384 188 384 237 L384 533 L547 533 L547 240 Q547 183 529.5 136 Q512 89 479.5 55 Q447 21 401 3 Q355 -15 298 -15 Z M249 605 L109 748 L289 748 L401 605 L249 605 Z " />
<glyph glyph-name="uni1E81" unicode="&#x1e81;" horiz-adv-x="857" d="M184 0 L8 533 L178 533 L262 196 L358 533 L502 533 L598 194 L685 533 L849 533 L673 0 L522 0 L428 334 L333 0 L184 0 Z M379 605 L239 748 L419 748 L531 605 L379 605 Z " />
<glyph glyph-name="uni1EF3" unicode="&#x1ef3;" horiz-adv-x="576" d="M155 -206 Q126 -206 100 -200 Q74 -194 51 -181 L80 -56 Q91 -61 106.5 -65 Q122 -69 136 -69 Q163 -69 183 -52.5 Q203 -36 217 -1 L221 8 L8 533 L187 533 L297 183 L395 533 L568 533 L356 -38 Q324 -124 275 -165 Q226 -206 155 -206 Z M238 605 L98 748 L278 748 L390 605 L238 605 Z " />
<glyph glyph-name="uni0302" unicode="&#x302;" d="M-200 605 L-63 748 L64 748 L201 605 L62 605 L-1 662 L-66 605 L-200 605 Z " />
<glyph glyph-name="uni02C6" unicode="&#x2c6;" horiz-adv-x="601" d="M100 605 L237 748 L364 748 L501 605 L362 605 L299 662 L234 605 L100 605 Z " />
<glyph glyph-name="uni0303" unicode="&#x303;" d="M66 600 Q44 600 27 607 Q10 614 -4.5 622.5 Q-19 631 -31 638 Q-43 645 -55 645 Q-81 645 -87 606 L-180 606 Q-176 650 -160.5 682.5 Q-145 715 -120.5 732.5 Q-96 750 -65 750 Q-43 750 -26 743 Q-9 736 5.5 727.5 Q20 719 32 712 Q44 705 56 705 Q82 705 88 744 L181 744 Q177 700 161.5 667.5 Q146 635 122 617.5 Q98 600 66 600 Z " />
<glyph glyph-name="uni02DC" unicode="&#x2dc;" horiz-adv-x="601" d="M366 600 Q344 600 327 607 Q310 614 295.5 622.5 Q281 631 269 638 Q257 645 245 645 Q219 645 213 606 L120 606 Q124 650 139.5 682.5 Q155 715 179.5 732.5 Q204 750 235 750 Q257 750 274 743 Q291 736 305.5 727.5 Q320 719 332 712 Q344 705 356 705 Q382 705 388 744 L481 744 Q477 700 461.5 667.5 Q446 635 422 617.5 Q398 600 366 600 Z " />
<glyph glyph-name="uni00C2" unicode="&#xc2;" horiz-adv-x="773" d="M13 0 L294 710 L479 710 L760 0 L580 0 L530 138 L237 138 L187 0 L13 0 Z M290 284 L477 284 L383 543 L290 284 Z M160 782 L309 920 L464 920 L613 782 L454 782 L385 839 L314 782 L160 782 Z " />
<glyph glyph-name="uni00CA" unicode="&#xca;" horiz-adv-x="579" d="M60 0 L60 710 L519 710 L519 565 L230 565 L230 435 L485 435 L485 290 L230 290 L230 145 L529 145 L529 0 L60 0 Z M63 782 L212 920 L367 920 L516 782 L357 782 L288 839 L217 782 L63 782 Z " />
<glyph glyph-name="uni00CE" unicode="&#xce;" horiz-adv-x="294" d="M60 0 L60 710 L234 710 L234 0 L60 0 Z M-79 782 L70 920 L225 920 L374 782 L215 782 L146 839 L75 782 L-79 782 Z " />
<glyph glyph-name="uni00D4" unicode="&#xd4;" horiz-adv-x="828" d="M413 -20 Q349 -20 292 -2 Q235 16 189 49.5 Q143 83 109 129.5 Q75 176 57 233 Q39 290 39 354 Q39 418 57 475.5 Q75 533 109 579.5 Q143 626 189.5 659.5 Q236 693 293 711.5 Q350 730 415 730 Q479 730 536 712 Q593 694 639 660.5 Q685 627 719 580.5 Q753 534 771 477 Q789 420 789 356 Q789 292 771 234.5 Q753 177 719 130.5 Q685 84 638.5 50.5 Q592 17 535 -1.5 Q478 -20 413 -20 Z M414 140 Q456 140 492 156 Q528 172 554 201 Q580 230 594.5 269 Q609 308 609 355 Q609 402 594.5 441 Q580 480 554 509 Q528 538 492 554 Q456 570 414 570 Q372 570 336 554 Q300 538 274 509 Q248 480 233.5 441 Q219 402 219 355 Q219 308 233.5 269 Q248 230 274 201 Q300 172 336 156 Q372 140 414 140 Z M188 782 L337 920 L492 920 L641 782 L482 782 L413 839 L342 782 L188 782 Z " />
<glyph glyph-name="uni00DB" unicode="&#xdb;" horiz-adv-x="740" d="M368 -20 Q296 -20 238.5 2 Q181 24 139.5 65 Q98 106 76 163.5 Q54 221 54 292 L54 710 L228 710 L228 300 Q228 251 245.5 215 Q263 179 294.5 159.5 Q326 140 370 140 Q414 140 445.5 159.5 Q477 179 494.5 215 Q512 251 512 300 L512 710 L686 710 L686 292 Q686 221 663.5 163.5 Q641 106 599.5 65 Q558 24 499 2 Q440 -20 368 -20 Z M144 782 L293 920 L448 920 L597 782 L438 782 L369 839 L298 782 L144 782 Z " />
<glyph glyph-name="uni0174" unicode="&#x174;" horiz-adv-x="1058" d="M1031 710 L819 0 L657 0 L530 481 L403 0 L239 0 L27 710 L209 710 L327 229 L454 710 L610 710 L737 230 L854 710 L1031 710 Z M303 782 L452 920 L607 920 L756 782 L597 782 L528 839 L457 782 L303 782 Z " />
<glyph glyph-name="uni0176" unicode="&#x176;" horiz-adv-x="684" d="M255 0 L255 273 L8 710 L205 710 L345 435 L485 710 L676 710 L429 273 L429 0 L255 0 Z M116 782 L265 920 L420 920 L569 782 L410 782 L341 839 L270 782 L116 782 Z " />
<glyph glyph-name="uni00C3" unicode="&#xc3;" horiz-adv-x="773" d="M13 0 L294 710 L479 710 L760 0 L580 0 L530 138 L237 138 L187 0 L13 0 Z M290 284 L477 284 L383 543 L290 284 Z M459 777 Q434 777 414.5 784.5 Q395 792 379 801.5 Q363 811 348.5 818.5 Q334 826 321 826 Q306 826 295.5 815 Q285 804 282 783 L182 783 Q186 829 203.5 863 Q221 897 249.5 915.5 Q278 934 314 934 Q339 934 358.5 926.5 Q378 919 394 909.5 Q410 900 424 892.5 Q438 885 452 885 Q467 885 477.5 896 Q488 907 491 928 L591 928 Q587 882 569.5 848 Q552 814 524 795.5 Q496 777 459 777 Z " />
<glyph glyph-name="uni0128" unicode="&#x128;" horiz-adv-x="294" d="M60 0 L60 710 L234 710 L234 0 L60 0 Z M220 777 Q195 777 175.5 784.5 Q156 792 140 801.5 Q124 811 109.5 818.5 Q95 826 82 826 Q67 826 56.5 815 Q46 804 43 783 L-57 783 Q-53 829 -35.5 863 Q-18 897 10.5 915.5 Q39 934 75 934 Q100 934 119.5 926.5 Q139 919 155 909.5 Q171 900 185 892.5 Q199 885 213 885 Q228 885 238.5 896 Q249 907 252 928 L352 928 Q348 882 330.5 848 Q313 814 285 795.5 Q257 777 220 777 Z " />
<glyph glyph-name="uni00D1" unicode="&#xd1;" horiz-adv-x="742" d="M60 0 L60 710 L209 710 L515 276 L515 710 L682 710 L682 0 L533 0 L227 434 L227 0 L60 0 Z M444 777 Q419 777 399.5 784.5 Q380 792 364 801.5 Q348 811 333.5 818.5 Q319 826 306 826 Q291 826 280.5 815 Q270 804 267 783 L167 783 Q171 829 188.5 863 Q206 897 234.5 915.5 Q263 934 299 934 Q324 934 343.5 926.5 Q363 919 379 909.5 Q395 900 409 892.5 Q423 885 437 885 Q452 885 462.5 896 Q473 907 476 928 L576 928 Q572 882 554.5 848 Q537 814 509 795.5 Q481 777 444 777 Z " />
<glyph glyph-name="uni00D5" unicode="&#xd5;" horiz-adv-x="828" d="M413 -20 Q349 -20 292 -2 Q235 16 189 49.5 Q143 83 109 129.5 Q75 176 57 233 Q39 290 39 354 Q39 418 57 475.5 Q75 533 109 579.5 Q143 626 189.5 659.5 Q236 693 293 711.5 Q350 730 415 730 Q479 730 536 712 Q593 694 639 660.5 Q685 627 719 580.5 Q753 534 771 477 Q789 420 789 356 Q789 292 771 234.5 Q753 177 719 130.5 Q685 84 638.5 50.5 Q592 17 535 -1.5 Q478 -20 413 -20 Z M414 140 Q456 140 492 156 Q528 172 554 201 Q580 230 594.5 269 Q609 308 609 355 Q609 402 594.5 441 Q580 480 554 509 Q528 538 492 554 Q456 570 414 570 Q372 570 336 554 Q300 538 274 509 Q248 480 233.5 441 Q219 402 219 355 Q219 308 233.5 269 Q248 230 274 201 Q300 172 336 156 Q372 140 414 140 Z M487 777 Q462 777 442.5 784.5 Q423 792 407 801.5 Q391 811 376.5 818.5 Q362 826 349 826 Q334 826 323.5 815 Q313 804 310 783 L210 783 Q214 829 231.5 863 Q249 897 277.5 915.5 Q306 934 342 934 Q367 934 386.5 926.5 Q406 919 422 909.5 Q438 900 452 892.5 Q466 885 480 885 Q495 885 505.5 896 Q516 907 519 928 L619 928 Q615 882 597.5 848 Q580 814 552 795.5 Q524 777 487 777 Z " />
<glyph glyph-name="uni0168" unicode="&#x168;" horiz-adv-x="740" d="M368 -20 Q296 -20 238.5 2 Q181 24 139.5 65 Q98 106 76 163.5 Q54 221 54 292 L54 710 L228 710 L228 300 Q228 251 245.5 215 Q263 179 294.5 159.5 Q326 140 370 140 Q414 140 445.5 159.5 Q477 179 494.5 215 Q512 251 512 300 L512 710 L686 710 L686 292 Q686 221 663.5 163.5 Q641 106 599.5 65 Q558 24 499 2 Q440 -20 368 -20 Z M443 777 Q418 777 398.5 784.5 Q379 792 363 801.5 Q347 811 332.5 818.5 Q318 826 305 826 Q290 826 279.5 815 Q269 804 266 783 L166 783 Q170 829 187.5 863 Q205 897 233.5 915.5 Q262 934 298 934 Q323 934 342.5 926.5 Q362 919 378 909.5 Q394 900 408 892.5 Q422 885 436 885 Q451 885 461.5 896 Q472 907 475 928 L575 928 Q571 882 553.5 848 Q536 814 508 795.5 Q480 777 443 777 Z " />
<glyph glyph-name="uni00E2" unicode="&#xe2;" horiz-adv-x="566" d="M212 -15 Q172 -15 138 -2.5 Q104 10 79 32 Q54 54 40 84.5 Q26 115 26 151 Q26 202 53.5 241 Q81 280 130.5 301.5 Q180 323 246 323 Q278 323 304 318 Q330 313 357 302 L357 329 Q357 368 334.5 391.5 Q312 415 274 415 Q246 415 223 401.5 Q200 388 191 365 L45 390 Q53 425 74 454 Q95 483 126.5 504 Q158 525 196 536.5 Q234 548 277 548 Q330 548 373.5 531.5 Q417 515 449 484.5 Q481 454 498 412.5 Q515 371 515 321 L515 0 L369 0 L365 63 Q345 28 305 6.5 Q265 -15 212 -15 Z M186 161 Q186 137 205.5 121.5 Q225 106 257 106 Q286 106 308.5 118 Q331 130 344 151 Q357 172 357 198 L357 203 Q339 211 318 215.5 Q297 220 276 220 Q234 220 210 204 Q186 188 186 161 Z M81 605 L218 748 L345 748 L482 605 L343 605 L280 662 L215 605 L81 605 Z " />
<glyph glyph-name="uni00EA" unicode="&#xea;" horiz-adv-x="596" d="M307 -15 Q247 -15 197 5.5 Q147 26 110 64 Q73 102 53 154 Q33 206 33 268 Q33 328 53.5 379 Q74 430 110.5 468 Q147 506 196 527 Q245 548 302 548 Q362 548 411 527.5 Q460 507 495 469 Q530 431 549 378 Q568 325 568 260 L568 224 L200 224 Q210 175 238 148.5 Q266 122 309 122 Q341 122 365.5 135 Q390 148 409 174 L558 135 Q539 89 501.5 55.5 Q464 22 414 3.5 Q364 -15 307 -15 Z M302 426 Q262 426 235.5 400.5 Q209 375 200 328 L400 328 Q392 375 366.5 400.5 Q341 426 302 426 Z M102 605 L239 748 L366 748 L503 605 L364 605 L301 662 L236 605 L102 605 Z " />
<glyph glyph-name="uni00EE" unicode="&#xee;" horiz-adv-x="265" d="M51 0 L51 533 L214 533 L214 0 L51 0 Z M-69 605 L68 748 L195 748 L332 605 L193 605 L130 662 L65 605 L-69 605 Z " />
<glyph glyph-name="uni00F4" unicode="&#xf4;" horiz-adv-x="634" d="M315 -15 Q255 -15 203.5 6 Q152 27 113.5 65 Q75 103 54 154 Q33 205 33 265 Q33 325 54.5 376.5 Q76 428 114.5 466.5 Q153 505 205.5 526.5 Q258 548 319 548 Q379 548 430.5 527 Q482 506 520.5 467.5 Q559 429 580 378 Q601 327 601 267 Q601 207 579.5 155.5 Q558 104 519.5 66 Q481 28 428.5 6.5 Q376 -15 315 -15 Z M317 132 Q350 132 377 149.5 Q404 167 419.5 197.5 Q435 228 435 266 Q435 305 419.5 335.5 Q404 366 377 383.5 Q350 401 317 401 Q284 401 257 383.5 Q230 366 214.5 335.5 Q199 305 199 266 Q199 228 214.5 197.5 Q230 167 257 149.5 Q284 132 317 132 Z M117 605 L254 748 L381 748 L518 605 L379 605 L316 662 L251 605 L117 605 Z " />
<glyph glyph-name="uni00FB" unicode="&#xfb;" horiz-adv-x="598" d="M298 -15 Q224 -15 168 16.5 Q112 48 81.5 105 Q51 162 51 240 L51 533 L214 533 L214 237 Q214 188 236.5 160 Q259 132 299 132 Q339 132 361.5 160 Q384 188 384 237 L384 533 L547 533 L547 240 Q547 183 529.5 136 Q512 89 479.5 55 Q447 21 401 3 Q355 -15 298 -15 Z M98 605 L235 748 L362 748 L499 605 L360 605 L297 662 L232 605 L98 605 Z " />
<glyph glyph-name="uni0175" unicode="&#x175;" horiz-adv-x="857" d="M184 0 L8 533 L178 533 L262 196 L358 533 L502 533 L598 194 L685 533 L849 533 L673 0 L522 0 L428 334 L333 0 L184 0 Z M228 605 L365 748 L492 748 L629 605 L490 605 L427 662 L362 605 L228 605 Z " />
<glyph glyph-name="uni0177" unicode="&#x177;" horiz-adv-x="576" d="M155 -206 Q126 -206 100 -200 Q74 -194 51 -181 L80 -56 Q91 -61 106.5 -65 Q122 -69 136 -69 Q163 -69 183 -52.5 Q203 -36 217 -1 L221 8 L8 533 L187 533 L297 183 L395 533 L568 533 L356 -38 Q324 -124 275 -165 Q226 -206 155 -206 Z M87 605 L224 748 L351 748 L488 605 L349 605 L286 662 L221 605 L87 605 Z " />
<glyph glyph-name="uni00E3" unicode="&#xe3;" horiz-adv-x="566" d="M212 -15 Q172 -15 138 -2.5 Q104 10 79 32 Q54 54 40 84.5 Q26 115 26 151 Q26 202 53.5 241 Q81 280 130.5 301.5 Q180 323 246 323 Q278 323 304 318 Q330 313 357 302 L357 329 Q357 368 334.5 391.5 Q312 415 274 415 Q246 415 223 401.5 Q200 388 191 365 L45 390 Q53 425 74 454 Q95 483 126.5 504 Q158 525 196 536.5 Q234 548 277 548 Q330 548 373.5 531.5 Q417 515 449 484.5 Q481 454 498 412.5 Q515 371 515 321 L515 0 L369 0 L365 63 Q345 28 305 6.5 Q265 -15 212 -15 Z M186 161 Q186 137 205.5 121.5 Q225 106 257 106 Q286 106 308.5 118 Q331 130 344 151 Q357 172 357 198 L357 203 Q339 211 318 215.5 Q297 220 276 220 Q234 220 210 204 Q186 188 186 161 Z M347 600 Q325 600 308 607 Q291 614 276.5 622.5 Q262 631 250 638 Q238 645 226 645 Q200 645 194 606 L101 606 Q105 650 120.5 682.5 Q136 715 160.5 732.5 Q185 750 216 750 Q238 750 255 743 Q272 736 286.5 727.5 Q301 719 313 712 Q325 705 337 705 Q363 705 369 744 L462 744 Q458 700 442.5 667.5 Q427 635 403 617.5 Q379 600 347 600 Z " />
<glyph glyph-name="uni0129" unicode="&#x129;" horiz-adv-x="265" d="M51 0 L51 533 L214 533 L214 0 L51 0 Z M197 600 Q175 600 158 607 Q141 614 126.5 622.5 Q112 631 100 638 Q88 645 76 645 Q50 645 44 606 L-49 606 Q-45 650 -29.5 682.5 Q-14 715 10.5 732.5 Q35 750 66 750 Q88 750 105 743 Q122 736 136.5 727.5 Q151 719 163 712 Q175 705 187 705 Q213 705 219 744 L312 744 Q308 700 292.5 667.5 Q277 635 253 617.5 Q229 600 197 600 Z " />
<glyph glyph-name="uni00F1" unicode="&#xf1;" horiz-adv-x="601" d="M51 0 L51 533 L201 533 L206 463 Q229 502 269 525 Q309 548 361 548 Q418 548 460.5 520 Q503 492 526.5 441.5 Q550 391 550 322 L550 0 L387 0 L387 299 Q387 346 365.5 373.5 Q344 401 306 401 Q279 401 258.5 388 Q238 375 226 352.5 Q214 330 214 302 L214 0 L51 0 Z M366 600 Q344 600 327 607 Q310 614 295.5 622.5 Q281 631 269 638 Q257 645 245 645 Q219 645 213 606 L120 606 Q124 650 139.5 682.5 Q155 715 179.5 732.5 Q204 750 235 750 Q257 750 274 743 Q291 736 305.5 727.5 Q320 719 332 712 Q344 705 356 705 Q382 705 388 744 L481 744 Q477 700 461.5 667.5 Q446 635 422 617.5 Q398 600 366 600 Z " />
<glyph glyph-name="uni00F5" unicode="&#xf5;" horiz-adv-x="634" d="M315 -15 Q255 -15 203.5 6 Q152 27 113.5 65 Q75 103 54 154 Q33 205 33 265 Q33 325 54.5 376.5 Q76 428 114.5 466.5 Q153 505 205.5 526.5 Q258 548 319 548 Q379 548 430.5 527 Q482 506 520.5 467.5 Q559 429 580 378 Q601 327 601 267 Q601 207 579.5 155.5 Q558 104 519.5 66 Q481 28 428.5 6.5 Q376 -15 315 -15 Z M317 132 Q350 132 377 149.5 Q404 167 419.5 197.5 Q435 228 435 266 Q435 305 419.5 335.5 Q404 366 377 383.5 Q350 401 317 401 Q284 401 257 383.5 Q230 366 214.5 335.5 Q199 305 199 266 Q199 228 214.5 197.5 Q230 167 257 149.5 Q284 132 317 132 Z M383 600 Q361 600 344 607 Q327 614 312.5 622.5 Q298 631 286 638 Q274 645 262 645 Q236 645 230 606 L137 606 Q141 650 156.5 682.5 Q172 715 196.5 732.5 Q221 750 252 750 Q274 750 291 743 Q308 736 322.5 727.5 Q337 719 349 712 Q361 705 373 705 Q399 705 405 744 L498 744 Q494 700 478.5 667.5 Q463 635 439 617.5 Q415 600 383 600 Z " />
<glyph glyph-name="uni0169" unicode="&#x169;" horiz-adv-x="598" d="M298 -15 Q224 -15 168 16.5 Q112 48 81.5 105 Q51 162 51 240 L51 533 L214 533 L214 237 Q214 188 236.5 160 Q259 132 299 132 Q339 132 361.5 160 Q384 188 384 237 L384 533 L547 533 L547 240 Q547 183 529.5 136 Q512 89 479.5 55 Q447 21 401 3 Q355 -15 298 -15 Z M364 600 Q342 600 325 607 Q308 614 293.5 622.5 Q279 631 267 638 Q255 645 243 645 Q217 645 211 606 L118 606 Q122 650 137.5 682.5 Q153 715 177.5 732.5 Q202 750 233 750 Q255 750 272 743 Q289 736 303.5 727.5 Q318 719 330 712 Q342 705 354 705 Q380 705 386 744 L479 744 Q475 700 459.5 667.5 Q444 635 420 617.5 Q396 600 364 600 Z " />
<glyph glyph-name="uni030C" unicode="&#x30c;" d="M-63 605 L-200 748 L-61 748 L2 691 L67 748 L201 748 L64 605 L-63 605 Z " />
<glyph glyph-name="uni02C7" unicode="&#x2c7;" horiz-adv-x="601" d="M237 605 L100 748 L239 748 L302 691 L367 748 L501 748 L364 605 L237 605 Z " />
<glyph glyph-name="uni0315" unicode="&#x315;" d="M64 551 L77 748 L213 748 L151 551 L64 551 Z " />
<glyph glyph-name="uni0304" unicode="&#x304;" d="M-164 609 L-164 714 L164 714 L164 609 L-164 609 Z " />
<glyph glyph-name="uni02C9" unicode="&#x2c9;" horiz-adv-x="601" d="M136 609 L136 714 L464 714 L464 609 L136 609 Z " />
<glyph glyph-name="uni00AF" unicode="&#xaf;" horiz-adv-x="601" d="M136 609 L136 714 L464 714 L464 609 L136 609 Z " />
<glyph glyph-name="uni010C" unicode="&#x10c;" horiz-adv-x="748" d="M398 -20 Q336 -20 281.5 -2 Q227 16 182.5 49 Q138 82 106 127.5 Q74 173 56.5 229.5 Q39 286 39 350 Q39 414 56.5 471.5 Q74 529 106.5 576.5 Q139 624 184 658.5 Q229 693 283.5 711.5 Q338 730 399 730 Q456 730 507.5 714 Q559 698 600.5 668.5 Q642 639 671.5 597.5 Q701 556 716 504 L546 466 Q524 516 485 543 Q446 570 396 570 Q358 570 325.5 553.5 Q293 537 269 507.5 Q245 478 232 438.5 Q219 399 219 352 Q219 306 232 267 Q245 228 269 199.5 Q293 171 326 155.5 Q359 140 398 140 Q450 140 489.5 166.5 Q529 193 553 244 L723 206 Q703 136 656.5 85.5 Q610 35 544 7.5 Q478 -20 398 -20 Z M320 782 L171 920 L330 920 L399 863 L470 920 L624 920 L475 782 L320 782 Z " />
<glyph glyph-name="uni010E" unicode="&#x10e;" horiz-adv-x="767" d="M60 0 L60 710 L351 710 Q434 710 503 684.5 Q572 659 622.5 612 Q673 565 700.5 500 Q728 435 728 356 Q728 277 700.5 212 Q673 147 622.5 99.5 Q572 52 502.5 26 Q433 0 349 0 L60 0 Z M234 154 L340 154 Q404 154 450.5 178.5 Q497 203 522.5 248 Q548 293 548 355 Q548 417 522.5 462 Q497 507 450.5 531.5 Q404 556 340 556 L234 556 L234 154 Z M279 782 L130 920 L289 920 L358 863 L429 920 L583 920 L434 782 L279 782 Z " />
<glyph glyph-name="uni011A" unicode="&#x11a;" horiz-adv-x="579" d="M60 0 L60 710 L519 710 L519 565 L230 565 L230 435 L485 435 L485 290 L230 290 L230 145 L529 145 L529 0 L60 0 Z M212 782 L63 920 L222 920 L291 863 L362 920 L516 920 L367 782 L212 782 Z " />
<glyph glyph-name="uni013D" unicode="&#x13d;" horiz-adv-x="551" d="M60 0 L60 710 L234 710 L234 154 L514 154 L514 0 L60 0 Z M298 551 L311 748 L447 748 L385 551 L298 551 Z " />
<glyph glyph-name="uni0147" unicode="&#x147;" horiz-adv-x="742" d="M60 0 L60 710 L209 710 L515 276 L515 710 L682 710 L682 0 L533 0 L227 434 L227 0 L60 0 Z M294 782 L145 920 L304 920 L373 863 L444 920 L598 920 L449 782 L294 782 Z " />
<glyph glyph-name="uni0158" unicode="&#x158;" horiz-adv-x="643" d="M60 0 L60 710 L301 710 Q391 710 456 682 Q521 654 556 601.5 Q591 549 591 477 Q591 437 576.5 400 Q562 363 536 332 Q510 301 475 280 L632 0 L442 0 L325 234 Q309 233 292 233 Q264 233 231 238 L231 0 L60 0 Z M231 565 L231 381 Q248 378 265 376.5 Q282 375 301 375 Q355 375 385.5 400.5 Q416 426 416 471 Q416 516 385 540.5 Q354 565 298 565 L231 565 Z M219 782 L70 920 L229 920 L298 863 L369 920 L523 920 L374 782 L219 782 Z " />
<glyph glyph-name="uni0160" unicode="&#x160;" horiz-adv-x="581" d="M289 -15 Q222 -15 166 8.5 Q110 32 72 75.5 Q34 119 20 180 L181 212 Q194 173 222 153 Q250 133 290 133 Q330 133 356 152.5 Q382 172 382 203 Q382 231 357.5 249 Q333 267 275 280 L248 286 Q140 310 89 365 Q38 420 38 497 Q38 547 57.5 588.5 Q77 630 111.5 660.5 Q146 691 193 708 Q240 725 294 725 Q358 725 410 702 Q462 679 497 636.5 Q532 594 545 535 L387 503 Q374 540 350 558.5 Q326 577 292 577 Q257 577 234 559 Q211 541 211 512 Q211 490 224.5 476.5 Q238 463 262 454.5 Q286 446 316 439 L342 433 Q450 408 503 355 Q556 302 556 220 Q556 168 536 125 Q516 82 480 50.5 Q444 19 395.5 2 Q347 -15 289 -15 Z M216 782 L67 920 L226 920 L295 863 L366 920 L520 920 L371 782 L216 782 Z " />
<glyph glyph-name="uni0164" unicode="&#x164;" horiz-adv-x="638" d="M232 0 L232 556 L38 556 L38 710 L600 710 L600 556 L406 556 L406 0 L232 0 Z M241 782 L92 920 L251 920 L320 863 L391 920 L545 920 L396 782 L241 782 Z " />
<glyph glyph-name="uni017D" unicode="&#x17d;" horiz-adv-x="649" d="M34 0 L34 123 L379 564 L49 564 L49 710 L598 710 L598 587 L252 146 L620 146 L620 0 L34 0 Z M246 782 L97 920 L256 920 L325 863 L396 920 L550 920 L401 782 L246 782 Z " />
<glyph glyph-name="uni0100" unicode="&#x100;" horiz-adv-x="773" d="M13 0 L294 710 L479 710 L760 0 L580 0 L530 138 L237 138 L187 0 L13 0 Z M290 284 L477 284 L383 543 L290 284 Z M198 787 L198 900 L574 900 L574 787 L198 787 Z " />
<glyph glyph-name="uni0112" unicode="&#x112;" horiz-adv-x="579" d="M60 0 L60 710 L519 710 L519 565 L230 565 L230 435 L485 435 L485 290 L230 290 L230 145 L529 145 L529 0 L60 0 Z M101 787 L101 900 L477 900 L477 787 L101 787 Z " />
<glyph glyph-name="uni012A" unicode="&#x12a;" horiz-adv-x="294" d="M60 0 L60 710 L234 710 L234 0 L60 0 Z M-41 787 L-41 900 L335 900 L335 787 L-41 787 Z " />
<glyph glyph-name="uni016A" unicode="&#x16a;" horiz-adv-x="740" d="M368 -20 Q296 -20 238.5 2 Q181 24 139.5 65 Q98 106 76 163.5 Q54 221 54 292 L54 710 L228 710 L228 300 Q228 251 245.5 215 Q263 179 294.5 159.5 Q326 140 370 140 Q414 140 445.5 159.5 Q477 179 494.5 215 Q512 251 512 300 L512 710 L686 710 L686 292 Q686 221 663.5 163.5 Q641 106 599.5 65 Q558 24 499 2 Q440 -20 368 -20 Z M182 787 L182 900 L558 900 L558 787 L182 787 Z " />
<glyph glyph-name="uni010D" unicode="&#x10d;" horiz-adv-x="581" d="M304 -15 Q246 -15 196.5 5.5 Q147 26 110.5 63.5 Q74 101 53.5 151.5 Q33 202 33 262 Q33 323 54 375 Q75 427 112 466 Q149 505 199.5 526.5 Q250 548 308 548 Q369 548 419.5 525 Q470 502 504.5 460 Q539 418 552 361 L394 335 Q381 366 358 383.5 Q335 401 305 401 Q274 401 250.5 383.5 Q227 366 213 335 Q199 304 199 265 Q199 226 212.5 196 Q226 166 250 149 Q274 132 305 132 Q336 132 361.5 149 Q387 166 399 198 L557 172 Q548 130 524.5 95.5 Q501 61 467.5 36 Q434 11 392 -2 Q350 -15 304 -15 Z M245 605 L108 748 L247 748 L310 691 L375 748 L509 748 L372 605 L245 605 Z " />
<glyph glyph-name="uni010F" unicode="&#x10f;" horiz-adv-x="697" d="M273 -15 Q222 -15 178.5 6.5 Q135 28 102.5 65.5 Q70 103 51.5 153.5 Q33 204 33 263 Q33 323 52 375 Q71 427 105 466 Q139 505 185 526.5 Q231 548 284 548 Q331 548 369 530 Q407 512 433 478 L433 748 L596 748 L596 0 L446 0 L441 76 Q414 34 370 9.5 Q326 -15 273 -15 Z M317 132 Q350 132 377 149.5 Q404 167 419.5 197.5 Q435 228 435 267 Q435 306 419.5 336 Q404 366 377 383.5 Q350 401 317 401 Q284 401 257 383.5 Q230 366 214.5 336 Q199 306 199 267 Q199 228 214.5 197.5 Q230 167 257 149.5 Q284 132 317 132 Z M660 551 L673 748 L809 748 L747 551 L660 551 Z " />
<glyph glyph-name="uni011B" unicode="&#x11b;" horiz-adv-x="596" d="M307 -15 Q247 -15 197 5.5 Q147 26 110 64 Q73 102 53 154 Q33 206 33 268 Q33 328 53.5 379 Q74 430 110.5 468 Q147 506 196 527 Q245 548 302 548 Q362 548 411 527.5 Q460 507 495 469 Q530 431 549 378 Q568 325 568 260 L568 224 L200 224 Q210 175 238 148.5 Q266 122 309 122 Q341 122 365.5 135 Q390 148 409 174 L558 135 Q539 89 501.5 55.5 Q464 22 414 3.5 Q364 -15 307 -15 Z M302 426 Q262 426 235.5 400.5 Q209 375 200 328 L400 328 Q392 375 366.5 400.5 Q341 426 302 426 Z M239 605 L102 748 L241 748 L304 691 L369 748 L503 748 L366 605 L239 605 Z " />
<glyph glyph-name="uni013E" unicode="&#x13e;" horiz-adv-x="315" d="M51 0 L51 748 L214 748 L214 0 L51 0 Z M278 551 L291 748 L427 748 L365 551 L278 551 Z " />
<glyph glyph-name="uni0148" unicode="&#x148;" horiz-adv-x="601" d="M51 0 L51 533 L201 533 L206 463 Q229 502 269 525 Q309 548 361 548 Q418 548 460.5 520 Q503 492 526.5 441.5 Q550 391 550 322 L550 0 L387 0 L387 299 Q387 346 365.5 373.5 Q344 401 306 401 Q279 401 258.5 388 Q238 375 226 352.5 Q214 330 214 302 L214 0 L51 0 Z M237 605 L100 748 L239 748 L302 691 L367 748 L501 748 L364 605 L237 605 Z " />
<glyph glyph-name="uni0159" unicode="&#x159;" horiz-adv-x="406" d="M51 0 L51 533 L201 533 L207 448 Q226 492 260 516 Q294 540 339 540 Q352 540 365 538 Q378 536 388 531 L372 369 Q361 373 349.5 374.5 Q338 376 326 376 Q270 376 242 344.5 Q214 313 214 253 L214 0 L51 0 Z M159 605 L22 748 L161 748 L224 691 L289 748 L423 748 L286 605 L159 605 Z " />
<glyph glyph-name="uni0161" unicode="&#x161;" horiz-adv-x="505" d="M253 -15 Q195 -15 147 3 Q99 21 66.5 54 Q34 87 20 132 L170 159 Q179 136 201.5 122 Q224 108 254 108 Q285 108 302.5 120.5 Q320 133 320 153 Q320 172 301.5 183 Q283 194 238 201 L214 205 Q127 220 80.5 262.5 Q34 305 34 371 Q34 410 49.5 442.5 Q65 475 94 498.5 Q123 522 162.5 535 Q202 548 249 548 Q304 548 349.5 530.5 Q395 513 426 481 Q457 449 469 405 L320 378 Q311 400 292.5 412.5 Q274 425 249 425 Q221 425 205.5 413.5 Q190 402 190 383 Q190 366 207 356 Q224 346 270 338 L294 334 Q383 319 430 276.5 Q477 234 477 168 Q477 128 460.5 94 Q444 60 414.5 36 Q385 12 343.5 -1.5 Q302 -15 253 -15 Z M184 605 L47 748 L186 748 L249 691 L314 748 L448 748 L311 605 L184 605 Z " />
<glyph glyph-name="uni0165" unicode="&#x165;" horiz-adv-x="449" d="M294 -15 Q204 -15 155.5 34.5 Q107 84 107 177 L107 400 L19 400 L19 533 L107 533 L107 715 L270 715 L270 533 L407 533 L407 400 L270 400 L270 197 Q270 162 285 143.5 Q300 125 331 125 Q347 125 365.5 129.5 Q384 134 401 142 L426 18 Q400 4 367 -5.5 Q334 -15 294 -15 Z M341 595 L351 748 L482 748 L433 595 L341 595 Z " />
<glyph glyph-name="uni017E" unicode="&#x17e;" horiz-adv-x="536" d="M37 0 L37 108 L279 402 L45 402 L45 533 L482 533 L482 425 L240 131 L499 131 L499 0 L37 0 Z M200 605 L63 748 L202 748 L265 691 L330 748 L464 748 L327 605 L200 605 Z " />
<glyph glyph-name="uni0101" unicode="&#x101;" horiz-adv-x="566" d="M212 -15 Q172 -15 138 -2.5 Q104 10 79 32 Q54 54 40 84.5 Q26 115 26 151 Q26 202 53.5 241 Q81 280 130.5 301.5 Q180 323 246 323 Q278 323 304 318 Q330 313 357 302 L357 329 Q357 368 334.5 391.5 Q312 415 274 415 Q246 415 223 401.5 Q200 388 191 365 L45 390 Q53 425 74 454 Q95 483 126.5 504 Q158 525 196 536.5 Q234 548 277 548 Q330 548 373.5 531.5 Q417 515 449 484.5 Q481 454 498 412.5 Q515 371 515 321 L515 0 L369 0 L365 63 Q345 28 305 6.5 Q265 -15 212 -15 Z M186 161 Q186 137 205.5 121.5 Q225 106 257 106 Q286 106 308.5 118 Q331 130 344 151 Q357 172 357 198 L357 203 Q339 211 318 215.5 Q297 220 276 220 Q234 220 210 204 Q186 188 186 161 Z M117 609 L117 714 L445 714 L445 609 L117 609 Z " />
<glyph glyph-name="uni0113" unicode="&#x113;" horiz-adv-x="596" d="M307 -15 Q247 -15 197 5.5 Q147 26 110 64 Q73 102 53 154 Q33 206 33 268 Q33 328 53.5 379 Q74 430 110.5 468 Q147 506 196 527 Q245 548 302 548 Q362 548 411 527.5 Q460 507 495 469 Q530 431 549 378 Q568 325 568 260 L568 224 L200 224 Q210 175 238 148.5 Q266 122 309 122 Q341 122 365.5 135 Q390 148 409 174 L558 135 Q539 89 501.5 55.5 Q464 22 414 3.5 Q364 -15 307 -15 Z M302 426 Q262 426 235.5 400.5 Q209 375 200 328 L400 328 Q392 375 366.5 400.5 Q341 426 302 426 Z M138 609 L138 714 L466 714 L466 609 L138 609 Z " />
<glyph glyph-name="uni012B" unicode="&#x12b;" horiz-adv-x="265" d="M51 0 L51 533 L214 533 L214 0 L51 0 Z M-33 609 L-33 714 L295 714 L295 609 L-33 609 Z " />
<glyph glyph-name="uni016B" unicode="&#x16b;" horiz-adv-x="598" d="M298 -15 Q224 -15 168 16.5 Q112 48 81.5 105 Q51 162 51 240 L51 533 L214 533 L214 237 Q214 188 236.5 160 Q259 132 299 132 Q339 132 361.5 160 Q384 188 384 237 L384 533 L547 533 L547 240 Q547 183 529.5 136 Q512 89 479.5 55 Q447 21 401 3 Q355 -15 298 -15 Z M134 609 L134 714 L462 714 L462 609 L134 609 Z " />
<glyph glyph-name="uni0308" unicode="&#x308;" d="M-112 590 Q-136 590 -155 601 Q-174 612 -185 631 Q-196 650 -196 673 Q-196 696 -185 715 Q-174 734 -155 745 Q-136 756 -112 756 Q-88 756 -69 745 Q-50 734 -39 715 Q-28 696 -28 673 Q-28 650 -39 631 Q-50 612 -69 601 Q-88 590 -112 590 Z M112 590 Q88 590 69 601 Q50 612 39 631 Q28 650 28 673 Q28 696 39 715 Q50 734 69 745 Q88 756 112 756 Q136 756 155 745 Q174 734 185 715 Q196 696 196 673 Q196 650 185 631 Q174 612 155 601 Q136 590 112 590 Z " />
<glyph glyph-name="uni00A8" unicode="&#xa8;" horiz-adv-x="601" d="M188 590 Q164 590 145 601 Q126 612 115 631 Q104 650 104 673 Q104 696 115 715 Q126 734 145 745 Q164 756 188 756 Q212 756 231 745 Q250 734 261 715 Q272 696 272 673 Q272 650 261 631 Q250 612 231 601 Q212 590 188 590 Z M412 590 Q388 590 369 601 Q350 612 339 631 Q328 650 328 673 Q328 696 339 715 Q350 734 369 745 Q388 756 412 756 Q436 756 455 745 Q474 734 485 715 Q496 696 496 673 Q496 650 485 631 Q474 612 455 601 Q436 590 412 590 Z " />
<glyph glyph-name="uni0306" unicode="&#x306;" d="M0 602 Q-48 602 -86 619.5 Q-124 637 -149 669 Q-174 701 -181 744 L-65 744 Q-60 720 -43 707.5 Q-26 695 0 695 Q26 695 43 707.5 Q60 720 65 744 L181 744 Q174 701 149 669 Q124 637 86 619.5 Q48 602 0 602 Z " />
<glyph glyph-name="uni02D8" unicode="&#x2d8;" horiz-adv-x="601" d="M300 602 Q252 602 214 619.5 Q176 637 151 669 Q126 701 119 744 L235 744 Q240 720 257 707.5 Q274 695 300 695 Q326 695 343 707.5 Q360 720 365 744 L481 744 Q474 701 449 669 Q424 637 386 619.5 Q348 602 300 602 Z " />
<glyph glyph-name="uni00C4" unicode="&#xc4;" horiz-adv-x="773" d="M13 0 L294 710 L479 710 L760 0 L580 0 L530 138 L237 138 L187 0 L13 0 Z M290 284 L477 284 L383 543 L290 284 Z M260 767 Q236 767 216 778.5 Q196 790 184.5 810 Q173 830 173 854 Q173 878 184.5 898 Q196 918 216 929.5 Q236 941 260 941 Q284 941 304 929.5 Q324 918 335.5 898 Q347 878 347 854 Q347 830 335.5 810 Q324 790 304 778.5 Q284 767 260 767 Z M512 767 Q488 767 468 778.5 Q448 790 436.5 810 Q425 830 425 854 Q425 878 436.5 898 Q448 918 468 929.5 Q488 941 512 941 Q536 941 556 929.5 Q576 918 587.5 898 Q599 878 599 854 Q599 830 587.5 810 Q576 790 556 778.5 Q536 767 512 767 Z " />
<glyph glyph-name="uni00CB" unicode="&#xcb;" horiz-adv-x="579" d="M60 0 L60 710 L519 710 L519 565 L230 565 L230 435 L485 435 L485 290 L230 290 L230 145 L529 145 L529 0 L60 0 Z M163 767 Q139 767 119 778.5 Q99 790 87.5 810 Q76 830 76 854 Q76 878 87.5 898 Q99 918 119 929.5 Q139 941 163 941 Q187 941 207 929.5 Q227 918 238.5 898 Q250 878 250 854 Q250 830 238.5 810 Q227 790 207 778.5 Q187 767 163 767 Z M415 767 Q391 767 371 778.5 Q351 790 339.5 810 Q328 830 328 854 Q328 878 339.5 898 Q351 918 371 929.5 Q391 941 415 941 Q439 941 459 929.5 Q479 918 490.5 898 Q502 878 502 854 Q502 830 490.5 810 Q479 790 459 778.5 Q439 767 415 767 Z " />
<glyph glyph-name="uni00CF" unicode="&#xcf;" horiz-adv-x="294" d="M60 0 L60 710 L234 710 L234 0 L60 0 Z M21 767 Q-3 767 -23 778.5 Q-43 790 -54.5 810 Q-66 830 -66 854 Q-66 878 -54.5 898 Q-43 918 -23 929.5 Q-3 941 21 941 Q45 941 65 929.5 Q85 918 96.5 898 Q108 878 108 854 Q108 830 96.5 810 Q85 790 65 778.5 Q45 767 21 767 Z M273 767 Q249 767 229 778.5 Q209 790 197.5 810 Q186 830 186 854 Q186 878 197.5 898 Q209 918 229 929.5 Q249 941 273 941 Q297 941 317 929.5 Q337 918 348.5 898 Q360 878 360 854 Q360 830 348.5 810 Q337 790 317 778.5 Q297 767 273 767 Z " />
<glyph glyph-name="uni00D6" unicode="&#xd6;" horiz-adv-x="828" d="M413 -20 Q349 -20 292 -2 Q235 16 189 49.5 Q143 83 109 129.5 Q75 176 57 233 Q39 290 39 354 Q39 418 57 475.5 Q75 533 109 579.5 Q143 626 189.5 659.5 Q236 693 293 711.5 Q350 730 415 730 Q479 730 536 712 Q593 694 639 660.5 Q685 627 719 580.5 Q753 534 771 477 Q789 420 789 356 Q789 292 771 234.5 Q753 177 719 130.5 Q685 84 638.5 50.5 Q592 17 535 -1.5 Q478 -20 413 -20 Z M414 140 Q456 140 492 156 Q528 172 554 201 Q580 230 594.5 269 Q609 308 609 355 Q609 402 594.5 441 Q580 480 554 509 Q528 538 492 554 Q456 570 414 570 Q372 570 336 554 Q300 538 274 509 Q248 480 233.5 441 Q219 402 219 355 Q219 308 233.5 269 Q248 230 274 201 Q300 172 336 156 Q372 140 414 140 Z M288 767 Q264 767 244 778.5 Q224 790 212.5 810 Q201 830 201 854 Q201 878 212.5 898 Q224 918 244 929.5 Q264 941 288 941 Q312 941 332 929.5 Q352 918 363.5 898 Q375 878 375 854 Q375 830 363.5 810 Q352 790 332 778.5 Q312 767 288 767 Z M540 767 Q516 767 496 778.5 Q476 790 464.5 810 Q453 830 453 854 Q453 878 464.5 898 Q476 918 496 929.5 Q516 941 540 941 Q564 941 584 929.5 Q604 918 615.5 898 Q627 878 627 854 Q627 830 615.5 810 Q604 790 584 778.5 Q564 767 540 767 Z " />
<glyph glyph-name="uni00DC" unicode="&#xdc;" horiz-adv-x="740" d="M368 -20 Q296 -20 238.5 2 Q181 24 139.5 65 Q98 106 76 163.5 Q54 221 54 292 L54 710 L228 710 L228 300 Q228 251 245.5 215 Q263 179 294.5 159.5 Q326 140 370 140 Q414 140 445.5 159.5 Q477 179 494.5 215 Q512 251 512 300 L512 710 L686 710 L686 292 Q686 221 663.5 163.5 Q641 106 599.5 65 Q558 24 499 2 Q440 -20 368 -20 Z M244 767 Q220 767 200 778.5 Q180 790 168.5 810 Q157 830 157 854 Q157 878 168.5 898 Q180 918 200 929.5 Q220 941 244 941 Q268 941 288 929.5 Q308 918 319.5 898 Q331 878 331 854 Q331 830 319.5 810 Q308 790 288 778.5 Q268 767 244 767 Z M496 767 Q472 767 452 778.5 Q432 790 420.5 810 Q409 830 409 854 Q409 878 420.5 898 Q432 918 452 929.5 Q472 941 496 941 Q520 941 540 929.5 Q560 918 571.5 898 Q583 878 583 854 Q583 830 571.5 810 Q560 790 540 778.5 Q520 767 496 767 Z " />
<glyph glyph-name="uni1E84" unicode="&#x1e84;" horiz-adv-x="1058" d="M1031 710 L819 0 L657 0 L530 481 L403 0 L239 0 L27 710 L209 710 L327 229 L454 710 L610 710 L737 230 L854 710 L1031 710 Z M403 767 Q379 767 359 778.5 Q339 790 327.5 810 Q316 830 316 854 Q316 878 327.5 898 Q339 918 359 929.5 Q379 941 403 941 Q427 941 447 929.5 Q467 918 478.5 898 Q490 878 490 854 Q490 830 478.5 810 Q467 790 447 778.5 Q427 767 403 767 Z M655 767 Q631 767 611 778.5 Q591 790 579.5 810 Q568 830 568 854 Q568 878 579.5 898 Q591 918 611 929.5 Q631 941 655 941 Q679 941 699 929.5 Q719 918 730.5 898 Q742 878 742 854 Q742 830 730.5 810 Q719 790 699 778.5 Q679 767 655 767 Z " />
<glyph glyph-name="uni0178" unicode="&#x178;" horiz-adv-x="684" d="M255 0 L255 273 L8 710 L205 710 L345 435 L485 710 L676 710 L429 273 L429 0 L255 0 Z M216 767 Q192 767 172 778.5 Q152 790 140.5 810 Q129 830 129 854 Q129 878 140.5 898 Q152 918 172 929.5 Q192 941 216 941 Q240 941 260 929.5 Q280 918 291.5 898 Q303 878 303 854 Q303 830 291.5 810 Q280 790 260 778.5 Q240 767 216 767 Z M468 767 Q444 767 424 778.5 Q404 790 392.5 810 Q381 830 381 854 Q381 878 392.5 898 Q404 918 424 929.5 Q444 941 468 941 Q492 941 512 929.5 Q532 918 543.5 898 Q555 878 555 854 Q555 830 543.5 810 Q532 790 512 778.5 Q492 767 468 767 Z " />
<glyph glyph-name="uni0102" unicode="&#x102;" horiz-adv-x="773" d="M13 0 L294 710 L479 710 L760 0 L580 0 L530 138 L237 138 L187 0 L13 0 Z M290 284 L477 284 L383 543 L290 284 Z M386 777 Q335 777 294 795.5 Q253 814 226 848 Q199 882 191 928 L319 928 Q325 903 342.5 889 Q360 875 386 875 Q412 875 429.5 889 Q447 903 453 928 L581 928 Q573 882 546 848 Q519 814 478 795.5 Q437 777 386 777 Z " />
<glyph glyph-name="uni011E" unicode="&#x11e;" horiz-adv-x="807" d="M415 -20 Q350 -20 293 -2 Q236 16 189.5 49.5 Q143 83 109 129 Q75 175 57 231.5 Q39 288 39 353 Q39 418 57.5 475 Q76 532 110 579 Q144 626 191 659.5 Q238 693 295 711.5 Q352 730 417 730 Q492 730 555.5 706.5 Q619 683 666.5 638.5 Q714 594 742 531 L572 482 Q548 526 508.5 549 Q469 572 417 572 Q374 572 338 556 Q302 540 275.5 511 Q249 482 234 442.5 Q219 403 219 356 Q219 308 234 268 Q249 228 276.5 199 Q304 170 341.5 154 Q379 138 424 138 Q468 138 503.5 153 Q539 168 562 196 Q585 224 593 261 L432 261 L432 401 L772 401 L772 320 Q772 245 746 183 Q720 121 672 75.5 Q624 30 558.5 5 Q493 -20 415 -20 Z M420 777 Q369 777 328 795.5 Q287 814 260 848 Q233 882 225 928 L353 928 Q359 903 376.5 889 Q394 875 420 875 Q446 875 463.5 889 Q481 903 487 928 L615 928 Q607 882 580 848 Q553 814 512 795.5 Q471 777 420 777 Z " />
<glyph glyph-name="uni00E4" unicode="&#xe4;" horiz-adv-x="566" d="M212 -15 Q172 -15 138 -2.5 Q104 10 79 32 Q54 54 40 84.5 Q26 115 26 151 Q26 202 53.5 241 Q81 280 130.5 301.5 Q180 323 246 323 Q278 323 304 318 Q330 313 357 302 L357 329 Q357 368 334.5 391.5 Q312 415 274 415 Q246 415 223 401.5 Q200 388 191 365 L45 390 Q53 425 74 454 Q95 483 126.5 504 Q158 525 196 536.5 Q234 548 277 548 Q330 548 373.5 531.5 Q417 515 449 484.5 Q481 454 498 412.5 Q515 371 515 321 L515 0 L369 0 L365 63 Q345 28 305 6.5 Q265 -15 212 -15 Z M186 161 Q186 137 205.5 121.5 Q225 106 257 106 Q286 106 308.5 118 Q331 130 344 151 Q357 172 357 198 L357 203 Q339 211 318 215.5 Q297 220 276 220 Q234 220 210 204 Q186 188 186 161 Z M169 590 Q145 590 126 601 Q107 612 96 631 Q85 650 85 673 Q85 696 96 715 Q107 734 126 745 Q145 756 169 756 Q193 756 212 745 Q231 734 242 715 Q253 696 253 673 Q253 650 242 631 Q231 612 212 601 Q193 590 169 590 Z M393 590 Q369 590 350 601 Q331 612 320 631 Q309 650 309 673 Q309 696 320 715 Q331 734 350 745 Q369 756 393 756 Q417 756 436 745 Q455 734 466 715 Q477 696 477 673 Q477 650 466 631 Q455 612 436 601 Q417 590 393 590 Z " />
<glyph glyph-name="uni00EB" unicode="&#xeb;" horiz-adv-x="596" d="M307 -15 Q247 -15 197 5.5 Q147 26 110 64 Q73 102 53 154 Q33 206 33 268 Q33 328 53.5 379 Q74 430 110.5 468 Q147 506 196 527 Q245 548 302 548 Q362 548 411 527.5 Q460 507 495 469 Q530 431 549 378 Q568 325 568 260 L568 224 L200 224 Q210 175 238 148.5 Q266 122 309 122 Q341 122 365.5 135 Q390 148 409 174 L558 135 Q539 89 501.5 55.5 Q464 22 414 3.5 Q364 -15 307 -15 Z M302 426 Q262 426 235.5 400.5 Q209 375 200 328 L400 328 Q392 375 366.5 400.5 Q341 426 302 426 Z M190 590 Q166 590 147 601 Q128 612 117 631 Q106 650 106 673 Q106 696 117 715 Q128 734 147 745 Q166 756 190 756 Q214 756 233 745 Q252 734 263 715 Q274 696 274 673 Q274 650 263 631 Q252 612 233 601 Q214 590 190 590 Z M414 590 Q390 590 371 601 Q352 612 341 631 Q330 650 330 673 Q330 696 341 715 Q352 734 371 745 Q390 756 414 756 Q438 756 457 745 Q476 734 487 715 Q498 696 498 673 Q498 650 487 631 Q476 612 457 601 Q438 590 414 590 Z " />
<glyph glyph-name="uni00EF" unicode="&#xef;" horiz-adv-x="265" d="M51 0 L51 533 L214 533 L214 0 L51 0 Z M19 590 Q-5 590 -24 601 Q-43 612 -54 631 Q-65 650 -65 673 Q-65 696 -54 715 Q-43 734 -24 745 Q-5 756 19 756 Q43 756 62 745 Q81 734 92 715 Q103 696 103 673 Q103 650 92 631 Q81 612 62 601 Q43 590 19 590 Z M243 590 Q219 590 200 601 Q181 612 170 631 Q159 650 159 673 Q159 696 170 715 Q181 734 200 745 Q219 756 243 756 Q267 756 286 745 Q305 734 316 715 Q327 696 327 673 Q327 650 316 631 Q305 612 286 601 Q267 590 243 590 Z " />
<glyph glyph-name="uni00F6" unicode="&#xf6;" horiz-adv-x="634" d="M315 -15 Q255 -15 203.5 6 Q152 27 113.5 65 Q75 103 54 154 Q33 205 33 265 Q33 325 54.5 376.5 Q76 428 114.5 466.5 Q153 505 205.5 526.5 Q258 548 319 548 Q379 548 430.5 527 Q482 506 520.5 467.5 Q559 429 580 378 Q601 327 601 267 Q601 207 579.5 155.5 Q558 104 519.5 66 Q481 28 428.5 6.5 Q376 -15 315 -15 Z M317 132 Q350 132 377 149.5 Q404 167 419.5 197.5 Q435 228 435 266 Q435 305 419.5 335.5 Q404 366 377 383.5 Q350 401 317 401 Q284 401 257 383.5 Q230 366 214.5 335.5 Q199 305 199 266 Q199 228 214.5 197.5 Q230 167 257 149.5 Q284 132 317 132 Z M205 590 Q181 590 162 601 Q143 612 132 631 Q121 650 121 673 Q121 696 132 715 Q143 734 162 745 Q181 756 205 756 Q229 756 248 745 Q267 734 278 715 Q289 696 289 673 Q289 650 278 631 Q267 612 248 601 Q229 590 205 590 Z M429 590 Q405 590 386 601 Q367 612 356 631 Q345 650 345 673 Q345 696 356 715 Q367 734 386 745 Q405 756 429 756 Q453 756 472 745 Q491 734 502 715 Q513 696 513 673 Q513 650 502 631 Q491 612 472 601 Q453 590 429 590 Z " />
<glyph glyph-name="uni00FC" unicode="&#xfc;" horiz-adv-x="598" d="M298 -15 Q224 -15 168 16.5 Q112 48 81.5 105 Q51 162 51 240 L51 533 L214 533 L214 237 Q214 188 236.5 160 Q259 132 299 132 Q339 132 361.5 160 Q384 188 384 237 L384 533 L547 533 L547 240 Q547 183 529.5 136 Q512 89 479.5 55 Q447 21 401 3 Q355 -15 298 -15 Z M186 590 Q162 590 143 601 Q124 612 113 631 Q102 650 102 673 Q102 696 113 715 Q124 734 143 745 Q162 756 186 756 Q210 756 229 745 Q248 734 259 715 Q270 696 270 673 Q270 650 259 631 Q248 612 229 601 Q210 590 186 590 Z M410 590 Q386 590 367 601 Q348 612 337 631 Q326 650 326 673 Q326 696 337 715 Q348 734 367 745 Q386 756 410 756 Q434 756 453 745 Q472 734 483 715 Q494 696 494 673 Q494 650 483 631 Q472 612 453 601 Q434 590 410 590 Z " />
<glyph glyph-name="uni1E85" unicode="&#x1e85;" horiz-adv-x="857" d="M184 0 L8 533 L178 533 L262 196 L358 533 L502 533 L598 194 L685 533 L849 533 L673 0 L522 0 L428 334 L333 0 L184 0 Z M316 590 Q292 590 273 601 Q254 612 243 631 Q232 650 232 673 Q232 696 243 715 Q254 734 273 745 Q292 756 316 756 Q340 756 359 745 Q378 734 389 715 Q400 696 400 673 Q400 650 389 631 Q378 612 359 601 Q340 590 316 590 Z M540 590 Q516 590 497 601 Q478 612 467 631 Q456 650 456 673 Q456 696 467 715 Q478 734 497 745 Q516 756 540 756 Q564 756 583 745 Q602 734 613 715 Q624 696 624 673 Q624 650 613 631 Q602 612 583 601 Q564 590 540 590 Z " />
<glyph glyph-name="uni00FF" unicode="&#xff;" horiz-adv-x="576" d="M155 -206 Q126 -206 100 -200 Q74 -194 51 -181 L80 -56 Q91 -61 106.5 -65 Q122 -69 136 -69 Q163 -69 183 -52.5 Q203 -36 217 -1 L221 8 L8 533 L187 533 L297 183 L395 533 L568 533 L356 -38 Q324 -124 275 -165 Q226 -206 155 -206 Z M175 590 Q151 590 132 601 Q113 612 102 631 Q91 650 91 673 Q91 696 102 715 Q113 734 132 745 Q151 756 175 756 Q199 756 218 745 Q237 734 248 715 Q259 696 259 673 Q259 650 248 631 Q237 612 218 601 Q199 590 175 590 Z M399 590 Q375 590 356 601 Q337 612 326 631 Q315 650 315 673 Q315 696 326 715 Q337 734 356 745 Q375 756 399 756 Q423 756 442 745 Q461 734 472 715 Q483 696 483 673 Q483 650 472 631 Q461 612 442 601 Q423 590 399 590 Z " />
<glyph glyph-name="uni0103" unicode="&#x103;" horiz-adv-x="566" d="M212 -15 Q172 -15 138 -2.5 Q104 10 79 32 Q54 54 40 84.5 Q26 115 26 151 Q26 202 53.5 241 Q81 280 130.5 301.5 Q180 323 246 323 Q278 323 304 318 Q330 313 357 302 L357 329 Q357 368 334.5 391.5 Q312 415 274 415 Q246 415 223 401.5 Q200 388 191 365 L45 390 Q53 425 74 454 Q95 483 126.5 504 Q158 525 196 536.5 Q234 548 277 548 Q330 548 373.5 531.5 Q417 515 449 484.5 Q481 454 498 412.5 Q515 371 515 321 L515 0 L369 0 L365 63 Q345 28 305 6.5 Q265 -15 212 -15 Z M186 161 Q186 137 205.5 121.5 Q225 106 257 106 Q286 106 308.5 118 Q331 130 344 151 Q357 172 357 198 L357 203 Q339 211 318 215.5 Q297 220 276 220 Q234 220 210 204 Q186 188 186 161 Z M281 602 Q233 602 195 619.5 Q157 637 132 669 Q107 701 100 744 L216 744 Q221 720 238 707.5 Q255 695 281 695 Q307 695 324 707.5 Q341 720 346 744 L462 744 Q455 701 430 669 Q405 637 367 619.5 Q329 602 281 602 Z " />
<glyph glyph-name="uni011F" unicode="&#x11f;" horiz-adv-x="637" d="M267 19 Q218 19 175.5 39.5 Q133 60 101 96.5 Q69 133 51 180 Q33 227 33 280 Q33 335 51.5 383.5 Q70 432 103.5 469 Q137 506 181.5 527 Q226 548 278 548 Q327 548 367 528 Q407 508 432 472 L436 533 L586 533 L586 70 Q586 8 566 -42.5 Q546 -93 509 -129.5 Q472 -166 421 -186 Q370 -206 308 -206 Q248 -206 198 -187.5 Q148 -169 112 -135.5 Q76 -102 56 -57 L216 -23 Q231 -46 255 -59 Q279 -72 310 -72 Q344 -72 369.5 -56.5 Q395 -41 409 -13 Q423 15 423 52 L423 93 Q396 58 355.5 38.5 Q315 19 267 19 Z M312 161 Q344 161 369.5 177 Q395 193 410 220.5 Q425 248 425 284 Q425 319 410 346.5 Q395 374 369.5 390 Q344 406 312 406 Q280 406 254.5 390 Q229 374 214 346.5 Q199 319 199 284 Q199 248 214 220.5 Q229 193 254.5 177 Q280 161 312 161 Z M309 602 Q261 602 223 619.5 Q185 637 160 669 Q135 701 128 744 L244 744 Q249 720 266 707.5 Q283 695 309 695 Q335 695 352 707.5 Q369 720 374 744 L490 744 Q483 701 458 669 Q433 637 395 619.5 Q357 602 309 602 Z " />
<glyph glyph-name="uni0307" unicode="&#x307;" d="M91 680 Q91 655 79.5 635 Q68 615 47 603 Q26 591 0 591 Q-26 591 -46.5 603 Q-67 615 -78.5 635 Q-90 655 -90 680 Q-90 705 -78.5 725 Q-67 745 -46.5 757 Q-26 769 0 769 Q26 769 47 757 Q68 745 79.5 725 Q91 705 91 680 Z " />
<glyph glyph-name="uni02D9" unicode="&#x2d9;" horiz-adv-x="601" d="M391 680 Q391 655 379.5 635 Q368 615 347 603 Q326 591 300 591 Q274 591 253.5 603 Q233 615 221.5 635 Q210 655 210 680 Q210 705 221.5 725 Q233 745 253.5 757 Q274 769 300 769 Q326 769 347 757 Q368 745 379.5 725 Q391 705 391 680 Z " />
<glyph glyph-name="uni0323" unicode="&#x323;" d="M91 -144 Q91 -169 79.5 -189 Q68 -209 47 -221 Q26 -233 0 -233 Q-26 -233 -46.5 -221 Q-67 -209 -78.5 -189 Q-90 -169 -90 -144 Q-90 -119 -78.5 -99 Q-67 -79 -46.5 -67 Q-26 -55 0 -55 Q26 -55 47 -67 Q68 -79 79.5 -99 Q91 -119 91 -144 Z " />
<glyph glyph-name="uni0116" unicode="&#x116;" horiz-adv-x="579" d="M60 0 L60 710 L519 710 L519 565 L230 565 L230 435 L485 435 L485 290 L230 290 L230 145 L529 145 L529 0 L60 0 Z M289 767 Q263 767 241.5 779 Q220 791 208 812 Q196 833 196 859 Q196 885 208 906 Q220 927 241.5 939 Q263 951 289 951 Q315 951 336.5 939 Q358 927 370 906 Q382 885 382 859 Q382 833 370 812 Q358 791 336.5 779 Q315 767 289 767 Z " />
<glyph glyph-name="uni0130" unicode="&#x130;" horiz-adv-x="294" d="M60 0 L60 710 L234 710 L234 0 L60 0 Z M147 767 Q121 767 99.5 779 Q78 791 66 812 Q54 833 54 859 Q54 885 66 906 Q78 927 99.5 939 Q121 951 147 951 Q173 951 194.5 939 Q216 927 228 906 Q240 885 240 859 Q240 833 228 812 Q216 791 194.5 779 Q173 767 147 767 Z " />
<glyph glyph-name="uni010A" unicode="&#x10a;" horiz-adv-x="748" d="M398 -20 Q336 -20 281.5 -2 Q227 16 182.5 49 Q138 82 106 127.5 Q74 173 56.5 229.5 Q39 286 39 350 Q39 414 56.5 471.5 Q74 529 106.5 576.5 Q139 624 184 658.5 Q229 693 283.5 711.5 Q338 730 399 730 Q456 730 507.5 714 Q559 698 600.5 668.5 Q642 639 671.5 597.5 Q701 556 716 504 L546 466 Q524 516 485 543 Q446 570 396 570 Q358 570 325.5 553.5 Q293 537 269 507.5 Q245 478 232 438.5 Q219 399 219 352 Q219 306 232 267 Q245 228 269 199.5 Q293 171 326 155.5 Q359 140 398 140 Q450 140 489.5 166.5 Q529 193 553 244 L723 206 Q703 136 656.5 85.5 Q610 35 544 7.5 Q478 -20 398 -20 Z M397 767 Q371 767 349.5 779 Q328 791 316 812 Q304 833 304 859 Q304 885 316 906 Q328 927 349.5 939 Q371 951 397 951 Q423 951 444.5 939 Q466 927 478 906 Q490 885 490 859 Q490 833 478 812 Q466 791 444.5 779 Q423 767 397 767 Z " />
<glyph glyph-name="uni0120" unicode="&#x120;" horiz-adv-x="807" d="M415 -20 Q350 -20 293 -2 Q236 16 189.5 49.5 Q143 83 109 129 Q75 175 57 231.5 Q39 288 39 353 Q39 418 57.5 475 Q76 532 110 579 Q144 626 191 659.5 Q238 693 295 711.5 Q352 730 417 730 Q492 730 555.5 706.5 Q619 683 666.5 638.5 Q714 594 742 531 L572 482 Q548 526 508.5 549 Q469 572 417 572 Q374 572 338 556 Q302 540 275.5 511 Q249 482 234 442.5 Q219 403 219 356 Q219 308 234 268 Q249 228 276.5 199 Q304 170 341.5 154 Q379 138 424 138 Q468 138 503.5 153 Q539 168 562 196 Q585 224 593 261 L432 261 L432 401 L772 401 L772 320 Q772 245 746 183 Q720 121 672 75.5 Q624 30 558.5 5 Q493 -20 415 -20 Z M420 767 Q394 767 372.5 779 Q351 791 339 812 Q327 833 327 859 Q327 885 339 906 Q351 927 372.5 939 Q394 951 420 951 Q446 951 467.5 939 Q489 927 501 906 Q513 885 513 859 Q513 833 501 812 Q489 791 467.5 779 Q446 767 420 767 Z " />
<glyph glyph-name="uni017B" unicode="&#x17b;" horiz-adv-x="649" d="M34 0 L34 123 L379 564 L49 564 L49 710 L598 710 L598 587 L252 146 L620 146 L620 0 L34 0 Z M323 767 Q297 767 275.5 779 Q254 791 242 812 Q230 833 230 859 Q230 885 242 906 Q254 927 275.5 939 Q297 951 323 951 Q349 951 370.5 939 Q392 927 404 906 Q416 885 416 859 Q416 833 404 812 Q392 791 370.5 779 Q349 767 323 767 Z " />
<glyph glyph-name="uni1E24" unicode="&#x1e24;" horiz-adv-x="752" d="M60 0 L60 710 L234 710 L234 444 L518 444 L518 710 L692 710 L692 0 L518 0 L518 290 L234 290 L234 0 L60 0 Z M376 -244 Q350 -244 328.5 -232 Q307 -220 295 -199 Q283 -178 283 -152 Q283 -126 295 -105 Q307 -84 328.5 -72 Q350 -60 376 -60 Q402 -60 423.5 -72 Q445 -84 457 -105 Q469 -126 469 -152 Q469 -178 457 -199 Q445 -220 423.5 -232 Q402 -244 376 -244 Z " />
<glyph glyph-name="uni1E36" unicode="&#x1e36;" horiz-adv-x="551" d="M60 0 L60 710 L234 710 L234 154 L514 154 L514 0 L60 0 Z M286 -244 Q260 -244 238.5 -232 Q217 -220 205 -199 Q193 -178 193 -152 Q193 -126 205 -105 Q217 -84 238.5 -72 Q260 -60 286 -60 Q312 -60 333.5 -72 Q355 -84 367 -105 Q379 -126 379 -152 Q379 -178 367 -199 Q355 -220 333.5 -232 Q312 -244 286 -244 Z " />
<glyph glyph-name="uni0117" unicode="&#x117;" horiz-adv-x="596" d="M307 -15 Q247 -15 197 5.5 Q147 26 110 64 Q73 102 53 154 Q33 206 33 268 Q33 328 53.5 379 Q74 430 110.5 468 Q147 506 196 527 Q245 548 302 548 Q362 548 411 527.5 Q460 507 495 469 Q530 431 549 378 Q568 325 568 260 L568 224 L200 224 Q210 175 238 148.5 Q266 122 309 122 Q341 122 365.5 135 Q390 148 409 174 L558 135 Q539 89 501.5 55.5 Q464 22 414 3.5 Q364 -15 307 -15 Z M302 426 Q262 426 235.5 400.5 Q209 375 200 328 L400 328 Q392 375 366.5 400.5 Q341 426 302 426 Z M393 680 Q393 655 381.5 635 Q370 615 349 603 Q328 591 302 591 Q276 591 255.5 603 Q235 615 223.5 635 Q212 655 212 680 Q212 705 223.5 725 Q235 745 255.5 757 Q276 769 302 769 Q328 769 349 757 Q370 745 381.5 725 Q393 705 393 680 Z " />
<glyph glyph-name="uni010B" unicode="&#x10b;" horiz-adv-x="581" d="M304 -15 Q246 -15 196.5 5.5 Q147 26 110.5 63.5 Q74 101 53.5 151.5 Q33 202 33 262 Q33 323 54 375 Q75 427 112 466 Q149 505 199.5 526.5 Q250 548 308 548 Q369 548 419.5 525 Q470 502 504.5 460 Q539 418 552 361 L394 335 Q381 366 358 383.5 Q335 401 305 401 Q274 401 250.5 383.5 Q227 366 213 335 Q199 304 199 265 Q199 226 212.5 196 Q226 166 250 149 Q274 132 305 132 Q336 132 361.5 149 Q387 166 399 198 L557 172 Q548 130 524.5 95.5 Q501 61 467.5 36 Q434 11 392 -2 Q350 -15 304 -15 Z M399 680 Q399 655 387.5 635 Q376 615 355 603 Q334 591 308 591 Q282 591 261.5 603 Q241 615 229.5 635 Q218 655 218 680 Q218 705 229.5 725 Q241 745 261.5 757 Q282 769 308 769 Q334 769 355 757 Q376 745 387.5 725 Q399 705 399 680 Z " />
<glyph glyph-name="uni0121" unicode="&#x121;" horiz-adv-x="637" d="M267 19 Q218 19 175.5 39.5 Q133 60 101 96.5 Q69 133 51 180 Q33 227 33 280 Q33 335 51.5 383.5 Q70 432 103.5 469 Q137 506 181.5 527 Q226 548 278 548 Q327 548 367 528 Q407 508 432 472 L436 533 L586 533 L586 70 Q586 8 566 -42.5 Q546 -93 509 -129.5 Q472 -166 421 -186 Q370 -206 308 -206 Q248 -206 198 -187.5 Q148 -169 112 -135.5 Q76 -102 56 -57 L216 -23 Q231 -46 255 -59 Q279 -72 310 -72 Q344 -72 369.5 -56.5 Q395 -41 409 -13 Q423 15 423 52 L423 93 Q396 58 355.5 38.5 Q315 19 267 19 Z M312 161 Q344 161 369.5 177 Q395 193 410 220.5 Q425 248 425 284 Q425 319 410 346.5 Q395 374 369.5 390 Q344 406 312 406 Q280 406 254.5 390 Q229 374 214 346.5 Q199 319 199 284 Q199 248 214 220.5 Q229 193 254.5 177 Q280 161 312 161 Z M400 680 Q400 655 388.5 635 Q377 615 356 603 Q335 591 309 591 Q283 591 262.5 603 Q242 615 230.5 635 Q219 655 219 680 Q219 705 230.5 725 Q242 745 262.5 757 Q283 769 309 769 Q335 769 356 757 Q377 745 388.5 725 Q400 705 400 680 Z " />
<glyph glyph-name="uni017C" unicode="&#x17c;" horiz-adv-x="536" d="M37 0 L37 108 L279 402 L45 402 L45 533 L482 533 L482 425 L240 131 L499 131 L499 0 L37 0 Z M354 680 Q354 655 342.5 635 Q331 615 310 603 Q289 591 263 591 Q237 591 216.5 603 Q196 615 184.5 635 Q173 655 173 680 Q173 705 184.5 725 Q196 745 216.5 757 Q237 769 263 769 Q289 769 310 757 Q331 745 342.5 725 Q354 705 354 680 Z " />
<glyph glyph-name="uni1E25" unicode="&#x1e25;" horiz-adv-x="601" d="M51 0 L51 748 L214 748 L214 475 Q238 509 275.5 528.5 Q313 548 361 548 Q418 548 460.5 520 Q503 492 526.5 441.5 Q550 391 550 322 L550 0 L387 0 L387 299 Q387 346 365.5 373.5 Q344 401 306 401 Q279 401 258.5 388 Q238 375 226 352.5 Q214 330 214 302 L214 0 L51 0 Z M391 -144 Q391 -169 379.5 -189 Q368 -209 347 -221 Q326 -233 300 -233 Q274 -233 253.5 -221 Q233 -209 221.5 -189 Q210 -169 210 -144 Q210 -119 221.5 -99 Q233 -79 253.5 -67 Q274 -55 300 -55 Q326 -55 347 -67 Q368 -79 379.5 -99 Q391 -119 391 -144 Z " />
<glyph glyph-name="uni1E37" unicode="&#x1e37;" horiz-adv-x="265" d="M51 0 L51 748 L214 748 L214 0 L51 0 Z M222 -144 Q222 -169 210.5 -189 Q199 -209 178 -221 Q157 -233 131 -233 Q105 -233 84.5 -221 Q64 -209 52.5 -189 Q41 -169 41 -144 Q41 -119 52.5 -99 Q64 -79 84.5 -67 Q105 -55 131 -55 Q157 -55 178 -67 Q199 -79 210.5 -99 Q222 -119 222 -144 Z " />
<glyph glyph-name="uni030A" unicode="&#x30a;" d="M0 578 Q-34 578 -60.5 593 Q-87 608 -103 634 Q-119 660 -119 691 Q-119 722 -103 748 Q-87 774 -60.5 789 Q-34 804 0 804 Q34 804 60.5 789 Q87 774 103 748 Q119 722 119 691 Q119 660 103 634 Q87 608 60.5 593 Q34 578 0 578 Z M0 648 Q17 648 29.5 660.5 Q42 673 42 691 Q42 709 29.5 721.5 Q17 734 0 734 Q-17 734 -29.5 721.5 Q-42 709 -42 691 Q-42 673 -29.5 660.5 Q-17 648 0 648 Z " />
<glyph glyph-name="uni02DA" unicode="&#x2da;" horiz-adv-x="601" d="M300 578 Q266 578 239.5 593 Q213 608 197 634 Q181 660 181 691 Q181 722 197 748 Q213 774 239.5 789 Q266 804 300 804 Q334 804 360.5 789 Q387 774 403 748 Q419 722 419 691 Q419 660 403 634 Q387 608 360.5 593 Q334 578 300 578 Z M300 648 Q317 648 329.5 660.5 Q342 673 342 691 Q342 709 329.5 721.5 Q317 734 300 734 Q283 734 270.5 721.5 Q258 709 258 691 Q258 673 270.5 660.5 Q283 648 300 648 Z " />
<glyph glyph-name="uni00C5" unicode="&#xc5;" horiz-adv-x="773" d="M13 0 L294 710 L479 710 L760 0 L580 0 L530 138 L237 138 L187 0 L13 0 Z M290 284 L477 284 L383 543 L290 284 Z M386 751 Q351 751 323 766.5 Q295 782 279 808.5 Q263 835 263 868 Q263 901 279 927.5 Q295 954 323 969.5 Q351 985 386 985 Q421 985 449 969.5 Q477 954 493 927.5 Q509 901 509 868 Q509 835 493 808.5 Q477 782 449 766.5 Q421 751 386 751 Z M386 825 Q403 825 415.5 837.5 Q428 850 428 868 Q428 886 415.5 898.5 Q403 911 386 911 Q369 911 356.5 898.5 Q344 886 344 868 Q344 850 356.5 837.5 Q369 825 386 825 Z " />
<glyph glyph-name="uni016E" unicode="&#x16e;" horiz-adv-x="740" d="M368 -20 Q296 -20 238.5 2 Q181 24 139.5 65 Q98 106 76 163.5 Q54 221 54 292 L54 710 L228 710 L228 300 Q228 251 245.5 215 Q263 179 294.5 159.5 Q326 140 370 140 Q414 140 445.5 159.5 Q477 179 494.5 215 Q512 251 512 300 L512 710 L686 710 L686 292 Q686 221 663.5 163.5 Q641 106 599.5 65 Q558 24 499 2 Q440 -20 368 -20 Z M370 751 Q335 751 307 766.5 Q279 782 263 808.5 Q247 835 247 868 Q247 901 263 927.5 Q279 954 307 969.5 Q335 985 370 985 Q405 985 433 969.5 Q461 954 477 927.5 Q493 901 493 868 Q493 835 477 808.5 Q461 782 433 766.5 Q405 751 370 751 Z M370 825 Q387 825 399.5 837.5 Q412 850 412 868 Q412 886 399.5 898.5 Q387 911 370 911 Q353 911 340.5 898.5 Q328 886 328 868 Q328 850 340.5 837.5 Q353 825 370 825 Z " />
<glyph glyph-name="uni00E5" unicode="&#xe5;" horiz-adv-x="566" d="M212 -15 Q172 -15 138 -2.5 Q104 10 79 32 Q54 54 40 84.5 Q26 115 26 151 Q26 202 53.5 241 Q81 280 130.5 301.5 Q180 323 246 323 Q278 323 304 318 Q330 313 357 302 L357 329 Q357 368 334.5 391.5 Q312 415 274 415 Q246 415 223 401.5 Q200 388 191 365 L45 390 Q53 425 74 454 Q95 483 126.5 504 Q158 525 196 536.5 Q234 548 277 548 Q330 548 373.5 531.5 Q417 515 449 484.5 Q481 454 498 412.5 Q515 371 515 321 L515 0 L369 0 L365 63 Q345 28 305 6.5 Q265 -15 212 -15 Z M186 161 Q186 137 205.5 121.5 Q225 106 257 106 Q286 106 308.5 118 Q331 130 344 151 Q357 172 357 198 L357 203 Q339 211 318 215.5 Q297 220 276 220 Q234 220 210 204 Q186 188 186 161 Z M281 578 Q247 578 220.5 593 Q194 608 178 634 Q162 660 162 691 Q162 722 178 748 Q194 774 220.5 789 Q247 804 281 804 Q315 804 341.5 789 Q368 774 384 748 Q400 722 400 691 Q400 660 384 634 Q368 608 341.5 593 Q315 578 281 578 Z M281 648 Q298 648 310.5 660.5 Q323 673 323 691 Q323 709 310.5 721.5 Q298 734 281 734 Q264 734 251.5 721.5 Q239 709 239 691 Q239 673 251.5 660.5 Q264 648 281 648 Z " />
<glyph glyph-name="uni016F" unicode="&#x16f;" horiz-adv-x="598" d="M298 -15 Q224 -15 168 16.5 Q112 48 81.5 105 Q51 162 51 240 L51 533 L214 533 L214 237 Q214 188 236.5 160 Q259 132 299 132 Q339 132 361.5 160 Q384 188 384 237 L384 533 L547 533 L547 240 Q547 183 529.5 136 Q512 89 479.5 55 Q447 21 401 3 Q355 -15 298 -15 Z M298 578 Q264 578 237.5 593 Q211 608 195 634 Q179 660 179 691 Q179 722 195 748 Q211 774 237.5 789 Q264 804 298 804 Q332 804 358.5 789 Q385 774 401 748 Q417 722 417 691 Q417 660 401 634 Q385 608 358.5 593 Q332 578 298 578 Z M298 648 Q315 648 327.5 660.5 Q340 673 340 691 Q340 709 327.5 721.5 Q315 734 298 734 Q281 734 268.5 721.5 Q256 709 256 691 Q256 673 268.5 660.5 Q281 648 298 648 Z " />
<glyph glyph-name="uniFEFF" unicode="&#xfeff;" d="" />
<glyph glyph-name="uniFFFD" unicode="&#xfffd;" horiz-adv-x="808" d="M404 -34 L15 355 L404 744 L793 355 L404 -34 Z M351 259 L445 259 L445 305 Q497 321 525 354.5 Q553 388 553 433 Q553 470 534 498.5 Q515 527 481.5 543.5 Q448 560 404 560 Q364 560 331.5 546 Q299 532 277.5 507 Q256 482 249 449 L341 429 Q348 450 363.5 461.5 Q379 473 400 473 Q422 473 436.5 460 Q451 447 451 426 Q451 374 351 349 L351 259 Z M398 110 Q414 110 427 118 Q440 126 448 139 Q456 152 456 168 Q456 193 439 209.5 Q422 226 398 226 Q374 226 357.5 209.5 Q341 193 341 168 Q341 144 357.5 127 Q374 110 398 110 Z " />
</font>
</svg>
