<?xml version="1.0" encoding="UTF-8"?>
<svg xmlns="http://www.w3.org/2000/svg" xmlns:xlink="http://www.w3.org/1999/xlink" version="1.2" >
<font id="Masbul Light">
<font-face  font-family="Masbul" units-per-em="1000" ascent="1009" descent="-293" font-style="normal" font-weight="300" font-stretch="normal" cap-height="710" x-height="512" underline-position="-100" underline-thickness="63" />
<missing-glyph  horiz-adv-x="500" d="M450 0 L50 0 L50 750 L450 750 L450 0 Z M100 50 L400 50 L400 700 L100 700 L100 50 Z " />
<glyph glyph-name="uni0000" d="" />
<glyph glyph-name="uni0020" unicode="&#x20;" horiz-adv-x="222" d="" />
<glyph glyph-name="uni000D002" unicode="&#xd;" horiz-adv-x="222" d="" />
<glyph glyph-name="uni002E" unicode="&#x2e;" horiz-adv-x="220" d="M110 -3 Q90 -3 75 12 Q60 27 60 47 Q60 67 75 82 Q90 97 110 97 Q130 97 145 82 Q160 67 160 47 Q160 27 145 12 Q130 -3 110 -3 Z " />
<glyph glyph-name="uni003A" unicode="&#x3a;" horiz-adv-x="220" d="M110 -3 Q90 -3 75 12 Q60 27 60 47 Q60 67 75 82 Q90 97 110 97 Q130 97 145 82 Q160 67 160 47 Q160 27 145 12 Q130 -3 110 -3 Z M110 415 Q90 415 75 430 Q60 445 60 465 Q60 485 75 500 Q90 515 110 515 Q130 515 145 500 Q160 485 160 465 Q160 445 145 430 Q130 415 110 415 Z " />
<glyph glyph-name="uni002C" unicode="&#x2c;" horiz-adv-x="220" d="M72 -186 L51 -145 Q90 -124 111.5 -92.5 Q133 -61 133 -24 Q133 2 123 22 Q112 10 96 10 Q79 10 66.5 23 Q54 36 54 53 Q54 71 68.5 84 Q83 97 104 97 Q126 97 144.5 81.5 Q163 66 174 40 Q185 14 185 -19 Q185 -72 155 -115.5 Q125 -159 72 -186 Z " />
<glyph glyph-name="uni003B" unicode="&#x3b;" horiz-adv-x="220" d="M72 -186 L51 -145 Q90 -124 111.5 -92.5 Q133 -61 133 -24 Q133 2 123 22 Q112 10 96 10 Q79 10 66.5 23 Q54 36 54 53 Q54 71 68.5 84 Q83 97 104 97 Q126 97 144.5 81.5 Q163 66 174 40 Q185 14 185 -19 Q185 -72 155 -115.5 Q125 -159 72 -186 Z M110 415 Q90 415 75 430 Q60 445 60 465 Q60 485 75 500 Q90 515 110 515 Q130 515 145 500 Q160 485 160 465 Q160 445 145 430 Q130 415 110 415 Z " />
<glyph glyph-name="uni003F" unicode="&#x3f;" horiz-adv-x="491" d="M199 178 L199 335 Q289 356 338 404 Q387 452 387 520 Q387 563 367.5 596.5 Q348 630 313.5 649.5 Q279 669 235 669 Q196 669 164 653.5 Q132 638 108.5 610 Q85 582 74 543 L20 562 Q33 612 64 648.5 Q95 685 139 705 Q183 725 236 725 Q282 725 321 710 Q360 695 389 667.5 Q418 640 434.5 603.5 Q451 567 451 525 Q451 473 427.5 428 Q404 383 360.5 350 Q317 317 258 299 L258 178 L199 178 Z M228 -3 Q215 -3 204 4 Q193 11 186 22 Q179 33 179 46 Q179 59 186 70 Q193 81 204 88 Q215 95 228 95 Q241 95 252 88 Q263 81 270 70 Q277 59 277 46 Q277 33 270 22 Q263 11 252 4 Q241 -3 228 -3 Z " />
<glyph glyph-name="uni0021" unicode="&#x21;" horiz-adv-x="220" d="M81 178 L79 710 L142 710 L140 178 L81 178 Z M110 -3 Q97 -3 86 4 Q75 11 68 22 Q61 33 61 46 Q61 59 68 70 Q75 81 86 88 Q97 95 110 95 Q123 95 134 88 Q145 81 152 70 Q159 59 159 46 Q159 33 152 22 Q145 11 134 4 Q123 -3 110 -3 Z " />
<glyph glyph-name="uni00BF" unicode="&#xbf;" horiz-adv-x="461" d="M253 417 Q240 417 229 424 Q218 431 211 442 Q204 453 204 466 Q204 479 211 490 Q218 501 229 508 Q240 515 253 515 Q266 515 277 508 Q288 501 295 490 Q302 479 302 466 Q302 453 295 442 Q288 431 277 424 Q266 417 253 417 Z M245 -213 Q199 -213 160 -198 Q121 -183 92 -155.5 Q63 -128 46.5 -91.5 Q30 -55 30 -13 Q30 39 53.5 84 Q77 129 120.5 162 Q164 195 223 213 L223 334 L282 334 L282 177 Q192 156 143 108 Q94 60 94 -8 Q94 -51 113.5 -84.5 Q133 -118 167.5 -137.5 Q202 -157 246 -157 Q284 -157 316.5 -141.5 Q349 -126 372.5 -98 Q396 -70 407 -31 L461 -50 Q448 -100 417 -136.5 Q386 -173 342 -193 Q298 -213 245 -213 Z " />
<glyph glyph-name="uni00A1" unicode="&#xa1;" horiz-adv-x="220" d="M110 417 Q97 417 86 424 Q75 431 68 442 Q61 453 61 466 Q61 479 68 490 Q75 501 86 508 Q97 515 110 515 Q123 515 134 508 Q145 501 152 490 Q159 479 159 466 Q159 453 152 442 Q145 431 134 424 Q123 417 110 417 Z M78 -198 L80 334 L139 334 L141 -198 L78 -198 Z " />
<glyph glyph-name="uni0027" unicode="&#x27;" horiz-adv-x="176" d="M62 457 L60 710 L116 710 L114 457 L62 457 Z " />
<glyph glyph-name="uni0022" unicode="&#x22;" horiz-adv-x="337" d="M62 457 L60 710 L116 710 L114 457 L62 457 Z M223 457 L221 710 L277 710 L275 457 L223 457 Z " />
<glyph glyph-name="uni2026" unicode="&#x2026;" horiz-adv-x="660" d="M110 -3 Q90 -3 75 12 Q60 27 60 47 Q60 67 75 82 Q90 97 110 97 Q130 97 145 82 Q160 67 160 47 Q160 27 145 12 Q130 -3 110 -3 Z M330 -3 Q310 -3 295 12 Q280 27 280 47 Q280 67 295 82 Q310 97 330 97 Q350 97 365 82 Q380 67 380 47 Q380 27 365 12 Q350 -3 330 -3 Z M550 -3 Q530 -3 515 12 Q500 27 500 47 Q500 67 515 82 Q530 97 550 97 Q570 97 585 82 Q600 67 600 47 Q600 27 585 12 Q570 -3 550 -3 Z " />
<glyph glyph-name="uni00A0" unicode="&#xa0;" horiz-adv-x="222" d="" />
<glyph glyph-name="uni2000" unicode="&#x2000;" horiz-adv-x="500" d="" />
<glyph glyph-name="uni2001" unicode="&#x2001;" horiz-adv-x="1000" d="" />
<glyph glyph-name="uni2002" unicode="&#x2002;" horiz-adv-x="500" d="" />
<glyph glyph-name="uni2003" unicode="&#x2003;" horiz-adv-x="1000" d="" />
<glyph glyph-name="uni2004" unicode="&#x2004;" horiz-adv-x="333" d="" />
<glyph glyph-name="uni2005" unicode="&#x2005;" horiz-adv-x="250" d="" />
<glyph glyph-name="uni2006" unicode="&#x2006;" horiz-adv-x="166" d="" />
<glyph glyph-name="uni2007" unicode="&#x2007;" horiz-adv-x="594" d="" />
<glyph glyph-name="uni2008" unicode="&#x2008;" horiz-adv-x="220" d="" />
<glyph glyph-name="uni2009" unicode="&#x2009;" horiz-adv-x="200" d="" />
<glyph glyph-name="uni200A" unicode="&#x200a;" horiz-adv-x="63" d="" />
<glyph glyph-name="uni200B" unicode="&#x200b;" d="" />
<glyph glyph-name="uni0030" unicode="0" horiz-adv-x="598" d="M298 -15 Q221 -15 165.5 28.5 Q110 72 80 153 Q50 234 50 345 Q50 456 80 537 Q110 618 166.5 661.5 Q223 705 300 705 Q377 705 432.5 661.5 Q488 618 518 537 Q548 456 548 345 Q548 234 518 153 Q488 72 431.5 28.5 Q375 -15 298 -15 Z M299 41 Q358 41 400 77 Q442 113 464 181 Q486 249 486 345 Q486 441 464 509 Q442 577 400 613 Q358 649 299 649 Q240 649 198 613 Q156 577 134 509 Q112 441 112 345 Q112 249 134 181 Q156 113 198 77 Q240 41 299 41 Z " />
<glyph glyph-name="uni0031" unicode="1" horiz-adv-x="406" d="M225 0 L225 618 L53 522 L25 571 L239 690 L286 690 L286 0 L225 0 Z " />
<glyph glyph-name="uni0032" unicode="2" horiz-adv-x="560" d="M55 0 L55 53 Q98 88 142 126.5 Q186 165 226 203 Q266 241 298 274 Q346 324 374 361 Q402 398 414 429.5 Q426 461 426 494 Q426 540 407 574.5 Q388 609 354.5 629 Q321 649 278 649 Q219 649 176 612.5 Q133 576 114 512 L57 529 Q72 583 104 622.5 Q136 662 181 683.5 Q226 705 280 705 Q325 705 362.5 689.5 Q400 674 428.5 646 Q457 618 472.5 580.5 Q488 543 488 499 Q488 458 472.5 417 Q457 376 422 330.5 Q387 285 331 229 Q296 194 249.5 151.5 Q203 109 143 58 L500 58 L500 0 L55 0 Z " />
<glyph glyph-name="uni0033" unicode="3" horiz-adv-x="562" d="M275 -15 Q218 -15 170.5 5 Q123 25 89.5 62.5 Q56 100 40 154 L97 171 Q118 109 164 75 Q210 41 275 41 Q324 41 362.5 60 Q401 79 423 112.5 Q445 146 445 189 Q445 234 423.5 266 Q402 298 363 315.5 Q324 333 270 333 L194 333 L194 389 L269 389 Q318 389 354 405.5 Q390 422 410 452 Q430 482 430 523 Q430 560 411 588.5 Q392 617 358 633 Q324 649 279 649 Q218 649 174 616.5 Q130 584 112 525 L55 542 Q69 592 101 628.5 Q133 665 179.5 685 Q226 705 281 705 Q327 705 365.5 691.5 Q404 678 432.5 654 Q461 630 476.5 596.5 Q492 563 492 524 Q492 469 462 427.5 Q432 386 376 364 Q437 344 472 298 Q507 252 507 189 Q507 146 489.5 109 Q472 72 440.5 44 Q409 16 366.5 0.5 Q324 -15 275 -15 Z " />
<glyph glyph-name="uni0034" unicode="4" horiz-adv-x="573" d="M377 0 L377 170 L40 170 L40 216 L379 690 L435 690 L435 222 L528 222 L528 170 L435 170 L435 0 L377 0 Z M107 222 L377 222 L377 599 L107 222 Z " />
<glyph glyph-name="uni0035" unicode="5" horiz-adv-x="546" d="M276 -15 Q220 -15 172.5 5.5 Q125 26 91 64 Q57 102 40 154 L97 171 Q111 130 137.5 101 Q164 72 199.5 56.5 Q235 41 276 41 Q312 41 342.5 54 Q373 67 396 90 Q419 113 431.5 144 Q444 175 444 212 Q444 261 422.5 299 Q401 337 363 358.5 Q325 380 275 380 Q249 380 223 372.5 Q197 365 174 351.5 Q151 338 134 319 L82 327 L82 690 L457 690 L457 633 L139 633 L139 381 Q165 407 202 421.5 Q239 436 284 436 Q332 436 372.5 419 Q413 402 443 371.5 Q473 341 489.5 299.5 Q506 258 506 210 Q506 163 488.5 122 Q471 81 439.5 50.5 Q408 20 366 2.5 Q324 -15 276 -15 Z " />
<glyph glyph-name="uni0036" unicode="6" horiz-adv-x="577" d="M302 -15 Q245 -15 199 8.5 Q153 32 119.5 75 Q86 118 68 177.5 Q50 237 50 310 Q50 398 71.5 470.5 Q93 543 132.5 595.5 Q172 648 226.5 676.5 Q281 705 347 705 Q435 705 500 656 L472 609 Q416 649 350 649 Q296 649 252 625 Q208 601 176.5 556.5 Q145 512 127.5 451 Q110 390 110 316 L110 302 Q132 367 185 403 Q238 439 314 439 Q361 439 401.5 422 Q442 405 472.5 374 Q503 343 520 302.5 Q537 262 537 214 Q537 166 519 124.5 Q501 83 468.5 51.5 Q436 20 393.5 2.5 Q351 -15 302 -15 Z M304 41 Q340 41 371 54.5 Q402 68 425.5 91.5 Q449 115 462 147 Q475 179 475 216 Q475 264 453 302 Q431 340 392.5 361.5 Q354 383 305 383 Q268 383 236.5 370.5 Q205 358 182 336 Q159 314 146 284 Q133 254 133 218 Q133 181 146 149 Q159 117 182.5 92.5 Q206 68 237 54.5 Q268 41 304 41 Z " />
<glyph glyph-name="uni0037" unicode="7" horiz-adv-x="537" d="M150 0 L427 632 L40 632 L40 690 L492 690 L492 638 L215 0 L150 0 Z " />
<glyph glyph-name="uni0038" unicode="8" horiz-adv-x="578" d="M289 -15 Q237 -15 193 -0.5 Q149 14 117 40.5 Q85 67 67.5 103.5 Q50 140 50 184 Q50 248 85.5 295 Q121 342 184 362 Q131 385 102 426.5 Q73 468 73 521 Q73 560 89.5 593.5 Q106 627 135.5 652 Q165 677 204.5 691 Q244 705 290 705 Q335 705 374.5 691 Q414 677 443 652 Q472 627 488.5 594 Q505 561 505 522 Q505 469 475.5 427.5 Q446 386 394 363 Q457 342 492.5 296 Q528 250 528 186 Q528 142 510.5 105.5 Q493 69 461 42 Q429 15 385 0 Q341 -15 289 -15 Z M289 389 Q333 389 368 406 Q403 423 423 452.5 Q443 482 443 519 Q443 556 423 585.5 Q403 615 368 632 Q333 649 289 649 Q244 649 209.5 632 Q175 615 155 585.5 Q135 556 135 519 Q135 482 155 452.5 Q175 423 209.5 406 Q244 389 289 389 Z M289 41 Q343 41 382.5 59 Q422 77 444 110 Q466 143 466 187 Q466 231 444 264 Q422 297 382.5 315 Q343 333 289 333 Q235 333 195.5 315 Q156 297 134 264 Q112 231 112 187 Q112 143 134 110 Q156 77 195.5 59 Q235 41 289 41 Z " />
<glyph glyph-name="uni0039" unicode="9" horiz-adv-x="572" d="M231 -15 Q185 -15 146 -3 Q107 9 72 34 L100 82 Q158 41 229 41 Q302 41 354 79.5 Q406 118 434 190 Q462 262 462 364 Q462 372 462 381 Q462 390 462 399 Q448 354 420 322 Q392 290 351 273 Q310 256 260 256 Q213 256 173 273 Q133 290 103.5 320 Q74 350 57 390.5 Q40 431 40 478 Q40 525 58 566.5 Q76 608 107.5 639 Q139 670 181 687.5 Q223 705 271 705 Q328 705 374 681 Q420 657 453.5 612.5 Q487 568 504.5 505.5 Q522 443 522 366 Q522 279 501.5 208.5 Q481 138 443 88 Q405 38 351.5 11.5 Q298 -15 231 -15 Z M268 312 Q304 312 334.5 324 Q365 336 388 358 Q411 380 423.5 409 Q436 438 436 472 Q436 510 423 542 Q410 574 387.5 598 Q365 622 334.5 635.5 Q304 649 268 649 Q233 649 202.5 636 Q172 623 149.5 599.5 Q127 576 114.5 544.5 Q102 513 102 476 Q102 428 123.5 391 Q145 354 182.5 333 Q220 312 268 312 Z " />
<glyph glyph-name="uni2080" unicode="&#x2080;" horiz-adv-x="352" d="M175 -9 Q131 -9 99 15 Q67 39 49.5 83.5 Q32 128 32 190 Q32 252 49.5 296.5 Q67 341 99.5 365 Q132 389 177 389 Q222 389 254 365.5 Q286 342 303 297.5 Q320 253 320 191 Q320 128 302.5 83.5 Q285 39 252.5 15 Q220 -9 175 -9 Z M176 41 Q219 41 242 79.5 Q265 118 265 189 Q265 261 242 300 Q219 339 176 339 Q134 339 110.5 299.5 Q87 260 87 189 Q87 118 110.5 79.5 Q134 41 176 41 Z " />
<glyph glyph-name="uni2081" unicode="&#x2081;" horiz-adv-x="352" d="M182 0 L182 321 L88 271 L68 316 L190 380 L237 380 L237 0 L182 0 Z " />
<glyph glyph-name="uni2082" unicode="&#x2082;" horiz-adv-x="352" d="M48 0 L48 42 Q88 74 122 104 Q156 134 175 153 Q213 190 229.5 217 Q246 244 246 269 Q246 301 227 321 Q208 341 176 341 Q148 341 127 324 Q106 307 98 277 L47 288 Q54 318 73.5 341 Q93 364 120 376.5 Q147 389 179 389 Q214 389 242 374 Q270 359 286 333 Q302 307 302 273 Q302 238 281 202.5 Q260 167 214 123 Q197 107 177 89.5 Q157 72 130 50 L309 50 L309 0 L48 0 Z " />
<glyph glyph-name="uni2083" unicode="&#x2083;" horiz-adv-x="352" d="M173 -9 Q121 -9 84.5 17 Q48 43 35 87 L86 98 Q95 70 117.5 54.5 Q140 39 172 39 Q207 39 230 58 Q253 77 253 108 Q253 138 231.5 156 Q210 174 173 174 L128 174 L128 220 L170 220 Q204 220 224.5 237 Q245 254 245 283 Q245 308 224.5 324.5 Q204 341 173 341 Q144 341 123 325.5 Q102 310 94 284 L43 295 Q50 324 68.5 345 Q87 366 114.5 377.5 Q142 389 176 389 Q212 389 239.5 375.5 Q267 362 283 339 Q299 316 299 286 Q299 257 283.5 234.5 Q268 212 239 199 Q271 188 289.5 163.5 Q308 139 308 105 Q308 72 290.5 46.5 Q273 21 242.5 6 Q212 -9 173 -9 Z " />
<glyph glyph-name="uni2084" unicode="&#x2084;" horiz-adv-x="352" d="M215 0 L215 87 L28 87 L28 128 L210 380 L266 380 L266 131 L313 131 L313 87 L266 87 L266 0 L215 0 Z M82 131 L215 131 L215 313 L82 131 Z " />
<glyph glyph-name="uni2044" unicode="&#x2044;" horiz-adv-x="95" d="M-198 0 L236 690 L293 690 L-141 0 L-198 0 Z " />
<glyph glyph-name="uni0025" unicode="&#x25;" horiz-adv-x="715" d="M187 391 Q145 391 111.5 411 Q78 431 59 466 Q40 501 40 545 Q40 590 59.5 624.5 Q79 659 112.5 679 Q146 699 189 699 Q232 699 265 679 Q298 659 317 624.5 Q336 590 336 545 Q336 501 316.5 466 Q297 431 263.5 411 Q230 391 187 391 Z M173 0 L112 0 L542 690 L603 690 L173 0 Z M96 545 Q96 514 108 491 Q120 468 140.5 454.5 Q161 441 188 441 Q215 441 235.5 454.5 Q256 468 268 491 Q280 514 280 545 Q280 576 268 599 Q256 622 235.5 635.5 Q215 649 188 649 Q161 649 140.5 635.5 Q120 622 108 599 Q96 576 96 545 Z M526 -9 Q484 -9 451 11 Q418 31 398.5 66 Q379 101 379 145 Q379 190 398.5 224.5 Q418 259 451.5 279 Q485 299 528 299 Q570 299 603.5 279 Q637 259 656 224.5 Q675 190 675 145 Q675 100 655.5 65.5 Q636 31 602.5 11 Q569 -9 526 -9 Z M527 41 Q554 41 575 54.5 Q596 68 607.5 91 Q619 114 619 145 Q619 176 607.5 199 Q596 222 575 235.5 Q554 249 527 249 Q500 249 479 235.5 Q458 222 446.5 199 Q435 176 435 145 Q435 114 446.5 91 Q458 68 479 54.5 Q500 41 527 41 Z " />
<glyph glyph-name="uni2030" unicode="&#x2030;" horiz-adv-x="1065" d="M187 391 Q145 391 111.5 411 Q78 431 59 466 Q40 501 40 545 Q40 590 59.5 624.5 Q79 659 112.5 679 Q146 699 189 699 Q232 699 265 679 Q298 659 317 624.5 Q336 590 336 545 Q336 501 316.5 466 Q297 431 263.5 411 Q230 391 187 391 Z M173 0 L112 0 L542 690 L603 690 L173 0 Z M96 545 Q96 514 108 491 Q120 468 140.5 454.5 Q161 441 188 441 Q215 441 235.5 454.5 Q256 468 268 491 Q280 514 280 545 Q280 576 268 599 Q256 622 235.5 635.5 Q215 649 188 649 Q161 649 140.5 635.5 Q120 622 108 599 Q96 576 96 545 Z M526 -9 Q484 -9 451 11 Q418 31 398.5 66 Q379 101 379 145 Q379 190 398.5 224.5 Q418 259 451.5 279 Q485 299 528 299 Q570 299 603.5 279 Q637 259 656 224.5 Q675 190 675 145 Q675 100 655.5 65.5 Q636 31 602.5 11 Q569 -9 526 -9 Z M876 -9 Q834 -9 801 11 Q768 31 748.5 66 Q729 101 729 145 Q729 190 748.5 224.5 Q768 259 801.5 279 Q835 299 878 299 Q920 299 953.5 279 Q987 259 1006 224.5 Q1025 190 1025 145 Q1025 100 1005.5 65.5 Q986 31 952.5 11 Q919 -9 876 -9 Z M527 41 Q554 41 575 54.5 Q596 68 607.5 91 Q619 114 619 145 Q619 176 607.5 199 Q596 222 575 235.5 Q554 249 527 249 Q500 249 479 235.5 Q458 222 446.5 199 Q435 176 435 145 Q435 114 446.5 91 Q458 68 479 54.5 Q500 41 527 41 Z M877 41 Q904 41 924.5 54.5 Q945 68 957 91 Q969 114 969 145 Q969 176 957 199 Q945 222 924.5 235.5 Q904 249 877 249 Q850 249 829 235.5 Q808 222 796.5 199 Q785 176 785 145 Q785 114 796.5 91 Q808 68 829 54.5 Q850 41 877 41 Z " />
<glyph glyph-name="uni00BD" unicode="&#xbd;" horiz-adv-x="799" d="M147 0 L581 690 L638 690 L204 0 L147 0 Z M495 0 L495 42 Q535 74 569 104 Q603 134 622 153 Q660 190 676.5 217 Q693 244 693 269 Q693 301 674 321 Q655 341 623 341 Q595 341 574 324 Q553 307 545 277 L494 288 Q501 318 520.5 341 Q540 364 567 376.5 Q594 389 626 389 Q661 389 689 374 Q717 359 733 333 Q749 307 749 273 Q749 238 728 202.5 Q707 167 661 123 Q644 107 624 89.5 Q604 72 577 50 L756 50 L756 0 L495 0 Z M182 310 L182 631 L88 581 L68 626 L190 690 L237 690 L237 310 L182 310 Z " />
<glyph glyph-name="uni00BC" unicode="&#xbc;" horiz-adv-x="799" d="M166 0 L600 690 L657 690 L223 0 L166 0 Z M662 0 L662 87 L475 87 L475 128 L657 380 L713 380 L713 131 L760 131 L760 87 L713 87 L713 0 L662 0 Z M529 131 L662 131 L662 313 L529 131 Z M182 310 L182 631 L88 581 L68 626 L190 690 L237 690 L237 310 L182 310 Z " />
<glyph glyph-name="uni00BE" unicode="&#xbe;" horiz-adv-x="799" d="M168 0 L602 690 L659 690 L225 0 L168 0 Z M662 0 L662 87 L475 87 L475 128 L657 380 L713 380 L713 131 L760 131 L760 87 L713 87 L713 0 L662 0 Z M529 131 L662 131 L662 313 L529 131 Z M173 301 Q121 301 84.5 327 Q48 353 35 397 L86 408 Q95 380 117.5 364.5 Q140 349 172 349 Q207 349 230 368 Q253 387 253 418 Q253 448 231.5 466 Q210 484 173 484 L128 484 L128 530 L170 530 Q204 530 224.5 547 Q245 564 245 593 Q245 618 224.5 634.5 Q204 651 173 651 Q144 651 123 635.5 Q102 620 94 594 L43 605 Q50 634 68.5 655 Q87 676 114.5 687.5 Q142 699 176 699 Q212 699 239.5 685.5 Q267 672 283 649 Q299 626 299 596 Q299 567 283.5 544.5 Q268 522 239 509 Q271 498 289.5 473.5 Q308 449 308 415 Q308 382 290.5 356.5 Q273 331 242.5 316 Q212 301 173 301 Z " />
<glyph glyph-name="uni0024" unicode="&#x24;" horiz-adv-x="594" d="M279 -140 L279 -9 Q203 -3 147 40.5 Q91 84 65 158 L120 173 Q142 114 182.5 82 Q223 50 279 44 L279 336 L274 337 Q181 354 132 399 Q83 444 83 515 Q83 567 108 607 Q133 647 177 671.5 Q221 696 279 699 L279 820 L327 820 L327 699 Q399 691 449.5 649.5 Q500 608 521 537 L466 522 Q445 579 411.5 609 Q378 639 327 645 L327 384 L346 380 Q438 363 483.5 313.5 Q529 264 529 193 Q529 137 503.5 93.5 Q478 50 432.5 23 Q387 -4 327 -9 L327 -140 L279 -140 Z M142 519 Q142 490 155 465.5 Q168 441 197.5 423 Q227 405 279 393 L279 646 Q215 641 178.5 607 Q142 573 142 519 Z M470 192 Q470 249 432.5 281.5 Q395 314 327 327 L327 44 Q370 49 402 68.5 Q434 88 452 119.5 Q470 151 470 192 Z " />
<glyph glyph-name="uni00A2" unicode="&#xa2;" horiz-adv-x="594" d="M288 -140 L288 -8 Q241 -3 202 19 Q163 41 134 76.5 Q105 112 89.5 158 Q74 204 74 258 Q74 312 90 358.5 Q106 405 135 441.5 Q164 478 203 501 Q242 524 288 530 L288 651 L336 651 L336 531 Q376 528 411.5 512 Q447 496 474 469.5 Q501 443 517 407 L465 382 Q444 422 410 447 Q376 472 336 477 L336 45 Q380 50 416 75 Q452 100 472 139 L523 115 Q507 80 478.5 53.5 Q450 27 413.5 10.5 Q377 -6 336 -9 L336 -140 L288 -140 Z M135 258 Q135 201 154 156 Q173 111 207.5 82.5 Q242 54 288 46 L288 475 Q243 468 208.5 437.5 Q174 407 154.5 361 Q135 315 135 258 Z " />
<glyph glyph-name="uni00A3" unicode="&#xa3;" horiz-adv-x="594" d="M38 0 L38 58 L106 58 L126 308 L38 308 L38 358 L130 358 L141 486 Q146 554 172.5 603 Q199 652 242.5 678.5 Q286 705 344 705 Q419 705 470.5 661.5 Q522 618 541 539 L484 522 Q469 584 432.5 616.5 Q396 649 343 649 Q282 649 245 606 Q208 563 202 486 L191 358 L407 358 L407 308 L187 308 L167 58 L543 58 L543 0 L38 0 Z " />
<glyph glyph-name="uni00A5" unicode="&#xa5;" horiz-adv-x="594" d="M114 133 L114 183 L266 183 L266 290 L114 290 L114 340 L238 340 L38 690 L108 690 L297 342 L487 690 L555 690 L354 340 L479 340 L479 290 L327 290 L327 183 L479 183 L479 133 L327 133 L327 0 L266 0 L266 133 L114 133 Z " />
<glyph glyph-name="uni20AC" unicode="&#x20ac;" horiz-adv-x="594" d="M-4 231 L8 281 L79 281 Q77 309 77 340 Q77 373 80 403 L-3 403 L9 453 L86 453 Q101 532 134.5 588.5 Q168 645 218.5 675 Q269 705 333 705 Q386 705 430 685 Q474 665 506 627.5 Q538 590 554 539 L497 522 Q478 583 435 616 Q392 649 334 649 Q261 649 213.5 598 Q166 547 148 453 L406 453 L394 403 L142 403 Q139 374 139 342 Q139 310 142 281 L372 281 L360 231 L148 231 Q166 139 213.5 90 Q261 41 334 41 Q394 41 438 74.5 Q482 108 502 168 L559 151 Q544 100 510.5 63 Q477 26 431.5 5.5 Q386 -15 331 -15 Q266 -15 216 14.5 Q166 44 133 99 Q100 154 86 231 L-4 231 Z " />
<glyph glyph-name="uni20BA" unicode="&#x20ba;" horiz-adv-x="594" d="M133 0 L133 207 L57 171 L57 226 L133 262 L133 369 L58 333 L58 388 L133 424 L133 690 L194 690 L194 453 L372 538 L372 483 L194 398 L194 291 L372 376 L372 321 L194 236 L194 58 L223 58 Q329 58 393 118 Q457 178 476 293 L536 287 Q514 147 434 73.5 Q354 0 223 0 L133 0 Z " />
<glyph glyph-name="uni20B9" unicode="&#x20b9;" horiz-adv-x="594" d="M76 298 L76 348 Q89 344 110.5 341.5 Q132 339 157.5 337.5 Q183 336 207 336 Q294 336 343.5 367.5 Q393 399 401 460 L76 460 L76 516 L400 516 Q391 572 348 603 Q305 634 235 634 L76 634 L76 690 L535 690 L522 634 L391 634 Q419 613 437 583.5 Q455 554 460 516 L535 516 L522 460 L461 460 Q455 407 424.5 367 Q394 327 345 305 Q296 283 233 283 Q221 283 207 284.5 Q193 286 178 288 L535 0 L443 0 L76 298 Z " />
<glyph glyph-name="uni20A1" unicode="&#x20a1;" horiz-adv-x="594" d="M137 -140 L167 40 Q115 84 87 160 Q59 236 59 340 Q59 441 85.5 517.5 Q112 594 161 640.5 Q210 687 277 697 L297 815 L343 815 L324 700 Q367 698 405 683 L427 815 L473 815 L447 660 Q478 639 500.5 607 Q523 575 536 534 L479 517 Q464 564 436 595 L344 44 Q394 52 430.5 85.5 Q467 119 484 173 L541 156 Q527 108 497 72.5 Q467 37 425.5 16 Q384 -5 335 -9 L313 -140 L267 -140 L289 -9 Q245 -5 209 13 L183 -140 L137 -140 Z M316 648 L315 648 L218 71 Q253 47 298 43 L396 628 Q360 648 316 648 Z M121 342 Q121 266 136 207.5 Q151 149 179 110 L268 642 Q198 622 159.5 544.5 Q121 467 121 342 Z " />
<glyph glyph-name="uni20AA" unicode="&#x20aa;" horiz-adv-x="892" d="M100 0 L100 690 L369 690 Q432 690 479.5 663.5 Q527 637 553.5 589.5 Q580 542 580 479 L580 191 L524 191 L524 479 Q524 526 505 559.5 Q486 593 451.5 611 Q417 629 369 629 L156 629 L156 0 L100 0 Z M312 0 L312 499 L368 499 L368 61 L581 61 Q629 61 663.5 79 Q698 97 717 130.5 Q736 164 736 211 L736 690 L792 690 L792 211 Q792 148 765.5 100.5 Q739 53 691.5 26.5 Q644 0 581 0 L312 0 Z " />
<glyph glyph-name="uni20A9" unicode="&#x20a9;" horiz-adv-x="916" d="M246 0 L183 238 L40 238 L40 284 L170 284 L139 400 L40 400 L40 446 L127 446 L62 690 L121 690 L183 446 L368 446 L430 690 L487 690 L549 446 L735 446 L797 690 L854 690 L789 446 L876 446 L876 400 L777 400 L746 284 L876 284 L876 238 L733 238 L670 0 L612 0 L552 238 L363 238 L303 0 L246 0 Z M416 446 L499 446 L458 609 L416 446 Z M590 284 L694 284 L724 400 L561 400 L590 284 Z M224 284 L327 284 L357 400 L194 400 L224 284 Z M375 284 L540 284 L511 400 L404 400 L375 284 Z M602 238 L642 79 L683 238 L602 238 Z M235 238 L276 79 L316 238 L235 238 Z " />
<glyph glyph-name="uni20AD" unicode="&#x20ad;" horiz-adv-x="594" d="M110 0 L110 338 L35 338 L35 388 L110 388 L110 690 L167 690 L167 377 L462 690 L537 690 L244 388 L488 388 L488 338 L243 338 L573 0 L490 0 L167 341 L167 0 L110 0 Z " />
<glyph glyph-name="uni20A8" unicode="&#x20a8;" horiz-adv-x="997" d="M82 0 L82 690 L252 690 Q326 690 380.5 665.5 Q435 641 464.5 595.5 Q494 550 494 488 Q494 422 458.5 373 Q423 324 358 300 L527 0 L457 0 L301 286 Q285 284 268 282.5 Q251 281 238 281 Q218 281 192 283 Q166 285 141 289 L141 0 L82 0 Z M141 635 L141 344 Q163 340 189.5 338 Q216 336 239 336 Q332 336 382 374.5 Q432 413 432 485 Q432 532 410.5 565.5 Q389 599 349 617 Q309 635 253 635 L141 635 Z M757 -15 Q715 -15 678 -1.5 Q641 12 612.5 36.5 Q584 61 568 94 L617 120 Q640 80 676 59 Q712 38 758 38 Q794 38 822.5 51 Q851 64 867 87 Q883 110 883 139 Q883 209 783 231 L740 240 Q659 256 621 290 Q583 324 583 380 Q583 423 605.5 456 Q628 489 667 508 Q706 527 757 527 Q818 527 865.5 498 Q913 469 935 418 L885 394 Q866 432 832 453 Q798 474 755 474 Q722 474 696 462.5 Q670 451 655.5 430.5 Q641 410 641 384 Q641 349 667 328 Q693 307 753 294 L796 285 Q867 270 904.5 233.5 Q942 197 942 142 Q942 96 918 61 Q894 26 852 5.5 Q810 -15 757 -15 Z " />
<glyph glyph-name="uni20B1" unicode="&#x20b1;" horiz-adv-x="594" d="M99 0 L99 370 L23 370 L23 420 L99 420 L99 507 L24 507 L24 557 L99 557 L99 690 L265 690 Q348 690 406.5 654.5 Q465 619 491 557 L570 557 L570 507 L505 507 Q508 486 508 463 Q508 441 504 420 L570 420 L570 370 L490 370 Q472 329 438 299 Q404 269 357 253 Q310 237 252 237 Q232 237 207.5 239 Q183 241 156 245 L156 0 L99 0 Z M156 638 L156 557 L426 557 Q404 595 362.5 616.5 Q321 638 266 638 L156 638 Z M450 464 Q450 486 446 507 L156 507 L156 420 L445 420 Q450 441 450 464 Z M250 289 Q312 289 357 310 Q402 331 426 370 L156 370 L156 297 Q179 293 204.5 291 Q230 289 250 289 Z " />
<glyph glyph-name="uni0E3F" unicode="&#xe3f;" horiz-adv-x="594" d="M91 0 L91 690 L270 690 L270 815 L318 815 L318 690 Q377 687 420 665 Q463 643 486.5 604.5 Q510 566 510 515 Q510 463 486.5 425 Q463 387 418 367 Q476 347 508 301.5 Q540 256 540 192 Q540 135 512.5 92.5 Q485 50 435.5 26 Q386 2 318 0 L318 -140 L270 -140 L270 0 L91 0 Z M148 638 L148 388 L270 388 L270 638 L148 638 Z M450 512 Q450 568 414.5 601.5 Q379 635 318 638 L318 388 Q381 391 415.5 423 Q450 455 450 512 Z M148 52 L270 52 L270 336 L148 336 L148 52 Z M480 194 Q480 238 460 270 Q440 302 404 319 Q368 336 318 336 L318 52 Q368 53 404 70.5 Q440 88 460 119.5 Q480 151 480 194 Z " />
<glyph glyph-name="uni20AB" unicode="&#x20ab;" horiz-adv-x="594" d="M263 -15 Q214 -15 172.5 4.5 Q131 24 100 58.5 Q69 93 52 139.5 Q35 186 35 241 Q35 296 52.5 342.5 Q70 389 101 423.5 Q132 458 174 477.5 Q216 497 265 497 Q321 497 367.5 469.5 Q414 442 440 394 L440 554 L298 554 L298 604 L440 604 L440 690 L501 690 L501 604 L576 604 L576 554 L501 554 L501 0 L446 0 L442 93 Q416 42 369 13.5 Q322 -15 263 -15 Z M269 41 Q306 41 338 56 Q370 71 393 97.5 Q416 124 429 161 Q442 198 442 241 Q442 284 429 321 Q416 358 393 384.5 Q370 411 338 426 Q306 441 269 441 Q232 441 200.5 426 Q169 411 145.5 384.5 Q122 358 109.5 321 Q97 284 97 241 Q97 198 109.5 161 Q122 124 145.5 97.5 Q169 71 200.5 56 Q232 41 269 41 Z M37 -136 L37 -86 L531 -86 L531 -136 L37 -136 Z " />
<glyph glyph-name="uni00A4" unicode="&#xa4;" horiz-adv-x="594" d="M64 161 L141 243 Q124 267 114 298 Q104 329 104 363 Q104 397 114 428 Q124 459 141 484 L64 565 L104 605 L179 524 Q203 542 233 552.5 Q263 563 296 563 Q329 563 358.5 552.5 Q388 542 412 523 L488 605 L528 565 L451 483 Q468 459 478 428 Q488 397 488 363 Q488 329 478 298 Q468 267 451 243 L528 161 L488 121 L412 203 Q388 184 358.5 173.5 Q329 163 296 163 Q263 163 233.5 173.5 Q204 184 180 203 L104 121 L64 161 Z M296 215 Q334 215 364.5 234.5 Q395 254 412.5 287 Q430 320 430 363 Q430 406 412.5 439 Q395 472 364.5 491.5 Q334 511 296 511 Q258 511 227.5 491.5 Q197 472 179.5 439 Q162 406 162 363 Q162 320 179.5 287 Q197 254 227.5 234.5 Q258 215 296 215 Z " />
<glyph glyph-name="uni005E" unicode="&#x5e;" horiz-adv-x="594" d="M97 353 L270 690 L324 690 L497 353 L433 353 L296 624 L159 353 L97 353 Z " />
<glyph glyph-name="uni002B" unicode="&#x2b;" horiz-adv-x="594" d="M93 250 L93 300 L269 300 L269 479 L323 479 L323 300 L499 300 L499 250 L323 250 L323 66 L269 66 L269 250 L93 250 Z " />
<glyph glyph-name="uni2212" unicode="&#x2212;" horiz-adv-x="594" d="M103 248 L103 303 L490 303 L490 248 L103 248 Z " />
<glyph glyph-name="uni00B1" unicode="&#xb1;" horiz-adv-x="594" d="M269 126 L269 300 L93 300 L93 350 L269 350 L269 519 L323 519 L323 350 L500 350 L500 300 L323 300 L323 126 L269 126 Z M103 0 L103 55 L490 55 L490 0 L103 0 Z " />
<glyph glyph-name="uni003D" unicode="&#x3d;" horiz-adv-x="594" d="M98 361 L98 416 L495 416 L495 361 L98 361 Z M98 134 L98 189 L495 189 L495 134 L98 134 Z " />
<glyph glyph-name="uni00F7" unicode="&#xf7;" horiz-adv-x="594" d="M297 379 Q279 379 265.5 392.5 Q252 406 252 424 Q252 442 265.5 455.5 Q279 469 297 469 Q315 469 328.5 455.5 Q342 442 342 424 Q342 406 328.5 392.5 Q315 379 297 379 Z M103 248 L103 303 L490 303 L490 248 L103 248 Z M297 82 Q279 82 265.5 95.5 Q252 109 252 127 Q252 145 265.5 158.5 Q279 172 297 172 Q315 172 328.5 158.5 Q342 145 342 127 Q342 109 328.5 95.5 Q315 82 297 82 Z " />
<glyph glyph-name="uni003C" unicode="&#x3c;" horiz-adv-x="594" d="M455 465 L455 406 L173 276 L455 146 L455 85 L108 250 L108 300 L455 465 Z " />
<glyph glyph-name="uni003E" unicode="&#x3e;" horiz-adv-x="594" d="M138 85 L138 144 L420 274 L138 404 L138 465 L485 300 L485 250 L138 85 Z " />
<glyph glyph-name="uni007E" unicode="&#x7e;" horiz-adv-x="594" d="M384 202 Q360 202 340.5 211 Q321 220 304.5 233.5 Q288 247 272.5 260.5 Q257 274 241 283 Q225 292 208 292 Q159 292 137 208 L81 208 Q94 275 127.5 311 Q161 347 209 347 Q233 347 252.5 338 Q272 329 288.5 315.5 Q305 302 320.5 288.5 Q336 275 352 266 Q368 257 385 257 Q434 257 456 341 L512 341 Q498 274 465 238 Q432 202 384 202 Z " />
<glyph glyph-name="uni00AC" unicode="&#xac;" horiz-adv-x="594" d="M88 288 L88 340 L485 340 L485 106 L429 106 L429 288 L88 288 Z " />
<glyph glyph-name="uni00D7" unicode="&#xd7;" horiz-adv-x="594" d="M145 89 L110 125 L262 276 L117 421 L152 457 L297 312 L442 457 L477 421 L332 276 L484 125 L449 89 L297 241 L145 89 Z " />
<glyph glyph-name="uni005F" unicode="&#x5f;" horiz-adv-x="530" d="M30 -122 L30 -72 L500 -72 L500 -122 L30 -122 Z " />
<glyph glyph-name="uni00A7" unicode="&#xa7;" horiz-adv-x="487" d="M240 -95 Q196 -95 156.5 -81.5 Q117 -68 87.5 -44 Q58 -20 40 14 L89 40 Q114 0 153 -21 Q192 -42 242 -42 Q281 -42 310.5 -29.5 Q340 -17 356.5 5.5 Q373 28 373 57 Q373 94 344.5 120.5 Q316 147 267 157 L210 168 Q131 183 89.5 221.5 Q48 260 48 318 Q48 366 75 403 Q102 440 148 457 Q104 478 82.5 507.5 Q61 537 61 578 Q61 621 84.5 654 Q108 687 149 706 Q190 725 244 725 Q288 725 325 712 Q362 699 390 674.5 Q418 650 433 616 L383 592 Q363 630 326 651 Q289 672 242 672 Q206 672 179 661 Q152 650 136.5 630 Q121 610 121 583 Q121 547 151 522 Q181 497 239 486 L286 477 Q365 462 406 423 Q447 384 447 326 Q447 277 418.5 240 Q390 203 342 186 Q434 146 434 61 Q434 16 409 -19.5 Q384 -55 340 -75 Q296 -95 240 -95 Z M386 318 Q386 359 358 384.5 Q330 410 271 423 L239 430 Q226 433 214 433 Q185 433 161 418.5 Q137 404 122.5 380 Q108 356 108 326 Q108 285 135.5 259.5 Q163 234 223 221 L255 214 Q268 211 281 211 Q310 211 334 225.5 Q358 240 372 264 Q386 288 386 318 Z " />
<glyph glyph-name="uni00B6" unicode="&#xb6;" horiz-adv-x="579" d="M293 -92 L293 278 Q218 281 163.5 308.5 Q109 336 79.5 383 Q50 430 50 493 Q50 560 80.5 609 Q111 658 168 684 Q225 710 304 710 L349 710 L349 -92 L293 -92 Z M433 -92 L433 710 L489 710 L489 -92 L433 -92 Z " />
<glyph glyph-name="uni0023" unicode="&#x23;" horiz-adv-x="643" d="M152 0 L169 202 L55 202 L59 247 L172 247 L189 448 L77 448 L81 493 L193 493 L209 690 L261 690 L245 493 L423 493 L439 690 L491 690 L475 493 L588 493 L584 448 L471 448 L454 247 L566 247 L562 202 L451 202 L434 0 L382 0 L399 202 L221 202 L204 0 L152 0 Z M224 247 L402 247 L419 448 L241 448 L224 247 Z " />
<glyph glyph-name="uni007C" unicode="&#x7c;" horiz-adv-x="238" d="M92 -102 L92 750 L146 750 L146 -102 L92 -102 Z " />
<glyph glyph-name="uni2020" unicode="&#x2020;" horiz-adv-x="452" d="M199 -82 L199 472 L30 472 L30 521 L199 521 L199 710 L253 710 L253 521 L422 521 L422 472 L253 472 L253 -82 L199 -82 Z " />
<glyph glyph-name="uni2021" unicode="&#x2021;" horiz-adv-x="512" d="M60 112 L60 161 L229 161 L229 472 L60 472 L60 521 L229 521 L229 710 L283 710 L283 521 L452 521 L452 472 L283 472 L283 161 L452 161 L452 112 L283 112 L283 -82 L229 -82 L229 112 L60 112 Z " />
<glyph glyph-name="uni0026" unicode="&#x26;" horiz-adv-x="680" d="M269 -20 Q220 -20 179 -5 Q138 10 108 36.5 Q78 63 61.5 99.5 Q45 136 45 180 Q45 221 63 260 Q81 299 114 331 Q147 363 191 385 L190 386 Q98 477 98 562 Q98 596 111 626 Q124 656 146.5 678 Q169 700 200 712.5 Q231 725 267 725 Q314 725 351.5 705 Q389 685 410.5 650.5 Q432 616 432 573 Q432 515 396.5 467.5 Q361 420 284 376 L494 172 Q519 213 535 266 Q551 319 556 382 L615 376 Q607 302 587 240.5 Q567 179 536 131 L670 0 L586 0 L500 83 Q456 33 397.5 6.5 Q339 -20 269 -20 Z M234 425 L246 414 Q311 447 342 485.5 Q373 524 373 571 Q373 600 359.5 622.5 Q346 645 322 658 Q298 671 268 671 Q237 671 212.5 656.5 Q188 642 173.5 617 Q159 592 159 560 Q159 528 177 495.5 Q195 463 234 425 Z M109 183 Q109 140 130 107.5 Q151 75 188 56.5 Q225 38 273 38 Q329 38 376 60 Q423 82 459 124 L229 348 Q171 317 140 275 Q109 233 109 183 Z " />
<glyph glyph-name="uni002A" unicode="&#x2a;" horiz-adv-x="383" d="M105 367 L61 399 L155 520 L14 561 L30 613 L169 563 L164 710 L218 710 L213 563 L352 613 L368 561 L227 520 L321 399 L277 367 L191 494 L105 367 Z " />
<glyph glyph-name="uni002D" unicode="&#x2d;" horiz-adv-x="373" d="M50 246 L50 304 L323 304 L323 246 L50 246 Z " />
<glyph glyph-name="uni2013" unicode="&#x2013;" horiz-adv-x="500" d="M0 249 L0 301 L500 301 L500 249 L0 249 Z " />
<glyph glyph-name="uni2014" unicode="&#x2014;" horiz-adv-x="1000" d="M0 249 L0 301 L1000 301 L1000 249 L0 249 Z " />
<glyph glyph-name="uni0028" unicode="&#x28;" horiz-adv-x="312" d="M292 -132 L225 -132 Q139 -38 94.5 78 Q50 194 50 324 Q50 454 94.5 570 Q139 686 225 780 L292 780 Q201 685 154 568.5 Q107 452 107 324 Q107 196 154 79.5 Q201 -37 292 -132 Z " />
<glyph glyph-name="uni0029" unicode="&#x29;" horiz-adv-x="312" d="M20 780 L87 780 Q173 686 217.5 570 Q262 454 262 324 Q262 194 217.5 78 Q173 -38 87 -132 L20 -132 Q111 -37 158 79.5 Q205 196 205 324 Q205 452 158 568.5 Q111 685 20 780 Z " />
<glyph glyph-name="uni002F" unicode="&#x2f;" horiz-adv-x="407" d="M14 -102 L336 750 L393 750 L71 -102 L14 -102 Z " />
<glyph glyph-name="uni005C" unicode="&#x5c;" horiz-adv-x="407" d="M336 -102 L14 750 L71 750 L393 -102 L336 -102 Z " />
<glyph glyph-name="uni005B" unicode="&#x5b;" horiz-adv-x="330" d="M92 -132 L92 780 L290 780 L290 733 L146 733 L146 -85 L290 -85 L290 -132 L92 -132 Z " />
<glyph glyph-name="uni005D" unicode="&#x5d;" horiz-adv-x="330" d="M40 -132 L40 -85 L184 -85 L184 733 L40 733 L40 780 L238 780 L238 -132 L40 -132 Z " />
<glyph glyph-name="uni007B" unicode="&#x7b;" horiz-adv-x="333" d="M293 780 L293 733 L265 733 Q218 733 191.5 708.5 Q165 684 165 637 Q165 606 168.5 572 Q172 538 176 505 Q180 472 180 443 Q180 395 161 364.5 Q142 334 116 324 Q142 314 161 284 Q180 254 180 208 Q180 180 176 146 Q172 112 168.5 77 Q165 42 165 11 Q165 -36 191.5 -60.5 Q218 -85 265 -85 L293 -85 L293 -132 L265 -132 Q212 -132 177.5 -114 Q143 -96 126.5 -65 Q110 -34 110 6 Q110 41 114 78.5 Q118 116 121.5 151 Q125 186 125 213 Q125 253 104.5 277 Q84 301 45 301 L30 301 L30 347 L45 347 Q84 347 104.5 371 Q125 395 125 435 Q125 462 121.5 497 Q118 532 114 569.5 Q110 607 110 642 Q110 682 126.5 713 Q143 744 177.5 762 Q212 780 265 780 L293 780 Z " />
<glyph glyph-name="uni007D" unicode="&#x7d;" horiz-adv-x="333" d="M40 -132 L40 -85 L68 -85 Q114 -85 141 -60.5 Q168 -36 168 11 Q168 42 164 76 Q160 110 156.5 143 Q153 176 153 205 Q153 253 172 283.5 Q191 314 217 324 Q192 334 172.5 364 Q153 394 153 440 Q153 468 156.5 502 Q160 536 164 571 Q168 606 168 637 Q168 684 141 708.5 Q114 733 68 733 L40 733 L40 780 L68 780 Q121 780 155.5 762 Q190 744 206.5 713 Q223 682 223 642 Q223 607 219.5 569.5 Q216 532 212 497 Q208 462 208 435 Q208 395 228.5 371 Q249 347 288 347 L303 347 L303 301 L288 301 Q249 301 228.5 277 Q208 253 208 213 Q208 186 212 151 Q216 116 219.5 78.5 Q223 41 223 6 Q223 -34 206.5 -65 Q190 -96 155.5 -114 Q121 -132 68 -132 L40 -132 Z " />
<glyph glyph-name="uni2022" unicode="&#x2022;" horiz-adv-x="226" d="M113 208 Q94 208 79 217 Q64 226 54.5 241.5 Q45 257 45 275 Q45 293 54.5 308.5 Q64 324 79 333 Q94 342 113 342 Q132 342 147 333 Q162 324 171.5 308.5 Q181 293 181 275 Q181 257 171.5 241.5 Q162 226 147 217 Q132 208 113 208 Z " />
<glyph glyph-name="uni2039" unicode="&#x2039;" horiz-adv-x="263" d="M160 99 L20 285 L160 471 L228 471 L90 285 L228 99 L160 99 Z " />
<glyph glyph-name="uni203A" unicode="&#x203a;" horiz-adv-x="263" d="M35 99 L173 285 L35 471 L103 471 L243 285 L103 99 L35 99 Z " />
<glyph glyph-name="uni00AB" unicode="&#xab;" horiz-adv-x="448" d="M160 99 L20 285 L160 471 L228 471 L90 285 L228 99 L160 99 Z M345 99 L205 285 L345 471 L413 471 L275 285 L413 99 L345 99 Z " />
<glyph glyph-name="uni00BB" unicode="&#xbb;" horiz-adv-x="448" d="M35 99 L173 285 L35 471 L103 471 L243 285 L103 99 L35 99 Z M220 99 L358 285 L220 471 L288 471 L428 285 L288 99 L220 99 Z " />
<glyph glyph-name="uni0040" unicode="&#x40;" horiz-adv-x="1003" d="M491 24 Q444 24 405 41.5 Q366 59 337 91 Q308 123 292 166 Q276 209 276 259 Q276 310 292 353 Q308 396 337 428 Q366 460 405 478 Q444 496 489 496 Q544 496 589 470 Q634 444 658 398 L662 483 L712 483 L712 174 Q712 128 732 101.5 Q752 75 783 75 Q807 75 826.5 90.5 Q846 106 860 133.5 Q874 161 882 198 Q890 235 890 277 Q890 361 862 430 Q834 499 783.5 549.5 Q733 600 665 627.5 Q597 655 516 655 Q447 655 385.5 635 Q324 615 274 578.5 Q224 542 188 492 Q152 442 132.5 382 Q113 322 113 254 Q113 187 132 128 Q151 69 186.5 20 Q222 -29 271 -64.5 Q320 -100 379.5 -119.5 Q439 -139 507 -139 Q566 -139 626 -123.5 Q686 -108 735 -77 L764 -122 Q724 -146 680.5 -161 Q637 -176 593 -183 Q549 -190 508 -190 Q429 -190 360.5 -168 Q292 -146 235.5 -105.5 Q179 -65 139 -9.5 Q99 46 77 113 Q55 180 55 255 Q55 331 77.5 399 Q100 467 141.5 523.5 Q183 580 240.5 620.5 Q298 661 368 683.5 Q438 706 517 706 Q591 706 656.5 686 Q722 666 775.5 628 Q829 590 867.5 537 Q906 484 927 418 Q948 352 948 276 Q948 221 936.5 175 Q925 129 903 95 Q881 61 850.5 42.5 Q820 24 782 24 Q736 24 704 52.5 Q672 81 662 132 Q639 81 594 52.5 Q549 24 491 24 Z M495 76 Q542 76 578.5 99.5 Q615 123 636 164.5 Q657 206 657 260 Q657 314 636 355.5 Q615 397 578.5 420.5 Q542 444 495 444 Q448 444 412 420.5 Q376 397 355 355.5 Q334 314 334 260 Q334 206 355 164.5 Q376 123 412 99.5 Q448 76 495 76 Z " />
<glyph glyph-name="uni00B7" unicode="&#xb7;" horiz-adv-x="220" d="M110 225 Q90 225 75 240 Q60 255 60 275 Q60 295 75 310 Q90 325 110 325 Q130 325 145 310 Q160 295 160 275 Q160 255 145 240 Q130 225 110 225 Z " />
<glyph glyph-name="uni0041" unicode="A" horiz-adv-x="690" d="M25 0 L312 710 L378 710 L665 0 L599 0 L512 219 L176 219 L89 0 L25 0 Z M199 276 L489 276 L344 643 L199 276 Z " />
<glyph glyph-name="uni0042" unicode="B" horiz-adv-x="596" d="M82 0 L82 710 L299 710 Q364 710 411.5 688 Q459 666 485 625.5 Q511 585 511 530 Q511 477 484 438 Q457 399 406 377 Q470 357 505.5 310 Q541 263 541 198 Q541 138 511.5 93.5 Q482 49 429 24.5 Q376 0 304 0 L82 0 Z M143 654 L143 401 L299 401 Q370 401 408.5 434 Q447 467 447 528 Q447 587 407.5 620.5 Q368 654 299 654 L143 654 Z M143 56 L304 56 Q358 56 397 73 Q436 90 456.5 122 Q477 154 477 199 Q477 268 431.5 306.5 Q386 345 304 345 L143 345 L143 56 Z " />
<glyph glyph-name="uni0043" unicode="C" horiz-adv-x="716" d="M387 -20 Q315 -20 254.5 7.5 Q194 35 149 84.5 Q104 134 79.5 201.5 Q55 269 55 349 Q55 414 71 471.5 Q87 529 117 576.5 Q147 624 188 658.5 Q229 693 279 711.5 Q329 730 385 730 Q446 730 499.5 709.5 Q553 689 594.5 651 Q636 613 660 561 L605 534 Q572 601 515 637 Q458 673 387 673 Q330 673 281 648.5 Q232 624 195.5 580 Q159 536 139 477 Q119 418 119 349 Q119 281 139 224 Q159 167 195 125 Q231 83 280.5 60 Q330 37 389 37 Q462 37 519 72.5 Q576 108 612 176 L667 149 Q642 96 599.5 58 Q557 20 503 0 Q449 -20 387 -20 Z " />
<glyph glyph-name="uni0044" unicode="D" horiz-adv-x="735" d="M82 0 L82 710 L304 710 Q390 710 459.5 685 Q529 660 578 613.5 Q627 567 653.5 501.5 Q680 436 680 355 Q680 274 653.5 209 Q627 144 577.5 97 Q528 50 459.5 25 Q391 0 306 0 L82 0 Z M145 57 L304 57 Q376 57 433.5 78 Q491 99 531.5 138 Q572 177 594 232 Q616 287 616 355 Q616 423 594 478 Q572 533 531 572 Q490 611 432.5 632 Q375 653 304 653 L145 653 L145 57 Z " />
<glyph glyph-name="uni0045" unicode="E" horiz-adv-x="556" d="M82 0 L82 710 L479 710 L479 653 L143 653 L143 398 L452 398 L452 341 L143 341 L143 57 L489 57 L489 0 L82 0 Z " />
<glyph glyph-name="uni0046" unicode="F" horiz-adv-x="525" d="M82 0 L82 710 L470 710 L470 653 L143 653 L143 383 L442 383 L442 326 L143 326 L143 0 L82 0 Z " />
<glyph glyph-name="uni0047" unicode="G" horiz-adv-x="773" d="M398 -20 Q324 -20 261 7.5 Q198 35 152 85 Q106 135 80.5 203 Q55 271 55 352 Q55 417 72 474 Q89 531 120 578 Q151 625 193.5 659 Q236 693 288 711.5 Q340 730 399 730 Q459 730 513 710.5 Q567 691 609.5 655.5 Q652 620 677 572 L622 544 Q600 584 565.5 613 Q531 642 488.5 657.5 Q446 673 399 673 Q339 673 288 649 Q237 625 199 581.5 Q161 538 140 479.5 Q119 421 119 353 Q119 285 140 227 Q161 169 198.5 126.5 Q236 84 287 60.5 Q338 37 398 37 Q455 37 502 56 Q549 75 583 109.5 Q617 144 635.5 192 Q654 240 654 299 L654 300 L424 300 L424 357 L718 357 L718 306 Q718 234 695 174 Q672 114 629.5 70.5 Q587 27 528 3.5 Q469 -20 398 -20 Z " />
<glyph glyph-name="uni0048" unicode="H" horiz-adv-x="709" d="M82 0 L82 710 L145 710 L145 398 L564 398 L564 710 L627 710 L627 0 L564 0 L564 341 L145 341 L145 0 L82 0 Z " />
<glyph glyph-name="uni0049" unicode="I" horiz-adv-x="227" d="M82 0 L82 710 L145 710 L145 0 L82 0 Z " />
<glyph glyph-name="uni004A" unicode="J" horiz-adv-x="516" d="M233 -15 Q185 -15 144.5 3 Q104 21 73 54.5 Q42 88 24 136 L81 159 Q132 42 233 42 Q278 42 311 64 Q344 86 362.5 126 Q381 166 381 220 L381 710 L444 710 L444 219 Q444 148 417.5 95.5 Q391 43 343.5 14 Q296 -15 233 -15 Z " />
<glyph glyph-name="uni004B" unicode="K" horiz-adv-x="631" d="M82 0 L82 710 L143 710 L143 386 L496 710 L580 710 L209 373 L616 0 L523 0 L143 351 L143 0 L82 0 Z " />
<glyph glyph-name="uni004C" unicode="L" horiz-adv-x="519" d="M82 0 L82 710 L145 710 L145 57 L469 57 L469 0 L82 0 Z " />
<glyph glyph-name="uni004D" unicode="M" horiz-adv-x="824" d="M82 0 L82 710 L141 710 L413 210 L686 710 L742 710 L742 0 L681 0 L681 594 L439 148 L385 148 L143 594 L143 0 L82 0 Z " />
<glyph glyph-name="uni004E" unicode="N" horiz-adv-x="699" d="M82 0 L82 710 L138 710 L556 104 L556 710 L617 710 L617 0 L561 0 L143 605 L143 0 L82 0 Z " />
<glyph glyph-name="uni004F" unicode="O" horiz-adv-x="791" d="M396 -20 Q322 -20 259.5 8 Q197 36 151 86.5 Q105 137 80 205.5 Q55 274 55 355 Q55 436 80 504.5 Q105 573 151 623.5 Q197 674 259.5 702 Q322 730 396 730 Q470 730 532 702.5 Q594 675 640 624.5 Q686 574 711 505.5 Q736 437 736 355 Q736 273 711 204.5 Q686 136 640 85.5 Q594 35 532 7.5 Q470 -20 396 -20 Z M395 37 Q455 37 506 60.5 Q557 84 594 126.5 Q631 169 651.5 227.5 Q672 286 672 355 Q672 424 651.5 482.5 Q631 541 594 583.5 Q557 626 506 649.5 Q455 673 395 673 Q335 673 284.5 649.5 Q234 626 197 583.5 Q160 541 139.5 482.5 Q119 424 119 355 Q119 286 139.5 227.5 Q160 169 197 126.5 Q234 84 284.5 60.5 Q335 37 395 37 Z " />
<glyph glyph-name="uni0050" unicode="P" horiz-adv-x="561" d="M82 0 L82 710 L267 710 Q346 710 403 684 Q460 658 490.5 609 Q521 560 521 493 Q521 426 488.5 378 Q456 330 396 303.5 Q336 277 253 277 Q230 277 202.5 279 Q175 281 143 286 L143 0 L82 0 Z M143 654 L143 341 Q168 337 198 335 Q228 333 252 333 Q351 333 404 374.5 Q457 416 457 494 Q457 544 434.5 580 Q412 616 369 635 Q326 654 267 654 L143 654 Z " />
<glyph glyph-name="uni0051" unicode="Q" horiz-adv-x="791" d="M397 -20 Q322 -20 259.5 7.5 Q197 35 151 85.5 Q105 136 80 204.5 Q55 273 55 355 Q55 436 80.5 504.5 Q106 573 151.5 623.5 Q197 674 259.5 702 Q322 730 395 730 Q470 730 532 702.5 Q594 675 640 624.5 Q686 574 711 505.5 Q736 437 736 355 Q736 266 704.5 191.5 Q673 117 618 66 L713 -50 L670 -85 L575 32 Q537 7 492 -6.5 Q447 -20 397 -20 Z M395 37 Q436 37 472 47.5 Q508 58 539 77 L402 246 L445 281 L582 112 Q625 154 648.5 216 Q672 278 672 355 Q672 424 651.5 482.5 Q631 541 594 583.5 Q557 626 506 649.5 Q455 673 395 673 Q335 673 284.5 649.5 Q234 626 197 583.5 Q160 541 139.5 482.5 Q119 424 119 355 Q119 286 139.5 227.5 Q160 169 197 126.5 Q234 84 284.5 60.5 Q335 37 395 37 Z " />
<glyph glyph-name="uni0052" unicode="R" horiz-adv-x="589" d="M82 0 L82 710 L264 710 Q343 710 400.5 684.5 Q458 659 489.5 612.5 Q521 566 521 503 Q521 435 483 384.5 Q445 334 375 309 L554 0 L481 0 L316 294 Q287 290 248 290 Q227 290 199 292 Q171 294 143 298 L143 0 L82 0 Z M143 654 L143 354 Q168 350 197 348 Q226 346 250 346 Q350 346 403.5 386 Q457 426 457 500 Q457 548 434 582.5 Q411 617 367.5 635.5 Q324 654 264 654 L143 654 Z " />
<glyph glyph-name="uni0053" unicode="S" horiz-adv-x="543" d="M268 -15 Q216 -15 170.5 3.5 Q125 22 91.5 56 Q58 90 40 136 L96 159 Q119 103 163.5 72.5 Q208 42 268 42 Q316 42 354 61.5 Q392 81 413.5 115.5 Q435 150 435 193 Q435 246 399.5 281.5 Q364 317 296 333 L248 344 Q58 388 58 536 Q58 577 74 611.5 Q90 646 118.5 671.5 Q147 697 185.5 711 Q224 725 270 725 Q319 725 362.5 706 Q406 687 438 653.5 Q470 620 486 574 L430 551 Q407 608 365.5 638 Q324 668 268 668 Q224 668 191 651 Q158 634 139 604 Q120 574 120 535 Q120 482 156.5 449.5 Q193 417 270 399 L318 388 Q405 368 451.5 317.5 Q498 267 498 191 Q498 146 481 108.5 Q464 71 433 43 Q402 15 360 0 Q318 -15 268 -15 Z " />
<glyph glyph-name="uni0054" unicode="T" horiz-adv-x="609" d="M273 0 L273 653 L50 653 L50 710 L559 710 L559 653 L336 653 L336 0 L273 0 Z " />
<glyph glyph-name="uni0055" unicode="U" horiz-adv-x="689" d="M342 -20 Q280 -20 230.5 0.5 Q181 21 145.5 59 Q110 97 91 150.5 Q72 204 72 271 L72 710 L135 710 L135 273 Q135 200 160.5 147.5 Q186 95 233 66 Q280 37 345 37 Q410 37 456.5 66 Q503 95 528.5 147.5 Q554 200 554 273 L554 710 L617 710 L617 271 Q617 205 597.5 151.5 Q578 98 542 59.5 Q506 21 455.5 0.5 Q405 -20 342 -20 Z " />
<glyph glyph-name="uni0056" unicode="V" horiz-adv-x="666" d="M301 0 L25 710 L93 710 L334 71 L576 710 L641 710 L365 0 L301 0 Z " />
<glyph glyph-name="uni0057" unicode="W" horiz-adv-x="995" d="M960 710 L748 0 L677 0 L497 632 L318 0 L247 0 L35 710 L100 710 L282 73 L463 710 L532 710 L714 73 L897 710 L960 710 Z " />
<glyph glyph-name="uni0058" unicode="X" horiz-adv-x="623" d="M15 0 L278 375 L42 710 L115 710 L313 419 L511 710 L581 710 L345 375 L608 0 L532 0 L310 328 L88 0 L15 0 Z " />
<glyph glyph-name="uni0059" unicode="Y" horiz-adv-x="605" d="M271 0 L271 289 L20 710 L90 710 L303 342 L517 710 L585 710 L334 291 L334 0 L271 0 Z " />
<glyph glyph-name="uni005A" unicode="Z" horiz-adv-x="607" d="M50 0 L50 47 L459 653 L65 653 L65 710 L535 710 L535 663 L126 57 L557 57 L557 0 L50 0 Z " />
<glyph glyph-name="uni0061" unicode="a" horiz-adv-x="534" d="M235 -15 Q180 -15 138.5 5 Q97 25 73.5 60.5 Q50 96 50 143 Q50 192 76 228 Q102 264 149 284 Q196 304 261 304 Q285 304 311 300 Q337 296 361.5 289 Q386 282 406 273 L406 318 Q406 364 388 399 Q370 434 338 453.5 Q306 473 264 473 Q213 473 175 448.5 Q137 424 118 380 L69 403 Q83 440 111.5 468 Q140 496 180 511 Q220 526 266 526 Q326 526 370.5 500 Q415 474 439.5 427 Q464 380 464 317 L464 0 L412 0 L407 82 Q385 38 339.5 11.5 Q294 -15 235 -15 Z M110 144 Q110 110 126.5 85.5 Q143 61 172.5 47.5 Q202 34 241 34 Q277 34 307 46.5 Q337 59 359 81 Q381 103 393.5 132.5 Q406 162 406 197 L406 225 Q370 240 333 248 Q296 256 263 256 Q191 256 150.5 226 Q110 196 110 144 Z " />
<glyph glyph-name="uni0062" unicode="b" horiz-adv-x="616" d="M74 0 L74 740 L134 740 L134 415 Q162 467 212 497 Q262 527 325 527 Q377 527 421.5 506.5 Q466 486 499 449 Q532 412 550.5 363 Q569 314 569 256 Q569 198 550.5 149 Q532 100 498.5 63 Q465 26 420 5.5 Q375 -15 323 -15 Q282 -15 245 -1.5 Q208 12 179 38 Q150 64 132 99 L128 0 L74 0 Z M320 40 Q361 40 395.5 56 Q430 72 455 101 Q480 130 494 169.5 Q508 209 508 256 Q508 303 494 342.5 Q480 382 455 411 Q430 440 395.5 456 Q361 472 320 472 Q279 472 244.5 456 Q210 440 185 411 Q160 382 146 342.5 Q132 303 132 256 Q132 209 146 169.5 Q160 130 185 101 Q210 72 244.5 56 Q279 40 320 40 Z " />
<glyph glyph-name="uni0063" unicode="c" horiz-adv-x="538" d="M290 -15 Q238 -15 193.5 5 Q149 25 116 61 Q83 97 65 146 Q47 195 47 253 Q47 311 65.5 360.5 Q84 410 117 447.5 Q150 485 194.5 506 Q239 527 290 527 Q334 527 373 512 Q412 497 442 468.5 Q472 440 490 402 L438 377 Q414 422 374.5 447 Q335 472 290 472 Q251 472 218 455.5 Q185 439 160 409 Q135 379 121.5 339.5 Q108 300 108 253 Q108 206 121.5 167 Q135 128 159.5 99.5 Q184 71 217 55.5 Q250 40 290 40 Q322 40 352 51.5 Q382 63 406 84 Q430 105 445 134 L496 110 Q479 72 447.5 44 Q416 16 375 0.5 Q334 -15 290 -15 Z " />
<glyph glyph-name="uni0064" unicode="d" horiz-adv-x="616" d="M291 -15 Q239 -15 194.5 5.5 Q150 26 117 63 Q84 100 65.5 149 Q47 198 47 256 Q47 314 65.5 363 Q84 412 117.5 449 Q151 486 196 506.5 Q241 527 293 527 Q354 527 404 497.5 Q454 468 482 417 L482 740 L542 740 L542 0 L488 0 L484 101 Q456 47 405.5 16 Q355 -15 291 -15 Z M296 40 Q337 40 371.5 56 Q406 72 431 101 Q456 130 470 169.5 Q484 209 484 256 Q484 303 470 342.5 Q456 382 431 411 Q406 440 371.5 456 Q337 472 296 472 Q255 472 220.5 456 Q186 440 161 411 Q136 382 122 342.5 Q108 303 108 256 Q108 209 122 169.5 Q136 130 161 101 Q186 72 220.5 56 Q255 40 296 40 Z " />
<glyph glyph-name="uni0065" unicode="e" horiz-adv-x="565" d="M303 -15 Q247 -15 200 5 Q153 25 118.5 61 Q84 97 65.5 146 Q47 195 47 254 Q47 312 65 361.5 Q83 411 115.5 448 Q148 485 192 505.5 Q236 526 288 526 Q338 526 379.5 507.5 Q421 489 452.5 455.5 Q484 422 501 376.5 Q518 331 518 278 L518 250 L107 250 Q108 187 132.5 139 Q157 91 200.5 64.5 Q244 38 301 38 Q406 38 461 126 L509 98 Q489 62 457.5 37 Q426 12 387 -1.5 Q348 -15 303 -15 Z M288 475 Q242 475 205 452.5 Q168 430 143 390 Q118 350 110 298 L458 298 Q454 349 431 389 Q408 429 371 452 Q334 475 288 475 Z " />
<glyph glyph-name="uni0066" unicode="f" horiz-adv-x="367" d="M112 0 L112 462 L15 462 L15 512 L112 512 L112 565 Q112 622 132 663.5 Q152 705 188 727.5 Q224 750 272 750 Q323 750 367 724 L346 676 Q330 685 311 690 Q292 695 273 695 Q172 695 172 565 L172 512 L342 512 L342 462 L172 462 L172 0 L112 0 Z " />
<glyph glyph-name="uni0067" unicode="g" horiz-adv-x="616" d="M291 0 Q239 0 194.5 20 Q150 40 117 76 Q84 112 65.5 160 Q47 208 47 264 Q47 320 65.5 367.5 Q84 415 117.5 451 Q151 487 195.5 507 Q240 527 292 527 Q334 527 370.5 513 Q407 499 436.5 474 Q466 449 484 414 L489 512 L542 512 L542 38 Q542 -20 524.5 -68 Q507 -116 474.5 -150.5 Q442 -185 397 -203.5 Q352 -222 296 -222 Q250 -222 208 -208.5 Q166 -195 132 -169.5 Q98 -144 75 -109 L121 -78 Q185 -168 295 -168 Q352 -168 394 -143 Q436 -118 459 -71.5 Q482 -25 482 38 L482 113 Q454 60 404.5 30 Q355 0 291 0 Z M296 54 Q337 54 371.5 69.5 Q406 85 431 113.5 Q456 142 470 180 Q484 218 484 263 Q484 308 470 346.5 Q456 385 431 413 Q406 441 371.5 456.5 Q337 472 296 472 Q255 472 220.5 456.5 Q186 441 161 413 Q136 385 122 346.5 Q108 308 108 263 Q108 218 122 180 Q136 142 161 113.5 Q186 85 220.5 69.5 Q255 54 296 54 Z " />
<glyph glyph-name="uni0068" unicode="h" horiz-adv-x="566" d="M74 0 L74 740 L134 740 L134 433 Q157 476 201 501.5 Q245 527 301 527 Q361 527 404.5 499 Q448 471 472 419.5 Q496 368 496 297 L496 0 L436 0 L436 295 Q436 379 399.5 425 Q363 471 296 471 Q249 471 212.5 449.5 Q176 428 155 391 Q134 354 134 306 L134 0 L74 0 Z " />
<glyph glyph-name="uni0069" unicode="i" horiz-adv-x="208" d="M151 665 Q151 646 137 632 Q123 618 104 618 Q85 618 71 632 Q57 646 57 665 Q57 684 71 698 Q85 712 104 712 Q123 712 137 698 Q151 684 151 665 Z M74 0 L74 512 L134 512 L134 0 L74 0 Z " />
<glyph glyph-name="uni006A" unicode="j" horiz-adv-x="213" d="M156 665 Q156 646 142 632 Q128 618 109 618 Q90 618 76 632 Q62 646 62 665 Q62 684 76 698 Q90 712 109 712 Q128 712 142 698 Q156 684 156 665 Z M3 -217 Q-42 -217 -76 -194 L-52 -147 Q-28 -162 1 -162 Q37 -162 58 -136.5 Q79 -111 79 -67 L79 512 L139 512 L139 -67 Q139 -112 122 -145.5 Q105 -179 74.5 -198 Q44 -217 3 -217 Z " />
<glyph glyph-name="uni006B" unicode="k" horiz-adv-x="508" d="M74 0 L74 740 L132 740 L132 297 L394 512 L474 512 L191 281 L498 0 L414 0 L132 263 L132 0 L74 0 Z " />
<glyph glyph-name="uni006C" unicode="l" horiz-adv-x="208" d="M74 0 L74 740 L134 740 L134 0 L74 0 Z " />
<glyph glyph-name="uni006D" unicode="m" horiz-adv-x="898" d="M74 0 L74 512 L128 512 L131 432 Q153 475 195.5 501 Q238 527 293 527 Q353 527 397 496 Q441 465 461 409 Q474 444 500 470.5 Q526 497 561.5 512 Q597 527 639 527 Q698 527 740 499.5 Q782 472 805 422 Q828 372 828 302 L828 0 L768 0 L768 300 Q768 382 733 426.5 Q698 471 634 471 Q590 471 555.5 450 Q521 429 501 393 Q481 357 481 311 L481 0 L421 0 L421 300 Q421 382 386.5 426.5 Q352 471 287 471 Q243 471 208.5 450 Q174 429 154 393 Q134 357 134 311 L134 0 L74 0 Z " />
<glyph glyph-name="uni006E" unicode="n" horiz-adv-x="566" d="M74 0 L74 512 L128 512 L131 428 Q154 473 198.5 500 Q243 527 301 527 Q361 527 404.5 499 Q448 471 472 419.5 Q496 368 496 297 L496 0 L436 0 L436 295 Q436 379 399.5 425 Q363 471 296 471 Q249 471 212.5 449.5 Q176 428 155 391 Q134 354 134 306 L134 0 L74 0 Z " />
<glyph glyph-name="uni006F" unicode="o" horiz-adv-x="592" d="M295 -15 Q241 -15 196 5 Q151 25 117.5 61.5 Q84 98 65.5 147.5 Q47 197 47 256 Q47 314 65.5 363.5 Q84 413 118 450 Q152 487 197.5 507 Q243 527 297 527 Q351 527 396 507 Q441 487 474.5 450.5 Q508 414 526.5 364.5 Q545 315 545 256 Q545 198 526.5 148.5 Q508 99 474 62 Q440 25 394.5 5 Q349 -15 295 -15 Z M296 40 Q337 40 371.5 56 Q406 72 431 101 Q456 130 470 169.5 Q484 209 484 256 Q484 303 470 342.5 Q456 382 431 411 Q406 440 371.5 456 Q337 472 296 472 Q255 472 220.5 456 Q186 440 161 411 Q136 382 122 342.5 Q108 303 108 256 Q108 209 122 169.5 Q136 130 161 101 Q186 72 220.5 56 Q255 40 296 40 Z " />
<glyph glyph-name="uni0070" unicode="p" horiz-adv-x="616" d="M74 -207 L74 512 L128 512 L132 411 Q160 465 210.5 496 Q261 527 325 527 Q377 527 421.5 506.5 Q466 486 499 449 Q532 412 550.5 363 Q569 314 569 256 Q569 198 550.5 149 Q532 100 498.5 63 Q465 26 420 5.5 Q375 -15 323 -15 Q262 -15 212 14.5 Q162 44 134 95 L134 -207 L74 -207 Z M320 40 Q361 40 395.5 56 Q430 72 455 101 Q480 130 494 169.5 Q508 209 508 256 Q508 303 494 342.5 Q480 382 455 411 Q430 440 395.5 456 Q361 472 320 472 Q279 472 244.5 456 Q210 440 185 411 Q160 382 146 342.5 Q132 303 132 256 Q132 209 146 169.5 Q160 130 185 101 Q210 72 244.5 56 Q279 40 320 40 Z " />
<glyph glyph-name="uni0071" unicode="q" horiz-adv-x="616" d="M291 -15 Q239 -15 194.5 5.5 Q150 26 117 63 Q84 100 65.5 149 Q47 198 47 256 Q47 314 65.5 363 Q84 412 117.5 449 Q151 486 196 506.5 Q241 527 293 527 Q334 527 371 513.5 Q408 500 437 474 Q466 448 484 413 L488 512 L542 512 L542 -207 L482 -207 L482 97 Q454 45 404 15 Q354 -15 291 -15 Z M296 40 Q337 40 371.5 56 Q406 72 431 101 Q456 130 470 169.5 Q484 209 484 256 Q484 303 470 342.5 Q456 382 431 411 Q406 440 371.5 456 Q337 472 296 472 Q255 472 220.5 456 Q186 440 161 411 Q136 382 122 342.5 Q108 303 108 256 Q108 209 122 169.5 Q136 130 161 101 Q186 72 220.5 56 Q255 40 296 40 Z " />
<glyph glyph-name="uni0072" unicode="r" horiz-adv-x="367" d="M74 0 L74 512 L128 512 L132 415 Q151 463 190.5 491 Q230 519 282 519 Q298 519 312.5 516.5 Q327 514 337 510 L329 454 Q318 458 305.5 459.5 Q293 461 281 461 Q237 461 204 438.5 Q171 416 152.5 375 Q134 334 134 279 L134 0 L74 0 Z " />
<glyph glyph-name="uni0073" unicode="s" horiz-adv-x="454" d="M229 -15 Q187 -15 150 -1.5 Q113 12 84.5 36.5 Q56 61 40 94 L89 120 Q112 80 148 59 Q184 38 230 38 Q266 38 293.5 51 Q321 64 337 87 Q353 110 353 139 Q353 210 255 231 L212 240 Q131 256 93 290 Q55 324 55 380 Q55 423 77.5 456 Q100 489 139 508 Q178 527 229 527 Q290 527 337.5 498 Q385 469 407 418 L357 394 Q338 432 304 453 Q270 474 227 474 Q194 474 169 462.5 Q144 451 129.5 430.5 Q115 410 115 384 Q115 349 140.5 328 Q166 307 225 294 L268 285 Q339 270 376.5 233.5 Q414 197 414 142 Q414 96 390 61 Q366 26 324 5.5 Q282 -15 229 -15 Z " />
<glyph glyph-name="uni0074" unicode="t" horiz-adv-x="398" d="M255 -15 Q187 -15 149.5 26 Q112 67 112 143 L112 462 L15 462 L15 512 L112 512 L112 683 L172 683 L172 512 L340 512 L340 462 L172 462 L172 143 Q172 94 195 67 Q218 40 258 40 Q278 40 300 47 Q322 54 339 65 L363 19 Q318 -15 255 -15 Z " />
<glyph glyph-name="uni0075" unicode="u" horiz-adv-x="558" d="M276 -15 Q212 -15 166 13.5 Q120 42 95 94.5 Q70 147 70 220 L70 512 L130 512 L130 221 Q130 164 148 124 Q166 84 199 62.5 Q232 41 279 41 Q326 41 359 62.5 Q392 84 410 124.5 Q428 165 428 221 L428 512 L488 512 L488 220 Q488 148 462 95.5 Q436 43 388 14 Q340 -15 276 -15 Z " />
<glyph glyph-name="uni0076" unicode="v" horiz-adv-x="510" d="M224 0 L20 512 L86 512 L256 63 L426 512 L490 512 L286 0 L224 0 Z " />
<glyph glyph-name="uni0077" unicode="w" horiz-adv-x="782" d="M194 0 L20 512 L82 512 L222 72 L365 512 L421 512 L562 72 L702 512 L762 512 L588 0 L531 0 L392 438 L251 0 L194 0 Z " />
<glyph glyph-name="uni0078" unicode="x" horiz-adv-x="501" d="M15 0 L215 270 L38 512 L111 512 L252 309 L394 512 L463 512 L286 270 L486 0 L410 0 L248 230 L87 0 L15 0 Z " />
<glyph glyph-name="uni0079" unicode="y" horiz-adv-x="510" d="M104 -217 Q85 -217 68.5 -213 Q52 -209 35 -199 L56 -150 Q76 -162 103 -162 Q134 -162 159 -141 Q184 -120 202 -76 L234 4 L20 512 L86 512 L265 71 L426 512 L490 512 L255 -91 Q230 -156 192.5 -186.5 Q155 -217 104 -217 Z " />
<glyph glyph-name="uni007A" unicode="z" horiz-adv-x="485" d="M45 0 L45 40 L351 462 L52 462 L52 512 L423 512 L423 472 L117 50 L440 50 L440 0 L45 0 Z " />
<glyph glyph-name="uni2122" unicode="&#x2122;" horiz-adv-x="774" d="M140 359 L140 666 L30 666 L30 710 L299 710 L299 666 L189 666 L189 359 L140 359 Z M368 359 L368 710 L416 710 L539 479 L662 710 L709 710 L709 359 L661 359 L661 628 L557 432 L520 432 L416 627 L416 359 L368 359 Z " />
<glyph glyph-name="uni00AA" unicode="&#xaa;" horiz-adv-x="361" d="M156 320 Q117 320 87.5 334 Q58 348 41.5 373 Q25 398 25 431 Q25 466 43.5 491 Q62 516 95.5 530 Q129 544 175 544 Q201 544 227.5 538 Q254 532 273 523 L273 553 Q273 598 247.5 625.5 Q222 653 180 653 Q146 653 121 637.5 Q96 622 85 593 L38 609 Q48 636 69 656.5 Q90 677 119 688.5 Q148 700 181 700 Q224 700 257 681.5 Q290 663 308 629.5 Q326 596 326 551 L326 329 L278 329 L274 386 Q259 356 228 338 Q197 320 156 320 Z M79 432 Q79 401 102.5 382.5 Q126 364 165 364 Q196 364 220.5 377.5 Q245 391 259 414.5 Q273 438 273 469 L273 482 Q250 491 226 496.5 Q202 502 180 502 Q133 502 106 483.5 Q79 465 79 432 Z " />
<glyph glyph-name="uni00BA" unicode="&#xba;" horiz-adv-x="410" d="M205 320 Q166 320 133 334 Q100 348 76 374 Q52 400 38.5 434.5 Q25 469 25 510 Q25 551 38.5 585.5 Q52 620 76 646 Q100 672 133 686 Q166 700 205 700 Q244 700 277 686 Q310 672 334 646 Q358 620 371.5 585.5 Q385 551 385 510 Q385 469 371.5 434.5 Q358 400 334 374 Q310 348 277 334 Q244 320 205 320 Z M205 370 Q241 370 269 388 Q297 406 313 438 Q329 470 329 510 Q329 550 313 582 Q297 614 269 632 Q241 650 205 650 Q169 650 141 632 Q113 614 97 582 Q81 550 81 510 Q81 470 97 438 Q113 406 141 388 Q169 370 205 370 Z " />
<glyph glyph-name="uni00B0" unicode="&#xb0;" horiz-adv-x="360" d="M330 600 Q330 569 318.5 541.5 Q307 514 286 493 Q265 472 237.5 460 Q210 448 179 448 Q148 448 121 459.5 Q94 471 73.5 492 Q53 513 41.5 540.5 Q30 568 30 599 Q30 630 41.5 658 Q53 686 74 707 Q95 728 122.5 740 Q150 752 181 752 Q212 752 239 740.5 Q266 729 286.5 708.5 Q307 688 318.5 660 Q330 632 330 600 Z M275 600 Q275 628 262.5 651.5 Q250 675 228 688.5 Q206 702 180 702 Q154 702 132 688.5 Q110 675 97.5 651.5 Q85 628 85 600 Q85 572 97.5 548.5 Q110 525 132 511.5 Q154 498 180 498 Q206 498 228 511.5 Q250 525 262.5 548.5 Q275 572 275 600 Z " />
<glyph glyph-name="uni00A9" unicode="&#xa9;" horiz-adv-x="872" d="M436 -21 Q372 -21 315 -2.5 Q258 16 211.5 50 Q165 84 131 130.5 Q97 177 78.5 234 Q60 291 60 355 Q60 419 78.5 475.5 Q97 532 131 579 Q165 626 211.5 659.5 Q258 693 315 711.5 Q372 730 436 730 Q500 730 557 711.5 Q614 693 660.5 659.5 Q707 626 741 579 Q775 532 793.5 475.5 Q812 419 812 355 Q812 291 793.5 234 Q775 177 741 130.5 Q707 84 660.5 50 Q614 16 557 -2.5 Q500 -21 436 -21 Z M436 29 Q490 29 539 45.5 Q588 62 629 91.5 Q670 121 699.5 162 Q729 203 745.5 252 Q762 301 762 355 Q762 409 745.5 458 Q729 507 699.5 547.5 Q670 588 629 617.5 Q588 647 539 663.5 Q490 680 436 680 Q382 680 333 663.5 Q284 647 243 617.5 Q202 588 172.5 547.5 Q143 507 126.5 458 Q110 409 110 355 Q110 301 126.5 252 Q143 203 172.5 162 Q202 121 243 91.5 Q284 62 333 45.5 Q382 29 436 29 Z M441 147 Q400 147 365 162.5 Q330 178 304 206.5 Q278 235 264 273.5 Q250 312 250 357 Q250 402 264.5 440.5 Q279 479 305 508.5 Q331 538 366 554 Q401 570 441 570 Q477 570 508.5 558 Q540 546 563.5 523.5 Q587 501 600 470 L554 448 Q536 482 506 502 Q476 522 441 522 Q402 522 371 500.5 Q340 479 322 441.5 Q304 404 304 357 Q304 310 321.5 273 Q339 236 370 215.5 Q401 195 441 195 Q478 195 510 214.5 Q542 234 559 268 L604 247 Q590 217 565.5 194.5 Q541 172 508.5 159.5 Q476 147 441 147 Z " />
<glyph glyph-name="uni00AE" unicode="&#xae;" horiz-adv-x="536" d="M268 269 Q220 269 178.5 286 Q137 303 106 334 Q75 365 57.5 406 Q40 447 40 495 Q40 543 57.5 584 Q75 625 106 655.5 Q137 686 178.5 703 Q220 720 268 720 Q316 720 357.5 703 Q399 686 430 655.5 Q461 625 478.5 584 Q496 543 496 495 Q496 447 478.5 406 Q461 365 430 334 Q399 303 357.5 286 Q316 269 268 269 Z M268 305 Q307 305 341 319.5 Q375 334 401 360 Q427 386 441.5 420.5 Q456 455 456 495 Q456 534 441.5 568.5 Q427 603 401.5 629 Q376 655 341.5 669.5 Q307 684 268 684 Q229 684 194.5 669.5 Q160 655 134.5 629 Q109 603 94.5 568.5 Q80 534 80 495 Q80 455 94.5 420.5 Q109 386 135 360 Q161 334 195 319.5 Q229 305 268 305 Z M192 376 L192 618 L265 618 Q308 618 334 598 Q360 578 360 544 Q360 521 348 503.5 Q336 486 315 477 L373 376 L329 376 L281 467 Q273 467 268.5 466.5 Q264 466 261 466 Q250 466 231 469 L231 376 L192 376 Z M231 585 L231 502 Q247 499 263 499 Q320 499 320 542 Q320 562 305 573.5 Q290 585 265 585 L231 585 Z " />
<glyph glyph-name="uni2018" unicode="&#x2018;" horiz-adv-x="221" d="M118 468 Q98 468 81 482 Q64 496 54.5 520 Q45 544 45 573 Q45 620 71.5 659 Q98 698 146 723 L166 684 Q132 665 113 637 Q94 609 94 577 Q94 554 102 537 Q111 546 125 546 Q141 546 152 535 Q163 524 163 508 Q163 492 150 480 Q137 468 118 468 Z " />
<glyph glyph-name="uni2019" unicode="&#x2019;" horiz-adv-x="221" d="M103 713 Q124 713 140.5 699 Q157 685 166.5 661.5 Q176 638 176 608 Q176 562 149.5 523 Q123 484 75 458 L55 497 Q90 516 108.5 544 Q127 572 127 604 Q127 627 119 644 Q110 635 96 635 Q81 635 69.5 646.5 Q58 658 58 673 Q58 690 71 701.5 Q84 713 103 713 Z " />
<glyph glyph-name="uni201A" unicode="&#x201a;" horiz-adv-x="207" d="M99 97 Q120 97 136.5 83 Q153 69 162.5 45.5 Q172 22 172 -8 Q172 -54 145.5 -93 Q119 -132 71 -158 L51 -119 Q86 -100 104.5 -72 Q123 -44 123 -12 Q123 11 115 28 Q106 19 92 19 Q77 19 65.5 30.5 Q54 42 54 57 Q54 74 67 85.5 Q80 97 99 97 Z " />
<glyph glyph-name="uni201C" unicode="&#x201c;" horiz-adv-x="391" d="M118 468 Q98 468 81 482 Q64 496 54.5 520 Q45 544 45 573 Q45 620 71.5 659 Q98 698 146 723 L166 684 Q132 665 113 637 Q94 609 94 577 Q94 554 102 537 Q111 546 125 546 Q141 546 152 535 Q163 524 163 508 Q163 492 150 480 Q137 468 118 468 Z M288 468 Q268 468 251 482 Q234 496 224.5 520 Q215 544 215 573 Q215 620 241.5 659 Q268 698 316 723 L336 684 Q302 665 283 637 Q264 609 264 577 Q264 554 272 537 Q281 546 295 546 Q311 546 322 535 Q333 524 333 508 Q333 492 320 480 Q307 468 288 468 Z " />
<glyph glyph-name="uni201D" unicode="&#x201d;" horiz-adv-x="391" d="M103 713 Q124 713 140.5 699 Q157 685 166.5 661.5 Q176 638 176 608 Q176 562 149.5 523 Q123 484 75 458 L55 497 Q90 516 108.5 544 Q127 572 127 604 Q127 627 119 644 Q110 635 96 635 Q81 635 69.5 646.5 Q58 658 58 673 Q58 690 71 701.5 Q84 713 103 713 Z M273 713 Q294 713 310.5 699 Q327 685 336.5 661.5 Q346 638 346 608 Q346 562 319.5 523 Q293 484 245 458 L225 497 Q260 516 278.5 544 Q297 572 297 604 Q297 627 289 644 Q280 635 266 635 Q251 635 239.5 646.5 Q228 658 228 673 Q228 690 241 701.5 Q254 713 273 713 Z " />
<glyph glyph-name="uni201E" unicode="&#x201e;" horiz-adv-x="377" d="M99 97 Q120 97 136.5 83 Q153 69 162.5 45.5 Q172 22 172 -8 Q172 -54 145.5 -93 Q119 -132 71 -158 L51 -119 Q86 -100 104.5 -72 Q123 -44 123 -12 Q123 11 115 28 Q106 19 92 19 Q77 19 65.5 30.5 Q54 42 54 57 Q54 74 67 85.5 Q80 97 99 97 Z M269 97 Q290 97 306.5 83 Q323 69 332.5 45.5 Q342 22 342 -8 Q342 -54 315.5 -93 Q289 -132 241 -158 L221 -119 Q256 -100 274.5 -72 Q293 -44 293 -12 Q293 11 285 28 Q276 19 262 19 Q247 19 235.5 30.5 Q224 42 224 57 Q224 74 237 85.5 Q250 97 269 97 Z " />
<glyph glyph-name="uni0131" unicode="&#x131;" horiz-adv-x="208" d="M74 0 L74 512 L134 512 L134 0 L74 0 Z " />
<glyph glyph-name="uni0237" unicode="&#x237;" horiz-adv-x="213" d="M3 -217 Q-42 -217 -76 -194 L-52 -147 Q-28 -162 1 -162 Q37 -162 58 -136.5 Q79 -111 79 -67 L79 512 L139 512 L139 -67 Q139 -112 122 -145.5 Q105 -179 74.5 -198 Q44 -217 3 -217 Z " />
<glyph glyph-name="uni0132" unicode="&#x132;" horiz-adv-x="663" d="M72 285 L72 710 L135 710 L135 285 L72 285 Z M324 -20 Q266 -20 217.5 -0.5 Q169 19 132.5 56.5 Q96 94 76 146 L133 169 Q162 104 211 70.5 Q260 37 325 37 Q388 37 433.5 66 Q479 95 503.5 147.5 Q528 200 528 273 L528 710 L591 710 L591 273 Q591 206 572 152 Q553 98 518 59.5 Q483 21 434 0.5 Q385 -20 324 -20 Z " />
<glyph glyph-name="uni0133" unicode="&#x133;" horiz-adv-x="566" d="M147 665 Q147 646 133.5 632 Q120 618 100 618 Q81 618 67 632 Q53 646 53 665 Q53 684 67 698 Q81 712 100 712 Q120 712 133.5 698 Q147 684 147 665 Z M509 665 Q509 646 495.5 632 Q482 618 462 618 Q443 618 429 632 Q415 646 415 665 Q415 684 429 698 Q443 712 462 712 Q482 712 495.5 698 Q509 684 509 665 Z M265 0 Q205 0 161.5 28 Q118 56 94 108 Q70 160 70 230 L70 512 L130 512 L130 232 Q130 148 166.5 102 Q203 56 270 56 Q317 56 353.5 77.5 Q390 99 411 136.5 Q432 174 432 221 L432 512 L492 512 L492 18 Q492 -55 464.5 -109 Q437 -163 387.5 -192.5 Q338 -222 271 -222 Q209 -222 157 -196 Q105 -170 75 -124 L120 -92 Q147 -129 185 -148.5 Q223 -168 269 -168 Q320 -168 356.5 -145.5 Q393 -123 412.5 -81 Q432 -39 432 18 L432 94 Q409 51 365 25.5 Q321 0 265 0 Z " />
<glyph glyph-name="uni00DE" unicode="&#xde;" horiz-adv-x="561" d="M82 0 L82 710 L142 710 L142 574 L267 574 Q346 574 403 548 Q460 522 490.5 473 Q521 424 521 357 Q521 290 488.5 242 Q456 194 396 167.5 Q336 141 253 141 Q230 141 202.5 143 Q175 145 143 150 L143 0 L82 0 Z M143 518 L143 205 Q168 201 198 199 Q228 197 252 197 Q351 197 404 238.5 Q457 280 457 358 Q457 408 434.5 444 Q412 480 369 499 Q326 518 267 518 L143 518 Z " />
<glyph glyph-name="uni00C6" unicode="&#xc6;" horiz-adv-x="990" d="M25 0 L499 710 L913 710 L913 653 L587 653 L587 398 L886 398 L886 341 L587 341 L587 57 L923 57 L923 0 L526 0 L526 219 L240 219 L96 0 L25 0 Z M278 276 L526 276 L526 654 L278 276 Z " />
<glyph glyph-name="uni0152" unicode="&#x152;" horiz-adv-x="1039" d="M431 0 Q345 0 275.5 25 Q206 50 157 96.5 Q108 143 81.5 208.5 Q55 274 55 355 Q55 436 81.5 501 Q108 566 157.5 613 Q207 660 275.5 685 Q344 710 429 710 L962 710 L962 653 L636 653 L636 398 L935 398 L935 341 L636 341 L636 57 L972 57 L972 0 L431 0 Z M431 57 L575 57 L575 653 L431 653 Q359 653 301.5 632 Q244 611 203.5 572 Q163 533 141 478 Q119 423 119 355 Q119 287 141 232 Q163 177 204 138 Q245 99 302.5 78 Q360 57 431 57 Z " />
<glyph glyph-name="uni1E9E" unicode="&#x1e9e;" horiz-adv-x="616" d="M349 -15 Q311 -15 276.5 -4.5 Q242 6 210 26 L240 74 Q260 58 291 49 Q322 40 353 40 Q400 40 437.5 61 Q475 82 496 119 Q517 156 517 203 Q517 252 495 289 Q473 326 434.5 347 Q396 368 344 370 L334 409 L487 593 Q458 628 415.5 648 Q373 668 327 668 Q269 668 226 639.5 Q183 611 159 559 Q135 507 135 437 L135 0 L72 0 L72 439 Q72 503 90.5 555.5 Q109 608 142.5 646 Q176 684 222.5 704.5 Q269 725 326 725 Q396 725 456.5 692 Q517 659 561 596 L407 412 Q459 403 498 374 Q537 345 559 301.5 Q581 258 581 205 Q581 157 564 117 Q547 77 515.5 47 Q484 17 442 1 Q400 -15 349 -15 Z " />
<glyph glyph-name="uni00FE" unicode="&#xfe;" horiz-adv-x="616" d="M74 -207 L74 740 L134 740 L134 415 Q162 467 212 497 Q262 527 325 527 Q377 527 421.5 506.5 Q466 486 499 449 Q532 412 550.5 363 Q569 314 569 256 Q569 198 550.5 149 Q532 100 498.5 63 Q465 26 420 5.5 Q375 -15 323 -15 Q262 -15 212 14.5 Q162 44 134 95 L134 -207 L74 -207 Z M320 40 Q361 40 395.5 56 Q430 72 455 101 Q480 130 494 169.5 Q508 209 508 256 Q508 303 494 342.5 Q480 382 455 411 Q430 440 395.5 456 Q361 472 320 472 Q279 472 244.5 456 Q210 440 185 411 Q160 382 146 342.5 Q132 303 132 256 Q132 209 146 169.5 Q160 130 185 101 Q210 72 244.5 56 Q279 40 320 40 Z " />
<glyph glyph-name="uni00E6" unicode="&#xe6;" horiz-adv-x="900" d="M233 -15 Q180 -15 138.5 5 Q97 25 73.5 60.5 Q50 96 50 143 Q50 192 75.5 228 Q101 264 146.5 284 Q192 304 252 304 Q291 304 329.5 296 Q368 288 396 273 L396 318 Q396 365 379 400 Q362 435 330.5 454 Q299 473 257 473 Q209 473 172 448.5 Q135 424 118 380 L69 403 Q82 440 110.5 468 Q139 496 177 511 Q215 526 259 526 Q323 526 369 494 Q415 462 435 405 Q465 462 516 494 Q567 526 629 526 Q677 526 717.5 507.5 Q758 489 788.5 455.5 Q819 422 836 376.5 Q853 331 853 278 L853 250 L452 250 Q453 188 476.5 140 Q500 92 542.5 65 Q585 38 642 38 Q691 38 730.5 60 Q770 82 796 126 L844 98 Q816 46 762.5 15.5 Q709 -15 641 -15 Q567 -15 511 21.5 Q455 58 425 120 Q415 80 388 49.5 Q361 19 321 2 Q281 -15 233 -15 Z M628 475 Q584 475 547.5 452.5 Q511 430 487 390 Q463 350 455 298 L793 298 Q790 349 767.5 389 Q745 429 709 452 Q673 475 628 475 Z M110 144 Q110 111 125.5 86.5 Q141 62 169.5 48 Q198 34 235 34 Q282 34 318 55 Q354 76 375 113 Q396 150 396 197 L396 226 Q364 241 328 248.5 Q292 256 256 256 Q188 256 149 226 Q110 196 110 144 Z " />
<glyph glyph-name="uni0153" unicode="&#x153;" horiz-adv-x="983" d="M290 -15 Q238 -15 193.5 5 Q149 25 116 61.5 Q83 98 65 147.5 Q47 197 47 256 Q47 314 65.5 363.5 Q84 413 117 450 Q150 487 194.5 507 Q239 527 292 527 Q341 527 382.5 509 Q424 491 456 458 Q488 425 506 380 Q524 425 555 458 Q586 491 626 508.5 Q666 526 712 526 Q760 526 801 507.5 Q842 489 872 455 Q902 421 919 376 Q936 331 936 278 L936 250 L535 250 Q536 187 560 139 Q584 91 626.5 64.5 Q669 38 725 38 Q775 38 814.5 60 Q854 82 879 126 L927 98 Q908 62 877 37 Q846 12 807 -1.5 Q768 -15 724 -15 Q674 -15 631.5 2 Q589 19 556.5 51.5 Q524 84 504 129 Q485 85 453 53 Q421 21 379.5 3 Q338 -15 290 -15 Z M711 475 Q667 475 630.5 452.5 Q594 430 570 390 Q546 350 538 298 L876 298 Q873 349 850.5 389 Q828 429 792 452 Q756 475 711 475 Z M291 40 Q331 40 364.5 56 Q398 72 422.5 101 Q447 130 460.5 169.5 Q474 209 474 256 Q474 303 460.5 342.5 Q447 382 422.5 411 Q398 440 364.5 456 Q331 472 291 472 Q251 472 217.5 456 Q184 440 159.5 411 Q135 382 121.5 342.5 Q108 303 108 256 Q108 209 121.5 169.5 Q135 130 159.5 101 Q184 72 217.5 56 Q251 40 291 40 Z " />
<glyph glyph-name="uni00DF" unicode="&#xdf;" horiz-adv-x="574" d="M309 -10 Q284 -10 256.5 -4.5 Q229 1 209 10 L224 62 Q240 54 264 49.5 Q288 45 310 45 Q355 45 390.5 66 Q426 87 446 123.5 Q466 160 466 207 Q466 242 453 271 Q440 300 417.5 322 Q395 344 364 356.5 Q333 369 297 369 L263 369 L263 422 L287 422 Q327 422 359 440 Q391 458 409.5 489.5 Q428 521 428 560 Q428 598 409 629 Q390 660 357.5 677.5 Q325 695 284 695 Q240 695 206 674.5 Q172 654 153 617 Q134 580 134 532 L134 0 L74 0 L74 531 Q74 579 89.5 619 Q105 659 133 688.5 Q161 718 199.5 734 Q238 750 284 750 Q328 750 365 736 Q402 722 430 696.5 Q458 671 473.5 637 Q489 603 489 563 Q489 510 462 467.5 Q435 425 389 401 Q431 386 462 357 Q493 328 510 288 Q527 248 527 202 Q527 157 510.5 118.5 Q494 80 464.5 51 Q435 22 395.5 6 Q356 -10 309 -10 Z " />
<glyph glyph-name="uni0138" unicode="&#x138;" horiz-adv-x="508" d="M74 0 L74 512 L132 512 L132 283 L394 512 L474 512 L190 268 L498 0 L414 0 L132 249 L132 0 L74 0 Z " />
<glyph glyph-name="uni014A" unicode="&#x14a;" horiz-adv-x="699" d="M82 0 L82 710 L138 710 L556 104 L556 710 L617 710 L617 -36 Q617 -92 596 -134 Q575 -176 536 -198.5 Q497 -221 444 -221 Q414 -221 383.5 -210.5 Q353 -200 332 -183 L360 -135 Q378 -148 400.5 -156 Q423 -164 444 -164 Q496 -164 526 -129.5 Q556 -95 556 -34 L556 7 L143 605 L143 0 L82 0 Z " />
<glyph glyph-name="uni014B" unicode="&#x14b;" horiz-adv-x="566" d="M74 0 L74 512 L128 512 L131 428 Q154 473 198.5 500 Q243 527 301 527 Q361 527 404.5 499 Q448 471 472 419.5 Q496 368 496 297 L496 -67 Q496 -112 478 -145.5 Q460 -179 428 -198 Q396 -217 354 -217 Q306 -217 271 -194 L295 -147 Q320 -162 352 -162 Q391 -162 413.5 -136.5 Q436 -111 436 -67 L436 295 Q436 379 399.5 425 Q363 471 296 471 Q249 471 212.5 449.5 Q176 428 155 391 Q134 354 134 306 L134 0 L74 0 Z " />
<glyph glyph-name="uni00D0" unicode="&#xd0;" horiz-adv-x="745" d="M92 0 L92 344 L0 344 L0 395 L92 395 L92 710 L314 710 Q400 710 469.5 685 Q539 660 588 613.5 Q637 567 663.5 501.5 Q690 436 690 355 Q690 274 663.5 209 Q637 144 587.5 97 Q538 50 469.5 25 Q401 0 316 0 L92 0 Z M155 57 L314 57 Q386 57 443.5 78 Q501 99 541.5 138 Q582 177 604 232 Q626 287 626 355 Q626 423 604 478 Q582 533 541 572 Q500 611 442.5 632 Q385 653 314 653 L155 653 L155 395 L333 395 L333 344 L155 344 L155 57 Z " />
<glyph glyph-name="uni0110" unicode="&#x110;" horiz-adv-x="745" d="M92 0 L92 344 L0 344 L0 395 L92 395 L92 710 L314 710 Q400 710 469.5 685 Q539 660 588 613.5 Q637 567 663.5 501.5 Q690 436 690 355 Q690 274 663.5 209 Q637 144 587.5 97 Q538 50 469.5 25 Q401 0 316 0 L92 0 Z M155 57 L314 57 Q386 57 443.5 78 Q501 99 541.5 138 Q582 177 604 232 Q626 287 626 355 Q626 423 604 478 Q582 533 541 572 Q500 611 442.5 632 Q385 653 314 653 L155 653 L155 395 L333 395 L333 344 L155 344 L155 57 Z " />
<glyph glyph-name="uni0126" unicode="&#x126;" horiz-adv-x="729" d="M92 0 L92 545 L0 545 L0 596 L92 596 L92 710 L155 710 L155 596 L574 596 L574 710 L637 710 L637 596 L729 596 L729 545 L637 545 L637 0 L574 0 L574 341 L155 341 L155 0 L92 0 Z M155 398 L574 398 L574 545 L155 545 L155 398 Z " />
<glyph glyph-name="uni0166" unicode="&#x166;" horiz-adv-x="609" d="M273 0 L273 329 L141 329 L141 380 L273 380 L273 653 L50 653 L50 710 L559 710 L559 653 L336 653 L336 380 L468 380 L468 329 L336 329 L336 0 L273 0 Z " />
<glyph glyph-name="uni0141" unicode="&#x141;" horiz-adv-x="529" d="M92 0 L92 262 L0 193 L0 255 L92 324 L92 710 L155 710 L155 371 L293 475 L293 413 L155 309 L155 57 L479 57 L479 0 L92 0 Z " />
<glyph glyph-name="uni00D8" unicode="&#xd8;" horiz-adv-x="791" d="M133 -35 L65 -35 L154 83 Q108 133 81.5 202.5 Q55 272 55 355 Q55 436 80 504.5 Q105 573 151 623.5 Q197 674 259.5 702 Q322 730 396 730 Q454 730 504.5 713 Q555 696 596 664 L658 745 L726 745 L637 628 Q683 578 709.5 508 Q736 438 736 355 Q736 273 711 204.5 Q686 136 640 85.5 Q594 35 532 7.5 Q470 -20 396 -20 Q338 -20 287 -2.5 Q236 15 195 46 L133 -35 Z M118 355 Q118 288 137.5 231 Q157 174 192 132 L560 617 Q526 644 484.5 659 Q443 674 395 674 Q335 674 284.5 650.5 Q234 627 196.5 584 Q159 541 138.5 482.5 Q118 424 118 355 Z M395 36 Q455 36 506 59.5 Q557 83 594.5 126 Q632 169 652.5 227.5 Q673 286 673 355 Q673 422 653.5 479 Q634 536 599 578 L231 93 Q264 66 306 51 Q348 36 395 36 Z " />
<glyph glyph-name="uni00F0" unicode="&#xf0;" horiz-adv-x="597" d="M295 -15 Q242 -15 197 5 Q152 25 118.5 61 Q85 97 66 145.5 Q47 194 47 250 Q47 306 66 354 Q85 402 118 439 Q151 476 195 496.5 Q239 517 290 517 Q342 517 386.5 495 Q431 473 461 433 Q444 481 414.5 528 Q385 575 347 618 L246 564 L224 605 L314 653 Q276 690 234 719 L296 745 Q334 716 367 682 L457 730 L479 689 L399 646 Q445 592 477.5 530 Q510 468 527.5 403 Q545 338 545 273 Q545 208 527.5 155 Q510 102 477 64 Q444 26 398 5.5 Q352 -15 295 -15 Z M296 40 Q337 40 371.5 55.5 Q406 71 431 99.5 Q456 128 470 166.5 Q484 205 484 251 Q484 297 470 335.5 Q456 374 431 402.5 Q406 431 371.5 446.5 Q337 462 296 462 Q255 462 220.5 446.5 Q186 431 161 402.5 Q136 374 122 335.5 Q108 297 108 251 Q108 205 122 166.5 Q136 128 161 99.5 Q186 71 220.5 55.5 Q255 40 296 40 Z " />
<glyph glyph-name="uni0111" unicode="&#x111;" horiz-adv-x="616" d="M291 -15 Q239 -15 194.5 5.5 Q150 26 117 63 Q84 100 65.5 149 Q47 198 47 256 Q47 314 65.5 363 Q84 412 117.5 449 Q151 486 196 506.5 Q241 527 293 527 Q354 527 404 497.5 Q454 468 482 417 L482 603 L308 603 L308 649 L482 649 L482 740 L542 740 L542 649 L624 649 L624 603 L542 603 L542 0 L488 0 L484 101 Q456 47 405.5 16 Q355 -15 291 -15 Z M296 40 Q337 40 371.5 56 Q406 72 431 101 Q456 130 470 169.5 Q484 209 484 256 Q484 303 470 342.5 Q456 382 431 411 Q406 440 371.5 456 Q337 472 296 472 Q255 472 220.5 456 Q186 440 161 411 Q136 382 122 342.5 Q108 303 108 256 Q108 209 122 169.5 Q136 130 161 101 Q186 72 220.5 56 Q255 40 296 40 Z " />
<glyph glyph-name="uni0127" unicode="&#x127;" horiz-adv-x="566" d="M74 0 L74 603 L-8 603 L-8 649 L74 649 L74 740 L134 740 L134 649 L308 649 L308 603 L134 603 L134 433 Q157 476 201 501.5 Q245 527 301 527 Q361 527 404.5 499 Q448 471 472 419.5 Q496 368 496 297 L496 0 L436 0 L436 295 Q436 379 399.5 425 Q363 471 296 471 Q249 471 212.5 449.5 Q176 428 155 391 Q134 354 134 306 L134 0 L74 0 Z " />
<glyph glyph-name="uni0167" unicode="&#x167;" horiz-adv-x="398" d="M25 247 L25 293 L112 293 L112 462 L15 462 L15 512 L112 512 L112 683 L172 683 L172 512 L340 512 L340 462 L172 462 L172 293 L330 293 L330 247 L172 247 L172 143 Q172 94 195 67 Q218 40 258 40 Q278 40 300 47 Q322 54 339 65 L363 19 Q318 -15 255 -15 Q187 -15 149.5 26 Q112 67 112 143 L112 247 L25 247 Z " />
<glyph glyph-name="uni0142" unicode="&#x142;" horiz-adv-x="224" d="M82 0 L82 318 L0 257 L0 315 L82 376 L82 740 L142 740 L142 422 L224 483 L224 425 L142 364 L142 0 L82 0 Z " />
<glyph glyph-name="uni00F8" unicode="&#xf8;" horiz-adv-x="592" d="M119 -25 L54 -25 L118 61 Q85 97 66 147 Q47 197 47 256 Q47 314 65.5 363.5 Q84 413 118 450 Q152 487 197.5 507 Q243 527 297 527 Q336 527 370.5 516 Q405 505 434 485 L473 537 L538 537 L474 451 Q507 415 526 365 Q545 315 545 256 Q545 198 526.5 148.5 Q508 99 474 62 Q440 25 394.5 5 Q349 -15 295 -15 Q256 -15 221.5 -4 Q187 7 158 27 L119 -25 Z M106 256 Q106 212 118.5 174 Q131 136 153 108 L401 441 Q379 457 352.5 465.5 Q326 474 296 474 Q255 474 220 458 Q185 442 159.5 412.5 Q134 383 120 343 Q106 303 106 256 Z M296 38 Q337 38 372 54 Q407 70 432.5 99.5 Q458 129 472 169 Q486 209 486 256 Q486 300 473.5 338 Q461 376 439 404 L191 71 Q213 55 239.5 46.5 Q266 38 296 38 Z " />
<glyph glyph-name="uni0327" unicode="&#x327;" d="M-21 11 L25 11 L8 -55 Q30 -58 48 -69 Q66 -80 76 -97 Q86 -114 86 -134 Q86 -159 72 -178.5 Q58 -198 33.5 -209 Q9 -220 -23 -220 Q-64 -220 -95 -205 L-80 -159 Q-63 -165 -49.5 -167.5 Q-36 -170 -24 -170 Q-1 -170 13.5 -160 Q28 -150 28 -133 Q28 -92 -49 -92 L-21 11 Z " />
<glyph glyph-name="uni00B8" unicode="&#xb8;" horiz-adv-x="566" d="M266 11 L312 11 L295 -55 Q317 -58 335 -69 Q353 -80 363 -97 Q373 -114 373 -134 Q373 -159 359 -178.5 Q345 -198 320.5 -209 Q296 -220 264 -220 Q223 -220 192 -205 L207 -159 Q224 -165 237.5 -167.5 Q251 -170 263 -170 Q286 -170 300.5 -160 Q315 -150 315 -133 Q315 -92 238 -92 L266 11 Z " />
<glyph glyph-name="uni0326" unicode="&#x326;" d="M-27 -233 L-45 -194 Q-22 -182 -9.5 -167 Q3 -152 3 -131 Q-5 -136 -15 -136 Q-28 -136 -38 -125.5 Q-48 -115 -48 -99 Q-48 -82 -36 -71 Q-24 -60 -5 -60 Q10 -60 22.5 -69 Q35 -78 42.5 -94 Q50 -110 50 -129 Q50 -163 29 -191 Q8 -219 -27 -233 Z " />
<glyph glyph-name="uni0312" unicode="&#x312;" d="M7 581 Q-8 581 -20.5 590 Q-33 599 -40.5 614.5 Q-48 630 -48 650 Q-48 684 -27 712 Q-6 740 29 754 L47 715 Q24 703 11.5 688 Q-1 673 -1 652 Q7 657 17 657 Q30 657 40 646.5 Q50 636 50 620 Q50 604 38 592.5 Q26 581 7 581 Z " />
<glyph glyph-name="uni0328" unicode="&#x328;" d="M-60 -210 Q-88 -210 -109 -198.5 Q-130 -187 -141.5 -168 Q-153 -149 -153 -125 Q-153 -93 -128 -57.5 Q-103 -22 -44 22 L0 0 Q-38 -30 -59.5 -51.5 Q-81 -73 -89.5 -89.5 Q-98 -106 -98 -121 Q-98 -139 -87 -150 Q-76 -161 -56 -161 Q-41 -161 -26 -157.5 Q-11 -154 0 -149 L14 -194 Q-2 -201 -22 -205.5 Q-42 -210 -60 -210 Z " />
<glyph glyph-name="uni02DB" unicode="&#x2db;" horiz-adv-x="566" d="M285 -210 Q257 -210 236 -198.5 Q215 -187 203.5 -168 Q192 -149 192 -125 Q192 -93 217 -57.5 Q242 -22 301 22 L345 0 Q307 -30 285.5 -51.5 Q264 -73 255.5 -89.5 Q247 -106 247 -121 Q247 -139 258 -150 Q269 -161 289 -161 Q304 -161 319 -157.5 Q334 -154 345 -149 L359 -194 Q343 -201 323 -205.5 Q303 -210 285 -210 Z " />
<glyph glyph-name="uni00C7" unicode="&#xc7;" horiz-adv-x="716" d="M387 -20 Q315 -20 254.5 7.5 Q194 35 149 84.5 Q104 134 79.5 201.5 Q55 269 55 349 Q55 414 71 471.5 Q87 529 117 576.5 Q147 624 188 658.5 Q229 693 279 711.5 Q329 730 385 730 Q446 730 499.5 709.5 Q553 689 594.5 651 Q636 613 660 561 L605 534 Q572 601 515 637 Q458 673 387 673 Q330 673 281 648.5 Q232 624 195.5 580 Q159 536 139 477 Q119 418 119 349 Q119 281 139 224 Q159 167 195 125 Q231 83 280.5 60 Q330 37 389 37 Q462 37 519 72.5 Q576 108 612 176 L667 149 Q642 96 599.5 58 Q557 20 503 0 Q449 -20 387 -20 Z M372 6 L419 6 L402 -61 Q424 -64 442 -75 Q460 -86 470 -102.5 Q480 -119 480 -139 Q480 -165 466 -184.5 Q452 -204 427 -215 Q402 -226 370 -226 Q324 -226 293 -211 L308 -164 Q326 -170 340.5 -172.5 Q355 -175 369 -175 Q392 -175 406.5 -164.5 Q421 -154 421 -138 Q421 -98 344 -98 L372 6 Z " />
<glyph glyph-name="uni015E" unicode="&#x15e;" horiz-adv-x="543" d="M268 -15 Q216 -15 170.5 3.5 Q125 22 91.5 56 Q58 90 40 136 L96 159 Q119 103 163.5 72.5 Q208 42 268 42 Q316 42 354 61.5 Q392 81 413.5 115.5 Q435 150 435 193 Q435 246 399.5 281.5 Q364 317 296 333 L248 344 Q58 388 58 536 Q58 577 74 611.5 Q90 646 118.5 671.5 Q147 697 185.5 711 Q224 725 270 725 Q319 725 362.5 706 Q406 687 438 653.5 Q470 620 486 574 L430 551 Q407 608 365.5 638 Q324 668 268 668 Q224 668 191 651 Q158 634 139 604 Q120 574 120 535 Q120 482 156.5 449.5 Q193 417 270 399 L318 388 Q405 368 451.5 317.5 Q498 267 498 191 Q498 146 481 108.5 Q464 71 433 43 Q402 15 360 0 Q318 -15 268 -15 Z M252 6 L299 6 L282 -61 Q304 -64 322 -75 Q340 -86 350 -102.5 Q360 -119 360 -139 Q360 -165 346 -184.5 Q332 -204 307 -215 Q282 -226 250 -226 Q204 -226 173 -211 L188 -164 Q206 -170 220.5 -172.5 Q235 -175 249 -175 Q272 -175 286.5 -164.5 Q301 -154 301 -138 Q301 -98 224 -98 L252 6 Z " />
<glyph glyph-name="uni0122" unicode="&#x122;" horiz-adv-x="773" d="M398 -20 Q324 -20 261 7.5 Q198 35 152 85 Q106 135 80.5 203 Q55 271 55 352 Q55 417 72 474 Q89 531 120 578 Q151 625 193.5 659 Q236 693 288 711.5 Q340 730 399 730 Q459 730 513 710.5 Q567 691 609.5 655.5 Q652 620 677 572 L622 544 Q600 584 565.5 613 Q531 642 488.5 657.5 Q446 673 399 673 Q339 673 288 649 Q237 625 199 581.5 Q161 538 140 479.5 Q119 421 119 353 Q119 285 140 227 Q161 169 198.5 126.5 Q236 84 287 60.5 Q338 37 398 37 Q455 37 502 56 Q549 75 583 109.5 Q617 144 635.5 192 Q654 240 654 299 L654 300 L424 300 L424 357 L718 357 L718 306 Q718 234 695 174 Q672 114 629.5 70.5 Q587 27 528 3.5 Q469 -20 398 -20 Z M369 -246 L351 -207 Q374 -195 386.5 -179 Q399 -163 399 -146 Q392 -151 383 -151 Q368 -151 358 -140 Q348 -129 348 -113 Q348 -96 360.5 -84.5 Q373 -73 392 -73 Q416 -73 432 -93 Q448 -113 448 -142 Q448 -176 427 -204 Q406 -232 369 -246 Z " />
<glyph glyph-name="uni0136" unicode="&#x136;" horiz-adv-x="631" d="M82 0 L82 710 L143 710 L143 386 L496 710 L580 710 L209 373 L616 0 L523 0 L143 351 L143 0 L82 0 Z M293 -246 L275 -207 Q298 -195 310.5 -179 Q323 -163 323 -146 Q316 -151 307 -151 Q292 -151 282 -140 Q272 -129 272 -113 Q272 -96 284.5 -84.5 Q297 -73 316 -73 Q340 -73 356 -93 Q372 -113 372 -142 Q372 -176 351 -204 Q330 -232 293 -246 Z " />
<glyph glyph-name="uni013B" unicode="&#x13b;" horiz-adv-x="519" d="M82 0 L82 710 L145 710 L145 57 L469 57 L469 0 L82 0 Z M246 -246 L228 -207 Q251 -195 263.5 -179 Q276 -163 276 -146 Q269 -151 260 -151 Q245 -151 235 -140 Q225 -129 225 -113 Q225 -96 237.5 -84.5 Q250 -73 269 -73 Q293 -73 309 -93 Q325 -113 325 -142 Q325 -176 304 -204 Q283 -232 246 -246 Z " />
<glyph glyph-name="uni0145" unicode="&#x145;" horiz-adv-x="699" d="M82 0 L82 710 L138 710 L556 104 L556 710 L617 710 L617 0 L561 0 L143 605 L143 0 L82 0 Z M320 -246 L302 -207 Q325 -195 337.5 -179 Q350 -163 350 -146 Q343 -151 334 -151 Q319 -151 309 -140 Q299 -129 299 -113 Q299 -96 311.5 -84.5 Q324 -73 343 -73 Q367 -73 383 -93 Q399 -113 399 -142 Q399 -176 378 -204 Q357 -232 320 -246 Z " />
<glyph glyph-name="uni0218" unicode="&#x218;" horiz-adv-x="543" d="M268 -15 Q216 -15 170.5 3.5 Q125 22 91.5 56 Q58 90 40 136 L96 159 Q119 103 163.5 72.5 Q208 42 268 42 Q316 42 354 61.5 Q392 81 413.5 115.5 Q435 150 435 193 Q435 246 399.5 281.5 Q364 317 296 333 L248 344 Q58 388 58 536 Q58 577 74 611.5 Q90 646 118.5 671.5 Q147 697 185.5 711 Q224 725 270 725 Q319 725 362.5 706 Q406 687 438 653.5 Q470 620 486 574 L430 551 Q407 608 365.5 638 Q324 668 268 668 Q224 668 191 651 Q158 634 139 604 Q120 574 120 535 Q120 482 156.5 449.5 Q193 417 270 399 L318 388 Q405 368 451.5 317.5 Q498 267 498 191 Q498 146 481 108.5 Q464 71 433 43 Q402 15 360 0 Q318 -15 268 -15 Z M239 -246 L221 -207 Q244 -195 256.5 -179 Q269 -163 269 -146 Q262 -151 253 -151 Q238 -151 228 -140 Q218 -129 218 -113 Q218 -96 230.5 -84.5 Q243 -73 262 -73 Q286 -73 302 -93 Q318 -113 318 -142 Q318 -176 297 -204 Q276 -232 239 -246 Z " />
<glyph glyph-name="uni021A" unicode="&#x21a;" horiz-adv-x="609" d="M273 0 L273 653 L50 653 L50 710 L559 710 L559 653 L336 653 L336 0 L273 0 Z M275 -246 L257 -207 Q280 -195 292.5 -179 Q305 -163 305 -146 Q298 -151 289 -151 Q274 -151 264 -140 Q254 -129 254 -113 Q254 -96 266.5 -84.5 Q279 -73 298 -73 Q322 -73 338 -93 Q354 -113 354 -142 Q354 -176 333 -204 Q312 -232 275 -246 Z " />
<glyph glyph-name="uni0104" unicode="&#x104;" horiz-adv-x="690" d="M25 0 L312 710 L378 710 L665 0 L599 0 L512 219 L176 219 L89 0 L25 0 Z M199 276 L489 276 L344 643 L199 276 Z M604 -212 Q575 -212 554 -200.5 Q533 -189 521.5 -169.5 Q510 -150 510 -125 Q510 -93 535 -57.5 Q560 -22 619 22 L665 0 Q627 -30 605.5 -51.5 Q584 -73 575.5 -89.5 Q567 -106 567 -121 Q567 -139 578 -150 Q589 -161 609 -161 Q624 -161 639 -157.5 Q654 -154 665 -149 L679 -196 Q663 -203 643 -207.5 Q623 -212 604 -212 Z " />
<glyph glyph-name="uni0118" unicode="&#x118;" horiz-adv-x="556" d="M82 0 L82 710 L479 710 L479 653 L143 653 L143 398 L452 398 L452 341 L143 341 L143 57 L489 57 L489 0 L82 0 Z M428 -212 Q399 -212 378 -200.5 Q357 -189 345.5 -169.5 Q334 -150 334 -125 Q334 -93 359 -57.5 Q384 -22 443 22 L489 0 Q451 -30 429.5 -51.5 Q408 -73 399.5 -89.5 Q391 -106 391 -121 Q391 -139 402 -150 Q413 -161 433 -161 Q448 -161 463 -157.5 Q478 -154 489 -149 L503 -196 Q487 -203 467 -207.5 Q447 -212 428 -212 Z " />
<glyph glyph-name="uni012E" unicode="&#x12e;" horiz-adv-x="227" d="M82 0 L82 710 L145 710 L145 0 L82 0 Z M84 -212 Q55 -212 34 -200.5 Q13 -189 1.5 -169.5 Q-10 -150 -10 -125 Q-10 -93 15 -57.5 Q40 -22 99 22 L145 0 Q107 -30 85.5 -51.5 Q64 -73 55.5 -89.5 Q47 -106 47 -121 Q47 -139 58 -150 Q69 -161 89 -161 Q104 -161 119 -157.5 Q134 -154 145 -149 L159 -196 Q143 -203 123 -207.5 Q103 -212 84 -212 Z " />
<glyph glyph-name="uni0172" unicode="&#x172;" horiz-adv-x="689" d="M342 -20 Q280 -20 230.5 0.5 Q181 21 145.5 59 Q110 97 91 150.5 Q72 204 72 271 L72 710 L135 710 L135 273 Q135 200 160.5 147.5 Q186 95 233 66 Q280 37 345 37 Q410 37 456.5 66 Q503 95 528.5 147.5 Q554 200 554 273 L554 710 L617 710 L617 271 Q617 205 597.5 151.5 Q578 98 542 59.5 Q506 21 455.5 0.5 Q405 -20 342 -20 Z M474 -212 Q428 -212 401.5 -187.5 Q375 -163 375 -121 Q375 -79 404 -35.5 Q433 8 491 57 L535 55 Q482 2 457 -40.5 Q432 -83 432 -114 Q432 -137 445 -149 Q458 -161 478 -161 Q491 -161 505.5 -157.5 Q520 -154 530 -149 L544 -196 Q529 -204 511 -208 Q493 -212 474 -212 Z " />
<glyph glyph-name="uni00E7" unicode="&#xe7;" horiz-adv-x="538" d="M290 -15 Q238 -15 193.5 5 Q149 25 116 61 Q83 97 65 146 Q47 195 47 253 Q47 311 65.5 360.5 Q84 410 117 447.5 Q150 485 194.5 506 Q239 527 290 527 Q334 527 373 512 Q412 497 442 468.5 Q472 440 490 402 L438 377 Q414 422 374.5 447 Q335 472 290 472 Q251 472 218 455.5 Q185 439 160 409 Q135 379 121.5 339.5 Q108 300 108 253 Q108 206 121.5 167 Q135 128 159.5 99.5 Q184 71 217 55.5 Q250 40 290 40 Q322 40 352 51.5 Q382 63 406 84 Q430 105 445 134 L496 110 Q479 72 447.5 44 Q416 16 375 0.5 Q334 -15 290 -15 Z M269 11 L315 11 L298 -55 Q320 -58 338 -69 Q356 -80 366 -97 Q376 -114 376 -134 Q376 -159 362 -178.5 Q348 -198 323.5 -209 Q299 -220 267 -220 Q226 -220 195 -205 L210 -159 Q227 -165 240.5 -167.5 Q254 -170 266 -170 Q289 -170 303.5 -160 Q318 -150 318 -133 Q318 -92 241 -92 L269 11 Z " />
<glyph glyph-name="uni015F" unicode="&#x15f;" horiz-adv-x="454" d="M229 -15 Q187 -15 150 -1.5 Q113 12 84.5 36.5 Q56 61 40 94 L89 120 Q112 80 148 59 Q184 38 230 38 Q266 38 293.5 51 Q321 64 337 87 Q353 110 353 139 Q353 210 255 231 L212 240 Q131 256 93 290 Q55 324 55 380 Q55 423 77.5 456 Q100 489 139 508 Q178 527 229 527 Q290 527 337.5 498 Q385 469 407 418 L357 394 Q338 432 304 453 Q270 474 227 474 Q194 474 169 462.5 Q144 451 129.5 430.5 Q115 410 115 384 Q115 349 140.5 328 Q166 307 225 294 L268 285 Q339 270 376.5 233.5 Q414 197 414 142 Q414 96 390 61 Q366 26 324 5.5 Q282 -15 229 -15 Z M206 11 L252 11 L235 -55 Q257 -58 275 -69 Q293 -80 303 -97 Q313 -114 313 -134 Q313 -159 299 -178.5 Q285 -198 260.5 -209 Q236 -220 204 -220 Q163 -220 132 -205 L147 -159 Q164 -165 177.5 -167.5 Q191 -170 203 -170 Q226 -170 240.5 -160 Q255 -150 255 -133 Q255 -92 178 -92 L206 11 Z " />
<glyph glyph-name="uni0123" unicode="&#x123;" horiz-adv-x="616" d="M291 0 Q239 0 194.5 20 Q150 40 117 76 Q84 112 65.5 160 Q47 208 47 264 Q47 320 65.5 367.5 Q84 415 117.5 451 Q151 487 195.5 507 Q240 527 292 527 Q334 527 370.5 513 Q407 499 436.5 474 Q466 449 484 414 L489 512 L542 512 L542 38 Q542 -20 524.5 -68 Q507 -116 474.5 -150.5 Q442 -185 397 -203.5 Q352 -222 296 -222 Q250 -222 208 -208.5 Q166 -195 132 -169.5 Q98 -144 75 -109 L121 -78 Q185 -168 295 -168 Q352 -168 394 -143 Q436 -118 459 -71.5 Q482 -25 482 38 L482 113 Q454 60 404.5 30 Q355 0 291 0 Z M296 54 Q337 54 371.5 69.5 Q406 85 431 113.5 Q456 142 470 180 Q484 218 484 263 Q484 308 470 346.5 Q456 385 431 413 Q406 441 371.5 456.5 Q337 472 296 472 Q255 472 220.5 456.5 Q186 441 161 413 Q136 385 122 346.5 Q108 308 108 263 Q108 218 122 180 Q136 142 161 113.5 Q186 85 220.5 69.5 Q255 54 296 54 Z M303 581 Q288 581 275.5 590 Q263 599 255.5 614.5 Q248 630 248 650 Q248 684 269 712 Q290 740 325 754 L343 715 Q320 703 307.5 688 Q295 673 295 652 Q303 657 313 657 Q326 657 336 646.5 Q346 636 346 620 Q346 604 334 592.5 Q322 581 303 581 Z " />
<glyph glyph-name="uni0137" unicode="&#x137;" horiz-adv-x="508" d="M74 0 L74 740 L132 740 L132 297 L394 512 L474 512 L191 281 L498 0 L414 0 L132 263 L132 0 L74 0 Z M243 -233 L225 -194 Q248 -182 260.5 -167 Q273 -152 273 -131 Q265 -136 255 -136 Q242 -136 232 -125.5 Q222 -115 222 -99 Q222 -82 234 -71 Q246 -60 265 -60 Q280 -60 292.5 -69 Q305 -78 312.5 -94 Q320 -110 320 -129 Q320 -163 299 -191 Q278 -219 243 -233 Z " />
<glyph glyph-name="uni013C" unicode="&#x13c;" horiz-adv-x="208" d="M74 0 L74 740 L134 740 L134 0 L74 0 Z M77 -233 L59 -194 Q82 -182 94.5 -167 Q107 -152 107 -131 Q99 -136 89 -136 Q76 -136 66 -125.5 Q56 -115 56 -99 Q56 -82 68 -71 Q80 -60 99 -60 Q114 -60 126.5 -69 Q139 -78 146.5 -94 Q154 -110 154 -129 Q154 -163 133 -191 Q112 -219 77 -233 Z " />
<glyph glyph-name="uni0146" unicode="&#x146;" horiz-adv-x="566" d="M74 0 L74 512 L128 512 L131 428 Q154 473 198.5 500 Q243 527 301 527 Q361 527 404.5 499 Q448 471 472 419.5 Q496 368 496 297 L496 0 L436 0 L436 295 Q436 379 399.5 425 Q363 471 296 471 Q249 471 212.5 449.5 Q176 428 155 391 Q134 354 134 306 L134 0 L74 0 Z M258 -233 L240 -194 Q263 -182 275.5 -167 Q288 -152 288 -131 Q280 -136 270 -136 Q257 -136 247 -125.5 Q237 -115 237 -99 Q237 -82 249 -71 Q261 -60 280 -60 Q295 -60 307.5 -69 Q320 -78 327.5 -94 Q335 -110 335 -129 Q335 -163 314 -191 Q293 -219 258 -233 Z " />
<glyph glyph-name="uni0219" unicode="&#x219;" horiz-adv-x="454" d="M229 -15 Q187 -15 150 -1.5 Q113 12 84.5 36.5 Q56 61 40 94 L89 120 Q112 80 148 59 Q184 38 230 38 Q266 38 293.5 51 Q321 64 337 87 Q353 110 353 139 Q353 210 255 231 L212 240 Q131 256 93 290 Q55 324 55 380 Q55 423 77.5 456 Q100 489 139 508 Q178 527 229 527 Q290 527 337.5 498 Q385 469 407 418 L357 394 Q338 432 304 453 Q270 474 227 474 Q194 474 169 462.5 Q144 451 129.5 430.5 Q115 410 115 384 Q115 349 140.5 328 Q166 307 225 294 L268 285 Q339 270 376.5 233.5 Q414 197 414 142 Q414 96 390 61 Q366 26 324 5.5 Q282 -15 229 -15 Z M200 -233 L182 -194 Q205 -182 217.5 -167 Q230 -152 230 -131 Q222 -136 212 -136 Q199 -136 189 -125.5 Q179 -115 179 -99 Q179 -82 191 -71 Q203 -60 222 -60 Q237 -60 249.5 -69 Q262 -78 269.5 -94 Q277 -110 277 -129 Q277 -163 256 -191 Q235 -219 200 -233 Z " />
<glyph glyph-name="uni021B" unicode="&#x21b;" horiz-adv-x="398" d="M255 -15 Q187 -15 149.5 26 Q112 67 112 143 L112 462 L15 462 L15 512 L112 512 L112 683 L172 683 L172 512 L340 512 L340 462 L172 462 L172 143 Q172 94 195 67 Q218 40 258 40 Q278 40 300 47 Q322 54 339 65 L363 19 Q318 -15 255 -15 Z M208 -233 L190 -194 Q213 -182 225.5 -167 Q238 -152 238 -131 Q230 -136 220 -136 Q207 -136 197 -125.5 Q187 -115 187 -99 Q187 -82 199 -71 Q211 -60 230 -60 Q245 -60 257.5 -69 Q270 -78 277.5 -94 Q285 -110 285 -129 Q285 -163 264 -191 Q243 -219 208 -233 Z " />
<glyph glyph-name="uni0105" unicode="&#x105;" horiz-adv-x="534" d="M235 -15 Q180 -15 138.5 5 Q97 25 73.5 60.5 Q50 96 50 143 Q50 192 76 228 Q102 264 149 284 Q196 304 261 304 Q285 304 311 300 Q337 296 361.5 289 Q386 282 406 273 L406 318 Q406 364 388 399 Q370 434 338 453.5 Q306 473 264 473 Q213 473 175 448.5 Q137 424 118 380 L69 403 Q83 440 111.5 468 Q140 496 180 511 Q220 526 266 526 Q326 526 370.5 500 Q415 474 439.5 427 Q464 380 464 317 L464 0 L412 0 L407 82 Q385 38 339.5 11.5 Q294 -15 235 -15 Z M110 144 Q110 110 126.5 85.5 Q143 61 172.5 47.5 Q202 34 241 34 Q277 34 307 46.5 Q337 59 359 81 Q381 103 393.5 132.5 Q406 162 406 197 L406 225 Q370 240 333 248 Q296 256 263 256 Q191 256 150.5 226 Q110 196 110 144 Z M404 -210 Q376 -210 355 -198.5 Q334 -187 322.5 -168 Q311 -149 311 -125 Q311 -93 336 -57.5 Q361 -22 420 22 L464 0 Q426 -30 404.5 -51.5 Q383 -73 374.5 -89.5 Q366 -106 366 -121 Q366 -139 377 -150 Q388 -161 408 -161 Q423 -161 438 -157.5 Q453 -154 464 -149 L478 -194 Q462 -201 442 -205.5 Q422 -210 404 -210 Z " />
<glyph glyph-name="uni0119" unicode="&#x119;" horiz-adv-x="565" d="M303 -15 Q247 -15 200 5 Q153 25 118.5 61 Q84 97 65.5 146 Q47 195 47 254 Q47 312 65 361.5 Q83 411 115.5 448 Q148 485 192 505.5 Q236 526 288 526 Q338 526 379.5 507.5 Q421 489 452.5 455.5 Q484 422 501 376.5 Q518 331 518 278 L518 250 L107 250 Q108 187 132.5 139 Q157 91 200.5 64.5 Q244 38 301 38 Q406 38 461 126 L509 98 Q489 62 457.5 37 Q426 12 387 -1.5 Q348 -15 303 -15 Z M288 475 Q242 475 205 452.5 Q168 430 143 390 Q118 350 110 298 L458 298 Q454 349 431 389 Q408 429 371 452 Q334 475 288 475 Z M399 -210 Q354 -210 327.5 -186.5 Q301 -163 301 -123 Q301 -82 329.5 -41 Q358 0 415 47 L459 45 Q406 -6 381 -46.5 Q356 -87 356 -116 Q356 -138 369 -149.5 Q382 -161 402 -161 Q415 -161 429.5 -157.5 Q444 -154 454 -149 L468 -194 Q453 -202 435.5 -206 Q418 -210 399 -210 Z " />
<glyph glyph-name="uni012F" unicode="&#x12f;" horiz-adv-x="208" d="M151 665 Q151 646 137 632 Q123 618 104 618 Q85 618 71 632 Q57 646 57 665 Q57 684 71 698 Q85 712 104 712 Q123 712 137 698 Q151 684 151 665 Z M74 0 L74 512 L134 512 L134 0 L74 0 Z M74 -210 Q46 -210 25 -198.5 Q4 -187 -7.5 -168 Q-19 -149 -19 -125 Q-19 -93 6 -57.5 Q31 -22 90 22 L134 0 Q96 -30 74.5 -51.5 Q53 -73 44.5 -89.5 Q36 -106 36 -121 Q36 -139 47 -150 Q58 -161 78 -161 Q93 -161 108 -157.5 Q123 -154 134 -149 L148 -194 Q132 -201 112 -205.5 Q92 -210 74 -210 Z " />
<glyph glyph-name="uni0173" unicode="&#x173;" horiz-adv-x="558" d="M276 -15 Q212 -15 166 13.5 Q120 42 95 94.5 Q70 147 70 220 L70 512 L130 512 L130 221 Q130 164 148 124 Q166 84 199 62.5 Q232 41 279 41 Q326 41 359 62.5 Q392 84 410 124.5 Q428 165 428 221 L428 512 L488 512 L488 220 Q488 148 462 95.5 Q436 43 388 14 Q340 -15 276 -15 Z M366 -210 Q321 -210 294.5 -186.5 Q268 -163 268 -123 Q268 -82 296.5 -41 Q325 0 382 47 L426 45 Q373 -6 348 -46.5 Q323 -87 323 -116 Q323 -138 336 -149.5 Q349 -161 369 -161 Q382 -161 396.5 -157.5 Q411 -154 421 -149 L435 -194 Q420 -202 402.5 -206 Q385 -210 366 -210 Z " />
<glyph glyph-name="uni0301" unicode="&#x301;" d="M-67 597 L54 740 L128 740 L-4 597 L-67 597 Z " />
<glyph glyph-name="uni00B4" unicode="&#xb4;" horiz-adv-x="566" d="M185 597 L306 740 L380 740 L248 597 L185 597 Z " />
<glyph glyph-name="uni030B" unicode="&#x30b;" d="M-115 597 L-14 740 L55 740 L-57 597 L-115 597 Z M25 597 L126 740 L195 740 L83 597 L25 597 Z " />
<glyph glyph-name="uni02DD" unicode="&#x2dd;" horiz-adv-x="566" d="M128 597 L229 740 L298 740 L186 597 L128 597 Z M268 597 L369 740 L438 740 L326 597 L268 597 Z " />
<glyph glyph-name="uni00C1" unicode="&#xc1;" horiz-adv-x="690" d="M25 0 L312 710 L378 710 L665 0 L599 0 L512 219 L176 219 L89 0 L25 0 Z M199 276 L489 276 L344 643 L199 276 Z M268 790 L403 908 L488 908 L340 790 L268 790 Z " />
<glyph glyph-name="uni0106" unicode="&#x106;" horiz-adv-x="716" d="M387 -20 Q315 -20 254.5 7.5 Q194 35 149 84.5 Q104 134 79.5 201.5 Q55 269 55 349 Q55 414 71 471.5 Q87 529 117 576.5 Q147 624 188 658.5 Q229 693 279 711.5 Q329 730 385 730 Q446 730 499.5 709.5 Q553 689 594.5 651 Q636 613 660 561 L605 534 Q572 601 515 637 Q458 673 387 673 Q330 673 281 648.5 Q232 624 195.5 580 Q159 536 139 477 Q119 418 119 349 Q119 281 139 224 Q159 167 195 125 Q231 83 280.5 60 Q330 37 389 37 Q462 37 519 72.5 Q576 108 612 176 L667 149 Q642 96 599.5 58 Q557 20 503 0 Q449 -20 387 -20 Z M309 790 L444 908 L529 908 L381 790 L309 790 Z " />
<glyph glyph-name="uni00C9" unicode="&#xc9;" horiz-adv-x="556" d="M82 0 L82 710 L479 710 L479 653 L143 653 L143 398 L452 398 L452 341 L143 341 L143 57 L489 57 L489 0 L82 0 Z M203 790 L338 908 L423 908 L275 790 L203 790 Z " />
<glyph glyph-name="uni00CD" unicode="&#xcd;" horiz-adv-x="227" d="M82 0 L82 710 L145 710 L145 0 L82 0 Z M35 790 L170 908 L255 908 L107 790 L35 790 Z " />
<glyph glyph-name="uni0139" unicode="&#x139;" horiz-adv-x="519" d="M82 0 L82 710 L145 710 L145 57 L469 57 L469 0 L82 0 Z M36 790 L171 908 L256 908 L108 790 L36 790 Z " />
<glyph glyph-name="uni0143" unicode="&#x143;" horiz-adv-x="699" d="M82 0 L82 710 L138 710 L556 104 L556 710 L617 710 L617 0 L561 0 L143 605 L143 0 L82 0 Z M272 790 L407 908 L492 908 L344 790 L272 790 Z " />
<glyph glyph-name="uni00D3" unicode="&#xd3;" horiz-adv-x="791" d="M396 -20 Q322 -20 259.5 8 Q197 36 151 86.5 Q105 137 80 205.5 Q55 274 55 355 Q55 436 80 504.5 Q105 573 151 623.5 Q197 674 259.5 702 Q322 730 396 730 Q470 730 532 702.5 Q594 675 640 624.5 Q686 574 711 505.5 Q736 437 736 355 Q736 273 711 204.5 Q686 136 640 85.5 Q594 35 532 7.5 Q470 -20 396 -20 Z M395 37 Q455 37 506 60.5 Q557 84 594 126.5 Q631 169 651.5 227.5 Q672 286 672 355 Q672 424 651.5 482.5 Q631 541 594 583.5 Q557 626 506 649.5 Q455 673 395 673 Q335 673 284.5 649.5 Q234 626 197 583.5 Q160 541 139.5 482.5 Q119 424 119 355 Q119 286 139.5 227.5 Q160 169 197 126.5 Q234 84 284.5 60.5 Q335 37 395 37 Z M318 790 L453 908 L538 908 L390 790 L318 790 Z " />
<glyph glyph-name="uni0154" unicode="&#x154;" horiz-adv-x="589" d="M82 0 L82 710 L264 710 Q343 710 400.5 684.5 Q458 659 489.5 612.5 Q521 566 521 503 Q521 435 483 384.5 Q445 334 375 309 L554 0 L481 0 L316 294 Q287 290 248 290 Q227 290 199 292 Q171 294 143 298 L143 0 L82 0 Z M143 654 L143 354 Q168 350 197 348 Q226 346 250 346 Q350 346 403.5 386 Q457 426 457 500 Q457 548 434 582.5 Q411 617 367.5 635.5 Q324 654 264 654 L143 654 Z M182 790 L317 908 L402 908 L254 790 L182 790 Z " />
<glyph glyph-name="uni015A" unicode="&#x15a;" horiz-adv-x="543" d="M268 -15 Q216 -15 170.5 3.5 Q125 22 91.5 56 Q58 90 40 136 L96 159 Q119 103 163.5 72.5 Q208 42 268 42 Q316 42 354 61.5 Q392 81 413.5 115.5 Q435 150 435 193 Q435 246 399.5 281.5 Q364 317 296 333 L248 344 Q58 388 58 536 Q58 577 74 611.5 Q90 646 118.5 671.5 Q147 697 185.5 711 Q224 725 270 725 Q319 725 362.5 706 Q406 687 438 653.5 Q470 620 486 574 L430 551 Q407 608 365.5 638 Q324 668 268 668 Q224 668 191 651 Q158 634 139 604 Q120 574 120 535 Q120 482 156.5 449.5 Q193 417 270 399 L318 388 Q405 368 451.5 317.5 Q498 267 498 191 Q498 146 481 108.5 Q464 71 433 43 Q402 15 360 0 Q318 -15 268 -15 Z M192 790 L327 908 L412 908 L264 790 L192 790 Z " />
<glyph glyph-name="uni00DA" unicode="&#xda;" horiz-adv-x="689" d="M342 -20 Q280 -20 230.5 0.5 Q181 21 145.5 59 Q110 97 91 150.5 Q72 204 72 271 L72 710 L135 710 L135 273 Q135 200 160.5 147.5 Q186 95 233 66 Q280 37 345 37 Q410 37 456.5 66 Q503 95 528.5 147.5 Q554 200 554 273 L554 710 L617 710 L617 271 Q617 205 597.5 151.5 Q578 98 542 59.5 Q506 21 455.5 0.5 Q405 -20 342 -20 Z M267 790 L402 908 L487 908 L339 790 L267 790 Z " />
<glyph glyph-name="uni1E82" unicode="&#x1e82;" horiz-adv-x="995" d="M960 710 L748 0 L677 0 L497 632 L318 0 L247 0 L35 710 L100 710 L282 73 L463 710 L532 710 L714 73 L897 710 L960 710 Z M420 790 L555 908 L640 908 L492 790 L420 790 Z " />
<glyph glyph-name="uni00DD" unicode="&#xdd;" horiz-adv-x="605" d="M271 0 L271 289 L20 710 L90 710 L303 342 L517 710 L585 710 L334 291 L334 0 L271 0 Z M225 790 L360 908 L445 908 L297 790 L225 790 Z " />
<glyph glyph-name="uni0179" unicode="&#x179;" horiz-adv-x="607" d="M50 0 L50 47 L459 653 L65 653 L65 710 L535 710 L535 663 L126 57 L557 57 L557 0 L50 0 Z M223 790 L358 908 L443 908 L295 790 L223 790 Z " />
<glyph glyph-name="uni0150" unicode="&#x150;" horiz-adv-x="791" d="M396 -20 Q322 -20 259.5 8 Q197 36 151 86.5 Q105 137 80 205.5 Q55 274 55 355 Q55 436 80 504.5 Q105 573 151 623.5 Q197 674 259.5 702 Q322 730 396 730 Q470 730 532 702.5 Q594 675 640 624.5 Q686 574 711 505.5 Q736 437 736 355 Q736 273 711 204.5 Q686 136 640 85.5 Q594 35 532 7.5 Q470 -20 396 -20 Z M395 37 Q455 37 506 60.5 Q557 84 594 126.5 Q631 169 651.5 227.5 Q672 286 672 355 Q672 424 651.5 482.5 Q631 541 594 583.5 Q557 626 506 649.5 Q455 673 395 673 Q335 673 284.5 649.5 Q234 626 197 583.5 Q160 541 139.5 482.5 Q119 424 119 355 Q119 286 139.5 227.5 Q160 169 197 126.5 Q234 84 284.5 60.5 Q335 37 395 37 Z M240 790 L385 908 L466 908 L308 790 L240 790 Z M410 790 L555 908 L636 908 L478 790 L410 790 Z " />
<glyph glyph-name="uni0170" unicode="&#x170;" horiz-adv-x="689" d="M342 -20 Q280 -20 230.5 0.5 Q181 21 145.5 59 Q110 97 91 150.5 Q72 204 72 271 L72 710 L135 710 L135 273 Q135 200 160.5 147.5 Q186 95 233 66 Q280 37 345 37 Q410 37 456.5 66 Q503 95 528.5 147.5 Q554 200 554 273 L554 710 L617 710 L617 271 Q617 205 597.5 151.5 Q578 98 542 59.5 Q506 21 455.5 0.5 Q405 -20 342 -20 Z M189 790 L334 908 L415 908 L257 790 L189 790 Z M359 790 L504 908 L585 908 L427 790 L359 790 Z " />
<glyph glyph-name="uni00E1" unicode="&#xe1;" horiz-adv-x="534" d="M235 -15 Q180 -15 138.5 5 Q97 25 73.5 60.5 Q50 96 50 143 Q50 192 76 228 Q102 264 149 284 Q196 304 261 304 Q285 304 311 300 Q337 296 361.5 289 Q386 282 406 273 L406 318 Q406 364 388 399 Q370 434 338 453.5 Q306 473 264 473 Q213 473 175 448.5 Q137 424 118 380 L69 403 Q83 440 111.5 468 Q140 496 180 511 Q220 526 266 526 Q326 526 370.5 500 Q415 474 439.5 427 Q464 380 464 317 L464 0 L412 0 L407 82 Q385 38 339.5 11.5 Q294 -15 235 -15 Z M110 144 Q110 110 126.5 85.5 Q143 61 172.5 47.5 Q202 34 241 34 Q277 34 307 46.5 Q337 59 359 81 Q381 103 393.5 132.5 Q406 162 406 197 L406 225 Q370 240 333 248 Q296 256 263 256 Q191 256 150.5 226 Q110 196 110 144 Z M198 597 L319 740 L393 740 L261 597 L198 597 Z " />
<glyph glyph-name="uni0107" unicode="&#x107;" horiz-adv-x="538" d="M290 -15 Q238 -15 193.5 5 Q149 25 116 61 Q83 97 65 146 Q47 195 47 253 Q47 311 65.5 360.5 Q84 410 117 447.5 Q150 485 194.5 506 Q239 527 290 527 Q334 527 373 512 Q412 497 442 468.5 Q472 440 490 402 L438 377 Q414 422 374.5 447 Q335 472 290 472 Q251 472 218 455.5 Q185 439 160 409 Q135 379 121.5 339.5 Q108 300 108 253 Q108 206 121.5 167 Q135 128 159.5 99.5 Q184 71 217 55.5 Q250 40 290 40 Q322 40 352 51.5 Q382 63 406 84 Q430 105 445 134 L496 110 Q479 72 447.5 44 Q416 16 375 0.5 Q334 -15 290 -15 Z M223 597 L344 740 L418 740 L286 597 L223 597 Z " />
<glyph glyph-name="uni00E9" unicode="&#xe9;" horiz-adv-x="565" d="M303 -15 Q247 -15 200 5 Q153 25 118.5 61 Q84 97 65.5 146 Q47 195 47 254 Q47 312 65 361.5 Q83 411 115.5 448 Q148 485 192 505.5 Q236 526 288 526 Q338 526 379.5 507.5 Q421 489 452.5 455.5 Q484 422 501 376.5 Q518 331 518 278 L518 250 L107 250 Q108 187 132.5 139 Q157 91 200.5 64.5 Q244 38 301 38 Q406 38 461 126 L509 98 Q489 62 457.5 37 Q426 12 387 -1.5 Q348 -15 303 -15 Z M288 475 Q242 475 205 452.5 Q168 430 143 390 Q118 350 110 298 L458 298 Q454 349 431 389 Q408 429 371 452 Q334 475 288 475 Z M221 597 L342 740 L416 740 L284 597 L221 597 Z " />
<glyph glyph-name="uni00ED" unicode="&#xed;" horiz-adv-x="208" d="M74 0 L74 512 L134 512 L134 0 L74 0 Z M37 597 L158 740 L232 740 L100 597 L37 597 Z " />
<glyph glyph-name="uni013A" unicode="&#x13a;" horiz-adv-x="208" d="M74 0 L74 740 L134 740 L134 0 L74 0 Z M37 795 L158 938 L232 938 L100 795 L37 795 Z " />
<glyph glyph-name="uni0144" unicode="&#x144;" horiz-adv-x="566" d="M74 0 L74 512 L128 512 L131 428 Q154 473 198.5 500 Q243 527 301 527 Q361 527 404.5 499 Q448 471 472 419.5 Q496 368 496 297 L496 0 L436 0 L436 295 Q436 379 399.5 425 Q363 471 296 471 Q249 471 212.5 449.5 Q176 428 155 391 Q134 354 134 306 L134 0 L74 0 Z M218 597 L339 740 L413 740 L281 597 L218 597 Z " />
<glyph glyph-name="uni00F3" unicode="&#xf3;" horiz-adv-x="592" d="M295 -15 Q241 -15 196 5 Q151 25 117.5 61.5 Q84 98 65.5 147.5 Q47 197 47 256 Q47 314 65.5 363.5 Q84 413 118 450 Q152 487 197.5 507 Q243 527 297 527 Q351 527 396 507 Q441 487 474.5 450.5 Q508 414 526.5 364.5 Q545 315 545 256 Q545 198 526.5 148.5 Q508 99 474 62 Q440 25 394.5 5 Q349 -15 295 -15 Z M296 40 Q337 40 371.5 56 Q406 72 431 101 Q456 130 470 169.5 Q484 209 484 256 Q484 303 470 342.5 Q456 382 431 411 Q406 440 371.5 456 Q337 472 296 472 Q255 472 220.5 456 Q186 440 161 411 Q136 382 122 342.5 Q108 303 108 256 Q108 209 122 169.5 Q136 130 161 101 Q186 72 220.5 56 Q255 40 296 40 Z M229 597 L350 740 L424 740 L292 597 L229 597 Z " />
<glyph glyph-name="uni0155" unicode="&#x155;" horiz-adv-x="367" d="M74 0 L74 512 L128 512 L132 415 Q151 463 190.5 491 Q230 519 282 519 Q298 519 312.5 516.5 Q327 514 337 510 L329 454 Q318 458 305.5 459.5 Q293 461 281 461 Q237 461 204 438.5 Q171 416 152.5 375 Q134 334 134 279 L134 0 L74 0 Z M138 597 L259 740 L333 740 L201 597 L138 597 Z " />
<glyph glyph-name="uni015B" unicode="&#x15b;" horiz-adv-x="454" d="M229 -15 Q187 -15 150 -1.5 Q113 12 84.5 36.5 Q56 61 40 94 L89 120 Q112 80 148 59 Q184 38 230 38 Q266 38 293.5 51 Q321 64 337 87 Q353 110 353 139 Q353 210 255 231 L212 240 Q131 256 93 290 Q55 324 55 380 Q55 423 77.5 456 Q100 489 139 508 Q178 527 229 527 Q290 527 337.5 498 Q385 469 407 418 L357 394 Q338 432 304 453 Q270 474 227 474 Q194 474 169 462.5 Q144 451 129.5 430.5 Q115 410 115 384 Q115 349 140.5 328 Q166 307 225 294 L268 285 Q339 270 376.5 233.5 Q414 197 414 142 Q414 96 390 61 Q366 26 324 5.5 Q282 -15 229 -15 Z M160 597 L281 740 L355 740 L223 597 L160 597 Z " />
<glyph glyph-name="uni00FA" unicode="&#xfa;" horiz-adv-x="558" d="M276 -15 Q212 -15 166 13.5 Q120 42 95 94.5 Q70 147 70 220 L70 512 L130 512 L130 221 Q130 164 148 124 Q166 84 199 62.5 Q232 41 279 41 Q326 41 359 62.5 Q392 84 410 124.5 Q428 165 428 221 L428 512 L488 512 L488 220 Q488 148 462 95.5 Q436 43 388 14 Q340 -15 276 -15 Z M212 597 L333 740 L407 740 L275 597 L212 597 Z " />
<glyph glyph-name="uni1E83" unicode="&#x1e83;" horiz-adv-x="782" d="M194 0 L20 512 L82 512 L222 72 L365 512 L421 512 L562 72 L702 512 L762 512 L588 0 L531 0 L392 438 L251 0 L194 0 Z M324 597 L445 740 L519 740 L387 597 L324 597 Z " />
<glyph glyph-name="uni00FD" unicode="&#xfd;" horiz-adv-x="510" d="M104 -217 Q85 -217 68.5 -213 Q52 -209 35 -199 L56 -150 Q76 -162 103 -162 Q134 -162 159 -141 Q184 -120 202 -76 L234 4 L20 512 L86 512 L265 71 L426 512 L490 512 L255 -91 Q230 -156 192.5 -186.5 Q155 -217 104 -217 Z M188 597 L309 740 L383 740 L251 597 L188 597 Z " />
<glyph glyph-name="uni017A" unicode="&#x17a;" horiz-adv-x="485" d="M45 0 L45 40 L351 462 L52 462 L52 512 L423 512 L423 472 L117 50 L440 50 L440 0 L45 0 Z M170 597 L291 740 L365 740 L233 597 L170 597 Z " />
<glyph glyph-name="uni0151" unicode="&#x151;" horiz-adv-x="592" d="M295 -15 Q241 -15 196 5 Q151 25 117.5 61.5 Q84 98 65.5 147.5 Q47 197 47 256 Q47 314 65.5 363.5 Q84 413 118 450 Q152 487 197.5 507 Q243 527 297 527 Q351 527 396 507 Q441 487 474.5 450.5 Q508 414 526.5 364.5 Q545 315 545 256 Q545 198 526.5 148.5 Q508 99 474 62 Q440 25 394.5 5 Q349 -15 295 -15 Z M296 40 Q337 40 371.5 56 Q406 72 431 101 Q456 130 470 169.5 Q484 209 484 256 Q484 303 470 342.5 Q456 382 431 411 Q406 440 371.5 456 Q337 472 296 472 Q255 472 220.5 456 Q186 440 161 411 Q136 382 122 342.5 Q108 303 108 256 Q108 209 122 169.5 Q136 130 161 101 Q186 72 220.5 56 Q255 40 296 40 Z M181 597 L282 740 L351 740 L239 597 L181 597 Z M321 597 L422 740 L491 740 L379 597 L321 597 Z " />
<glyph glyph-name="uni0171" unicode="&#x171;" horiz-adv-x="558" d="M276 -15 Q212 -15 166 13.5 Q120 42 95 94.5 Q70 147 70 220 L70 512 L130 512 L130 221 Q130 164 148 124 Q166 84 199 62.5 Q232 41 279 41 Q326 41 359 62.5 Q392 84 410 124.5 Q428 165 428 221 L428 512 L488 512 L488 220 Q488 148 462 95.5 Q436 43 388 14 Q340 -15 276 -15 Z M164 597 L265 740 L334 740 L222 597 L164 597 Z M304 597 L405 740 L474 740 L362 597 L304 597 Z " />
<glyph glyph-name="uni0300" unicode="&#x300;" d="M4 597 L-128 740 L-54 740 L67 597 L4 597 Z " />
<glyph glyph-name="uni0060" unicode="&#x60;" horiz-adv-x="566" d="M317 597 L185 740 L259 740 L380 597 L317 597 Z " />
<glyph glyph-name="uni02CB" unicode="&#x2cb;" horiz-adv-x="566" d="M317 597 L185 740 L259 740 L380 597 L317 597 Z " />
<glyph glyph-name="uni00C0" unicode="&#xc0;" horiz-adv-x="690" d="M25 0 L312 710 L378 710 L665 0 L599 0 L512 219 L176 219 L89 0 L25 0 Z M199 276 L489 276 L344 643 L199 276 Z M350 790 L202 908 L287 908 L422 790 L350 790 Z " />
<glyph glyph-name="uni00C8" unicode="&#xc8;" horiz-adv-x="556" d="M82 0 L82 710 L479 710 L479 653 L143 653 L143 398 L452 398 L452 341 L143 341 L143 57 L489 57 L489 0 L82 0 Z M285 790 L137 908 L222 908 L357 790 L285 790 Z " />
<glyph glyph-name="uni00CC" unicode="&#xcc;" horiz-adv-x="227" d="M82 0 L82 710 L145 710 L145 0 L82 0 Z M117 790 L-31 908 L54 908 L189 790 L117 790 Z " />
<glyph glyph-name="uni00D2" unicode="&#xd2;" horiz-adv-x="791" d="M396 -20 Q322 -20 259.5 8 Q197 36 151 86.5 Q105 137 80 205.5 Q55 274 55 355 Q55 436 80 504.5 Q105 573 151 623.5 Q197 674 259.5 702 Q322 730 396 730 Q470 730 532 702.5 Q594 675 640 624.5 Q686 574 711 505.5 Q736 437 736 355 Q736 273 711 204.5 Q686 136 640 85.5 Q594 35 532 7.5 Q470 -20 396 -20 Z M395 37 Q455 37 506 60.5 Q557 84 594 126.5 Q631 169 651.5 227.5 Q672 286 672 355 Q672 424 651.5 482.5 Q631 541 594 583.5 Q557 626 506 649.5 Q455 673 395 673 Q335 673 284.5 649.5 Q234 626 197 583.5 Q160 541 139.5 482.5 Q119 424 119 355 Q119 286 139.5 227.5 Q160 169 197 126.5 Q234 84 284.5 60.5 Q335 37 395 37 Z M400 790 L252 908 L337 908 L472 790 L400 790 Z " />
<glyph glyph-name="uni00D9" unicode="&#xd9;" horiz-adv-x="689" d="M342 -20 Q280 -20 230.5 0.5 Q181 21 145.5 59 Q110 97 91 150.5 Q72 204 72 271 L72 710 L135 710 L135 273 Q135 200 160.5 147.5 Q186 95 233 66 Q280 37 345 37 Q410 37 456.5 66 Q503 95 528.5 147.5 Q554 200 554 273 L554 710 L617 710 L617 271 Q617 205 597.5 151.5 Q578 98 542 59.5 Q506 21 455.5 0.5 Q405 -20 342 -20 Z M349 790 L201 908 L286 908 L421 790 L349 790 Z " />
<glyph glyph-name="uni1E80" unicode="&#x1e80;" horiz-adv-x="995" d="M960 710 L748 0 L677 0 L497 632 L318 0 L247 0 L35 710 L100 710 L282 73 L463 710 L532 710 L714 73 L897 710 L960 710 Z M502 790 L354 908 L439 908 L574 790 L502 790 Z " />
<glyph glyph-name="uni1EF2" unicode="&#x1ef2;" horiz-adv-x="605" d="M271 0 L271 289 L20 710 L90 710 L303 342 L517 710 L585 710 L334 291 L334 0 L271 0 Z M307 790 L159 908 L244 908 L379 790 L307 790 Z " />
<glyph glyph-name="uni00E0" unicode="&#xe0;" horiz-adv-x="534" d="M235 -15 Q180 -15 138.5 5 Q97 25 73.5 60.5 Q50 96 50 143 Q50 192 76 228 Q102 264 149 284 Q196 304 261 304 Q285 304 311 300 Q337 296 361.5 289 Q386 282 406 273 L406 318 Q406 364 388 399 Q370 434 338 453.5 Q306 473 264 473 Q213 473 175 448.5 Q137 424 118 380 L69 403 Q83 440 111.5 468 Q140 496 180 511 Q220 526 266 526 Q326 526 370.5 500 Q415 474 439.5 427 Q464 380 464 317 L464 0 L412 0 L407 82 Q385 38 339.5 11.5 Q294 -15 235 -15 Z M110 144 Q110 110 126.5 85.5 Q143 61 172.5 47.5 Q202 34 241 34 Q277 34 307 46.5 Q337 59 359 81 Q381 103 393.5 132.5 Q406 162 406 197 L406 225 Q370 240 333 248 Q296 256 263 256 Q191 256 150.5 226 Q110 196 110 144 Z M269 597 L137 740 L211 740 L332 597 L269 597 Z " />
<glyph glyph-name="uni00E8" unicode="&#xe8;" horiz-adv-x="565" d="M303 -15 Q247 -15 200 5 Q153 25 118.5 61 Q84 97 65.5 146 Q47 195 47 254 Q47 312 65 361.5 Q83 411 115.5 448 Q148 485 192 505.5 Q236 526 288 526 Q338 526 379.5 507.5 Q421 489 452.5 455.5 Q484 422 501 376.5 Q518 331 518 278 L518 250 L107 250 Q108 187 132.5 139 Q157 91 200.5 64.5 Q244 38 301 38 Q406 38 461 126 L509 98 Q489 62 457.5 37 Q426 12 387 -1.5 Q348 -15 303 -15 Z M288 475 Q242 475 205 452.5 Q168 430 143 390 Q118 350 110 298 L458 298 Q454 349 431 389 Q408 429 371 452 Q334 475 288 475 Z M292 597 L160 740 L234 740 L355 597 L292 597 Z " />
<glyph glyph-name="uni00EC" unicode="&#xec;" horiz-adv-x="208" d="M74 0 L74 512 L134 512 L134 0 L74 0 Z M108 597 L-24 740 L50 740 L171 597 L108 597 Z " />
<glyph glyph-name="uni00F2" unicode="&#xf2;" horiz-adv-x="592" d="M295 -15 Q241 -15 196 5 Q151 25 117.5 61.5 Q84 98 65.5 147.5 Q47 197 47 256 Q47 314 65.5 363.5 Q84 413 118 450 Q152 487 197.5 507 Q243 527 297 527 Q351 527 396 507 Q441 487 474.5 450.5 Q508 414 526.5 364.5 Q545 315 545 256 Q545 198 526.5 148.5 Q508 99 474 62 Q440 25 394.5 5 Q349 -15 295 -15 Z M296 40 Q337 40 371.5 56 Q406 72 431 101 Q456 130 470 169.5 Q484 209 484 256 Q484 303 470 342.5 Q456 382 431 411 Q406 440 371.5 456 Q337 472 296 472 Q255 472 220.5 456 Q186 440 161 411 Q136 382 122 342.5 Q108 303 108 256 Q108 209 122 169.5 Q136 130 161 101 Q186 72 220.5 56 Q255 40 296 40 Z M300 597 L168 740 L242 740 L363 597 L300 597 Z " />
<glyph glyph-name="uni00F9" unicode="&#xf9;" horiz-adv-x="558" d="M276 -15 Q212 -15 166 13.5 Q120 42 95 94.5 Q70 147 70 220 L70 512 L130 512 L130 221 Q130 164 148 124 Q166 84 199 62.5 Q232 41 279 41 Q326 41 359 62.5 Q392 84 410 124.5 Q428 165 428 221 L428 512 L488 512 L488 220 Q488 148 462 95.5 Q436 43 388 14 Q340 -15 276 -15 Z M283 597 L151 740 L225 740 L346 597 L283 597 Z " />
<glyph glyph-name="uni1E81" unicode="&#x1e81;" horiz-adv-x="782" d="M194 0 L20 512 L82 512 L222 72 L365 512 L421 512 L562 72 L702 512 L762 512 L588 0 L531 0 L392 438 L251 0 L194 0 Z M395 597 L263 740 L337 740 L458 597 L395 597 Z " />
<glyph glyph-name="uni1EF3" unicode="&#x1ef3;" horiz-adv-x="510" d="M104 -217 Q85 -217 68.5 -213 Q52 -209 35 -199 L56 -150 Q76 -162 103 -162 Q134 -162 159 -141 Q184 -120 202 -76 L234 4 L20 512 L86 512 L265 71 L426 512 L490 512 L255 -91 Q230 -156 192.5 -186.5 Q155 -217 104 -217 Z M259 597 L127 740 L201 740 L322 597 L259 597 Z " />
<glyph glyph-name="uni0302" unicode="&#x302;" d="M-145 597 L-27 740 L28 740 L146 597 L84 597 L0 692 L-84 597 L-145 597 Z " />
<glyph glyph-name="uni02C6" unicode="&#x2c6;" horiz-adv-x="566" d="M138 597 L256 740 L311 740 L429 597 L367 597 L283 692 L199 597 L138 597 Z " />
<glyph glyph-name="uni0303" unicode="&#x303;" d="M61 593 Q38 593 21.5 601.5 Q5 610 -9 621 Q-23 632 -35.5 640.5 Q-48 649 -61 649 Q-92 649 -101 597 L-151 597 Q-144 648 -119.5 673.5 Q-95 699 -60 699 Q-38 699 -21 690.5 Q-4 682 10 671 Q24 660 36 651.5 Q48 643 62 643 Q93 643 102 695 L152 695 Q145 644 120.5 618.5 Q96 593 61 593 Z " />
<glyph glyph-name="uni02DC" unicode="&#x2dc;" horiz-adv-x="566" d="M343 593 Q320 593 303.5 601.5 Q287 610 273 621 Q259 632 246.5 640.5 Q234 649 221 649 Q190 649 181 597 L131 597 Q138 648 162.5 673.5 Q187 699 222 699 Q244 699 261 690.5 Q278 682 292 671 Q306 660 318 651.5 Q330 643 344 643 Q375 643 384 695 L434 695 Q427 644 402.5 618.5 Q378 593 343 593 Z " />
<glyph glyph-name="uni00C2" unicode="&#xc2;" horiz-adv-x="690" d="M25 0 L312 710 L378 710 L665 0 L599 0 L512 219 L176 219 L89 0 L25 0 Z M199 276 L489 276 L344 643 L199 276 Z M173 790 L313 908 L378 908 L518 790 L446 790 L345 865 L244 790 L173 790 Z " />
<glyph glyph-name="uni00CA" unicode="&#xca;" horiz-adv-x="556" d="M82 0 L82 710 L479 710 L479 653 L143 653 L143 398 L452 398 L452 341 L143 341 L143 57 L489 57 L489 0 L82 0 Z M108 790 L248 908 L313 908 L453 790 L381 790 L280 865 L179 790 L108 790 Z " />
<glyph glyph-name="uni00CE" unicode="&#xce;" horiz-adv-x="227" d="M82 0 L82 710 L145 710 L145 0 L82 0 Z M-60 790 L80 908 L145 908 L285 790 L213 790 L112 865 L11 790 L-60 790 Z " />
<glyph glyph-name="uni00D4" unicode="&#xd4;" horiz-adv-x="791" d="M396 -20 Q322 -20 259.5 8 Q197 36 151 86.5 Q105 137 80 205.5 Q55 274 55 355 Q55 436 80 504.5 Q105 573 151 623.5 Q197 674 259.5 702 Q322 730 396 730 Q470 730 532 702.5 Q594 675 640 624.5 Q686 574 711 505.5 Q736 437 736 355 Q736 273 711 204.5 Q686 136 640 85.5 Q594 35 532 7.5 Q470 -20 396 -20 Z M395 37 Q455 37 506 60.5 Q557 84 594 126.5 Q631 169 651.5 227.5 Q672 286 672 355 Q672 424 651.5 482.5 Q631 541 594 583.5 Q557 626 506 649.5 Q455 673 395 673 Q335 673 284.5 649.5 Q234 626 197 583.5 Q160 541 139.5 482.5 Q119 424 119 355 Q119 286 139.5 227.5 Q160 169 197 126.5 Q234 84 284.5 60.5 Q335 37 395 37 Z M223 790 L363 908 L428 908 L568 790 L496 790 L395 865 L294 790 L223 790 Z " />
<glyph glyph-name="uni00DB" unicode="&#xdb;" horiz-adv-x="689" d="M342 -20 Q280 -20 230.5 0.5 Q181 21 145.5 59 Q110 97 91 150.5 Q72 204 72 271 L72 710 L135 710 L135 273 Q135 200 160.5 147.5 Q186 95 233 66 Q280 37 345 37 Q410 37 456.5 66 Q503 95 528.5 147.5 Q554 200 554 273 L554 710 L617 710 L617 271 Q617 205 597.5 151.5 Q578 98 542 59.5 Q506 21 455.5 0.5 Q405 -20 342 -20 Z M172 790 L312 908 L377 908 L517 790 L445 790 L344 865 L243 790 L172 790 Z " />
<glyph glyph-name="uni0174" unicode="&#x174;" horiz-adv-x="995" d="M960 710 L748 0 L677 0 L497 632 L318 0 L247 0 L35 710 L100 710 L282 73 L463 710 L532 710 L714 73 L897 710 L960 710 Z M325 790 L465 908 L530 908 L670 790 L598 790 L497 865 L396 790 L325 790 Z " />
<glyph glyph-name="uni0176" unicode="&#x176;" horiz-adv-x="605" d="M271 0 L271 289 L20 710 L90 710 L303 342 L517 710 L585 710 L334 291 L334 0 L271 0 Z M130 790 L270 908 L335 908 L475 790 L403 790 L302 865 L201 790 L130 790 Z " />
<glyph glyph-name="uni00C3" unicode="&#xc3;" horiz-adv-x="690" d="M25 0 L312 710 L378 710 L665 0 L599 0 L512 219 L176 219 L89 0 L25 0 Z M199 276 L489 276 L344 643 L199 276 Z M416 791 Q392 791 373.5 799 Q355 807 339.5 818 Q324 829 309.5 837 Q295 845 279 845 Q260 845 246 832 Q232 819 227 795 L174 795 Q181 843 208 870 Q235 897 275 897 Q299 897 317.5 889 Q336 881 351.5 870 Q367 859 381.5 851 Q396 843 412 843 Q431 843 445 856 Q459 869 464 893 L517 893 Q509 845 482.5 818 Q456 791 416 791 Z " />
<glyph glyph-name="uni0128" unicode="&#x128;" horiz-adv-x="227" d="M82 0 L82 710 L145 710 L145 0 L82 0 Z M183 791 Q159 791 140.5 799 Q122 807 106.5 818 Q91 829 76.5 837 Q62 845 46 845 Q27 845 13 832 Q-1 819 -6 795 L-59 795 Q-52 843 -25 870 Q2 897 42 897 Q66 897 84.5 889 Q103 881 118.5 870 Q134 859 148.5 851 Q163 843 179 843 Q198 843 212 856 Q226 869 231 893 L284 893 Q276 845 249.5 818 Q223 791 183 791 Z " />
<glyph glyph-name="uni00D1" unicode="&#xd1;" horiz-adv-x="699" d="M82 0 L82 710 L138 710 L556 104 L556 710 L617 710 L617 0 L561 0 L143 605 L143 0 L82 0 Z M420 791 Q396 791 377.5 799 Q359 807 343.5 818 Q328 829 313.5 837 Q299 845 283 845 Q264 845 250 832 Q236 819 231 795 L178 795 Q185 843 212 870 Q239 897 279 897 Q303 897 321.5 889 Q340 881 355.5 870 Q371 859 385.5 851 Q400 843 416 843 Q435 843 449 856 Q463 869 468 893 L521 893 Q513 845 486.5 818 Q460 791 420 791 Z " />
<glyph glyph-name="uni00D5" unicode="&#xd5;" horiz-adv-x="791" d="M396 -20 Q322 -20 259.5 8 Q197 36 151 86.5 Q105 137 80 205.5 Q55 274 55 355 Q55 436 80 504.5 Q105 573 151 623.5 Q197 674 259.5 702 Q322 730 396 730 Q470 730 532 702.5 Q594 675 640 624.5 Q686 574 711 505.5 Q736 437 736 355 Q736 273 711 204.5 Q686 136 640 85.5 Q594 35 532 7.5 Q470 -20 396 -20 Z M395 37 Q455 37 506 60.5 Q557 84 594 126.5 Q631 169 651.5 227.5 Q672 286 672 355 Q672 424 651.5 482.5 Q631 541 594 583.5 Q557 626 506 649.5 Q455 673 395 673 Q335 673 284.5 649.5 Q234 626 197 583.5 Q160 541 139.5 482.5 Q119 424 119 355 Q119 286 139.5 227.5 Q160 169 197 126.5 Q234 84 284.5 60.5 Q335 37 395 37 Z M466 791 Q442 791 423.5 799 Q405 807 389.5 818 Q374 829 359.5 837 Q345 845 329 845 Q310 845 296 832 Q282 819 277 795 L224 795 Q231 843 258 870 Q285 897 325 897 Q349 897 367.5 889 Q386 881 401.5 870 Q417 859 431.5 851 Q446 843 462 843 Q481 843 495 856 Q509 869 514 893 L567 893 Q559 845 532.5 818 Q506 791 466 791 Z " />
<glyph glyph-name="uni0168" unicode="&#x168;" horiz-adv-x="689" d="M342 -20 Q280 -20 230.5 0.5 Q181 21 145.5 59 Q110 97 91 150.5 Q72 204 72 271 L72 710 L135 710 L135 273 Q135 200 160.5 147.5 Q186 95 233 66 Q280 37 345 37 Q410 37 456.5 66 Q503 95 528.5 147.5 Q554 200 554 273 L554 710 L617 710 L617 271 Q617 205 597.5 151.5 Q578 98 542 59.5 Q506 21 455.5 0.5 Q405 -20 342 -20 Z M415 791 Q391 791 372.5 799 Q354 807 338.5 818 Q323 829 308.5 837 Q294 845 278 845 Q259 845 245 832 Q231 819 226 795 L173 795 Q180 843 207 870 Q234 897 274 897 Q298 897 316.5 889 Q335 881 350.5 870 Q366 859 380.5 851 Q395 843 411 843 Q430 843 444 856 Q458 869 463 893 L516 893 Q508 845 481.5 818 Q455 791 415 791 Z " />
<glyph glyph-name="uni00E2" unicode="&#xe2;" horiz-adv-x="534" d="M235 -15 Q180 -15 138.5 5 Q97 25 73.5 60.5 Q50 96 50 143 Q50 192 76 228 Q102 264 149 284 Q196 304 261 304 Q285 304 311 300 Q337 296 361.5 289 Q386 282 406 273 L406 318 Q406 364 388 399 Q370 434 338 453.5 Q306 473 264 473 Q213 473 175 448.5 Q137 424 118 380 L69 403 Q83 440 111.5 468 Q140 496 180 511 Q220 526 266 526 Q326 526 370.5 500 Q415 474 439.5 427 Q464 380 464 317 L464 0 L412 0 L407 82 Q385 38 339.5 11.5 Q294 -15 235 -15 Z M110 144 Q110 110 126.5 85.5 Q143 61 172.5 47.5 Q202 34 241 34 Q277 34 307 46.5 Q337 59 359 81 Q381 103 393.5 132.5 Q406 162 406 197 L406 225 Q370 240 333 248 Q296 256 263 256 Q191 256 150.5 226 Q110 196 110 144 Z M120 597 L238 740 L293 740 L411 597 L349 597 L265 692 L181 597 L120 597 Z " />
<glyph glyph-name="uni00EA" unicode="&#xea;" horiz-adv-x="565" d="M303 -15 Q247 -15 200 5 Q153 25 118.5 61 Q84 97 65.5 146 Q47 195 47 254 Q47 312 65 361.5 Q83 411 115.5 448 Q148 485 192 505.5 Q236 526 288 526 Q338 526 379.5 507.5 Q421 489 452.5 455.5 Q484 422 501 376.5 Q518 331 518 278 L518 250 L107 250 Q108 187 132.5 139 Q157 91 200.5 64.5 Q244 38 301 38 Q406 38 461 126 L509 98 Q489 62 457.5 37 Q426 12 387 -1.5 Q348 -15 303 -15 Z M288 475 Q242 475 205 452.5 Q168 430 143 390 Q118 350 110 298 L458 298 Q454 349 431 389 Q408 429 371 452 Q334 475 288 475 Z M143 597 L261 740 L316 740 L434 597 L372 597 L288 692 L204 597 L143 597 Z " />
<glyph glyph-name="uni00EE" unicode="&#xee;" horiz-adv-x="208" d="M74 0 L74 512 L134 512 L134 0 L74 0 Z M-41 597 L77 740 L132 740 L250 597 L188 597 L104 692 L20 597 L-41 597 Z " />
<glyph glyph-name="uni00F4" unicode="&#xf4;" horiz-adv-x="592" d="M295 -15 Q241 -15 196 5 Q151 25 117.5 61.5 Q84 98 65.5 147.5 Q47 197 47 256 Q47 314 65.5 363.5 Q84 413 118 450 Q152 487 197.5 507 Q243 527 297 527 Q351 527 396 507 Q441 487 474.5 450.5 Q508 414 526.5 364.5 Q545 315 545 256 Q545 198 526.5 148.5 Q508 99 474 62 Q440 25 394.5 5 Q349 -15 295 -15 Z M296 40 Q337 40 371.5 56 Q406 72 431 101 Q456 130 470 169.5 Q484 209 484 256 Q484 303 470 342.5 Q456 382 431 411 Q406 440 371.5 456 Q337 472 296 472 Q255 472 220.5 456 Q186 440 161 411 Q136 382 122 342.5 Q108 303 108 256 Q108 209 122 169.5 Q136 130 161 101 Q186 72 220.5 56 Q255 40 296 40 Z M151 597 L269 740 L324 740 L442 597 L380 597 L296 692 L212 597 L151 597 Z " />
<glyph glyph-name="uni00FB" unicode="&#xfb;" horiz-adv-x="558" d="M276 -15 Q212 -15 166 13.5 Q120 42 95 94.5 Q70 147 70 220 L70 512 L130 512 L130 221 Q130 164 148 124 Q166 84 199 62.5 Q232 41 279 41 Q326 41 359 62.5 Q392 84 410 124.5 Q428 165 428 221 L428 512 L488 512 L488 220 Q488 148 462 95.5 Q436 43 388 14 Q340 -15 276 -15 Z M134 597 L252 740 L307 740 L425 597 L363 597 L279 692 L195 597 L134 597 Z " />
<glyph glyph-name="uni0175" unicode="&#x175;" horiz-adv-x="782" d="M194 0 L20 512 L82 512 L222 72 L365 512 L421 512 L562 72 L702 512 L762 512 L588 0 L531 0 L392 438 L251 0 L194 0 Z M246 597 L364 740 L419 740 L537 597 L475 597 L391 692 L307 597 L246 597 Z " />
<glyph glyph-name="uni0177" unicode="&#x177;" horiz-adv-x="510" d="M104 -217 Q85 -217 68.5 -213 Q52 -209 35 -199 L56 -150 Q76 -162 103 -162 Q134 -162 159 -141 Q184 -120 202 -76 L234 4 L20 512 L86 512 L265 71 L426 512 L490 512 L255 -91 Q230 -156 192.5 -186.5 Q155 -217 104 -217 Z M110 597 L228 740 L283 740 L401 597 L339 597 L255 692 L171 597 L110 597 Z " />
<glyph glyph-name="uni00E3" unicode="&#xe3;" horiz-adv-x="534" d="M235 -15 Q180 -15 138.5 5 Q97 25 73.5 60.5 Q50 96 50 143 Q50 192 76 228 Q102 264 149 284 Q196 304 261 304 Q285 304 311 300 Q337 296 361.5 289 Q386 282 406 273 L406 318 Q406 364 388 399 Q370 434 338 453.5 Q306 473 264 473 Q213 473 175 448.5 Q137 424 118 380 L69 403 Q83 440 111.5 468 Q140 496 180 511 Q220 526 266 526 Q326 526 370.5 500 Q415 474 439.5 427 Q464 380 464 317 L464 0 L412 0 L407 82 Q385 38 339.5 11.5 Q294 -15 235 -15 Z M110 144 Q110 110 126.5 85.5 Q143 61 172.5 47.5 Q202 34 241 34 Q277 34 307 46.5 Q337 59 359 81 Q381 103 393.5 132.5 Q406 162 406 197 L406 225 Q370 240 333 248 Q296 256 263 256 Q191 256 150.5 226 Q110 196 110 144 Z M326 593 Q303 593 286.5 601.5 Q270 610 256 621 Q242 632 229.5 640.5 Q217 649 204 649 Q173 649 164 597 L114 597 Q121 648 145.5 673.5 Q170 699 205 699 Q227 699 244 690.5 Q261 682 275 671 Q289 660 301 651.5 Q313 643 327 643 Q358 643 367 695 L417 695 Q410 644 385.5 618.5 Q361 593 326 593 Z " />
<glyph glyph-name="uni0129" unicode="&#x129;" horiz-adv-x="208" d="M74 0 L74 512 L134 512 L134 0 L74 0 Z M165 593 Q142 593 125.5 601.5 Q109 610 95 621 Q81 632 68.5 640.5 Q56 649 43 649 Q12 649 3 597 L-47 597 Q-40 648 -15.5 673.5 Q9 699 44 699 Q66 699 83 690.5 Q100 682 114 671 Q128 660 140 651.5 Q152 643 166 643 Q197 643 206 695 L256 695 Q249 644 224.5 618.5 Q200 593 165 593 Z " />
<glyph glyph-name="uni00F1" unicode="&#xf1;" horiz-adv-x="566" d="M74 0 L74 512 L128 512 L131 428 Q154 473 198.5 500 Q243 527 301 527 Q361 527 404.5 499 Q448 471 472 419.5 Q496 368 496 297 L496 0 L436 0 L436 295 Q436 379 399.5 425 Q363 471 296 471 Q249 471 212.5 449.5 Q176 428 155 391 Q134 354 134 306 L134 0 L74 0 Z M346 593 Q323 593 306.5 601.5 Q290 610 276 621 Q262 632 249.5 640.5 Q237 649 224 649 Q193 649 184 597 L134 597 Q141 648 165.5 673.5 Q190 699 225 699 Q247 699 264 690.5 Q281 682 295 671 Q309 660 321 651.5 Q333 643 347 643 Q378 643 387 695 L437 695 Q430 644 405.5 618.5 Q381 593 346 593 Z " />
<glyph glyph-name="uni00F5" unicode="&#xf5;" horiz-adv-x="592" d="M295 -15 Q241 -15 196 5 Q151 25 117.5 61.5 Q84 98 65.5 147.5 Q47 197 47 256 Q47 314 65.5 363.5 Q84 413 118 450 Q152 487 197.5 507 Q243 527 297 527 Q351 527 396 507 Q441 487 474.5 450.5 Q508 414 526.5 364.5 Q545 315 545 256 Q545 198 526.5 148.5 Q508 99 474 62 Q440 25 394.5 5 Q349 -15 295 -15 Z M296 40 Q337 40 371.5 56 Q406 72 431 101 Q456 130 470 169.5 Q484 209 484 256 Q484 303 470 342.5 Q456 382 431 411 Q406 440 371.5 456 Q337 472 296 472 Q255 472 220.5 456 Q186 440 161 411 Q136 382 122 342.5 Q108 303 108 256 Q108 209 122 169.5 Q136 130 161 101 Q186 72 220.5 56 Q255 40 296 40 Z M357 593 Q334 593 317.5 601.5 Q301 610 287 621 Q273 632 260.5 640.5 Q248 649 235 649 Q204 649 195 597 L145 597 Q152 648 176.5 673.5 Q201 699 236 699 Q258 699 275 690.5 Q292 682 306 671 Q320 660 332 651.5 Q344 643 358 643 Q389 643 398 695 L448 695 Q441 644 416.5 618.5 Q392 593 357 593 Z " />
<glyph glyph-name="uni0169" unicode="&#x169;" horiz-adv-x="558" d="M276 -15 Q212 -15 166 13.5 Q120 42 95 94.5 Q70 147 70 220 L70 512 L130 512 L130 221 Q130 164 148 124 Q166 84 199 62.5 Q232 41 279 41 Q326 41 359 62.5 Q392 84 410 124.5 Q428 165 428 221 L428 512 L488 512 L488 220 Q488 148 462 95.5 Q436 43 388 14 Q340 -15 276 -15 Z M340 593 Q317 593 300.5 601.5 Q284 610 270 621 Q256 632 243.5 640.5 Q231 649 218 649 Q187 649 178 597 L128 597 Q135 648 159.5 673.5 Q184 699 219 699 Q241 699 258 690.5 Q275 682 289 671 Q303 660 315 651.5 Q327 643 341 643 Q372 643 381 695 L431 695 Q424 644 399.5 618.5 Q375 593 340 593 Z " />
<glyph glyph-name="uni030C" unicode="&#x30c;" d="M-27 597 L-145 740 L-83 740 L1 645 L85 740 L146 740 L28 597 L-27 597 Z " />
<glyph glyph-name="uni02C7" unicode="&#x2c7;" horiz-adv-x="566" d="M255 597 L137 740 L199 740 L283 645 L367 740 L428 740 L310 597 L255 597 Z " />
<glyph glyph-name="uni0315" unicode="&#x315;" d="M77 567 L98 740 L156 740 L124 567 L77 567 Z " />
<glyph glyph-name="uni0304" unicode="&#x304;" d="M-141 612 L-141 665 L141 665 L141 612 L-141 612 Z " />
<glyph glyph-name="uni02C9" unicode="&#x2c9;" horiz-adv-x="566" d="M142 612 L142 665 L424 665 L424 612 L142 612 Z " />
<glyph glyph-name="uni00AF" unicode="&#xaf;" horiz-adv-x="566" d="M142 612 L142 665 L424 665 L424 612 L142 612 Z " />
<glyph glyph-name="uni010C" unicode="&#x10c;" horiz-adv-x="716" d="M387 -20 Q315 -20 254.5 7.5 Q194 35 149 84.5 Q104 134 79.5 201.5 Q55 269 55 349 Q55 414 71 471.5 Q87 529 117 576.5 Q147 624 188 658.5 Q229 693 279 711.5 Q329 730 385 730 Q446 730 499.5 709.5 Q553 689 594.5 651 Q636 613 660 561 L605 534 Q572 601 515 637 Q458 673 387 673 Q330 673 281 648.5 Q232 624 195.5 580 Q159 536 139 477 Q119 418 119 349 Q119 281 139 224 Q159 167 195 125 Q231 83 280.5 60 Q330 37 389 37 Q462 37 519 72.5 Q576 108 612 176 L667 149 Q642 96 599.5 58 Q557 20 503 0 Q449 -20 387 -20 Z M354 790 L214 908 L286 908 L387 833 L488 908 L559 908 L419 790 L354 790 Z " />
<glyph glyph-name="uni010E" unicode="&#x10e;" horiz-adv-x="735" d="M82 0 L82 710 L304 710 Q390 710 459.5 685 Q529 660 578 613.5 Q627 567 653.5 501.5 Q680 436 680 355 Q680 274 653.5 209 Q627 144 577.5 97 Q528 50 459.5 25 Q391 0 306 0 L82 0 Z M145 57 L304 57 Q376 57 433.5 78 Q491 99 531.5 138 Q572 177 594 232 Q616 287 616 355 Q616 423 594 478 Q572 533 531 572 Q490 611 432.5 632 Q375 653 304 653 L145 653 L145 57 Z M309 790 L169 908 L241 908 L342 833 L443 908 L514 908 L374 790 L309 790 Z " />
<glyph glyph-name="uni011A" unicode="&#x11a;" horiz-adv-x="556" d="M82 0 L82 710 L479 710 L479 653 L143 653 L143 398 L452 398 L452 341 L143 341 L143 57 L489 57 L489 0 L82 0 Z M248 790 L108 908 L180 908 L281 833 L382 908 L453 908 L313 790 L248 790 Z " />
<glyph glyph-name="uni013D" unicode="&#x13d;" horiz-adv-x="519" d="M82 0 L82 710 L145 710 L145 57 L469 57 L469 0 L82 0 Z M222 567 L243 740 L301 740 L269 567 L222 567 Z " />
<glyph glyph-name="uni0147" unicode="&#x147;" horiz-adv-x="699" d="M82 0 L82 710 L138 710 L556 104 L556 710 L617 710 L617 0 L561 0 L143 605 L143 0 L82 0 Z M317 790 L177 908 L249 908 L350 833 L451 908 L522 908 L382 790 L317 790 Z " />
<glyph glyph-name="uni0158" unicode="&#x158;" horiz-adv-x="589" d="M82 0 L82 710 L264 710 Q343 710 400.5 684.5 Q458 659 489.5 612.5 Q521 566 521 503 Q521 435 483 384.5 Q445 334 375 309 L554 0 L481 0 L316 294 Q287 290 248 290 Q227 290 199 292 Q171 294 143 298 L143 0 L82 0 Z M143 654 L143 354 Q168 350 197 348 Q226 346 250 346 Q350 346 403.5 386 Q457 426 457 500 Q457 548 434 582.5 Q411 617 367.5 635.5 Q324 654 264 654 L143 654 Z M227 790 L87 908 L159 908 L260 833 L361 908 L432 908 L292 790 L227 790 Z " />
<glyph glyph-name="uni0160" unicode="&#x160;" horiz-adv-x="543" d="M268 -15 Q216 -15 170.5 3.5 Q125 22 91.5 56 Q58 90 40 136 L96 159 Q119 103 163.5 72.5 Q208 42 268 42 Q316 42 354 61.5 Q392 81 413.5 115.5 Q435 150 435 193 Q435 246 399.5 281.5 Q364 317 296 333 L248 344 Q58 388 58 536 Q58 577 74 611.5 Q90 646 118.5 671.5 Q147 697 185.5 711 Q224 725 270 725 Q319 725 362.5 706 Q406 687 438 653.5 Q470 620 486 574 L430 551 Q407 608 365.5 638 Q324 668 268 668 Q224 668 191 651 Q158 634 139 604 Q120 574 120 535 Q120 482 156.5 449.5 Q193 417 270 399 L318 388 Q405 368 451.5 317.5 Q498 267 498 191 Q498 146 481 108.5 Q464 71 433 43 Q402 15 360 0 Q318 -15 268 -15 Z M237 790 L97 908 L169 908 L270 833 L371 908 L442 908 L302 790 L237 790 Z " />
<glyph glyph-name="uni0164" unicode="&#x164;" horiz-adv-x="609" d="M273 0 L273 653 L50 653 L50 710 L559 710 L559 653 L336 653 L336 0 L273 0 Z M272 790 L132 908 L204 908 L305 833 L406 908 L477 908 L337 790 L272 790 Z " />
<glyph glyph-name="uni017D" unicode="&#x17d;" horiz-adv-x="607" d="M50 0 L50 47 L459 653 L65 653 L65 710 L535 710 L535 663 L126 57 L557 57 L557 0 L50 0 Z M268 790 L128 908 L200 908 L301 833 L402 908 L473 908 L333 790 L268 790 Z " />
<glyph glyph-name="uni0100" unicode="&#x100;" horiz-adv-x="690" d="M25 0 L312 710 L378 710 L665 0 L599 0 L512 219 L176 219 L89 0 L25 0 Z M199 276 L489 276 L344 643 L199 276 Z M184 795 L184 849 L506 849 L506 795 L184 795 Z " />
<glyph glyph-name="uni0112" unicode="&#x112;" horiz-adv-x="556" d="M82 0 L82 710 L479 710 L479 653 L143 653 L143 398 L452 398 L452 341 L143 341 L143 57 L489 57 L489 0 L82 0 Z M119 795 L119 849 L441 849 L441 795 L119 795 Z " />
<glyph glyph-name="uni012A" unicode="&#x12a;" horiz-adv-x="227" d="M82 0 L82 710 L145 710 L145 0 L82 0 Z M-49 795 L-49 849 L273 849 L273 795 L-49 795 Z " />
<glyph glyph-name="uni016A" unicode="&#x16a;" horiz-adv-x="689" d="M342 -20 Q280 -20 230.5 0.5 Q181 21 145.5 59 Q110 97 91 150.5 Q72 204 72 271 L72 710 L135 710 L135 273 Q135 200 160.5 147.5 Q186 95 233 66 Q280 37 345 37 Q410 37 456.5 66 Q503 95 528.5 147.5 Q554 200 554 273 L554 710 L617 710 L617 271 Q617 205 597.5 151.5 Q578 98 542 59.5 Q506 21 455.5 0.5 Q405 -20 342 -20 Z M183 795 L183 849 L505 849 L505 795 L183 795 Z " />
<glyph glyph-name="uni010D" unicode="&#x10d;" horiz-adv-x="538" d="M290 -15 Q238 -15 193.5 5 Q149 25 116 61 Q83 97 65 146 Q47 195 47 253 Q47 311 65.5 360.5 Q84 410 117 447.5 Q150 485 194.5 506 Q239 527 290 527 Q334 527 373 512 Q412 497 442 468.5 Q472 440 490 402 L438 377 Q414 422 374.5 447 Q335 472 290 472 Q251 472 218 455.5 Q185 439 160 409 Q135 379 121.5 339.5 Q108 300 108 253 Q108 206 121.5 167 Q135 128 159.5 99.5 Q184 71 217 55.5 Q250 40 290 40 Q322 40 352 51.5 Q382 63 406 84 Q430 105 445 134 L496 110 Q479 72 447.5 44 Q416 16 375 0.5 Q334 -15 290 -15 Z M263 597 L145 740 L207 740 L291 645 L375 740 L436 740 L318 597 L263 597 Z " />
<glyph glyph-name="uni010F" unicode="&#x10f;" horiz-adv-x="616" d="M291 -15 Q239 -15 194.5 5.5 Q150 26 117 63 Q84 100 65.5 149 Q47 198 47 256 Q47 314 65.5 363 Q84 412 117.5 449 Q151 486 196 506.5 Q241 527 293 527 Q354 527 404 497.5 Q454 468 482 417 L482 740 L542 740 L542 0 L488 0 L484 101 Q456 47 405.5 16 Q355 -15 291 -15 Z M296 40 Q337 40 371.5 56 Q406 72 431 101 Q456 130 470 169.5 Q484 209 484 256 Q484 303 470 342.5 Q456 382 431 411 Q406 440 371.5 456 Q337 472 296 472 Q255 472 220.5 456 Q186 440 161 411 Q136 382 122 342.5 Q108 303 108 256 Q108 209 122 169.5 Q136 130 161 101 Q186 72 220.5 56 Q255 40 296 40 Z M619 567 L640 740 L698 740 L666 567 L619 567 Z " />
<glyph glyph-name="uni011B" unicode="&#x11b;" horiz-adv-x="565" d="M303 -15 Q247 -15 200 5 Q153 25 118.5 61 Q84 97 65.5 146 Q47 195 47 254 Q47 312 65 361.5 Q83 411 115.5 448 Q148 485 192 505.5 Q236 526 288 526 Q338 526 379.5 507.5 Q421 489 452.5 455.5 Q484 422 501 376.5 Q518 331 518 278 L518 250 L107 250 Q108 187 132.5 139 Q157 91 200.5 64.5 Q244 38 301 38 Q406 38 461 126 L509 98 Q489 62 457.5 37 Q426 12 387 -1.5 Q348 -15 303 -15 Z M288 475 Q242 475 205 452.5 Q168 430 143 390 Q118 350 110 298 L458 298 Q454 349 431 389 Q408 429 371 452 Q334 475 288 475 Z M261 597 L143 740 L205 740 L289 645 L373 740 L434 740 L316 597 L261 597 Z " />
<glyph glyph-name="uni013E" unicode="&#x13e;" horiz-adv-x="208" d="M74 0 L74 740 L134 740 L134 0 L74 0 Z M211 567 L232 740 L290 740 L258 567 L211 567 Z " />
<glyph glyph-name="uni0148" unicode="&#x148;" horiz-adv-x="566" d="M74 0 L74 512 L128 512 L131 428 Q154 473 198.5 500 Q243 527 301 527 Q361 527 404.5 499 Q448 471 472 419.5 Q496 368 496 297 L496 0 L436 0 L436 295 Q436 379 399.5 425 Q363 471 296 471 Q249 471 212.5 449.5 Q176 428 155 391 Q134 354 134 306 L134 0 L74 0 Z M258 597 L140 740 L202 740 L286 645 L370 740 L431 740 L313 597 L258 597 Z " />
<glyph glyph-name="uni0159" unicode="&#x159;" horiz-adv-x="367" d="M74 0 L74 512 L128 512 L132 415 Q151 463 190.5 491 Q230 519 282 519 Q298 519 312.5 516.5 Q327 514 337 510 L329 454 Q318 458 305.5 459.5 Q293 461 281 461 Q237 461 204 438.5 Q171 416 152.5 375 Q134 334 134 279 L134 0 L74 0 Z M178 597 L60 740 L122 740 L206 645 L290 740 L351 740 L233 597 L178 597 Z " />
<glyph glyph-name="uni0161" unicode="&#x161;" horiz-adv-x="454" d="M229 -15 Q187 -15 150 -1.5 Q113 12 84.5 36.5 Q56 61 40 94 L89 120 Q112 80 148 59 Q184 38 230 38 Q266 38 293.5 51 Q321 64 337 87 Q353 110 353 139 Q353 210 255 231 L212 240 Q131 256 93 290 Q55 324 55 380 Q55 423 77.5 456 Q100 489 139 508 Q178 527 229 527 Q290 527 337.5 498 Q385 469 407 418 L357 394 Q338 432 304 453 Q270 474 227 474 Q194 474 169 462.5 Q144 451 129.5 430.5 Q115 410 115 384 Q115 349 140.5 328 Q166 307 225 294 L268 285 Q339 270 376.5 233.5 Q414 197 414 142 Q414 96 390 61 Q366 26 324 5.5 Q282 -15 229 -15 Z M200 597 L82 740 L144 740 L228 645 L312 740 L373 740 L255 597 L200 597 Z " />
<glyph glyph-name="uni0165" unicode="&#x165;" horiz-adv-x="398" d="M255 -15 Q187 -15 149.5 26 Q112 67 112 143 L112 462 L15 462 L15 512 L112 512 L112 683 L172 683 L172 512 L340 512 L340 462 L172 462 L172 143 Q172 94 195 67 Q218 40 258 40 Q278 40 300 47 Q322 54 339 65 L363 19 Q318 -15 255 -15 Z M269 587 L287 740 L345 740 L316 587 L269 587 Z " />
<glyph glyph-name="uni017E" unicode="&#x17e;" horiz-adv-x="485" d="M45 0 L45 40 L351 462 L52 462 L52 512 L423 512 L423 472 L117 50 L440 50 L440 0 L45 0 Z M210 597 L92 740 L154 740 L238 645 L322 740 L383 740 L265 597 L210 597 Z " />
<glyph glyph-name="uni0101" unicode="&#x101;" horiz-adv-x="534" d="M235 -15 Q180 -15 138.5 5 Q97 25 73.5 60.5 Q50 96 50 143 Q50 192 76 228 Q102 264 149 284 Q196 304 261 304 Q285 304 311 300 Q337 296 361.5 289 Q386 282 406 273 L406 318 Q406 364 388 399 Q370 434 338 453.5 Q306 473 264 473 Q213 473 175 448.5 Q137 424 118 380 L69 403 Q83 440 111.5 468 Q140 496 180 511 Q220 526 266 526 Q326 526 370.5 500 Q415 474 439.5 427 Q464 380 464 317 L464 0 L412 0 L407 82 Q385 38 339.5 11.5 Q294 -15 235 -15 Z M110 144 Q110 110 126.5 85.5 Q143 61 172.5 47.5 Q202 34 241 34 Q277 34 307 46.5 Q337 59 359 81 Q381 103 393.5 132.5 Q406 162 406 197 L406 225 Q370 240 333 248 Q296 256 263 256 Q191 256 150.5 226 Q110 196 110 144 Z M124 612 L124 665 L406 665 L406 612 L124 612 Z " />
<glyph glyph-name="uni0113" unicode="&#x113;" horiz-adv-x="565" d="M303 -15 Q247 -15 200 5 Q153 25 118.5 61 Q84 97 65.5 146 Q47 195 47 254 Q47 312 65 361.5 Q83 411 115.5 448 Q148 485 192 505.5 Q236 526 288 526 Q338 526 379.5 507.5 Q421 489 452.5 455.5 Q484 422 501 376.5 Q518 331 518 278 L518 250 L107 250 Q108 187 132.5 139 Q157 91 200.5 64.5 Q244 38 301 38 Q406 38 461 126 L509 98 Q489 62 457.5 37 Q426 12 387 -1.5 Q348 -15 303 -15 Z M288 475 Q242 475 205 452.5 Q168 430 143 390 Q118 350 110 298 L458 298 Q454 349 431 389 Q408 429 371 452 Q334 475 288 475 Z M147 612 L147 665 L429 665 L429 612 L147 612 Z " />
<glyph glyph-name="uni012B" unicode="&#x12b;" horiz-adv-x="208" d="M74 0 L74 512 L134 512 L134 0 L74 0 Z M-37 612 L-37 665 L245 665 L245 612 L-37 612 Z " />
<glyph glyph-name="uni016B" unicode="&#x16b;" horiz-adv-x="558" d="M276 -15 Q212 -15 166 13.5 Q120 42 95 94.5 Q70 147 70 220 L70 512 L130 512 L130 221 Q130 164 148 124 Q166 84 199 62.5 Q232 41 279 41 Q326 41 359 62.5 Q392 84 410 124.5 Q428 165 428 221 L428 512 L488 512 L488 220 Q488 148 462 95.5 Q436 43 388 14 Q340 -15 276 -15 Z M138 612 L138 665 L420 665 L420 612 L138 612 Z " />
<glyph glyph-name="uni0308" unicode="&#x308;" d="M-90 620 Q-109 620 -122 633.5 Q-135 647 -135 665 Q-135 684 -122 697 Q-109 710 -90 710 Q-72 710 -58.5 697 Q-45 684 -45 665 Q-45 647 -58.5 633.5 Q-72 620 -90 620 Z M90 620 Q72 620 58.5 633.5 Q45 647 45 665 Q45 684 58.5 697 Q72 710 90 710 Q109 710 122 697 Q135 684 135 665 Q135 647 122 633.5 Q109 620 90 620 Z " />
<glyph glyph-name="uni00A8" unicode="&#xa8;" horiz-adv-x="566" d="M193 620 Q174 620 161 633.5 Q148 647 148 665 Q148 684 161 697 Q174 710 193 710 Q211 710 224.5 697 Q238 684 238 665 Q238 647 224.5 633.5 Q211 620 193 620 Z M373 620 Q355 620 341.5 633.5 Q328 647 328 665 Q328 684 341.5 697 Q355 710 373 710 Q392 710 405 697 Q418 684 418 665 Q418 647 405 633.5 Q392 620 373 620 Z " />
<glyph glyph-name="uni0306" unicode="&#x306;" d="M0 597 Q-56 597 -94 630 Q-132 663 -142 720 L-89 720 Q-80 684 -57 665 Q-34 646 0 646 Q34 646 57 665 Q80 684 89 720 L142 720 Q132 663 94 630 Q56 597 0 597 Z " />
<glyph glyph-name="uni02D8" unicode="&#x2d8;" horiz-adv-x="566" d="M283 597 Q227 597 189 630 Q151 663 141 720 L194 720 Q203 684 226 665 Q249 646 283 646 Q317 646 340 665 Q363 684 372 720 L425 720 Q415 663 377 630 Q339 597 283 597 Z " />
<glyph glyph-name="uni00C4" unicode="&#xc4;" horiz-adv-x="690" d="M25 0 L312 710 L378 710 L665 0 L599 0 L512 219 L176 219 L89 0 L25 0 Z M199 276 L489 276 L344 643 L199 276 Z M241 793 Q221 793 208 806.5 Q195 820 195 839 Q195 858 208 871.5 Q221 885 241 885 Q260 885 273.5 871.5 Q287 858 287 839 Q287 820 273.5 806.5 Q260 793 241 793 Z M450 793 Q431 793 417.5 806.5 Q404 820 404 839 Q404 858 417.5 871.5 Q431 885 450 885 Q469 885 482.5 871.5 Q496 858 496 839 Q496 820 482.5 806.5 Q469 793 450 793 Z " />
<glyph glyph-name="uni00CB" unicode="&#xcb;" horiz-adv-x="556" d="M82 0 L82 710 L479 710 L479 653 L143 653 L143 398 L452 398 L452 341 L143 341 L143 57 L489 57 L489 0 L82 0 Z M176 793 Q156 793 143 806.5 Q130 820 130 839 Q130 858 143 871.5 Q156 885 176 885 Q195 885 208.5 871.5 Q222 858 222 839 Q222 820 208.5 806.5 Q195 793 176 793 Z M385 793 Q366 793 352.5 806.5 Q339 820 339 839 Q339 858 352.5 871.5 Q366 885 385 885 Q404 885 417.5 871.5 Q431 858 431 839 Q431 820 417.5 806.5 Q404 793 385 793 Z " />
<glyph glyph-name="uni00CF" unicode="&#xcf;" horiz-adv-x="227" d="M82 0 L82 710 L145 710 L145 0 L82 0 Z M8 793 Q-12 793 -25 806.5 Q-38 820 -38 839 Q-38 858 -25 871.5 Q-12 885 8 885 Q27 885 40.5 871.5 Q54 858 54 839 Q54 820 40.5 806.5 Q27 793 8 793 Z M217 793 Q198 793 184.5 806.5 Q171 820 171 839 Q171 858 184.5 871.5 Q198 885 217 885 Q236 885 249.5 871.5 Q263 858 263 839 Q263 820 249.5 806.5 Q236 793 217 793 Z " />
<glyph glyph-name="uni00D6" unicode="&#xd6;" horiz-adv-x="791" d="M396 -20 Q322 -20 259.5 8 Q197 36 151 86.5 Q105 137 80 205.5 Q55 274 55 355 Q55 436 80 504.5 Q105 573 151 623.5 Q197 674 259.5 702 Q322 730 396 730 Q470 730 532 702.5 Q594 675 640 624.5 Q686 574 711 505.5 Q736 437 736 355 Q736 273 711 204.5 Q686 136 640 85.5 Q594 35 532 7.5 Q470 -20 396 -20 Z M395 37 Q455 37 506 60.5 Q557 84 594 126.5 Q631 169 651.5 227.5 Q672 286 672 355 Q672 424 651.5 482.5 Q631 541 594 583.5 Q557 626 506 649.5 Q455 673 395 673 Q335 673 284.5 649.5 Q234 626 197 583.5 Q160 541 139.5 482.5 Q119 424 119 355 Q119 286 139.5 227.5 Q160 169 197 126.5 Q234 84 284.5 60.5 Q335 37 395 37 Z M291 793 Q271 793 258 806.5 Q245 820 245 839 Q245 858 258 871.5 Q271 885 291 885 Q310 885 323.5 871.5 Q337 858 337 839 Q337 820 323.5 806.5 Q310 793 291 793 Z M500 793 Q481 793 467.5 806.5 Q454 820 454 839 Q454 858 467.5 871.5 Q481 885 500 885 Q519 885 532.5 871.5 Q546 858 546 839 Q546 820 532.5 806.5 Q519 793 500 793 Z " />
<glyph glyph-name="uni00DC" unicode="&#xdc;" horiz-adv-x="689" d="M342 -20 Q280 -20 230.5 0.5 Q181 21 145.5 59 Q110 97 91 150.5 Q72 204 72 271 L72 710 L135 710 L135 273 Q135 200 160.5 147.5 Q186 95 233 66 Q280 37 345 37 Q410 37 456.5 66 Q503 95 528.5 147.5 Q554 200 554 273 L554 710 L617 710 L617 271 Q617 205 597.5 151.5 Q578 98 542 59.5 Q506 21 455.5 0.5 Q405 -20 342 -20 Z M240 793 Q220 793 207 806.5 Q194 820 194 839 Q194 858 207 871.5 Q220 885 240 885 Q259 885 272.5 871.5 Q286 858 286 839 Q286 820 272.5 806.5 Q259 793 240 793 Z M449 793 Q430 793 416.5 806.5 Q403 820 403 839 Q403 858 416.5 871.5 Q430 885 449 885 Q468 885 481.5 871.5 Q495 858 495 839 Q495 820 481.5 806.5 Q468 793 449 793 Z " />
<glyph glyph-name="uni1E84" unicode="&#x1e84;" horiz-adv-x="995" d="M960 710 L748 0 L677 0 L497 632 L318 0 L247 0 L35 710 L100 710 L282 73 L463 710 L532 710 L714 73 L897 710 L960 710 Z M393 793 Q373 793 360 806.5 Q347 820 347 839 Q347 858 360 871.5 Q373 885 393 885 Q412 885 425.5 871.5 Q439 858 439 839 Q439 820 425.5 806.5 Q412 793 393 793 Z M602 793 Q583 793 569.5 806.5 Q556 820 556 839 Q556 858 569.5 871.5 Q583 885 602 885 Q621 885 634.5 871.5 Q648 858 648 839 Q648 820 634.5 806.5 Q621 793 602 793 Z " />
<glyph glyph-name="uni0178" unicode="&#x178;" horiz-adv-x="605" d="M271 0 L271 289 L20 710 L90 710 L303 342 L517 710 L585 710 L334 291 L334 0 L271 0 Z M198 793 Q178 793 165 806.5 Q152 820 152 839 Q152 858 165 871.5 Q178 885 198 885 Q217 885 230.5 871.5 Q244 858 244 839 Q244 820 230.5 806.5 Q217 793 198 793 Z M407 793 Q388 793 374.5 806.5 Q361 820 361 839 Q361 858 374.5 871.5 Q388 885 407 885 Q426 885 439.5 871.5 Q453 858 453 839 Q453 820 439.5 806.5 Q426 793 407 793 Z " />
<glyph glyph-name="uni0102" unicode="&#x102;" horiz-adv-x="690" d="M25 0 L312 710 L378 710 L665 0 L599 0 L512 219 L176 219 L89 0 L25 0 Z M199 276 L489 276 L344 643 L199 276 Z M345 785 Q305 785 273.5 800 Q242 815 221 842.5 Q200 870 193 908 L248 908 Q258 874 283 855 Q308 836 345 836 Q383 836 407.5 854.5 Q432 873 442 908 L497 908 Q490 870 469 842.5 Q448 815 416.5 800 Q385 785 345 785 Z " />
<glyph glyph-name="uni011E" unicode="&#x11e;" horiz-adv-x="773" d="M398 -20 Q324 -20 261 7.5 Q198 35 152 85 Q106 135 80.5 203 Q55 271 55 352 Q55 417 72 474 Q89 531 120 578 Q151 625 193.5 659 Q236 693 288 711.5 Q340 730 399 730 Q459 730 513 710.5 Q567 691 609.5 655.5 Q652 620 677 572 L622 544 Q600 584 565.5 613 Q531 642 488.5 657.5 Q446 673 399 673 Q339 673 288 649 Q237 625 199 581.5 Q161 538 140 479.5 Q119 421 119 353 Q119 285 140 227 Q161 169 198.5 126.5 Q236 84 287 60.5 Q338 37 398 37 Q455 37 502 56 Q549 75 583 109.5 Q617 144 635.5 192 Q654 240 654 299 L654 300 L424 300 L424 357 L718 357 L718 306 Q718 234 695 174 Q672 114 629.5 70.5 Q587 27 528 3.5 Q469 -20 398 -20 Z M402 785 Q362 785 330.5 800 Q299 815 278 842.5 Q257 870 250 908 L305 908 Q315 874 340 855 Q365 836 402 836 Q440 836 464.5 854.5 Q489 873 499 908 L554 908 Q547 870 526 842.5 Q505 815 473.5 800 Q442 785 402 785 Z " />
<glyph glyph-name="uni00E4" unicode="&#xe4;" horiz-adv-x="534" d="M235 -15 Q180 -15 138.5 5 Q97 25 73.5 60.5 Q50 96 50 143 Q50 192 76 228 Q102 264 149 284 Q196 304 261 304 Q285 304 311 300 Q337 296 361.5 289 Q386 282 406 273 L406 318 Q406 364 388 399 Q370 434 338 453.5 Q306 473 264 473 Q213 473 175 448.5 Q137 424 118 380 L69 403 Q83 440 111.5 468 Q140 496 180 511 Q220 526 266 526 Q326 526 370.5 500 Q415 474 439.5 427 Q464 380 464 317 L464 0 L412 0 L407 82 Q385 38 339.5 11.5 Q294 -15 235 -15 Z M110 144 Q110 110 126.5 85.5 Q143 61 172.5 47.5 Q202 34 241 34 Q277 34 307 46.5 Q337 59 359 81 Q381 103 393.5 132.5 Q406 162 406 197 L406 225 Q370 240 333 248 Q296 256 263 256 Q191 256 150.5 226 Q110 196 110 144 Z M175 620 Q156 620 143 633.5 Q130 647 130 665 Q130 684 143 697 Q156 710 175 710 Q193 710 206.5 697 Q220 684 220 665 Q220 647 206.5 633.5 Q193 620 175 620 Z M355 620 Q337 620 323.5 633.5 Q310 647 310 665 Q310 684 323.5 697 Q337 710 355 710 Q374 710 387 697 Q400 684 400 665 Q400 647 387 633.5 Q374 620 355 620 Z " />
<glyph glyph-name="uni00EB" unicode="&#xeb;" horiz-adv-x="565" d="M303 -15 Q247 -15 200 5 Q153 25 118.5 61 Q84 97 65.5 146 Q47 195 47 254 Q47 312 65 361.5 Q83 411 115.5 448 Q148 485 192 505.5 Q236 526 288 526 Q338 526 379.5 507.5 Q421 489 452.5 455.5 Q484 422 501 376.5 Q518 331 518 278 L518 250 L107 250 Q108 187 132.5 139 Q157 91 200.5 64.5 Q244 38 301 38 Q406 38 461 126 L509 98 Q489 62 457.5 37 Q426 12 387 -1.5 Q348 -15 303 -15 Z M288 475 Q242 475 205 452.5 Q168 430 143 390 Q118 350 110 298 L458 298 Q454 349 431 389 Q408 429 371 452 Q334 475 288 475 Z M198 620 Q179 620 166 633.5 Q153 647 153 665 Q153 684 166 697 Q179 710 198 710 Q216 710 229.5 697 Q243 684 243 665 Q243 647 229.5 633.5 Q216 620 198 620 Z M378 620 Q360 620 346.5 633.5 Q333 647 333 665 Q333 684 346.5 697 Q360 710 378 710 Q397 710 410 697 Q423 684 423 665 Q423 647 410 633.5 Q397 620 378 620 Z " />
<glyph glyph-name="uni00EF" unicode="&#xef;" horiz-adv-x="208" d="M74 0 L74 512 L134 512 L134 0 L74 0 Z M14 620 Q-5 620 -18 633.5 Q-31 647 -31 665 Q-31 684 -18 697 Q-5 710 14 710 Q32 710 45.5 697 Q59 684 59 665 Q59 647 45.5 633.5 Q32 620 14 620 Z M194 620 Q176 620 162.5 633.5 Q149 647 149 665 Q149 684 162.5 697 Q176 710 194 710 Q213 710 226 697 Q239 684 239 665 Q239 647 226 633.5 Q213 620 194 620 Z " />
<glyph glyph-name="uni00F6" unicode="&#xf6;" horiz-adv-x="592" d="M295 -15 Q241 -15 196 5 Q151 25 117.5 61.5 Q84 98 65.5 147.5 Q47 197 47 256 Q47 314 65.5 363.5 Q84 413 118 450 Q152 487 197.5 507 Q243 527 297 527 Q351 527 396 507 Q441 487 474.5 450.5 Q508 414 526.5 364.5 Q545 315 545 256 Q545 198 526.5 148.5 Q508 99 474 62 Q440 25 394.5 5 Q349 -15 295 -15 Z M296 40 Q337 40 371.5 56 Q406 72 431 101 Q456 130 470 169.5 Q484 209 484 256 Q484 303 470 342.5 Q456 382 431 411 Q406 440 371.5 456 Q337 472 296 472 Q255 472 220.5 456 Q186 440 161 411 Q136 382 122 342.5 Q108 303 108 256 Q108 209 122 169.5 Q136 130 161 101 Q186 72 220.5 56 Q255 40 296 40 Z M206 620 Q187 620 174 633.5 Q161 647 161 665 Q161 684 174 697 Q187 710 206 710 Q224 710 237.5 697 Q251 684 251 665 Q251 647 237.5 633.5 Q224 620 206 620 Z M386 620 Q368 620 354.5 633.5 Q341 647 341 665 Q341 684 354.5 697 Q368 710 386 710 Q405 710 418 697 Q431 684 431 665 Q431 647 418 633.5 Q405 620 386 620 Z " />
<glyph glyph-name="uni00FC" unicode="&#xfc;" horiz-adv-x="558" d="M276 -15 Q212 -15 166 13.5 Q120 42 95 94.5 Q70 147 70 220 L70 512 L130 512 L130 221 Q130 164 148 124 Q166 84 199 62.5 Q232 41 279 41 Q326 41 359 62.5 Q392 84 410 124.5 Q428 165 428 221 L428 512 L488 512 L488 220 Q488 148 462 95.5 Q436 43 388 14 Q340 -15 276 -15 Z M189 620 Q170 620 157 633.5 Q144 647 144 665 Q144 684 157 697 Q170 710 189 710 Q207 710 220.5 697 Q234 684 234 665 Q234 647 220.5 633.5 Q207 620 189 620 Z M369 620 Q351 620 337.5 633.5 Q324 647 324 665 Q324 684 337.5 697 Q351 710 369 710 Q388 710 401 697 Q414 684 414 665 Q414 647 401 633.5 Q388 620 369 620 Z " />
<glyph glyph-name="uni1E85" unicode="&#x1e85;" horiz-adv-x="782" d="M194 0 L20 512 L82 512 L222 72 L365 512 L421 512 L562 72 L702 512 L762 512 L588 0 L531 0 L392 438 L251 0 L194 0 Z M301 620 Q282 620 269 633.5 Q256 647 256 665 Q256 684 269 697 Q282 710 301 710 Q319 710 332.5 697 Q346 684 346 665 Q346 647 332.5 633.5 Q319 620 301 620 Z M481 620 Q463 620 449.5 633.5 Q436 647 436 665 Q436 684 449.5 697 Q463 710 481 710 Q500 710 513 697 Q526 684 526 665 Q526 647 513 633.5 Q500 620 481 620 Z " />
<glyph glyph-name="uni00FF" unicode="&#xff;" horiz-adv-x="510" d="M104 -217 Q85 -217 68.5 -213 Q52 -209 35 -199 L56 -150 Q76 -162 103 -162 Q134 -162 159 -141 Q184 -120 202 -76 L234 4 L20 512 L86 512 L265 71 L426 512 L490 512 L255 -91 Q230 -156 192.5 -186.5 Q155 -217 104 -217 Z M165 620 Q146 620 133 633.5 Q120 647 120 665 Q120 684 133 697 Q146 710 165 710 Q183 710 196.5 697 Q210 684 210 665 Q210 647 196.5 633.5 Q183 620 165 620 Z M345 620 Q327 620 313.5 633.5 Q300 647 300 665 Q300 684 313.5 697 Q327 710 345 710 Q364 710 377 697 Q390 684 390 665 Q390 647 377 633.5 Q364 620 345 620 Z " />
<glyph glyph-name="uni0103" unicode="&#x103;" horiz-adv-x="534" d="M235 -15 Q180 -15 138.5 5 Q97 25 73.5 60.5 Q50 96 50 143 Q50 192 76 228 Q102 264 149 284 Q196 304 261 304 Q285 304 311 300 Q337 296 361.5 289 Q386 282 406 273 L406 318 Q406 364 388 399 Q370 434 338 453.5 Q306 473 264 473 Q213 473 175 448.5 Q137 424 118 380 L69 403 Q83 440 111.5 468 Q140 496 180 511 Q220 526 266 526 Q326 526 370.5 500 Q415 474 439.5 427 Q464 380 464 317 L464 0 L412 0 L407 82 Q385 38 339.5 11.5 Q294 -15 235 -15 Z M110 144 Q110 110 126.5 85.5 Q143 61 172.5 47.5 Q202 34 241 34 Q277 34 307 46.5 Q337 59 359 81 Q381 103 393.5 132.5 Q406 162 406 197 L406 225 Q370 240 333 248 Q296 256 263 256 Q191 256 150.5 226 Q110 196 110 144 Z M265 597 Q209 597 171 630 Q133 663 123 720 L176 720 Q185 684 208 665 Q231 646 265 646 Q299 646 322 665 Q345 684 354 720 L407 720 Q397 663 359 630 Q321 597 265 597 Z " />
<glyph glyph-name="uni011F" unicode="&#x11f;" horiz-adv-x="616" d="M291 0 Q239 0 194.5 20 Q150 40 117 76 Q84 112 65.5 160 Q47 208 47 264 Q47 320 65.5 367.5 Q84 415 117.5 451 Q151 487 195.5 507 Q240 527 292 527 Q334 527 370.5 513 Q407 499 436.5 474 Q466 449 484 414 L489 512 L542 512 L542 38 Q542 -20 524.5 -68 Q507 -116 474.5 -150.5 Q442 -185 397 -203.5 Q352 -222 296 -222 Q250 -222 208 -208.5 Q166 -195 132 -169.5 Q98 -144 75 -109 L121 -78 Q185 -168 295 -168 Q352 -168 394 -143 Q436 -118 459 -71.5 Q482 -25 482 38 L482 113 Q454 60 404.5 30 Q355 0 291 0 Z M296 54 Q337 54 371.5 69.5 Q406 85 431 113.5 Q456 142 470 180 Q484 218 484 263 Q484 308 470 346.5 Q456 385 431 413 Q406 441 371.5 456.5 Q337 472 296 472 Q255 472 220.5 456.5 Q186 441 161 413 Q136 385 122 346.5 Q108 308 108 263 Q108 218 122 180 Q136 142 161 113.5 Q186 85 220.5 69.5 Q255 54 296 54 Z M296 597 Q240 597 202 630 Q164 663 154 720 L207 720 Q216 684 239 665 Q262 646 296 646 Q330 646 353 665 Q376 684 385 720 L438 720 Q428 663 390 630 Q352 597 296 597 Z " />
<glyph glyph-name="uni0307" unicode="&#x307;" d="M47 665 Q47 684 33 698 Q19 712 0 712 Q-19 712 -33 698 Q-47 684 -47 665 Q-47 646 -33 632 Q-19 618 0 618 Q19 618 33 632 Q47 646 47 665 Z " />
<glyph glyph-name="uni02D9" unicode="&#x2d9;" horiz-adv-x="566" d="M330 665 Q330 684 316 698 Q302 712 283 712 Q264 712 250 698 Q236 684 236 665 Q236 646 250 632 Q264 618 283 618 Q302 618 316 632 Q330 646 330 665 Z " />
<glyph glyph-name="uni0323" unicode="&#x323;" d="M47 -153 Q47 -172 33 -186 Q19 -200 0 -200 Q-19 -200 -33 -186 Q-47 -172 -47 -153 Q-47 -134 -33 -120 Q-19 -106 0 -106 Q19 -106 33 -120 Q47 -134 47 -153 Z " />
<glyph glyph-name="uni0116" unicode="&#x116;" horiz-adv-x="556" d="M82 0 L82 710 L479 710 L479 653 L143 653 L143 398 L452 398 L452 341 L143 341 L143 57 L489 57 L489 0 L82 0 Z M280 793 Q260 793 246 807 Q232 821 232 841 Q232 861 246 875 Q260 889 280 889 Q300 889 314 875 Q328 861 328 841 Q328 821 314 807 Q300 793 280 793 Z " />
<glyph glyph-name="uni0130" unicode="&#x130;" horiz-adv-x="227" d="M82 0 L82 710 L145 710 L145 0 L82 0 Z M112 793 Q92 793 78 807 Q64 821 64 841 Q64 861 78 875 Q92 889 112 889 Q132 889 146 875 Q160 861 160 841 Q160 821 146 807 Q132 793 112 793 Z " />
<glyph glyph-name="uni010A" unicode="&#x10a;" horiz-adv-x="716" d="M387 -20 Q315 -20 254.5 7.5 Q194 35 149 84.5 Q104 134 79.5 201.5 Q55 269 55 349 Q55 414 71 471.5 Q87 529 117 576.5 Q147 624 188 658.5 Q229 693 279 711.5 Q329 730 385 730 Q446 730 499.5 709.5 Q553 689 594.5 651 Q636 613 660 561 L605 534 Q572 601 515 637 Q458 673 387 673 Q330 673 281 648.5 Q232 624 195.5 580 Q159 536 139 477 Q119 418 119 349 Q119 281 139 224 Q159 167 195 125 Q231 83 280.5 60 Q330 37 389 37 Q462 37 519 72.5 Q576 108 612 176 L667 149 Q642 96 599.5 58 Q557 20 503 0 Q449 -20 387 -20 Z M386 793 Q366 793 352 807 Q338 821 338 841 Q338 861 352 875 Q366 889 386 889 Q406 889 420 875 Q434 861 434 841 Q434 821 420 807 Q406 793 386 793 Z " />
<glyph glyph-name="uni0120" unicode="&#x120;" horiz-adv-x="773" d="M398 -20 Q324 -20 261 7.5 Q198 35 152 85 Q106 135 80.5 203 Q55 271 55 352 Q55 417 72 474 Q89 531 120 578 Q151 625 193.5 659 Q236 693 288 711.5 Q340 730 399 730 Q459 730 513 710.5 Q567 691 609.5 655.5 Q652 620 677 572 L622 544 Q600 584 565.5 613 Q531 642 488.5 657.5 Q446 673 399 673 Q339 673 288 649 Q237 625 199 581.5 Q161 538 140 479.5 Q119 421 119 353 Q119 285 140 227 Q161 169 198.5 126.5 Q236 84 287 60.5 Q338 37 398 37 Q455 37 502 56 Q549 75 583 109.5 Q617 144 635.5 192 Q654 240 654 299 L654 300 L424 300 L424 357 L718 357 L718 306 Q718 234 695 174 Q672 114 629.5 70.5 Q587 27 528 3.5 Q469 -20 398 -20 Z M402 793 Q382 793 368 807 Q354 821 354 841 Q354 861 368 875 Q382 889 402 889 Q422 889 436 875 Q450 861 450 841 Q450 821 436 807 Q422 793 402 793 Z " />
<glyph glyph-name="uni017B" unicode="&#x17b;" horiz-adv-x="607" d="M50 0 L50 47 L459 653 L65 653 L65 710 L535 710 L535 663 L126 57 L557 57 L557 0 L50 0 Z M300 793 Q280 793 266 807 Q252 821 252 841 Q252 861 266 875 Q280 889 300 889 Q320 889 334 875 Q348 861 348 841 Q348 821 334 807 Q320 793 300 793 Z " />
<glyph glyph-name="uni1E24" unicode="&#x1e24;" horiz-adv-x="709" d="M82 0 L82 710 L145 710 L145 398 L564 398 L564 710 L627 710 L627 0 L564 0 L564 341 L145 341 L145 0 L82 0 Z M354 -207 Q334 -207 320 -193 Q306 -179 306 -159 Q306 -139 320 -125 Q334 -111 354 -111 Q374 -111 388 -125 Q402 -139 402 -159 Q402 -179 388 -193 Q374 -207 354 -207 Z " />
<glyph glyph-name="uni1E36" unicode="&#x1e36;" horiz-adv-x="519" d="M82 0 L82 710 L145 710 L145 57 L469 57 L469 0 L82 0 Z M275 -207 Q255 -207 241 -193 Q227 -179 227 -159 Q227 -139 241 -125 Q255 -111 275 -111 Q295 -111 309 -125 Q323 -139 323 -159 Q323 -179 309 -193 Q295 -207 275 -207 Z " />
<glyph glyph-name="uni0117" unicode="&#x117;" horiz-adv-x="565" d="M303 -15 Q247 -15 200 5 Q153 25 118.5 61 Q84 97 65.5 146 Q47 195 47 254 Q47 312 65 361.5 Q83 411 115.5 448 Q148 485 192 505.5 Q236 526 288 526 Q338 526 379.5 507.5 Q421 489 452.5 455.5 Q484 422 501 376.5 Q518 331 518 278 L518 250 L107 250 Q108 187 132.5 139 Q157 91 200.5 64.5 Q244 38 301 38 Q406 38 461 126 L509 98 Q489 62 457.5 37 Q426 12 387 -1.5 Q348 -15 303 -15 Z M288 475 Q242 475 205 452.5 Q168 430 143 390 Q118 350 110 298 L458 298 Q454 349 431 389 Q408 429 371 452 Q334 475 288 475 Z M335 665 Q335 684 321 698 Q307 712 288 712 Q269 712 255 698 Q241 684 241 665 Q241 646 255 632 Q269 618 288 618 Q307 618 321 632 Q335 646 335 665 Z " />
<glyph glyph-name="uni010B" unicode="&#x10b;" horiz-adv-x="538" d="M290 -15 Q238 -15 193.5 5 Q149 25 116 61 Q83 97 65 146 Q47 195 47 253 Q47 311 65.5 360.5 Q84 410 117 447.5 Q150 485 194.5 506 Q239 527 290 527 Q334 527 373 512 Q412 497 442 468.5 Q472 440 490 402 L438 377 Q414 422 374.5 447 Q335 472 290 472 Q251 472 218 455.5 Q185 439 160 409 Q135 379 121.5 339.5 Q108 300 108 253 Q108 206 121.5 167 Q135 128 159.5 99.5 Q184 71 217 55.5 Q250 40 290 40 Q322 40 352 51.5 Q382 63 406 84 Q430 105 445 134 L496 110 Q479 72 447.5 44 Q416 16 375 0.5 Q334 -15 290 -15 Z M337 665 Q337 684 323 698 Q309 712 290 712 Q271 712 257 698 Q243 684 243 665 Q243 646 257 632 Q271 618 290 618 Q309 618 323 632 Q337 646 337 665 Z " />
<glyph glyph-name="uni0121" unicode="&#x121;" horiz-adv-x="616" d="M291 0 Q239 0 194.5 20 Q150 40 117 76 Q84 112 65.5 160 Q47 208 47 264 Q47 320 65.5 367.5 Q84 415 117.5 451 Q151 487 195.5 507 Q240 527 292 527 Q334 527 370.5 513 Q407 499 436.5 474 Q466 449 484 414 L489 512 L542 512 L542 38 Q542 -20 524.5 -68 Q507 -116 474.5 -150.5 Q442 -185 397 -203.5 Q352 -222 296 -222 Q250 -222 208 -208.5 Q166 -195 132 -169.5 Q98 -144 75 -109 L121 -78 Q185 -168 295 -168 Q352 -168 394 -143 Q436 -118 459 -71.5 Q482 -25 482 38 L482 113 Q454 60 404.5 30 Q355 0 291 0 Z M296 54 Q337 54 371.5 69.5 Q406 85 431 113.5 Q456 142 470 180 Q484 218 484 263 Q484 308 470 346.5 Q456 385 431 413 Q406 441 371.5 456.5 Q337 472 296 472 Q255 472 220.5 456.5 Q186 441 161 413 Q136 385 122 346.5 Q108 308 108 263 Q108 218 122 180 Q136 142 161 113.5 Q186 85 220.5 69.5 Q255 54 296 54 Z M343 665 Q343 684 329 698 Q315 712 296 712 Q277 712 263 698 Q249 684 249 665 Q249 646 263 632 Q277 618 296 618 Q315 618 329 632 Q343 646 343 665 Z " />
<glyph glyph-name="uni017C" unicode="&#x17c;" horiz-adv-x="485" d="M45 0 L45 40 L351 462 L52 462 L52 512 L423 512 L423 472 L117 50 L440 50 L440 0 L45 0 Z M284 665 Q284 684 270 698 Q256 712 237 712 Q218 712 204 698 Q190 684 190 665 Q190 646 204 632 Q218 618 237 618 Q256 618 270 632 Q284 646 284 665 Z " />
<glyph glyph-name="uni1E25" unicode="&#x1e25;" horiz-adv-x="566" d="M74 0 L74 740 L134 740 L134 433 Q157 476 201 501.5 Q245 527 301 527 Q361 527 404.5 499 Q448 471 472 419.5 Q496 368 496 297 L496 0 L436 0 L436 295 Q436 379 399.5 425 Q363 471 296 471 Q249 471 212.5 449.5 Q176 428 155 391 Q134 354 134 306 L134 0 L74 0 Z M332 -153 Q332 -172 318 -186 Q304 -200 285 -200 Q266 -200 252 -186 Q238 -172 238 -153 Q238 -134 252 -120 Q266 -106 285 -106 Q304 -106 318 -120 Q332 -134 332 -153 Z " />
<glyph glyph-name="uni1E37" unicode="&#x1e37;" horiz-adv-x="208" d="M74 0 L74 740 L134 740 L134 0 L74 0 Z M151 -153 Q151 -172 137 -186 Q123 -200 104 -200 Q85 -200 71 -186 Q57 -172 57 -153 Q57 -134 71 -120 Q85 -106 104 -106 Q123 -106 137 -120 Q151 -134 151 -153 Z " />
<glyph glyph-name="uni030A" unicode="&#x30a;" d="M0 571 Q-26 571 -48 584 Q-70 597 -83 618.5 Q-96 640 -96 665 Q-96 690 -83 711.5 Q-70 733 -48 746 Q-26 759 0 759 Q26 759 48 746 Q70 733 83 711.5 Q96 690 96 665 Q96 640 83 618.5 Q70 597 48 584 Q26 571 0 571 Z M0 613 Q20 613 35 628 Q50 643 50 665 Q50 687 35 702 Q20 717 0 717 Q-20 717 -35 702 Q-50 687 -50 665 Q-50 643 -35 628 Q-20 613 0 613 Z " />
<glyph glyph-name="uni02DA" unicode="&#x2da;" horiz-adv-x="566" d="M283 571 Q257 571 235 584 Q213 597 200 618.5 Q187 640 187 665 Q187 690 200 711.5 Q213 733 235 746 Q257 759 283 759 Q309 759 331 746 Q353 733 366 711.5 Q379 690 379 665 Q379 640 366 618.5 Q353 597 331 584 Q309 571 283 571 Z M283 613 Q303 613 318 628 Q333 643 333 665 Q333 687 318 702 Q303 717 283 717 Q263 717 248 702 Q233 687 233 665 Q233 643 248 628 Q263 613 283 613 Z " />
<glyph glyph-name="uni00C5" unicode="&#xc5;" horiz-adv-x="690" d="M25 0 L312 710 L378 710 L665 0 L599 0 L512 219 L176 219 L89 0 L25 0 Z M199 276 L489 276 L344 643 L199 276 Z M345 750 Q319 750 297 763 Q275 776 262 797 Q249 818 249 844 Q249 870 262 891 Q275 912 297 925 Q319 938 345 938 Q371 938 393 925 Q415 912 428 891 Q441 870 441 844 Q441 818 428 797 Q415 776 393 763 Q371 750 345 750 Z M345 794 Q365 794 379 808.5 Q393 823 393 844 Q393 865 379 879.5 Q365 894 345 894 Q325 894 311 879.5 Q297 865 297 844 Q297 823 311 808.5 Q325 794 345 794 Z " />
<glyph glyph-name="uni016E" unicode="&#x16e;" horiz-adv-x="689" d="M342 -20 Q280 -20 230.5 0.5 Q181 21 145.5 59 Q110 97 91 150.5 Q72 204 72 271 L72 710 L135 710 L135 273 Q135 200 160.5 147.5 Q186 95 233 66 Q280 37 345 37 Q410 37 456.5 66 Q503 95 528.5 147.5 Q554 200 554 273 L554 710 L617 710 L617 271 Q617 205 597.5 151.5 Q578 98 542 59.5 Q506 21 455.5 0.5 Q405 -20 342 -20 Z M344 750 Q318 750 296 763 Q274 776 261 797 Q248 818 248 844 Q248 870 261 891 Q274 912 296 925 Q318 938 344 938 Q370 938 392 925 Q414 912 427 891 Q440 870 440 844 Q440 818 427 797 Q414 776 392 763 Q370 750 344 750 Z M344 794 Q364 794 378 808.5 Q392 823 392 844 Q392 865 378 879.5 Q364 894 344 894 Q324 894 310 879.5 Q296 865 296 844 Q296 823 310 808.5 Q324 794 344 794 Z " />
<glyph glyph-name="uni00E5" unicode="&#xe5;" horiz-adv-x="534" d="M235 -15 Q180 -15 138.5 5 Q97 25 73.5 60.5 Q50 96 50 143 Q50 192 76 228 Q102 264 149 284 Q196 304 261 304 Q285 304 311 300 Q337 296 361.5 289 Q386 282 406 273 L406 318 Q406 364 388 399 Q370 434 338 453.5 Q306 473 264 473 Q213 473 175 448.5 Q137 424 118 380 L69 403 Q83 440 111.5 468 Q140 496 180 511 Q220 526 266 526 Q326 526 370.5 500 Q415 474 439.5 427 Q464 380 464 317 L464 0 L412 0 L407 82 Q385 38 339.5 11.5 Q294 -15 235 -15 Z M110 144 Q110 110 126.5 85.5 Q143 61 172.5 47.5 Q202 34 241 34 Q277 34 307 46.5 Q337 59 359 81 Q381 103 393.5 132.5 Q406 162 406 197 L406 225 Q370 240 333 248 Q296 256 263 256 Q191 256 150.5 226 Q110 196 110 144 Z M265 571 Q239 571 217 584 Q195 597 182 618.5 Q169 640 169 665 Q169 690 182 711.5 Q195 733 217 746 Q239 759 265 759 Q291 759 313 746 Q335 733 348 711.5 Q361 690 361 665 Q361 640 348 618.5 Q335 597 313 584 Q291 571 265 571 Z M265 613 Q285 613 300 628 Q315 643 315 665 Q315 687 300 702 Q285 717 265 717 Q245 717 230 702 Q215 687 215 665 Q215 643 230 628 Q245 613 265 613 Z " />
<glyph glyph-name="uni016F" unicode="&#x16f;" horiz-adv-x="558" d="M276 -15 Q212 -15 166 13.5 Q120 42 95 94.5 Q70 147 70 220 L70 512 L130 512 L130 221 Q130 164 148 124 Q166 84 199 62.5 Q232 41 279 41 Q326 41 359 62.5 Q392 84 410 124.5 Q428 165 428 221 L428 512 L488 512 L488 220 Q488 148 462 95.5 Q436 43 388 14 Q340 -15 276 -15 Z M279 571 Q253 571 231 584 Q209 597 196 618.5 Q183 640 183 665 Q183 690 196 711.5 Q209 733 231 746 Q253 759 279 759 Q305 759 327 746 Q349 733 362 711.5 Q375 690 375 665 Q375 640 362 618.5 Q349 597 327 584 Q305 571 279 571 Z M279 613 Q299 613 314 628 Q329 643 329 665 Q329 687 314 702 Q299 717 279 717 Q259 717 244 702 Q229 687 229 665 Q229 643 244 628 Q259 613 279 613 Z " />
<glyph glyph-name="uniFEFF" unicode="&#xfeff;" d="" />
<glyph glyph-name="uniFFFD" unicode="&#xfffd;" horiz-adv-x="808" d="M404 -34 L15 355 L404 744 L793 355 L404 -34 Z M380 218 L418 218 L418 296 Q476 314 510 353.5 Q544 393 544 444 Q544 480 525.5 509.5 Q507 539 475.5 556.5 Q444 574 404 574 Q370 574 341.5 561 Q313 548 292.5 524 Q272 500 263 468 L299 455 Q310 493 338 515 Q366 537 403 537 Q432 537 454 524.5 Q476 512 489 490 Q502 468 502 440 Q502 396 470 365 Q438 334 380 320 L380 218 Z M399 100 Q411 100 420.5 109.5 Q430 119 430 132 Q430 145 421 154.5 Q412 164 399 164 Q386 164 376.5 155 Q367 146 367 132 Q367 119 376.5 109.5 Q386 100 399 100 Z " />
<glyph glyph-name="uF0001" unicode="&#xf0001;" horiz-adv-x="742" d="M711 219 Q726 178 720 138 Q716 110 702.5 85 Q689 60 667.5 41 Q646 22 620 12 Q590 0 557 0 Q552 0 546.5 0.5 Q541 1 536 1 Q499 5 459 27 Q437 39 415.5 56.5 Q394 74 371 98 Q348 74 326.5 56.5 Q305 39 283 27 Q245 5 206 1 Q201 1 196 0.5 Q191 0 186 0 Q153 0 123 12 Q82 28 55 62 Q28 96 22 138 Q16 178 31 219 Q33 226 35.5 232 Q38 238 42 246 Q46 254 49.5 262 Q53 270 59 283 Q98 366 139 447.5 Q180 529 223 611 L225 615 Q230 623 232 627.5 Q234 632 237 637 L243 649 Q251 663 257.5 672.5 Q264 682 271 690 Q311 736 371 736 Q400 736 426 724 Q452 712 471 690 Q478 682 484.5 672.5 Q491 663 499 649 Q503 642 506.5 634.5 Q510 627 517 615 L519 611 Q562 529 603 447.5 Q644 366 682 284 L700 246 Q704 238 706.5 231.5 Q709 225 711 219 Z M659 147 Q663 171 653 199 Q651 204 649 209 Q647 214 643 221 Q642 224 641 226.5 Q640 229 638 232 Q637 235 635.5 238 Q634 241 633 245 Q632 247 630.5 249.5 Q629 252 627 258 Q588 339 547.5 420.5 Q507 502 464 583 L461 588 Q457 596 455.5 598 Q454 600 453 604 Q451 608 448.5 612 Q446 616 444 620 Q438 631 433.5 638 Q429 645 424 651 Q403 675 371 675 Q339 675 318 651 Q313 645 308.5 638 Q304 631 298 620 Q296 616 293.5 612 Q291 608 289 603 Q287 600 285.5 597 Q284 594 280 587 L278 583 Q235 503 194.5 421 Q154 339 116 259 Q109 246 105.5 237 Q102 228 98 221 Q95 214 92.5 209 Q90 204 89 199 Q79 171 83 147 Q87 121 103.5 100 Q120 79 146 69 Q158 64 172 62 Q186 60 199 62 Q225 65 252 80 Q271 90 290 106 Q309 122 330 144 Q296 187 273.5 226.5 Q251 266 243 302 Q235 335 240 366 Q245 396 261 418 Q279 444 308 458.5 Q337 473 371 473 Q405 473 434 458.5 Q463 444 481 418 Q497 396 502 366 Q507 335 499 302 Q491 266 468.5 226.5 Q446 187 412 144 Q433 122 452 106 Q471 90 490 80 Q517 65 543 62 Q556 60 569.5 62 Q583 64 596 69 Q622 79 638.5 100 Q655 121 659 147 Z M371 191 Q426 261 438 315 Q444 338 441 357 Q440 364 437 371 Q434 378 430 384 Q421 397 405.5 404.5 Q390 412 371 412 Q352 412 336.5 404.5 Q321 397 312 384 Q308 378 305 371 Q302 364 301 357 Q298 338 304 315 Q316 261 371 191 Z " />
<glyph glyph-name="uF0002" unicode="&#xf0002;" horiz-adv-x="614" d="M591 460 Q598 446 590 434 L283 26 Q272 11 259.5 0.5 Q247 -10 234 -5 Q223 -1 218.5 11 Q214 23 215 41 Q216 55 218 77.5 Q220 100 222 125.5 Q224 151 226.5 175.5 Q229 200 230.5 219.5 Q232 239 233 248 Q234 261 231.5 267.5 Q229 274 217 273 L47 259 Q40 258 33.5 261.5 Q27 265 23 271 Q16 285 24 297 L331 705 Q342 720 354.5 730 Q367 740 380 736 Q391 732 395.5 720 Q400 708 399 690 Q398 676 396 653.5 Q394 631 392 605 Q390 579 387.5 554 Q385 529 383.5 510 Q382 491 381 482 Q380 469 382 463 Q384 457 396 458 L567 472 Q574 472 580.5 469 Q587 466 591 460 Z " />
<glyph glyph-name="uF0003" unicode="&#xf0003;" horiz-adv-x="482" d="M449 550 L263 393 Q253 387 241 387 Q229 387 219 393 L33 550 Q20 560 20 573 L20 726 Q20 730 24 733 Q28 736 33 736 L449 736 Q454 736 458 733 Q462 730 462 726 L462 573 Q462 560 449 550 Z M241 0 Q206 0 175.5 13 Q145 26 122 49 Q99 72 86 102.5 Q73 133 73 168 Q73 203 86 233.5 Q99 264 122 287.5 Q145 311 175.5 324 Q206 337 241 337 Q276 337 306.5 324 Q337 311 360 287.5 Q383 264 396 233.5 Q409 203 409 168 Q409 133 396 102.5 Q383 72 360 49 Q337 26 306.5 13 Q276 0 241 0 Z " />
<glyph glyph-name="uF0004" unicode="&#xf0004;" horiz-adv-x="800" d="M707 472 Q749 471 767 457.5 Q785 444 778.5 423 Q772 402 738 377 L584 261 L640 77 Q652 37 645 16 Q638 -5 616 -5 Q594 -5 559 19 L400 128 L242 19 Q207 -5 184.5 -5 Q162 -5 155 16 Q148 37 161 77 L217 261 L63 377 Q30 402 22.5 423 Q15 444 33.5 457.5 Q52 471 94 472 L287 475 L350 657 Q364 696 382 709.5 Q400 723 418 709.5 Q436 696 450 657 L514 475 L707 472 Z " />
<glyph glyph-name="uF0005" unicode="&#xf0005;" horiz-adv-x="800" d="M351 657 Q362 686 375 701 Q388 716 401 716 L401 129 L242 19 Q208 -5 185 -5 Q162 -5 155 16 Q148 37 161 77 L217 261 L63 377 Q29 402 22 423 Q15 444 33.5 457.5 Q52 471 94 472 L287 475 L351 657 Z " />
<glyph glyph-name="uF0006" unicode="&#xf0006;" horiz-adv-x="800" d="M707 472 Q749 471 767 458 Q785 445 778.5 423.5 Q772 402 738 377 L584 261 L640 77 Q652 37 645 16 Q638 -5 616 -5 Q594 -5 559 19 L400 129 L242 19 Q207 -5 184.5 -5 Q162 -5 155 16 Q148 37 161 77 L217 261 L63 377 Q29 402 22 423 Q15 444 33.5 457.5 Q52 471 94 472 L287 475 L350 657 Q364 696 382 709.5 Q400 723 418 709.5 Q436 696 450 657 L514 475 L707 472 Z M496 290 L638 397 L459 401 L400 570 L341 401 L162 397 L305 290 L253 119 L400 221 L548 119 L496 290 Z " />
<glyph glyph-name="uF0007" unicode="&#xf0007;" horiz-adv-x="704" d="M526 572 Q538 572 557.5 567 Q577 562 599 550.5 Q621 539 640.5 518 Q660 497 672 465.5 Q684 434 684 390 Q684 353 669.5 316 Q655 279 630.5 243.5 Q606 208 575.5 175 Q545 142 512.5 113.5 Q480 85 450.5 62 Q421 39 398.5 22.5 Q376 6 364 -1 Q359 -5 352 -5 Q345 -5 340 -1 Q328 7 305.5 23 Q283 39 253.5 62 Q224 85 191.5 113.5 Q159 142 128.5 175 Q98 208 73.5 243.5 Q49 279 34.5 316 Q20 353 20 390 Q20 434 32 465.5 Q44 497 63.5 518 Q83 539 105 550.5 Q127 562 146.5 567 Q166 572 178 572 Q182 572 187 572 Q192 572 197 571 Q216 569 234.5 562.5 Q253 556 272 546 Q292 535 311.5 519.5 Q331 504 352 482 Q373 504 392.5 519.5 Q412 535 432 546 Q451 556 469.5 562.5 Q488 569 506 571 Q511 572 516.5 572 Q522 572 526 572 Z " />
<glyph glyph-name="uF0008" unicode="&#xf0008;" horiz-adv-x="929" d="M761 0 L168 0 L168 556 Q192 556 210 558 Q228 560 242 574 Q242 574 246 577.5 Q250 581 258 593.5 Q266 606 279 633 Q295 667 306.5 688 Q318 709 329.5 720.5 Q341 732 355 736.5 Q369 741 390 741 L539 741 Q560 741 574 736.5 Q588 732 599.5 720.5 Q611 709 622.5 688 Q634 667 650 633 Q663 606 671 593.5 Q679 581 683 577.5 Q687 574 687 574 Q700 560 718.5 558 Q737 556 761 556 L761 0 Z M409 556 L520 556 Q530 556 543 556 Q556 556 567.5 558 Q579 560 585 566 Q591 572 587 584 L561 642 Q557 652 552.5 659.5 Q548 667 539 667 L390 667 Q381 667 376.5 659.5 Q372 652 368 642 L342 584 Q338 572 344 566 Q350 560 361.5 558 Q373 556 386 556 Q399 556 409 556 Z M131 0 L57 0 Q48 0 39.5 5.5 Q31 11 25.5 19.5 Q20 28 20 37 L20 519 Q20 534 32 545 Q44 556 57 556 L131 556 L131 0 Z M798 556 L872 556 Q886 556 897.5 545 Q909 534 909 519 L909 37 Q909 28 903.5 19.5 Q898 11 889.5 5.5 Q881 0 872 0 L798 0 L798 556 Z " />
<glyph glyph-name="uF0009" unicode="&#xf0009;" horiz-adv-x="800" d="M706 472 Q748 471 766.5 458 Q785 445 778 423.5 Q771 402 737 377 L584 261 L640 77 Q652 37 645 16 Q638 -5 615.5 -5 Q593 -5 558 19 L400 129 L242 19 Q207 -5 184.5 -5 Q162 -5 155 16 Q148 37 161 77 L216 261 L63 377 Q29 402 22 423 Q15 444 33.5 457.5 Q52 471 94 472 L287 475 L350 657 Q364 696 382 709.5 Q400 723 418 709.5 Q436 696 450 657 L513 475 L706 472 Z M638 397 L459 401 L400 570 L400 221 L547 119 L495 290 L638 397 Z " />
<glyph glyph-name="uF0010" unicode="&#xf0010;" horiz-adv-x="609" d="M589 451 Q590 410 577 365.5 Q564 321 541 277.5 Q518 234 489 193 Q460 152 430.5 116 Q401 80 375 52 Q349 24 331 6 Q320 -5 304.5 -5 Q289 -5 278 6 Q260 24 234 52 Q208 80 178.5 116 Q149 152 120 193 Q91 234 68 277.5 Q45 321 31.5 365.5 Q18 410 20 451 Q20 498 34.5 540.5 Q49 583 75 618.5 Q101 654 136.5 680 Q172 706 214.5 720.5 Q257 735 304 735 Q351 735 393.5 720.5 Q436 706 472 680 Q508 654 534 618.5 Q560 583 574.5 540.5 Q589 498 589 451 Z M304 335 Q336 335 362.5 350.5 Q389 366 404.5 392.5 Q420 419 420 451 Q420 482 404.5 508.5 Q389 535 362.5 550.5 Q336 566 304 566 Q272 566 246 550.5 Q220 535 204.5 508.5 Q189 482 189 451 Q189 419 204.5 392.5 Q220 366 246 350.5 Q272 335 304 335 Z " />
<glyph glyph-name="uF0011" unicode="&#xf0011;" horiz-adv-x="1539" d="M797 360 L650 17 Q646 10 639 5 Q632 0 624 0 L48 0 Q37 0 28.5 8.5 Q20 17 20 28 L20 707 Q20 719 28.5 727.5 Q37 736 48 736 L624 736 Q632 736 639 731 Q646 726 650 719 L797 376 Q800 368 797 360 Z M1519 712 L1519 24 Q1519 14 1512.5 7 Q1506 0 1496 0 L739 0 Q734 0 731 4.5 Q728 9 730 14 L878 360 Q881 368 878 376 L730 722 Q728 727 731 731.5 Q734 736 739 736 L1496 736 Q1506 736 1512.5 729 Q1519 722 1519 712 Z M1407 563 Q1406 576 1396 584 Q1386 592 1373 592 L1214 592 Q1209 592 1209 597 L1209 630 Q1209 643 1201 652.5 Q1193 662 1180 664 Q1166 666 1155 656 Q1144 646 1144 632 L1144 597 Q1144 592 1139 592 L980 592 Q967 592 957.5 584 Q948 576 946 563 Q944 549 954 538 Q964 527 978 527 L1025 527 Q1031 527 1031 522 Q1034 494 1044 455.5 Q1054 417 1074 372.5 Q1094 328 1130 284 Q1132 282 1132 280.5 Q1132 279 1130 278 Q1104 254 1070.5 232 Q1037 210 995 192 Q984 187 978 176 Q972 165 975 154 Q978 143 987 136 Q996 129 1007 129 Q1012 129 1020 132 Q1067 153 1105.5 178 Q1144 203 1173 231 Q1176 234 1180 231 Q1198 214 1219.5 198 Q1241 182 1266 167 L1282 158 Q1294 151 1307 144.5 Q1320 138 1334 132 Q1340 129 1346 129 Q1356 129 1365.5 136 Q1375 143 1378 154 Q1381 165 1375 176 Q1369 187 1358 192 Q1337 201 1318 211.5 Q1299 222 1282 233 Q1278 235 1274 238 Q1270 241 1266 244 Q1242 261 1223 278 Q1221 280 1223 284 Q1236 300 1246.5 316 Q1257 332 1266 348 Q1270 356 1274 364 Q1278 372 1282 380 Q1302 422 1310.5 459 Q1319 496 1322 522 Q1322 527 1328 527 L1375 527 Q1389 527 1398.5 538 Q1408 549 1407 563 Z M564 167 L454 562 Q450 576 439 584 Q428 592 414 592 L313 592 Q299 592 288 584 Q277 576 273 562 L162 168 Q159 157 163.5 145.5 Q168 134 179 129 Q186 126 193 126 Q204 126 212.5 133 Q221 140 224 150 L263 289 Q265 296 272 296 L454 296 Q461 296 463 288 L502 151 Q505 140 514.5 132.5 Q524 125 536 126 Q552 128 560 140.5 Q568 153 564 167 Z M399 520 L441 368 Q442 365 440 362.5 Q438 360 435 360 L292 360 Q288 360 286 362.5 Q284 365 285 368 L329 520 Q331 527 338 527 L389 527 Q396 527 399 520 Z M1258 521 Q1254 495 1246 464 Q1238 433 1222 399.5 Q1206 366 1181 333 Q1180 332 1177 332 Q1174 332 1173 333 Q1136 383 1119 432.5 Q1102 482 1097 521 Q1097 527 1103 527 L1251 527 Q1258 527 1258 521 Z " />
<glyph glyph-name="uF0012" unicode="&#xf0012;" horiz-adv-x="714" d="M665 656 Q677 656 685.5 648 Q694 640 694 628 L694 28 Q694 17 685.5 8.5 Q677 0 665 0 L49 0 Q37 0 28.5 8.5 Q20 17 20 28 L20 628 Q20 640 28.5 648 Q37 656 49 656 L123 656 Q129 656 133.5 660.5 Q138 665 138 671 L138 728 Q138 747 151 760 Q164 773 183 773 Q202 773 215.5 760 Q229 747 229 728 L229 671 Q229 665 233 660.5 Q237 656 243 656 L466 656 Q472 656 476 660.5 Q480 665 480 671 L480 728 Q480 747 493.5 760 Q507 773 526 773 Q545 773 558 760 Q571 747 571 728 L571 671 Q571 665 575.5 660.5 Q580 656 586 656 L665 656 Z M169 119 L545 119 Q558 119 564 120.5 Q570 122 571.5 129 Q573 136 573 153 L573 364 Q573 381 572 388 Q571 395 564.5 396.5 Q558 398 544 398 L170 398 Q156 398 149.5 396.5 Q143 395 142 388 Q141 381 141 364 L141 153 Q141 136 142 129 Q143 122 149 120.5 Q155 119 169 119 Z " />
<glyph glyph-name="uF0013" unicode="&#xf0013;" horiz-adv-x="1216" d="M387 419 L137 136 Q125 122 108 116.5 Q91 111 73.5 114.5 Q56 118 43 130 Q29 142 23.5 159 Q18 176 21 193 Q24 210 37 224 L287 508 Q308 532 336 545.5 Q364 559 394 561 Q424 563 453.5 553 Q483 543 507 522 Q513 517 518.5 511 Q524 505 529 498 L714 250 Q720 242 729 241 Q738 240 746 245 Q747 246 748 247 Q749 248 750 250 L926 485 L784 485 Q766 485 750.5 494 Q735 503 726 518.5 Q717 534 717 552 Q717 570 726 585.5 Q735 601 750.5 610 Q766 619 784 619 L1055 619 Q1078 619 1096 605.5 Q1114 592 1120 570 L1194 304 Q1198 286 1193.5 269 Q1189 252 1177 239.5 Q1165 227 1147 222 Q1129 217 1112 221.5 Q1095 226 1082 238 Q1069 250 1064 268 L1028 399 L857 170 Q850 161 842.5 153 Q835 145 826 138 Q800 118 770 111 Q740 104 710 108.5 Q680 113 653 128.5 Q626 144 607 170 L419 421 Q412 427 402.5 426.5 Q393 426 387 419 Z " />
<glyph glyph-name="uF0014" unicode="&#xf0014;" horiz-adv-x="691" d="M377 176 L377 132 Q377 124 384 124 L408 124 Q421 124 430 115 Q439 106 439 93 L439 70 Q439 67 441 64.5 Q443 62 446 62 L454 62 Q467 62 476 53 Q485 44 485 31 Q485 18 476 9 Q467 0 454 0 L237 0 Q224 0 215 9 Q206 18 206 31 Q206 44 215 53 Q224 62 237 62 L245 62 Q248 62 250.5 64.5 Q253 67 253 70 L253 93 Q253 106 261.5 115 Q270 124 284 124 L307 124 Q310 124 312.5 126 Q315 128 315 132 L315 176 Q315 181 311 185.5 Q307 190 302 191 Q249 203 212 247 Q201 261 192.5 278 Q184 295 177 313 Q175 320 169 322 Q139 336 115 360.5 Q91 385 73 416 Q55 447 43.5 481 Q32 515 26 548.5 Q20 582 20 610 Q20 646 27 670.5 Q34 695 46 709.5 Q58 724 71 731.5 Q84 739 96.5 741.5 Q109 744 118 744 Q141 744 160 735 Q179 726 193.5 713 Q208 700 218 688 Q222 682 230 682 L461 682 Q468 682 473 688 Q482 700 497 713 Q512 726 531 735 Q550 744 573 744 Q582 744 594.5 741.5 Q607 739 620 731.5 Q633 724 645 709.5 Q657 695 664 670.5 Q671 646 671 610 Q671 582 665 548.5 Q659 515 647.5 481 Q636 447 618 416 Q600 385 576 360.5 Q552 336 522 322 Q516 320 514 313 Q507 295 498.5 278 Q490 261 479 247 Q442 203 389 191 Q377 188 377 176 Z M82 610 Q82 578 89.5 544.5 Q97 511 110.5 479.5 Q124 448 143 423 Q146 420 151 421 Q158 423 156 429 Q154 472 156.5 512.5 Q159 553 163.5 585.5 Q168 618 172 637 Q172 641 171 644.5 Q170 648 168 650 Q159 661 145.5 671.5 Q132 682 118 682 Q82 682 82 610 Z M573 682 Q559 682 545.5 671 Q532 660 523 650 Q521 648 520 644.5 Q519 641 519 637 Q522 618 527 585.5 Q532 553 534.5 512.5 Q537 472 535 429 Q533 423 540 421 Q544 420 548 423 Q566 448 580 479.5 Q594 511 601.5 544.5 Q609 578 609 610 Q609 682 573 682 Z " />
<glyph glyph-name="uF0015" unicode="&#xf0015;" horiz-adv-x="800" d="M449 657 L513 475 L706 472 Q748 471 766.5 457.5 Q785 444 778 423 Q771 402 737 377 L583 261 L639 77 Q652 37 645 16 Q638 -5 615 -5 Q592 -5 558 19 L399 129 L399 716 Q412 716 425 701 Q438 686 449 657 Z " />
<glyph glyph-name="uF0016" unicode="&#xf0016;" horiz-adv-x="800" d="M94 472 L287 475 L350 657 Q364 696 382 709.5 Q400 723 418 709.5 Q436 696 450 657 L513 475 L706 472 Q748 471 766.5 457.5 Q785 444 778 423 Q771 402 737 377 L584 261 L639 77 Q652 37 645 16 Q638 -5 615.5 -5 Q593 -5 558 19 L400 129 L242 19 Q207 -5 184.5 -5 Q162 -5 155 16 Q148 37 160 77 L216 261 L63 377 Q29 402 22 423.5 Q15 445 33.5 458 Q52 471 94 472 Z M305 290 L253 119 L400 221 L400 570 L341 401 L162 397 L305 290 Z " />
<glyph glyph-name="uF0017" unicode="&#xf0017;" horiz-adv-x="1539" d="M20 712 Q20 722 26.5 729 Q33 736 43 736 L800 736 Q805 736 808 731.5 Q811 727 809 722 L661 376 Q658 368 661 360 L809 14 Q811 9 808 4.5 Q805 0 800 0 L43 0 Q33 0 26.5 7 Q20 14 20 24 L20 712 Z M742 360 Q739 368 742 376 L889 719 Q893 726 900 731 Q907 736 915 736 L1491 736 Q1502 736 1510.5 727.5 Q1519 719 1519 707 L1519 28 Q1519 17 1510.5 8.5 Q1502 0 1491 0 L915 0 Q907 0 900 5 Q893 10 889 17 L742 360 Z M132 563 Q130 549 140 538 Q150 527 164 527 L211 527 Q217 527 217 522 Q220 496 229 459 Q238 422 257 380 Q261 372 264.5 364 Q268 356 273 348 Q282 332 292.5 316 Q303 300 316 284 Q318 280 316 278 Q297 261 273 244 Q269 241 265.5 238 Q262 235 257 233 Q240 222 221 211.5 Q202 201 181 192 Q170 187 164 176 Q158 165 161 154 Q164 143 173 136 Q182 129 193 129 Q199 129 205 132 Q219 138 232 144.5 Q245 151 257 158 L273 167 Q298 182 319.5 198 Q341 214 359 231 Q362 234 366 231 Q395 203 433.5 178 Q472 153 519 132 Q526 129 532 129 Q542 129 551.5 136 Q561 143 564 154 Q567 165 560.5 176 Q554 187 544 192 Q502 210 468.5 232 Q435 254 409 278 Q408 279 408 280.5 Q408 282 409 284 Q444 328 464.5 372.5 Q485 417 494.5 455.5 Q504 494 508 522 Q508 527 514 527 L561 527 Q575 527 584.5 538 Q594 549 593 563 Q592 576 582 584 Q572 592 559 592 L400 592 Q395 592 395 597 L395 632 Q395 646 384 656 Q373 666 359 664 Q346 662 338 652.5 Q330 643 330 630 L330 597 Q330 592 325 592 L166 592 Q153 592 143.5 584 Q134 576 132 563 Z M975 167 Q970 153 978.5 140.5 Q987 128 1003 126 Q1015 125 1024.5 132.5 Q1034 140 1037 151 L1076 288 Q1078 296 1085 296 L1267 296 Q1274 296 1276 289 L1315 150 Q1318 140 1327 133 Q1336 126 1346 126 Q1352 126 1360 129 Q1370 134 1375 145.5 Q1380 157 1377 168 L1266 562 Q1262 576 1251 584 Q1240 592 1226 592 L1125 592 Q1111 592 1100 584 Q1089 576 1085 562 L975 167 Z M281 521 Q281 527 288 527 L436 527 Q442 527 442 521 Q437 482 420.5 432.5 Q404 383 366 333 Q364 332 362 332 Q360 332 358 333 Q332 366 316.5 399.5 Q301 433 292.5 464 Q284 495 281 521 Z M1140 520 Q1144 527 1150 527 L1201 527 Q1208 527 1210 520 L1254 368 Q1255 365 1253 362.5 Q1251 360 1247 360 L1104 360 Q1101 360 1099 362.5 Q1097 365 1098 368 L1140 520 Z " />
<glyph glyph-name="uF0018" unicode="&#xf0018;" horiz-adv-x="646" d="M545 462 Q568 461 586 449.5 Q604 438 615 420 Q626 402 626 380 L626 82 Q626 60 614.5 41 Q603 22 583.5 11 Q564 0 541 0 L105 0 Q82 0 62.5 11 Q43 22 31.5 41 Q20 60 20 82 L20 380 Q20 402 31 420 Q42 438 60 449.5 Q78 461 100 462 L100 541 Q100 582 116 617 Q132 652 159.5 679 Q187 706 223 721 Q259 736 301 736 L345 736 Q386 736 422.5 721 Q459 706 486.5 679 Q514 652 529.5 617 Q545 582 545 541 L545 462 Z M203 541 L203 462 L443 462 L443 541 Q443 570 436 588.5 Q429 607 417.5 617 Q406 627 393 631 Q380 635 367.5 635.5 Q355 636 345 636 L301 636 Q292 636 279.5 635 Q267 634 254 630 Q241 626 229 616 Q217 606 210 588 Q203 570 203 541 Z " />
<glyph glyph-name="uF0019" unicode="&#xf0019;" horiz-adv-x="776" d="M665 465 L751 377 Q756 371 756 363 Q756 355 750 350 L654 257 L654 123 Q654 115 648 109.5 Q642 104 635 104 L495 104 L395 7 Q390 2 382 2 Q374 2 368 8 L275 104 L141 104 Q134 104 128 109.5 Q122 115 122 123 L122 262 L25 363 Q20 368 20 376 Q20 384 26 389 L122 483 L122 617 Q122 624 128 630 Q134 636 141 636 L281 636 L381 732 Q387 738 395 737.5 Q403 737 408 732 L501 636 L635 636 Q642 636 648 630 Q654 624 654 617 L654 610 L396 370 L317 453 Q310 460 304.5 460 Q299 460 295 457.5 Q291 455 291 455 L235 402 Q235 402 232 398.5 Q229 395 228.5 388.5 Q228 382 235 375 L377 223 Q384 216 390 216.5 Q396 217 400 219.5 Q404 222 404 222 L665 465 Z " />
<glyph glyph-name="uF0020" unicode="&#xf0020;" horiz-adv-x="530" d="M510 533 L510 41 Q510 24 498 12 Q486 0 469 0 L61 0 Q44 0 32 12 Q20 24 20 41 L20 568 Q20 584 29.5 597 Q39 610 54 615 L404 732 Q424 739 442 729.5 Q460 720 467 701 L469 695 L469 574 Q486 574 498 562 Q510 550 510 533 Z M190 574 L388 574 L388 640 L190 574 Z M408 350 Q408 380 397 405.5 Q386 431 366 450.5 Q346 470 320.5 481 Q295 492 265 492 Q235 492 209.5 481 Q184 470 164 450.5 Q144 431 133 405.5 Q122 380 122 350 Q121 325 130.5 299 Q140 273 156 247 Q172 221 190 198 Q208 175 224.5 157 Q241 139 252 128 Q257 123 265 123 Q273 123 278 128 Q289 139 305.5 157 Q322 175 340 198 Q358 221 374 247 Q390 273 399.5 299 Q409 325 408 350 Z M323 350 Q323 334 315 321.5 Q307 309 294 301 Q281 293 265 293 Q249 293 236 301 Q223 309 215 321.5 Q207 334 207 350 Q207 366 215 379 Q223 392 236 400 Q249 408 265 408 Q281 408 294 400 Q307 392 315 379 Q323 366 323 350 Z " />
<glyph glyph-name="uF0101" unicode="&#xf0101;" horiz-adv-x="872" d="M850 376 Q840 360 833 341.5 Q826 323 822 304.5 Q818 286 818 272 L818 245 Q818 234 816.5 222 Q815 210 806 189 Q797 164 773 139 Q760 125 741.5 113.5 Q723 102 702 94 Q693 90 693 81 L693 36 Q693 19 681 7 Q669 -5 652 -5 Q636 -5 624 7 Q612 19 612 36 L612 61 Q612 64 611 66.5 Q610 69 608 71 Q606 72 603 73.5 Q600 75 597 74 L297 74 Q291 74 285.5 74 Q280 74 275 75 Q272 75 269 73.5 Q266 72 264 71 Q262 69 261 66.5 Q260 64 260 61 L260 36 Q260 19 248 7 Q236 -5 220 -5 Q203 -5 191 7 Q179 19 179 36 L179 82 Q179 90 170 94 Q160 98 150.5 102.5 Q141 107 133 112 Q86 141 67 188 Q67 188 67 188.5 Q67 189 66 189 Q62 199 60 208.5 Q58 218 56 228 Q55 233 55 237 Q55 241 55 245 L55 272 Q55 295 45.5 324.5 Q36 354 23 377 Q17 385 22 394 Q26 403 37 403 L51 404 Q58 403 63 408 Q66 410 67 413 Q68 416 68 419 L68 639 Q68 654 73 671 Q78 688 90.5 703 Q103 718 124 728 Q152 741 181 736 Q210 731 236 710 L238 708 Q240 706 241 708 Q260 717 283 717 Q304 717 328 705 Q344 699 359 688 Q361 686 363 685 L364 684 Q374 674 374 659 Q374 652 371.5 646 Q369 640 364 635 L271 542 Q270 540 269 539.5 Q268 539 266 538 Q257 532 247 532 Q230 532 221 543 L218 547 Q208 562 200 577 Q189 602 189 623 Q189 628 189 633 Q189 638 190 642 Q192 648 188 650 Q174 661 166 660.5 Q158 660 156 658 Q148 655 146.5 649 Q145 643 145 641 L145 418 Q145 411 149.5 407 Q154 403 160 403 L835 403 Q845 403 850 394 Q854 385 850 376 Z " />
<glyph glyph-name="uF0102" unicode="&#xf0102;" horiz-adv-x="782" d="M394 387 Q396 376 387 368 Q368 348 356 321.5 Q344 295 344 255 L344 23 Q344 13 337.5 6.5 Q331 0 321 0 L50 0 Q41 0 34.5 6 Q28 12 27 20 Q23 52 21.5 88.5 Q20 125 20.5 161.5 Q21 198 24 230.5 Q27 263 31.5 288 Q36 313 43 326 Q54 347 80 372 Q106 397 152 431 L163 439 Q165 441 167.5 443.5 Q170 446 171 447 Q172 449 171 451.5 Q170 454 168 456 Q167 458 161 465 Q137 494 124.5 530.5 Q112 567 112 614 Q112 651 129 680 Q146 709 175 725.5 Q204 742 240 742 Q275 742 304 725 Q333 708 350 679 Q367 650 367 614 Q367 567 354.5 529.5 Q342 492 317 464 Q311 458 309 454.5 Q307 451 308 449 Q308 447 309 445.5 Q310 444 315 441 L325 436 Q332 432 346 424 Q349 422 359.5 417 Q370 412 383 404 Q392 398 394 387 Z M761 250 Q761 222 761.5 199 Q762 176 762 156 L762 137 Q762 123 761.5 108.5 Q761 94 761 78 L761 23 Q761 13 754.5 6.5 Q748 0 738 0 L414 0 Q404 0 397.5 6.5 Q391 13 391 23 L391 255 Q391 289 402 310.5 Q413 332 437 349 L482 374 Q486 376 489 377 Q492 378 495 380 Q500 382 501.5 383.5 Q503 385 503 385 Q503 390 502 392 Q501 394 497 398 Q497 399 496 400 Q468 430 455.5 468 Q443 506 443 552 Q443 575 451.5 598 Q460 621 477 640 Q494 659 518 670.5 Q542 682 572 682 Q602 682 626 671 Q650 660 667 641 Q684 622 692.5 599 Q701 576 701 552 Q701 508 688.5 469 Q676 430 648 400 L644 396 Q642 393 641 391.5 Q640 390 640 386 Q640 384 641 383 Q642 382 646 380 Q648 378 651 377 Q654 376 658 374 L679 365 Q720 346 740.5 320 Q761 294 761 250 Z " />
<glyph glyph-name="uF0103" unicode="&#xf0103;" horiz-adv-x="895" d="M790 416 Q814 416 833 404.5 Q852 393 863.5 373.5 Q875 354 875 330 L875 37 Q875 20 862.5 7.5 Q850 -5 832 -5 Q815 -5 802.5 7.5 Q790 20 790 37 L790 45 Q790 56 781.5 64.5 Q773 73 761 73 L134 73 Q122 73 114 64.5 Q106 56 106 45 L106 37 Q106 20 93 7.5 Q80 -5 63 -5 Q45 -5 32.5 7.5 Q20 20 20 37 L20 330 Q20 354 31.5 373.5 Q43 393 62.5 404.5 Q82 416 106 416 L106 655 Q106 673 115 688 Q124 703 139 712 Q154 721 172 721 L724 721 Q742 721 757 712 Q772 703 781 688 Q790 673 790 655 L790 416 Z M403 432 L403 535 Q403 548 393.5 558 Q384 568 370 568 L227 568 Q214 568 204 558 Q194 548 194 535 L194 432 Q194 425 199 420.5 Q204 416 211 416 L387 416 Q394 416 398.5 420.5 Q403 425 403 432 Z M701 432 L701 535 Q701 548 691.5 558 Q682 568 668 568 L525 568 Q512 568 502 558 Q492 548 492 535 L492 432 Q492 425 496.5 420.5 Q501 416 508 416 L684 416 Q692 416 696.5 420.5 Q701 425 701 432 Z " />
<glyph glyph-name="uF0104" unicode="&#xf0104;" horiz-adv-x="778" d="M758 39 Q758 22 746 11 Q734 0 718 0 L605 0 Q583 0 567.5 15 Q552 30 552 53 L552 532 Q552 542 544 550 Q536 558 525 558 L476 558 L476 -60 Q476 -74 465 -82 Q455 -89 442 -86 L177 -2 Q173 0 169 0 L60 0 Q44 0 32 11 Q20 22 20 39 Q20 56 32 67.5 Q44 79 60 79 L126 79 Q137 79 145 87 Q153 95 153 106 L153 619 Q153 627 158.5 634 Q164 641 172 644 L442 730 Q455 733 465 726 Q476 718 476 704 L476 638 L605 638 Q616 638 624 630 Q632 622 632 611 L632 106 Q632 95 640 87 Q648 79 658 79 L718 79 Q734 79 746 67.5 Q758 56 758 39 Z " />
<glyph glyph-name="uF0105" unicode="&#xf0105;" horiz-adv-x="858" d="M371 664 L371 489 Q371 465 359 445 Q347 425 327 413 Q307 401 283 401 L108 401 Q84 401 64 413 Q44 425 32 445 Q20 465 20 489 L20 664 Q20 688 32 708 Q44 728 64 740 Q84 752 108 752 L283 752 Q307 752 327 740 Q347 728 359 708 Q371 688 371 664 Z M750 752 Q774 752 794 740 Q814 728 826 708 Q838 688 838 664 L838 489 Q838 465 826 445 Q814 425 794 413 Q774 401 750 401 L575 401 Q551 401 531 413 Q511 425 499 445 Q487 465 487 489 L487 664 Q487 688 499 708 Q511 728 531 740 Q551 752 575 752 L750 752 Z M283 285 Q307 285 327 273 Q347 261 359 241 Q371 221 371 197 L371 22 Q371 -2 359 -22 Q347 -42 327 -54 Q307 -66 283 -66 L108 -66 Q84 -66 64 -54 Q44 -42 32 -22 Q20 -2 20 22 L20 197 Q20 221 32 241 Q44 261 64 273 Q84 285 108 285 L283 285 Z M750 285 Q774 285 794 273 Q814 261 826 241 Q838 221 838 197 L838 22 Q838 -2 826 -22 Q814 -42 794 -54 Q774 -66 750 -66 L575 -66 Q551 -66 531 -54 Q511 -42 499 -22 Q487 -2 487 22 L487 197 Q487 221 499 241 Q511 261 531 273 Q551 285 575 285 L750 285 Z " />
<glyph glyph-name="uF0201" unicode="&#xf0201;" horiz-adv-x="615" d="M102 488 Q88 503 88 524 Q88 545 102 560 L272 729 Q278 737 288 740 L289 740 Q294 742 298 743 Q302 744 307 744 Q318 744 326 740 L327 740 Q337 737 343 729 L512 560 Q527 545 527 524 Q527 503 512 488 Q505 480 496 476.5 Q487 473 477 473 Q456 473 441 488 L358 571 L358 220 Q358 199 343 184 Q328 169 307 169 Q286 169 271.5 184 Q257 199 257 220 L257 571 L174 488 Q159 473 138 473 Q117 473 102 488 Z M544 101 Q565 101 580 86.5 Q595 72 595 51 Q595 30 580 15 Q565 0 544 0 L71 0 Q50 0 35 15 Q20 30 20 51 Q20 72 35 86.5 Q50 101 71 101 L544 101 Z " />
<glyph glyph-name="uF0202" unicode="&#xf0202;" horiz-adv-x="615" d="M544 709 Q565 709 580 694 Q595 679 595 658 Q595 637 580 622.5 Q565 608 544 608 L71 608 Q50 608 35 622.5 Q20 637 20 658 Q20 679 35 694 Q50 709 71 709 L544 709 Z M512 221 Q527 206 527 185 Q527 164 512 149 L343 -20 Q337 -28 327 -31 L326 -31 Q318 -35 307 -35 Q302 -35 298 -34 Q294 -33 289 -31 L288 -31 Q278 -28 272 -20 L102 149 Q88 164 88 185 Q88 206 102 221 Q117 235 138 235 Q159 235 174 221 L257 138 L257 489 Q257 510 271.5 525 Q286 540 307 540 Q328 540 343 525 Q358 510 358 489 L358 138 L441 221 Q456 235 477 235 Q498 235 512 221 Z " />
<glyph glyph-name="uF0203" unicode="&#xf0203;" horiz-adv-x="701" d="M650 266 Q665 258 673 243.5 Q681 229 681.5 212.5 Q682 196 673 181 Q664 166 649.5 158 Q635 150 619 150 Q611 150 603.5 152 Q596 154 588 158 L413 260 L413 57 Q413 40 404.5 26 Q396 12 382 3.5 Q368 -5 351 -5 Q334 -5 319.5 3.5 Q305 12 296.5 26 Q288 40 288 57 L288 260 L113 158 Q106 154 98 152 Q90 150 82 150 Q66 150 51.5 158 Q37 166 28 181 Q20 196 20 212.5 Q20 229 28 243.5 Q36 258 51 266 L226 367 L51 468 Q36 476 28 490.5 Q20 505 20 521.5 Q20 538 28 553 Q36 568 50.5 576 Q65 584 81.5 584 Q98 584 113 576 L288 474 L288 677 Q288 694 296.5 708 Q305 722 319.5 730.5 Q334 739 351 739 Q368 739 382 730.5 Q396 722 404.5 708 Q413 694 413 677 L413 474 L588 576 Q603 584 619.5 584 Q636 584 650 576 Q664 568 673 553 Q682 538 681.5 521.5 Q681 505 673 490.5 Q665 476 650 468 L475 367 L650 266 Z " />
<glyph glyph-name="uF0301" unicode="&#xf0301;" horiz-adv-x="513" d="M290 611 Q373 602 424.5 544 Q476 486 493 379 Q494 372 490 366 Q485 361 478 361 L36 361 Q29 361 24 366 Q22 369 20.5 372 Q19 375 20 379 Q56 593 227 611 Q232 669 264 701 Q300 739 367 739 L445 739 Q458 739 467 729.5 Q476 720 476 707 Q476 694 467 685 Q458 676 445 676 L367 676 Q327 676 309 657 Q302 650 297 638 Q292 626 290 611 Z M408 328 Q424 331 437.5 322 Q451 313 453 297 Q456 280 447 267 Q438 254 421 251 Q405 248 391.5 257 Q378 266 376 283 Q373 299 382.5 312.5 Q392 326 408 328 Z M250 328 Q266 331 279.5 322 Q293 313 296 297 Q298 280 289 267 Q280 254 264 251 Q248 248 234.5 257 Q221 266 218 283 Q215 299 224.5 312.5 Q234 326 250 328 Z M138 297 Q141 280 131.5 267 Q122 254 106 251 Q90 248 76.5 257 Q63 266 60 283 Q57 299 66.5 312.5 Q76 326 92 328 Q108 331 121.5 322 Q135 313 138 297 Z M408 202 Q424 205 437.5 195.5 Q451 186 453 170 Q456 154 447 141 Q438 128 421 125 Q405 122 391.5 131 Q378 140 376 157 Q373 173 382.5 186.5 Q392 200 408 202 Z M92 202 Q108 205 121.5 195.5 Q135 186 138 170 Q141 154 131.5 141 Q122 128 106 125 Q90 122 76.5 131 Q63 140 60 157 Q57 173 66.5 186.5 Q76 200 92 202 Z M250 202 Q266 205 279.5 195.5 Q293 186 296 170 Q298 154 289 141 Q280 128 264 125 Q248 122 234.5 131 Q221 140 218 157 Q215 173 224.5 186.5 Q234 200 250 202 Z M408 76 Q424 79 437.5 69.5 Q451 60 453 44 Q456 28 447 14.5 Q438 1 421 -1 Q405 -4 391.5 5 Q378 14 376 31 Q373 47 382.5 60 Q392 73 408 76 Z M92 76 Q108 79 121.5 69.5 Q135 60 138 44 Q141 28 131.5 14.5 Q122 1 106 -1 Q90 -4 76.5 5 Q63 14 60 31 Q57 47 66.5 60 Q76 73 92 76 Z M250 76 Q266 79 279.5 69.5 Q293 60 296 44 Q298 28 289 14.5 Q280 1 264 -1 Q248 -4 234.5 5 Q221 14 218 31 Q215 47 224.5 60 Q234 73 250 76 Z " />
<glyph glyph-name="uF0302" unicode="&#xf0302;" horiz-adv-x="896" d="M121 655 Q121 676 131 693 Q141 710 158.5 720.5 Q176 731 197 731 L698 731 Q719 731 736 720.5 Q753 710 763.5 693 Q774 676 774 655 L774 520 Q755 520 737.5 510.5 Q720 501 705.5 486 Q691 471 682.5 452.5 Q674 434 674 415 L674 255 L222 255 L222 415 Q222 435 213.5 453.5 Q205 472 190 487.5 Q175 503 157 512 Q139 521 121 521 L121 655 Z M800 468 Q818 468 835.5 460.5 Q853 453 864.5 436.5 Q876 420 876 392 Q876 370 872 357.5 Q868 345 862 338.5 Q856 332 849 327 Q842 322 833.5 313.5 Q825 305 825 290 L825 116 Q825 106 817.5 98.5 Q810 91 800 91 L774 91 L774 23 Q774 8 766 1.5 Q758 -5 749 -5 Q736 -5 728 -0.5 Q720 4 710 23 L678 91 L217 91 L184 23 Q174 4 166 -0.5 Q158 -5 145 -5 Q137 -5 128.5 1.5 Q120 8 120 23 L120 91 L96 91 Q86 91 78.5 98.5 Q71 106 71 116 Q71 118 71 130.5 Q71 143 71 161.5 Q71 180 71 201 Q71 222 71 241 Q71 260 71 274 Q71 288 71 292 Q70 306 62.5 314 Q55 322 48 328 Q41 334 34.5 341 Q28 348 24 360 Q20 372 20 392 Q20 468 96 468 Q114 468 131.5 462 Q149 456 160.5 440 Q172 424 172 392 L172 256 Q172 235 187 220 Q202 205 223 205 L673 205 Q694 205 709 220 Q724 235 724 256 L724 392 Q724 418 733 433.5 Q742 449 755 456.5 Q768 464 780.5 466 Q793 468 800 468 Z " />
<glyph glyph-name="uF0303" unicode="&#xf0303;" horiz-adv-x="695" d="M181 573 L546 573 L458 667 Q448 679 448 696 Q448 713 458 725 Q469 737 485 737 Q501 737 512 725 L664 561 Q675 549 675 532 Q675 515 664 503 L512 339 Q501 327 485 327 Q469 327 458 339 Q448 351 448 368 Q448 385 458 397 L546 491 L181 491 Q165 491 154 503 Q143 515 143 532 Q143 549 154 561 Q165 573 181 573 Z M515 163 L150 163 L237 69 Q248 57 248 40 Q248 23 237 11 Q226 -1 210 -1 Q194 -1 183 11 L31 175 Q20 187 20 204 Q20 221 31 233 L183 397 Q194 409 210 409 Q226 409 237 397 Q248 385 248 368 Q248 351 237 339 L150 245 L515 245 Q531 245 542 233 Q553 221 553 204 Q553 187 542 175 Q531 163 515 163 Z " />
<glyph glyph-name="uF0401" unicode="&#xf0401;" horiz-adv-x="784" d="M392 739 Q453 739 509 720 Q565 701 611.5 667 Q658 633 692 586.5 Q726 540 745 484 Q764 428 764 367 Q764 306 745 250 Q726 194 692 147.5 Q658 101 611.5 67 Q565 33 509.5 14 Q454 -5 392 -5 Q331 -5 275 14 Q219 33 172.5 67 Q126 101 92 147.5 Q58 194 39 250 Q20 306 20 367 Q20 428 39 484 Q58 540 92 586.5 Q126 633 172.5 667 Q219 701 274.5 720 Q330 739 392 739 Z M180 252 Q189 250 193 256 L503 566 Q509 570 507 579 Q506 586 499 591 Q474 602 447 608.5 Q420 615 392 615 Q341 615 296 595.5 Q251 576 217 542 Q183 508 163.5 463 Q144 418 144 367 Q144 338 150.5 311.5 Q157 285 168 260 Q173 253 180 252 Z M392 119 Q443 119 488 138.5 Q533 158 567 192 Q601 226 620.5 271 Q640 316 640 367 Q640 396 633.5 422.5 Q627 449 616 474 Q611 481 604 482 Q595 484 591 478 L281 168 Q275 164 277 155 Q278 148 285 143 Q310 132 337 125.5 Q364 119 392 119 Z " />
<glyph glyph-name="uF0402" unicode="&#xf0402;" horiz-adv-x="932" d="M838 618 Q858 618 875 608 Q892 598 902 581 Q912 564 912 544 L912 69 Q912 48 902 31.5 Q892 15 875 5 Q858 -5 838 -5 L94 -5 Q74 -5 57 5 Q40 15 30 31.5 Q20 48 20 69 L20 544 Q20 564 30 581 Q40 598 57 608 Q74 618 94 618 L838 618 Z M862 382 L862 452 Q862 460 856 466.5 Q850 473 842 473 L90 473 Q82 473 76 466.5 Q70 460 70 452 L70 382 Q70 374 76 368 Q82 362 90 362 L842 362 Q850 362 856 368 Q862 374 862 382 Z " />
<glyph glyph-name="uF0403" unicode="&#xf0403;" horiz-adv-x="890" d="M866 732 Q870 728 870 723 Q870 718 868 713 L478 4 Q474 -3 465 -5 L463 -5 Q454 -5 450 1 L340 120 Q334 126 327 126 Q323 126 319.5 124 Q316 122 314 120 L252 52 Q249 48 244.5 46.5 Q240 45 235 46 Q225 49 222 59 L154 318 Q153 322 150 326 L25 461 Q18 470 21 478 Q22 482 25 485 Q28 488 33 490 L847 738 Q858 741 866 732 Z M719 632 Q723 634 721 638 Q719 641 715 639 L209 385 Q208 385 206 383 Q193 376 190 361.5 Q187 347 195 334 Q203 322 217.5 319 Q232 316 244 324 L719 632 Z " />
<glyph glyph-name="uF0404" unicode="&#xf0404;" horiz-adv-x="714" d="M30 611 Q46 650 70 676.5 Q94 703 121.5 718.5 Q149 734 174 738 Q188 741 200.5 736 Q213 731 222 715 Q230 701 238.5 686 Q247 671 259 648.5 Q271 626 289 589 Q294 580 296.5 572 Q299 564 296.5 554.5 Q294 545 284 531 Q272 514 261 497.5 Q250 481 241.5 468.5 Q233 456 230 452 Q222 442 220 428.5 Q218 415 229 402 Q244 383 262.5 361.5 Q281 340 299 318.5 Q317 297 332.5 278.5 Q348 260 358.5 247.5 Q369 235 371 232 Q377 224 391 221 Q405 218 420 225 L507 264 Q524 272 536 272 Q548 272 564 259 Q596 234 616 218.5 Q636 203 650 191.5 Q664 180 676 170 Q690 159 693 147 Q696 135 690 119 Q677 88 655.5 64.5 Q634 41 608.5 25.5 Q583 10 557.5 2.5 Q532 -5 512 -5 Q481 -5 445.5 7 Q410 19 372.5 40.5 Q335 62 299 89.5 Q263 117 231 148 Q199 179 173 210 Q145 244 118 285.5 Q91 327 70 371.5 Q49 416 35.5 460 Q22 504 20 543 Q18 582 30 611 Z " />
<glyph glyph-name="uF0405" unicode="&#xf0405;" horiz-adv-x="761" d="M734 20 Q733 12 726.5 6 Q720 0 712 0 L334 0 Q326 0 319 6 Q312 12 311 20 Q310 33 309 45.5 Q308 58 307 72 Q305 110 305 148.5 Q305 187 308 221.5 Q311 256 315.5 283 Q320 310 327 323 Q338 345 364 369.5 Q390 394 436 427 Q448 436 452 440 Q456 444 454 448.5 Q452 453 445 461 Q421 489 408.5 526 Q396 563 396 610 Q396 646 413 674.5 Q430 703 459 719.5 Q488 736 523 736 Q533 736 542 734.5 Q551 733 559 731 Q586 724 606 706.5 Q626 689 637.5 664.5 Q649 640 649 610 Q649 516 601 461 Q594 453 592 448.5 Q590 444 594 440 Q598 436 610 427 Q656 394 682 369.5 Q708 345 718 323 Q725 310 729.5 285.5 Q734 261 737 228.5 Q740 196 740.5 160 Q741 124 739.5 88 Q738 52 734 20 Z M250 519 Q270 519 283 505.5 Q296 492 296 473 Q296 454 283 440.5 Q270 427 250 427 L204 427 L204 381 Q204 362 190.5 348.5 Q177 335 158 335 Q139 335 125.5 348.5 Q112 362 112 381 L112 427 L66 427 Q53 427 42 435 Q32 441 26 451 Q20 461 20 473 Q20 485 26 495 Q32 505 42 511 Q53 519 66 519 L112 519 L112 565 Q112 584 125.5 597.5 Q139 611 158 611 Q177 611 190.5 597.5 Q204 584 204 565 L204 519 L250 519 Z " />
<glyph glyph-name="uF0406" unicode="&#xf0406;" horiz-adv-x="715" d="M433 323 Q440 310 444.5 285.5 Q449 261 452 228.5 Q455 196 455.5 160 Q456 124 454.5 88 Q453 52 449 20 Q448 12 441.5 6 Q435 0 427 0 L49 0 Q41 0 34.5 6 Q28 12 27 20 Q23 52 21.5 88 Q20 124 20.5 160 Q21 196 24 228.5 Q27 261 31.5 285.5 Q36 310 43 323 Q54 345 79.5 369.5 Q105 394 151 427 Q163 436 167 440 Q171 444 169 448.5 Q167 453 160 461 Q112 516 112 609 Q112 646 128.5 674.5 Q145 703 173.5 719.5 Q202 736 238 736 Q274 736 302.5 719.5 Q331 703 348 674.5 Q365 646 365 609 Q365 562 352.5 525.5 Q340 489 316 461 Q309 453 307 448.5 Q305 444 309.5 440 Q314 436 325 427 Q371 394 396.5 369.5 Q422 345 433 323 Z M658 519 Q673 519 684 505.5 Q695 492 695 473 Q695 454 684 440.5 Q673 427 658 427 L509 427 Q493 427 482.5 440.5 Q472 454 472 473 Q472 492 482.5 505.5 Q493 519 509 519 L658 519 Z " />
<glyph glyph-name="uF0501" unicode="&#xf0501;" horiz-adv-x="1079" d="M615 0 L615 281 L681 215 Q697 199 719 199 Q741 199 757 215 Q768 226 771 240 Q774 254 771 268 Q768 282 757 292 L601 449 Q590 460 575.5 463.5 Q561 467 546.5 463.5 Q532 460 521 449 L365 292 Q354 282 351 268 Q348 254 351 240 Q354 226 365 215 Q381 199 403.5 199 Q426 199 442 215 L507 281 L507 0 L301 0 Q212 0 149 28.5 Q86 57 53 110.5 Q20 164 20 238 Q20 278 33 311 Q46 344 69 369 Q78 379 86.5 386.5 Q95 394 103 399 Q102 400 102 402 Q96 428 96 455 Q96 482 105 507 Q119 550 159 580 Q200 612 243.5 614 Q287 616 328 597 Q331 596 333.5 595 Q336 594 338 592 Q340 594 341 596 Q342 598 344 600 Q354 614 367 628 Q380 642 395 655 Q438 692 490.5 714 Q543 736 604 736 Q676 736 738 714 Q800 692 846.5 651 Q893 610 920 553 Q947 496 950 425 Q960 420 973 411 Q986 402 999 389 Q1027 360 1043 322.5 Q1059 285 1059 238 Q1059 187 1040 144 Q1021 101 988 68.5 Q955 36 912 18 Q869 0 821 0 L615 0 Z " />
<glyph glyph-name="uF0601" unicode="&#xf0601;" horiz-adv-x="784" d="M392 744 Q453 744 509 725 Q565 706 611.5 672 Q658 638 692 591.5 Q726 545 745 489.5 Q764 434 764 372 Q764 311 745 255 Q726 199 692 152.5 Q658 106 611.5 72 Q565 38 509.5 19 Q454 0 392 0 Q331 0 275 19 Q219 38 172.5 72 Q126 106 92 152.5 Q58 199 39 254.5 Q20 310 20 372 Q20 433 39 489 Q58 545 92 591.5 Q126 638 172.5 672 Q219 706 274.5 725 Q330 744 392 744 Z M392 131 Q442 131 485.5 149.5 Q529 168 562.5 201.5 Q596 235 614.5 278.5 Q633 322 633 372 Q633 422 614.5 465.5 Q596 509 562.5 542.5 Q529 576 485.5 594.5 Q442 613 392 613 Q342 613 298.5 594.5 Q255 576 221.5 542.5 Q188 509 169.5 465.5 Q151 422 151 372 Q151 322 169.5 278.5 Q188 235 221.5 201.5 Q255 168 298.5 149.5 Q342 131 392 131 Z " />
<glyph glyph-name="uF1001" unicode="&#xf1001;" horiz-adv-x="779" d="M742 531 Q756 521 759 504.5 Q762 488 751 474 Q739 457 719 457 L658 457 L658 12 Q658 7 654 3.5 Q650 0 646 0 L531 0 Q527 0 524.5 2.5 Q522 5 522 9 L522 202 Q522 218 511 232 Q500 246 483.5 254 Q467 262 450 262 Q434 262 418 254 Q402 246 391.5 232 Q381 218 381 202 L381 9 Q381 5 378.5 2.5 Q376 0 372 0 L133 0 Q128 0 124.5 3.5 Q121 7 121 12 L121 457 L61 457 Q52 457 43 461.5 Q34 466 28 474 Q18 488 21 504.5 Q24 521 37 531 L383 737 Q390 742 396 737 L742 531 Z M275 330 Q299 330 315.5 346.5 Q332 363 332 387 Q332 411 315.5 427.5 Q299 444 275 444 Q251 444 234.5 427.5 Q218 411 218 387 Q218 363 234.5 346.5 Q251 330 275 330 Z " />
<glyph glyph-name="uF1002" unicode="&#xf1002;" horiz-adv-x="657" d="M633 113 Q640 98 634.5 82 Q629 66 615 59 L494 -1 Q487 -5 476 -5 Q473 -5 470 -4.5 Q467 -4 464 -3 Q449 2 441 17 L288 324 Q264 316 239.5 314.5 Q215 313 191 318 Q150 326 114.5 348.5 Q79 371 54.5 406 Q30 441 22 488 Q16 526 24.5 564.5 Q33 603 53.5 636 Q74 669 106 692 Q139 716 175.5 726 Q212 736 248.5 733 Q285 730 318.5 715.5 Q352 701 379.5 676 Q407 651 424 616 Q446 572 444 523 Q442 474 421 431 Q410 409 394 391 Q378 373 359 359 L416 245 L504 290 Q519 297 534.5 291.5 Q550 286 557 272 Q564 257 559 241.5 Q554 226 540 219 L451 174 L494 88 L579 130 Q594 138 610 132.5 Q626 127 633 113 Z M218 552 Q238 562 245 583 Q252 604 242 623 Q232 643 211 650.5 Q190 658 170 647 Q150 637 143 616.5 Q136 596 146 576 Q152 562 164.5 554.5 Q177 547 191 546 Q205 545 218 552 Z " />
</font>
</svg>
