<?xml version="1.0" encoding="UTF-8"?>
<svg xmlns="http://www.w3.org/2000/svg" xmlns:xlink="http://www.w3.org/1999/xlink" version="1.2" >
<font id="Masbul Black">
<font-face  font-family="Masbul" units-per-em="1000" ascent="1009" descent="-293" font-style="normal" font-weight="900" font-stretch="normal" cap-height="710" x-height="538" underline-position="-100" underline-thickness="63" />
<missing-glyph  horiz-adv-x="500" d="M450 0 L50 0 L50 750 L450 750 L450 0 Z M100 50 L400 50 L400 700 L100 700 L100 50 Z " />
<glyph glyph-name="uni0000" d="" />
<glyph glyph-name="uni0020" unicode="&#x20;" horiz-adv-x="202" d="" />
<glyph glyph-name="uni000D" unicode="&#xd;" horiz-adv-x="202" d="" />
<glyph glyph-name="uni002E" unicode="&#x2e;" horiz-adv-x="299" d="M149 -5 Q118 -5 93 10 Q68 25 53.5 50 Q39 75 39 106 Q39 137 53.5 162 Q68 187 93 202 Q118 217 149 217 Q180 217 205 202 Q230 187 244.5 162 Q259 137 259 106 Q259 75 244.5 50 Q230 25 205 10 Q180 -5 149 -5 Z " />
<glyph glyph-name="uni003A" unicode="&#x3a;" horiz-adv-x="299" d="M149 -5 Q118 -5 93 10 Q68 25 53.5 50 Q39 75 39 106 Q39 137 53.5 162 Q68 187 93 202 Q118 217 149 217 Q180 217 205 202 Q230 187 244.5 162 Q259 137 259 106 Q259 75 244.5 50 Q230 25 205 10 Q180 -5 149 -5 Z M149 321 Q118 321 93 336 Q68 351 53.5 376 Q39 401 39 432 Q39 463 53.5 488 Q68 513 93 528 Q118 543 149 543 Q180 543 205 528 Q230 513 244.5 488 Q259 463 259 432 Q259 401 244.5 376 Q230 351 205 336 Q180 321 149 321 Z " />
<glyph glyph-name="uni002C" unicode="&#x2c;" horiz-adv-x="299" d="M81 -155 L55 -61 Q88 -56 114.5 -41 Q141 -26 156 -5.5 Q171 15 171 37 Q155 28 135 28 Q110 28 89.5 40.5 Q69 53 57 74.5 Q45 96 45 121 Q45 148 59 169.5 Q73 191 96.5 204 Q120 217 149 217 Q176 217 200 205 Q224 193 241.5 172 Q259 151 269 123.5 Q279 96 279 64 Q279 9 254 -37 Q229 -83 184.5 -113.5 Q140 -144 81 -155 Z " />
<glyph glyph-name="uni003B" unicode="&#x3b;" horiz-adv-x="299" d="M81 -155 L55 -61 Q88 -56 114.5 -41 Q141 -26 156 -5.5 Q171 15 171 37 Q155 28 135 28 Q110 28 89.5 40.5 Q69 53 57 74.5 Q45 96 45 121 Q45 148 59 169.5 Q73 191 96.5 204 Q120 217 149 217 Q176 217 200 205 Q224 193 241.5 172 Q259 151 269 123.5 Q279 96 279 64 Q279 9 254 -37 Q229 -83 184.5 -113.5 Q140 -144 81 -155 Z M149 321 Q118 321 93 336 Q68 351 53.5 376 Q39 401 39 432 Q39 463 53.5 488 Q68 513 93 528 Q118 543 149 543 Q180 543 205 528 Q230 513 244.5 488 Q259 463 259 432 Q259 401 244.5 376 Q230 351 205 336 Q180 321 149 321 Z " />
<glyph glyph-name="uni003F" unicode="&#x3f;" horiz-adv-x="568" d="M186 247 L186 392 Q267 413 305.5 440 Q344 467 344 503 Q344 528 325.5 544.5 Q307 561 278 561 Q250 561 228.5 545.5 Q207 530 198 503 L20 538 Q29 580 52 614.5 Q75 649 110.5 673.5 Q146 698 190.5 711.5 Q235 725 286 725 Q342 725 388 709.5 Q434 694 467.5 665.5 Q501 637 519.5 598.5 Q538 560 538 513 Q538 439 492.5 385 Q447 331 366 305 L366 247 L186 247 Z M276 -5 Q246 -5 222 9 Q198 23 184 47 Q170 71 170 101 Q170 131 184 155 Q198 179 222 193 Q246 207 276 207 Q306 207 330 193 Q354 179 368 155 Q382 131 382 101 Q382 71 368 47 Q354 23 330 9 Q306 -5 276 -5 Z " />
<glyph glyph-name="uni0021" unicode="&#x21;" horiz-adv-x="290" d="M55 247 L43 710 L247 710 L235 247 L55 247 Z M145 -5 Q115 -5 91 9 Q67 23 53 47 Q39 71 39 101 Q39 131 53 155 Q67 179 91 193 Q115 207 145 207 Q175 207 199 193 Q223 179 237 155 Q251 131 251 101 Q251 71 237 47 Q223 23 199 9 Q175 -5 145 -5 Z " />
<glyph glyph-name="uni00BF" unicode="&#xbf;" horiz-adv-x="543" d="M287 331 Q257 331 233 345 Q209 359 195 383 Q181 407 181 437 Q181 467 195 491 Q209 515 233 529 Q257 543 287 543 Q317 543 341 529 Q365 515 379 491 Q393 467 393 437 Q393 407 379 383 Q365 359 341 345 Q317 331 287 331 Z M277 -187 Q222 -187 175.5 -171.5 Q129 -156 95.5 -127.5 Q62 -99 43.5 -60.5 Q25 -22 25 25 Q25 99 70.5 153 Q116 207 197 233 L197 291 L377 291 L377 146 Q296 125 257.5 98 Q219 71 219 35 Q219 10 237.5 -6.5 Q256 -23 285 -23 Q313 -23 334.5 -7.5 Q356 8 365 35 L543 0 Q534 -42 511 -76.5 Q488 -111 452.5 -135.5 Q417 -160 372.5 -173.5 Q328 -187 277 -187 Z " />
<glyph glyph-name="uni00A1" unicode="&#xa1;" horiz-adv-x="290" d="M145 331 Q115 331 91 345 Q67 359 53 383 Q39 407 39 437 Q39 467 53 491 Q67 515 91 529 Q115 543 145 543 Q175 543 199 529 Q223 515 237 491 Q251 467 251 437 Q251 407 237 383 Q223 359 199 345 Q175 331 145 331 Z M43 -172 L55 291 L235 291 L247 -172 L43 -172 Z " />
<glyph glyph-name="uni0027" unicode="&#x27;" horiz-adv-x="267" d="M58 417 L50 710 L217 710 L209 417 L58 417 Z " />
<glyph glyph-name="uni0022" unicode="&#x22;" horiz-adv-x="492" d="M58 417 L50 710 L217 710 L209 417 L58 417 Z M283 417 L275 710 L442 710 L434 417 L283 417 Z " />
<glyph glyph-name="uni2026" unicode="&#x2026;" horiz-adv-x="897" d="M149 -5 Q118 -5 93 10 Q68 25 53.5 50 Q39 75 39 106 Q39 137 53.5 162 Q68 187 93 202 Q118 217 149 217 Q180 217 205 202 Q230 187 244.5 162 Q259 137 259 106 Q259 75 244.5 50 Q230 25 205 10 Q180 -5 149 -5 Z M448 -5 Q417 -5 392 10 Q367 25 352.5 50 Q338 75 338 106 Q338 137 352.5 162 Q367 187 392 202 Q417 217 448 217 Q479 217 504 202 Q529 187 543.5 162 Q558 137 558 106 Q558 75 543.5 50 Q529 25 504 10 Q479 -5 448 -5 Z M747 -5 Q716 -5 691 10 Q666 25 651.5 50 Q637 75 637 106 Q637 137 651.5 162 Q666 187 691 202 Q716 217 747 217 Q778 217 803 202 Q828 187 842.5 162 Q857 137 857 106 Q857 75 842.5 50 Q828 25 803 10 Q778 -5 747 -5 Z " />
<glyph glyph-name="uni00A0" unicode="&#xa0;" horiz-adv-x="202" d="" />
<glyph glyph-name="uni2000" unicode="&#x2000;" horiz-adv-x="500" d="" />
<glyph glyph-name="uni2001" unicode="&#x2001;" horiz-adv-x="1000" d="" />
<glyph glyph-name="uni2002" unicode="&#x2002;" horiz-adv-x="500" d="" />
<glyph glyph-name="uni2003" unicode="&#x2003;" horiz-adv-x="1000" d="" />
<glyph glyph-name="uni2004" unicode="&#x2004;" horiz-adv-x="333" d="" />
<glyph glyph-name="uni2005" unicode="&#x2005;" horiz-adv-x="250" d="" />
<glyph glyph-name="uni2006" unicode="&#x2006;" horiz-adv-x="166" d="" />
<glyph glyph-name="uni2007" unicode="&#x2007;" horiz-adv-x="604" d="" />
<glyph glyph-name="uni2008" unicode="&#x2008;" horiz-adv-x="299" d="" />
<glyph glyph-name="uni2009" unicode="&#x2009;" horiz-adv-x="200" d="" />
<glyph glyph-name="uni200A" unicode="&#x200a;" horiz-adv-x="63" d="" />
<glyph glyph-name="uni200B" unicode="&#x200b;" d="" />
<glyph glyph-name="uni0030" unicode="0" horiz-adv-x="630" d="M313 -15 Q250 -15 199.5 10 Q149 35 113.5 81.5 Q78 128 59 194 Q40 260 40 343 Q40 426 59.5 493 Q79 560 115 607.5 Q151 655 202 680 Q253 705 317 705 Q380 705 430.5 680 Q481 655 516.5 608.5 Q552 562 571 496 Q590 430 590 347 Q590 264 570.5 197 Q551 130 515 82.5 Q479 35 428 10 Q377 -15 313 -15 Z M315 160 Q355 160 376 207.5 Q397 255 397 345 Q397 435 376 482.5 Q355 530 315 530 Q275 530 254 482.5 Q233 435 233 345 Q233 255 254 207.5 Q275 160 315 160 Z " />
<glyph glyph-name="uni0031" unicode="1" horiz-adv-x="463" d="M191 0 L191 491 L69 424 L12 582 L215 690 L381 690 L381 0 L191 0 Z " />
<glyph glyph-name="uni0032" unicode="2" horiz-adv-x="576" d="M36 0 L36 133 Q97 183 142.5 222 Q188 261 214 285 Q276 343 306 388.5 Q336 434 336 472 Q336 503 319 521.5 Q302 540 275 540 Q248 540 229 521 Q210 502 205 469 L25 496 Q33 543 56 581.5 Q79 620 114 647.5 Q149 675 193 690 Q237 705 288 705 Q340 705 384.5 688.5 Q429 672 461 642.5 Q493 613 511 572 Q529 531 529 483 Q529 442 513 401.5 Q497 361 463.5 318.5 Q430 276 375 226 Q358 210 340 195 Q322 180 302 165 L541 165 L541 0 L36 0 Z " />
<glyph glyph-name="uni0033" unicode="3" horiz-adv-x="570" d="M280 -15 Q211 -15 155.5 8.5 Q100 32 63.5 75 Q27 118 15 176 L191 203 Q199 177 220 161 Q241 145 272 145 Q305 145 326.5 163.5 Q348 182 348 210 Q348 238 327 256.5 Q306 275 274 275 L203 275 L203 425 L263 425 Q295 425 315 442 Q335 459 335 487 Q335 512 317.5 528.5 Q300 545 274 545 Q249 545 230 529.5 Q211 514 203 487 L27 514 Q34 556 56 591 Q78 626 112.5 651.5 Q147 677 191 691 Q235 705 286 705 Q338 705 381.5 690.5 Q425 676 457 650 Q489 624 506.5 588.5 Q524 553 524 510 Q524 460 499.5 422 Q475 384 432 361 Q485 340 512.5 297 Q540 254 540 199 Q540 152 521 112.5 Q502 73 467 44.5 Q432 16 384.5 0.5 Q337 -15 280 -15 Z " />
<glyph glyph-name="uni0034" unicode="4" horiz-adv-x="617" d="M331 0 L331 128 L25 128 L25 272 L299 690 L513 690 L513 277 L582 277 L582 128 L513 128 L513 0 L331 0 Z M188 277 L331 277 L331 493 L188 277 Z " />
<glyph glyph-name="uni0035" unicode="5" horiz-adv-x="570" d="M287 -15 Q221 -15 166.5 9 Q112 33 76.5 75.5 Q41 118 30 176 L209 199 Q218 173 237 159 Q256 145 281 145 Q303 145 320.5 154.5 Q338 164 348 181 Q358 198 358 219 Q358 252 337 273 Q316 294 283 294 Q264 294 245 287 Q226 280 212 268 L63 282 L63 690 L499 690 L499 525 L242 525 L242 423 Q278 446 329 446 Q377 446 417.5 429.5 Q458 413 487.5 382.5 Q517 352 533.5 310.5 Q550 269 550 220 Q550 170 530 127.5 Q510 85 474.5 53 Q439 21 391 3 Q343 -15 287 -15 Z " />
<glyph glyph-name="uni0036" unicode="6" horiz-adv-x="613" d="M335 -15 Q269 -15 215 9.5 Q161 34 121.5 79 Q82 124 61 186 Q40 248 40 324 Q40 409 64 479 Q88 549 133 599.5 Q178 650 239.5 677.5 Q301 705 376 705 Q469 705 549 662 L508 510 Q496 518 475.5 524.5 Q455 531 431.5 535 Q408 539 387 539 Q322 539 281 498.5 Q240 458 229 385 Q251 414 288 431.5 Q325 449 372 449 Q419 449 459.5 432 Q500 415 530 384.5 Q560 354 576.5 313.5 Q593 273 593 225 Q593 174 573.5 130.5 Q554 87 518.5 54.5 Q483 22 436 3.5 Q389 -15 335 -15 Z M327 139 Q349 139 366.5 149.5 Q384 160 394.5 179 Q405 198 405 221 Q405 244 394.5 263 Q384 282 366.5 293 Q349 304 327 304 Q305 304 287.5 293 Q270 282 259.5 263 Q249 244 249 221 Q249 198 259.5 179 Q270 160 287.5 149.5 Q305 139 327 139 Z " />
<glyph glyph-name="uni0037" unicode="7" horiz-adv-x="572" d="M98 0 L322 520 L30 520 L30 690 L532 690 L532 552 L307 0 L98 0 Z " />
<glyph glyph-name="uni0038" unicode="8" horiz-adv-x="606" d="M302 -15 Q242 -15 192 0 Q142 15 106 42 Q70 69 50 107 Q30 145 30 190 Q30 249 60.5 293.5 Q91 338 145 360 Q100 382 75.5 420 Q51 458 51 507 Q51 550 69.5 586.5 Q88 623 122.5 649.5 Q157 676 203 690.5 Q249 705 305 705 Q360 705 406 691 Q452 677 485.5 651 Q519 625 537 589.5 Q555 554 555 511 Q555 461 531 423 Q507 385 462 361 Q516 340 546 297.5 Q576 255 576 196 Q576 150 556 111 Q536 72 499.5 44 Q463 16 412.5 0.5 Q362 -15 302 -15 Z M303 423 Q334 423 354 441 Q374 459 374 487 Q374 515 354 533 Q334 551 303 551 Q272 551 252 533 Q232 515 232 487 Q232 459 252 441 Q272 423 303 423 Z M303 139 Q328 139 347.5 148 Q367 157 378 172.5 Q389 188 389 208 Q389 239 365 258.5 Q341 278 303 278 Q265 278 241 258.5 Q217 239 217 208 Q217 188 228 172.5 Q239 157 258.5 148 Q278 139 303 139 Z " />
<glyph glyph-name="uni0039" unicode="9" horiz-adv-x="613" d="M239 -15 Q193 -15 147 -4 Q101 7 60 27 L101 180 Q115 172 136.5 165 Q158 158 181.5 154.5 Q205 151 226 151 Q297 151 337.5 190.5 Q378 230 386 308 Q363 277 326 259 Q289 241 242 241 Q195 241 154.5 258 Q114 275 84 305 Q54 335 37 375.5 Q20 416 20 463 Q20 514 39.5 558 Q59 602 94.5 635 Q130 668 177 686.5 Q224 705 279 705 Q346 705 400 680.5 Q454 656 492.5 611 Q531 566 552 503 Q573 440 573 362 Q573 276 549.5 207 Q526 138 482 88 Q438 38 376.5 11.5 Q315 -15 239 -15 Z M286 386 Q308 386 325.5 396.5 Q343 407 353.5 425.5 Q364 444 364 468 Q364 492 353.5 510.5 Q343 529 325.5 540 Q308 551 286 551 Q264 551 246.5 540 Q229 529 218.5 510.5 Q208 492 208 468 Q208 444 218.5 425.5 Q229 407 246.5 396.5 Q264 386 286 386 Z " />
<glyph glyph-name="uni2080" unicode="&#x2080;" horiz-adv-x="363" d="M179 -9 Q131 -9 96 15 Q61 39 42 83.5 Q23 128 23 189 Q23 250 42.5 295 Q62 340 98 364.5 Q134 389 183 389 Q231 389 266 365 Q301 341 320 296.5 Q339 252 339 191 Q339 130 319.5 85 Q300 40 264 15.5 Q228 -9 179 -9 Z M180 102 Q198 102 206.5 123.5 Q215 145 215 190 Q215 236 206.5 257.5 Q198 279 180 279 Q147 279 147 190 Q147 145 155.5 123.5 Q164 102 180 102 Z " />
<glyph glyph-name="uni2081" unicode="&#x2081;" horiz-adv-x="363" d="M143 0 L143 254 L76 218 L41 318 L157 380 L266 380 L266 0 L143 0 Z " />
<glyph glyph-name="uni2082" unicode="&#x2082;" horiz-adv-x="363" d="M38 0 L38 80 Q49 89 66.5 103 Q84 117 101 131.5 Q118 146 130 156 Q165 187 182 211.5 Q199 236 199 255 Q199 269 192 277.5 Q185 286 173 286 Q162 286 153.5 277 Q145 268 144 255 L31 270 Q36 305 57.5 332 Q79 359 111 374 Q143 389 182 389 Q222 389 254 372.5 Q286 356 304.5 328 Q323 300 323 264 Q323 192 234 121 Q217 108 208 101 L330 101 L330 0 L38 0 Z " />
<glyph glyph-name="uni2083" unicode="&#x2083;" horiz-adv-x="363" d="M176 -9 Q136 -9 104 4 Q72 17 51 40.5 Q30 64 24 96 L134 112 Q136 103 146.5 97 Q157 91 170 91 Q186 91 196 98.5 Q206 106 206 119 Q206 130 197 137.5 Q188 145 174 145 L137 145 L137 239 L166 239 Q180 239 189.5 246.5 Q199 254 199 265 Q199 276 191 282.5 Q183 289 172 289 Q162 289 153 283 Q144 277 142 268 L31 285 Q36 316 56.5 339 Q77 362 108.5 375.5 Q140 389 179 389 Q220 389 251 375 Q282 361 299.5 336.5 Q317 312 317 280 Q317 253 304 232 Q291 211 266 198 Q295 186 311 163.5 Q327 141 327 110 Q327 75 308 48 Q289 21 254.5 6 Q220 -9 176 -9 Z " />
<glyph glyph-name="uni2084" unicode="&#x2084;" horiz-adv-x="363" d="M185 0 L185 67 L13 67 L13 156 L163 380 L297 380 L297 158 L332 158 L332 67 L297 67 L297 0 L185 0 Z M115 158 L185 158 L185 261 L115 158 Z " />
<glyph glyph-name="uni2044" unicode="&#x2044;" horiz-adv-x="91" d="M-242 0 L199 690 L333 690 L-108 0 L-242 0 Z " />
<glyph glyph-name="uni0025" unicode="&#x25;" horiz-adv-x="781" d="M196 379 Q160 379 130 391 Q100 403 77 424.5 Q54 446 41.5 475 Q29 504 29 538 Q29 572 42 601.5 Q55 631 77.5 653 Q100 675 131 687 Q162 699 198 699 Q234 699 264 687 Q294 675 317 653.5 Q340 632 352.5 603 Q365 574 365 540 Q365 506 352 476.5 Q339 447 316.5 425 Q294 403 263 391 Q232 379 196 379 Z M244 0 L103 0 L537 690 L678 690 L244 0 Z M151 539 Q151 516 164.5 500.5 Q178 485 197 485 Q216 485 229.5 500.5 Q243 516 243 539 Q243 562 229.5 577.5 Q216 593 197 593 Q178 593 164.5 577.5 Q151 562 151 539 Z M583 -9 Q547 -9 517 3 Q487 15 464 36.5 Q441 58 428.5 87 Q416 116 416 150 Q416 184 429 213.5 Q442 243 464.5 265 Q487 287 518 299 Q549 311 585 311 Q621 311 651 299 Q681 287 704 265.5 Q727 244 739.5 215 Q752 186 752 152 Q752 118 739 88.5 Q726 59 703.5 37 Q681 15 650 3 Q619 -9 583 -9 Z M584 97 Q604 97 617 112.5 Q630 128 630 151 Q630 174 617 189.5 Q604 205 584 205 Q564 205 551 189.5 Q538 174 538 151 Q538 128 551 112.5 Q564 97 584 97 Z " />
<glyph glyph-name="uni2030" unicode="&#x2030;" horiz-adv-x="1156" d="M196 379 Q160 379 130 391 Q100 403 77 424.5 Q54 446 41.5 475 Q29 504 29 538 Q29 572 42 601.5 Q55 631 77.5 653 Q100 675 131 687 Q162 699 198 699 Q234 699 264 687 Q294 675 317 653.5 Q340 632 352.5 603 Q365 574 365 540 Q365 506 352 476.5 Q339 447 316.5 425 Q294 403 263 391 Q232 379 196 379 Z M244 0 L103 0 L537 690 L678 690 L244 0 Z M151 539 Q151 516 164.5 500.5 Q178 485 197 485 Q216 485 229.5 500.5 Q243 516 243 539 Q243 562 229.5 577.5 Q216 593 197 593 Q178 593 164.5 577.5 Q151 562 151 539 Z M583 -9 Q547 -9 517 3 Q487 15 464 36.5 Q441 58 428.5 87 Q416 116 416 150 Q416 184 429 213.5 Q442 243 464.5 265 Q487 287 518 299 Q549 311 585 311 Q621 311 651 299 Q681 287 704 265.5 Q727 244 739.5 215 Q752 186 752 152 Q752 118 739 88.5 Q726 59 703.5 37 Q681 15 650 3 Q619 -9 583 -9 Z M958 -9 Q922 -9 892 3 Q862 15 839 36.5 Q816 58 803.5 87 Q791 116 791 150 Q791 184 804 213.5 Q817 243 839.5 265 Q862 287 893 299 Q924 311 960 311 Q996 311 1026 299 Q1056 287 1079 265.5 Q1102 244 1114.5 215 Q1127 186 1127 152 Q1127 118 1114 88.5 Q1101 59 1078.5 37 Q1056 15 1025 3 Q994 -9 958 -9 Z M584 97 Q604 97 617 112.5 Q630 128 630 151 Q630 174 617 189.5 Q604 205 584 205 Q564 205 551 189.5 Q538 174 538 151 Q538 128 551 112.5 Q564 97 584 97 Z M959 97 Q978 97 991.5 112.5 Q1005 128 1005 151 Q1005 174 991.5 189.5 Q978 205 959 205 Q940 205 926.5 189.5 Q913 174 913 151 Q913 128 926.5 112.5 Q940 97 959 97 Z " />
<glyph glyph-name="uni00BD" unicode="&#xbd;" horiz-adv-x="817" d="M111 0 L552 690 L686 690 L245 0 L111 0 Z M492 0 L492 80 Q503 89 520.5 103 Q538 117 555 131.5 Q572 146 584 156 Q619 187 636 211.5 Q653 236 653 255 Q653 269 646 277.5 Q639 286 627 286 Q616 286 607.5 277 Q599 268 598 255 L485 270 Q490 305 511.5 332 Q533 359 565 374 Q597 389 636 389 Q676 389 708 372.5 Q740 356 758.5 328 Q777 300 777 264 Q777 192 688 121 Q671 108 662 101 L784 101 L784 0 L492 0 Z M143 310 L143 564 L76 528 L41 628 L157 690 L266 690 L266 310 L143 310 Z " />
<glyph glyph-name="uni00BC" unicode="&#xbc;" horiz-adv-x="817" d="M126 0 L567 690 L701 690 L260 0 L126 0 Z M639 0 L639 67 L467 67 L467 156 L617 380 L751 380 L751 158 L786 158 L786 67 L751 67 L751 0 L639 0 Z M569 158 L639 158 L639 261 L569 158 Z M143 310 L143 564 L76 528 L41 628 L157 690 L266 690 L266 310 L143 310 Z " />
<glyph glyph-name="uni00BE" unicode="&#xbe;" horiz-adv-x="817" d="M133 0 L574 690 L708 690 L267 0 L133 0 Z M639 0 L639 67 L467 67 L467 156 L617 380 L751 380 L751 158 L786 158 L786 67 L751 67 L751 0 L639 0 Z M569 158 L639 158 L639 261 L569 158 Z M176 301 Q136 301 104 314 Q72 327 51 350.5 Q30 374 24 406 L134 422 Q136 413 146.5 407 Q157 401 170 401 Q186 401 196 408.5 Q206 416 206 429 Q206 440 197 447.5 Q188 455 174 455 L137 455 L137 549 L166 549 Q180 549 189.5 556.5 Q199 564 199 575 Q199 586 191 592.5 Q183 599 172 599 Q162 599 153 593 Q144 587 142 578 L31 595 Q36 626 56.5 649 Q77 672 108.5 685.5 Q140 699 179 699 Q220 699 251 685 Q282 671 299.5 646.5 Q317 622 317 590 Q317 563 304 542 Q291 521 266 508 Q295 496 311 473.5 Q327 451 327 420 Q327 385 308 358 Q289 331 254.5 316 Q220 301 176 301 Z " />
<glyph glyph-name="uni0024" unicode="&#x24;" horiz-adv-x="604" d="M234 -140 L234 -1 Q185 10 145 34.5 Q105 59 77 94.5 Q49 130 37 174 L214 209 Q228 175 252 157 Q276 139 308 139 Q340 139 359.5 155 Q379 171 379 196 Q379 222 355 239 Q331 256 278 266 L257 270 Q194 282 147.5 311 Q101 340 75.5 382.5 Q50 425 50 477 Q50 530 73.5 574 Q97 618 138.5 649 Q180 680 234 692 L234 820 L367 820 L367 693 Q415 683 453.5 658.5 Q492 634 518.5 598.5 Q545 563 555 518 L382 483 Q358 548 303 548 Q274 548 255.5 532 Q237 516 237 491 Q237 474 247 461.5 Q257 449 280.5 440 Q304 431 344 423 L365 419 Q429 406 474 378 Q519 350 543 308.5 Q567 267 567 215 Q567 158 542 112 Q517 66 472 35.5 Q427 5 367 -5 L367 -140 L234 -140 Z " />
<glyph glyph-name="uni00A2" unicode="&#xa2;" horiz-adv-x="604" d="M241 -135 L241 -2 Q196 9 158 33 Q120 57 92.5 92 Q65 127 50 170 Q35 213 35 262 Q35 312 50 356 Q65 400 92.5 436 Q120 472 158 497 Q196 522 241 534 L241 648 L374 648 L374 539 Q424 529 465 503.5 Q506 478 533 439 Q560 400 571 350 L395 323 Q384 351 364 366.5 Q344 382 318 382 Q291 382 270 367 Q249 352 237 326 Q225 300 225 266 Q225 232 237 206.5 Q249 181 269.5 166.5 Q290 152 318 152 Q346 152 367.5 167.5 Q389 183 400 211 L576 184 Q566 136 538 97 Q510 58 468 32 Q426 6 374 -4 L374 -135 L241 -135 Z " />
<glyph glyph-name="uni00A3" unicode="&#xa3;" horiz-adv-x="604" d="M23 0 L23 160 L74 160 L83 263 L22 263 L22 403 L95 403 L101 480 Q106 549 137.5 599.5 Q169 650 221 677.5 Q273 705 341 705 Q405 705 456 680.5 Q507 656 539.5 611 Q572 566 582 506 L402 479 Q392 540 342 540 Q317 540 302 523.5 Q287 507 285 477 L279 403 L422 403 L422 263 L268 263 L259 160 L578 160 L578 0 L23 0 Z " />
<glyph glyph-name="uni00A5" unicode="&#xa5;" horiz-adv-x="604" d="M68 113 L68 208 L208 208 L208 265 L68 265 L68 360 L170 360 L1 690 L210 690 L306 447 L401 690 L603 690 L434 360 L536 360 L536 265 L396 265 L396 208 L536 208 L536 113 L396 113 L396 0 L208 0 L208 113 L68 113 Z " />
<glyph glyph-name="uni20AC" unicode="&#x20ac;" horiz-adv-x="604" d="M-1 242 L20 322 L67 322 Q67 326 67 330 Q67 347 68 364 L0 364 L21 444 L77 444 Q92 526 128.5 584.5 Q165 643 220.5 674 Q276 705 348 705 Q409 705 458 682.5 Q507 660 540 617.5 Q573 575 586 516 L416 489 Q407 518 387.5 534 Q368 550 342 550 Q274 550 253 444 L429 444 L408 364 L245 364 Q245 352 245 339 Q245 330 245 322 L400 322 L379 242 L252 242 Q271 140 340 140 Q368 140 389.5 156 Q411 172 419 201 L589 174 Q576 116 541.5 73.5 Q507 31 455.5 8 Q404 -15 340 -15 Q229 -15 160 52 Q91 119 73 242 L-1 242 Z " />
<glyph glyph-name="uni20BA" unicode="&#x20ba;" horiz-adv-x="604" d="M110 0 L110 209 L44 178 L44 282 L110 313 L110 376 L45 345 L45 449 L110 480 L110 690 L293 690 L293 567 L391 614 L391 510 L293 463 L293 400 L391 447 L391 343 L293 296 L293 166 Q387 182 403 302 L578 287 Q556 143 471.5 71.5 Q387 0 238 0 L110 0 Z " />
<glyph glyph-name="uni20B9" unicode="&#x20b9;" horiz-adv-x="604" d="M78 569 L78 690 L557 690 L525 569 L437 569 Q460 541 472 506 L557 506 L525 385 L480 385 Q469 322 426 276.5 Q383 231 317 212 L557 0 L318 0 L79 213 L78 213 L78 326 Q101 322 126.5 319 Q152 316 174 316 Q219 316 249 333.5 Q279 351 292 385 L78 385 L78 506 L290 506 Q264 569 183 569 L78 569 Z " />
<glyph glyph-name="uni20A1" unicode="&#x20a1;" horiz-adv-x="604" d="M122 -140 L152 42 Q99 84 71 157 Q43 230 43 330 Q43 430 69 506 Q95 582 144 630 Q193 678 261 693 L282 815 L368 815 L348 699 Q370 697 391 691 L412 815 L498 815 L470 651 Q504 624 527.5 583.5 Q551 543 562 491 L377 464 Q370 496 354 513 Q338 530 316 530 Q236 530 236 339 Q236 248 256 204 Q276 160 316 160 Q339 160 356 177 Q373 194 380 226 L565 199 Q554 143 525.5 99.5 Q497 56 454.5 29 Q412 2 360 -7 L338 -140 L252 -140 L274 -7 Q252 -5 231 1 L208 -140 L122 -140 Z " />
<glyph glyph-name="uni20AA" unicode="&#x20aa;" horiz-adv-x="931" d="M60 0 L60 690 L385 690 Q444 690 492.5 669.5 Q541 649 576 612 Q611 575 630 523 Q649 471 649 408 L649 234 L504 234 L504 400 Q504 462 471 494 Q438 526 374 526 L205 526 L205 0 L60 0 Z M282 0 L282 450 L427 450 L427 164 L596 164 Q660 164 693 196 Q726 228 726 290 L726 690 L871 690 L871 282 Q871 219 852 167 Q833 115 798 78 Q763 41 714.5 20.5 Q666 0 607 0 L282 0 Z " />
<glyph glyph-name="uni20A9" unicode="&#x20a9;" horiz-adv-x="972" d="M224 0 L172 196 L25 196 L25 296 L145 296 L130 353 L25 353 L25 453 L103 453 L40 690 L240 690 L318 272 L406 690 L573 690 L661 272 L739 690 L932 690 L869 453 L947 453 L947 353 L842 353 L827 296 L947 296 L947 196 L800 196 L748 0 L575 0 L487 407 L400 0 L224 0 Z " />
<glyph glyph-name="uni20AD" unicode="&#x20ad;" horiz-adv-x="604" d="M56 0 L56 295 L-14 295 L-14 425 L56 425 L56 690 L240 690 L240 402 L389 690 L592 690 L430 425 L559 425 L559 295 L442 295 L628 0 L402 0 L240 317 L240 0 L56 0 Z " />
<glyph glyph-name="uni20A8" unicode="&#x20a8;" horiz-adv-x="1126" d="M50 0 L50 690 L290 690 Q377 690 439.5 662.5 Q502 635 536 584.5 Q570 534 570 463 Q570 425 556.5 389 Q543 353 519 323.5 Q495 294 463 273 L613 0 L409 0 L303 221 Q293 221 283 221 Q260 221 234 224 L234 0 L50 0 Z M865 -15 Q806 -15 756.5 2.5 Q707 20 672.5 53 Q638 86 624 131 L792 158 Q800 138 820 126.5 Q840 115 867 115 Q893 115 908 125.5 Q923 136 923 154 Q923 173 905 183 Q887 193 843 199 L824 202 Q734 216 686 260 Q638 304 638 372 Q638 412 654 445 Q670 478 700 502 Q730 526 771 539.5 Q812 553 861 553 Q918 553 964 535.5 Q1010 518 1042 486 Q1074 454 1087 411 L921 384 Q904 423 861 423 Q838 423 824 412.5 Q810 402 810 385 Q810 374 816.5 366.5 Q823 359 839.5 353.5 Q856 348 885 344 L904 341 Q998 326 1047 283 Q1096 240 1096 172 Q1096 130 1079.5 96 Q1063 62 1032 37 Q1001 12 958.5 -1.5 Q916 -15 865 -15 Z M234 536 L234 378 Q249 375 263 373.5 Q277 372 295 372 Q336 372 359 395 Q382 418 382 457 Q382 494 358 515 Q334 536 290 536 L234 536 Z " />
<glyph glyph-name="uni20B1" unicode="&#x20b1;" horiz-adv-x="604" d="M85 0 L85 316 L9 316 L9 416 L85 416 L85 473 L10 473 L10 573 L85 573 L85 690 L300 690 Q377 690 432.5 659 Q488 628 517 573 L601 573 L601 473 L544 473 Q545 460 545 447 Q545 431 543 416 L601 416 L601 316 L512 316 Q482 264 429.5 233.5 Q377 203 309 203 Q288 203 264 206 L264 0 L85 0 Z M264 536 L264 360 Q280 357 295 357 Q330 357 351 381.5 Q372 406 372 446 Q372 488 352 512 Q332 536 298 536 L264 536 Z " />
<glyph glyph-name="uni0E3F" unicode="&#xe3f;" horiz-adv-x="604" d="M50 0 L50 690 L224 690 L224 815 L357 815 L357 687 Q417 679 460 655.5 Q503 632 526 594.5 Q549 557 549 508 Q549 460 527 423 Q505 386 464 365 Q519 345 549 301.5 Q579 258 579 199 Q579 144 552 102.5 Q525 61 475 35.5 Q425 10 357 2 L357 -140 L224 -140 L224 0 L50 0 Z M234 545 L234 421 L288 421 Q323 421 341.5 437 Q360 453 360 482 Q360 513 341.5 529 Q323 545 288 545 L234 545 Z M234 145 L308 145 Q348 145 368.5 162.5 Q389 180 389 214 Q389 284 308 284 L234 284 L234 145 Z " />
<glyph glyph-name="uni20AB" unicode="&#x20ab;" horiz-adv-x="604" d="M217 -15 Q173 -15 134.5 4.5 Q96 24 67 58.5 Q38 93 22 139 Q6 185 6 238 Q6 293 23 340.5 Q40 388 70.5 423.5 Q101 459 141.5 478.5 Q182 498 229 498 Q268 498 299.5 484 Q331 470 354 443 L354 538 L237 538 L237 638 L354 638 L354 690 L541 690 L541 638 L597 638 L597 538 L541 538 L541 0 L368 0 L364 65 Q340 28 301.5 6.5 Q263 -15 217 -15 Z M276 145 Q298 145 316 158 Q334 171 344.5 192.5 Q355 214 355 242 Q355 270 344.5 292 Q334 314 316 327 Q298 340 276 340 Q253 340 235 327 Q217 314 206.5 292 Q196 270 196 242 Q196 214 206.5 192.5 Q217 171 235 158 Q253 145 276 145 Z M16 -155 L16 -55 L571 -55 L571 -155 L16 -155 Z " />
<glyph glyph-name="uni00A4" unicode="&#xa4;" horiz-adv-x="604" d="M42 183 L118 259 Q104 282 96 308.5 Q88 335 88 363 Q88 391 96 417.5 Q104 444 119 467 L42 544 L126 628 L206 548 Q228 559 252.5 565.5 Q277 572 303 572 Q328 572 352.5 566 Q377 560 399 549 L478 628 L562 544 L486 468 Q500 445 508 418.5 Q516 392 516 364 Q516 336 508 309.5 Q500 283 485 260 L562 183 L478 99 L398 179 Q376 168 351.5 161.5 Q327 155 301 155 Q276 155 251.5 161 Q227 167 205 178 L126 99 L42 183 Z M302 285 Q322 285 337.5 295 Q353 305 362 322.5 Q371 340 371 363 Q371 386 362 403.5 Q353 421 337.5 431 Q322 441 302 441 Q282 441 266.5 431 Q251 421 242 403.5 Q233 386 233 363 Q233 340 242 322.5 Q251 305 266.5 295 Q282 285 302 285 Z " />
<glyph glyph-name="uni005E" unicode="&#x5e;" horiz-adv-x="604" d="M52 333 L221 690 L383 690 L552 333 L381 333 L299 528 L217 333 L52 333 Z " />
<glyph glyph-name="uni002B" unicode="&#x2b;" horiz-adv-x="604" d="M73 197 L73 353 L221 353 L221 504 L381 504 L381 353 L530 353 L530 197 L381 197 L381 41 L221 41 L221 197 L73 197 Z " />
<glyph glyph-name="uni2212" unicode="&#x2212;" horiz-adv-x="604" d="M83 195 L83 355 L520 355 L520 195 L83 195 Z " />
<glyph glyph-name="uni00B1" unicode="&#xb1;" horiz-adv-x="604" d="M226 191 L226 322 L83 322 L83 468 L226 468 L226 594 L376 594 L376 468 L520 468 L520 322 L376 322 L376 191 L226 191 Z M93 0 L93 150 L510 150 L510 0 L93 0 Z " />
<glyph glyph-name="uni003D" unicode="&#x3d;" horiz-adv-x="604" d="M73 316 L73 466 L530 466 L530 316 L73 316 Z M73 84 L73 234 L530 234 L530 84 L73 84 Z " />
<glyph glyph-name="uni00F7" unicode="&#xf7;" horiz-adv-x="604" d="M302 384 Q280 384 262 394.5 Q244 405 233.5 423.5 Q223 442 223 464 Q223 486 233.5 504.5 Q244 523 262 533.5 Q280 544 302 544 Q324 544 342 533.5 Q360 523 370.5 504.5 Q381 486 381 464 Q381 442 370.5 423.5 Q360 405 342 394.5 Q324 384 302 384 Z M73 202 L73 348 L531 348 L531 202 L73 202 Z M302 6 Q280 6 262 16.5 Q244 27 233.5 45.5 Q223 64 223 86 Q223 108 233.5 126.5 Q244 145 262 155.5 Q280 166 302 166 Q324 166 342 155.5 Q360 145 370.5 126.5 Q381 108 381 86 Q381 64 370.5 45.5 Q360 27 342 16.5 Q324 6 302 6 Z " />
<glyph glyph-name="uni003C" unicode="&#x3c;" horiz-adv-x="604" d="M499 510 L499 353 L258 278 L499 203 L499 40 L82 200 L82 350 L499 510 Z " />
<glyph glyph-name="uni003E" unicode="&#x3e;" horiz-adv-x="604" d="M105 40 L105 197 L346 272 L105 347 L105 510 L522 350 L522 200 L105 40 Z " />
<glyph glyph-name="uni007E" unicode="&#x7e;" horiz-adv-x="604" d="M387 162 Q362 162 341.5 169 Q321 176 305.5 186 Q290 196 276.5 205.5 Q263 215 251.5 222 Q240 229 229 229 Q201 229 195 170 L49 170 Q52 237 73.5 285 Q95 333 131 358.5 Q167 384 216 384 Q241 384 261.5 377 Q282 370 297.5 360 Q313 350 326.5 340.5 Q340 331 351.5 324 Q363 317 374 317 Q388 317 396 331 Q404 345 408 376 L554 376 Q550 309 529 261 Q508 213 472 187.5 Q436 162 387 162 Z " />
<glyph glyph-name="uni00AC" unicode="&#xac;" horiz-adv-x="604" d="M74 247 L74 403 L511 403 L511 91 L351 91 L351 247 L74 247 Z " />
<glyph glyph-name="uni00D7" unicode="&#xd7;" horiz-adv-x="604" d="M181 52 L80 154 L200 274 L80 395 L181 497 L302 376 L423 497 L524 395 L404 274 L524 154 L423 52 L302 173 L181 52 Z " />
<glyph glyph-name="uni005F" unicode="&#x5f;" horiz-adv-x="630" d="M30 -187 L30 -51 L600 -51 L600 -187 L30 -187 Z " />
<glyph glyph-name="uni00A7" unicode="&#xa7;" horiz-adv-x="530" d="M263 -95 Q204 -95 154 -77.5 Q104 -60 69.5 -27 Q35 6 20 50 L188 77 Q196 58 217 46 Q238 34 266 34 Q293 34 308.5 45 Q324 56 324 76 Q324 96 305.5 106 Q287 116 240 124 L202 130 Q149 138 109.5 160 Q70 182 48.5 215 Q27 248 27 291 Q27 331 48 364.5 Q69 398 111 420 Q40 465 40 546 Q40 585 56.5 617.5 Q73 650 103.5 674.5 Q134 699 175 712 Q216 725 266 725 Q322 725 369 707.5 Q416 690 448 658 Q480 626 494 582 L328 555 Q309 594 265 594 Q242 594 227 582.5 Q212 571 212 553 Q212 535 230 524 Q248 513 289 507 L341 499 Q419 487 464.5 449.5 Q510 412 510 348 Q510 259 422 212 Q497 167 497 85 Q497 46 480 13 Q463 -20 431.5 -44.5 Q400 -69 357 -82 Q314 -95 263 -95 Z M348 310 Q348 357 276 369 L264 371 Q260 372 254.5 372.5 Q249 373 246 373 Q220 373 204.5 359 Q189 345 189 320 Q189 273 261 261 L273 259 Q277 258 282.5 257.5 Q288 257 291 257 Q317 257 332.5 271 Q348 285 348 310 Z " />
<glyph glyph-name="uni00B6" unicode="&#xb6;" horiz-adv-x="597" d="M247 -92 L247 218 Q179 229 130.5 261 Q82 293 56 343.5 Q30 394 30 460 Q30 538 65 594 Q100 650 166 680 Q232 710 324 710 L357 710 L357 -92 L247 -92 Z M427 -92 L427 710 L537 710 L537 -92 L427 -92 Z " />
<glyph glyph-name="uni0023" unicode="&#x23;" horiz-adv-x="674" d="M123 0 L137 175 L50 175 L60 294 L147 294 L156 402 L69 402 L79 521 L165 521 L179 690 L311 690 L297 521 L405 521 L419 690 L551 690 L537 521 L624 521 L614 402 L528 402 L519 294 L605 294 L595 175 L509 175 L495 0 L363 0 L377 175 L269 175 L255 0 L123 0 Z M279 294 L387 294 L396 402 L288 402 L279 294 Z " />
<glyph glyph-name="uni007C" unicode="&#x7c;" horiz-adv-x="294" d="M65 -122 L65 770 L229 770 L229 -122 L65 -122 Z " />
<glyph glyph-name="uni2020" unicode="&#x2020;" horiz-adv-x="496" d="M162 -82 L162 402 L30 402 L30 551 L162 551 L162 710 L334 710 L334 551 L466 551 L466 402 L334 402 L334 -82 L162 -82 Z " />
<glyph glyph-name="uni2021" unicode="&#x2021;" horiz-adv-x="526" d="M45 82 L45 231 L177 231 L177 402 L45 402 L45 551 L177 551 L177 710 L349 710 L349 551 L481 551 L481 402 L349 402 L349 231 L481 231 L481 82 L349 82 L349 -82 L177 -82 L177 82 L45 82 Z " />
<glyph glyph-name="uni0026" unicode="&#x26;" horiz-adv-x="720" d="M283 -20 Q226 -20 178.5 -5 Q131 10 97 38 Q63 66 44 104.5 Q25 143 25 189 Q25 249 57.5 298 Q90 347 149 378 Q122 409 106 434.5 Q90 460 83.5 484 Q77 508 77 534 Q77 574 94 609 Q111 644 141 670 Q171 696 211 710.5 Q251 725 298 725 Q343 725 381.5 711.5 Q420 698 448 674 Q476 650 491.5 616.5 Q507 583 507 544 Q507 488 473.5 441.5 Q440 395 375 359 L486 246 Q502 276 512 313 Q522 350 525 394 L669 383 Q661 311 640.5 250 Q620 189 588 141 L725 0 L516 0 L482 35 Q440 8 390 -6 Q340 -20 283 -20 Z M244 531 Q244 515 253.5 496 Q263 477 287 450 Q316 465 333 488 Q350 511 350 536 Q350 558 336 572 Q322 586 300 586 Q276 586 260 570.5 Q244 555 244 531 Z M199 215 Q199 188 211.5 168.5 Q224 149 247 138 Q270 127 300 127 Q340 127 377 142 L237 286 Q219 274 209 255.5 Q199 237 199 215 Z " />
<glyph glyph-name="uni002A" unicode="&#x2a;" horiz-adv-x="453" d="M157 287 L49 365 L143 470 L5 500 L46 626 L174 570 L160 710 L294 710 L280 570 L408 626 L449 500 L311 470 L405 365 L297 287 L227 408 L157 287 Z " />
<glyph glyph-name="uni002D" unicode="&#x2d;" horiz-adv-x="370" d="M40 195 L40 355 L330 355 L330 195 L40 195 Z " />
<glyph glyph-name="uni2013" unicode="&#x2013;" horiz-adv-x="500" d="M0 207 L0 343 L500 343 L500 207 L0 207 Z " />
<glyph glyph-name="uni2014" unicode="&#x2014;" horiz-adv-x="1000" d="M0 207 L0 343 L1000 343 L1000 207 L0 207 Z " />
<glyph glyph-name="uni0028" unicode="&#x28;" horiz-adv-x="382" d="M372 -152 L198 -152 Q120 -41 80 80 Q40 201 40 324 Q40 447 80 568 Q120 689 198 800 L372 800 Q292 682 252 562 Q212 442 212 324 Q212 206 252 86 Q292 -34 372 -152 Z " />
<glyph glyph-name="uni0029" unicode="&#x29;" horiz-adv-x="382" d="M10 800 L184 800 Q262 689 302 568 Q342 447 342 324 Q342 201 302 80 Q262 -41 184 -152 L10 -152 Q90 -34 130 86 Q170 206 170 324 Q170 442 130 562 Q90 682 10 800 Z " />
<glyph glyph-name="uni002F" unicode="&#x2f;" horiz-adv-x="514" d="M4 -122 L340 770 L510 770 L174 -122 L4 -122 Z " />
<glyph glyph-name="uni005C" unicode="&#x5c;" horiz-adv-x="514" d="M340 -122 L4 770 L174 770 L510 -122 L340 -122 Z " />
<glyph glyph-name="uni005B" unicode="&#x5b;" horiz-adv-x="393" d="M65 -152 L65 800 L353 800 L353 657 L229 657 L229 -9 L353 -9 L353 -152 L65 -152 Z " />
<glyph glyph-name="uni005D" unicode="&#x5d;" horiz-adv-x="393" d="M40 -152 L40 -9 L164 -9 L164 657 L40 657 L40 800 L328 800 L328 -152 L40 -152 Z " />
<glyph glyph-name="uni007B" unicode="&#x7b;" horiz-adv-x="413" d="M373 800 L373 657 L339 657 Q298 657 278.5 636 Q259 615 259 571 Q259 552 262.5 529 Q266 506 270 484 Q274 462 274 444 Q274 418 264.5 393 Q255 368 238.5 350 Q222 332 201 324 Q222 316 238.5 298 Q255 280 264.5 255 Q274 230 274 204 Q274 186 270 164 Q266 142 262.5 119 Q259 96 259 77 Q259 33 278.5 12 Q298 -9 339 -9 L373 -9 L373 -152 L324 -152 Q210 -152 150 -99.5 Q90 -47 90 52 Q90 82 94 111 Q98 140 101.5 163.5 Q105 187 105 202 Q105 256 45 256 L30 256 L30 392 L45 392 Q105 392 105 446 Q105 461 101.5 484.5 Q98 508 94 537 Q90 566 90 596 Q90 695 150 747.5 Q210 800 324 800 L373 800 Z " />
<glyph glyph-name="uni007D" unicode="&#x7d;" horiz-adv-x="413" d="M40 -152 L40 -9 L74 -9 Q115 -9 134.5 12 Q154 33 154 77 Q154 96 150 119 Q146 142 142.5 164 Q139 186 139 204 Q139 230 148.5 255 Q158 280 175 298 Q192 316 212 324 Q192 332 175 350 Q158 368 148.5 393 Q139 418 139 444 Q139 462 142.5 484 Q146 506 150 529 Q154 552 154 571 Q154 615 134.5 636 Q115 657 74 657 L40 657 L40 800 L89 800 Q203 800 263 747.5 Q323 695 323 596 Q323 566 319 537 Q315 508 311.5 484.5 Q308 461 308 446 Q308 392 368 392 L383 392 L383 256 L368 256 Q308 256 308 202 Q308 187 311.5 163.5 Q315 140 319 111 Q323 82 323 52 Q323 -47 263 -99.5 Q203 -152 89 -152 L40 -152 Z " />
<glyph glyph-name="uni2022" unicode="&#x2022;" horiz-adv-x="366" d="M183 132 Q153 132 127 143 Q101 154 81.5 173.5 Q62 193 51 219.5 Q40 246 40 276 Q40 306 51 332.5 Q62 359 81.5 378.5 Q101 398 127 409 Q153 420 183 420 Q213 420 239 409 Q265 398 284.5 378.5 Q304 359 315 332.5 Q326 306 326 276 Q326 246 315 219.5 Q304 193 284.5 173.5 Q265 154 239 143 Q213 132 183 132 Z " />
<glyph glyph-name="uni2039" unicode="&#x2039;" horiz-adv-x="338" d="M150 89 L20 285 L150 481 L303 481 L178 285 L303 89 L150 89 Z " />
<glyph glyph-name="uni203A" unicode="&#x203a;" horiz-adv-x="338" d="M35 89 L160 285 L35 481 L188 481 L318 285 L188 89 L35 89 Z " />
<glyph glyph-name="uni00AB" unicode="&#xab;" horiz-adv-x="583" d="M150 89 L20 285 L150 481 L303 481 L178 285 L303 89 L150 89 Z M395 89 L265 285 L395 481 L548 481 L423 285 L548 89 L395 89 Z " />
<glyph glyph-name="uni00BB" unicode="&#xbb;" horiz-adv-x="583" d="M35 89 L160 285 L35 481 L188 481 L318 285 L188 89 L35 89 Z M280 89 L405 285 L280 481 L433 481 L563 285 L433 89 L280 89 Z " />
<glyph glyph-name="uni0040" unicode="&#x40;" horiz-adv-x="1023" d="M479 34 Q436 34 398.5 51.5 Q361 69 333 99.5 Q305 130 289.5 171 Q274 212 274 260 Q274 307 289.5 348 Q305 389 333 420.5 Q361 452 397.5 469.5 Q434 487 476 487 Q516 487 548.5 469 Q581 451 601 420 L604 476 L743 476 L743 203 Q743 178 753 164.5 Q763 151 782 151 Q804 151 820 169.5 Q836 188 844.5 221 Q853 254 853 297 Q853 365 829 420 Q805 475 761.5 514.5 Q718 554 658 575.5 Q598 597 526 597 Q449 597 384.5 571.5 Q320 546 273 499.5 Q226 453 200.5 391 Q175 329 175 256 Q175 184 200.5 122.5 Q226 61 271.5 15.5 Q317 -30 378.5 -55.5 Q440 -81 513 -81 Q562 -81 613.5 -68.5 Q665 -56 709 -34 L764 -142 Q713 -173 649 -189 Q585 -205 516 -205 Q433 -205 360 -182.5 Q287 -160 227.5 -119 Q168 -78 125 -21 Q82 36 58.5 105.5 Q35 175 35 254 Q35 333 58.5 404 Q82 475 125.5 533 Q169 591 229.5 633 Q290 675 364 698 Q438 721 522 721 Q602 721 673 701 Q744 681 802 644 Q860 607 901.5 555 Q943 503 965.5 438.5 Q988 374 988 301 Q988 220 962 160 Q936 100 887 67.5 Q838 35 771 35 Q716 35 677.5 56.5 Q639 78 620 117 Q600 79 563 56.5 Q526 34 479 34 Z M510 171 Q534 171 553 183 Q572 195 583 215.5 Q594 236 594 262 Q594 288 583 308.5 Q572 329 553 341 Q534 353 510 353 Q486 353 467 341 Q448 329 437 308.5 Q426 288 426 262 Q426 236 437 215.5 Q448 195 467 183 Q486 171 510 171 Z " />
<glyph glyph-name="uni00B7" unicode="&#xb7;" horiz-adv-x="299" d="M149 165 Q118 165 93 180 Q68 195 53.5 220 Q39 245 39 276 Q39 307 53.5 332 Q68 357 93 372 Q118 387 149 387 Q180 387 205 372 Q230 357 244.5 332 Q259 307 259 276 Q259 245 244.5 220 Q230 195 205 180 Q180 165 149 165 Z " />
<glyph glyph-name="uni0041" unicode="A" horiz-adv-x="792" d="M10 0 L289 710 L502 710 L782 0 L573 0 L529 124 L255 124 L212 0 L10 0 Z M310 281 L474 281 L392 514 L310 281 Z " />
<glyph glyph-name="uni0042" unicode="B" horiz-adv-x="634" d="M55 0 L55 710 L337 710 Q414 710 469 687.5 Q524 665 554 623 Q584 581 584 523 Q584 474 561.5 435.5 Q539 397 498 375 Q553 354 583.5 309 Q614 264 614 204 Q614 142 581 96 Q548 50 487 25 Q426 0 342 0 L55 0 Z M240 560 L240 431 L319 431 Q356 431 375 447.5 Q394 464 394 495 Q394 526 375 543 Q356 560 319 560 L240 560 Z M240 150 L339 150 Q380 150 401.5 168.5 Q423 187 423 222 Q423 257 401.5 275.5 Q380 294 339 294 L240 294 L240 150 Z " />
<glyph glyph-name="uni0043" unicode="C" horiz-adv-x="756" d="M401 -20 Q338 -20 282 -2 Q226 16 181 49 Q136 82 103 127.5 Q70 173 52.5 229.5 Q35 286 35 350 Q35 414 53 471.5 Q71 529 104 576.5 Q137 624 183 658.5 Q229 693 284.5 711.5 Q340 730 402 730 Q462 730 515.5 713 Q569 696 612 664.5 Q655 633 685 589 Q715 545 729 491 L532 450 Q513 496 478 521 Q443 546 398 546 Q364 546 335.5 531.5 Q307 517 286 491 Q265 465 253.5 430 Q242 395 242 353 Q242 298 262 255 Q282 212 318 188 Q354 164 400 164 Q496 164 539 260 L736 219 Q722 164 691.5 120 Q661 76 617 44.5 Q573 13 518.5 -3.5 Q464 -20 401 -20 Z " />
<glyph glyph-name="uni0044" unicode="D" horiz-adv-x="774" d="M55 0 L55 710 L362 710 Q445 710 514 684 Q583 658 633.5 611 Q684 564 711.5 499.5 Q739 435 739 357 Q739 279 711 213.5 Q683 148 632 100 Q581 52 511.5 26 Q442 0 359 0 L55 0 Z M255 176 L349 176 Q406 176 447 198 Q488 220 510 260 Q532 300 532 355 Q532 410 510 450 Q488 490 447 512 Q406 534 349 534 L255 534 L255 176 Z " />
<glyph glyph-name="uni0045" unicode="E" horiz-adv-x="584" d="M55 0 L55 710 L528 710 L528 546 L245 546 L245 443 L493 443 L493 280 L245 280 L245 163 L539 163 L539 0 L55 0 Z " />
<glyph glyph-name="uni0046" unicode="F" horiz-adv-x="553" d="M55 0 L55 710 L518 710 L518 541 L250 541 L250 418 L483 418 L483 250 L250 250 L250 0 L55 0 Z " />
<glyph glyph-name="uni0047" unicode="G" horiz-adv-x="815" d="M421 -20 Q354 -20 295.5 -2 Q237 16 189 49.5 Q141 83 106.5 129.5 Q72 176 53.5 232.5 Q35 289 35 353 Q35 418 53.5 475 Q72 532 106.5 579 Q141 626 189 659.5 Q237 693 295.5 711.5 Q354 730 421 730 Q498 730 563.5 705.5 Q629 681 679 635.5 Q729 590 757 525 L560 471 Q512 551 420 551 Q368 551 327.5 526 Q287 501 264.5 457.5 Q242 414 242 357 Q242 314 255.5 277.5 Q269 241 294 214.5 Q319 188 353 173.5 Q387 159 427 159 Q464 159 494 171 Q524 183 545.5 204 Q567 225 576 253 L434 253 L434 411 L785 411 L785 324 Q785 249 758 186 Q731 123 682 77 Q633 31 566.5 5.5 Q500 -20 421 -20 Z " />
<glyph glyph-name="uni0048" unicode="H" horiz-adv-x="762" d="M55 0 L55 710 L255 710 L255 454 L507 454 L507 710 L707 710 L707 0 L507 0 L507 278 L255 278 L255 0 L55 0 Z " />
<glyph glyph-name="uni0049" unicode="I" horiz-adv-x="310" d="M55 0 L55 710 L255 710 L255 0 L55 0 Z " />
<glyph glyph-name="uni004A" unicode="J" horiz-adv-x="577" d="M269 -15 Q200 -15 146.5 11 Q93 37 56.5 85.5 Q20 134 5 204 L199 232 Q211 164 264 164 Q293 164 310 184 Q327 204 327 239 L327 710 L527 710 L527 247 Q527 189 508.5 141 Q490 93 455.5 58 Q421 23 373.5 4 Q326 -15 269 -15 Z " />
<glyph glyph-name="uni004B" unicode="K" horiz-adv-x="734" d="M55 0 L55 710 L255 710 L255 401 L471 710 L693 710 L449 381 L729 0 L482 0 L255 337 L255 0 L55 0 Z " />
<glyph glyph-name="uni004C" unicode="L" horiz-adv-x="559" d="M55 0 L55 710 L255 710 L255 176 L524 176 L524 0 L55 0 Z " />
<glyph glyph-name="uni004D" unicode="M" horiz-adv-x="872" d="M55 0 L55 710 L256 710 L438 343 L620 710 L817 710 L817 0 L627 0 L627 400 L504 148 L368 148 L245 399 L245 0 L55 0 Z " />
<glyph glyph-name="uni004E" unicode="N" horiz-adv-x="752" d="M55 0 L55 710 L225 710 L507 295 L507 710 L697 710 L697 0 L527 0 L245 415 L245 0 L55 0 Z " />
<glyph glyph-name="uni004F" unicode="O" horiz-adv-x="838" d="M418 -20 Q352 -20 294 -2 Q236 16 188.5 50 Q141 84 106.5 130 Q72 176 53.5 233 Q35 290 35 354 Q35 418 54 475 Q73 532 107.5 578.5 Q142 625 189.5 659 Q237 693 295.5 711.5 Q354 730 420 730 Q486 730 544 712 Q602 694 649.5 660 Q697 626 731.5 580 Q766 534 784.5 477 Q803 420 803 356 Q803 292 784 235 Q765 178 730.5 131.5 Q696 85 648.5 51 Q601 17 542.5 -1.5 Q484 -20 418 -20 Z M419 164 Q458 164 490 178 Q522 192 546 218 Q570 244 583 278.5 Q596 313 596 355 Q596 397 583 431.5 Q570 466 546 492 Q522 518 490 532 Q458 546 419 546 Q380 546 348 532 Q316 518 292 492 Q268 466 255 431.5 Q242 397 242 355 Q242 313 255 278.5 Q268 244 292 218 Q316 192 348 178 Q380 164 419 164 Z " />
<glyph glyph-name="uni0050" unicode="P" horiz-adv-x="622" d="M55 0 L55 710 L308 710 Q401 710 466.5 680.5 Q532 651 567 595.5 Q602 540 602 462 Q602 406 581.5 360.5 Q561 315 523 282 Q485 249 432 231 Q379 213 315 213 Q282 213 245 219 L245 0 L55 0 Z M245 551 L245 378 Q281 372 309 372 Q356 372 382 395.5 Q408 419 408 461 Q408 504 382 527.5 Q356 551 307 551 L245 551 Z " />
<glyph glyph-name="uni0051" unicode="Q" horiz-adv-x="838" d="M411 -20 Q347 -20 290.5 -1.5 Q234 17 187 50.5 Q140 84 106 130.5 Q72 177 53.5 233 Q35 289 35 353 Q35 417 54 474 Q73 531 107.5 578 Q142 625 189.5 659 Q237 693 295.5 711.5 Q354 730 419 730 Q484 730 542 712 Q600 694 648 660.5 Q696 627 730.5 581 Q765 535 784 479 Q803 423 803 361 Q803 288 777 223 Q751 158 705 108 L779 15 L656 -84 L576 15 Q539 -2 497 -11 Q455 -20 411 -20 Z M421 159 Q442 159 462 163 L359 291 L475 385 L580 255 Q590 276 595.5 300 Q601 324 601 351 Q601 394 588 429.5 Q575 465 550.5 491 Q526 517 493.5 531.5 Q461 546 422 546 Q368 546 327.5 521.5 Q287 497 264.5 453.5 Q242 410 242 352 Q242 310 255 274.5 Q268 239 292.5 213 Q317 187 349.5 173 Q382 159 421 159 Z " />
<glyph glyph-name="uni0052" unicode="R" horiz-adv-x="655" d="M55 0 L55 710 L310 710 Q402 710 469 681.5 Q536 653 571.5 600.5 Q607 548 607 475 Q607 436 593 399.5 Q579 363 554 332 Q529 301 495 280 L650 0 L440 0 L330 227 Q316 226 302 226 Q276 226 245 231 L245 0 L55 0 Z M245 551 L245 389 Q263 385 279.5 383.5 Q296 382 317 382 Q361 382 387 405 Q413 428 413 469 Q413 508 385.5 529.5 Q358 551 309 551 L245 551 Z " />
<glyph glyph-name="uni0053" unicode="S" horiz-adv-x="590" d="M293 -15 Q222 -15 164 9 Q106 33 68 77.5 Q30 122 15 183 L199 217 Q209 185 235 164.5 Q261 144 296 144 Q331 144 353 160 Q375 176 375 202 Q375 222 364.5 235 Q354 248 330 257 Q306 266 265 274 L244 278 Q178 290 131 320.5 Q84 351 58.5 395 Q33 439 33 494 Q33 544 53 586 Q73 628 109.5 659 Q146 690 195 707.5 Q244 725 301 725 Q368 725 421.5 701.5 Q475 678 510.5 635 Q546 592 559 533 L379 498 Q371 528 349.5 547 Q328 566 297 566 Q266 566 246.5 550 Q227 534 227 510 Q227 492 237 479.5 Q247 467 269.5 458.5 Q292 450 331 443 L351 439 Q456 418 513 361 Q570 304 570 221 Q570 170 549.5 126.5 Q529 83 492 51.5 Q455 20 404 2.5 Q353 -15 293 -15 Z " />
<glyph glyph-name="uni0054" unicode="T" horiz-adv-x="644" d="M222 0 L222 534 L35 534 L35 710 L609 710 L609 534 L422 534 L422 0 L222 0 Z " />
<glyph glyph-name="uni0055" unicode="U" horiz-adv-x="752" d="M375 -20 Q301 -20 241 2 Q181 24 138.5 66 Q96 108 73 166.5 Q50 225 50 297 L50 710 L250 710 L250 306 Q250 262 265.5 230.5 Q281 199 309.5 181.5 Q338 164 376 164 Q414 164 442.5 181.5 Q471 199 486.5 230.5 Q502 262 502 306 L502 710 L702 710 L702 297 Q702 225 679 166.5 Q656 108 613 66 Q570 24 510 2 Q450 -20 375 -20 Z " />
<glyph glyph-name="uni0056" unicode="V" horiz-adv-x="772" d="M277 0 L10 710 L230 710 L391 212 L551 710 L762 710 L496 0 L277 0 Z " />
<glyph glyph-name="uni0057" unicode="W" horiz-adv-x="1072" d="M1047 710 L832 0 L652 0 L537 451 L422 0 L240 0 L25 710 L235 710 L338 267 L451 710 L628 710 L741 267 L844 710 L1047 710 Z " />
<glyph glyph-name="uni0058" unicode="X" horiz-adv-x="727" d="M5 0 L253 373 L36 710 L257 710 L366 512 L475 710 L691 710 L474 373 L722 0 L492 0 L360 227 L230 0 L5 0 Z " />
<glyph glyph-name="uni0059" unicode="Y" horiz-adv-x="702" d="M251 0 L251 271 L5 710 L226 710 L355 445 L483 710 L697 710 L451 271 L451 0 L251 0 Z " />
<glyph glyph-name="uni005A" unicode="Z" horiz-adv-x="659" d="M30 0 L30 141 L359 543 L45 543 L45 710 L612 710 L612 569 L282 167 L634 167 L634 0 L30 0 Z " />
<glyph glyph-name="uni0061" unicode="a" horiz-adv-x="572" d="M204 -15 Q165 -15 131.5 -2.5 Q98 10 73 32.5 Q48 55 34 85 Q20 115 20 150 Q20 202 48 241 Q76 280 126.5 302 Q177 324 244 324 Q273 324 296 320 Q319 316 345 306 L345 332 Q345 366 325.5 387.5 Q306 409 275 409 Q251 409 233 396.5 Q215 384 208 364 L39 390 Q47 426 69 456 Q91 486 123 507.5 Q155 529 194.5 541 Q234 553 279 553 Q334 553 379.5 536 Q425 519 458 488.5 Q491 458 509 415.5 Q527 373 527 322 L527 0 L359 0 L354 63 Q334 26 294.5 5.5 Q255 -15 204 -15 Z M203 163 Q203 143 219.5 129.5 Q236 116 261 116 Q284 116 303.5 126.5 Q323 137 334 154.5 Q345 172 345 195 L345 201 Q331 207 314 211 Q297 215 281 215 Q245 215 224 201 Q203 187 203 163 Z " />
<glyph glyph-name="uni0062" unicode="b" horiz-adv-x="655" d="M45 0 L45 750 L232 750 L232 476 Q259 512 300 532.5 Q341 553 389 553 Q439 553 482 531.5 Q525 510 557 471.5 Q589 433 607 382 Q625 331 625 272 Q625 211 606 159 Q587 107 553 68 Q519 29 473.5 7 Q428 -15 375 -15 Q325 -15 286 5.5 Q247 26 222 65 L218 0 L45 0 Z M332 153 Q362 153 385 168 Q408 183 421.5 209 Q435 235 435 268 Q435 301 421.5 327 Q408 353 385 368 Q362 383 332 383 Q303 383 280 368 Q257 353 244 327 Q231 301 231 268 Q231 235 244 209 Q257 183 280 168 Q303 153 332 153 Z " />
<glyph glyph-name="uni0063" unicode="c" horiz-adv-x="591" d="M307 -15 Q248 -15 197.5 6 Q147 27 109.5 65 Q72 103 51 153.5 Q30 204 30 264 Q30 326 51.5 378.5 Q73 431 111 470 Q149 509 200.5 531 Q252 553 312 553 Q376 553 429 528 Q482 503 518 457.5 Q554 412 566 352 L390 325 Q379 353 358.5 368.5 Q338 384 313 384 Q286 384 265 369 Q244 354 232 328 Q220 302 220 268 Q220 234 232 208.5 Q244 183 265 168.5 Q286 154 313 154 Q341 154 362.5 169.5 Q384 185 395 213 L571 186 Q562 141 538.5 104.5 Q515 68 480 41 Q445 14 401 -0.5 Q357 -15 307 -15 Z " />
<glyph glyph-name="uni0064" unicode="d" horiz-adv-x="655" d="M267 -15 Q217 -15 174 6.5 Q131 28 98.5 66 Q66 104 48 155 Q30 206 30 265 Q30 326 49 378.5 Q68 431 102 470 Q136 509 181.5 531 Q227 553 280 553 Q325 553 361.5 536 Q398 519 423 487 L423 750 L610 750 L610 0 L437 0 L432 76 Q406 34 362.5 9.5 Q319 -15 267 -15 Z M323 155 Q352 155 375 170 Q398 185 411 211 Q424 237 424 270 Q424 303 411 329 Q398 355 375 370 Q352 385 323 385 Q294 385 270.5 370 Q247 355 233.5 329 Q220 303 220 270 Q220 237 233.5 211 Q247 185 270.5 170 Q294 155 323 155 Z " />
<glyph glyph-name="uni0065" unicode="e" horiz-adv-x="605" d="M308 -15 Q247 -15 196 6 Q145 27 108 65 Q71 103 50.5 155.5 Q30 208 30 271 Q30 331 50.5 382.5 Q71 434 108.5 472.5 Q146 511 196 532 Q246 553 305 553 Q368 553 418.5 532 Q469 511 505 472 Q541 433 560.5 378.5 Q580 324 580 256 L580 222 L221 222 Q230 179 254 156.5 Q278 134 314 134 Q367 134 399 180 L570 142 Q550 94 511.5 59 Q473 24 420.5 4.5 Q368 -15 308 -15 Z M305 420 Q271 420 249 398 Q227 376 219 334 L387 334 Q380 376 359 398 Q338 420 305 420 Z " />
<glyph glyph-name="uni0066" unicode="f" horiz-adv-x="435" d="M106 0 L106 395 L20 395 L20 538 L106 538 L106 554 Q106 616 133 662 Q160 708 209 734 Q258 760 322 760 Q354 760 382 754 Q410 748 437 734 L408 604 Q398 610 383.5 613.5 Q369 617 357 617 Q327 617 310 599.5 Q293 582 293 552 L293 538 L415 538 L415 395 L293 395 L293 0 L106 0 Z " />
<glyph glyph-name="uni0067" unicode="g" horiz-adv-x="645" d="M266 25 Q218 25 175 45.5 Q132 66 99.5 103 Q67 140 48.5 187.5 Q30 235 30 289 Q30 343 49 391 Q68 439 101.5 475.5 Q135 512 179 532.5 Q223 553 273 553 Q321 553 359.5 533.5 Q398 514 423 479 L427 538 L600 538 L600 78 Q600 15 579.5 -36.5 Q559 -88 521 -125 Q483 -162 430.5 -182 Q378 -202 314 -202 Q252 -202 199.5 -183.5 Q147 -165 108.5 -131.5 Q70 -98 52 -51 L236 -16 Q248 -33 268.5 -43 Q289 -53 314 -53 Q344 -53 366 -39.5 Q388 -26 400.5 -1 Q413 24 413 56 L413 97 Q388 63 350.5 44 Q313 25 266 25 Z M316 184 Q344 184 366 198 Q388 212 401 236 Q414 260 414 289 Q414 318 401 342 Q388 366 366 380 Q344 394 316 394 Q289 394 267.5 380 Q246 366 233 342 Q220 318 220 289 Q220 260 233 236 Q246 212 267.5 198 Q289 184 316 184 Z " />
<glyph glyph-name="uni0068" unicode="h" horiz-adv-x="608" d="M45 0 L45 750 L232 750 L232 480 Q255 514 292.5 533.5 Q330 553 377 553 Q434 553 475.5 525.5 Q517 498 540 447 Q563 396 563 328 L563 0 L376 0 L376 300 Q376 338 358 361 Q340 384 309 384 Q286 384 269 373 Q252 362 242 343 Q232 324 232 300 L232 0 L45 0 Z " />
<glyph glyph-name="uni0069" unicode="i" horiz-adv-x="277" d="M238 677 Q238 650 225 628 Q212 606 189 593.5 Q166 581 138 581 Q110 581 87.5 593.5 Q65 606 52 628 Q39 650 39 677 Q39 704 52 726 Q65 748 87.5 760.5 Q110 773 138 773 Q166 773 189 760.5 Q212 748 225 726 Q238 704 238 677 Z M45 0 L45 538 L232 538 L232 0 L45 0 Z " />
<glyph glyph-name="uni006A" unicode="j" horiz-adv-x="282" d="M243 677 Q243 650 230 628 Q217 606 194.5 593.5 Q172 581 143 581 Q115 581 92.5 593.5 Q70 606 57 628 Q44 650 44 677 Q44 704 57 726 Q70 748 92.5 760.5 Q115 773 143 773 Q172 773 194.5 760.5 Q217 748 230 726 Q243 704 243 677 Z M38 -197 Q-23 -197 -72 -171 L-43 -34 Q-34 -38 -21 -41 Q-8 -44 1 -44 Q50 -44 50 16 L50 538 L237 538 L237 9 Q237 -54 212.5 -100 Q188 -146 143 -171.5 Q98 -197 38 -197 Z " />
<glyph glyph-name="uni006B" unicode="k" horiz-adv-x="622" d="M45 0 L45 750 L227 750 L227 324 L394 538 L598 538 L401 300 L622 0 L399 0 L227 262 L227 0 L45 0 Z " />
<glyph glyph-name="uni006C" unicode="l" horiz-adv-x="277" d="M45 0 L45 750 L232 750 L232 0 L45 0 Z " />
<glyph glyph-name="uni006D" unicode="m" horiz-adv-x="931" d="M45 0 L45 538 L218 538 L223 465 Q245 505 284 529 Q323 553 372 553 Q422 553 461.5 528 Q501 503 524 457 Q548 501 593 527 Q638 553 695 553 Q754 553 797 525 Q840 497 863 444.5 Q886 392 886 320 L886 0 L699 0 L699 297 Q699 336 681 360 Q663 384 634 384 Q612 384 595.5 372.5 Q579 361 569 341.5 Q559 322 559 297 L559 0 L372 0 L372 297 Q372 337 354 360.5 Q336 384 306 384 Q284 384 267.5 372.5 Q251 361 241.5 341.5 Q232 322 232 297 L232 0 L45 0 Z " />
<glyph glyph-name="uni006E" unicode="n" horiz-adv-x="608" d="M45 0 L45 538 L218 538 L223 465 Q245 506 285 529.5 Q325 553 377 553 Q434 553 475.5 525.5 Q517 498 540 447 Q563 396 563 328 L563 0 L376 0 L376 300 Q376 338 358 361 Q340 384 309 384 Q286 384 269 373 Q252 362 242 343 Q232 324 232 300 L232 0 L45 0 Z " />
<glyph glyph-name="uni006F" unicode="o" horiz-adv-x="644" d="M320 -15 Q258 -15 205 6.5 Q152 28 113 66.5 Q74 105 52 156.5 Q30 208 30 268 Q30 329 52 381 Q74 433 114 471.5 Q154 510 207.5 531.5 Q261 553 324 553 Q386 553 439 531.5 Q492 510 531 471.5 Q570 433 592 381.5 Q614 330 614 270 Q614 209 592 157 Q570 105 530 66.5 Q490 28 436.5 6.5 Q383 -15 320 -15 Z M322 154 Q351 154 374 169 Q397 184 410.5 210 Q424 236 424 269 Q424 302 410.5 328 Q397 354 374 369 Q351 384 322 384 Q293 384 270 369 Q247 354 233.5 328 Q220 302 220 269 Q220 236 233.5 210 Q247 184 270 169 Q293 154 322 154 Z " />
<glyph glyph-name="uni0070" unicode="p" horiz-adv-x="655" d="M45 -187 L45 538 L218 538 L223 462 Q249 504 292.5 528.5 Q336 553 388 553 Q438 553 481 531.5 Q524 510 556.5 472 Q589 434 607 383 Q625 332 625 273 Q625 212 606 159.5 Q587 107 553 68 Q519 29 473.5 7 Q428 -15 375 -15 Q330 -15 293.5 2 Q257 19 232 51 L232 -187 L45 -187 Z M332 153 Q362 153 385 168 Q408 183 421.5 209 Q435 235 435 268 Q435 301 421.5 327 Q408 353 385 368 Q362 383 332 383 Q303 383 280 368 Q257 353 244 327 Q231 301 231 268 Q231 235 244 209 Q257 183 280 168 Q303 153 332 153 Z " />
<glyph glyph-name="uni0071" unicode="q" horiz-adv-x="655" d="M267 -15 Q217 -15 174 6.5 Q131 28 98.5 66 Q66 104 48 155 Q30 206 30 265 Q30 326 49 378.5 Q68 431 102 470 Q136 509 181.5 531 Q227 553 280 553 Q330 553 369 532.5 Q408 512 433 473 L437 538 L610 538 L610 -187 L423 -187 L423 62 Q396 26 355.5 5.5 Q315 -15 267 -15 Z M323 155 Q352 155 375 170 Q398 185 411 211 Q424 237 424 270 Q424 303 411 329 Q398 355 375 370 Q352 385 323 385 Q294 385 270.5 370 Q247 355 233.5 329 Q220 303 220 270 Q220 237 233.5 211 Q247 185 270.5 170 Q294 155 323 155 Z " />
<glyph glyph-name="uni0072" unicode="r" horiz-adv-x="415" d="M45 0 L45 538 L218 538 L224 451 Q244 497 277 521 Q310 545 354 545 Q380 545 400 536 L382 349 Q361 356 336 356 Q232 356 232 247 L232 0 L45 0 Z " />
<glyph glyph-name="uni0073" unicode="s" horiz-adv-x="512" d="M256 -15 Q196 -15 147 2.5 Q98 20 64 53 Q30 86 15 131 L183 158 Q190 138 210.5 126.5 Q231 115 258 115 Q284 115 299 125.5 Q314 136 314 154 Q314 173 296 183 Q278 193 234 199 L215 202 Q125 216 77 260 Q29 304 29 372 Q29 412 45 445 Q61 478 91 502 Q121 526 161.5 539.5 Q202 553 252 553 Q308 553 354.5 535.5 Q401 518 433 486 Q465 454 478 411 L312 384 Q295 423 252 423 Q229 423 215 412.5 Q201 402 201 385 Q201 374 207.5 366.5 Q214 359 230.5 353.5 Q247 348 276 344 L295 341 Q389 326 438 283 Q487 240 487 172 Q487 130 470.5 96 Q454 62 423 37 Q392 12 349.5 -1.5 Q307 -15 256 -15 Z " />
<glyph glyph-name="uni0074" unicode="t" horiz-adv-x="461" d="M301 -15 Q206 -15 156 36.5 Q106 88 106 185 L106 395 L20 395 L20 538 L106 538 L106 723 L293 723 L293 538 L423 538 L423 395 L293 395 L293 203 Q293 138 349 138 Q365 138 382.5 142 Q400 146 416 153 L441 20 Q383 -15 301 -15 Z " />
<glyph glyph-name="uni0075" unicode="u" horiz-adv-x="604" d="M299 -15 Q222 -15 164.5 17 Q107 49 76 107.5 Q45 166 45 245 L45 538 L232 538 L232 241 Q232 200 251 177 Q270 154 303 154 Q335 154 353.5 177 Q372 200 372 241 L372 538 L559 538 L559 245 Q559 186 540.5 138.5 Q522 91 487.5 56.5 Q453 22 405.5 3.5 Q358 -15 299 -15 Z " />
<glyph glyph-name="uni0076" unicode="v" horiz-adv-x="591" d="M201 0 L5 538 L207 538 L298 192 L391 538 L586 538 L390 0 L201 0 Z " />
<glyph glyph-name="uni0077" unicode="w" horiz-adv-x="874" d="M182 0 L5 538 L198 538 L271 212 L359 538 L518 538 L607 209 L683 538 L869 538 L692 0 L522 0 L436 322 L349 0 L182 0 Z " />
<glyph glyph-name="uni0078" unicode="x" horiz-adv-x="619" d="M10 0 L206 284 L32 538 L240 538 L311 406 L384 538 L587 538 L413 284 L609 0 L391 0 L308 152 L223 0 L10 0 Z " />
<glyph glyph-name="uni0079" unicode="y" horiz-adv-x="591" d="M167 -197 Q102 -197 55 -171 L85 -33 Q97 -38 114.5 -42 Q132 -46 145 -46 Q170 -46 188 -34 Q206 -22 219 6 L5 538 L207 538 L306 188 L391 538 L586 538 L379 -26 Q346 -115 294.5 -156 Q243 -197 167 -197 Z " />
<glyph glyph-name="uni007A" unicode="z" horiz-adv-x="548" d="M35 0 L35 117 L265 395 L43 395 L43 538 L496 538 L496 421 L266 143 L513 143 L513 0 L35 0 Z " />
<glyph glyph-name="uni2122" unicode="&#x2122;" horiz-adv-x="820" d="M122 359 L122 607 L30 607 L30 710 L331 710 L331 607 L240 607 L240 359 L122 359 Z M377 359 L377 710 L497 710 L572 550 L648 710 L765 710 L765 359 L654 359 L654 531 L609 432 L534 432 L489 532 L489 359 L377 359 Z " />
<glyph glyph-name="uni00AA" unicode="&#xaa;" horiz-adv-x="448" d="M164 301 Q127 301 98 316.5 Q69 332 52 358 Q35 384 35 417 Q35 454 54.5 481 Q74 508 110 523.5 Q146 539 193 539 Q214 539 228.5 537 Q243 535 261 528 L261 545 Q261 567 248.5 580 Q236 593 217 593 Q203 593 191 585 Q179 577 175 565 L48 583 Q55 618 79.5 644 Q104 670 140 685 Q176 700 220 700 Q272 700 312.5 679 Q353 658 375.5 621.5 Q398 585 398 537 L398 311 L272 311 L269 352 Q254 328 227 314.5 Q200 301 164 301 Z M172 427 Q172 414 182 406.5 Q192 399 208 399 Q230 399 245.5 413.5 Q261 428 261 448 L262 444 L261 450 Q253 454 242.5 456 Q232 458 222 458 Q199 458 185.5 449.5 Q172 441 172 427 Z " />
<glyph glyph-name="uni00BA" unicode="&#xba;" horiz-adv-x="478" d="M239 301 Q194 301 156 316 Q118 331 90 358 Q62 385 46 421.5 Q30 458 30 500 Q30 542 46 578.5 Q62 615 90 642.5 Q118 670 156 685 Q194 700 239 700 Q284 700 322 685 Q360 670 388 642.5 Q416 615 432 578.5 Q448 542 448 500 Q448 458 432 421.5 Q416 385 388 358 Q360 331 322 316 Q284 301 239 301 Z M239 428 Q268 428 286.5 448 Q305 468 305 500 Q305 532 286.5 552.5 Q268 573 239 573 Q210 573 191.5 552.5 Q173 532 173 500 Q173 468 191.5 448 Q210 428 239 428 Z " />
<glyph glyph-name="uni00B0" unicode="&#xb0;" horiz-adv-x="387" d="M372 582 Q372 547 358 516.5 Q344 486 319.5 462.5 Q295 439 262.5 425.5 Q230 412 194 412 Q156 412 123.5 425 Q91 438 67 461.5 Q43 485 29 515.5 Q15 546 15 582 Q15 617 29 647.5 Q43 678 67.5 701.5 Q92 725 124.5 738.5 Q157 752 193 752 Q230 752 263 739 Q296 726 320 702.5 Q344 679 358 648.5 Q372 618 372 582 Z M252 582 Q252 600 244 614.5 Q236 629 223 637.5 Q210 646 193 646 Q176 646 163 637.5 Q150 629 142 614.5 Q134 600 134 582 Q134 564 142 549.5 Q150 535 163 526.5 Q176 518 193 518 Q210 518 223 526.5 Q236 535 244 549.5 Q252 564 252 582 Z " />
<glyph glyph-name="uni00A9" unicode="&#xa9;" horiz-adv-x="832" d="M416 -21 Q352 -21 295 -2.5 Q238 16 191.5 50 Q145 84 111 130.5 Q77 177 58.5 234 Q40 291 40 355 Q40 419 58.5 475.5 Q77 532 111 579 Q145 626 191.5 659.5 Q238 693 295 711.5 Q352 730 416 730 Q480 730 537 711.5 Q594 693 640.5 659.5 Q687 626 721 579 Q755 532 773.5 475.5 Q792 419 792 355 Q792 291 773.5 234 Q755 177 721 130.5 Q687 84 640.5 50 Q594 16 537 -2.5 Q480 -21 416 -21 Z M416 72 Q473 72 522.5 94 Q572 116 610 154.5 Q648 193 669 244.5 Q690 296 690 355 Q690 414 669 465 Q648 516 610 555 Q572 594 522.5 615.5 Q473 637 416 637 Q359 637 309 615.5 Q259 594 221.5 555 Q184 516 163 465 Q142 414 142 355 Q142 296 163 244.5 Q184 193 221.5 154.5 Q259 116 309 94 Q359 72 416 72 Z M418 159 Q376 159 340.5 174 Q305 189 278.5 215.5 Q252 242 237 277.5 Q222 313 222 355 Q222 398 237 435.5 Q252 473 279.5 500.5 Q307 528 343.5 543.5 Q380 559 423 559 Q469 559 507 541 Q545 523 570 490.5 Q595 458 603 415 L474 395 Q467 414 453.5 424.5 Q440 435 423 435 Q396 435 379 413.5 Q362 392 362 358 Q362 325 379 304 Q396 283 423 283 Q441 283 455.5 293.5 Q470 304 477 323 L607 303 Q600 260 573 228 Q546 196 506 177.5 Q466 159 418 159 Z " />
<glyph glyph-name="uni00AE" unicode="&#xae;" horiz-adv-x="536" d="M268 269 Q218 269 176.5 285.5 Q135 302 104.5 332.5 Q74 363 57 404.5 Q40 446 40 495 Q40 543 57 584 Q74 625 105 655.5 Q136 686 177.5 703 Q219 720 268 720 Q318 720 359.5 703.5 Q401 687 431.5 656.5 Q462 626 479 585 Q496 544 496 495 Q496 447 479 406 Q462 365 431 334 Q400 303 358.5 286 Q317 269 268 269 Z M268 332 Q302 332 332 344.5 Q362 357 384 379 Q406 401 418 430.5 Q430 460 430 495 Q430 530 418 559 Q406 588 384 610 Q362 632 332 644.5 Q302 657 268 657 Q234 657 204 644.5 Q174 632 152 610 Q130 588 118 559 Q106 530 106 495 Q106 460 118 430.5 Q130 401 152 379 Q174 357 204 344.5 Q234 332 268 332 Z M180 383 L180 611 L265 611 Q311 611 337 590.5 Q363 570 363 534 Q363 516 353.5 499 Q344 482 328 472 L374 383 L300 383 L269 453 L263 453 Q255 453 247 454 L247 383 L180 383 Z M247 555 L247 509 Q252 508 257 507.5 Q262 507 269 507 Q280 507 287 514 Q294 521 294 532 Q294 555 265 555 L247 555 Z " />
<glyph glyph-name="uni2018" unicode="&#x2018;" horiz-adv-x="265" d="M142 386 Q110 386 83 404 Q56 422 40.5 453 Q25 484 25 523 Q25 573 47 614 Q69 655 109.5 682.5 Q150 710 203 720 L226 636 Q196 630 172.5 617 Q149 604 135.5 586 Q122 568 122 548 Q136 556 154 556 Q176 556 194.5 545 Q213 534 224 515 Q235 496 235 472 Q235 448 222.5 428.5 Q210 409 189 397.5 Q168 386 142 386 Z " />
<glyph glyph-name="uni2019" unicode="&#x2019;" horiz-adv-x="265" d="M123 715 Q156 715 182.5 697 Q209 679 224.5 647.5 Q240 616 240 578 Q240 528 218 487 Q196 446 156 418 Q116 390 62 381 L39 465 Q69 470 92.5 483.5 Q116 497 129.5 515 Q143 533 143 553 Q129 545 111 545 Q88 545 70 556 Q52 567 41 586.5 Q30 606 30 629 Q30 653 42.5 672.5 Q55 692 76.5 703.5 Q98 715 123 715 Z " />
<glyph glyph-name="uni201A" unicode="&#x201a;" horiz-adv-x="275" d="M138 195 Q171 195 197.5 177 Q224 159 239.5 127.5 Q255 96 255 58 Q255 8 233 -33 Q211 -74 171 -102 Q131 -130 77 -139 L54 -55 Q84 -50 107.5 -36.5 Q131 -23 144.5 -5 Q158 13 158 33 Q144 25 126 25 Q103 25 85 36 Q67 47 56 66.5 Q45 86 45 109 Q45 133 57.5 152.5 Q70 172 91.5 183.5 Q113 195 138 195 Z " />
<glyph glyph-name="uni201C" unicode="&#x201c;" horiz-adv-x="510" d="M142 386 Q110 386 83 404 Q56 422 40.5 453 Q25 484 25 523 Q25 573 47 614 Q69 655 109.5 682.5 Q150 710 203 720 L226 636 Q196 630 172.5 617 Q149 604 135.5 586 Q122 568 122 548 Q136 556 154 556 Q176 556 194.5 545 Q213 534 224 515 Q235 496 235 472 Q235 448 222.5 428.5 Q210 409 189 397.5 Q168 386 142 386 Z M387 386 Q355 386 328 404 Q301 422 285.5 453 Q270 484 270 523 Q270 573 292 614 Q314 655 354.5 682.5 Q395 710 448 720 L471 636 Q441 630 417.5 617 Q394 604 380.5 586 Q367 568 367 548 Q381 556 399 556 Q421 556 439.5 545 Q458 534 469 515 Q480 496 480 472 Q480 448 467.5 428.5 Q455 409 434 397.5 Q413 386 387 386 Z " />
<glyph glyph-name="uni201D" unicode="&#x201d;" horiz-adv-x="510" d="M123 715 Q156 715 182.5 697 Q209 679 224.5 647.5 Q240 616 240 578 Q240 528 218 487 Q196 446 156 418 Q116 390 62 381 L39 465 Q69 470 92.5 483.5 Q116 497 129.5 515 Q143 533 143 553 Q129 545 111 545 Q88 545 70 556 Q52 567 41 586.5 Q30 606 30 629 Q30 653 42.5 672.5 Q55 692 76.5 703.5 Q98 715 123 715 Z M368 715 Q401 715 427.5 697 Q454 679 469.5 647.5 Q485 616 485 578 Q485 528 463 487 Q441 446 401 418 Q361 390 307 381 L284 465 Q314 470 337.5 483.5 Q361 497 374.5 515 Q388 533 388 553 Q374 545 356 545 Q333 545 315 556 Q297 567 286 586.5 Q275 606 275 629 Q275 653 287.5 672.5 Q300 692 321.5 703.5 Q343 715 368 715 Z " />
<glyph glyph-name="uni201E" unicode="&#x201e;" horiz-adv-x="520" d="M138 195 Q171 195 197.5 177 Q224 159 239.5 127.5 Q255 96 255 58 Q255 8 233 -33 Q211 -74 171 -102 Q131 -130 77 -139 L54 -55 Q84 -50 107.5 -36.5 Q131 -23 144.5 -5 Q158 13 158 33 Q144 25 126 25 Q103 25 85 36 Q67 47 56 66.5 Q45 86 45 109 Q45 133 57.5 152.5 Q70 172 91.5 183.5 Q113 195 138 195 Z M383 195 Q416 195 442.5 177 Q469 159 484.5 127.5 Q500 96 500 58 Q500 8 478 -33 Q456 -74 416 -102 Q376 -130 322 -139 L299 -55 Q329 -50 352.5 -36.5 Q376 -23 389.5 -5 Q403 13 403 33 Q389 25 371 25 Q348 25 330 36 Q312 47 301 66.5 Q290 86 290 109 Q290 133 302.5 152.5 Q315 172 336.5 183.5 Q358 195 383 195 Z " />
<glyph glyph-name="uni0131" unicode="&#x131;" horiz-adv-x="277" d="M45 0 L45 538 L232 538 L232 0 L45 0 Z " />
<glyph glyph-name="uni0237" unicode="&#x237;" horiz-adv-x="282" d="M38 -197 Q-23 -197 -72 -171 L-43 -34 Q-34 -38 -21 -41 Q-8 -44 1 -44 Q50 -44 50 16 L50 538 L237 538 L237 9 Q237 -54 212.5 -100 Q188 -146 143 -171.5 Q98 -197 38 -197 Z " />
<glyph glyph-name="uni0132" unicode="&#x132;" horiz-adv-x="728" d="M50 320 L50 710 L250 710 L250 320 L50 320 Z M370 -20 Q288 -20 223 7.5 Q158 35 114 87.5 Q70 140 51 214 L245 242 Q258 205 288 184.5 Q318 164 358 164 Q394 164 421 181 Q448 198 463 229 Q478 260 478 303 L478 710 L678 710 L678 302 Q678 229 656 169.5 Q634 110 593.5 67.5 Q553 25 496.5 2.5 Q440 -20 370 -20 Z " />
<glyph glyph-name="uni0133" unicode="&#x133;" horiz-adv-x="608" d="M238 677 Q238 650 225 628 Q212 606 189 593.5 Q166 581 138 581 Q110 581 87.5 593.5 Q65 606 52 628 Q39 650 39 677 Q39 704 52 726 Q65 748 87.5 760.5 Q110 773 138 773 Q166 773 189 760.5 Q212 748 225 726 Q238 704 238 677 Z M569 677 Q569 650 556 628 Q543 606 520.5 593.5 Q498 581 469 581 Q441 581 418.5 593.5 Q396 606 383 628 Q370 650 370 677 Q370 704 383 726 Q396 748 418.5 760.5 Q441 773 469 773 Q498 773 520.5 760.5 Q543 748 556 726 Q569 704 569 677 Z M231 25 Q174 25 132.5 52.5 Q91 80 68 131 Q45 182 45 250 L45 538 L232 538 L232 278 Q232 240 250 217 Q268 194 299 194 Q322 194 339 205 Q356 216 366 235 Q376 254 376 278 L376 538 L563 538 L563 68 Q563 7 544 -42.5 Q525 -92 489 -127.5 Q453 -163 404 -182.5 Q355 -202 295 -202 Q237 -202 188 -183.5 Q139 -165 103.5 -131.5 Q68 -98 50 -51 L234 -16 Q244 -33 260.5 -43 Q277 -53 297 -53 Q320 -53 338 -40.5 Q356 -28 366 -6 Q376 16 376 46 L376 98 Q353 64 315.5 44.5 Q278 25 231 25 Z " />
<glyph glyph-name="uni00DE" unicode="&#xde;" horiz-adv-x="622" d="M55 0 L55 710 L245 710 L245 605 L308 605 Q401 605 466.5 575.5 Q532 546 567 491 Q602 436 602 357 Q602 302 581.5 256 Q561 210 523 177 Q485 144 432 126 Q379 108 315 108 Q282 108 245 114 L245 0 L55 0 Z M245 446 L245 273 Q281 267 309 267 Q356 267 382 290.5 Q408 314 408 356 Q408 400 382 423 Q356 446 307 446 L245 446 Z " />
<glyph glyph-name="uni00C6" unicode="&#xc6;" horiz-adv-x="1046" d="M10 0 L440 710 L990 710 L990 546 L717 546 L717 443 L955 443 L955 280 L717 280 L717 163 L1001 163 L1001 0 L527 0 L527 124 L294 124 L225 0 L10 0 Z M382 281 L527 281 L527 541 L382 281 Z " />
<glyph glyph-name="uni0152" unicode="&#x152;" horiz-adv-x="1022" d="M412 0 Q329 0 260 26 Q191 52 140.5 99 Q90 146 62.5 210.5 Q35 275 35 353 Q35 431 63 496.5 Q91 562 142 610 Q193 658 262.5 684 Q332 710 415 710 L966 710 L966 546 L693 546 L693 443 L931 443 L931 280 L693 280 L693 163 L977 163 L977 0 L412 0 Z M425 176 L503 176 L503 534 L425 534 Q368 534 327 512 Q286 490 264 450 Q242 410 242 355 Q242 300 264 260 Q286 220 327 198 Q368 176 425 176 Z " />
<glyph glyph-name="uni1E9E" unicode="&#x1e9e;" horiz-adv-x="684" d="M409 -15 Q376 -15 348 -9.5 Q320 -4 297 4 L321 163 Q335 158 352 154.5 Q369 151 384 151 Q422 151 446 172 Q470 193 470 228 Q470 249 460 266.5 Q450 284 428 294.5 Q406 305 370 305 L357 413 L434 535 Q419 546 400 552.5 Q381 559 359 559 Q310 559 280 524 Q250 489 250 423 L250 0 L50 0 L50 413 Q50 493 74 551.5 Q98 610 140.5 648.5 Q183 687 237.5 706 Q292 725 352 725 Q404 725 448.5 713 Q493 701 529.5 680.5 Q566 660 595 635 Q624 610 644 585 L532 409 Q573 394 602.5 364.5 Q632 335 648 296 Q664 257 664 213 Q664 167 646.5 126 Q629 85 595.5 53 Q562 21 515 3 Q468 -15 409 -15 Z " />
<glyph glyph-name="uni00FE" unicode="&#xfe;" horiz-adv-x="655" d="M45 -187 L45 750 L232 750 L232 476 Q259 512 299.5 532.5 Q340 553 388 553 Q438 553 481 531.5 Q524 510 556.5 472 Q589 434 607 383 Q625 332 625 273 Q625 212 606 159.5 Q587 107 553 68 Q519 29 473.5 7 Q428 -15 375 -15 Q330 -15 293.5 2 Q257 19 232 51 L232 -187 L45 -187 Z M332 153 Q362 153 385 168 Q408 183 421.5 209 Q435 235 435 268 Q435 301 421.5 327 Q408 353 385 368 Q362 383 332 383 Q303 383 280 368 Q257 353 244 327 Q231 301 231 268 Q231 235 244 209 Q257 183 280 168 Q303 153 332 153 Z " />
<glyph glyph-name="uni00E6" unicode="&#xe6;" horiz-adv-x="892" d="M223 -15 Q180 -15 142.5 -2.5 Q105 10 78 32.5 Q51 55 35.5 85 Q20 115 20 150 Q20 202 47 241 Q74 280 123 302 Q172 324 237 324 Q265 324 287 320 Q309 316 335 306 L335 332 Q335 366 317 387.5 Q299 409 270 409 Q248 409 230.5 396.5 Q213 384 208 364 L39 390 Q47 426 68 455.5 Q89 485 120.5 507 Q152 529 191.5 541 Q231 553 274 553 Q325 553 365 535.5 Q405 518 433 486 Q467 518 511.5 535.5 Q556 553 607 553 Q665 553 713 531.5 Q761 510 795.5 470.5 Q830 431 848.5 376.5 Q867 322 867 256 L867 222 L518 222 Q527 179 549.5 156.5 Q572 134 606 134 Q655 134 686 180 L857 142 Q838 95 800.5 59.5 Q763 24 712.5 4.5 Q662 -15 605 -15 Q543 -15 493 9.5 Q443 34 408 77 Q384 35 335 10 Q286 -15 223 -15 Z M597 420 Q565 420 544.5 398 Q524 376 516 334 L674 334 Q667 376 647.5 398 Q628 420 597 420 Z M203 163 Q203 143 218.5 129.5 Q234 116 257 116 Q279 116 296.5 126.5 Q314 137 324.5 154.5 Q335 172 335 195 L335 201 Q321 207 305.5 211 Q290 215 276 215 Q242 215 222.5 201 Q203 187 203 163 Z " />
<glyph glyph-name="uni0153" unicode="&#x153;" horiz-adv-x="984" d="M308 -15 Q249 -15 198 6 Q147 27 109.5 65 Q72 103 51 154 Q30 205 30 265 Q30 325 51.5 377.5 Q73 430 111.5 469.5 Q150 509 201 531 Q252 553 310 553 Q368 553 416.5 531.5 Q465 510 500 471 Q537 510 587.5 531.5 Q638 553 697 553 Q756 553 804.5 531.5 Q853 510 887.5 470.5 Q922 431 940.5 376.5 Q959 322 959 256 L959 222 L610 222 Q619 179 641.5 156.5 Q664 134 698 134 Q747 134 778 180 L949 142 Q930 95 892.5 59.5 Q855 24 804.5 4.5 Q754 -15 696 -15 Q637 -15 586.5 6 Q536 27 500 65 Q465 27 416 6 Q367 -15 308 -15 Z M689 420 Q657 420 636.5 398 Q616 376 608 334 L766 334 Q759 376 739.5 398 Q720 420 689 420 Z M317 154 Q344 154 366 169 Q388 184 401 210 Q414 236 414 269 Q414 302 401 328 Q388 354 366 369 Q344 384 317 384 Q290 384 268 369 Q246 354 233 328 Q220 302 220 269 Q220 236 233 210 Q246 184 268 169 Q290 154 317 154 Z " />
<glyph glyph-name="uni00DF" unicode="&#xdf;" horiz-adv-x="635" d="M358 -10 Q336 -10 313 -7 Q290 -4 272 1 L294 151 Q312 146 332 146 Q356 146 375 157 Q394 168 404.5 187 Q415 206 415 231 Q415 270 388.5 293.5 Q362 317 317 317 L289 317 L289 462 L307 462 Q328 462 345 471.5 Q362 481 372 496.5 Q382 512 382 532 Q382 562 362 581.5 Q342 601 311 601 Q277 601 254.5 577.5 Q232 554 232 507 L232 0 L45 0 L45 502 Q45 561 64 609 Q83 657 118 692 Q153 727 201.5 746 Q250 765 310 765 Q365 765 412 749 Q459 733 493.5 704.5 Q528 676 547.5 637.5 Q567 599 567 554 Q567 508 545.5 468 Q524 428 487 401 Q522 389 548.5 361.5 Q575 334 590 296.5 Q605 259 605 216 Q605 167 586.5 126 Q568 85 535 54.5 Q502 24 457 7 Q412 -10 358 -10 Z " />
<glyph glyph-name="uni0138" unicode="&#x138;" horiz-adv-x="622" d="M45 0 L45 538 L227 538 L227 315 L394 538 L598 538 L401 292 L622 0 L399 0 L227 254 L227 0 L45 0 Z " />
<glyph glyph-name="uni014A" unicode="&#x14a;" horiz-adv-x="752" d="M55 0 L55 710 L225 710 L507 295 L507 710 L697 710 L697 26 Q697 -43 670.5 -94.5 Q644 -146 595.5 -174 Q547 -202 482 -202 Q458 -202 432.5 -197.5 Q407 -193 384.5 -184.5 Q362 -176 347 -166 L384 -29 Q395 -36 412.5 -40 Q430 -44 444 -44 Q473 -44 490 -28 Q507 -12 507 16 L507 29 L245 415 L245 0 L55 0 Z " />
<glyph glyph-name="uni014B" unicode="&#x14b;" horiz-adv-x="608" d="M45 0 L45 538 L218 538 L223 465 Q245 506 285 529.5 Q325 553 377 553 Q434 553 475.5 525.5 Q517 498 540 447 Q563 396 563 328 L563 9 Q563 -54 539 -100 Q515 -146 471.5 -171.5 Q428 -197 370 -197 Q339 -197 312.5 -191.5 Q286 -186 264 -175 L293 -38 Q304 -41 314.5 -42.5 Q325 -44 332 -44 Q376 -44 376 16 L376 300 Q376 338 358 361 Q340 384 309 384 Q286 384 269 373 Q252 362 242 343 Q232 324 232 300 L232 0 L45 0 Z " />
<glyph glyph-name="uni00D0" unicode="&#xd0;" horiz-adv-x="789" d="M75 0 L75 288 L5 288 L5 434 L75 434 L75 710 L377 710 Q460 710 529 684 Q598 658 648.5 611 Q699 564 726.5 499.5 Q754 435 754 357 Q754 279 726 213.5 Q698 148 647 100 Q596 52 526.5 26 Q457 0 374 0 L75 0 Z M270 176 L364 176 Q420 176 461.5 198 Q503 220 525 260 Q547 300 547 355 Q547 410 525 450 Q503 490 461.5 512 Q420 534 364 534 L270 534 L270 434 L396 434 L396 288 L270 288 L270 176 Z " />
<glyph glyph-name="uni0110" unicode="&#x110;" horiz-adv-x="779" d="M65 0 L65 288 L-5 288 L-5 434 L65 434 L65 710 L367 710 Q450 710 519 684 Q588 658 638.5 611 Q689 564 716.5 499.5 Q744 435 744 357 Q744 279 716 213.5 Q688 148 637 100 Q586 52 516.5 26 Q447 0 364 0 L65 0 Z M260 176 L354 176 Q410 176 451.5 198 Q493 220 515 260 Q537 300 537 355 Q537 410 515 450 Q493 490 451.5 512 Q410 534 354 534 L260 534 L260 434 L386 434 L386 288 L260 288 L260 176 Z " />
<glyph glyph-name="uni0126" unicode="&#x126;" horiz-adv-x="802" d="M75 0 L75 521 L5 521 L5 637 L75 637 L75 710 L275 710 L275 637 L527 637 L527 710 L727 710 L727 637 L797 637 L797 521 L727 521 L727 0 L527 0 L527 268 L275 268 L275 0 L75 0 Z M275 439 L527 439 L527 521 L275 521 L275 439 Z " />
<glyph glyph-name="uni0166" unicode="&#x166;" horiz-adv-x="644" d="M222 0 L222 239 L105 239 L105 385 L222 385 L222 534 L35 534 L35 710 L609 710 L609 534 L422 534 L422 385 L539 385 L539 239 L422 239 L422 0 L222 0 Z " />
<glyph glyph-name="uni0141" unicode="&#x141;" horiz-adv-x="574" d="M75 0 L75 192 L5 142 L5 308 L75 358 L75 710 L270 710 L270 498 L391 585 L391 419 L270 332 L270 176 L539 176 L539 0 L75 0 Z " />
<glyph glyph-name="uni00D8" unicode="&#xd8;" horiz-adv-x="838" d="M203 -35 L45 -35 L141 92 Q91 142 63 210.5 Q35 279 35 358 Q35 422 53.5 478 Q72 534 106.5 580.5 Q141 627 188.5 660.5 Q236 694 294 712 Q352 730 418 730 Q466 730 510.5 720 Q555 710 594 691 L635 745 L793 745 L697 618 Q747 568 775 499.5 Q803 431 803 352 Q803 288 784.5 232 Q766 176 731.5 129.5 Q697 83 649.5 49.5 Q602 16 544 -2 Q486 -20 420 -20 Q372 -20 327.5 -10 Q283 0 244 19 L203 -35 Z M234 353 Q234 323 240.5 296.5 Q247 270 259 247 L483 544 Q454 554 421 554 Q366 554 323.5 528.5 Q281 503 257.5 457.5 Q234 412 234 353 Z M417 156 Q472 156 514.5 181.5 Q557 207 580.5 252.5 Q604 298 604 357 Q604 387 597.5 413.5 Q591 440 579 463 L355 166 Q384 156 417 156 Z " />
<glyph glyph-name="uni00F0" unicode="&#xf0;" horiz-adv-x="644" d="M315 -15 Q254 -15 201.5 5.5 Q149 26 111 63 Q73 100 51.5 150.5 Q30 201 30 260 Q30 316 49 364.5 Q68 413 102 449.5 Q136 486 180.5 507 Q225 528 276 528 Q314 528 345.5 516 Q377 504 400 483 Q374 537 332 591 L234 548 L196 632 L269 664 Q233 702 193 732 L379 771 Q403 754 425 733 L507 769 L545 685 L489 660 Q527 609 555 549 Q583 489 598.5 426 Q614 363 614 302 Q614 230 592.5 172 Q571 114 531.5 72 Q492 30 437 7.5 Q382 -15 315 -15 Z M323 154 Q352 154 375 168.5 Q398 183 411 208 Q424 233 424 265 Q424 296 411 321 Q398 346 375 360.5 Q352 375 323 375 Q294 375 270.5 360.5 Q247 346 233.5 321 Q220 296 220 265 Q220 233 233.5 208 Q247 183 270.5 168.5 Q294 154 323 154 Z " />
<glyph glyph-name="uni0111" unicode="&#x111;" horiz-adv-x="655" d="M267 -15 Q217 -15 174 6 Q131 27 98.5 64.5 Q66 102 48 152 Q30 202 30 260 Q30 320 49 371.5 Q68 423 102 461.5 Q136 500 181.5 521.5 Q227 543 280 543 Q325 543 361.5 526 Q398 509 423 477 L423 591 L310 591 L310 687 L423 687 L423 750 L610 750 L610 687 L670 687 L670 591 L610 591 L610 0 L437 0 L432 76 Q406 34 362.5 9.5 Q319 -15 267 -15 Z M323 155 Q352 155 375 169.5 Q398 184 411 209 Q424 234 424 265 Q424 296 411 321 Q398 346 375 360.5 Q352 375 323 375 Q294 375 270.5 360.5 Q247 346 233.5 321 Q220 296 220 265 Q220 234 233.5 209 Q247 184 270.5 169.5 Q294 155 323 155 Z " />
<glyph glyph-name="uni0127" unicode="&#x127;" horiz-adv-x="608" d="M45 0 L45 591 L-15 591 L-15 687 L45 687 L45 750 L232 750 L232 687 L345 687 L345 591 L232 591 L232 470 Q255 504 292.5 523.5 Q330 543 377 543 Q434 543 475.5 515.5 Q517 488 540 437 Q563 386 563 318 L563 0 L376 0 L376 290 Q376 328 358 351 Q340 374 309 374 Q286 374 269 363 Q252 352 242 333 Q232 314 232 290 L232 0 L45 0 Z " />
<glyph glyph-name="uni0167" unicode="&#x167;" horiz-adv-x="461" d="M30 233 L30 329 L106 329 L106 400 L20 400 L20 538 L106 538 L106 723 L293 723 L293 538 L423 538 L423 400 L293 400 L293 329 L413 329 L413 233 L293 233 L293 203 Q293 138 349 138 Q365 138 382.5 142 Q400 146 416 153 L441 20 Q383 -15 301 -15 Q206 -15 156 36.5 Q106 88 106 185 L106 233 L30 233 Z " />
<glyph glyph-name="uni0142" unicode="&#x142;" horiz-adv-x="337" d="M75 0 L75 232 L10 183 L10 323 L75 372 L75 750 L262 750 L262 511 L327 560 L327 420 L262 371 L262 0 L75 0 Z " />
<glyph glyph-name="uni00F8" unicode="&#xf8;" horiz-adv-x="644" d="M172 -25 L37 -25 L109 73 Q72 111 51 162.5 Q30 214 30 273 Q30 332 52.5 383 Q75 434 114.5 472 Q154 510 207 531.5 Q260 553 321 553 Q355 553 386 546.5 Q417 540 446 527 L472 563 L607 563 L535 465 Q572 427 593 375.5 Q614 324 614 265 Q614 206 591.5 155 Q569 104 529.5 66 Q490 28 437 6.5 Q384 -15 323 -15 Q289 -15 258 -8.5 Q227 -2 198 11 L172 -25 Z M204 268 Q204 239 213 214 L350 398 Q337 401 323 401 Q288 401 261.5 384 Q235 367 219.5 336.5 Q204 306 204 268 Z M321 137 Q356 137 382.5 154.5 Q409 172 424.5 202 Q440 232 440 271 Q440 300 431 325 L294 140 Q307 137 321 137 Z " />
<glyph glyph-name="uni0327" unicode="&#x327;" d="M-47 11 L65 11 L49 -34 Q79 -46 95.5 -69.5 Q112 -93 112 -122 Q112 -154 92 -178 Q72 -202 37 -216 Q2 -230 -43 -230 Q-66 -230 -88 -226 Q-110 -222 -131 -214 L-118 -124 Q-106 -128 -92.5 -131 Q-79 -134 -69 -134 Q-50 -134 -39 -127 Q-28 -120 -28 -106 Q-28 -77 -82 -77 L-47 11 Z " />
<glyph glyph-name="uni00B8" unicode="&#xb8;" horiz-adv-x="608" d="M266 11 L378 11 L362 -34 Q392 -46 408.5 -69.5 Q425 -93 425 -122 Q425 -154 405 -178 Q385 -202 350 -216 Q315 -230 270 -230 Q247 -230 225 -226 Q203 -222 182 -214 L195 -124 Q207 -128 220.5 -131 Q234 -134 244 -134 Q263 -134 274 -127 Q285 -120 285 -106 Q285 -77 231 -77 L266 11 Z " />
<glyph glyph-name="uni0326" unicode="&#x326;" d="M-40 -280 L-63 -219 Q-40 -213 -23.5 -202 Q-7 -191 0 -178 Q-9 -182 -21 -182 Q-49 -182 -67.5 -164 Q-86 -146 -86 -118 Q-86 -98 -75.5 -82.5 Q-65 -67 -47 -58 Q-29 -49 -6 -49 Q21 -49 42 -61 Q63 -73 75 -94.5 Q87 -116 87 -143 Q87 -190 53 -227 Q19 -264 -40 -280 Z " />
<glyph glyph-name="uni0312" unicode="&#x312;" d="M7 581 Q-20 581 -41 593 Q-62 605 -74 626.5 Q-86 648 -86 675 Q-86 722 -52 759 Q-18 796 41 812 L64 751 Q38 744 19.5 732 Q1 720 -5 707 Q6 714 22 714 Q50 714 68.5 696 Q87 678 87 650 Q87 630 76.5 614.5 Q66 599 48 590 Q30 581 7 581 Z " />
<glyph glyph-name="uni0328" unicode="&#x328;" d="M-91 -230 Q-152 -230 -187 -205 Q-222 -180 -222 -137 Q-222 -98 -189.5 -58 Q-157 -18 -89 26 L0 0 Q-44 -38 -62.5 -60.5 Q-81 -83 -81 -99 Q-81 -113 -71.5 -121.5 Q-62 -130 -45 -130 Q-34 -130 -23 -128 Q-12 -126 -4 -121 L6 -211 Q-36 -230 -91 -230 Z " />
<glyph glyph-name="uni02DB" unicode="&#x2db;" horiz-adv-x="608" d="M311 -230 Q250 -230 215 -205 Q180 -180 180 -137 Q180 -98 212.5 -58 Q245 -18 313 26 L402 0 Q358 -38 339.5 -60.5 Q321 -83 321 -99 Q321 -113 330.5 -121.5 Q340 -130 357 -130 Q368 -130 379 -128 Q390 -126 398 -121 L408 -211 Q366 -230 311 -230 Z " />
<glyph glyph-name="uni00C7" unicode="&#xc7;" horiz-adv-x="756" d="M401 -20 Q338 -20 282 -2 Q226 16 181 49 Q136 82 103 127.5 Q70 173 52.5 229.5 Q35 286 35 350 Q35 414 53 471.5 Q71 529 104 576.5 Q137 624 183 658.5 Q229 693 284.5 711.5 Q340 730 402 730 Q462 730 515.5 713 Q569 696 612 664.5 Q655 633 685 589 Q715 545 729 491 L532 450 Q513 496 478 521 Q443 546 398 546 Q364 546 335.5 531.5 Q307 517 286 491 Q265 465 253.5 430 Q242 395 242 353 Q242 298 262 255 Q282 212 318 188 Q354 164 400 164 Q496 164 539 260 L736 219 Q722 164 691.5 120 Q661 76 617 44.5 Q573 13 518.5 -3.5 Q464 -20 401 -20 Z M350 11 L468 11 L450 -40 Q479 -53 496 -77.5 Q513 -102 513 -132 Q513 -165 492.5 -190.5 Q472 -216 437 -230.5 Q402 -245 356 -245 Q332 -245 309 -240.5 Q286 -236 262 -228 L277 -134 Q289 -138 302.5 -141 Q316 -144 326 -144 Q345 -144 356 -136.5 Q367 -129 367 -116 Q367 -102 352.5 -94.5 Q338 -87 312 -87 L350 11 Z " />
<glyph glyph-name="uni015E" unicode="&#x15e;" horiz-adv-x="590" d="M293 -15 Q222 -15 164 9 Q106 33 68 77.5 Q30 122 15 183 L199 217 Q209 185 235 164.5 Q261 144 296 144 Q331 144 353 160 Q375 176 375 202 Q375 222 364.5 235 Q354 248 330 257 Q306 266 265 274 L244 278 Q178 290 131 320.5 Q84 351 58.5 395 Q33 439 33 494 Q33 544 53 586 Q73 628 109.5 659 Q146 690 195 707.5 Q244 725 301 725 Q368 725 421.5 701.5 Q475 678 510.5 635 Q546 592 559 533 L379 498 Q371 528 349.5 547 Q328 566 297 566 Q266 566 246.5 550 Q227 534 227 510 Q227 492 237 479.5 Q247 467 269.5 458.5 Q292 450 331 443 L351 439 Q456 418 513 361 Q570 304 570 221 Q570 170 549.5 126.5 Q529 83 492 51.5 Q455 20 404 2.5 Q353 -15 293 -15 Z M244 11 L362 11 L344 -40 Q373 -53 390 -77.5 Q407 -102 407 -132 Q407 -165 386.5 -190.5 Q366 -216 331 -230.5 Q296 -245 250 -245 Q226 -245 203 -240.5 Q180 -236 156 -228 L171 -134 Q183 -138 196.5 -141 Q210 -144 220 -144 Q239 -144 250 -136.5 Q261 -129 261 -116 Q261 -102 246.5 -94.5 Q232 -87 206 -87 L244 11 Z " />
<glyph glyph-name="uni0122" unicode="&#x122;" horiz-adv-x="815" d="M421 -20 Q354 -20 295.5 -2 Q237 16 189 49.5 Q141 83 106.5 129.5 Q72 176 53.5 232.5 Q35 289 35 353 Q35 418 53.5 475 Q72 532 106.5 579 Q141 626 189 659.5 Q237 693 295.5 711.5 Q354 730 421 730 Q498 730 563.5 705.5 Q629 681 679 635.5 Q729 590 757 525 L560 471 Q512 551 420 551 Q368 551 327.5 526 Q287 501 264.5 457.5 Q242 414 242 357 Q242 314 255.5 277.5 Q269 241 294 214.5 Q319 188 353 173.5 Q387 159 427 159 Q464 159 494 171 Q524 183 545.5 204 Q567 225 576 253 L434 253 L434 411 L785 411 L785 324 Q785 249 758 186 Q731 123 682 77 Q633 31 566.5 5.5 Q500 -20 421 -20 Z M383 -291 L359 -229 Q409 -215 424 -187 Q414 -191 402 -191 Q374 -191 354.5 -173 Q335 -155 335 -126 Q335 -105 345.5 -88.5 Q356 -72 375 -63 Q394 -54 418 -54 Q446 -54 467.5 -66.5 Q489 -79 501.5 -101 Q514 -123 514 -151 Q514 -181 499 -208.5 Q484 -236 455 -258 Q426 -280 383 -291 Z " />
<glyph glyph-name="uni0136" unicode="&#x136;" horiz-adv-x="734" d="M55 0 L55 710 L255 710 L255 401 L471 710 L693 710 L449 381 L729 0 L482 0 L255 337 L255 0 L55 0 Z M319 -291 L295 -229 Q345 -215 360 -187 Q350 -191 338 -191 Q310 -191 290.5 -173 Q271 -155 271 -126 Q271 -105 281.5 -88.5 Q292 -72 311 -63 Q330 -54 354 -54 Q382 -54 403.5 -66.5 Q425 -79 437.5 -101 Q450 -123 450 -151 Q450 -181 435 -208.5 Q420 -236 391 -258 Q362 -280 319 -291 Z " />
<glyph glyph-name="uni013B" unicode="&#x13b;" horiz-adv-x="559" d="M55 0 L55 710 L255 710 L255 176 L524 176 L524 0 L55 0 Z M248 -291 L224 -229 Q274 -215 289 -187 Q279 -191 267 -191 Q239 -191 219.5 -173 Q200 -155 200 -126 Q200 -105 210.5 -88.5 Q221 -72 240 -63 Q259 -54 283 -54 Q311 -54 332.5 -66.5 Q354 -79 366.5 -101 Q379 -123 379 -151 Q379 -181 364 -208.5 Q349 -236 320 -258 Q291 -280 248 -291 Z " />
<glyph glyph-name="uni0145" unicode="&#x145;" horiz-adv-x="752" d="M55 0 L55 710 L225 710 L507 295 L507 710 L697 710 L697 0 L527 0 L245 415 L245 0 L55 0 Z M335 -291 L311 -229 Q361 -215 376 -187 Q366 -191 354 -191 Q326 -191 306.5 -173 Q287 -155 287 -126 Q287 -105 297.5 -88.5 Q308 -72 327 -63 Q346 -54 370 -54 Q398 -54 419.5 -66.5 Q441 -79 453.5 -101 Q466 -123 466 -151 Q466 -181 451 -208.5 Q436 -236 407 -258 Q378 -280 335 -291 Z " />
<glyph glyph-name="uni0218" unicode="&#x218;" horiz-adv-x="590" d="M293 -15 Q222 -15 164 9 Q106 33 68 77.5 Q30 122 15 183 L199 217 Q209 185 235 164.5 Q261 144 296 144 Q331 144 353 160 Q375 176 375 202 Q375 222 364.5 235 Q354 248 330 257 Q306 266 265 274 L244 278 Q178 290 131 320.5 Q84 351 58.5 395 Q33 439 33 494 Q33 544 53 586 Q73 628 109.5 659 Q146 690 195 707.5 Q244 725 301 725 Q368 725 421.5 701.5 Q475 678 510.5 635 Q546 592 559 533 L379 498 Q371 528 349.5 547 Q328 566 297 566 Q266 566 246.5 550 Q227 534 227 510 Q227 492 237 479.5 Q247 467 269.5 458.5 Q292 450 331 443 L351 439 Q456 418 513 361 Q570 304 570 221 Q570 170 549.5 126.5 Q529 83 492 51.5 Q455 20 404 2.5 Q353 -15 293 -15 Z M253 -291 L229 -229 Q279 -215 294 -187 Q284 -191 272 -191 Q244 -191 224.5 -173 Q205 -155 205 -126 Q205 -105 215.5 -88.5 Q226 -72 245 -63 Q264 -54 288 -54 Q316 -54 337.5 -66.5 Q359 -79 371.5 -101 Q384 -123 384 -151 Q384 -181 369 -208.5 Q354 -236 325 -258 Q296 -280 253 -291 Z " />
<glyph glyph-name="uni021A" unicode="&#x21a;" horiz-adv-x="644" d="M222 0 L222 534 L35 534 L35 710 L609 710 L609 534 L422 534 L422 0 L222 0 Z M281 -291 L257 -229 Q307 -215 322 -187 Q312 -191 300 -191 Q272 -191 252.5 -173 Q233 -155 233 -126 Q233 -105 243.5 -88.5 Q254 -72 273 -63 Q292 -54 316 -54 Q344 -54 365.5 -66.5 Q387 -79 399.5 -101 Q412 -123 412 -151 Q412 -181 397 -208.5 Q382 -236 353 -258 Q324 -280 281 -291 Z " />
<glyph glyph-name="uni0104" unicode="&#x104;" horiz-adv-x="792" d="M10 0 L289 710 L502 710 L782 0 L573 0 L529 124 L255 124 L212 0 L10 0 Z M310 281 L474 281 L392 514 L310 281 Z M689 -235 Q627 -235 591 -209.5 Q555 -184 555 -140 Q555 -99 587 -59 Q619 -19 688 27 L782 0 Q738 -38 719.5 -60.5 Q701 -83 701 -99 Q701 -113 710.5 -121.5 Q720 -130 737 -130 Q747 -130 758 -128 Q769 -126 778 -121 L788 -216 Q761 -226 737.5 -230.5 Q714 -235 689 -235 Z " />
<glyph glyph-name="uni0118" unicode="&#x118;" horiz-adv-x="584" d="M55 0 L55 710 L528 710 L528 546 L245 546 L245 443 L493 443 L493 280 L245 280 L245 163 L539 163 L539 0 L55 0 Z M446 -235 Q384 -235 348 -209.5 Q312 -184 312 -140 Q312 -99 344 -59 Q376 -19 445 27 L539 0 Q495 -38 476.5 -60.5 Q458 -83 458 -99 Q458 -113 467.5 -121.5 Q477 -130 494 -130 Q504 -130 515 -128 Q526 -126 535 -121 L545 -216 Q518 -226 494.5 -230.5 Q471 -235 446 -235 Z " />
<glyph glyph-name="uni012E" unicode="&#x12e;" horiz-adv-x="310" d="M55 0 L55 710 L255 710 L255 0 L55 0 Z M162 -235 Q100 -235 64 -209.5 Q28 -184 28 -140 Q28 -99 60 -59 Q92 -19 161 27 L255 0 Q211 -38 192.5 -60.5 Q174 -83 174 -99 Q174 -113 183.5 -121.5 Q193 -130 210 -130 Q220 -130 231 -128 Q242 -126 251 -121 L261 -216 Q234 -226 210.5 -230.5 Q187 -235 162 -235 Z " />
<glyph glyph-name="uni0172" unicode="&#x172;" horiz-adv-x="752" d="M375 -20 Q301 -20 241 2 Q181 24 138.5 66 Q96 108 73 166.5 Q50 225 50 297 L50 710 L250 710 L250 306 Q250 262 265.5 230.5 Q281 199 309.5 181.5 Q338 164 376 164 Q414 164 442.5 181.5 Q471 199 486.5 230.5 Q502 262 502 306 L502 710 L702 710 L702 297 Q702 225 679 166.5 Q656 108 613 66 Q570 24 510 2 Q450 -20 375 -20 Z M490 -235 Q428 -235 392 -209 Q356 -183 356 -138 Q356 -97 388 -55.5 Q420 -14 489 36 L603 60 Q551 5 526.5 -31.5 Q502 -68 502 -92 Q502 -110 511.5 -120 Q521 -130 538 -130 Q548 -130 559 -128 Q570 -126 579 -121 L589 -216 Q539 -235 490 -235 Z " />
<glyph glyph-name="uni00E7" unicode="&#xe7;" horiz-adv-x="591" d="M307 -15 Q248 -15 197.5 6 Q147 27 109.5 65 Q72 103 51 153.5 Q30 204 30 264 Q30 326 51.5 378.5 Q73 431 111 470 Q149 509 200.5 531 Q252 553 312 553 Q376 553 429 528 Q482 503 518 457.5 Q554 412 566 352 L390 325 Q379 353 358.5 368.5 Q338 384 313 384 Q286 384 265 369 Q244 354 232 328 Q220 302 220 268 Q220 234 232 208.5 Q244 183 265 168.5 Q286 154 313 154 Q341 154 362.5 169.5 Q384 185 395 213 L571 186 Q562 141 538.5 104.5 Q515 68 480 41 Q445 14 401 -0.5 Q357 -15 307 -15 Z M263 11 L375 11 L359 -34 Q389 -46 405.5 -69.5 Q422 -93 422 -122 Q422 -154 402 -178 Q382 -202 347 -216 Q312 -230 267 -230 Q244 -230 222 -226 Q200 -222 179 -214 L192 -124 Q204 -128 217.5 -131 Q231 -134 241 -134 Q260 -134 271 -127 Q282 -120 282 -106 Q282 -77 228 -77 L263 11 Z " />
<glyph glyph-name="uni015F" unicode="&#x15f;" horiz-adv-x="512" d="M256 -15 Q196 -15 147 2.5 Q98 20 64 53 Q30 86 15 131 L183 158 Q190 138 210.5 126.5 Q231 115 258 115 Q284 115 299 125.5 Q314 136 314 154 Q314 173 296 183 Q278 193 234 199 L215 202 Q125 216 77 260 Q29 304 29 372 Q29 412 45 445 Q61 478 91 502 Q121 526 161.5 539.5 Q202 553 252 553 Q308 553 354.5 535.5 Q401 518 433 486 Q465 454 478 411 L312 384 Q295 423 252 423 Q229 423 215 412.5 Q201 402 201 385 Q201 374 207.5 366.5 Q214 359 230.5 353.5 Q247 348 276 344 L295 341 Q389 326 438 283 Q487 240 487 172 Q487 130 470.5 96 Q454 62 423 37 Q392 12 349.5 -1.5 Q307 -15 256 -15 Z M210 11 L322 11 L306 -34 Q336 -46 352.5 -69.5 Q369 -93 369 -122 Q369 -154 349 -178 Q329 -202 294 -216 Q259 -230 214 -230 Q191 -230 169 -226 Q147 -222 126 -214 L139 -124 Q151 -128 164.5 -131 Q178 -134 188 -134 Q207 -134 218 -127 Q229 -120 229 -106 Q229 -77 175 -77 L210 11 Z " />
<glyph glyph-name="uni0123" unicode="&#x123;" horiz-adv-x="645" d="M266 25 Q218 25 175 45.5 Q132 66 99.5 103 Q67 140 48.5 187.5 Q30 235 30 289 Q30 343 49 391 Q68 439 101.5 475.5 Q135 512 179 532.5 Q223 553 273 553 Q321 553 359.5 533.5 Q398 514 423 479 L427 538 L600 538 L600 78 Q600 15 579.5 -36.5 Q559 -88 521 -125 Q483 -162 430.5 -182 Q378 -202 314 -202 Q252 -202 199.5 -183.5 Q147 -165 108.5 -131.5 Q70 -98 52 -51 L236 -16 Q248 -33 268.5 -43 Q289 -53 314 -53 Q344 -53 366 -39.5 Q388 -26 400.5 -1 Q413 24 413 56 L413 97 Q388 63 350.5 44 Q313 25 266 25 Z M316 184 Q344 184 366 198 Q388 212 401 236 Q414 260 414 289 Q414 318 401 342 Q388 366 366 380 Q344 394 316 394 Q289 394 267.5 380 Q246 366 233 342 Q220 318 220 289 Q220 260 233 236 Q246 212 267.5 198 Q289 184 316 184 Z M323 581 Q296 581 275 593 Q254 605 242 626.5 Q230 648 230 675 Q230 722 264 759 Q298 796 357 812 L380 751 Q354 744 335.5 732 Q317 720 311 707 Q322 714 338 714 Q366 714 384.5 696 Q403 678 403 650 Q403 630 392.5 614.5 Q382 599 364 590 Q346 581 323 581 Z " />
<glyph glyph-name="uni0137" unicode="&#x137;" horiz-adv-x="622" d="M45 0 L45 750 L227 750 L227 324 L394 538 L598 538 L401 300 L622 0 L399 0 L227 262 L227 0 L45 0 Z M260 -280 L237 -219 Q260 -213 276.5 -202 Q293 -191 300 -178 Q291 -182 279 -182 Q251 -182 232.5 -164 Q214 -146 214 -118 Q214 -98 224.5 -82.5 Q235 -67 253 -58 Q271 -49 294 -49 Q321 -49 342 -61 Q363 -73 375 -94.5 Q387 -116 387 -143 Q387 -190 353 -227 Q319 -264 260 -280 Z " />
<glyph glyph-name="uni013C" unicode="&#x13c;" horiz-adv-x="277" d="M45 0 L45 750 L232 750 L232 0 L45 0 Z M98 -280 L75 -219 Q98 -213 114.5 -202 Q131 -191 138 -178 Q129 -182 117 -182 Q89 -182 70.5 -164 Q52 -146 52 -118 Q52 -98 62.5 -82.5 Q73 -67 91 -58 Q109 -49 132 -49 Q159 -49 180 -61 Q201 -73 213 -94.5 Q225 -116 225 -143 Q225 -190 191 -227 Q157 -264 98 -280 Z " />
<glyph glyph-name="uni0146" unicode="&#x146;" horiz-adv-x="608" d="M45 0 L45 538 L218 538 L223 465 Q245 506 285 529.5 Q325 553 377 553 Q434 553 475.5 525.5 Q517 498 540 447 Q563 396 563 328 L563 0 L376 0 L376 300 Q376 338 358 361 Q340 384 309 384 Q286 384 269 373 Q252 362 242 343 Q232 324 232 300 L232 0 L45 0 Z M264 -280 L241 -219 Q264 -213 280.5 -202 Q297 -191 304 -178 Q295 -182 283 -182 Q255 -182 236.5 -164 Q218 -146 218 -118 Q218 -98 228.5 -82.5 Q239 -67 257 -58 Q275 -49 298 -49 Q325 -49 346 -61 Q367 -73 379 -94.5 Q391 -116 391 -143 Q391 -190 357 -227 Q323 -264 264 -280 Z " />
<glyph glyph-name="uni0219" unicode="&#x219;" horiz-adv-x="512" d="M256 -15 Q196 -15 147 2.5 Q98 20 64 53 Q30 86 15 131 L183 158 Q190 138 210.5 126.5 Q231 115 258 115 Q284 115 299 125.5 Q314 136 314 154 Q314 173 296 183 Q278 193 234 199 L215 202 Q125 216 77 260 Q29 304 29 372 Q29 412 45 445 Q61 478 91 502 Q121 526 161.5 539.5 Q202 553 252 553 Q308 553 354.5 535.5 Q401 518 433 486 Q465 454 478 411 L312 384 Q295 423 252 423 Q229 423 215 412.5 Q201 402 201 385 Q201 374 207.5 366.5 Q214 359 230.5 353.5 Q247 348 276 344 L295 341 Q389 326 438 283 Q487 240 487 172 Q487 130 470.5 96 Q454 62 423 37 Q392 12 349.5 -1.5 Q307 -15 256 -15 Z M217 -280 L194 -219 Q217 -213 233.5 -202 Q250 -191 257 -178 Q248 -182 236 -182 Q208 -182 189.5 -164 Q171 -146 171 -118 Q171 -98 181.5 -82.5 Q192 -67 210 -58 Q228 -49 251 -49 Q278 -49 299 -61 Q320 -73 332 -94.5 Q344 -116 344 -143 Q344 -190 310 -227 Q276 -264 217 -280 Z " />
<glyph glyph-name="uni021B" unicode="&#x21b;" horiz-adv-x="461" d="M301 -15 Q206 -15 156 36.5 Q106 88 106 185 L106 395 L20 395 L20 538 L106 538 L106 723 L293 723 L293 538 L423 538 L423 395 L293 395 L293 203 Q293 138 349 138 Q365 138 382.5 142 Q400 146 416 153 L441 20 Q383 -15 301 -15 Z M220 -280 L197 -219 Q220 -213 236.5 -202 Q253 -191 260 -178 Q251 -182 239 -182 Q211 -182 192.5 -164 Q174 -146 174 -118 Q174 -98 184.5 -82.5 Q195 -67 213 -58 Q231 -49 254 -49 Q281 -49 302 -61 Q323 -73 335 -94.5 Q347 -116 347 -143 Q347 -190 313 -227 Q279 -264 220 -280 Z " />
<glyph glyph-name="uni0105" unicode="&#x105;" horiz-adv-x="572" d="M204 -15 Q165 -15 131.5 -2.5 Q98 10 73 32.5 Q48 55 34 85 Q20 115 20 150 Q20 202 48 241 Q76 280 126.5 302 Q177 324 244 324 Q273 324 296 320 Q319 316 345 306 L345 332 Q345 366 325.5 387.5 Q306 409 275 409 Q251 409 233 396.5 Q215 384 208 364 L39 390 Q47 426 69 456 Q91 486 123 507.5 Q155 529 194.5 541 Q234 553 279 553 Q334 553 379.5 536 Q425 519 458 488.5 Q491 458 509 415.5 Q527 373 527 322 L527 0 L359 0 L354 63 Q334 26 294.5 5.5 Q255 -15 204 -15 Z M203 163 Q203 143 219.5 129.5 Q236 116 261 116 Q284 116 303.5 126.5 Q323 137 334 154.5 Q345 172 345 195 L345 201 Q331 207 314 211 Q297 215 281 215 Q245 215 224 201 Q203 187 203 163 Z M436 -230 Q375 -230 340 -205 Q305 -180 305 -137 Q305 -98 337.5 -58 Q370 -18 438 26 L527 0 Q483 -38 464.5 -60.5 Q446 -83 446 -99 Q446 -113 455.5 -121.5 Q465 -130 482 -130 Q493 -130 504 -128 Q515 -126 523 -121 L533 -211 Q491 -230 436 -230 Z " />
<glyph glyph-name="uni0119" unicode="&#x119;" horiz-adv-x="605" d="M308 -15 Q247 -15 196 6 Q145 27 108 65 Q71 103 50.5 155.5 Q30 208 30 271 Q30 331 50.5 382.5 Q71 434 108.5 472.5 Q146 511 196 532 Q246 553 305 553 Q368 553 418.5 532 Q469 511 505 472 Q541 433 560.5 378.5 Q580 324 580 256 L580 222 L221 222 Q230 179 254 156.5 Q278 134 314 134 Q367 134 399 180 L570 142 Q550 94 511.5 59 Q473 24 420.5 4.5 Q368 -15 308 -15 Z M305 420 Q271 420 249 398 Q227 376 219 334 L387 334 Q380 376 359 398 Q338 420 305 420 Z M398 -230 Q337 -230 302 -204 Q267 -178 267 -135 Q267 -94 298.5 -53.5 Q330 -13 400 36 L509 60 Q473 22 450.5 -6 Q428 -34 418 -55 Q408 -76 408 -92 Q408 -110 417.5 -120 Q427 -130 444 -130 Q454 -130 465 -128 Q476 -126 485 -121 L495 -211 Q447 -230 398 -230 Z " />
<glyph glyph-name="uni012F" unicode="&#x12f;" horiz-adv-x="277" d="M238 677 Q238 650 225 628 Q212 606 189 593.5 Q166 581 138 581 Q110 581 87.5 593.5 Q65 606 52 628 Q39 650 39 677 Q39 704 52 726 Q65 748 87.5 760.5 Q110 773 138 773 Q166 773 189 760.5 Q212 748 225 726 Q238 704 238 677 Z M45 0 L45 538 L232 538 L232 0 L45 0 Z M141 -230 Q80 -230 45 -205 Q10 -180 10 -137 Q10 -98 42.5 -58 Q75 -18 143 26 L232 0 Q188 -38 169.5 -60.5 Q151 -83 151 -99 Q151 -113 160.5 -121.5 Q170 -130 187 -130 Q198 -130 209 -128 Q220 -126 228 -121 L238 -211 Q196 -230 141 -230 Z " />
<glyph glyph-name="uni0173" unicode="&#x173;" horiz-adv-x="604" d="M299 -15 Q222 -15 164.5 17 Q107 49 76 107.5 Q45 166 45 245 L45 538 L232 538 L232 241 Q232 200 251 177 Q270 154 303 154 Q335 154 353.5 177 Q372 200 372 241 L372 538 L559 538 L559 245 Q559 186 540.5 138.5 Q522 91 487.5 56.5 Q453 22 405.5 3.5 Q358 -15 299 -15 Z M380 -230 Q319 -230 284 -204 Q249 -178 249 -135 Q249 -94 280.5 -53.5 Q312 -13 382 36 L491 60 Q455 22 432.5 -6 Q410 -34 400 -55 Q390 -76 390 -92 Q390 -110 399.5 -120 Q409 -130 426 -130 Q436 -130 447 -128 Q458 -126 467 -121 L477 -211 Q429 -230 380 -230 Z " />
<glyph glyph-name="uni0301" unicode="&#x301;" d="M-112 607 L-1 750 L203 750 L61 607 L-112 607 Z " />
<glyph glyph-name="uni00B4" unicode="&#xb4;" horiz-adv-x="608" d="M146 607 L257 750 L461 750 L319 607 L146 607 Z " />
<glyph glyph-name="uni030B" unicode="&#x30b;" d="M-187 607 L-91 750 L78 750 L-49 607 L-187 607 Z M23 607 L119 750 L288 750 L161 607 L23 607 Z " />
<glyph glyph-name="uni02DD" unicode="&#x2dd;" horiz-adv-x="608" d="M66 607 L162 750 L331 750 L204 607 L66 607 Z M276 607 L372 750 L541 750 L414 607 L276 607 Z " />
<glyph glyph-name="uni00C1" unicode="&#xc1;" horiz-adv-x="792" d="M10 0 L289 710 L502 710 L782 0 L573 0 L529 124 L255 124 L212 0 L10 0 Z M310 281 L474 281 L392 514 L310 281 Z M261 780 L401 923 L630 923 L449 780 L261 780 Z " />
<glyph glyph-name="uni0106" unicode="&#x106;" horiz-adv-x="756" d="M401 -20 Q338 -20 282 -2 Q226 16 181 49 Q136 82 103 127.5 Q70 173 52.5 229.5 Q35 286 35 350 Q35 414 53 471.5 Q71 529 104 576.5 Q137 624 183 658.5 Q229 693 284.5 711.5 Q340 730 402 730 Q462 730 515.5 713 Q569 696 612 664.5 Q655 633 685 589 Q715 545 729 491 L532 450 Q513 496 478 521 Q443 546 398 546 Q364 546 335.5 531.5 Q307 517 286 491 Q265 465 253.5 430 Q242 395 242 353 Q242 298 262 255 Q282 212 318 188 Q354 164 400 164 Q496 164 539 260 L736 219 Q722 164 691.5 120 Q661 76 617 44.5 Q573 13 518.5 -3.5 Q464 -20 401 -20 Z M266 780 L406 923 L635 923 L454 780 L266 780 Z " />
<glyph glyph-name="uni00C9" unicode="&#xc9;" horiz-adv-x="584" d="M55 0 L55 710 L528 710 L528 546 L245 546 L245 443 L493 443 L493 280 L245 280 L245 163 L539 163 L539 0 L55 0 Z M157 780 L297 923 L526 923 L345 780 L157 780 Z " />
<glyph glyph-name="uni00CD" unicode="&#xcd;" horiz-adv-x="310" d="M55 0 L55 710 L255 710 L255 0 L55 0 Z M21 780 L161 923 L390 923 L209 780 L21 780 Z " />
<glyph glyph-name="uni0139" unicode="&#x139;" horiz-adv-x="559" d="M55 0 L55 710 L255 710 L255 176 L524 176 L524 0 L55 0 Z M21 780 L161 923 L390 923 L209 780 L21 780 Z " />
<glyph glyph-name="uni0143" unicode="&#x143;" horiz-adv-x="752" d="M55 0 L55 710 L225 710 L507 295 L507 710 L697 710 L697 0 L527 0 L245 415 L245 0 L55 0 Z M242 780 L382 923 L611 923 L430 780 L242 780 Z " />
<glyph glyph-name="uni00D3" unicode="&#xd3;" horiz-adv-x="838" d="M418 -20 Q352 -20 294 -2 Q236 16 188.5 50 Q141 84 106.5 130 Q72 176 53.5 233 Q35 290 35 354 Q35 418 54 475 Q73 532 107.5 578.5 Q142 625 189.5 659 Q237 693 295.5 711.5 Q354 730 420 730 Q486 730 544 712 Q602 694 649.5 660 Q697 626 731.5 580 Q766 534 784.5 477 Q803 420 803 356 Q803 292 784 235 Q765 178 730.5 131.5 Q696 85 648.5 51 Q601 17 542.5 -1.5 Q484 -20 418 -20 Z M419 164 Q458 164 490 178 Q522 192 546 218 Q570 244 583 278.5 Q596 313 596 355 Q596 397 583 431.5 Q570 466 546 492 Q522 518 490 532 Q458 546 419 546 Q380 546 348 532 Q316 518 292 492 Q268 466 255 431.5 Q242 397 242 355 Q242 313 255 278.5 Q268 244 292 218 Q316 192 348 178 Q380 164 419 164 Z M285 780 L425 923 L654 923 L473 780 L285 780 Z " />
<glyph glyph-name="uni0154" unicode="&#x154;" horiz-adv-x="655" d="M55 0 L55 710 L310 710 Q402 710 469 681.5 Q536 653 571.5 600.5 Q607 548 607 475 Q607 436 593 399.5 Q579 363 554 332 Q529 301 495 280 L650 0 L440 0 L330 227 Q316 226 302 226 Q276 226 245 231 L245 0 L55 0 Z M245 551 L245 389 Q263 385 279.5 383.5 Q296 382 317 382 Q361 382 387 405 Q413 428 413 469 Q413 508 385.5 529.5 Q358 551 309 551 L245 551 Z M171 780 L311 923 L540 923 L359 780 L171 780 Z " />
<glyph glyph-name="uni015A" unicode="&#x15a;" horiz-adv-x="590" d="M293 -15 Q222 -15 164 9 Q106 33 68 77.5 Q30 122 15 183 L199 217 Q209 185 235 164.5 Q261 144 296 144 Q331 144 353 160 Q375 176 375 202 Q375 222 364.5 235 Q354 248 330 257 Q306 266 265 274 L244 278 Q178 290 131 320.5 Q84 351 58.5 395 Q33 439 33 494 Q33 544 53 586 Q73 628 109.5 659 Q146 690 195 707.5 Q244 725 301 725 Q368 725 421.5 701.5 Q475 678 510.5 635 Q546 592 559 533 L379 498 Q371 528 349.5 547 Q328 566 297 566 Q266 566 246.5 550 Q227 534 227 510 Q227 492 237 479.5 Q247 467 269.5 458.5 Q292 450 331 443 L351 439 Q456 418 513 361 Q570 304 570 221 Q570 170 549.5 126.5 Q529 83 492 51.5 Q455 20 404 2.5 Q353 -15 293 -15 Z M165 780 L305 923 L534 923 L353 780 L165 780 Z " />
<glyph glyph-name="uni00DA" unicode="&#xda;" horiz-adv-x="752" d="M375 -20 Q301 -20 241 2 Q181 24 138.5 66 Q96 108 73 166.5 Q50 225 50 297 L50 710 L250 710 L250 306 Q250 262 265.5 230.5 Q281 199 309.5 181.5 Q338 164 376 164 Q414 164 442.5 181.5 Q471 199 486.5 230.5 Q502 262 502 306 L502 710 L702 710 L702 297 Q702 225 679 166.5 Q656 108 613 66 Q570 24 510 2 Q450 -20 375 -20 Z M242 780 L382 923 L611 923 L430 780 L242 780 Z " />
<glyph glyph-name="uni1E82" unicode="&#x1e82;" horiz-adv-x="1072" d="M1047 710 L832 0 L652 0 L537 451 L422 0 L240 0 L25 710 L235 710 L338 267 L451 710 L628 710 L741 267 L844 710 L1047 710 Z M402 780 L542 923 L771 923 L590 780 L402 780 Z " />
<glyph glyph-name="uni00DD" unicode="&#xdd;" horiz-adv-x="702" d="M251 0 L251 271 L5 710 L226 710 L355 445 L483 710 L697 710 L451 271 L451 0 L251 0 Z M217 780 L357 923 L586 923 L405 780 L217 780 Z " />
<glyph glyph-name="uni0179" unicode="&#x179;" horiz-adv-x="659" d="M30 0 L30 141 L359 543 L45 543 L45 710 L612 710 L612 569 L282 167 L634 167 L634 0 L30 0 Z M194 780 L334 923 L563 923 L382 780 L194 780 Z " />
<glyph glyph-name="uni0150" unicode="&#x150;" horiz-adv-x="838" d="M418 -20 Q352 -20 294 -2 Q236 16 188.5 50 Q141 84 106.5 130 Q72 176 53.5 233 Q35 290 35 354 Q35 418 54 475 Q73 532 107.5 578.5 Q142 625 189.5 659 Q237 693 295.5 711.5 Q354 730 420 730 Q486 730 544 712 Q602 694 649.5 660 Q697 626 731.5 580 Q766 534 784.5 477 Q803 420 803 356 Q803 292 784 235 Q765 178 730.5 131.5 Q696 85 648.5 51 Q601 17 542.5 -1.5 Q484 -20 418 -20 Z M419 164 Q458 164 490 178 Q522 192 546 218 Q570 244 583 278.5 Q596 313 596 355 Q596 397 583 431.5 Q570 466 546 492 Q522 518 490 532 Q458 546 419 546 Q380 546 348 532 Q316 518 292 492 Q268 466 255 431.5 Q242 397 242 355 Q242 313 255 278.5 Q268 244 292 218 Q316 192 348 178 Q380 164 419 164 Z M175 780 L305 923 L514 923 L343 780 L175 780 Z M435 780 L565 923 L774 923 L603 780 L435 780 Z " />
<glyph glyph-name="uni0170" unicode="&#x170;" horiz-adv-x="752" d="M375 -20 Q301 -20 241 2 Q181 24 138.5 66 Q96 108 73 166.5 Q50 225 50 297 L50 710 L250 710 L250 306 Q250 262 265.5 230.5 Q281 199 309.5 181.5 Q338 164 376 164 Q414 164 442.5 181.5 Q471 199 486.5 230.5 Q502 262 502 306 L502 710 L702 710 L702 297 Q702 225 679 166.5 Q656 108 613 66 Q570 24 510 2 Q450 -20 375 -20 Z M132 780 L262 923 L471 923 L300 780 L132 780 Z M392 780 L522 923 L731 923 L560 780 L392 780 Z " />
<glyph glyph-name="uni00E1" unicode="&#xe1;" horiz-adv-x="572" d="M204 -15 Q165 -15 131.5 -2.5 Q98 10 73 32.5 Q48 55 34 85 Q20 115 20 150 Q20 202 48 241 Q76 280 126.5 302 Q177 324 244 324 Q273 324 296 320 Q319 316 345 306 L345 332 Q345 366 325.5 387.5 Q306 409 275 409 Q251 409 233 396.5 Q215 384 208 364 L39 390 Q47 426 69 456 Q91 486 123 507.5 Q155 529 194.5 541 Q234 553 279 553 Q334 553 379.5 536 Q425 519 458 488.5 Q491 458 509 415.5 Q527 373 527 322 L527 0 L359 0 L354 63 Q334 26 294.5 5.5 Q255 -15 204 -15 Z M203 163 Q203 143 219.5 129.5 Q236 116 261 116 Q284 116 303.5 126.5 Q323 137 334 154.5 Q345 172 345 195 L345 201 Q331 207 314 211 Q297 215 281 215 Q245 215 224 201 Q203 187 203 163 Z M173 607 L284 750 L488 750 L346 607 L173 607 Z " />
<glyph glyph-name="uni0107" unicode="&#x107;" horiz-adv-x="591" d="M307 -15 Q248 -15 197.5 6 Q147 27 109.5 65 Q72 103 51 153.5 Q30 204 30 264 Q30 326 51.5 378.5 Q73 431 111 470 Q149 509 200.5 531 Q252 553 312 553 Q376 553 429 528 Q482 503 518 457.5 Q554 412 566 352 L390 325 Q379 353 358.5 368.5 Q338 384 313 384 Q286 384 265 369 Q244 354 232 328 Q220 302 220 268 Q220 234 232 208.5 Q244 183 265 168.5 Q286 154 313 154 Q341 154 362.5 169.5 Q384 185 395 213 L571 186 Q562 141 538.5 104.5 Q515 68 480 41 Q445 14 401 -0.5 Q357 -15 307 -15 Z M200 607 L311 750 L515 750 L373 607 L200 607 Z " />
<glyph glyph-name="uni00E9" unicode="&#xe9;" horiz-adv-x="605" d="M308 -15 Q247 -15 196 6 Q145 27 108 65 Q71 103 50.5 155.5 Q30 208 30 271 Q30 331 50.5 382.5 Q71 434 108.5 472.5 Q146 511 196 532 Q246 553 305 553 Q368 553 418.5 532 Q469 511 505 472 Q541 433 560.5 378.5 Q580 324 580 256 L580 222 L221 222 Q230 179 254 156.5 Q278 134 314 134 Q367 134 399 180 L570 142 Q550 94 511.5 59 Q473 24 420.5 4.5 Q368 -15 308 -15 Z M305 420 Q271 420 249 398 Q227 376 219 334 L387 334 Q380 376 359 398 Q338 420 305 420 Z M193 607 L304 750 L508 750 L366 607 L193 607 Z " />
<glyph glyph-name="uni00ED" unicode="&#xed;" horiz-adv-x="277" d="M45 0 L45 538 L232 538 L232 0 L45 0 Z M26 607 L137 750 L341 750 L199 607 L26 607 Z " />
<glyph glyph-name="uni013A" unicode="&#x13a;" horiz-adv-x="277" d="M45 0 L45 750 L232 750 L232 0 L45 0 Z M26 815 L137 958 L341 958 L199 815 L26 815 Z " />
<glyph glyph-name="uni0144" unicode="&#x144;" horiz-adv-x="608" d="M45 0 L45 538 L218 538 L223 465 Q245 506 285 529.5 Q325 553 377 553 Q434 553 475.5 525.5 Q517 498 540 447 Q563 396 563 328 L563 0 L376 0 L376 300 Q376 338 358 361 Q340 384 309 384 Q286 384 269 373 Q252 362 242 343 Q232 324 232 300 L232 0 L45 0 Z M192 607 L303 750 L507 750 L365 607 L192 607 Z " />
<glyph glyph-name="uni00F3" unicode="&#xf3;" horiz-adv-x="644" d="M320 -15 Q258 -15 205 6.5 Q152 28 113 66.5 Q74 105 52 156.5 Q30 208 30 268 Q30 329 52 381 Q74 433 114 471.5 Q154 510 207.5 531.5 Q261 553 324 553 Q386 553 439 531.5 Q492 510 531 471.5 Q570 433 592 381.5 Q614 330 614 270 Q614 209 592 157 Q570 105 530 66.5 Q490 28 436.5 6.5 Q383 -15 320 -15 Z M322 154 Q351 154 374 169 Q397 184 410.5 210 Q424 236 424 269 Q424 302 410.5 328 Q397 354 374 369 Q351 384 322 384 Q293 384 270 369 Q247 354 233.5 328 Q220 302 220 269 Q220 236 233.5 210 Q247 184 270 169 Q293 154 322 154 Z M210 607 L321 750 L525 750 L383 607 L210 607 Z " />
<glyph glyph-name="uni0155" unicode="&#x155;" horiz-adv-x="415" d="M45 0 L45 538 L218 538 L224 451 Q244 497 277 521 Q310 545 354 545 Q380 545 400 536 L382 349 Q361 356 336 356 Q232 356 232 247 L232 0 L45 0 Z M114 607 L225 750 L429 750 L287 607 L114 607 Z " />
<glyph glyph-name="uni015B" unicode="&#x15b;" horiz-adv-x="512" d="M256 -15 Q196 -15 147 2.5 Q98 20 64 53 Q30 86 15 131 L183 158 Q190 138 210.5 126.5 Q231 115 258 115 Q284 115 299 125.5 Q314 136 314 154 Q314 173 296 183 Q278 193 234 199 L215 202 Q125 216 77 260 Q29 304 29 372 Q29 412 45 445 Q61 478 91 502 Q121 526 161.5 539.5 Q202 553 252 553 Q308 553 354.5 535.5 Q401 518 433 486 Q465 454 478 411 L312 384 Q295 423 252 423 Q229 423 215 412.5 Q201 402 201 385 Q201 374 207.5 366.5 Q214 359 230.5 353.5 Q247 348 276 344 L295 341 Q389 326 438 283 Q487 240 487 172 Q487 130 470.5 96 Q454 62 423 37 Q392 12 349.5 -1.5 Q307 -15 256 -15 Z M140 607 L251 750 L455 750 L313 607 L140 607 Z " />
<glyph glyph-name="uni00FA" unicode="&#xfa;" horiz-adv-x="604" d="M299 -15 Q222 -15 164.5 17 Q107 49 76 107.5 Q45 166 45 245 L45 538 L232 538 L232 241 Q232 200 251 177 Q270 154 303 154 Q335 154 353.5 177 Q372 200 372 241 L372 538 L559 538 L559 245 Q559 186 540.5 138.5 Q522 91 487.5 56.5 Q453 22 405.5 3.5 Q358 -15 299 -15 Z M190 607 L301 750 L505 750 L363 607 L190 607 Z " />
<glyph glyph-name="uni1E83" unicode="&#x1e83;" horiz-adv-x="874" d="M182 0 L5 538 L198 538 L271 212 L359 538 L518 538 L607 209 L683 538 L869 538 L692 0 L522 0 L436 322 L349 0 L182 0 Z M325 607 L436 750 L640 750 L498 607 L325 607 Z " />
<glyph glyph-name="uni00FD" unicode="&#xfd;" horiz-adv-x="591" d="M167 -197 Q102 -197 55 -171 L85 -33 Q97 -38 114.5 -42 Q132 -46 145 -46 Q170 -46 188 -34 Q206 -22 219 6 L5 538 L207 538 L306 188 L391 538 L586 538 L379 -26 Q346 -115 294.5 -156 Q243 -197 167 -197 Z M183 607 L294 750 L498 750 L356 607 L183 607 Z " />
<glyph glyph-name="uni017A" unicode="&#x17a;" horiz-adv-x="548" d="M35 0 L35 117 L265 395 L43 395 L43 538 L496 538 L496 421 L266 143 L513 143 L513 0 L35 0 Z M157 607 L268 750 L472 750 L330 607 L157 607 Z " />
<glyph glyph-name="uni0151" unicode="&#x151;" horiz-adv-x="644" d="M320 -15 Q258 -15 205 6.5 Q152 28 113 66.5 Q74 105 52 156.5 Q30 208 30 268 Q30 329 52 381 Q74 433 114 471.5 Q154 510 207.5 531.5 Q261 553 324 553 Q386 553 439 531.5 Q492 510 531 471.5 Q570 433 592 381.5 Q614 330 614 270 Q614 209 592 157 Q570 105 530 66.5 Q490 28 436.5 6.5 Q383 -15 320 -15 Z M322 154 Q351 154 374 169 Q397 184 410.5 210 Q424 236 424 269 Q424 302 410.5 328 Q397 354 374 369 Q351 384 322 384 Q293 384 270 369 Q247 354 233.5 328 Q220 302 220 269 Q220 236 233.5 210 Q247 184 270 169 Q293 154 322 154 Z M135 607 L231 750 L400 750 L273 607 L135 607 Z M345 607 L441 750 L610 750 L483 607 L345 607 Z " />
<glyph glyph-name="uni0171" unicode="&#x171;" horiz-adv-x="604" d="M299 -15 Q222 -15 164.5 17 Q107 49 76 107.5 Q45 166 45 245 L45 538 L232 538 L232 241 Q232 200 251 177 Q270 154 303 154 Q335 154 353.5 177 Q372 200 372 241 L372 538 L559 538 L559 245 Q559 186 540.5 138.5 Q522 91 487.5 56.5 Q453 22 405.5 3.5 Q358 -15 299 -15 Z M115 607 L211 750 L380 750 L253 607 L115 607 Z M325 607 L421 750 L590 750 L463 607 L325 607 Z " />
<glyph glyph-name="uni0300" unicode="&#x300;" d="M-60 607 L-202 750 L2 750 L113 607 L-60 607 Z " />
<glyph glyph-name="uni0060" unicode="&#x60;" horiz-adv-x="608" d="M288 607 L146 750 L350 750 L461 607 L288 607 Z " />
<glyph glyph-name="uni02CB" unicode="&#x2cb;" horiz-adv-x="608" d="M288 607 L146 750 L350 750 L461 607 L288 607 Z " />
<glyph glyph-name="uni00C0" unicode="&#xc0;" horiz-adv-x="792" d="M10 0 L289 710 L502 710 L782 0 L573 0 L529 124 L255 124 L212 0 L10 0 Z M310 281 L474 281 L392 514 L310 281 Z M341 780 L160 923 L389 923 L529 780 L341 780 Z " />
<glyph glyph-name="uni00C8" unicode="&#xc8;" horiz-adv-x="584" d="M55 0 L55 710 L528 710 L528 546 L245 546 L245 443 L493 443 L493 280 L245 280 L245 163 L539 163 L539 0 L55 0 Z M237 780 L56 923 L285 923 L425 780 L237 780 Z " />
<glyph glyph-name="uni00CC" unicode="&#xcc;" horiz-adv-x="310" d="M55 0 L55 710 L255 710 L255 0 L55 0 Z M101 780 L-80 923 L149 923 L289 780 L101 780 Z " />
<glyph glyph-name="uni00D2" unicode="&#xd2;" horiz-adv-x="838" d="M418 -20 Q352 -20 294 -2 Q236 16 188.5 50 Q141 84 106.5 130 Q72 176 53.5 233 Q35 290 35 354 Q35 418 54 475 Q73 532 107.5 578.5 Q142 625 189.5 659 Q237 693 295.5 711.5 Q354 730 420 730 Q486 730 544 712 Q602 694 649.5 660 Q697 626 731.5 580 Q766 534 784.5 477 Q803 420 803 356 Q803 292 784 235 Q765 178 730.5 131.5 Q696 85 648.5 51 Q601 17 542.5 -1.5 Q484 -20 418 -20 Z M419 164 Q458 164 490 178 Q522 192 546 218 Q570 244 583 278.5 Q596 313 596 355 Q596 397 583 431.5 Q570 466 546 492 Q522 518 490 532 Q458 546 419 546 Q380 546 348 532 Q316 518 292 492 Q268 466 255 431.5 Q242 397 242 355 Q242 313 255 278.5 Q268 244 292 218 Q316 192 348 178 Q380 164 419 164 Z M365 780 L184 923 L413 923 L553 780 L365 780 Z " />
<glyph glyph-name="uni00D9" unicode="&#xd9;" horiz-adv-x="752" d="M375 -20 Q301 -20 241 2 Q181 24 138.5 66 Q96 108 73 166.5 Q50 225 50 297 L50 710 L250 710 L250 306 Q250 262 265.5 230.5 Q281 199 309.5 181.5 Q338 164 376 164 Q414 164 442.5 181.5 Q471 199 486.5 230.5 Q502 262 502 306 L502 710 L702 710 L702 297 Q702 225 679 166.5 Q656 108 613 66 Q570 24 510 2 Q450 -20 375 -20 Z M322 780 L141 923 L370 923 L510 780 L322 780 Z " />
<glyph glyph-name="uni1E80" unicode="&#x1e80;" horiz-adv-x="1072" d="M1047 710 L832 0 L652 0 L537 451 L422 0 L240 0 L25 710 L235 710 L338 267 L451 710 L628 710 L741 267 L844 710 L1047 710 Z M482 780 L301 923 L530 923 L670 780 L482 780 Z " />
<glyph glyph-name="uni1EF2" unicode="&#x1ef2;" horiz-adv-x="702" d="M251 0 L251 271 L5 710 L226 710 L355 445 L483 710 L697 710 L451 271 L451 0 L251 0 Z M297 780 L116 923 L345 923 L485 780 L297 780 Z " />
<glyph glyph-name="uni00E0" unicode="&#xe0;" horiz-adv-x="572" d="M204 -15 Q165 -15 131.5 -2.5 Q98 10 73 32.5 Q48 55 34 85 Q20 115 20 150 Q20 202 48 241 Q76 280 126.5 302 Q177 324 244 324 Q273 324 296 320 Q319 316 345 306 L345 332 Q345 366 325.5 387.5 Q306 409 275 409 Q251 409 233 396.5 Q215 384 208 364 L39 390 Q47 426 69 456 Q91 486 123 507.5 Q155 529 194.5 541 Q234 553 279 553 Q334 553 379.5 536 Q425 519 458 488.5 Q491 458 509 415.5 Q527 373 527 322 L527 0 L359 0 L354 63 Q334 26 294.5 5.5 Q255 -15 204 -15 Z M203 163 Q203 143 219.5 129.5 Q236 116 261 116 Q284 116 303.5 126.5 Q323 137 334 154.5 Q345 172 345 195 L345 201 Q331 207 314 211 Q297 215 281 215 Q245 215 224 201 Q203 187 203 163 Z M225 607 L83 750 L287 750 L398 607 L225 607 Z " />
<glyph glyph-name="uni00E8" unicode="&#xe8;" horiz-adv-x="605" d="M308 -15 Q247 -15 196 6 Q145 27 108 65 Q71 103 50.5 155.5 Q30 208 30 271 Q30 331 50.5 382.5 Q71 434 108.5 472.5 Q146 511 196 532 Q246 553 305 553 Q368 553 418.5 532 Q469 511 505 472 Q541 433 560.5 378.5 Q580 324 580 256 L580 222 L221 222 Q230 179 254 156.5 Q278 134 314 134 Q367 134 399 180 L570 142 Q550 94 511.5 59 Q473 24 420.5 4.5 Q368 -15 308 -15 Z M305 420 Q271 420 249 398 Q227 376 219 334 L387 334 Q380 376 359 398 Q338 420 305 420 Z M245 607 L103 750 L307 750 L418 607 L245 607 Z " />
<glyph glyph-name="uni00EC" unicode="&#xec;" horiz-adv-x="277" d="M45 0 L45 538 L232 538 L232 0 L45 0 Z M78 607 L-64 750 L140 750 L251 607 L78 607 Z " />
<glyph glyph-name="uni00F2" unicode="&#xf2;" horiz-adv-x="644" d="M320 -15 Q258 -15 205 6.5 Q152 28 113 66.5 Q74 105 52 156.5 Q30 208 30 268 Q30 329 52 381 Q74 433 114 471.5 Q154 510 207.5 531.5 Q261 553 324 553 Q386 553 439 531.5 Q492 510 531 471.5 Q570 433 592 381.5 Q614 330 614 270 Q614 209 592 157 Q570 105 530 66.5 Q490 28 436.5 6.5 Q383 -15 320 -15 Z M322 154 Q351 154 374 169 Q397 184 410.5 210 Q424 236 424 269 Q424 302 410.5 328 Q397 354 374 369 Q351 384 322 384 Q293 384 270 369 Q247 354 233.5 328 Q220 302 220 269 Q220 236 233.5 210 Q247 184 270 169 Q293 154 322 154 Z M262 607 L120 750 L324 750 L435 607 L262 607 Z " />
<glyph glyph-name="uni00F9" unicode="&#xf9;" horiz-adv-x="604" d="M299 -15 Q222 -15 164.5 17 Q107 49 76 107.5 Q45 166 45 245 L45 538 L232 538 L232 241 Q232 200 251 177 Q270 154 303 154 Q335 154 353.5 177 Q372 200 372 241 L372 538 L559 538 L559 245 Q559 186 540.5 138.5 Q522 91 487.5 56.5 Q453 22 405.5 3.5 Q358 -15 299 -15 Z M242 607 L100 750 L304 750 L415 607 L242 607 Z " />
<glyph glyph-name="uni1E81" unicode="&#x1e81;" horiz-adv-x="874" d="M182 0 L5 538 L198 538 L271 212 L359 538 L518 538 L607 209 L683 538 L869 538 L692 0 L522 0 L436 322 L349 0 L182 0 Z M377 607 L235 750 L439 750 L550 607 L377 607 Z " />
<glyph glyph-name="uni1EF3" unicode="&#x1ef3;" horiz-adv-x="591" d="M167 -197 Q102 -197 55 -171 L85 -33 Q97 -38 114.5 -42 Q132 -46 145 -46 Q170 -46 188 -34 Q206 -22 219 6 L5 538 L207 538 L306 188 L391 538 L586 538 L379 -26 Q346 -115 294.5 -156 Q243 -197 167 -197 Z M235 607 L93 750 L297 750 L408 607 L235 607 Z " />
<glyph glyph-name="uni0302" unicode="&#x302;" d="M-213 607 L-72 750 L73 750 L214 607 L58 607 L-2 658 L-63 607 L-213 607 Z " />
<glyph glyph-name="uni02C6" unicode="&#x2c6;" horiz-adv-x="608" d="M90 607 L231 750 L376 750 L517 607 L361 607 L301 658 L240 607 L90 607 Z " />
<glyph glyph-name="uni0303" unicode="&#x303;" d="M65 602 Q43 602 26 608.5 Q9 615 -5.5 623 Q-20 631 -32 637.5 Q-44 644 -56 644 Q-68 644 -76.5 634.5 Q-85 625 -88 608 L-187 608 Q-183 654 -166.5 687 Q-150 720 -124 738 Q-98 756 -64 756 Q-42 756 -25 749.5 Q-8 743 6.5 735 Q21 727 33 720.5 Q45 714 57 714 Q69 714 77.5 723.5 Q86 733 89 750 L188 750 Q184 704 168 671 Q152 638 125.5 620 Q99 602 65 602 Z " />
<glyph glyph-name="uni02DC" unicode="&#x2dc;" horiz-adv-x="608" d="M368 602 Q346 602 329 608.5 Q312 615 297.5 623 Q283 631 271 637.5 Q259 644 247 644 Q235 644 226.5 634.5 Q218 625 215 608 L116 608 Q120 654 136.5 687 Q153 720 179 738 Q205 756 239 756 Q261 756 278 749.5 Q295 743 309.5 735 Q324 727 336 720.5 Q348 714 360 714 Q372 714 380.5 723.5 Q389 733 392 750 L491 750 Q487 704 471 671 Q455 638 428.5 620 Q402 602 368 602 Z " />
<glyph glyph-name="uni00C2" unicode="&#xc2;" horiz-adv-x="792" d="M10 0 L289 710 L502 710 L782 0 L573 0 L529 124 L255 124 L212 0 L10 0 Z M310 281 L474 281 L392 514 L310 281 Z M157 780 L308 923 L483 923 L634 780 L458 780 L393 834 L327 780 L157 780 Z " />
<glyph glyph-name="uni00CA" unicode="&#xca;" horiz-adv-x="584" d="M55 0 L55 710 L528 710 L528 546 L245 546 L245 443 L493 443 L493 280 L245 280 L245 163 L539 163 L539 0 L55 0 Z M53 780 L204 923 L379 923 L530 780 L354 780 L289 834 L223 780 L53 780 Z " />
<glyph glyph-name="uni00CE" unicode="&#xce;" horiz-adv-x="310" d="M55 0 L55 710 L255 710 L255 0 L55 0 Z M-83 780 L68 923 L243 923 L394 780 L218 780 L153 834 L87 780 L-83 780 Z " />
<glyph glyph-name="uni00D4" unicode="&#xd4;" horiz-adv-x="838" d="M418 -20 Q352 -20 294 -2 Q236 16 188.5 50 Q141 84 106.5 130 Q72 176 53.5 233 Q35 290 35 354 Q35 418 54 475 Q73 532 107.5 578.5 Q142 625 189.5 659 Q237 693 295.5 711.5 Q354 730 420 730 Q486 730 544 712 Q602 694 649.5 660 Q697 626 731.5 580 Q766 534 784.5 477 Q803 420 803 356 Q803 292 784 235 Q765 178 730.5 131.5 Q696 85 648.5 51 Q601 17 542.5 -1.5 Q484 -20 418 -20 Z M419 164 Q458 164 490 178 Q522 192 546 218 Q570 244 583 278.5 Q596 313 596 355 Q596 397 583 431.5 Q570 466 546 492 Q522 518 490 532 Q458 546 419 546 Q380 546 348 532 Q316 518 292 492 Q268 466 255 431.5 Q242 397 242 355 Q242 313 255 278.5 Q268 244 292 218 Q316 192 348 178 Q380 164 419 164 Z M181 780 L332 923 L507 923 L658 780 L482 780 L417 834 L351 780 L181 780 Z " />
<glyph glyph-name="uni00DB" unicode="&#xdb;" horiz-adv-x="752" d="M375 -20 Q301 -20 241 2 Q181 24 138.5 66 Q96 108 73 166.5 Q50 225 50 297 L50 710 L250 710 L250 306 Q250 262 265.5 230.5 Q281 199 309.5 181.5 Q338 164 376 164 Q414 164 442.5 181.5 Q471 199 486.5 230.5 Q502 262 502 306 L502 710 L702 710 L702 297 Q702 225 679 166.5 Q656 108 613 66 Q570 24 510 2 Q450 -20 375 -20 Z M138 780 L289 923 L464 923 L615 780 L439 780 L374 834 L308 780 L138 780 Z " />
<glyph glyph-name="uni0174" unicode="&#x174;" horiz-adv-x="1072" d="M1047 710 L832 0 L652 0 L537 451 L422 0 L240 0 L25 710 L235 710 L338 267 L451 710 L628 710 L741 267 L844 710 L1047 710 Z M298 780 L449 923 L624 923 L775 780 L599 780 L534 834 L468 780 L298 780 Z " />
<glyph glyph-name="uni0176" unicode="&#x176;" horiz-adv-x="702" d="M251 0 L251 271 L5 710 L226 710 L355 445 L483 710 L697 710 L451 271 L451 0 L251 0 Z M113 780 L264 923 L439 923 L590 780 L414 780 L349 834 L283 780 L113 780 Z " />
<glyph glyph-name="uni00C3" unicode="&#xc3;" horiz-adv-x="792" d="M10 0 L289 710 L502 710 L782 0 L573 0 L529 124 L255 124 L212 0 L10 0 Z M310 281 L474 281 L392 514 L310 281 Z M468 774 Q444 774 424 781 Q404 788 388 797.5 Q372 807 358 814 Q344 821 331 821 Q316 821 306 810.5 Q296 800 292 780 L183 780 Q187 828 206 863.5 Q225 899 255 918.5 Q285 938 323 938 Q347 938 367 931 Q387 924 403 914.5 Q419 905 433 898 Q447 891 460 891 Q475 891 485 901.5 Q495 912 499 932 L608 932 Q604 884 585.5 848.5 Q567 813 537 793.5 Q507 774 468 774 Z " />
<glyph glyph-name="uni0128" unicode="&#x128;" horiz-adv-x="310" d="M55 0 L55 710 L255 710 L255 0 L55 0 Z M228 774 Q204 774 184 781 Q164 788 148 797.5 Q132 807 118 814 Q104 821 91 821 Q76 821 66 810.5 Q56 800 52 780 L-57 780 Q-53 828 -34 863.5 Q-15 899 15 918.5 Q45 938 83 938 Q107 938 127 931 Q147 924 163 914.5 Q179 905 193 898 Q207 891 220 891 Q235 891 245 901.5 Q255 912 259 932 L368 932 Q364 884 345.5 848.5 Q327 813 297 793.5 Q267 774 228 774 Z " />
<glyph glyph-name="uni00D1" unicode="&#xd1;" horiz-adv-x="752" d="M55 0 L55 710 L225 710 L507 295 L507 710 L697 710 L697 0 L527 0 L245 415 L245 0 L55 0 Z M449 774 Q425 774 405 781 Q385 788 369 797.5 Q353 807 339 814 Q325 821 312 821 Q297 821 287 810.5 Q277 800 273 780 L164 780 Q168 828 187 863.5 Q206 899 236 918.5 Q266 938 304 938 Q328 938 348 931 Q368 924 384 914.5 Q400 905 414 898 Q428 891 441 891 Q456 891 466 901.5 Q476 912 480 932 L589 932 Q585 884 566.5 848.5 Q548 813 518 793.5 Q488 774 449 774 Z " />
<glyph glyph-name="uni00D5" unicode="&#xd5;" horiz-adv-x="838" d="M418 -20 Q352 -20 294 -2 Q236 16 188.5 50 Q141 84 106.5 130 Q72 176 53.5 233 Q35 290 35 354 Q35 418 54 475 Q73 532 107.5 578.5 Q142 625 189.5 659 Q237 693 295.5 711.5 Q354 730 420 730 Q486 730 544 712 Q602 694 649.5 660 Q697 626 731.5 580 Q766 534 784.5 477 Q803 420 803 356 Q803 292 784 235 Q765 178 730.5 131.5 Q696 85 648.5 51 Q601 17 542.5 -1.5 Q484 -20 418 -20 Z M419 164 Q458 164 490 178 Q522 192 546 218 Q570 244 583 278.5 Q596 313 596 355 Q596 397 583 431.5 Q570 466 546 492 Q522 518 490 532 Q458 546 419 546 Q380 546 348 532 Q316 518 292 492 Q268 466 255 431.5 Q242 397 242 355 Q242 313 255 278.5 Q268 244 292 218 Q316 192 348 178 Q380 164 419 164 Z M492 774 Q468 774 448 781 Q428 788 412 797.5 Q396 807 382 814 Q368 821 355 821 Q340 821 330 810.5 Q320 800 316 780 L207 780 Q211 828 230 863.5 Q249 899 279 918.5 Q309 938 347 938 Q371 938 391 931 Q411 924 427 914.5 Q443 905 457 898 Q471 891 484 891 Q499 891 509 901.5 Q519 912 523 932 L632 932 Q628 884 609.5 848.5 Q591 813 561 793.5 Q531 774 492 774 Z " />
<glyph glyph-name="uni0168" unicode="&#x168;" horiz-adv-x="752" d="M375 -20 Q301 -20 241 2 Q181 24 138.5 66 Q96 108 73 166.5 Q50 225 50 297 L50 710 L250 710 L250 306 Q250 262 265.5 230.5 Q281 199 309.5 181.5 Q338 164 376 164 Q414 164 442.5 181.5 Q471 199 486.5 230.5 Q502 262 502 306 L502 710 L702 710 L702 297 Q702 225 679 166.5 Q656 108 613 66 Q570 24 510 2 Q450 -20 375 -20 Z M449 774 Q425 774 405 781 Q385 788 369 797.5 Q353 807 339 814 Q325 821 312 821 Q297 821 287 810.5 Q277 800 273 780 L164 780 Q168 828 187 863.5 Q206 899 236 918.5 Q266 938 304 938 Q328 938 348 931 Q368 924 384 914.5 Q400 905 414 898 Q428 891 441 891 Q456 891 466 901.5 Q476 912 480 932 L589 932 Q585 884 566.5 848.5 Q548 813 518 793.5 Q488 774 449 774 Z " />
<glyph glyph-name="uni00E2" unicode="&#xe2;" horiz-adv-x="572" d="M204 -15 Q165 -15 131.5 -2.5 Q98 10 73 32.5 Q48 55 34 85 Q20 115 20 150 Q20 202 48 241 Q76 280 126.5 302 Q177 324 244 324 Q273 324 296 320 Q319 316 345 306 L345 332 Q345 366 325.5 387.5 Q306 409 275 409 Q251 409 233 396.5 Q215 384 208 364 L39 390 Q47 426 69 456 Q91 486 123 507.5 Q155 529 194.5 541 Q234 553 279 553 Q334 553 379.5 536 Q425 519 458 488.5 Q491 458 509 415.5 Q527 373 527 322 L527 0 L359 0 L354 63 Q334 26 294.5 5.5 Q255 -15 204 -15 Z M203 163 Q203 143 219.5 129.5 Q236 116 261 116 Q284 116 303.5 126.5 Q323 137 334 154.5 Q345 172 345 195 L345 201 Q331 207 314 211 Q297 215 281 215 Q245 215 224 201 Q203 187 203 163 Z M72 607 L213 750 L358 750 L499 607 L343 607 L283 658 L222 607 L72 607 Z " />
<glyph glyph-name="uni00EA" unicode="&#xea;" horiz-adv-x="605" d="M308 -15 Q247 -15 196 6 Q145 27 108 65 Q71 103 50.5 155.5 Q30 208 30 271 Q30 331 50.5 382.5 Q71 434 108.5 472.5 Q146 511 196 532 Q246 553 305 553 Q368 553 418.5 532 Q469 511 505 472 Q541 433 560.5 378.5 Q580 324 580 256 L580 222 L221 222 Q230 179 254 156.5 Q278 134 314 134 Q367 134 399 180 L570 142 Q550 94 511.5 59 Q473 24 420.5 4.5 Q368 -15 308 -15 Z M305 420 Q271 420 249 398 Q227 376 219 334 L387 334 Q380 376 359 398 Q338 420 305 420 Z M92 607 L233 750 L378 750 L519 607 L363 607 L303 658 L242 607 L92 607 Z " />
<glyph glyph-name="uni00EE" unicode="&#xee;" horiz-adv-x="277" d="M45 0 L45 538 L232 538 L232 0 L45 0 Z M-75 607 L66 750 L211 750 L352 607 L196 607 L136 658 L75 607 L-75 607 Z " />
<glyph glyph-name="uni00F4" unicode="&#xf4;" horiz-adv-x="644" d="M320 -15 Q258 -15 205 6.5 Q152 28 113 66.5 Q74 105 52 156.5 Q30 208 30 268 Q30 329 52 381 Q74 433 114 471.5 Q154 510 207.5 531.5 Q261 553 324 553 Q386 553 439 531.5 Q492 510 531 471.5 Q570 433 592 381.5 Q614 330 614 270 Q614 209 592 157 Q570 105 530 66.5 Q490 28 436.5 6.5 Q383 -15 320 -15 Z M322 154 Q351 154 374 169 Q397 184 410.5 210 Q424 236 424 269 Q424 302 410.5 328 Q397 354 374 369 Q351 384 322 384 Q293 384 270 369 Q247 354 233.5 328 Q220 302 220 269 Q220 236 233.5 210 Q247 184 270 169 Q293 154 322 154 Z M109 607 L250 750 L395 750 L536 607 L380 607 L320 658 L259 607 L109 607 Z " />
<glyph glyph-name="uni00FB" unicode="&#xfb;" horiz-adv-x="604" d="M299 -15 Q222 -15 164.5 17 Q107 49 76 107.5 Q45 166 45 245 L45 538 L232 538 L232 241 Q232 200 251 177 Q270 154 303 154 Q335 154 353.5 177 Q372 200 372 241 L372 538 L559 538 L559 245 Q559 186 540.5 138.5 Q522 91 487.5 56.5 Q453 22 405.5 3.5 Q358 -15 299 -15 Z M89 607 L230 750 L375 750 L516 607 L360 607 L300 658 L239 607 L89 607 Z " />
<glyph glyph-name="uni0175" unicode="&#x175;" horiz-adv-x="874" d="M182 0 L5 538 L198 538 L271 212 L359 538 L518 538 L607 209 L683 538 L869 538 L692 0 L522 0 L436 322 L349 0 L182 0 Z M224 607 L365 750 L510 750 L651 607 L495 607 L435 658 L374 607 L224 607 Z " />
<glyph glyph-name="uni0177" unicode="&#x177;" horiz-adv-x="591" d="M167 -197 Q102 -197 55 -171 L85 -33 Q97 -38 114.5 -42 Q132 -46 145 -46 Q170 -46 188 -34 Q206 -22 219 6 L5 538 L207 538 L306 188 L391 538 L586 538 L379 -26 Q346 -115 294.5 -156 Q243 -197 167 -197 Z M82 607 L223 750 L368 750 L509 607 L353 607 L293 658 L232 607 L82 607 Z " />
<glyph glyph-name="uni00E3" unicode="&#xe3;" horiz-adv-x="572" d="M204 -15 Q165 -15 131.5 -2.5 Q98 10 73 32.5 Q48 55 34 85 Q20 115 20 150 Q20 202 48 241 Q76 280 126.5 302 Q177 324 244 324 Q273 324 296 320 Q319 316 345 306 L345 332 Q345 366 325.5 387.5 Q306 409 275 409 Q251 409 233 396.5 Q215 384 208 364 L39 390 Q47 426 69 456 Q91 486 123 507.5 Q155 529 194.5 541 Q234 553 279 553 Q334 553 379.5 536 Q425 519 458 488.5 Q491 458 509 415.5 Q527 373 527 322 L527 0 L359 0 L354 63 Q334 26 294.5 5.5 Q255 -15 204 -15 Z M203 163 Q203 143 219.5 129.5 Q236 116 261 116 Q284 116 303.5 126.5 Q323 137 334 154.5 Q345 172 345 195 L345 201 Q331 207 314 211 Q297 215 281 215 Q245 215 224 201 Q203 187 203 163 Z M350 602 Q328 602 311 608.5 Q294 615 279.5 623 Q265 631 253 637.5 Q241 644 229 644 Q217 644 208.5 634.5 Q200 625 197 608 L98 608 Q102 654 118.5 687 Q135 720 161 738 Q187 756 221 756 Q243 756 260 749.5 Q277 743 291.5 735 Q306 727 318 720.5 Q330 714 342 714 Q354 714 362.5 723.5 Q371 733 374 750 L473 750 Q469 704 453 671 Q437 638 410.5 620 Q384 602 350 602 Z " />
<glyph glyph-name="uni0129" unicode="&#x129;" horiz-adv-x="277" d="M45 0 L45 538 L232 538 L232 0 L45 0 Z M203 602 Q181 602 164 608.5 Q147 615 132.5 623 Q118 631 106 637.5 Q94 644 82 644 Q70 644 61.5 634.5 Q53 625 50 608 L-49 608 Q-45 654 -28.5 687 Q-12 720 14 738 Q40 756 74 756 Q96 756 113 749.5 Q130 743 144.5 735 Q159 727 171 720.5 Q183 714 195 714 Q207 714 215.5 723.5 Q224 733 227 750 L326 750 Q322 704 306 671 Q290 638 263.5 620 Q237 602 203 602 Z " />
<glyph glyph-name="uni00F1" unicode="&#xf1;" horiz-adv-x="608" d="M45 0 L45 538 L218 538 L223 465 Q245 506 285 529.5 Q325 553 377 553 Q434 553 475.5 525.5 Q517 498 540 447 Q563 396 563 328 L563 0 L376 0 L376 300 Q376 338 358 361 Q340 384 309 384 Q286 384 269 373 Q252 362 242 343 Q232 324 232 300 L232 0 L45 0 Z M369 602 Q347 602 330 608.5 Q313 615 298.5 623 Q284 631 272 637.5 Q260 644 248 644 Q236 644 227.5 634.5 Q219 625 216 608 L117 608 Q121 654 137.5 687 Q154 720 180 738 Q206 756 240 756 Q262 756 279 749.5 Q296 743 310.5 735 Q325 727 337 720.5 Q349 714 361 714 Q373 714 381.5 723.5 Q390 733 393 750 L492 750 Q488 704 472 671 Q456 638 429.5 620 Q403 602 369 602 Z " />
<glyph glyph-name="uni00F5" unicode="&#xf5;" horiz-adv-x="644" d="M320 -15 Q258 -15 205 6.5 Q152 28 113 66.5 Q74 105 52 156.5 Q30 208 30 268 Q30 329 52 381 Q74 433 114 471.5 Q154 510 207.5 531.5 Q261 553 324 553 Q386 553 439 531.5 Q492 510 531 471.5 Q570 433 592 381.5 Q614 330 614 270 Q614 209 592 157 Q570 105 530 66.5 Q490 28 436.5 6.5 Q383 -15 320 -15 Z M322 154 Q351 154 374 169 Q397 184 410.5 210 Q424 236 424 269 Q424 302 410.5 328 Q397 354 374 369 Q351 384 322 384 Q293 384 270 369 Q247 354 233.5 328 Q220 302 220 269 Q220 236 233.5 210 Q247 184 270 169 Q293 154 322 154 Z M387 602 Q365 602 348 608.5 Q331 615 316.5 623 Q302 631 290 637.5 Q278 644 266 644 Q254 644 245.5 634.5 Q237 625 234 608 L135 608 Q139 654 155.5 687 Q172 720 198 738 Q224 756 258 756 Q280 756 297 749.5 Q314 743 328.5 735 Q343 727 355 720.5 Q367 714 379 714 Q391 714 399.5 723.5 Q408 733 411 750 L510 750 Q506 704 490 671 Q474 638 447.5 620 Q421 602 387 602 Z " />
<glyph glyph-name="uni0169" unicode="&#x169;" horiz-adv-x="604" d="M299 -15 Q222 -15 164.5 17 Q107 49 76 107.5 Q45 166 45 245 L45 538 L232 538 L232 241 Q232 200 251 177 Q270 154 303 154 Q335 154 353.5 177 Q372 200 372 241 L372 538 L559 538 L559 245 Q559 186 540.5 138.5 Q522 91 487.5 56.5 Q453 22 405.5 3.5 Q358 -15 299 -15 Z M367 602 Q345 602 328 608.5 Q311 615 296.5 623 Q282 631 270 637.5 Q258 644 246 644 Q234 644 225.5 634.5 Q217 625 214 608 L115 608 Q119 654 135.5 687 Q152 720 178 738 Q204 756 238 756 Q260 756 277 749.5 Q294 743 308.5 735 Q323 727 335 720.5 Q347 714 359 714 Q371 714 379.5 723.5 Q388 733 391 750 L490 750 Q486 704 470 671 Q454 638 427.5 620 Q401 602 367 602 Z " />
<glyph glyph-name="uni030C" unicode="&#x30c;" d="M-72 607 L-213 750 L-57 750 L3 699 L64 750 L214 750 L73 607 L-72 607 Z " />
<glyph glyph-name="uni02C7" unicode="&#x2c7;" horiz-adv-x="608" d="M231 607 L90 750 L246 750 L306 699 L367 750 L517 750 L376 607 L231 607 Z " />
<glyph glyph-name="uni0315" unicode="&#x315;" d="M61 547 L72 750 L220 750 L164 547 L61 547 Z " />
<glyph glyph-name="uni0304" unicode="&#x304;" d="M-169 608 L-169 725 L169 725 L169 608 L-169 608 Z " />
<glyph glyph-name="uni02C9" unicode="&#x2c9;" horiz-adv-x="608" d="M135 608 L135 725 L473 725 L473 608 L135 608 Z " />
<glyph glyph-name="uni00AF" unicode="&#xaf;" horiz-adv-x="608" d="M135 608 L135 725 L473 725 L473 608 L135 608 Z " />
<glyph glyph-name="uni010C" unicode="&#x10c;" horiz-adv-x="756" d="M401 -20 Q338 -20 282 -2 Q226 16 181 49 Q136 82 103 127.5 Q70 173 52.5 229.5 Q35 286 35 350 Q35 414 53 471.5 Q71 529 104 576.5 Q137 624 183 658.5 Q229 693 284.5 711.5 Q340 730 402 730 Q462 730 515.5 713 Q569 696 612 664.5 Q655 633 685 589 Q715 545 729 491 L532 450 Q513 496 478 521 Q443 546 398 546 Q364 546 335.5 531.5 Q307 517 286 491 Q265 465 253.5 430 Q242 395 242 353 Q242 298 262 255 Q282 212 318 188 Q354 164 400 164 Q496 164 539 260 L736 219 Q722 164 691.5 120 Q661 76 617 44.5 Q573 13 518.5 -3.5 Q464 -20 401 -20 Z M313 780 L162 923 L338 923 L403 869 L469 923 L639 923 L488 780 L313 780 Z " />
<glyph glyph-name="uni010E" unicode="&#x10e;" horiz-adv-x="774" d="M55 0 L55 710 L362 710 Q445 710 514 684 Q583 658 633.5 611 Q684 564 711.5 499.5 Q739 435 739 357 Q739 279 711 213.5 Q683 148 632 100 Q581 52 511.5 26 Q442 0 359 0 L55 0 Z M255 176 L349 176 Q406 176 447 198 Q488 220 510 260 Q532 300 532 355 Q532 410 510 450 Q488 490 447 512 Q406 534 349 534 L255 534 L255 176 Z M273 780 L122 923 L298 923 L363 869 L429 923 L599 923 L448 780 L273 780 Z " />
<glyph glyph-name="uni011A" unicode="&#x11a;" horiz-adv-x="584" d="M55 0 L55 710 L528 710 L528 546 L245 546 L245 443 L493 443 L493 280 L245 280 L245 163 L539 163 L539 0 L55 0 Z M204 780 L53 923 L229 923 L294 869 L360 923 L530 923 L379 780 L204 780 Z " />
<glyph glyph-name="uni013D" unicode="&#x13d;" horiz-adv-x="559" d="M55 0 L55 710 L255 710 L255 176 L524 176 L524 0 L55 0 Z M316 547 L327 750 L475 750 L419 547 L316 547 Z " />
<glyph glyph-name="uni0147" unicode="&#x147;" horiz-adv-x="752" d="M55 0 L55 710 L225 710 L507 295 L507 710 L697 710 L697 0 L527 0 L245 415 L245 0 L55 0 Z M289 780 L138 923 L314 923 L379 869 L445 923 L615 923 L464 780 L289 780 Z " />
<glyph glyph-name="uni0158" unicode="&#x158;" horiz-adv-x="655" d="M55 0 L55 710 L310 710 Q402 710 469 681.5 Q536 653 571.5 600.5 Q607 548 607 475 Q607 436 593 399.5 Q579 363 554 332 Q529 301 495 280 L650 0 L440 0 L330 227 Q316 226 302 226 Q276 226 245 231 L245 0 L55 0 Z M245 551 L245 389 Q263 385 279.5 383.5 Q296 382 317 382 Q361 382 387 405 Q413 428 413 469 Q413 508 385.5 529.5 Q358 551 309 551 L245 551 Z M218 780 L67 923 L243 923 L308 869 L374 923 L544 923 L393 780 L218 780 Z " />
<glyph glyph-name="uni0160" unicode="&#x160;" horiz-adv-x="590" d="M293 -15 Q222 -15 164 9 Q106 33 68 77.5 Q30 122 15 183 L199 217 Q209 185 235 164.5 Q261 144 296 144 Q331 144 353 160 Q375 176 375 202 Q375 222 364.5 235 Q354 248 330 257 Q306 266 265 274 L244 278 Q178 290 131 320.5 Q84 351 58.5 395 Q33 439 33 494 Q33 544 53 586 Q73 628 109.5 659 Q146 690 195 707.5 Q244 725 301 725 Q368 725 421.5 701.5 Q475 678 510.5 635 Q546 592 559 533 L379 498 Q371 528 349.5 547 Q328 566 297 566 Q266 566 246.5 550 Q227 534 227 510 Q227 492 237 479.5 Q247 467 269.5 458.5 Q292 450 331 443 L351 439 Q456 418 513 361 Q570 304 570 221 Q570 170 549.5 126.5 Q529 83 492 51.5 Q455 20 404 2.5 Q353 -15 293 -15 Z M212 780 L61 923 L237 923 L302 869 L368 923 L538 923 L387 780 L212 780 Z " />
<glyph glyph-name="uni0164" unicode="&#x164;" horiz-adv-x="644" d="M222 0 L222 534 L35 534 L35 710 L609 710 L609 534 L422 534 L422 0 L222 0 Z M235 780 L84 923 L260 923 L325 869 L391 923 L561 923 L410 780 L235 780 Z " />
<glyph glyph-name="uni017D" unicode="&#x17d;" horiz-adv-x="659" d="M30 0 L30 141 L359 543 L45 543 L45 710 L612 710 L612 569 L282 167 L634 167 L634 0 L30 0 Z M241 780 L90 923 L266 923 L331 869 L397 923 L567 923 L416 780 L241 780 Z " />
<glyph glyph-name="uni0100" unicode="&#x100;" horiz-adv-x="792" d="M10 0 L289 710 L502 710 L782 0 L573 0 L529 124 L255 124 L212 0 L10 0 Z M310 281 L474 281 L392 514 L310 281 Z M201 785 L201 912 L589 912 L589 785 L201 785 Z " />
<glyph glyph-name="uni0112" unicode="&#x112;" horiz-adv-x="584" d="M55 0 L55 710 L528 710 L528 546 L245 546 L245 443 L493 443 L493 280 L245 280 L245 163 L539 163 L539 0 L55 0 Z M97 785 L97 912 L485 912 L485 785 L97 785 Z " />
<glyph glyph-name="uni012A" unicode="&#x12a;" horiz-adv-x="310" d="M55 0 L55 710 L255 710 L255 0 L55 0 Z M-39 785 L-39 912 L349 912 L349 785 L-39 785 Z " />
<glyph glyph-name="uni016A" unicode="&#x16a;" horiz-adv-x="752" d="M375 -20 Q301 -20 241 2 Q181 24 138.5 66 Q96 108 73 166.5 Q50 225 50 297 L50 710 L250 710 L250 306 Q250 262 265.5 230.5 Q281 199 309.5 181.5 Q338 164 376 164 Q414 164 442.5 181.5 Q471 199 486.5 230.5 Q502 262 502 306 L502 710 L702 710 L702 297 Q702 225 679 166.5 Q656 108 613 66 Q570 24 510 2 Q450 -20 375 -20 Z M182 785 L182 912 L570 912 L570 785 L182 785 Z " />
<glyph glyph-name="uni010D" unicode="&#x10d;" horiz-adv-x="591" d="M307 -15 Q248 -15 197.5 6 Q147 27 109.5 65 Q72 103 51 153.5 Q30 204 30 264 Q30 326 51.5 378.5 Q73 431 111 470 Q149 509 200.5 531 Q252 553 312 553 Q376 553 429 528 Q482 503 518 457.5 Q554 412 566 352 L390 325 Q379 353 358.5 368.5 Q338 384 313 384 Q286 384 265 369 Q244 354 232 328 Q220 302 220 268 Q220 234 232 208.5 Q244 183 265 168.5 Q286 154 313 154 Q341 154 362.5 169.5 Q384 185 395 213 L571 186 Q562 141 538.5 104.5 Q515 68 480 41 Q445 14 401 -0.5 Q357 -15 307 -15 Z M240 607 L99 750 L255 750 L315 699 L376 750 L526 750 L385 607 L240 607 Z " />
<glyph glyph-name="uni010F" unicode="&#x10f;" horiz-adv-x="750" d="M267 -15 Q217 -15 174 6.5 Q131 28 98.5 66 Q66 104 48 155 Q30 206 30 265 Q30 326 49 378.5 Q68 431 102 470 Q136 509 181.5 531 Q227 553 280 553 Q325 553 361.5 536 Q398 519 423 487 L423 750 L610 750 L610 0 L437 0 L432 76 Q406 34 362.5 9.5 Q319 -15 267 -15 Z M323 155 Q352 155 375 170 Q398 185 411 211 Q424 237 424 270 Q424 303 411 329 Q398 355 375 370 Q352 385 323 385 Q294 385 270.5 370 Q247 355 233.5 329 Q220 303 220 270 Q220 237 233.5 211 Q247 185 270.5 170 Q294 155 323 155 Z M671 547 L682 750 L830 750 L774 547 L671 547 Z " />
<glyph glyph-name="uni011B" unicode="&#x11b;" horiz-adv-x="605" d="M308 -15 Q247 -15 196 6 Q145 27 108 65 Q71 103 50.5 155.5 Q30 208 30 271 Q30 331 50.5 382.5 Q71 434 108.5 472.5 Q146 511 196 532 Q246 553 305 553 Q368 553 418.5 532 Q469 511 505 472 Q541 433 560.5 378.5 Q580 324 580 256 L580 222 L221 222 Q230 179 254 156.5 Q278 134 314 134 Q367 134 399 180 L570 142 Q550 94 511.5 59 Q473 24 420.5 4.5 Q368 -15 308 -15 Z M305 420 Q271 420 249 398 Q227 376 219 334 L387 334 Q380 376 359 398 Q338 420 305 420 Z M233 607 L92 750 L248 750 L308 699 L369 750 L519 750 L378 607 L233 607 Z " />
<glyph glyph-name="uni013E" unicode="&#x13e;" horiz-adv-x="372" d="M45 0 L45 750 L232 750 L232 0 L45 0 Z M293 547 L304 750 L452 750 L396 547 L293 547 Z " />
<glyph glyph-name="uni0148" unicode="&#x148;" horiz-adv-x="608" d="M45 0 L45 538 L218 538 L223 465 Q245 506 285 529.5 Q325 553 377 553 Q434 553 475.5 525.5 Q517 498 540 447 Q563 396 563 328 L563 0 L376 0 L376 300 Q376 338 358 361 Q340 384 309 384 Q286 384 269 373 Q252 362 242 343 Q232 324 232 300 L232 0 L45 0 Z M232 607 L91 750 L247 750 L307 699 L368 750 L518 750 L377 607 L232 607 Z " />
<glyph glyph-name="uni0159" unicode="&#x159;" horiz-adv-x="415" d="M45 0 L45 538 L218 538 L224 451 Q244 497 277 521 Q310 545 354 545 Q380 545 400 536 L382 349 Q361 356 336 356 Q232 356 232 247 L232 0 L45 0 Z M154 607 L13 750 L169 750 L229 699 L290 750 L440 750 L299 607 L154 607 Z " />
<glyph glyph-name="uni0161" unicode="&#x161;" horiz-adv-x="512" d="M256 -15 Q196 -15 147 2.5 Q98 20 64 53 Q30 86 15 131 L183 158 Q190 138 210.5 126.5 Q231 115 258 115 Q284 115 299 125.5 Q314 136 314 154 Q314 173 296 183 Q278 193 234 199 L215 202 Q125 216 77 260 Q29 304 29 372 Q29 412 45 445 Q61 478 91 502 Q121 526 161.5 539.5 Q202 553 252 553 Q308 553 354.5 535.5 Q401 518 433 486 Q465 454 478 411 L312 384 Q295 423 252 423 Q229 423 215 412.5 Q201 402 201 385 Q201 374 207.5 366.5 Q214 359 230.5 353.5 Q247 348 276 344 L295 341 Q389 326 438 283 Q487 240 487 172 Q487 130 470.5 96 Q454 62 423 37 Q392 12 349.5 -1.5 Q307 -15 256 -15 Z M180 607 L39 750 L195 750 L255 699 L316 750 L466 750 L325 607 L180 607 Z " />
<glyph glyph-name="uni0165" unicode="&#x165;" horiz-adv-x="461" d="M301 -15 Q206 -15 156 36.5 Q106 88 106 185 L106 395 L20 395 L20 538 L106 538 L106 723 L293 723 L293 538 L423 538 L423 395 L293 395 L293 203 Q293 138 349 138 Q365 138 382.5 142 Q400 146 416 153 L441 20 Q383 -15 301 -15 Z M357 597 L365 750 L513 750 L460 597 L357 597 Z " />
<glyph glyph-name="uni017E" unicode="&#x17e;" horiz-adv-x="548" d="M35 0 L35 117 L265 395 L43 395 L43 538 L496 538 L496 421 L266 143 L513 143 L513 0 L35 0 Z M197 607 L56 750 L212 750 L272 699 L333 750 L483 750 L342 607 L197 607 Z " />
<glyph glyph-name="uni0101" unicode="&#x101;" horiz-adv-x="572" d="M204 -15 Q165 -15 131.5 -2.5 Q98 10 73 32.5 Q48 55 34 85 Q20 115 20 150 Q20 202 48 241 Q76 280 126.5 302 Q177 324 244 324 Q273 324 296 320 Q319 316 345 306 L345 332 Q345 366 325.5 387.5 Q306 409 275 409 Q251 409 233 396.5 Q215 384 208 364 L39 390 Q47 426 69 456 Q91 486 123 507.5 Q155 529 194.5 541 Q234 553 279 553 Q334 553 379.5 536 Q425 519 458 488.5 Q491 458 509 415.5 Q527 373 527 322 L527 0 L359 0 L354 63 Q334 26 294.5 5.5 Q255 -15 204 -15 Z M203 163 Q203 143 219.5 129.5 Q236 116 261 116 Q284 116 303.5 126.5 Q323 137 334 154.5 Q345 172 345 195 L345 201 Q331 207 314 211 Q297 215 281 215 Q245 215 224 201 Q203 187 203 163 Z M116 608 L116 725 L454 725 L454 608 L116 608 Z " />
<glyph glyph-name="uni0113" unicode="&#x113;" horiz-adv-x="605" d="M308 -15 Q247 -15 196 6 Q145 27 108 65 Q71 103 50.5 155.5 Q30 208 30 271 Q30 331 50.5 382.5 Q71 434 108.5 472.5 Q146 511 196 532 Q246 553 305 553 Q368 553 418.5 532 Q469 511 505 472 Q541 433 560.5 378.5 Q580 324 580 256 L580 222 L221 222 Q230 179 254 156.5 Q278 134 314 134 Q367 134 399 180 L570 142 Q550 94 511.5 59 Q473 24 420.5 4.5 Q368 -15 308 -15 Z M305 420 Q271 420 249 398 Q227 376 219 334 L387 334 Q380 376 359 398 Q338 420 305 420 Z M136 608 L136 725 L474 725 L474 608 L136 608 Z " />
<glyph glyph-name="uni012B" unicode="&#x12b;" horiz-adv-x="277" d="M45 0 L45 538 L232 538 L232 0 L45 0 Z M-31 608 L-31 725 L307 725 L307 608 L-31 608 Z " />
<glyph glyph-name="uni016B" unicode="&#x16b;" horiz-adv-x="604" d="M299 -15 Q222 -15 164.5 17 Q107 49 76 107.5 Q45 166 45 245 L45 538 L232 538 L232 241 Q232 200 251 177 Q270 154 303 154 Q335 154 353.5 177 Q372 200 372 241 L372 538 L559 538 L559 245 Q559 186 540.5 138.5 Q522 91 487.5 56.5 Q453 22 405.5 3.5 Q358 -15 299 -15 Z M133 608 L133 725 L471 725 L471 608 L133 608 Z " />
<glyph glyph-name="uni0308" unicode="&#x308;" d="M-115 587 Q-140 587 -161 599 Q-182 611 -194 631.5 Q-206 652 -206 677 Q-206 702 -194 722.5 Q-182 743 -161 755 Q-140 767 -115 767 Q-90 767 -69 755 Q-48 743 -36 722.5 Q-24 702 -24 677 Q-24 652 -36 631.5 Q-48 611 -69 599 Q-90 587 -115 587 Z M115 587 Q90 587 69 599 Q48 611 36 631.5 Q24 652 24 677 Q24 702 36 722.5 Q48 743 69 755 Q90 767 115 767 Q140 767 161 755 Q182 743 194 722.5 Q206 702 206 677 Q206 652 194 631.5 Q182 611 161 599 Q140 587 115 587 Z " />
<glyph glyph-name="uni00A8" unicode="&#xa8;" horiz-adv-x="608" d="M189 587 Q164 587 143 599 Q122 611 110 631.5 Q98 652 98 677 Q98 702 110 722.5 Q122 743 143 755 Q164 767 189 767 Q214 767 235 755 Q256 743 268 722.5 Q280 702 280 677 Q280 652 268 631.5 Q256 611 235 599 Q214 587 189 587 Z M419 587 Q394 587 373 599 Q352 611 340 631.5 Q328 652 328 677 Q328 702 340 722.5 Q352 743 373 755 Q394 767 419 767 Q444 767 465 755 Q486 743 498 722.5 Q510 702 510 677 Q510 652 498 631.5 Q486 611 465 599 Q444 587 419 587 Z " />
<glyph glyph-name="uni0306" unicode="&#x306;" d="M0 604 Q-50 604 -90 622 Q-130 640 -156 673 Q-182 706 -190 750 L-62 750 Q-57 729 -40.5 717.5 Q-24 706 0 706 Q24 706 40.5 717.5 Q57 729 62 750 L190 750 Q182 706 156 673 Q130 640 90 622 Q50 604 0 604 Z " />
<glyph glyph-name="uni02D8" unicode="&#x2d8;" horiz-adv-x="608" d="M304 604 Q254 604 214 622 Q174 640 148 673 Q122 706 114 750 L242 750 Q247 729 263.5 717.5 Q280 706 304 706 Q328 706 344.5 717.5 Q361 729 366 750 L494 750 Q486 706 460 673 Q434 640 394 622 Q354 604 304 604 Z " />
<glyph glyph-name="uni00C4" unicode="&#xc4;" horiz-adv-x="792" d="M10 0 L289 710 L502 710 L782 0 L573 0 L529 124 L255 124 L212 0 L10 0 Z M310 281 L474 281 L392 514 L310 281 Z M264 763 Q237 763 215 775.5 Q193 788 180 809 Q167 830 167 857 Q167 884 180 905 Q193 926 215 938.5 Q237 951 264 951 Q291 951 313 938.5 Q335 926 348 905 Q361 884 361 857 Q361 830 348 809 Q335 788 313 775.5 Q291 763 264 763 Z M526 763 Q499 763 477 775.5 Q455 788 442 809 Q429 830 429 857 Q429 884 442 905 Q455 926 477 938.5 Q499 951 526 951 Q553 951 575 938.5 Q597 926 610 905 Q623 884 623 857 Q623 830 610 809 Q597 788 575 775.5 Q553 763 526 763 Z " />
<glyph glyph-name="uni00CB" unicode="&#xcb;" horiz-adv-x="584" d="M55 0 L55 710 L528 710 L528 546 L245 546 L245 443 L493 443 L493 280 L245 280 L245 163 L539 163 L539 0 L55 0 Z M160 763 Q133 763 111 775.5 Q89 788 76 809 Q63 830 63 857 Q63 884 76 905 Q89 926 111 938.5 Q133 951 160 951 Q187 951 209 938.5 Q231 926 244 905 Q257 884 257 857 Q257 830 244 809 Q231 788 209 775.5 Q187 763 160 763 Z M422 763 Q395 763 373 775.5 Q351 788 338 809 Q325 830 325 857 Q325 884 338 905 Q351 926 373 938.5 Q395 951 422 951 Q449 951 471 938.5 Q493 926 506 905 Q519 884 519 857 Q519 830 506 809 Q493 788 471 775.5 Q449 763 422 763 Z " />
<glyph glyph-name="uni00CF" unicode="&#xcf;" horiz-adv-x="310" d="M55 0 L55 710 L255 710 L255 0 L55 0 Z M24 763 Q-3 763 -25 775.5 Q-47 788 -60 809 Q-73 830 -73 857 Q-73 884 -60 905 Q-47 926 -25 938.5 Q-3 951 24 951 Q51 951 73 938.5 Q95 926 108 905 Q121 884 121 857 Q121 830 108 809 Q95 788 73 775.5 Q51 763 24 763 Z M286 763 Q259 763 237 775.5 Q215 788 202 809 Q189 830 189 857 Q189 884 202 905 Q215 926 237 938.5 Q259 951 286 951 Q313 951 335 938.5 Q357 926 370 905 Q383 884 383 857 Q383 830 370 809 Q357 788 335 775.5 Q313 763 286 763 Z " />
<glyph glyph-name="uni00D6" unicode="&#xd6;" horiz-adv-x="838" d="M418 -20 Q352 -20 294 -2 Q236 16 188.5 50 Q141 84 106.5 130 Q72 176 53.5 233 Q35 290 35 354 Q35 418 54 475 Q73 532 107.5 578.5 Q142 625 189.5 659 Q237 693 295.5 711.5 Q354 730 420 730 Q486 730 544 712 Q602 694 649.5 660 Q697 626 731.5 580 Q766 534 784.5 477 Q803 420 803 356 Q803 292 784 235 Q765 178 730.5 131.5 Q696 85 648.5 51 Q601 17 542.5 -1.5 Q484 -20 418 -20 Z M419 164 Q458 164 490 178 Q522 192 546 218 Q570 244 583 278.5 Q596 313 596 355 Q596 397 583 431.5 Q570 466 546 492 Q522 518 490 532 Q458 546 419 546 Q380 546 348 532 Q316 518 292 492 Q268 466 255 431.5 Q242 397 242 355 Q242 313 255 278.5 Q268 244 292 218 Q316 192 348 178 Q380 164 419 164 Z M288 763 Q261 763 239 775.5 Q217 788 204 809 Q191 830 191 857 Q191 884 204 905 Q217 926 239 938.5 Q261 951 288 951 Q315 951 337 938.5 Q359 926 372 905 Q385 884 385 857 Q385 830 372 809 Q359 788 337 775.5 Q315 763 288 763 Z M550 763 Q523 763 501 775.5 Q479 788 466 809 Q453 830 453 857 Q453 884 466 905 Q479 926 501 938.5 Q523 951 550 951 Q577 951 599 938.5 Q621 926 634 905 Q647 884 647 857 Q647 830 634 809 Q621 788 599 775.5 Q577 763 550 763 Z " />
<glyph glyph-name="uni00DC" unicode="&#xdc;" horiz-adv-x="752" d="M375 -20 Q301 -20 241 2 Q181 24 138.5 66 Q96 108 73 166.5 Q50 225 50 297 L50 710 L250 710 L250 306 Q250 262 265.5 230.5 Q281 199 309.5 181.5 Q338 164 376 164 Q414 164 442.5 181.5 Q471 199 486.5 230.5 Q502 262 502 306 L502 710 L702 710 L702 297 Q702 225 679 166.5 Q656 108 613 66 Q570 24 510 2 Q450 -20 375 -20 Z M245 763 Q218 763 196 775.5 Q174 788 161 809 Q148 830 148 857 Q148 884 161 905 Q174 926 196 938.5 Q218 951 245 951 Q272 951 294 938.5 Q316 926 329 905 Q342 884 342 857 Q342 830 329 809 Q316 788 294 775.5 Q272 763 245 763 Z M507 763 Q480 763 458 775.5 Q436 788 423 809 Q410 830 410 857 Q410 884 423 905 Q436 926 458 938.5 Q480 951 507 951 Q534 951 556 938.5 Q578 926 591 905 Q604 884 604 857 Q604 830 591 809 Q578 788 556 775.5 Q534 763 507 763 Z " />
<glyph glyph-name="uni1E84" unicode="&#x1e84;" horiz-adv-x="1072" d="M1047 710 L832 0 L652 0 L537 451 L422 0 L240 0 L25 710 L235 710 L338 267 L451 710 L628 710 L741 267 L844 710 L1047 710 Z M405 763 Q378 763 356 775.5 Q334 788 321 809 Q308 830 308 857 Q308 884 321 905 Q334 926 356 938.5 Q378 951 405 951 Q432 951 454 938.5 Q476 926 489 905 Q502 884 502 857 Q502 830 489 809 Q476 788 454 775.5 Q432 763 405 763 Z M667 763 Q640 763 618 775.5 Q596 788 583 809 Q570 830 570 857 Q570 884 583 905 Q596 926 618 938.5 Q640 951 667 951 Q694 951 716 938.5 Q738 926 751 905 Q764 884 764 857 Q764 830 751 809 Q738 788 716 775.5 Q694 763 667 763 Z " />
<glyph glyph-name="uni0178" unicode="&#x178;" horiz-adv-x="702" d="M251 0 L251 271 L5 710 L226 710 L355 445 L483 710 L697 710 L451 271 L451 0 L251 0 Z M220 763 Q193 763 171 775.5 Q149 788 136 809 Q123 830 123 857 Q123 884 136 905 Q149 926 171 938.5 Q193 951 220 951 Q247 951 269 938.5 Q291 926 304 905 Q317 884 317 857 Q317 830 304 809 Q291 788 269 775.5 Q247 763 220 763 Z M482 763 Q455 763 433 775.5 Q411 788 398 809 Q385 830 385 857 Q385 884 398 905 Q411 926 433 938.5 Q455 951 482 951 Q509 951 531 938.5 Q553 926 566 905 Q579 884 579 857 Q579 830 566 809 Q553 788 531 775.5 Q509 763 482 763 Z " />
<glyph glyph-name="uni0102" unicode="&#x102;" horiz-adv-x="792" d="M10 0 L289 710 L502 710 L782 0 L573 0 L529 124 L255 124 L212 0 L10 0 Z M310 281 L474 281 L392 514 L310 281 Z M395 775 Q341 775 298 794.5 Q255 814 227 849.5 Q199 885 190 933 L333 933 Q337 910 354 896 Q371 882 395 882 Q419 882 436 896 Q453 910 457 933 L600 933 Q591 885 563 849.5 Q535 814 492 794.5 Q449 775 395 775 Z " />
<glyph glyph-name="uni011E" unicode="&#x11e;" horiz-adv-x="815" d="M421 -20 Q354 -20 295.5 -2 Q237 16 189 49.5 Q141 83 106.5 129.5 Q72 176 53.5 232.5 Q35 289 35 353 Q35 418 53.5 475 Q72 532 106.5 579 Q141 626 189 659.5 Q237 693 295.5 711.5 Q354 730 421 730 Q498 730 563.5 705.5 Q629 681 679 635.5 Q729 590 757 525 L560 471 Q512 551 420 551 Q368 551 327.5 526 Q287 501 264.5 457.5 Q242 414 242 357 Q242 314 255.5 277.5 Q269 241 294 214.5 Q319 188 353 173.5 Q387 159 427 159 Q464 159 494 171 Q524 183 545.5 204 Q567 225 576 253 L434 253 L434 411 L785 411 L785 324 Q785 249 758 186 Q731 123 682 77 Q633 31 566.5 5.5 Q500 -20 421 -20 Z M424 775 Q370 775 327 794.5 Q284 814 256 849.5 Q228 885 219 933 L362 933 Q366 910 383 896 Q400 882 424 882 Q448 882 465 896 Q482 910 486 933 L629 933 Q620 885 592 849.5 Q564 814 521 794.5 Q478 775 424 775 Z " />
<glyph glyph-name="uni00E4" unicode="&#xe4;" horiz-adv-x="572" d="M204 -15 Q165 -15 131.5 -2.5 Q98 10 73 32.5 Q48 55 34 85 Q20 115 20 150 Q20 202 48 241 Q76 280 126.5 302 Q177 324 244 324 Q273 324 296 320 Q319 316 345 306 L345 332 Q345 366 325.5 387.5 Q306 409 275 409 Q251 409 233 396.5 Q215 384 208 364 L39 390 Q47 426 69 456 Q91 486 123 507.5 Q155 529 194.5 541 Q234 553 279 553 Q334 553 379.5 536 Q425 519 458 488.5 Q491 458 509 415.5 Q527 373 527 322 L527 0 L359 0 L354 63 Q334 26 294.5 5.5 Q255 -15 204 -15 Z M203 163 Q203 143 219.5 129.5 Q236 116 261 116 Q284 116 303.5 126.5 Q323 137 334 154.5 Q345 172 345 195 L345 201 Q331 207 314 211 Q297 215 281 215 Q245 215 224 201 Q203 187 203 163 Z M170 587 Q145 587 124 599 Q103 611 91 631.5 Q79 652 79 677 Q79 702 91 722.5 Q103 743 124 755 Q145 767 170 767 Q195 767 216 755 Q237 743 249 722.5 Q261 702 261 677 Q261 652 249 631.5 Q237 611 216 599 Q195 587 170 587 Z M400 587 Q375 587 354 599 Q333 611 321 631.5 Q309 652 309 677 Q309 702 321 722.5 Q333 743 354 755 Q375 767 400 767 Q425 767 446 755 Q467 743 479 722.5 Q491 702 491 677 Q491 652 479 631.5 Q467 611 446 599 Q425 587 400 587 Z " />
<glyph glyph-name="uni00EB" unicode="&#xeb;" horiz-adv-x="605" d="M308 -15 Q247 -15 196 6 Q145 27 108 65 Q71 103 50.5 155.5 Q30 208 30 271 Q30 331 50.5 382.5 Q71 434 108.5 472.5 Q146 511 196 532 Q246 553 305 553 Q368 553 418.5 532 Q469 511 505 472 Q541 433 560.5 378.5 Q580 324 580 256 L580 222 L221 222 Q230 179 254 156.5 Q278 134 314 134 Q367 134 399 180 L570 142 Q550 94 511.5 59 Q473 24 420.5 4.5 Q368 -15 308 -15 Z M305 420 Q271 420 249 398 Q227 376 219 334 L387 334 Q380 376 359 398 Q338 420 305 420 Z M190 587 Q165 587 144 599 Q123 611 111 631.5 Q99 652 99 677 Q99 702 111 722.5 Q123 743 144 755 Q165 767 190 767 Q215 767 236 755 Q257 743 269 722.5 Q281 702 281 677 Q281 652 269 631.5 Q257 611 236 599 Q215 587 190 587 Z M420 587 Q395 587 374 599 Q353 611 341 631.5 Q329 652 329 677 Q329 702 341 722.5 Q353 743 374 755 Q395 767 420 767 Q445 767 466 755 Q487 743 499 722.5 Q511 702 511 677 Q511 652 499 631.5 Q487 611 466 599 Q445 587 420 587 Z " />
<glyph glyph-name="uni00EF" unicode="&#xef;" horiz-adv-x="277" d="M45 0 L45 538 L232 538 L232 0 L45 0 Z M23 587 Q-2 587 -23 599 Q-44 611 -56 631.5 Q-68 652 -68 677 Q-68 702 -56 722.5 Q-44 743 -23 755 Q-2 767 23 767 Q48 767 69 755 Q90 743 102 722.5 Q114 702 114 677 Q114 652 102 631.5 Q90 611 69 599 Q48 587 23 587 Z M253 587 Q228 587 207 599 Q186 611 174 631.5 Q162 652 162 677 Q162 702 174 722.5 Q186 743 207 755 Q228 767 253 767 Q278 767 299 755 Q320 743 332 722.5 Q344 702 344 677 Q344 652 332 631.5 Q320 611 299 599 Q278 587 253 587 Z " />
<glyph glyph-name="uni00F6" unicode="&#xf6;" horiz-adv-x="644" d="M320 -15 Q258 -15 205 6.5 Q152 28 113 66.5 Q74 105 52 156.5 Q30 208 30 268 Q30 329 52 381 Q74 433 114 471.5 Q154 510 207.5 531.5 Q261 553 324 553 Q386 553 439 531.5 Q492 510 531 471.5 Q570 433 592 381.5 Q614 330 614 270 Q614 209 592 157 Q570 105 530 66.5 Q490 28 436.5 6.5 Q383 -15 320 -15 Z M322 154 Q351 154 374 169 Q397 184 410.5 210 Q424 236 424 269 Q424 302 410.5 328 Q397 354 374 369 Q351 384 322 384 Q293 384 270 369 Q247 354 233.5 328 Q220 302 220 269 Q220 236 233.5 210 Q247 184 270 169 Q293 154 322 154 Z M207 587 Q182 587 161 599 Q140 611 128 631.5 Q116 652 116 677 Q116 702 128 722.5 Q140 743 161 755 Q182 767 207 767 Q232 767 253 755 Q274 743 286 722.5 Q298 702 298 677 Q298 652 286 631.5 Q274 611 253 599 Q232 587 207 587 Z M437 587 Q412 587 391 599 Q370 611 358 631.5 Q346 652 346 677 Q346 702 358 722.5 Q370 743 391 755 Q412 767 437 767 Q462 767 483 755 Q504 743 516 722.5 Q528 702 528 677 Q528 652 516 631.5 Q504 611 483 599 Q462 587 437 587 Z " />
<glyph glyph-name="uni00FC" unicode="&#xfc;" horiz-adv-x="604" d="M299 -15 Q222 -15 164.5 17 Q107 49 76 107.5 Q45 166 45 245 L45 538 L232 538 L232 241 Q232 200 251 177 Q270 154 303 154 Q335 154 353.5 177 Q372 200 372 241 L372 538 L559 538 L559 245 Q559 186 540.5 138.5 Q522 91 487.5 56.5 Q453 22 405.5 3.5 Q358 -15 299 -15 Z M187 587 Q162 587 141 599 Q120 611 108 631.5 Q96 652 96 677 Q96 702 108 722.5 Q120 743 141 755 Q162 767 187 767 Q212 767 233 755 Q254 743 266 722.5 Q278 702 278 677 Q278 652 266 631.5 Q254 611 233 599 Q212 587 187 587 Z M417 587 Q392 587 371 599 Q350 611 338 631.5 Q326 652 326 677 Q326 702 338 722.5 Q350 743 371 755 Q392 767 417 767 Q442 767 463 755 Q484 743 496 722.5 Q508 702 508 677 Q508 652 496 631.5 Q484 611 463 599 Q442 587 417 587 Z " />
<glyph glyph-name="uni1E85" unicode="&#x1e85;" horiz-adv-x="874" d="M182 0 L5 538 L198 538 L271 212 L359 538 L518 538 L607 209 L683 538 L869 538 L692 0 L522 0 L436 322 L349 0 L182 0 Z M322 587 Q297 587 276 599 Q255 611 243 631.5 Q231 652 231 677 Q231 702 243 722.5 Q255 743 276 755 Q297 767 322 767 Q347 767 368 755 Q389 743 401 722.5 Q413 702 413 677 Q413 652 401 631.5 Q389 611 368 599 Q347 587 322 587 Z M552 587 Q527 587 506 599 Q485 611 473 631.5 Q461 652 461 677 Q461 702 473 722.5 Q485 743 506 755 Q527 767 552 767 Q577 767 598 755 Q619 743 631 722.5 Q643 702 643 677 Q643 652 631 631.5 Q619 611 598 599 Q577 587 552 587 Z " />
<glyph glyph-name="uni00FF" unicode="&#xff;" horiz-adv-x="591" d="M167 -197 Q102 -197 55 -171 L85 -33 Q97 -38 114.5 -42 Q132 -46 145 -46 Q170 -46 188 -34 Q206 -22 219 6 L5 538 L207 538 L306 188 L391 538 L586 538 L379 -26 Q346 -115 294.5 -156 Q243 -197 167 -197 Z M180 587 Q155 587 134 599 Q113 611 101 631.5 Q89 652 89 677 Q89 702 101 722.5 Q113 743 134 755 Q155 767 180 767 Q205 767 226 755 Q247 743 259 722.5 Q271 702 271 677 Q271 652 259 631.5 Q247 611 226 599 Q205 587 180 587 Z M410 587 Q385 587 364 599 Q343 611 331 631.5 Q319 652 319 677 Q319 702 331 722.5 Q343 743 364 755 Q385 767 410 767 Q435 767 456 755 Q477 743 489 722.5 Q501 702 501 677 Q501 652 489 631.5 Q477 611 456 599 Q435 587 410 587 Z " />
<glyph glyph-name="uni0103" unicode="&#x103;" horiz-adv-x="572" d="M204 -15 Q165 -15 131.5 -2.5 Q98 10 73 32.5 Q48 55 34 85 Q20 115 20 150 Q20 202 48 241 Q76 280 126.5 302 Q177 324 244 324 Q273 324 296 320 Q319 316 345 306 L345 332 Q345 366 325.5 387.5 Q306 409 275 409 Q251 409 233 396.5 Q215 384 208 364 L39 390 Q47 426 69 456 Q91 486 123 507.5 Q155 529 194.5 541 Q234 553 279 553 Q334 553 379.5 536 Q425 519 458 488.5 Q491 458 509 415.5 Q527 373 527 322 L527 0 L359 0 L354 63 Q334 26 294.5 5.5 Q255 -15 204 -15 Z M203 163 Q203 143 219.5 129.5 Q236 116 261 116 Q284 116 303.5 126.5 Q323 137 334 154.5 Q345 172 345 195 L345 201 Q331 207 314 211 Q297 215 281 215 Q245 215 224 201 Q203 187 203 163 Z M285 604 Q235 604 195 622 Q155 640 129 673 Q103 706 95 750 L223 750 Q228 729 244.5 717.5 Q261 706 285 706 Q309 706 325.5 717.5 Q342 729 347 750 L475 750 Q467 706 441 673 Q415 640 375 622 Q335 604 285 604 Z " />
<glyph glyph-name="uni011F" unicode="&#x11f;" horiz-adv-x="645" d="M266 25 Q218 25 175 45.5 Q132 66 99.5 103 Q67 140 48.5 187.5 Q30 235 30 289 Q30 343 49 391 Q68 439 101.5 475.5 Q135 512 179 532.5 Q223 553 273 553 Q321 553 359.5 533.5 Q398 514 423 479 L427 538 L600 538 L600 78 Q600 15 579.5 -36.5 Q559 -88 521 -125 Q483 -162 430.5 -182 Q378 -202 314 -202 Q252 -202 199.5 -183.5 Q147 -165 108.5 -131.5 Q70 -98 52 -51 L236 -16 Q248 -33 268.5 -43 Q289 -53 314 -53 Q344 -53 366 -39.5 Q388 -26 400.5 -1 Q413 24 413 56 L413 97 Q388 63 350.5 44 Q313 25 266 25 Z M316 184 Q344 184 366 198 Q388 212 401 236 Q414 260 414 289 Q414 318 401 342 Q388 366 366 380 Q344 394 316 394 Q289 394 267.5 380 Q246 366 233 342 Q220 318 220 289 Q220 260 233 236 Q246 212 267.5 198 Q289 184 316 184 Z M316 604 Q266 604 226 622 Q186 640 160 673 Q134 706 126 750 L254 750 Q259 729 275.5 717.5 Q292 706 316 706 Q340 706 356.5 717.5 Q373 729 378 750 L506 750 Q498 706 472 673 Q446 640 406 622 Q366 604 316 604 Z " />
<glyph glyph-name="uni0307" unicode="&#x307;" d="M100 687 Q100 660 87 638 Q74 616 51 603.5 Q28 591 0 591 Q-28 591 -50.5 603.5 Q-73 616 -86 638 Q-99 660 -99 687 Q-99 714 -86 736 Q-73 758 -50.5 770.5 Q-28 783 0 783 Q28 783 51 770.5 Q74 758 87 736 Q100 714 100 687 Z " />
<glyph glyph-name="uni02D9" unicode="&#x2d9;" horiz-adv-x="608" d="M403 687 Q403 660 390 638 Q377 616 354 603.5 Q331 591 303 591 Q275 591 252.5 603.5 Q230 616 217 638 Q204 660 204 687 Q204 714 217 736 Q230 758 252.5 770.5 Q275 783 303 783 Q331 783 354 770.5 Q377 758 390 736 Q403 714 403 687 Z " />
<glyph glyph-name="uni0323" unicode="&#x323;" d="M100 -139 Q100 -166 87 -188 Q74 -210 51 -222.5 Q28 -235 0 -235 Q-28 -235 -50.5 -222.5 Q-73 -210 -86 -188 Q-99 -166 -99 -139 Q-99 -112 -86 -90 Q-73 -68 -50.5 -55.5 Q-28 -43 0 -43 Q28 -43 51 -55.5 Q74 -68 87 -90 Q100 -112 100 -139 Z " />
<glyph glyph-name="uni0116" unicode="&#x116;" horiz-adv-x="584" d="M55 0 L55 710 L528 710 L528 546 L245 546 L245 443 L493 443 L493 280 L245 280 L245 163 L539 163 L539 0 L55 0 Z M291 763 Q261 763 237.5 776.5 Q214 790 200.5 813 Q187 836 187 864 Q187 892 200.5 915 Q214 938 237.5 951.5 Q261 965 291 965 Q321 965 345 951.5 Q369 938 382.5 915 Q396 892 396 864 Q396 836 382.5 813 Q369 790 345 776.5 Q321 763 291 763 Z " />
<glyph glyph-name="uni0130" unicode="&#x130;" horiz-adv-x="310" d="M55 0 L55 710 L255 710 L255 0 L55 0 Z M155 763 Q125 763 101.5 776.5 Q78 790 64.5 813 Q51 836 51 864 Q51 892 64.5 915 Q78 938 101.5 951.5 Q125 965 155 965 Q185 965 209 951.5 Q233 938 246.5 915 Q260 892 260 864 Q260 836 246.5 813 Q233 790 209 776.5 Q185 763 155 763 Z " />
<glyph glyph-name="uni010A" unicode="&#x10a;" horiz-adv-x="756" d="M401 -20 Q338 -20 282 -2 Q226 16 181 49 Q136 82 103 127.5 Q70 173 52.5 229.5 Q35 286 35 350 Q35 414 53 471.5 Q71 529 104 576.5 Q137 624 183 658.5 Q229 693 284.5 711.5 Q340 730 402 730 Q462 730 515.5 713 Q569 696 612 664.5 Q655 633 685 589 Q715 545 729 491 L532 450 Q513 496 478 521 Q443 546 398 546 Q364 546 335.5 531.5 Q307 517 286 491 Q265 465 253.5 430 Q242 395 242 353 Q242 298 262 255 Q282 212 318 188 Q354 164 400 164 Q496 164 539 260 L736 219 Q722 164 691.5 120 Q661 76 617 44.5 Q573 13 518.5 -3.5 Q464 -20 401 -20 Z M400 763 Q370 763 346.5 776.5 Q323 790 309.5 813 Q296 836 296 864 Q296 892 309.5 915 Q323 938 346.5 951.5 Q370 965 400 965 Q430 965 454 951.5 Q478 938 491.5 915 Q505 892 505 864 Q505 836 491.5 813 Q478 790 454 776.5 Q430 763 400 763 Z " />
<glyph glyph-name="uni0120" unicode="&#x120;" horiz-adv-x="815" d="M421 -20 Q354 -20 295.5 -2 Q237 16 189 49.5 Q141 83 106.5 129.5 Q72 176 53.5 232.5 Q35 289 35 353 Q35 418 53.5 475 Q72 532 106.5 579 Q141 626 189 659.5 Q237 693 295.5 711.5 Q354 730 421 730 Q498 730 563.5 705.5 Q629 681 679 635.5 Q729 590 757 525 L560 471 Q512 551 420 551 Q368 551 327.5 526 Q287 501 264.5 457.5 Q242 414 242 357 Q242 314 255.5 277.5 Q269 241 294 214.5 Q319 188 353 173.5 Q387 159 427 159 Q464 159 494 171 Q524 183 545.5 204 Q567 225 576 253 L434 253 L434 411 L785 411 L785 324 Q785 249 758 186 Q731 123 682 77 Q633 31 566.5 5.5 Q500 -20 421 -20 Z M424 763 Q394 763 370.5 776.5 Q347 790 333.5 813 Q320 836 320 864 Q320 892 333.5 915 Q347 938 370.5 951.5 Q394 965 424 965 Q454 965 478 951.5 Q502 938 515.5 915 Q529 892 529 864 Q529 836 515.5 813 Q502 790 478 776.5 Q454 763 424 763 Z " />
<glyph glyph-name="uni017B" unicode="&#x17b;" horiz-adv-x="659" d="M30 0 L30 141 L359 543 L45 543 L45 710 L612 710 L612 569 L282 167 L634 167 L634 0 L30 0 Z M328 763 Q298 763 274.5 776.5 Q251 790 237.5 813 Q224 836 224 864 Q224 892 237.5 915 Q251 938 274.5 951.5 Q298 965 328 965 Q358 965 382 951.5 Q406 938 419.5 915 Q433 892 433 864 Q433 836 419.5 813 Q406 790 382 776.5 Q358 763 328 763 Z " />
<glyph glyph-name="uni1E24" unicode="&#x1e24;" horiz-adv-x="762" d="M55 0 L55 710 L255 710 L255 454 L507 454 L507 710 L707 710 L707 0 L507 0 L507 278 L255 278 L255 0 L55 0 Z M381 -250 Q351 -250 327.5 -236.5 Q304 -223 290.5 -200.5 Q277 -178 277 -149 Q277 -120 290.5 -97.5 Q304 -75 327.5 -61.5 Q351 -48 381 -48 Q411 -48 435 -61.5 Q459 -75 472.5 -97.5 Q486 -120 486 -149 Q486 -178 472.5 -200.5 Q459 -223 435 -236.5 Q411 -250 381 -250 Z " />
<glyph glyph-name="uni1E36" unicode="&#x1e36;" horiz-adv-x="559" d="M55 0 L55 710 L255 710 L255 176 L524 176 L524 0 L55 0 Z M289 -250 Q259 -250 235.5 -236.5 Q212 -223 198.5 -200.5 Q185 -178 185 -149 Q185 -120 198.5 -97.5 Q212 -75 235.5 -61.5 Q259 -48 289 -48 Q319 -48 343 -61.5 Q367 -75 380.5 -97.5 Q394 -120 394 -149 Q394 -178 380.5 -200.5 Q367 -223 343 -236.5 Q319 -250 289 -250 Z " />
<glyph glyph-name="uni0117" unicode="&#x117;" horiz-adv-x="605" d="M308 -15 Q247 -15 196 6 Q145 27 108 65 Q71 103 50.5 155.5 Q30 208 30 271 Q30 331 50.5 382.5 Q71 434 108.5 472.5 Q146 511 196 532 Q246 553 305 553 Q368 553 418.5 532 Q469 511 505 472 Q541 433 560.5 378.5 Q580 324 580 256 L580 222 L221 222 Q230 179 254 156.5 Q278 134 314 134 Q367 134 399 180 L570 142 Q550 94 511.5 59 Q473 24 420.5 4.5 Q368 -15 308 -15 Z M305 420 Q271 420 249 398 Q227 376 219 334 L387 334 Q380 376 359 398 Q338 420 305 420 Z M405 687 Q405 660 392 638 Q379 616 356 603.5 Q333 591 305 591 Q277 591 254.5 603.5 Q232 616 219 638 Q206 660 206 687 Q206 714 219 736 Q232 758 254.5 770.5 Q277 783 305 783 Q333 783 356 770.5 Q379 758 392 736 Q405 714 405 687 Z " />
<glyph glyph-name="uni010B" unicode="&#x10b;" horiz-adv-x="591" d="M307 -15 Q248 -15 197.5 6 Q147 27 109.5 65 Q72 103 51 153.5 Q30 204 30 264 Q30 326 51.5 378.5 Q73 431 111 470 Q149 509 200.5 531 Q252 553 312 553 Q376 553 429 528 Q482 503 518 457.5 Q554 412 566 352 L390 325 Q379 353 358.5 368.5 Q338 384 313 384 Q286 384 265 369 Q244 354 232 328 Q220 302 220 268 Q220 234 232 208.5 Q244 183 265 168.5 Q286 154 313 154 Q341 154 362.5 169.5 Q384 185 395 213 L571 186 Q562 141 538.5 104.5 Q515 68 480 41 Q445 14 401 -0.5 Q357 -15 307 -15 Z M412 687 Q412 660 399 638 Q386 616 363 603.5 Q340 591 312 591 Q284 591 261.5 603.5 Q239 616 226 638 Q213 660 213 687 Q213 714 226 736 Q239 758 261.5 770.5 Q284 783 312 783 Q340 783 363 770.5 Q386 758 399 736 Q412 714 412 687 Z " />
<glyph glyph-name="uni0121" unicode="&#x121;" horiz-adv-x="645" d="M266 25 Q218 25 175 45.5 Q132 66 99.5 103 Q67 140 48.5 187.5 Q30 235 30 289 Q30 343 49 391 Q68 439 101.5 475.5 Q135 512 179 532.5 Q223 553 273 553 Q321 553 359.5 533.5 Q398 514 423 479 L427 538 L600 538 L600 78 Q600 15 579.5 -36.5 Q559 -88 521 -125 Q483 -162 430.5 -182 Q378 -202 314 -202 Q252 -202 199.5 -183.5 Q147 -165 108.5 -131.5 Q70 -98 52 -51 L236 -16 Q248 -33 268.5 -43 Q289 -53 314 -53 Q344 -53 366 -39.5 Q388 -26 400.5 -1 Q413 24 413 56 L413 97 Q388 63 350.5 44 Q313 25 266 25 Z M316 184 Q344 184 366 198 Q388 212 401 236 Q414 260 414 289 Q414 318 401 342 Q388 366 366 380 Q344 394 316 394 Q289 394 267.5 380 Q246 366 233 342 Q220 318 220 289 Q220 260 233 236 Q246 212 267.5 198 Q289 184 316 184 Z M416 687 Q416 660 403 638 Q390 616 367 603.5 Q344 591 316 591 Q288 591 265.5 603.5 Q243 616 230 638 Q217 660 217 687 Q217 714 230 736 Q243 758 265.5 770.5 Q288 783 316 783 Q344 783 367 770.5 Q390 758 403 736 Q416 714 416 687 Z " />
<glyph glyph-name="uni017C" unicode="&#x17c;" horiz-adv-x="548" d="M35 0 L35 117 L265 395 L43 395 L43 538 L496 538 L496 421 L266 143 L513 143 L513 0 L35 0 Z M369 687 Q369 660 356 638 Q343 616 320 603.5 Q297 591 269 591 Q241 591 218.5 603.5 Q196 616 183 638 Q170 660 170 687 Q170 714 183 736 Q196 758 218.5 770.5 Q241 783 269 783 Q297 783 320 770.5 Q343 758 356 736 Q369 714 369 687 Z " />
<glyph glyph-name="uni1E25" unicode="&#x1e25;" horiz-adv-x="608" d="M45 0 L45 750 L232 750 L232 480 Q255 514 292.5 533.5 Q330 553 377 553 Q434 553 475.5 525.5 Q517 498 540 447 Q563 396 563 328 L563 0 L376 0 L376 300 Q376 338 358 361 Q340 384 309 384 Q286 384 269 373 Q252 362 242 343 Q232 324 232 300 L232 0 L45 0 Z M404 -139 Q404 -166 391 -188 Q378 -210 355 -222.5 Q332 -235 304 -235 Q276 -235 253.5 -222.5 Q231 -210 218 -188 Q205 -166 205 -139 Q205 -112 218 -90 Q231 -68 253.5 -55.5 Q276 -43 304 -43 Q332 -43 355 -55.5 Q378 -68 391 -90 Q404 -112 404 -139 Z " />
<glyph glyph-name="uni1E37" unicode="&#x1e37;" horiz-adv-x="277" d="M45 0 L45 750 L232 750 L232 0 L45 0 Z M238 -139 Q238 -166 225 -188 Q212 -210 189 -222.5 Q166 -235 138 -235 Q110 -235 87.5 -222.5 Q65 -210 52 -188 Q39 -166 39 -139 Q39 -112 52 -90 Q65 -68 87.5 -55.5 Q110 -43 138 -43 Q166 -43 189 -55.5 Q212 -68 225 -90 Q238 -112 238 -139 Z " />
<glyph glyph-name="uni030A" unicode="&#x30a;" d="M0 580 Q-36 580 -64 595.5 Q-92 611 -108.5 637.5 Q-125 664 -125 697 Q-125 730 -108.5 756.5 Q-92 783 -64 798.5 Q-36 814 0 814 Q36 814 64 798.5 Q92 783 108.5 756.5 Q125 730 125 697 Q125 664 108.5 637.5 Q92 611 64 595.5 Q36 580 0 580 Z M0 656 Q16 656 28 668 Q40 680 40 697 Q40 714 28 726 Q16 738 0 738 Q-16 738 -28 726 Q-40 714 -40 697 Q-40 680 -28 668 Q-16 656 0 656 Z " />
<glyph glyph-name="uni02DA" unicode="&#x2da;" horiz-adv-x="608" d="M304 580 Q268 580 240 595.5 Q212 611 195.5 637.5 Q179 664 179 697 Q179 730 195.5 756.5 Q212 783 240 798.5 Q268 814 304 814 Q340 814 368 798.5 Q396 783 412.5 756.5 Q429 730 429 697 Q429 664 412.5 637.5 Q396 611 368 595.5 Q340 580 304 580 Z M304 656 Q320 656 332 668 Q344 680 344 697 Q344 714 332 726 Q320 738 304 738 Q288 738 276 726 Q264 714 264 697 Q264 680 276 668 Q288 656 304 656 Z " />
<glyph glyph-name="uni00C5" unicode="&#xc5;" horiz-adv-x="792" d="M10 0 L289 710 L502 710 L782 0 L573 0 L529 124 L255 124 L212 0 L10 0 Z M310 281 L474 281 L392 514 L310 281 Z M395 752 Q358 752 328.5 768 Q299 784 282 812 Q265 840 265 874 Q265 908 282 936 Q299 964 328.5 980 Q358 996 395 996 Q432 996 461.5 980 Q491 964 508 936 Q525 908 525 874 Q525 840 508 812 Q491 784 461.5 768 Q432 752 395 752 Z M395 833 Q411 833 423 845 Q435 857 435 874 Q435 891 423 903 Q411 915 395 915 Q379 915 367 903 Q355 891 355 874 Q355 857 367 845 Q379 833 395 833 Z " />
<glyph glyph-name="uni016E" unicode="&#x16e;" horiz-adv-x="752" d="M375 -20 Q301 -20 241 2 Q181 24 138.5 66 Q96 108 73 166.5 Q50 225 50 297 L50 710 L250 710 L250 306 Q250 262 265.5 230.5 Q281 199 309.5 181.5 Q338 164 376 164 Q414 164 442.5 181.5 Q471 199 486.5 230.5 Q502 262 502 306 L502 710 L702 710 L702 297 Q702 225 679 166.5 Q656 108 613 66 Q570 24 510 2 Q450 -20 375 -20 Z M376 752 Q339 752 309.5 768 Q280 784 263 812 Q246 840 246 874 Q246 908 263 936 Q280 964 309.5 980 Q339 996 376 996 Q413 996 442.5 980 Q472 964 489 936 Q506 908 506 874 Q506 840 489 812 Q472 784 442.5 768 Q413 752 376 752 Z M376 833 Q392 833 404 845 Q416 857 416 874 Q416 891 404 903 Q392 915 376 915 Q360 915 348 903 Q336 891 336 874 Q336 857 348 845 Q360 833 376 833 Z " />
<glyph glyph-name="uni00E5" unicode="&#xe5;" horiz-adv-x="572" d="M204 -15 Q165 -15 131.5 -2.5 Q98 10 73 32.5 Q48 55 34 85 Q20 115 20 150 Q20 202 48 241 Q76 280 126.5 302 Q177 324 244 324 Q273 324 296 320 Q319 316 345 306 L345 332 Q345 366 325.5 387.5 Q306 409 275 409 Q251 409 233 396.5 Q215 384 208 364 L39 390 Q47 426 69 456 Q91 486 123 507.5 Q155 529 194.5 541 Q234 553 279 553 Q334 553 379.5 536 Q425 519 458 488.5 Q491 458 509 415.5 Q527 373 527 322 L527 0 L359 0 L354 63 Q334 26 294.5 5.5 Q255 -15 204 -15 Z M203 163 Q203 143 219.5 129.5 Q236 116 261 116 Q284 116 303.5 126.5 Q323 137 334 154.5 Q345 172 345 195 L345 201 Q331 207 314 211 Q297 215 281 215 Q245 215 224 201 Q203 187 203 163 Z M285 580 Q249 580 221 595.5 Q193 611 176.5 637.5 Q160 664 160 697 Q160 730 176.5 756.5 Q193 783 221 798.5 Q249 814 285 814 Q321 814 349 798.5 Q377 783 393.5 756.5 Q410 730 410 697 Q410 664 393.5 637.5 Q377 611 349 595.5 Q321 580 285 580 Z M285 656 Q301 656 313 668 Q325 680 325 697 Q325 714 313 726 Q301 738 285 738 Q269 738 257 726 Q245 714 245 697 Q245 680 257 668 Q269 656 285 656 Z " />
<glyph glyph-name="uni016F" unicode="&#x16f;" horiz-adv-x="604" d="M299 -15 Q222 -15 164.5 17 Q107 49 76 107.5 Q45 166 45 245 L45 538 L232 538 L232 241 Q232 200 251 177 Q270 154 303 154 Q335 154 353.5 177 Q372 200 372 241 L372 538 L559 538 L559 245 Q559 186 540.5 138.5 Q522 91 487.5 56.5 Q453 22 405.5 3.5 Q358 -15 299 -15 Z M302 580 Q266 580 238 595.5 Q210 611 193.5 637.5 Q177 664 177 697 Q177 730 193.5 756.5 Q210 783 238 798.5 Q266 814 302 814 Q338 814 366 798.5 Q394 783 410.5 756.5 Q427 730 427 697 Q427 664 410.5 637.5 Q394 611 366 595.5 Q338 580 302 580 Z M302 656 Q318 656 330 668 Q342 680 342 697 Q342 714 330 726 Q318 738 302 738 Q286 738 274 726 Q262 714 262 697 Q262 680 274 668 Q286 656 302 656 Z " />
<glyph glyph-name="uniFEFF" unicode="&#xfeff;" d="" />
<glyph glyph-name="uniFFFD" unicode="&#xfffd;" horiz-adv-x="808" d="M404 -34 L15 355 L404 744 L793 355 L404 -34 Z M344 269 L452 269 L452 307 Q502 323 528.5 354.5 Q555 386 555 430 Q555 467 536 495.5 Q517 524 482.5 540 Q448 556 404 556 Q363 556 329.5 542 Q296 528 274 503 Q252 478 245 444 L351 423 Q357 440 369.5 449 Q382 458 399 458 Q417 458 428 448.5 Q439 439 439 423 Q439 401 416 385 Q393 369 344 356 L344 269 Z M398 113 Q416 113 430.5 121.5 Q445 130 453.5 144.5 Q462 159 462 177 Q462 204 443.5 222 Q425 240 398 240 Q371 240 353 222 Q335 204 335 177 Q335 150 353 131.5 Q371 113 398 113 Z " />
</font>
</svg>
